<svg baseProfile="basic" xmlns="http://www.w3.org/2000/svg" xmlns:xlink="http://www.w3.org/1999/xlink" width="319.314" height="460.441" viewBox="0 0 319.314 460.441"><defs><path id="a" d="M.85 0h318.465v461.225H.85z"/></defs><clipPath id="b"><use xlink:href="#a" overflow="visible"/></clipPath><g opacity=".41" clip-path="url(#b)"><path fill="#DB0D15" d="M166.527 46.26c-8.897 27.004 23.512 37.89 35.77 56.2.676 1.01 2.314.063 1.637-.95-11.844-17.693-44.156-28.725-35.585-54.75.382-1.16-1.444-1.656-1.823-.5z"/><path fill="#DB0D15" d="M187.105 94.287c8.064.283 13.195 6.053 19.035 10.832.936.76 2.28-.567 1.336-1.34-6.285-5.136-11.73-11.083-20.37-11.382-1.217-.044-1.216 1.846 0 1.89z"/><path fill="#DB0D15" d="M194.492 101.686c6.355.273 12.447 3.79 18.22 6.145 1.128.462 1.618-1.368.503-1.817-5.965-2.436-12.16-5.936-18.722-6.213-1.215-.056-1.214 1.837 0 1.886z"/><path fill="#DB0D15" d="M213.287 106.67c-.12.76-1.035.533-1.555.535-1.218.01-1.22 1.895-.002 1.893 1.508-.012 3.102-.178 3.38-1.924.187-1.188-1.633-1.705-1.823-.504z"/><path fill="#DB0D15" d="M212.963 107.867c1.217 0 1.218-1.89.002-1.89-1.218 0-1.22 1.888-.002 1.89zM223.646 96.598c-3.266-4.95-6.316-10.027-9.844-14.793-.717-.97-2.358-.03-1.635.95 3.53 4.77 6.582 9.85 9.846 14.794.67 1.01 2.307.067 1.633-.952z"/><path fill="#DB0D15" d="M219.392 87.533c-10.453-2.844-20.378-11.395-28.654-17.965-7.036-5.594-21.444-15.674-22.354-25.523-.107-1.203-2-1.217-1.885-.002.938 10.227 13.96 19.422 21.03 25.334 8.973 7.5 19.846 16.848 31.363 19.98 1.173.32 1.675-1.5.5-1.824z"/><path fill="#DB0D15" d="M210.107 86.73c-3.744-6.13-8.268-11.84-11.074-18.49-.475-1.122-2.102-.16-1.637.948 2.81 6.656 7.336 12.36 11.076 18.49.638 1.04 2.27.092 1.635-.95zM211.34 83.035c-5.928-8.787-7.32-18.793-8.467-29.102-.13-1.197-2.026-1.213-1.89-.002 1.18 10.605 2.64 21.022 8.724 30.054.676 1.006 2.318.06 1.633-.95z"/><path fill="#DB0D15" d="M205.187 78.1c-7.108-13.162-3.692-24.986-2.3-38.95.125-1.214-1.768-1.204-1.89 0-1.438 14.444-4.71 26.438 2.554 39.903.58 1.074 2.212.12 1.637-.953z"/><path fill="#DB0D15" d="M202.856 72.225c.005 0 .122-21.664 2.456-30.455.31-1.166-1.508.125-1.822 1.305-2.375 8.943-2.498 9.148-2.522 29.148l1.888.002zM203.59 37.16c6.59 10.66 12.488 21.775 19.685 32.05.694.995 2.332.054 1.634-.948-7.192-10.277-13.095-21.39-19.684-32.05-.642-1.034-2.282-.09-1.636.948z"/><path fill="#DB0D15" d="M220.723 62.824c1.89 9.926 10.586 16.926 16.086 24.88.69 1 2.33.056 1.634-.95-5.42-7.838-14.047-14.693-15.9-24.426-.23-1.195-2.055-.69-1.82.496z"/><path fill="#DB0D15" d="M232.38 83.28c-3.612-10.933-12.71-20.718-8.597-32.772.395-1.158-1.43-1.65-1.82-.502-4.3 12.588 4.822 22.36 8.596 33.77.378 1.158 2.203.663 1.82-.495zM224.87 43.682c7.278 5.02 12.946 11.875 15.56 20.393.354 1.162 2.184.67 1.82-.496-2.76-9.013-8.728-16.22-16.428-21.528-1.006-.697-1.95.944-.953 1.63z"/><path fill="#DB0D15" d="M236.715 53.965c1.18 10.662 2.354 21.293 2.43 32.035.008 1.22 1.9 1.22 1.887.002-.07-10.742-1.246-21.373-2.428-32.035-.134-1.197-2.022-1.213-1.89-.002z"/><path fill="#DB0D15" d="M241.035 82.305c.928-13.006-4.54-28.34 5.924-38.748.864-.86-.47-2.2-1.338-1.34-10.95 10.898-5.5 26.416-6.474 40.086-.086 1.222 1.805 1.213 1.887.002z"/><path fill="#DB0D15" d="M248.432 45.605c2.27-5.602 4.95-10.902 8.54-15.787.72-.982-.917-1.924-1.632-.955-3.686 5.016-6.4 10.486-8.73 16.236-.462 1.13 1.37 1.62 1.822.505z"/><path fill="#DB0D15" d="M255.246 27.863c-4.377 12.582-.077 24.047 3.668 36.23.354 1.16 2.18.667 1.818-.497-3.6-11.75-7.92-22.998-3.664-35.23.406-1.157-1.422-1.645-1.822-.503z"/><path fill="#DB0D15" d="M256.462 50.54c2.6 13.09 7.853 25.554 3.658 38.927-.366 1.162 1.458 1.662 1.82.502 4.308-13.728-.974-26.437-3.658-39.93-.237-1.198-2.058-.69-1.82.5z"/><path fill="#DB0D15" d="M260.71 89.967c4.497-27.23 25.694-43.037 48.897-54.828 1.087-.556.133-2.185-.947-1.632-23.658 12.018-45.2 28.27-49.77 55.957-.2 1.19 1.622 1.705 1.82.502z"/><path fill="#DB0D15" d="M306 34.88c-15.537 16.858-13.92 46.208-35.596 57.724-1.078.576-.125 2.207.95 1.637 22.023-11.704 20.33-41.042 35.98-58.02.826-.892-.504-2.234-1.334-1.34z"/><path fill="#DB0D15" d="M276.625 95.137c11.393-22.09 36.92-36.69 61.796-31.54 1.19.245 1.7-1.573.508-1.82-25.678-5.317-52.133 9.517-63.934 32.407-.558 1.08 1.074 2.04 1.63.953z"/><path fill="#DB0D15" d="M331.697 62.205c-12.186 18.73-29.843 30.693-48.98 41.498-1.063.598-.114 2.236.95 1.635 19.445-10.98 37.297-23.17 49.66-42.182.665-1.025-.968-1.974-1.63-.95z"/><path fill="#DB0D15" d="M290.168 103.77c20.21-29.248 43.002-3.312 69.416-4.39 1.215-.05 1.22-1.94.002-1.89-28.057 1.143-50.232-24.807-71.05 5.328-.692 1.006.947 1.952 1.632.952z"/><path fill="#DB0D15" d="M357.686 98.994c-19.15 15.916-46.37 7.47-66.363 21.967-.977.71-.036 2.35.95 1.638 20.1-14.576 47.372-6.16 66.75-22.262.94-.78-.404-2.115-1.337-1.342z"/><path fill="#DB0D15" d="M294.938 121.22c13.156-11.833 31.76-8.364 47.132-3.41 1.16.376 1.66-1.452.502-1.82-16.106-5.194-35.286-8.41-48.972 3.888-.907.817.435 2.15 1.338 1.34z"/><path fill="#DB0D15" d="M343.07 118.545c-14.127 7.8-33.63 9.633-48.326 2.418-1.088-.533-2.05 1.096-.953 1.637 15.333 7.52 35.48 5.73 50.233-2.424 1.065-.588.116-2.22-.952-1.63z"/><path fill="#DB0D15" d="M304.115 127.662c17.73-.402 31.216 13.555 49.522 9.87 1.194-.24.688-2.065-.498-1.825-18.014 3.627-31.512-10.332-49.023-9.93-1.217.028-1.22 1.912-.002 1.885z"/><path fill="#DB0D15" d="M351.906 138.176c-15.732 4.865-27.925 7.207-43.992 1.924-9.877-3.248-19.51-7.105-29.926-4.463-1.186.297-.686 2.125.496 1.824 13.6-3.452 27.447 4.606 40.405 7.82 11.523 2.853 22.687-1.933 33.514-5.286 1.16-.357.666-2.182-.498-1.818z"/><path fill="#DB0D15" d="M284.642 138.7c22.044-4.575 37.415 17.394 59.127 13.604 1.2-.21.687-2.03-.502-1.822-21.477 3.748-36.923-18.215-59.126-13.605-1.195.246-.69 2.072.5 1.822z"/><path fill="#DB0D15" d="M339.568 152.943c-22.975 6.855-44.04 6.094-63.137-9.672-.93-.767-2.276.56-1.337 1.337 19.668 16.232 41.215 17.254 64.973 10.158 1.17-.347.674-2.173-.498-1.822z"/><path fill="#DB0D15" d="M279.203 147.316c17.86 5.332 24.874 20.98 25.143 38.54.02 1.218 1.908 1.22 1.89 0-.28-18.446-7.888-34.796-26.526-40.36-1.172-.35-1.67 1.473-.507 1.82z"/><path fill="#DB0D15" d="M307.004 185.04c-15.47-10.022-36.834-16.448-43.887-35.204-.43-1.13-2.254-.64-1.822.5 7.293 19.404 28.742 25.96 44.752 36.334 1.03.668 1.976-.967.957-1.63z"/><path fill="#DB0D15" d="M259.075 150.752c12.907 15.467 10.895 37.268 2.262 54.3-.548 1.085 1.08 2.046 1.632.954 9.052-17.875 10.915-40.445-2.558-56.59-.783-.936-2.113.408-1.337 1.336z"/><path fill="#DB0D15" d="M261.74 205.05c-8.12-17.485-27.056-32.345-22.035-53.505.286-1.184-1.538-1.688-1.82-.502-5.205 21.904 13.788 36.805 22.22 54.96.51 1.104 2.146.15 1.635-.952z"/><path fill="#DB0D15" d="M239.114 153.51c-5.2 19.863-14.972 38.383-35.11 46.123-1.125.436-.637 2.262.498 1.824 20.785-7.992 31.04-26.844 36.434-47.445.308-1.182-1.512-1.686-1.822-.502z"/><path fill="#DB0D15" d="M207.63 199.068c-5.296-19.264 7.906-37.57 23.02-48.195.99-.695.048-2.336-.948-1.633-15.834 11.127-29.424 30.22-23.89 50.324.32 1.174 2.14.678 1.817-.496z"/><path fill="#DB0D15" d="M226.895 148.35c-7.108 11.988-19.545 19.828-30.486 27.967-.97.715-.026 2.365.948 1.63 11.213-8.335 23.888-16.358 31.168-28.645.622-1.052-1.013-2.003-1.63-.952z"/><path fill="#DB0D15" d="M199.025 176.883c-1.573-4.465 5.795-12.043 8.23-14.94 4.227-5.034 9.112-10.134 14.772-13.542 1.043-.624.096-2.263-.95-1.634-6.63 3.994-12.114 10.055-16.954 16.002-2.672 3.29-8.605 9.83-6.92 14.617.4 1.136 2.23.652 1.822-.502z"/><path fill="#DB0D15" d="M218.838 147.904c-19.897 5.922-35.822 19.855-57.672 18.393-1.218-.08-1.215 1.81-.002 1.885 22.105 1.482 37.975-12.443 58.17-18.455 1.166-.348.67-2.168-.496-1.823z"/><path fill="#DB0D15" d="M161.982 167.717c12.21-15.906 29.627-34.223 50.957-35.213 1.214-.057 1.218-1.94 0-1.885-22.077 1.02-39.976 19.708-52.593 36.144-.742.966.9 1.91 1.635.953z"/><path fill="#DB0D15" d="M205.298 130.643c-25.687 7.703-48.126 10.832-74.65 4.855-1.19-.268-1.692 1.553-.503 1.824 26.85 6.047 49.54 2.973 75.654-4.855 1.165-.35.67-2.176-.502-1.824z"/><path fill="#DB0D15" d="M133.33 137.23c18.844-12.453 45.404-29.967 66.822-13.486.963.744 1.91-.9.955-1.635-21.992-16.915-49.344.675-68.727 13.485-1.013.67-.066 2.305.95 1.635z"/><path fill="#DB0D15" d="M200.883 120.78c-17.106-4.31-33.523-7.813-46.203-20.86-7.07-7.277-12.818-15.283-22.752-18.627-1.158-.39-1.652 1.438-.502 1.82 12.604 4.242 19.822 17.168 29.677 25.373 10.405 8.67 26.603 10.924 39.276 14.117 1.182.3 1.684-1.523.503-1.822z"/><path fill="#DB0D15" d="M131.676 81.918c20.174-.37 35.436-.812 52.006 12.584 7.492 6.053 14.498 10.734 24.357 10.89 1.216.024 1.218-1.868 0-1.886-16.103-.258-25.18-14.736-38.93-20.854-11.608-5.166-25.196-2.85-37.433-2.62-1.218.015-1.22 1.907 0 1.886z"/><path fill="#DB0D15" d="M203.365 101.074c-7.336-1.46-13.228-5.957-19.48-9.783-1.04-.634-1.99.997-.95 1.636 6.39 3.91 12.424 8.48 19.928 9.97 1.19.24 1.7-1.587.502-1.822z"/><path fill="#DB0D15" d="M194.97 98.695c-7.99-5.814-15.233-12.717-19.35-21.852-.5-1.113-2.13-.15-1.634.95 4.245 9.427 11.784 16.534 20.033 22.534.986.718 1.927-.92.95-1.632z"/><path fill="#DB0D15" d="M189.248 95.562c-1.455-7.53-6.043-13.557-11.316-18.91-.855-.87-2.195.467-1.338 1.334 5.06 5.14 9.434 10.852 10.832 18.072.234 1.2 2.054.694 1.822-.496z"/><path fill="#DB0D15" d="M195.17 95.148c-6.03-7.115-13.097-13.182-19.7-19.732-.862-.86-2.2.475-1.335 1.334 6.602 6.555 13.67 12.62 19.693 19.734.793.928 2.123-.414 1.342-1.336z"/><path fill="#DB0D15" d="M186.69 92.865c-7.386-11.035-14.85-21.78-19.584-34.285-.424-1.127-2.257-.645-1.82.498 4.792 12.65 12.296 23.564 19.772 34.74.676 1.008 2.313.063 1.63-.953zM229.873 125.666c1.35-7.326 1.143-14.846 2.488-22.176.218-1.188-1.604-1.695-1.82-.5-1.344 7.33-1.138 14.846-2.486 22.174-.218 1.19 1.602 1.7 1.82.502z"/><path fill="#DB0D15" d="M228.314 105.035c-5.232 4.164-7.52 10.36-6.418 16.926.2 1.204 2.023.694 1.82-.495-.99-5.934 1.262-11.375 5.934-15.09.954-.758-.39-2.088-1.336-1.34z"/><path fill="#DB0D15" d="M223.736 135.025c.006 0-.395-11.066 3.434-15.227-.492-.068-.986-.07-1.48-.135 3.582 6.11 6.037 12.55 7.277 19.527.212 1.2 2.033.707 1.822-.482-1.272-7.154-3.8-13.693-7.468-19.94-.3-.51-1.072-.763-1.484-.31-4.234 4.6-3.98 10.52-3.988 16.565-.004 3.024 1.883 3.026 1.886.002 0 0-.003 3.024 0 0z"/><path fill="#DB0D15" d="M228.658 140.282c.01 0 .43-1.966 2.35-7.966h-1.63c2.597 6 6.933 9.6 8.51 15.046.34 1.17 2.165.917 1.82-.257-1.626-5.645-6.015-9.777-8.698-14.898-.345-.648-1.273-1.714-1.633-1.14-2.093 3.31-2.6 7.2-2.605 9.2l1.886.015z"/><path fill="#DB0D15" d="M237.287 140.286c.004 0 .2-7.97 2.35-11.97h-1.634c2.737 4 5.87 11.255 8.607 16.667.546 1.088 2.182.45 1.63-.632-2.735-5.42-5.87-10.454-8.605-15.866-.334-.662-1.275-.456-1.633.11-2.328 3.672-2.598 9.676-2.604 11.676l1.89.016z"/><path fill="#DB0D15" d="M243.42 136.764c1.207-3.297 3.477-5.752 5.92-8.195-.534-.222-1.072-.45-1.61-.67.224 5.16 4.48 8.05 6.18 12.57.43 1.136 2.255.645 1.823-.497-1.598-4.258-5.902-7.283-6.117-12.072-.03-.806-1.01-1.272-1.613-.67-2.693 2.7-5.076 5.403-6.404 9.036-.422 1.144 1.402 1.64 1.82.498z"/><path fill="#DB0D15" d="M253.31 134.36c.193-3.483 2.015-6.087 3.574-9.085-.548 0-1.087 0-1.635-.002 2.36 3.002 7.18 7.12 11.228 11 .883.84 2.22-.643 1.34-1.488-3.886-3.713-8.67-5.762-10.934-10.975-.282-.65-1.33-.627-1.635-.04-1.728 3.343-3.622 6.606-3.827 10.458-.068 1.217 1.824 1.348 1.886.13z"/><path fill="#DB0D15" d="M263.168 129.145c.06-2.338.688-4.592.81-6.92.134-2.553-.933-4.95-2.153-7.11-.357.462-.72.92-1.07 1.384 3.303 1.212 5.756 3.48 8.2 5.927.86.86 2.198-.475 1.337-1.34-2.7-2.7-5.4-5.064-9.033-6.408-.813-.302-1.452.71-1.07 1.386 1.41 2.49 2.15 4.846 1.76 7.7-.247 1.808-.626 3.55-.665 5.378-.038 1.215 1.854 1.217 1.883 0zM266.606 114.924c-2.808-2.902-5.005-6.316-7.236-9.668-.355.465-.714.922-1.065 1.387 4.158 1.062 8.24 2.348 12.31 3.705 1.157.393 1.655-1.432.5-1.818-4.065-1.367-8.147-2.65-12.31-3.705-.764-.197-1.55.666-1.068 1.383 2.316 3.484 4.614 7.037 7.53 10.055.848.878 2.188-.464 1.34-1.34z"/><path fill="#DB0D15" d="M258.555 103.555c-9.47.273-11.96 8.83-12.047 16.95-.016 1.22 1.87 1.222 1.885.003.08-6.96 1.797-14.822 10.16-15.068 1.217-.03 1.22-1.924.002-1.885z"/><path fill="#DB0D15" d="M248.687 114.635c-6.77-.186-13.122-2.77-19.458-4.912-1.155-.393-1.65 1.432-.503 1.82 6.51 2.2 13.004 4.79 19.958 4.977 1.217.033 1.22-1.856.002-1.885z"/><path fill="#DB0D15" d="M236.08 110.64c.06-3.1 1.418-4.272 4.24-5.25 1.145-.394.652-2.22-.5-1.82-3.642 1.26-5.55 3.09-5.627 7.067-.027 1.215 1.866 1.217 1.886.002zM242.063 105.3c2.834 1.53 5.515 4.216 7.042 7.06.578 1.074 2.21.12 1.633-.95-1.68-3.122-4.607-6.06-7.723-7.743-1.072-.58-2.03 1.05-.952 1.632zM245.55 121.062c-2.186 2.273-3.853 4.836-3.98 8.06-.05 1.218 1.843 1.218 1.89.003.104-2.715 1.6-4.822 3.427-6.72.845-.878-.492-2.216-1.338-1.343zM245.898 154.316c.008 0 .105-6.54 2.205-8.532 2.828-2.68 7.08 2.42 8.355 4.302.682.996 2.322-.324 1.64-1.332-1.86-2.73-5.655-7.903-9.69-6.796-1.524.416-2.953 3.85-3.607 5.187-.85 1.75-.786 7.172-.786 7.172h1.884z"/><path fill="#DB0D15" d="M255.312 146.252s.006-5.203.008-8.49c0 .314.207.63-.11.94 4.342.112 8.24 2.165 10.694 5.704.686.996 2.54.053 1.844-.947-2.84-4.11-6.662-6.517-11.692-6.642-.517-.012-.734.438-.735.943-.002 3.29-.008 8.492-.008 8.492-.003 4.2-.003 4.2 0 0 0 0-.003 4.2 0 0z"/><path fill="#DB0D15" d="M265.35 138.334c-1.553-1.764.406-4.854 1.387-6.383-.27.155-.543.335-.814.333.41.002.82.002 1.232.002-.27 0-.55-.18-.818-.334.896 1.636 1.995 2.9 3.777 3.536 1.664.582 3.563-.072 5.18.61 1.11.468 2.076-1.14.955-1.612-1.07-.455-2.103-.537-3.258-.537-2.392-.01-3.823-.63-5.022-2.816-.16-.29-.488-.458-.813-.46-.507 0-1.25-.148-1.71.123-1.04.607-1.637 2.578-2.066 3.668-.694 1.757-.644 3.76.634 5.208.804.916 2.14-.424 1.336-1.334z"/><path fill="#DB0D15" d="M270.553 132.846c.133-3.314 1.152-6.516 1.24-9.854-.47.27-.947.543-1.418.816 3.418 1.523 7.996.963 10.895 3.56.906.81 2.25-.524 1.34-1.337-3.177-2.835-7.604-2.212-11.28-3.854-.65-.287-1.4.045-1.42.814-.093 3.338-1.118 6.537-1.24 9.854-.053 1.218 1.84 1.217 1.883.002z"/><path fill="#DB0D15" d="M276.598 124.982c-1.312-2.64-2.256-5.158-2.326-8.15-.156.273-.848.55-1.004.818 3.312-2.072 8.074-2.326 10.074-2.33l.002-1.885c-2-.002-8.43-.055-11.217 2.727-.865.863.203 3.41.43 4.467.404 1.86 1.43 3.612 2.273 5.304.547 1.093 2.31.136 1.768-.952z"/><path fill="#DB0D15" d="M276.266 114.787c-2.49-1.395-4.014-4.002-5.963-6.018-.22.536-.445 1.077-.668 1.612 3.84-.15 7.008-2.11 10.337-3.812 1.087-.56.13-2.188-.955-1.637-3 1.54-5.91 3.422-9.38 3.56-.826.034-1.256 1.01-.672 1.612 2.08 2.152 3.684 4.822 6.347 6.312 1.065.597 2.02-1.032.954-1.63z"/><path fill="#DB0D15" d="M272.578 107.39c-2.125-1.116-4.033-2.58-6.157-3.7.068.494.13.988.195 1.486 2.086-2.21 3.3-5.697 5.97-7.24 1.056-.607.107-2.246-.95-1.63-2.918 1.68-4.117 5.16-6.357 7.528-.4.432-.365 1.193.19 1.486 2.126 1.117 4.03 2.584 6.156 3.703 1.08.567 2.036-1.066.954-1.632z"/><path fill="#DB0D15" d="M265.698 102.36c-7.73 1.056-9.027-6.49-7.453-12.395.318-1.178-1.506-1.68-1.82-.502-1.032 3.867-1.343 8.186 1 11.646 1.984 2.93 5.51 3.52 8.77 3.073 1.21-.163.692-1.98-.497-1.822z"/><path fill="#DB0D15" d="M255.844 97.424c-4.156 1.2-7.073-2.44-8.78-5.732-.567-1.08-2.196-.127-1.636.953 2.13 4.086 5.906 8.055 10.912 6.604 1.172-.338.677-2.162-.496-1.826zM249.263 100.125c-1.505 1.17-4.827.766-6.57.643-3.558-.25-6.977-1.637-9.337-4.352-.803-.922-2.132.42-1.338 1.33 2.762 3.18 6.588 4.477 10.674 4.91 2.347.25 5.918.355 7.908-1.19.962-.75-.39-2.08-1.337-1.34zM237.364 102.336c-5.877 1.416-11.978 2.26-17.987 1.215-1.19-.21-1.703 1.61-.5 1.82 6.353 1.116 12.764.286 18.986-1.212 1.182-.285.684-2.11-.5-1.822zM206.8 114.02c2.715.11 4.823 1.594 6.72 3.428.875.846 2.217-.49 1.34-1.338-2.273-2.188-4.833-3.85-8.06-3.975-1.216-.055-1.216 1.84 0 1.885zM207.56 106.502c3.254 1.57 6.71 2.512 10.334 2.6 1.218.027 1.22-1.86 0-1.89-3.28-.08-6.43-.92-9.38-2.343-1.09-.526-2.05 1.1-.953 1.632z"/><path fill="#DB0D15" d="M209.838 102.662c2.598 2.45 6.025 3.713 8.615 6.162.38-.496.766-.988 1.146-1.482-3.748-2.7-5.26-7.637-8.42-10.947-.84-.883-2.18.45-1.338 1.332 3.315 3.48 4.832 8.38 8.805 11.246.88.63 1.913-.758 1.146-1.482-2.6-2.45-6.023-3.722-8.615-6.167-.886-.83-2.23.5-1.34 1.34z"/><path fill="#DB0D15" d="M211.486 102.904c3.696 1.232 7.39 2.467 11.084 3.705.78.26 1.5-.7 1.068-1.388-1.98-3.146-3.772-6.732-6.2-9.557 1.25 1.457 6.9 4.197 9.836 5.924.815.474 1.778-.478 1.296-1.292-5.307-8.982-7.22-8.844 2.412-3.63.736.395 1.583-.253 1.387-1.065-.415-1.738-1.333-7.016-2.005-8.54-.696-.032-1.39-.063-2.086-.097 1.235 2.2 2.578 4.334 4.036 6.398 1.864 2.795 1.433 3.43 4.066 3.432.673.002.996-.598.912-1.19-2.33-16.02-1.21-6.798.643-.73.332 1.08 1.73.767 1.854-.247 1.104-8.958.768-16.315 1.813-1.233.07 1.045 1.54 1.31 1.855.248 2.287-7.707.623-13.383.613-2.4 0 .518.426.02.942.02.412.002.82.002 1.23.002.315 0 .67.748.82.457 2.25-4.502 1.94-5.37 1.935-.01-.002 1.14 1.47 1.408 1.853.475 6.28-15.112 2.228-4.722.642 3.313-.207 1.033 1.143 1.73 1.73.785 1.077-1.79 2.202-3.527 3.374-5.262-4.32 6.582 1.248-15.246-2.644 3.348-.23 1.107 1.086 1.572 1.73.736 10.316-13.447 5.553-6.943 2.066-.943-.56.967.69 1.834 1.486 1.145 5.586-4.855 2.58-4.158-.255.09-.592.885.793 1.97 1.48 1.146 3.04-3.64 4.195-7.123 2.116-.916-.292.855.985 1.674 1.573.92 6.536-8.385 2.55-3.912-.248 2.55-.482 1.11.916 1.96 1.63.952 2.94-4.143 3.528-8.16 1.97-1.955-.188.753.667 1.558 1.386 1.067 8.262-5.613 10.39-6.29 2.548 3.447-.77.95.38 2.098 1.337 1.336 3.346-2.67 3.356-5.988.888.312-.31.783.727 1.49 1.386 1.068 2.678-1.504 5.478-2.7 8.398-3.594 1.145-.393.653-2.22-.497-1.824-2.668.918-9.027 4.787-4.006-.883.82-.93-.4-2.09-1.34-1.34-10.948 8.74-.823.59-2.31 3.122 1.63-2.783 3.102-5.545 5.03-8.135.606-.81-.526-1.71-1.292-1.297-.96.52-10.926 7.814-7.33 1.29.506-.93-.725-1.94-1.487-1.147-7.877 8.217-1.166 1.51 1.49-2.553.61-.934-.717-1.84-1.486-1.146-3.77 3.396-5.887 8.52-3.344.914.297-.865-.968-1.646-1.58-.918-3.172 3.795-3.916 7.39.252 1.145.59-.883-.786-1.965-1.482-1.146-6.703 7.87.143-1.47 1.486-3.784.54-.924-.722-1.914-1.482-1.146-.885.9-9.57 12.79-5.91 4.834.504-1.092-1.117-2.057-1.635-.95-5.48 11.733-2.003.948-.733-6.667.2-1.19-1.422-1.674-1.82-.502-3.98 11.678-3.082 10.422-3.077 5.176 0-.897-1.327-1.34-1.757-.474-1.152 2.307-2.32 4.62-3.502 6.918.356-3.373.468-6.754.337-10.145.002-1.237-1.78-1.194-1.885-.003-1.148 12.47-1.096 8.48-1.814-.002-.103-1.234-1.744-1.195-1.887-.002-1.64 13.37-1.253 10.95-4.306.98-.3-.98-1.99-.85-1.855.246.017.15.264 12.61 1.545 12.612-2.048-.002-6.395-10.107-7.177-11.86-.502-1.114-2.123-.153-1.635.948 5.393 12.184.42 9.314-6.104 4.86-.95-.65-1.777.71-1.147 1.485 11.244 13.82.82 5.63-5.016 2.207-.965-.568-1.826.69-1.146 1.482 7.296 8.465 8.85 10.523-1.55 7.047-1.158-.385-1.655 1.44-.504 1.824z"/><path fill="#DB0D15" d="M276.36 106.312c-2.01 2.19-1.65 1.576-2.705 4.11-.37.872.74 1.343 1.385 1.07 4.784-2.048 5.66-3.17 2.55-.534-.648.55-.107 1.336.666 1.336l6.748.008-6.748-.008c-.89 0-1.357.676-.473 1.092 5.11 2.43 7.456 1.484 1.222 4.197-.737.324-.538 1.422.224 1.564 4.765.67 4.438.787-.98.523-.767 0-1.325 1.027-.67 1.572 2.325 1.934 4.073 2.793.42 3.324-.917.13-.79 1.3-.228 1.72 10.496 7.894 3.305 4.987-.514 4.433-.62-.09-1.463.4-1.162 1.15 2.266 5.69 4.865 4.77.153 1.397-.746-.535-1.514.34-1.39 1.064.31 2.282.765 4.536 1.36 6.755.254.713.375.27.363-1.322-.596-.797-2.1-.367-1.73.723 1.046 3.078 2.136 3.723-2.114.316-.608-.484-1.63-.23-1.616.668.075 5.533 2.353 12.516-4.398.748-.615-1.07-2.135-.133-1.63.953 3.7 8.085 5.513 6.712-.99.087-.765-.78-1.995.21-1.48 1.143 3.177 5.805 6.71 8.084.25 2.55-.84-.72-1.927.165-1.485 1.144 4.6 10.223 1.01 2.775-4.868-1.297-.656-.457-1.676.303-1.39 1.066 2.796 7.387 6.255 7.588-.88.312-.725-.736-1.71.045-1.58.92 2.146 14.66-.45 6.045-4.436.5-.576-.803-2.164-.336-1.726.725 3.735 9.057 3.75 6.287-2.118.31-.625-.638-1.534-.112-1.613.67-1.134 10.927-.942 5.98-3.074-.257-.286-.857-1.565-.945-1.82-.002-1.754 6.48-1.99 15.94-3.077.25-.052-.798-.995-1.284-1.612-.673-7.166 7.166-3.234 4.62.256-1.312.562-.96-.693-1.844-1.482-1.148-6.93 6.123-6.027 7.02.108.105.56-.633.03-1.975-.92-1.582-4.71 3-5.698 2.758-2.976-.738.793-.58.35-2.16-.723-1.725-8.255 3.354-1.94 1.03.727-.738.9-.6.34-1.966-.723-1.728-8.562 1.89-8.802 3.744-2.77-2.12.668-.653-.005-1.856-.918-1.58-8.82 2.66-11.735 5.456-4.01-2.124.654-.64 0-1.88-.916-1.58-5.783 1.92-3.562 2.64.725.498 1.045-.525.242-1.86-.723-1.725-3.688.507-7.777 2.325-5.244-.892.305-.387.42-.963.002-1.338-3.416-3.06-2.42-.727 1.24-4.824.53-.6.193-1.61-.666-1.61-4.14-.005-2.014.35.475-.7.767-.322.517-1.562-.226-1.73-5.674-1.75-7.072-1.964-4.193-.645 1.206.18 1.644-1.362.502-1.823-7.065-2.84 2.396-.605 4.675-.604 1.148 0 1.18-1.465.254-1.855-8.833-3.717-10.907-2.748-3.688-5.572.908-.357.88-1.46.002-1.822-1.748-.11-.682.09 3.195.592 1.014.178 1.696-1.14.726-1.723-6.536-3.934 3.027-1.7 6.918-1.93.725-.043 1.163-.77.816-1.422-1.758-3.325-3.463-5.013-6.297-7.587-.902-.82-2.244.514-1.34 1.336 7.213 6.54-1.558 6.386-6.73 5.77-.98-.12-1.224 1.312-.478 1.762 4.18 2.512 4.37 1.553-.51.73-.856-.145-1.68.883-.92 1.58 3.748 3.44 2.372 2.053-3.28 3.35-1.015.23-.782 1.492 0 1.82 11.784 4.957 7.175 3.078.247 3.072-1.138 0-1.195 1.477-.252 1.852 3.412 1.37 5.454-.166 0 .645-.973.146-.842 1.595-.003 1.825 3.435.95 6.66 1.01 3.466 3.2-.746.52-.514 1.76.477 1.763 6.527.01 2.205 1.34-.48 3.172-.644.438-.62 1.514.224 1.725 3.238.812 1.083 2.857-.423 4.576-.59.68-.038 1.88.918 1.583 1.65-.504 11.836-4.912 2.97-.49-.956.48-.29 2.066.73 1.727 5.088-1.693 7.06-3.46-1.96 3.197-.836.615-.375 2.006.723 1.73 4.58-1.147 17.286-7.35 5.437.745-.89.6-.348 1.96.725 1.727 4.947-1.095 9.516-3.622 2.965.733-.89.6-.342 1.984.723 1.73 3.997-.943 4.25-3.205.166 2.31-.494.663.318 1.642 1.066 1.386 9.412-3.212 6.105-1.8 1.543 3.354-.81.91.418 2.143 1.334 1.336 6.74-5.963 6.364-5.773.976 1.324-.666.87.743 1.883 1.48 1.143 6.416-6.396 6.3-4.064 7.01 4.262.09 1.06 1.507 1.302 1.855.255 1.923-5.805 1.925-11.295 5.577-2.46.41.993 1.74.85 1.855-.25.887-8.538 1.18-9.022 6.86-.745.573.836 2.095.346 1.73-.723-4.02-11.758-.614-2.502 1.966 1.957.576.996 1.873.275 1.727-.727-1.5-10.234-1.592-11.14 4.436-2.967.706.96 2.29.11 1.638-.95-5.3-8.55 3.463-.228 4.672 1.15.727.82 2.014-.233 1.488-1.144-3.305-5.754-6.22-10.285-.253-2.55.716.925 1.862-.253 1.485-1.144-2.126-5.025-7.97-12.21.83-.28.727.98 2.146.167 1.635-.948-3.74-8.16-6.334-6.8.982-.09.68.623 1.848.02 1.582-.918-2.294-8.203-1.32-7.746 3.35-4.004.665.535 1.92.07 1.58-.918-.798-2.348-5.356-5.56-.35-1.545.77.61 2.185-.218 1.487-1.142-4.14-4.998-4.682-6.732-1.626-5.213.55.87 2.14.312 1.73-.723-2.458-6.15-2.562-4.697 3.766-3.764.964.14 1.52-.81.92-1.58-4.998-6.408-6.105-4.977-.412-5.814.686-.098.932-1.15.42-1.576-3.152-2.62-3.916-3.322 1.8-3.316.913 0 1.327-1.31.477-1.758-4.687-2.467-3.13-1.975.2-4.676.52-.422-.272-1.48-.954-1.58-4.35-.64-9.25-.617-3.25-.613l.002-1.89c-6-.005-2.463.485.125-3.505.57-.885-.234-1.63-1.02-1.293-1.733 2.05-3.27 2.54-4.886 1.48.818-.895-.38-2.237-1.207-1.335z"/><path fill="#DB0D15" d="M211.4 123.188c1.307-4.775 3.8-8.164 8.194-10.52-.464-.188-.923-.04-1.388-.23 2.312 6.27 2.418 12.804 2.414 19.804l1.89.002c0-7-.116-13.883-2.48-20.305-.212-.583-.815-1.046-1.385-.737-4.806 2.578-7.64 6.342-9.067 11.566-.322 1.175 1.497 1.595 1.82.418z"/><path fill="#DB0D15" d="M219.424 128.85c-1.172 6.775-.096 13.545 1.217 20.22.23 1.196 2.056.69 1.823-.5-1.242-6.323-2.324-12.792-1.216-19.214.204-1.19-1.616-1.704-1.823-.506zM318.418 199.02c1.59-3.547 1.36-3.686 1.37-13.686l-1.888-.002c-.012 10 .312 8.488-1.113 11.672-.494 1.098 1.133 3.12 1.63 2.016zM288.85 301.402c-2.45-7.205-5.316-13.834-9.934-19.95-.432.43-.863.864-1.29 1.29 3.325 2.467 7.454 2.965 11.08 4.943.723.39 1.612-.248 1.388-1.066-1.173-4.308-1.645-8.58-3.78-12.554-.497.38-.985.764-1.483 1.143 2.146 2.403 4.007 4.997 6.15 7.4.57.638 1.59.11 1.61-.667.184-6.31.854-12.45-.014-18.73-.607.168-1.217.33-1.82.496 1.182 4.532 2.504 9.028 3.688 13.558.23.893 1.598.916 1.822.002 1.288-5.326 2.42-10.684 3.71-16.012-.622-.084-1.24-.17-1.855-.256.208 4.955 1.005 9.838 1.218 14.787.045 1.063 1.545 1.296 1.854.253 1.384-4.623 4.02-8.924 5.4-13.55-.62-.08-1.388-.17-1.388-.247-.006 4.926-.01 9.854-.015 14.78-.002 1.13 1.018 1.202 1.39.253 1.1-2.8 1.413-5.73 2.242-8.626-.623-.078-1.353-.166-1.972-.248-.02 5.74-.125 11.346-1.27 16.996-.206.996 1.19 1.736 1.693.73.9-1.77 3.068-5.023 3.098-6.387-.128 5.59-1.65 10.646-4.758 15.285-.682 1.018.956 1.96 1.63.953 3.88-5.8 4.91-12.076 5.068-18.95.02-.767-1.084-1.335-1.61-.67-2.11 2.667-3.563 5.782-5.085 8.813.572.24 1.152.486 1.723.73 1.18-5.798 1.27-11.6 1.283-17.5.007-1.075-1.56-1.276-1.854-.253-.824 2.887-1.848 5.82-2.95 8.623.618.08 1.373.168 1.373.248.004-4.926.008-9.854.014-14.78 0-1.083-1.07-1.27-1.373-.253-1.386 4.622-3.32 8.925-4.7 13.55.62.08 1.355.168 1.973.25-.207-4.95-.942-9.832-1.154-14.787-.044-1.035-1.567-2.05-1.833-.98-1.285 5.326-2.383 10.29-3.672 15.287l1.822.002c-1.18-5.002-2.508-8.3-3.69-12.826-.314-1.217-1.985-.312-1.82.86.708 5.144.353 10.202.037 15.33.013-.26-4.118-4.32-4.628-4.894-.737-.824-1.977.273-1.484 1.193.49.908 2.768 9.848 3.048 10-2.978-1.617-6.352-1.8-9.152-3.877-.74-.553-1.854.55-1.296 1.297 4.514 5.977 7.34 12.43 9.744 19.5.39 1.154 2.214.666 1.824-.493z"/><path fill="#DB0D15" d="M303.63 303.148c2.472-6.16 4.938-12.316 7.41-18.475.458-1.133-1.37-1.62-1.82-.502-2.474 6.155-4.942 12.317-7.41 18.476-.456 1.13 1.376 1.62 1.82.502zM307.326 301.918c2.475-7.39 4.94-14.775 7.414-22.168.388-1.152-1.437-1.652-1.82-.502l-7.41 22.17c-.39 1.158 1.435 1.654 1.816.5z"/><path fill="#DB0D15" d="M309.7 300.914c3.504-5.957 6.164-12.29 8.733-18.697.457-1.133-1.373-1.62-1.822-.504-2.505 6.258-5.12 12.424-8.542 18.25-.62 1.053 1.015 2.004 1.63.95z"/><path fill="#DB0D15" d="M310.928 304.615c3.928-6.63 7.277-13.584 7.54-21.414.04-1.218-1.85-1.216-1.89 0-.25 7.49-3.53 14.128-7.28 20.458-.628 1.05 1.007 2.004 1.63.957z"/><path fill="#DB0D15" d="M312.01 303.57c5.08-5.27 7.617-11.76 8.885-18.89.213-1.187-1.607-1.694-1.822-.5-1.21 6.796-3.54 13.015-8.396 18.056-.845.877.488 2.213 1.333 1.334zM306.984 296.074c-3.887 3.682-8.732 4.37-13.868 3.438-1.188-.215-1.7 1.605-.502 1.824 5.817 1.055 11.3.248 15.706-3.924.89-.842-.45-2.174-1.336-1.338zM301.63 302.318s-8.4-.008-12.6-.014c-4.203-.004-4.203-.004 0 0 4.2.007 8.402.01 12.6.014z"/><path fill="#DB0D15" d="M291.166 302.596s9.1-.107 12.8-1.25c1.16-.36-.065-2.182-1.23-1.824-3.548 1.098-7.567 1.19-11.567 1.19l-.004 1.884zM298.26 309.87c2.822-1.36 5.812-2.33 8.63-3.69 1.1-.528.142-2.16-.954-1.634-2.82 1.36-5.807 2.328-8.626 3.69-1.1.528-.142 2.16.95 1.633z"/><path fill="#DB0D15" d="M298.03 313.66c5.578-1.46 10.4-4.28 13.978-8.855.746-.943-.584-2.293-1.334-1.334-3.398 4.34-7.848 6.983-13.14 8.368-1.18.307-.68 2.13.495 1.822z"/><path fill="#DB0D15" d="M302.96 313.664c4.485-1.533 8.864-3.877 11.66-7.816.71-.998-.93-1.938-1.63-.955-2.49 3.504-6.555 5.586-10.53 6.95-1.146.393-.654 2.218.5 1.82z"/><path fill="#DB0D15" d="M307.07 318.355c5.215-5.283 9.84-11.096 13.71-17.43.642-1.04-.99-1.99-1.628-.953-3.79 6.2-8.314 11.88-13.416 17.045-.86.87.48 2.21 1.334 1.338zM163.143 341.938c-1.45-7.352-4.547-14.057-7.373-20.95-.574.247-1.15.487-1.73.73 2.644 4.67 6.704 8.043 9.85 12.326.527.72 1.763.54 1.757-.475-.004-4.69-.04-9.255-1.248-13.806-.58.242-1.155.482-1.728.723 1.357 2.752 2.57 5.518 3.592 8.406.35.998 1.81 2.396 1.852 1.303.174-4.543 1.03-8.002 1.243-12.002-.63 0-1.262 0-1.89-.002.286 4 1.456 4.38 2.493 7.324.352.996 1.814.07 1.854-1.02.193-4.614-.057-9.317 1.32-13.685-.617-.083-2.977-.565-2.977-.645l-.01 9.857c0 .9 2.455 1.346 2.88.475 1.483-3.004 2.938-5.732 3.163-9.09-.614.076-.96.164-1.57.246.857 2.83 1.32 5.438 1.33 8.375.004 1.13 1.543 1.193 1.922.25.97-2.428 1.547-4.96 2.505-7.39-.606-.17-1.195-.333-1.802-.5-.83 4.505-.408 9.04-1.23 13.55.604.17 1.212.334 1.818.502.3-1.68.95-3.244 1.236-4.922.21-1.19-1.605-1.703-1.818-.508-.79 4.504-.244 9.096-1.24 13.55-.224 1.005 1.226 1.73 1.73.73 1.23-2.463 2.468-4.924 3.702-7.39-.586-.16-1.174-.315-1.758-.478-.266 5.096-2.06 8.912-4.818 13.072-.67 1.02.965 1.967 1.635.955 2.974-4.493 4.79-8.593 5.068-14.026.048-.924-1.342-1.318-1.76-.475-1.23 2.462-2.468 4.92-3.7 7.384.57.244 1.15.486 1.726.73 1-4.474.443-9.02 1.24-13.546-.604-.172-1.212-.338-1.82-.508-.294 1.686-.944 3.248-1.233 4.928-.21 1.19 1.6 1.705 1.82.502.827-4.508.415-9.04 1.242-13.55.222-1.208-1.376-1.63-1.82-.503-.964 2.432-1.507 4.96-2.472 7.387.617.086 1.236.172 1.854.254-.015-3.186-.328-5.828-1.258-8.873-.316-1.05-1.782-.805-1.854.25-.207 3.074 2.425 5.426 1.09 8.143.587.164 5.19.324 5.19.484l.01-9.857c0-1.084-4.972-1.266-5.288-.254-1.436 4.562-4.03 9.02-4.225 13.798.617-.08.377-.168.994-.246-.964-2.754-2.582-5.44-2.85-8.377-.108-1.203-2.042-1.236-2.1-.002-.218 4.54-1.18 9.006-1.35 13.55.61-.08 1.185-.165 1.798-.245-1.08-3.06-2.37-5.957-3.807-8.86-.487-.98-2.01-.286-1.74.728 1.16 4.39 1.167 8.807 1.18 13.303.58-.157 1.173-.315 1.753-.474-3.13-4.277-7.21-7.67-9.844-12.326-.52-.914-2.146-.29-1.733.725 2.826 6.896 5.925 13.592 7.375 20.945.24 1.2 2.055.69 1.82-.502z"/><path fill="#DB0D15" d="M166.172 350.498c8.408-3.066 12.998-10.93 15.465-19.13.354-1.165-1.47-1.665-1.824-.503-2.254 7.498-6.396 14.984-14.14 17.812-1.132.415-.646 2.243.5 1.82z"/><path fill="#DB0D15" d="M175.36 352.53c3.605-7.198 7.217-14.42 8.74-22.39.226-1.19-1.596-1.7-1.823-.504-1.486 7.812-5.014 14.89-8.547 21.94-.542 1.09 1.084 2.05 1.63.955z"/><path fill="#DB0D15" d="M179.058 350.078c4.22-5.91 6.15-12.975 6.306-20.186.026-1.22-1.863-1.223-1.89-.002-.145 6.91-2.015 13.574-6.046 19.23-.71.995.93 1.94 1.63.958z"/><path fill="#DB0D15" d="M182.754 350.082c2.632-5.525 3.84-11.51 5.04-17.475.24-1.19-1.58-1.693-1.822-.5-1.17 5.787-2.292 11.652-4.85 17.018-.52 1.098 1.107 2.055 1.632.957z"/><path fill="#DB0D15" d="M183.84 349.04c2.16-2.247 3.69-4.804 5.086-7.58.54-1.09-1.086-2.046-1.635-.954-1.317 2.633-2.726 5.057-4.788 7.193-.846.876.492 2.214 1.338 1.34zM155.77 222.203c-3.72-6.783-4.808-14.426-6.05-21.955-.573.238-1.15.482-1.725.723 2.12 4.997 4.967 8.704 8.762 12.524.668.668 1.834-.01 1.58-.92-1.123-4.053-1.33-8.268-2.455-12.32-.387.385-.773.775-1.16 1.158 1.62.65 2.652 2.678 3.035 4.27.257 1.08 1.795.583 1.854-.44.202-3.338.974-7.057 1.24-10.057-.626 0-1.26 0-1.89-.002.264 3 1.03 6.72 1.223 10.06.062 1.093 1.48 1.34 1.855.345 1.57-4.17 3.682-7.97 4.94-12.264-.618-.086-1.236-.145-1.853-.23-.018 2.92-.092 5.63-1.21 8.384-.41.998 1.248 1.688 1.728.736 1.235-2.46 2.47-4.924 3.7-7.387-.57-.242-1.15-.484-1.724-.727-1.146 5.293-1.335 10.717-2.48 16.016-.227 1.04 1.14 1.645 1.727.723 2.766-4.343 4.854-8.81 6.266-13.77-.604-.167-1.215-.33-1.82-.5-1.13 6.228-1.56 12.478-3.713 18.476-.418 1.164 1.375 1.605 1.82.502 1.25-3.078 3.21-5.547 4.846-8.395.62-1.08-.932-1.922-1.635-.955-2.116 2.914-3.954 5.928-5.6 9.13-1.034 2.026-3.362 5.616-3.097 7.997.066.61.547 1.072 1.195.912 1.472-.367 1.29-2.523 2.62-3.197 1.087-.555.136-2.184-.95-1.633-.922.467-1.848 2.926-2.172 3.008.402.305.8.61 1.195.912-.242-2.184 2.61-6.582 3.663-8.63 1.357-2.66 3.025-5.134 4.78-7.544-.547-.316-1.088-.635-1.634-.955-1.712 2.99-3.73 5.635-5.032 8.848.605.17 1.213.334 1.82.502 2.155-6 2.588-12.242 3.713-18.477.216-1.177-1.483-1.687-1.82-.5-1.36 4.78-3.413 9.136-6.073 13.317.572.244 1.15.486 1.725.73 1.146-5.29 1.336-10.72 2.477-16.015.216-1-1.228-1.73-1.728-.727-1.232 2.463-2.465 4.924-3.7 7.39.57.243 1.147.483 1.724.726 1.19-2.933 1.26-5.718 1.273-8.872.01-1.076-1.553-1.268-1.853-.248-1.26 4.275-3.377 8.154-4.94 12.312.618.08 1.235.168 1.853.254-.19-3.326-.963-6.55-1.223-9.863-.094-1.215-1.793-1.217-1.89-.002-.26 3.315-1.042 6.536-1.234 9.862.614-.084 1.23-.172 1.854-.252-.547-2.3-2.113-4.69-4.36-5.592-.687-.27-1.335.527-1.16 1.158 1.124 4.06 1.33 8.27 2.456 12.326.525-.303 1.055-.613 1.58-.92-3.643-3.66-6.438-7.352-8.467-12.133-.45-1.062-1.887-.245-1.73.722 1.27 7.707 2.437 15.48 6.235 22.41.588 1.07 2.224.12 1.64-.95z"/><path fill="#DB0D15" d="M164.245 227.05c5.224-4.1 8.677-9.968 10.112-16.425.264-1.184-1.56-1.693-1.82-.502-1.377 6.176-4.635 11.672-9.63 15.59-.958.752.39 2.078 1.338 1.338zM166.512 228.434c4.32-2.94 7.8-6.773 10.207-11.42.556-1.08-1.07-2.037-1.63-.953-2.26 4.355-5.475 7.978-9.527 10.735-1 .684-.06 2.324.95 1.64z"/><path fill="#DB0D15" d="M150.785 221.025c5.64 3.965 12.715 4.912 19.198 2.578 1.136-.408.65-2.234-.5-1.822-6.063 2.183-12.476 1.313-17.745-2.386-.998-.7-1.945.94-.953 1.63z"/><path fill="#DB0D15" d="M150.78 225.957c5.485 3.96 10.984 4.588 16.964 1.246 1.07-.596.113-2.227-.95-1.633-5.4 3.016-10.153 2.297-15.06-1.246-.985-.715-1.933.924-.955 1.633z"/><path fill="#DB0D15" d="M152.234 229.748c5.652 1.31 11.427 1.14 16.74-1.312 1.11-.51.148-2.146-.95-1.637-4.835 2.235-10.167 2.313-15.287 1.126-1.186-.274-1.692 1.55-.503 1.822z"/><path fill="#DB0D15" d="M158.893 233.45c4.992-1.327 9.076-4.028 12.742-7.626.87-.855-.465-2.188-1.338-1.334-3.44 3.375-7.213 5.887-11.902 7.135-1.182.313-.68 2.137.498 1.824zM240.63 222.092c-1.007-1.004-1.687-1.5-3.128-1.512-1.22-.016-1.22 1.88-.002 1.89.887.007 1.173.34 1.79.956.868.86 2.203-.473 1.34-1.334z"/><path fill="#DB0D15" d="M240.78 222.28c-2.515-4.728-5.698-8.753-6.024-14.31-.066-1.21-1.945-1.226-1.886-.003.18 3.73 1.044 7.36 1.224 11.09.05 1.047 1.57 1.314 1.854.254 1.448-5.394 3.45-10.644 3.742-16.265-.534.22-1.072.445-1.61.664.82.82 1.637 1.647 2.46 2.468.544.547 1.324-1.328 1.58-1.967.966-2.43 1.513-5.946 2.474-8.946-.607 0-1.213 0-1.822-.002.478 3.002 1.01 5.475 1.197 7.47.09 1.022 1.542 2.104 1.85 1.024.935-3.264 2.138-6.3 3.382-9.465-.616-.085-.934.22-.934.138l-.014 14.785c0 .918.393 1.324.844.475 1.564-2.914 2.914-5.697 4.482-8.62-.588-.155-1.404-.313-1.992-.472-.01 3.312-.372 6.408-1.323 9.6-.284.98.834 1.48 1.52.92 1.84-1.494 3.853-2.484 5.948-3.54-.438-.435-.88-.864-1.303-1.298-2.586 5.135-5.273 10.12-8.648 14.78-.72.987.918 1.933 1.627.954 3.374-4.658 6.06-9.646 8.636-14.78.432-.856-.434-1.728-1.293-1.292-2.256 1.14-4.396 2.248-6.357 3.836.526.31 1.055.613 1.58.922 1.008-3.398 1.262-6.572 1.27-10.102.007-.92-1.304-1.318-1.76-.48-1.563 2.922-3.394 5.697-4.966 8.617.586.16 1.734.32 1.734.48l.014-14.785c.002-1.13-1.45-1.197-1.826-.25-1.252 3.16-1.527 6.592-2.457 9.852.623.086 1.248.172 1.867.254-.205-2.17-.74-4.3-1.264-6.412-.24-.988-1.5-.81-1.816-.002-.97 2.434-1.51 4.96-2.47 7.39.524-.14 1.052-.28 1.574-.417-.82-.82-1.64-1.643-2.458-2.465-.606-.61-1.568-.14-1.613.666-.28 5.45-2.274 10.54-3.68 15.76.62.086 1.237 1.316 1.856 1.396-.184-3.727-1.04-7.943-1.227-9.943-.625-.002-1.258-.002-1.886-.002.35 2 3.56 9.008 6.274 14.12.576 1.08 2.212-1.02 1.64-2.094z"/><path fill="#DB0D15" d="M236.012 226.133c6.442 1.13 12.604.02 17.98-3.777.986-.69.048-2.336-.953-1.633-4.954 3.498-10.575 4.63-16.526 3.586-1.19-.212-1.703 1.612-.502 1.823z"/><path fill="#DB0D15" d="M243.336 225.477c1.492-5.258 5.947-9.29 10.664-11.748 1.08-.563.128-2.192-.953-1.632-5.15 2.688-9.908 7.154-11.53 12.877-.335 1.17 1.485 1.673 1.82.502z"/><path fill="#DB0D15" d="M237.975 224.8c5.2-3.75 11.104-6.15 17.023-8.51 1.125-.444.635-2.276-.496-1.823-6.062 2.42-12.153 4.854-17.477 8.7-.98.712-.04 2.35.95 1.634zM242.896 230.97c5.444-2.79 10.152-6.563 13.9-11.413.742-.967-.898-1.908-1.635-.955-3.538 4.578-8.083 8.105-13.214 10.734-1.092.555-.135 2.184.95 1.633z"/><path fill="#DB0D15" d="M244.123 233.436c5.418-2.918 8.744-8.56 11.44-13.88.55-1.085-1.08-2.044-1.63-.956-2.555 5.035-5.627 10.438-10.762 13.2-1.072.58-.12 2.212.953 1.636z"/><path fill="#DB0D15" d="M254.42 225.486c1.236-4.932 2.473-9.855 3.713-14.783.295-1.182-1.526-1.684-1.82-.502-1.242 4.927-2.48 9.853-3.71 14.784-.298 1.182 1.522 1.684 1.817.502zM318.518 191.78c-1.378-8.224-4.567-16-4.875-24.394l-1.613.664c2.057 2.053 4.11 4.11 6.154 6.168.54.537 1.706.186 1.615-.668-.257-2.502-.964-4.887-1.222-7.39-.475.267-.95.54-1.423.81 2.042 1.044 2.735 5.833 5.652 5.028.41-.113.694-.488.694-.91.022-2.89.18-5.633 1.205-8.373-.618-.082-1.24-.17-1.854-.25.222 2.17.74 4.297 1.26 6.41.184.754 1.378.988 1.73.227 1.31-2.838 1.65-5.777 2.96-8.62-.584-.16-2.5-.32-2.5-.48l-.01 11.09c0 .942 2.02 1.29 2.5.476 1.51-2.56 3.8-4.82 5.304-7.387-.574-.24-.963-1.034-1.537-1.286-1.623 6.902-1.686 13.45-3.516 20.45h1.824s-.013.517-.016.493c-.35-1.16-2.177-.39-1.823.78.008.02.01.18.016.194.27.886 1.577.997 1.823.067 1.828-6.826 2.074-14.055 3.695-20.953.242-1.033-1.172-1.656-1.725-.713-1.504 2.563-2.11 4.833-3.62 7.4.587.16 3.075.327 3.075.485.004-3.693.008-7.396.01-11.09.002-.887-2.666-1.36-3.074-.475-1.307 2.836-3.052 5.773-4.36 8.62.574.07.822.15 1.397.226-.47-1.943-1.147-3.912-1.356-5.91-.11-1.068-1.555-1.277-1.932-.252-.47 1.25-.904 2.285-1.05 3.64-.088.9.57 4.99-.987 2.753-.832-1.184-1.486-2.588-2.815-3.268-.574-.294-1.51.05-1.425.815.256 2.498.96 4.883 1.215 7.393l1.615-.67c-2.05-2.055-4.104-4.107-6.156-6.168-.57-.564-1.646-.168-1.616.672.313 8.564 3.53 16.5 4.94 24.893.202 1.207 2.025.692 1.824-.496z"/><path fill="#DB0D15" d="M320.32 192.945c6.022-1.68 10.406-6.98 11.764-12.973.27-1.184-1.553-1.69-1.822-.502-1.213 5.36-5.03 10.14-10.44 11.65-1.176.325-.676 2.15.497 1.825zM79.522 169.883c2.065-9.402-.73-18.39-2.435-27.61-.605.165-1.215.333-1.82.5.406 1.233.82 2.466 1.228 3.694.237.723 1.337 1.006 1.724.227 1.317-2.623.066-.723 1.243 1.787 1.273 2.72 3.828 4.954 5.887 7.04.465.47 1.46.307 1.582-.414 1.14-6.79 1.146-13.426.02-20.217-.576.24-1.158.48-1.73.722 1.41 2.22 2.2 4.607 2.365 7.172.14.977 1.576 1.01 1.822.186 1.468-5.035 3.265-10.848 3.737-14.846-.627-.002-1.26-.002-1.885-.002.348 4 1.78 7.318 2.49 11.156.15.832 1.332.793 1.725.133.93-1.575 1.55-3.41 2.47-4.97-.586-.16-1.172-.336-1.76-.494.226 3.732.735 7.033.023 10.82-.23 1.217 1.37 1.617 1.82.498 1.52-3.76 3.42-7.326 4.937-11.086-.605-.17-1.215-.334-1.82-.504-1.565 8.658-4.543 17.3-4.983 26.12-.062 1.214 1.827 1.212 1.886-.005.432-8.624 3.385-17.146 4.918-25.616.226-1.217-1.37-1.623-1.82-.502-1.52 3.76-3.418 7.322-4.937 11.08.607.176 1.215.336 1.822.506.734-3.895.287-7.39.043-11.338-.06-.918-1.264-1.324-1.762-.48-1.074 1.823-1.363 1.765-.922 4.16-.618-3.374-1.925-6.35-2.243-9.847-.102-1.22-1.773-2.202-1.883-.983-.465 5.104-2.264 11.546-3.676 13.546h1.822c-.426-2-1.314-4.054-2.553-6.64-.504-1.033-1.895.237-1.73 1.214.79 4.73.965 9.436.71 14.19-.427 8-5.733-3.936-6.29-5.7-.23-.726-1.34-.933-1.725-.16-1.354 2.702.074 1.446-.734-.98-.385-1.165-2.043-.674-1.82.516 1.63 8.846 4.416 17.58 2.434 26.616-.26 1.186 1.562 1.7 1.82.51z"/><path fill="#DB0D15" d="M77.06 171.84c-1.04-4.732 1.728-7.926 5.737-10.014 1.082-.562.127-2.193-.95-1.63-4.82 2.497-7.833 6.58-6.606 12.147.262 1.19 2.082.684 1.82-.503zM81.988 171.117c1.207-4.357 4.5-6.61 8.954-6.695 1.218-.02 1.22-1.91 0-1.885-5.288.102-9.34 2.902-10.775 8.074-.324 1.18 1.493 1.68 1.82.507z"/><path fill="#DB0D15" d="M81.08 169.342c4.287-.078 8.512-1.162 12.57-2.482 1.152-.38.663-2.205-.5-1.822-3.896 1.266-7.947 2.336-12.068 2.42-1.22.022-1.22 1.907-.002 1.884zM81.295 165.646s8.74-.11 13.697-1.25c1.19-.275 1.352-2.094.172-1.824-4.797 1.11-9.867 1.19-13.867 1.19l-.002 1.884z"/><path fill="#DB0D15" d="M85.027 165.62c4.303-1.41 8.703-2.567 12.555-5.013 1.023-.65.078-2.29-.95-1.637-3.724 2.363-7.96 3.47-12.1 4.828-1.155.376-.667 2.2.495 1.82zM84.525 169.314c5.576 1.172 10.518-1.357 14.477-5.158.877-.852-.46-2.186-1.336-1.338-3.436 3.297-7.748 5.695-12.64 4.676-1.19-.25-1.696 1.57-.5 1.82z"/><path fill="#DB0D15" d="M90.687 168.086c3.956 1.162 7.79.102 10.774-2.69.892-.84-.447-2.17-1.335-1.343-2.502 2.346-5.627 3.186-8.937 2.21-1.174-.34-1.668 1.48-.5 1.823z"/><path fill="#DB0D15" d="M93.396 171.818c6.297-.115 11.572-2.684 15.46-7.652.74-.953-.586-2.3-1.34-1.34-3.585 4.596-8.276 6.994-14.118 7.104-1.22.02-1.222 1.908-.002 1.888z"/><path fill="#DB0D15" d="M103.586 163.242c-.148.812-1.39 1.32-1.947 1.854-.38.357-.358.977-.003 1.334.004.006.006.008.015.014.226.23.606.354.92.248.83-.293 1.614-.756 2.397-1.146.292-.146.467-.502.468-.816.004-4.53-5.03-4.43-7.662-6.838-.897-.82-2.24.51-1.338 1.334 1.086.998 2.27 1.586 3.65 2.082 1.09.396 1.973.87 2.816 1.68.748.723.647.816.646 1.74.154-.27.31-.547.47-.816-.632.314-1.28.72-1.952.957.305.077 2.128.163 2.437.243-.006-.008 1.508-.01 1.508-.01v1.334c0-.812.676-1.406.914-2.69.213-1.192-3.124-1.704-3.34-.505z"/><path fill="#DB0D15" d="M96.803 169.316c.01 0 .14-4.784 2.008-5.792 1.075-.574.12-1.366-.95-.79-2.455 1.322-2.934 2.582-2.94 6.582h1.883zM43.68 293.78c-2.182-5.653-5.946-10.888-10.08-15.27-.223.534-.45 1.556-.672 1.556 3.29.002 6.568.006 9.855.01.768 0 1.106-.73.816-1.363-1.153-2.5-2.046-5.135-3.687-7.367-.358.463-.715.943-1.068 1.402.874.31 1.564.918 2.46 1.236.59.207 1.196-1.752 1.196-2.336.015-2.58-.26-5.574 1.114-9.572l-1.633-.002c1.3 4.002 2.063 5.195 2.366 7.37.107.794 1.402 1.645 1.723.94 1.34-2.945 2.325-5.504 2.603-8.74-.586.158-1.172.496-1.762.656 1.446 3.2 2.11 5.936 2.327 9.47.055.93 1.244.646 1.758-.18 1.955-3.12 4.51-5.503 5.035-9.503l-1.822-.002c.92 4.002 1.176 6.994 1.19 10.31 0 1.015 1.226 1.544 1.757.83 1.443-1.94 2.262-4.042 3.703-5.983-.574-.242-1.154-.398-1.727-.643-.86 5.53-2.064 11.03-3.226 16.505-.5 2.346-.94 4.725-1.36 7.086-.76 4.292-10.647 2.235-12.753 1.683-1.18-.312-1.68 1.52-.505 1.834 4.756 1.258 9.262 1.008 14.053.014.293-.058.618-.36.663-.66 1.354-8.683 3.6-17.187 4.95-25.87.17-1.074-1.07-1.605-1.726-.727-1.44 1.94-2.256 4.22-3.7 6.156l1.757.48c-.01-3.556-.272-6.692-1.25-10.108-.24-.832-1.687-.98-1.823-.002-.48 3.438-3.094 5.6-4.844 8.396.588.156 1.174.316 1.76.477-.225-3.68-1.066-6.98-2.578-10.336-.422-.945-1.69-.355-1.762.477-.262 2.982-1.107 5.426-2.347 8.143.575.076 1.155.146 1.73.227-.325-2.334-1.167-4.488-2.556-6.385-.41-.563-1.237-.66-1.633-.003-.887 1.47-1.03 3.105-1.21 4.785-.128 1.207-.134 2.43-.155 3.64.02-1.294-.02-1.032-1.266-1.468-.746-.268-1.557.72-1.07 1.383 1.64 2.232 2.533 3.283 3.69 5.785.268-.473.544 1.963.82-3.035-3.29-.004-6.57-.008-9.856-.01-.84-.002-1.23 2.63-.674 3.225 3.88 4.107 7.547 9.867 9.598 15.184.44 1.12 2.267 1.44 1.826.305z"/><path fill="#DB0D15" d="M42.203 295.93c4.386-4.38 8.715-8.8 12.484-13.732.738-.965-.902-1.908-1.63-.95-3.668 4.79-7.925 9.085-12.188 13.34-.864.863.472 2.2 1.333 1.342zM48.512 299.436c3.69-5.006 6.398-10.475 8.732-16.227.46-1.13-1.37-1.624-1.822-.507-2.273 5.6-4.95 10.904-8.543 15.78-.724.98.917 1.927 1.632.953z"/><path fill="#DB0D15" d="M50.828 298.402c4.797-3.79 7.368-9.395 8.88-15.19.31-1.185-1.517-1.687-1.82-.507-1.44 5.518-3.83 10.752-8.397 14.36-.96.753.393 2.083 1.338 1.337z"/><path fill="#DB0D15" d="M54.525 298.406c1.65-1.95 2.527-4.666 3.44-7.014 1.653-4.248 2.886-8.78 3.01-13.36.034-1.22-1.856-1.222-1.888 0-.104 3.765-1.072 7.378-2.254 10.935-.857 2.598-1.83 5.955-3.646 8.102-.777.922.55 2.266 1.338 1.336z"/><path fill="#DB0D15" d="M57.074 294.857c4.428 3.428 7.225-17.01 7.565-19.035.205-1.19-1.617-1.705-1.822-.502-.576 3.418-1.2 6.83-1.955 10.215-.154.678-2.225 8.164-2.836 7.693-.963-.746-1.902.895-.953 1.63z"/><path fill="#DB0D15" d="M63.43 293.096c.002 0 .197-9.027 1.205-12.207.373-1.163-1.453-.36-1.822.8-1.06 3.34-1.27 8.404-1.275 11.404l1.892.002zM62.693 338.078c26.15-6.756 43.662-20.355 46.923-48.1 3.82-32.54-11.05-67.764 11.532-96.23.748-.942-.578-2.296-1.334-1.34-15.197 19.157-14.247 42.462-12.682 65.704 2.598 38.455-2.66 67.223-44.94 78.145-1.18.302-.682 2.13.5 1.82z"/><path fill="#DB0D15" d="M37.455 260.287c-19.08-39.93 58.626-48.352 79.803-63.932.975-.715.03-2.36-.95-1.637-21.414 15.764-100.69 24.234-80.483 66.518.52 1.1 2.155.14 1.63-.95z"/><path fill="#DB0D15" d="M113.56 198.814c18.108-9.89 27.51-23.363 30.075-43.91.152-1.205-1.736-1.19-1.887 0-2.48 19.807-11.694 32.756-29.137 42.28-1.07.584-.118 2.216.95 1.63z"/><path fill="#DB0D15" d="M142.275 156.895c-7.266-12.508-27.166-15.334-39.973-17.72-1.19-.224-1.7 1.6-.502 1.82 12.34 2.3 31.924 4.933 38.842 16.85.613 1.05 2.25.102 1.633-.95z"/><path fill="#DB0D15" d="M103.76 140.9c12.406-8.264 25.86-17.682 41.426-17.08 1.22.047 1.217-1.84.002-1.89-15.918-.622-29.686 8.88-42.376 17.337-1.01.674-.07 2.313.948 1.633z"/><path fill="#DB0D15" d="M161.965 120.842c-10.63 5.61-19.697 5.205-29.85-1.26-1.03-.656-1.98.977-.955 1.635 10.72 6.822 20.525 7.19 31.753 1.264 1.08-.572.124-2.205-.948-1.638z"/><path fill="#DB0D15" d="M133.54 121.068c7.31-9.246 21.303-11.713 32.354-9.584 1.188.23 1.7-1.592.502-1.82-11.67-2.256-26.456.285-34.194 10.062-.745.948.58 2.294 1.34 1.342zM142.273 160.31c7.646-11.698 22.242-13.925 32.95-21.804.968-.717.024-2.36-.955-1.637-11.036 8.124-25.74 10.43-33.628 22.485-.667 1.02.965 1.97 1.633.954zM135.527 180.45c24.188-5.085 53.08 19.747 70.797-6.53.682-1.012-.95-1.96-1.63-.955-16.887 25.04-46.337.76-69.665 5.664-1.197.25-.692 2.07.497 1.82zM125.908 377.22c-29.457-37.872-3.092-88.12 36.506-103.343 20.3-7.803 35.967-15.21 42.717-37.346.356-1.17-1.468-1.67-1.82-.505-11.542 37.85-55.556 30.037-75.987 59.06-17.06 24.24-21.77 59.02-2.752 83.472.75.96 2.076-.39 1.338-1.338z"/><path fill="#DB0D15" d="M205.164 238.74c-.115-12.615-2.9-27.037 2.367-38.95.49-1.103-1.137-2.065-1.63-.95-5.46 12.346-2.744 26.842-2.625 39.898.012 1.217 1.897 1.22 1.89.002zM202.98 247.078c38.144-3.79 39.61 42.035 38.41 69.314-1.852 42.025-20.016 69.328-62.215 77.877-1.19.24-.69 2.063.498 1.82 44.64-9.042 59.71-36.198 63.607-79.696 2.553-28.53-2.037-75.008-40.3-71.207-1.2.118-1.214 2.012 0 1.89z"/><path fill="#DB0D15" d="M239.588 277.217c5.652-25.572 73.962-66.938 29.218-89.746-1.08-.552-2.04 1.077-.95 1.632 42.396 21.613-24.36 61.664-30.088 87.613-.262 1.18 1.56 1.69 1.82.502z"/><path fill="#DB0D15" d="M284.668 184.355c-13.275 33.922 17.203 42.346 40.566 58.18 22.02 14.926 31.924 52.127 11.617 72.19-25.71 25.397-73.442 25.858-96.306-1.464-.78-.937-2.11.407-1.338 1.337 17.71 21.162 39.656 24.332 65.603 17.72 17.986-4.58 42.668-15.526 44.468-36.964 1.608-19.193-4.013-40.21-19.985-52.133-21.8-16.273-56.298-23.86-42.805-58.363.446-1.134-1.38-1.627-1.82-.502z"/><path fill="#DB0D15" d="M303.238 226.227c0-.03 46.352-4.312 55.648-28.71 7.4-19.44-13.69-32.28-29.492-35.958-1.188-.272-1.902 1.546-.713 1.823 18.66 4.34 36.47 18.14 26.276 38.654-10.02 20.154-31.717 22.295-51.717 22.303l-.002 1.887zM189.535 401.03c10.203-3.23 21.51 2.185 32.025-1.204 1.158-.37.664-2.195-.498-1.82-10.537 3.39-21.758-2.047-32.027 1.203-1.158.364-.67 2.188.5 1.82zM196.666 409.695c13.985.285 29.514 4.945 42.365-2.55 1.058-.618.108-2.253-.948-1.64-12.435 7.26-27.88 2.576-41.414 2.305-1.22-.027-1.22 1.862-.002 1.885z"/><path fill="#DB0D15" d="M207.506 405.975c17.673 7.166 36.965 1.717 54.713-2.412 1.188-.273.685-2.102-.5-1.82-17.46 4.06-36.334 9.45-53.712 2.412-1.127-.462-1.615 1.368-.502 1.82zM220.076 402.326c24.56-.254 48.71-3.74 72.945-7.36 1.205-.177.694-2-.495-1.82-24.074 3.6-48.067 7.042-72.447 7.292-1.217.01-1.22 1.902-.002 1.888z"/><path fill="#DB0D15" d="M233.627 408.498c25.08-.318 48.945-5.238 72.947-12.287 1.17-.345.674-2.165-.498-1.82-23.8 6.99-47.553 11.905-72.447 12.224-1.22.015-1.22 1.9-.003 1.884z"/><path fill="#DB0D15" d="M248.408 412.207c22.646-1.508 44.44-6.383 65.56-14.756 1.118-.438.632-2.27-.5-1.82-20.978 8.313-42.526 13.187-65.058 14.69-1.213.076-1.222 1.97-.002 1.887z"/><path fill="#DB0D15" d="M234.848 417.12c23.24 2.022 45.94-4.605 68.025-11.056 1.17-.338.676-2.16-.498-1.822-21.92 6.404-44.457 12.99-67.525 10.992-1.21-.105-1.207 1.786-.002 1.885z"/><path fill="#DB0D15" d="M246.92 420.795c28.693 5.38 56.36-8.766 80.824-22.195 1.068-.582.117-2.215-.95-1.63-23.97 13.15-51.217 27.276-79.374 22.01-1.19-.226-1.7 1.596-.5 1.815zM281.937 397.422c17.763-3.715 34.257-9.89 49.526-19.762 1.023-.656.077-2.295-.95-1.63C315.4 385.796 299 391.923 281.44 395.6c-1.196.252-.693 2.074.497 1.822zM299.185 396.203c16.507-4.04 31.892-11.008 47.062-18.53 1.094-.54.14-2.173-.95-1.63-15.025 7.445-30.27 14.34-46.608 18.34-1.19.293-.688 2.11.495 1.82z"/><path fill="#DB0D15" d="M298.932 397.47c19.14-.747 36.064-12.62 49.973-24.866.916-.807-.423-2.143-1.334-1.338-13.486 11.873-30.06 23.584-48.637 24.32-1.21.043-1.22 1.934 0 1.885z"/><path fill="#DB0D15" d="M299.178 403.598c23.93-3.438 40.94-21.666 61.857-32.07 1.094-.545.137-2.174-.95-1.635-20.763 10.332-37.64 28.46-61.405 31.883-1.203.17-.693 1.99.498 1.822z"/><path fill="#DB0D15" d="M300.406 408.53c28.54-6.425 51.694-25.913 75.417-41.92 1.007-.67.065-2.31-.952-1.63-23.567 15.9-46.612 35.346-74.96 41.725-1.19.268-.687 2.092.496 1.824z"/><path fill="#DB0D15" d="M310.265 408.54c24.07-6.216 42.624-23.876 63.09-37 1.022-.657.08-2.296-.95-1.636-20.316 13.027-38.746 30.643-62.64 36.81-1.183.302-.68 2.128.5 1.825zM76.547 350.174c7.8 9.033 16.348 17.242 27.277 22.348 1.092.514 2.055-1.12.953-1.635-10.78-5.03-19.2-13.14-26.893-22.05-.796-.925-2.13.415-1.337 1.337z"/><path fill="#DB0D15" d="M65.663 339.22c12.733 9.44 19.7 24.34 30.573 35.606.85.88 2.182-.457 1.338-1.334-11.006-11.402-18.053-26.334-30.96-35.908-.977-.725-1.92.916-.95 1.637zM65.305 354.898c10.473 14.094 23.444 25.842 38.504 34.87 1.044.63 1.996-1.005.952-1.628-14.77-8.86-27.55-20.37-37.822-34.19-.72-.97-2.363-.03-1.635.948z"/><path fill="#DB0D15" d="M79.195 357.713c7.25 4.508 12.746 12.08 18.73 18.057 3.774 3.766 9.128 9.52 14.983 9.203 1.217-.06 1.22-1.947.002-1.885-7.01.37-13.914-8.842-18.252-13.377-4.523-4.726-8.893-10.138-14.51-13.626-1.034-.646-1.985.992-.953 1.63z"/><path fill="#DB0D15" d="M73.035 356.475c11.62 7.33 21.537 17.947 31.818 26.988.908.803 2.254-.527 1.336-1.334-10.41-9.16-20.427-19.856-32.2-27.288-1.035-.653-1.982.982-.955 1.633zM66.883 355.238c7.902 4.836 12.787 13.88 18.187 21.145 3.653 4.908 7.895 10.48 14.032 12.244 1.172.338 1.672-1.486.506-1.82-8.11-2.328-13.363-11.947-17.97-18.348-3.923-5.456-7.976-11.288-13.804-14.855-1.04-.636-1.99.997-.95 1.633z"/><path fill="#DB0D15" d="M66.543 351.205c11.453 16.088 26.672 32.742 46.113 38.668 1.166.36 1.664-1.467.502-1.818-18.893-5.764-33.836-22.15-44.983-37.803-.698-.986-2.34-.043-1.632.953z"/><path fill="#DB0D15" d="M69.346 352.775c20.537 12.254 36.216 34.39 60.56 39.576 1.188.257 1.69-1.567.5-1.82-24.16-5.15-39.65-27.175-60.108-39.386-1.048-.626-1.997 1.008-.952 1.63z"/><path fill="#DB0D15" d="M89.27 366.443c23.914 9.516 43.154 27.646 67.725 35.79 1.16.388 1.655-1.442.502-1.823-24.56-8.14-43.812-26.273-67.723-35.79-1.13-.452-1.622 1.376-.504 1.823z"/><path fill="#DB0D15" d="M91.498 374.973c23.314 12.08 50.002 14.102 73.9 24.707 1.104.49 2.068-1.14.95-1.63-23.888-10.61-50.587-12.632-73.895-24.714-1.08-.557-2.035 1.07-.955 1.637z"/><path fill="#DB0D15" d="M102.81 381.238c23.075 3.9 47.35 8.184 66.085 23.23.945.756 2.29-.576 1.342-1.336-19.04-15.287-43.44-19.744-66.926-23.715-1.187-.202-1.7 1.62-.5 1.82z"/><path fill="#DB0D15" d="M110.2 386.174c28.097 6.666 57.52 1.186 84.995 11.168 1.15.422 1.64-1.41.506-1.822-27.526-10-56.854-4.496-85-11.164-1.186-.282-1.686 1.54-.5 1.818z"/><path fill="#DB0D15" d="M120.86 387.174c18.41 14.758 41.91 18.3 64.464 22.48 1.19.217 1.7-1.602.5-1.824-22.137-4.104-45.523-7.477-63.625-21.992-.943-.756-2.29.57-1.34 1.336z"/><path fill="#DB0D15" d="M126.705 397.277c26.54-4.916 51.273 4.133 77.105 8.693 1.19.21 1.705-1.61.502-1.82-26.285-4.637-51.145-13.69-78.11-8.695-1.196.223-.688 2.045.503 1.822z"/><path fill="#DB0D15" d="M154.318 391.05c18.62 11.9 41.545 6.956 61.818 13.706 1.16.383 1.652-1.44.502-1.822-20.104-6.693-42.943-1.742-61.37-13.516-1.026-.658-1.975.978-.95 1.63zM150.84 402.227c10.398 1.55 20.54 4.02 30.694 6.723 5.774 1.543 17.634 7.21 23.403 5.46.95-.29.848-1.495.002-1.823-1.517-.59-2.985-.865-4.58-1.078-1.206-.167-1.19 1.73-.002 1.884 8.14 1.098-2.365-2.08-3.446-2.338-4.985-1.207-9.927-2.588-14.875-3.926-10.145-2.732-20.3-5.18-30.7-6.725-1.187-.178-1.7 1.644-.497 1.822z"/><path fill="#DB0D15" d="M112.082 394.365c12.7 26.31 58.45 13.605 80.63 21.453 1.147.406 1.638-1.416.5-1.818-22.196-7.852-67.17 4.943-79.492-20.586-.53-1.102-2.163-.14-1.638.95z"/><path fill="#DB0D15" d="M115.364 396.064c23.28 3.018 45.5 14.023 67.888 20.67 14.33 4.262 31.865 8.77 45.912 1.49 1.082-.56.127-2.193-.95-1.633-19.22 9.962-45.922-1.786-64.716-8.16-15.758-5.347-31.52-12.103-48.133-14.253-1.205-.154-1.19 1.733 0 1.887zM186.568 399.793c23.99 8.287 48.963 9.84 74.166 8.73 1.212-.05 1.216-1.94 0-1.885-24.993 1.094-49.85-.44-73.666-8.664-1.158-.4-1.644 1.424-.5 1.82z"/><path fill="#DB0D15" d="M208.732 410.904c18.346 2.742 36.695 2.01 55.147 1.055 2.334-.122 12.69-.5 8.61-5.038-.817-.906-2.152.434-1.34 1.338.468.52-15.864 2.064-17.812 2.066-15.01.006-29.1.996-44.104-1.244-1.19-.174-1.703 1.645-.502 1.822z"/><path fill="#DB0D15" d="M209.55 410.662c17 14.713 46.667 4.69 64.987-2.156 1.132-.422.643-2.256-.498-1.824-17.75 6.633-46.856 16.75-63.15 2.645-.92-.792-2.26.534-1.34 1.335z"/><path fill="#DB0D15" d="M205.844 416.82c14.346 13.38 53.465 1.447 67.683-7.182.856-.52.424-1.668-.476-1.758-32.977-3.426-73.23 21.514-102.84 1.322-4.337-2.963-21.605-19.602-23.728-6.908-.203 1.188 1.617 1.705 1.816.502 1.178-7.023 26.41 11.645 29.625 13.008 14.746 6.234 33.432 1.865 48.404-1.184 11.2-2.283 21.988-4.656 33.448-5.56 17.704-1.392 4.5 3.198-3.65 5.63-11.832 3.527-38.365 10.654-48.942.79-.89-.826-2.232.506-1.34 1.34z"/><path fill="#DB0D15" d="M200.113 406.61c-14.715 3.425-29.795 3.544-44.807 2.726-8.152-.44-16.242-1.678-24.25-3.238-2.39-.467-25.57-6.17-18.912-10.162 1.05-.627.098-2.26-.95-1.635-3.044 1.827-2.212.997-4.042 4.034-.26.434-.105 1.045.342 1.29 26.084 14.704 64.594 15.45 93.12 8.812 1.19-.274.687-2.102-.5-1.825z"/><path fill="#DB0D15" d="M152.793 410.36c-13.227-9.124-27.673-16.41-40.637-25.91-.984-.724-1.932.915-.953 1.632 12.96 9.5 27.406 16.785 40.635 25.908 1.002.696 1.95-.945.955-1.63z"/><path fill="#DB0D15" d="M131.86 394.32c-9.315-6.77-19.245-12.277-29.683-17.13-5.043-2.343-10.248-4.34-15.45-6.272-2.587-.934-5.19-1.812-7.815-2.645-4.682-1.535 6.124-.566 6.906-.57 1.22-.006 1.22-1.895.002-1.89-4.023.02-7.45.194-11.336 1.26-.918.247-.887 1.546 0 1.82 20.08 6.144 39.387 14.665 56.424 27.06.988.72 1.93-.92.953-1.633z"/><path fill="#DB0D15" d="M107.225 384.445c-11.326-7.62-17.52-20.988-26.882-30.68-.847-.88-2.185.457-1.337 1.336 9.473 9.8 15.77 23.243 27.268 30.978 1.01.68 1.958-.957.95-1.633zM77.465 351.055C57.297 344.522 43.13 316.71 43.71 296.5c.038-1.22-1.855-1.223-1.886-.002-.613 21.123 14.098 49.564 35.137 56.377 1.16.38 1.66-1.445.505-1.82z"/><path fill="#DB0D15" d="M63.266 329.303c-5.378-10.486-12.295-20.088-17.22-30.818-.505-1.107-2.134-.146-1.636.947 4.93 10.74 11.842 20.334 17.223 30.82.558 1.09 2.19.127 1.633-.95zM66.61 341.287c-12.48-9.23-20.216-22.826-24.172-37.652-.313-1.178-2.134-.674-1.817.504 4.086 15.33 12.146 29.245 25.04 38.776.98.725 1.92-.918.95-1.63z"/><path fill="#DB0D15" d="M60.89 339.385c-2.296-6.195-6.134-11.365-10.083-16.598-2.057-2.72-4.047-5.47-5.9-8.33-1.125-1.74-2.055-3.58-2.967-5.434-.44-.89 3.14-2.725 3.76-3.086 1.05-.617.098-2.252-.95-1.635-1.65.967-3.302 1.504-4.93 2.463-.483.285-.544.82-.343 1.29 4.986 11.577 15.205 20.005 19.592 31.825.414 1.134 2.242.65 1.82-.495z"/><path fill="#DB0D15" d="M58.334 330.527c-5.117-10.113-10.918-19.844-14.66-30.586-.396-1.145-2.22-.65-1.823.497 3.8 10.898 9.658 20.787 14.852 31.04.55 1.085 2.18.132 1.632-.95zM33.777 245.494C21.523 216.87 57.193 174.44 75.6 155.512c.855-.87-.483-2.21-1.33-1.336-19.362 19.9-55.016 62.162-42.124 92.268.474 1.122 2.108.16 1.63-.95zM218.59 412.148c26.734 10.152 58.014-.385 84.28-7.31 1.18-.317.68-2.136-.497-1.825-26.083 6.88-56.848 17.35-83.283 7.31-1.14-.434-1.63 1.4-.5 1.825z"/><path fill="#DB0D15" d="M244.707 410.973c19.715.914 39.78-7.62 57.164-16.092 1.1-.536.143-2.165-.948-1.63-16.965 8.268-36.945 16.723-56.213 15.838-1.22-.057-1.215 1.832-.003 1.885z"/><path fill="#DB0D15" d="M247.176 409.744c15.328-.232 30.186-3.54 44.61-8.617 1.142-.398.657-2.225-.5-1.822-14.257 5.023-28.94 8.316-44.108 8.555-1.217.015-1.22 1.904-.002 1.884zM238.537 428.215c14.23.727 26.85-5.842 39.684-11.084 1.112-.452.63-2.278-.5-1.815-12.685 5.172-25.103 11.73-39.18 11.016-1.222-.062-1.22 1.828-.003 1.885zM57.756 341.77c23.715-6.526 44.264-21.315 53.707-44.495 5.236-12.865 1.777-28.715.475-41.95-2.53-25.593-1.445-47.888 15.38-68.964.75-.944-.576-2.288-1.335-1.335-17.12 21.44-18.405 43.715-15.938 70.297 1.682 18.107 3.997 34.426-4.98 51.143-9.36 17.436-29.49 28.44-47.806 33.486-1.174.32-.68 2.146.496 1.82zM132.06 380.92c-34.73-28.342 7.075-84.475 31.395-105.232 12.874-10.986 26.938-19.924 37.262-33.555 9.26-12.227 2.114-32.566 6.913-46.26.41-1.148-1.418-1.643-1.82-.5-2.934 8.36-3.33 14.967-2.954 23.754.906 21.383-11.354 31.924-26.39 43.928-15.832 12.63-29.693 24.527-40.844 41.58-14.643 22.398-29.97 57.162-4.896 77.623.932.76 2.278-.567 1.335-1.338zM202.97 249.54c34.462-1.376 41.45 33.73 40.405 61.212-1.52 39.77-31.465 65.92-63.194 84.848-1.047.625-.092 2.26.95 1.633 34.933-20.836 62.67-48.037 64.3-90.756 1.072-28.092-9.72-60.133-42.457-58.82-1.21.046-1.217 1.937-.002 1.884z"/><path fill="#DB0D15" d="M240.854 316.07c23.854 8.635 49.08 18.03 74.744 12.766 20.336-4.176 34.703-25.34 34.4-45.43-.672-44.736-87.106-45.838-67.205-97.316.44-1.137-1.385-1.63-1.822-.502-12.99 33.605 22.797 49.924 45.26 66.48 25.604 18.88 29.892 50.215.665 70.113-24.312 16.554-61.138.9-85.536-7.933-1.153-.413-1.645 1.41-.506 1.823z"/><path fill="#DB0D15" d="M295.146 224.957c20.945 5.018 43.062-5.04 55.606-22.037 13.924-18.863-.036-34.107-19.32-38.89-1.18-.3-1.685 1.526-.5 1.82 9.355 2.317 19.317 6.005 22.983 15.77 3.11 8.278-2.248 17.372-7.295 23.56-11.857 14.55-32.693 22.338-50.97 17.953-1.185-.283-1.685 1.54-.504 1.824zM300.668 123.344c-6.22-1.424-12.734-1.17-18.98-.018-1.195.22-.688 2.04.5 1.824 5.896-1.092 12.105-1.328 17.98.018 1.184.27 1.69-1.55.5-1.824z"/><path fill="#DB0D15" d="M288.346 125.156c9.396-3.54 18.58-7.475 27.344-12.393 1.062-.596.112-2.232-.95-1.633-8.627 4.84-17.65 8.72-26.894 12.2-1.127.428-.643 2.252.5 1.826z"/><path fill="#DB0D15" d="M291.045 122.6c17.59-13.074 38.242-18.014 59.902-18.297 1.22-.016 1.223-1.91.002-1.89-21.962.288-43.017 5.294-60.858 18.548-.97.72-.024 2.364.953 1.64z"/></g></svg>