<?xml version="1.0" encoding="utf-8"?>
<!-- Generator: Adobe Illustrator 16.0.0, SVG Export Plug-In . SVG Version: 6.00 Build 0)  -->
<!DOCTYPE svg PUBLIC "-//W3C//DTD SVG 1.1 Basic//EN" "http://www.w3.org/Graphics/SVG/1.1/DTD/svg11-basic.dtd">
<svg version="1.1" baseProfile="basic" id="Capa_1" xmlns="http://www.w3.org/2000/svg" xmlns:xlink="http://www.w3.org/1999/xlink"
	 x="0px" y="0px" width="443.334px" height="620.102px" viewBox="0 0 443.334 620.102" xml:space="preserve">
<g>
	<defs>
		<rect id="SVGID_3_" x="2.976" y="-0.066" width="441.043" height="624.062"/>
	</defs>
	<clipPath id="SVGID_2_">
		<use xlink:href="#SVGID_3_"  overflow="visible"/>
	</clipPath>
	<g opacity="0.41" clip-path="url(#SVGID_2_)">
		<g>
			<g>
				<path fill="#DB0D15" d="M281.119,356.265c26.667-11.168,40.906-39.275,16.242-62.002c-8.959-8.258-21.965-12.188-32.535-17.988
					c-15.064-8.258-18.979-21.637-17.944-37.945c0.053-0.92,1.471-1.307,1.968-0.514c10.757,17.266,26.257,28.869,41.24,42.139
					c13.438,11.896,21.279,26.547,28.656,42.658c4.938,10.779,10.002,25.838,6.482,37.805c-3.639,12.348-8.723,21.32-7.744,35.379
					c0.801,11.572,7.412,20.684,6.797,32.58c-0.738,14.418-5.314,24.484-13.387,36.256c-3.872,5.658-11.503,26.861-20.738,27.383
					c-8.984,0.51-21.244-4.025-28.559,3.551c-3.816,3.951-6.194,11.684-9.653,16.467c-8.139,11.229-33.296,5.918-43.24,10.02
					c-0.527,0.219-1.25-0.023-1.441-0.594c-2.893-8.58-26.238-13.105-33.664-17.299c-11.055-6.246-19.476-17.186-29.962-24.439
					c-23.872-16.52-47.239-22.43-59.724-50.518c-8.823-19.838-32.183-32.936-52.986-32.895
					c-13.825,0.025-27.487,7.492-40.512,11.516c-14.986,4.635-31.414,5.799-40.747-8.551c-0.581-0.889,0.233-2.154,1.31-1.688
					c23.853,10.438,54.932-5.77,77.977-12.73c17.993-5.438,32.837-2.9,48.887,6.271c20.161,11.518,33.111,37.207,59.1,36.969
					c31.523-0.283,32.239-50.297,26.377-70.982c-0.384-1.355,1.656-2.215,2.043-0.848c7.291,25.73,4.063,68.236-28.144,74.025
					c-17.994,3.23-35.176-16.182-46.769-26.605c-33.773-30.379-61.478-13.801-98.977-4.844c-10.604,2.533-20.816,4.266-31.714,3.742
					c-2.731-0.133-15.267-4.619,1.193,4.404c6.731,3.693,16.597,1.48,23.769,0.061c22.178-4.393,39.238-16.627,62.717-11.074
					c16.308,3.859,30.851,18.109,38.515,32.381c17.166,31.971,49.021,38.906,74.531,62.029
					c12.271,11.111,23.139,16.98,39.343,20.383c2.294,0.486,7.021,2.576,7.902,5.172c0.846,2.518,13.296,0.211,14.577,0.041
					c12.985-1.729,19.974,11.229,32.807-13.211c3.572-6.801,6.414-11.184,13.158-14.889c12.574-6.902,13.037,19.83,29.945-8.16
					c8.879-14.697,20.109-26.834,23.503-44.273c3.279-16.869-9.559-31.396-6.967-47.467c3.322-20.564,11.727-34.445,5.037-56.652
					c-10.336-34.266-36.443-51.727-60.228-75.496c-3.458-3.449-5.793-6.77-8.713-10.652c-0.628,1.812-1.253,3.629-1.879,5.441
					c0.802,7.512,4.102,13.791,9.903,18.826c8.326,8.096,21.652,11.871,31.715,17.455c35.417,19.656,23.976,57.756-8.621,71.402
					C280.646,358.851,279.806,356.813,281.119,356.265L281.119,356.265z"/>
			</g>
		</g>
		<g>
			<g>
				<path fill="#DB0D15" d="M112.138,413.95c16.765-21.596,16.795-55.25,9.007-80.322c-6.424-20.723-22.546-38.424-33.353-57.012
					c-0.71-1.221,1.041-2.57,1.759-1.346c13.888,23.9,31.678,44.576,37.433,72.234c4.584,21.982,0.75,49.953-13.105,67.803
					C113.005,416.431,111.263,415.075,112.138,413.95L112.138,413.95z"/>
			</g>
		</g>
		<g>
			<g>
				<path fill="#DB0D15" d="M68.604,429.333c-23.209-7.322-42.669-18.311-57.812-37.691c-0.879-1.125,0.879-2.463,1.752-1.34
					c14.914,19.088,34.133,29.811,56.924,37.002C70.831,427.735,69.951,429.759,68.604,429.333L68.604,429.333z"/>
			</g>
		</g>
		<g>
			<g>
				<path fill="#DB0D15" d="M11.508,388.944c-5.165-13.52-8.719-26.771-9.868-41.23c-1.089-13.84,5.069-27.326,4.447-41.316
					c1.682,38.092-16.209-47.082-6.604-3.451c1.83,8.301,1.508,16.912,1.313,25.33c-0.595,24.957-17.001,46.881-0.072,70.523
					c0.828,1.158-0.929,2.504-1.754,1.344c-7.998-11.172-9.587-20.617-7.664-34.234c3.975-28.275,10.859-49.885,1.627-78.891
					c-0.315-1.004,0.777-2.021,1.698-1.293c8.618,6.799,14.861,14.447,13.895,26.246c-0.827,10.01-3.144,19.746-4.45,29.695
					c-2.042,15.541,4.036,32.197,9.479,46.434C14.062,389.429,12.021,390.274,11.508,388.944L11.508,388.944z"/>
			</g>
		</g>
		<g>
			<g>
				<path fill="#DB0D15" d="M4.7,403.935c18.51,11.795,18.335,37.244,20.574,56.791c2.121,18.5,14.314,31.922,20.211,48.875
					c4.333,12.455-4.481,6.395,6.711,23.721c5.898,9.131,19.103,14.029,28.747,18.078c11.651,4.889,18.329,9.504,16.729-10.018
					c-1.022-12.643-6.469-24.982-10.839-36.781c-4.707-12.736-8.727-25.178-9.354-38.822c-0.812-17.707-1.114-70.557-28.483-66.643
					c-1.407,0.203-1.68-1.988-0.276-2.188c22.843-3.271,26.831,28.346,29.065,44.594c2.612,19.018,2.282,36.305,8.479,54.996
					c6.785,20.492,14.691,38.543,13.975,60.535c-0.02,0.635-0.713,0.971-1.253,0.934c-17.408-1.213-50.211-13.242-53.413-33.732
					c-3.389-21.643-17.979-36.723-21.752-57.83c-3.639-20.385-0.584-48.098-20.475-60.77C2.146,404.915,3.515,403.177,4.7,403.935
					L4.7,403.935z"/>
			</g>
		</g>
		<g>
			<g>
				<path fill="#DB0D15" d="M146.146,480.671c-30.64,13.936-23.103,62.281-50.512,81.152c-1.172,0.807-2.514-0.947-1.342-1.756
					c27.597-19.002,19.582-67.143,51.005-81.434C146.601,478.042,147.439,480.083,146.146,480.671L146.146,480.671z"/>
			</g>
		</g>
		<g>
			<g>
				<path fill="#DB0D15" d="M181.6,506.698c-17.269-4.438-37.253,13.275-52.129-0.807c-1.022-0.973,0.32-2.721,1.354-1.742
					c13.863,13.119,34.36-3.941,51.089,0.367C183.273,504.866,182.977,507.056,181.6,506.698L181.6,506.698z"/>
			</g>
		</g>
		<g>
			<g>
				<path fill="#DB0D15" d="M324.921,418.841c21.975,10.926,46.016,16.957,70.219,20.406c1.406,0.201,1.094,2.387-0.32,2.184
					c-24.367-3.473-48.639-9.555-70.762-20.559C322.784,420.241,323.647,418.204,324.921,418.841L324.921,418.841z"/>
			</g>
		</g>
		<g>
			<g>
				<path fill="#DB0D15" d="M392.524,437.741c8.84-21.799-21.914-26.562-27.631-41.115c-2.641-6.746-3.74-13.631-5.949-20.602
					c-3.234-10.172-13.5-15.807-20.129-23.326c-11.682-13.254-17.5-29.287-24.941-45.094
					c-12.487-26.531-38.667-41.076-61.682-57.145c-1.171-0.818,0.191-2.553,1.359-1.742c19.622,13.703,39.27,25.916,54.461,44.693
					c6.312,7.807,10.123,17.932,14.107,26.982c6.943,15.791,15.588,27.385,27.639,39.674c15.145,15.441,15.434,37.635,33.475,51.27
					c10.627,8.027,16.637,14.164,11.318,27.277C394.019,439.929,391.989,439.063,392.524,437.741L392.524,437.741z"/>
			</g>
		</g>
		<g>
			<g>
				<path fill="#DB0D15" d="M399.585,438.03c6.08-18.508,5.498-33.543-6.496-49.73c-2.07-2.803-4.867-8.182-4.812-11.838
					c0.141-9.736,2.973-17.023,6.582-25.992c9.287-23.055,1.85-45.303-13.217-63.793c-5.969-7.326-12.031-13.193-16.629-21.506
					c-7.602-13.758-4.898-30.354-13.037-44.41c-9.34-16.121-36.816-21.137-52.269-29.631c-4.109-2.26-7.219-5.141-10.348-8.521
					c-8.258-8.949,9.908,16.354,12.114,18.271c10.306,8.951,25.458,11.105,34.233,22.256c23.141,29.396,4.627,56.896-18.309,79.096
					c-1.025,0.99-2.35-0.775-1.346-1.754c15.514-15.01,30.023-30.65,28.295-53.867c-1.451-19.596-17.697-29.4-32.848-37.111
					c-15.158-7.711-22.673-17.52-25.687-34.297c-0.227-1.227,1.699-1.729,2.113-0.559c7.541,21.262,42.191,25.529,59.242,37.936
					c5.936,4.318,10.361,11.76,11.922,18.855c2.459,11.164,4.002,22.008,7.967,32.893c3.621,9.932,14.168,18.34,20.76,26.424
					c22.014,27.023,9.438,50.684,2.732,79.664c-3.859,16.689,15.703,23.652,18.611,37.664c2.539,12.24-3.783,19.369-7.543,30.818
					C401.173,440.253,399.149,439.374,399.585,438.03L399.585,438.03z"/>
			</g>
		</g>
		<g>
			<g>
				<path fill="#DB0D15" d="M306.766,315.425c-32.264,6.463-67.594-10.111-90.33-32.389c-1.003-0.982,0.339-2.738,1.356-1.74
					c22.365,21.906,56.963,38.293,88.7,31.936C307.89,312.954,308.157,315.144,306.766,315.425L306.766,315.425z"/>
			</g>
		</g>
		<g>
			<g>
				<path fill="#DB0D15" d="M281.238,357.218c-23.656-4.496-40.538-18.715-56.389-36.117c-21.922-24.07-48.265-45.871-63.676-74.996
					c-0.662-1.254,1.384-2.088,2.045-0.838c12.299,23.244,31.282,40.182,49.488,58.684c21.154,21.506,37.096,45.049,68.85,51.088
					C282.951,355.3,282.634,357.489,281.238,357.218L281.238,357.218z"/>
			</g>
		</g>
		<g>
			<g>
				<path fill="#DB0D15" d="M256.064,365.933c-24.729-14.617-42.903-36.391-63.036-56.439c-20.348-20.26-40.643-39.229-56.362-63.57
					c-0.767-1.193,0.985-2.541,1.754-1.348c16.968,26.283,39.433,46.719,61.449,68.646c18.384,18.305,34.986,37.635,57.546,50.971
					C258.646,364.915,257.273,366.646,256.064,365.933L256.064,365.933z"/>
			</g>
		</g>
		<g>
			<g>
				<path fill="#DB0D15" d="M228.756,420.657c-18.514-30.836-33.927-63.365-52.16-94.357c-18.31-31.117-40.924-59.27-57.806-91.303
					c-0.666-1.262,1.386-2.092,2.046-0.844c16.788,31.848,38.691,60.223,57.512,90.803c18.837,30.613,33.649,63.535,52.167,94.355
					C231.237,420.524,229.488,421.874,228.756,420.657L228.756,420.657z"/>
			</g>
		</g>
		<g>
			<g>
				<path fill="#DB0D15" d="M174.419,361.579c-7.813-27.342-26.529-48.869-40.59-73.105c-11.75-20.268-21.547-41.01-28.008-63.57
					c-0.391-1.354,1.648-2.205,2.043-0.844c7.937,27.695,20.974,52.996,36.316,77.318c12.34,19.559,25.825,36.764,32.275,59.361
					C176.839,362.091,174.808,362.944,174.419,361.579L174.419,361.579z"/>
			</g>
		</g>
		<g>
			<g>
				<path fill="#DB0D15" d="M93.016,227.085c10.044,36.895,38.305,69.34,55.974,102.977c13.22,25.162,31.184,63.738,7.419,88.137
					c-0.983,1.012-2.737-0.334-1.748-1.354c27.017-27.734-0.677-73.729-15.757-100.793c-15.753-28.264-39.315-56.482-47.931-88.121
					C90.603,226.573,92.638,225.716,93.016,227.085L93.016,227.085z"/>
			</g>
		</g>
		<g>
			<g>
				<path fill="#DB0D15" d="M142.329,423.558c4.967-37.057,7.422-73.266-6.926-108.631c-10.668-26.303-28.01-49.68-41.694-74.457
					c-0.687-1.246,1.361-2.072,2.043-0.846c16.478,29.844,36.388,57.631,47.554,90.113c10.096,29.365,5.22,64.191,1.21,94.139
					C144.326,425.286,142.14,424.972,142.329,423.558L142.329,423.558z"/>
			</g>
		</g>
		<g>
			<g>
				<path fill="#DB0D15" d="M89.551,247.159c19.105,28.715,33.526,62.734,41.625,96.189c6.412,26.477,13.287,63.686-11.444,83.115
					c-1.123,0.881-2.461-0.877-1.338-1.758c28.125-22.096,14.744-68.766,5.943-97.211c-8.477-27.418-20.617-55.062-36.538-78.99
					C87.013,247.325,88.764,245.979,89.551,247.159L89.551,247.159z"/>
			</g>
		</g>
		<g>
			<g>
				<path fill="#DB0D15" d="M211.769,275.204c-29.254-46.619-99.764-22.539-131.316-66.771c-0.826-1.158,0.931-2.5,1.757-1.342
					c31.409,44.043,101.878,19.865,131.316,66.77C214.278,275.056,212.525,276.405,211.769,275.204L211.769,275.204z"/>
			</g>
		</g>
		<g>
			<g>
				<path fill="#DB0D15" d="M83.577,207.479c4.322,22.535-1.811,45.148,1.431,67.754c0.207,1.414-1.987,1.684-2.188,0.275
					c-3.245-22.604,2.886-45.24-1.433-67.752C81.118,206.356,83.311,206.091,83.577,207.479L83.577,207.479z"/>
			</g>
		</g>
		<g>
			<g>
				<path fill="#DB0D15" d="M85.057,273.45c-18.349-24.486-30.705-41.996-37.923-72.107c-6.144-25.639-13.611-47.125-32.527-66.152
					c-11.054-11.105-23.401-20.955-35.545-30.82c-21.673-17.607-43.492-34.877-62.549-55.375
					c-9.161-9.863-16.736-20.9-23.311-32.605c-8.078-14.385-8.479-33.262-19.29-45.711c-0.934-1.08,0.828-2.412,1.757-1.344
					c7.521,8.666,8.695,17.164,11.818,28.072c4.819,16.855,15.413,31.752,26.34,45.16c21.726,26.662,50.872,47.076,77.256,68.779
					c20.686,17.008,39.157,33.715,49.488,58.873c6.951,16.945,9.644,35.852,14.531,53.398c5.331,19.166,20.144,33.055,31.706,48.488
					C87.663,273.247,85.906,274.589,85.057,273.45L85.057,273.45z"/>
			</g>
		</g>
		<g>
			<g>
				<path fill="#DB0D15" d="M217.466,275.095c-5.375-21.094-3.652-40.055-20.578-57.041c-11.148-11.189-27.426-17.752-41.328-24.83
					c-17.086-8.699-35.198-17.977-44.104-35.783c-0.64-1.277,1.408-2.109,2.041-0.846c13.924,27.834,51.264,36.906,75.94,52.842
					c24.931,16.102,23.584,39.365,30.217,65.387C220.005,276.202,217.808,276.456,217.466,275.095L217.466,275.095z"/>
			</g>
		</g>
		<g>
			<g>
				<path fill="#DB0D15" d="M133.131,169.288c-17.16-13.002-25.931-33.291-38.105-50.523C78.009,94.657,52.131,77.884,32.187,56.337
					c-41.229-44.564-90.873-76.809-149.47-93.389c-1.37-0.389-0.481-2.414,0.871-2.031C-62.626-23.86-16.151,4.327,23.364,43.743
					C42.292,62.632,62.71,80.364,81.272,99.558c19.854,20.533,30.436,50.729,53.216,67.982
					C135.623,168.401,134.269,170.144,133.131,169.288L133.131,169.288z"/>
			</g>
		</g>
		<g>
			<g>
				<path fill="#DB0D15" d="M71.445,156.278c-0.443-9.48-7.649-15.982-14.14-22.049c-1.031-0.961,0.315-2.713,1.359-1.742
					c6.911,6.467,14.503,13.438,14.97,23.52C73.702,157.417,71.514,157.702,71.445,156.278L71.445,156.278z"/>
			</g>
		</g>
		<g>
			<g>
				<path fill="#DB0D15" d="M57.108,143.405c-4.359-5.623-8.324-11.537-12.685-17.154c-0.875-1.131,0.883-2.469,1.757-1.344
					c4.354,5.625,8.323,11.533,12.68,17.152C59.736,143.19,57.982,144.526,57.108,143.405L57.108,143.405z"/>
			</g>
		</g>
		<g>
			<g>
				<path fill="#DB0D15" d="M73.694,160.472c-22.467-9.133-24.562-37.785-44.824-49.451c-1.215-0.701-0.363-2.74,0.865-2.027
					c20.279,11.668,22.6,40.412,44.83,49.451C75.88,158.978,75.011,161.009,73.694,160.472L73.694,160.472z"/>
			</g>
		</g>
		<g>
			<g>
				<path fill="#DB0D15" d="M67.253,148.216c-16.248-12.99-25.043-32.428-42.609-44.055C7.666,92.923-2.245,80.456-14.816,64.538
					c-0.886-1.119,0.873-2.461,1.759-1.346c12.062,15.287,22.328,28.701,39.055,39.225c17.878,11.248,26.345,31.055,42.609,44.057
					C69.72,147.362,68.367,149.108,67.253,148.216L67.253,148.216z"/>
			</g>
		</g>
		<g>
			<g>
				<path fill="#DB0D15" d="M212.774,265.429c-22.875-48.059-75.678-70.914-116.553-100.916c-1.146-0.844,0.209-2.586,1.358-1.742
					c41.263,30.289,94.134,53.279,117.24,101.812C215.434,265.87,213.384,266.708,212.774,265.429L212.774,265.429z"/>
			</g>
		</g>
		<g>
			<g>
				<path fill="#DB0D15" d="M216.294,272.511c-13.379-12.645-25.699-26.285-37.967-39.994c-0.948-1.066,0.811-2.396,1.758-1.344
					c12.139,13.57,24.324,27.082,37.562,39.596C218.677,271.737,217.325,273.489,216.294,272.511L216.294,272.511z"/>
			</g>
		</g>
		<g>
			<g>
				<path fill="#DB0D15" d="M207.788,260.685c-11.815-10.629-20.038-24.549-32.428-34.605c-1.105-0.893,0.248-2.639,1.352-1.74
					c12.404,10.066,20.612,23.975,32.431,34.605C210.196,259.892,208.847,261.642,207.788,260.685L207.788,260.685z"/>
			</g>
		</g>
		<g>
			<g>
				<path fill="#DB0D15" d="M210.181,262.503c-20.771-29.572-46.406-58.926-79.265-75.207c-1.265-0.631-0.405-2.662,0.874-2.029
					c33.145,16.426,59.193,46.061,80.147,75.893C212.756,262.325,211.004,263.671,210.181,262.503L210.181,262.503z"/>
			</g>
		</g>
		<g>
			<g>
				<path fill="#DB0D15" d="M135.14,194.798c-15.194-9.861-29.528-20.902-43.813-32.016c-1.126-0.877,0.226-2.615,1.353-1.746
					c14.291,11.117,28.62,22.158,43.818,32.02C137.696,193.827,136.329,195.563,135.14,194.798L135.14,194.798z"/>
			</g>
		</g>
		<g>
			<g>
				<path fill="#DB0D15" d="M128.468,195.802c-16.176-7.793-27.424-22.053-41.753-32.447c-1.157-0.834,0.204-2.576,1.354-1.74
					c14.164,10.277,25.273,24.453,41.27,32.158C130.613,194.39,129.755,196.423,128.468,195.802L128.468,195.802z"/>
			</g>
		</g>
		<g>
			<g>
				<path fill="#DB0D15" d="M126.64,201.712c-16.843-11.287-30.855-25.924-45.029-40.281c-0.998-1.02,0.77-2.344,1.756-1.348
					c14.047,14.232,27.935,28.703,44.627,39.887C129.179,200.767,127.813,202.499,126.64,201.712L126.64,201.712z"/>
			</g>
		</g>
		<g>
			<g>
				<path fill="#DB0D15" d="M120.969,201.421c-14.06-7.861-27.114-17.078-38.87-28.117c-1.033-0.967,0.314-2.719,1.354-1.742
					c11.62,10.908,24.479,20.059,38.386,27.832C123.073,200.077,122.216,202.118,120.969,201.421L120.969,201.421z"/>
			</g>
		</g>
		<g>
			<g>
				<path fill="#DB0D15" d="M65.596,239.56c-10.124-14.199-12.771-29.842-15.536-46.75c-4.531-27.658-15.289-51.348-38.45-68.096
					c-1.155-0.838,0.205-2.574,1.358-1.744c15.454,11.172,25.287,24.578,32.32,42.268c9.568,24.059,6.521,51.176,22.061,72.979
					C68.174,239.374,66.426,240.718,65.596,239.56L65.596,239.56z"/>
			</g>
		</g>
		<g>
			<g>
				<path fill="#DB0D15" d="M51.255,210.337c-8.692-44.369-36.161-71.34-70.494-98.174c-1.123-0.877,0.233-2.617,1.357-1.742
					c34.959,27.32,62.518,54.67,71.33,99.643C53.721,211.462,51.526,211.729,51.255,210.337L51.255,210.337z"/>
			</g>
		</g>
		<g>
			<g>
				<path fill="#DB0D15" d="M77.782,119.97c-12.634-8.143-21.193-20.428-31.046-31.494c-0.947-1.068,0.815-2.398,1.754-1.346
					c9.727,10.924,18.173,23.061,30.65,31.094C80.335,118.999,78.97,120.733,77.782,119.97L77.782,119.97z"/>
			</g>
		</g>
		<g>
			<g>
				<path fill="#DB0D15" d="M64.469,108.519C49.22,92.532,32.873,77.646,17.624,61.661c-0.984-1.031,0.783-2.357,1.755-1.342
					c15.246,15.984,31.594,30.873,46.843,46.857C67.205,108.212,65.439,109.536,64.469,108.519L64.469,108.519z"/>
			</g>
		</g>
		<g>
			<g>
				<path fill="#DB0D15" d="M48.087,97.903c-19.207-16.486-33.508-37.412-50.499-56c-0.96-1.055,0.802-2.383,1.755-1.34
					c16.862,18.451,31.03,39.23,50.103,55.598C50.52,97.085,49.173,98.837,48.087,97.903L48.087,97.903z"/>
			</g>
		</g>
		<g>
			<g>
				<path fill="#DB0D15" d="M17.388,58.401C3.961,44.948-10.405,32.483-23.836,19.036c-0.988-0.992,0.354-2.748,1.354-1.744
					C-9.047,30.743,5.32,43.21,18.746,56.659C19.743,57.651,18.393,59.407,17.388,58.401L17.388,58.401z"/>
			</g>
		</g>
		<g>
			<g>
				<path fill="#DB0D15" d="M13.153,63.388C-5.939,38.991-28.263,6.216-59.93-1.937c-1.359-0.352-1.058-2.543,0.323-2.186
					C-27.309,4.196-4.523,37.22,14.91,62.046C15.786,63.167,14.034,64.507,13.153,63.388L13.153,63.388z"/>
			</g>
		</g>
		<g>
			<g>
				<path fill="#DB0D15" d="M319.854,504.7c-1.67,0.316-2.582,1.186-3.59,2.465c-0.881,1.119-2.625-0.234-1.742-1.355
					c1.404-1.781,2.795-2.871,5.061-3.303C320.985,502.241,321.249,504.433,319.854,504.7L319.854,504.7z"/>
			</g>
		</g>
		<g>
			<g>
				<path fill="#DB0D15" d="M283.527,484.085c-7.088-9.043-11.805-19.486-16.719-29.803c-0.611-1.289,1.436-2.127,2.043-0.846
					c4.828,10.139,9.461,20.414,16.434,29.307C286.162,483.864,284.404,485.202,283.527,484.085L283.527,484.085z"/>
			</g>
		</g>
		<g>
			<g>
				<path fill="#DB0D15" d="M277.044,490.13c-1.412,0.174-1.686-2.016-0.273-2.193C278.183,487.763,278.458,489.95,277.044,490.13
					L277.044,490.13z"/>
			</g>
		</g>
		<g>
			<g>
				<path fill="#DB0D15" d="M280.646,490.853c-1.412,0.176-1.68-2.016-0.27-2.191C281.791,488.483,282.062,490.677,280.646,490.853
					L280.646,490.853z"/>
			</g>
		</g>
		<g>
			<g>
				<path fill="#DB0D15" d="M257.017,432.897c-1.414,0.178-1.686-2.014-0.271-2.189C258.16,430.528,258.433,432.72,257.017,432.897
					L257.017,432.897z"/>
			</g>
		</g>
		<g>
			<g>
				<path fill="#DB0D15" d="M97.409,271.331c2.438,10.547,3.928,21.297,7.415,31.576c0.458,1.344-1.58,2.193-2.039,0.842
					c-3.547-10.465-5.09-21.406-7.568-32.143C94.896,270.218,97.089,269.958,97.409,271.331L97.409,271.331z"/>
			</g>
		</g>
		<g>
			<g>
				<path fill="#DB0D15" d="M89.407,263.835c6.293,13.166,12.526,26.35,17.864,39.938c0.522,1.324-1.517,2.166-2.034,0.842
					c-5.342-13.586-11.58-26.766-17.873-39.932C86.747,263.394,88.794,262.56,89.407,263.835L89.407,263.835z"/>
			</g>
		</g>
		<g>
			<g>
				<path fill="#DB0D15" d="M95.871,286.692c-1.415,0.172-1.688-2.02-0.275-2.193S97.284,286.513,95.871,286.692L95.871,286.692z"/>
			</g>
		</g>
		<g>
			<g>
				<path fill="#DB0D15" d="M92.439,259.946c5.915,18.613,11.29,37.643,20.89,54.783c0.693,1.236-1.354,2.066-2.045,0.844
					c-9.592-17.141-14.972-36.162-20.889-54.783C89.963,259.444,92.004,258.587,92.439,259.946L92.439,259.946z"/>
			</g>
		</g>
		<g>
			<g>
				<path fill="#DB0D15" d="M91.933,255.614c1.166,7.645,3.068,15.035,5.11,22.5c0.375,1.361-1.368,2.127-2.042,0.842
					c-9.973-19.021-6.758-40.602-8.856-61.264c-0.144-1.424,1.94-1.668,2.192-0.277c2.355,13.012-0.033,26.328-2.172,39.213
					c-0.204,1.209-2.074,1.248-2.188-0.018c-0.967-10.961-0.09-21.328,1.881-32.152c0.258-1.404,2.342-1.104,2.188,0.311
					c-1.32,11.752-3.2,23.408-4.843,35.113c-1.931,13.791,0.386-2.162,1.259-6.701c1.1-5.697,1.797-11.482,2.833-17.193
					c0.218-1.168,2.199-1.27,2.196,0.021c-0.039,8.805-0.289,17.512-1.455,26.248c-0.193,1.443-2.225,1.068-2.18-0.318
					c0.426-14.518,0.996-29.025,1.588-43.539c0.049-1.16,1.697-1.176,2.117-0.262c3.924,8.596,11.057,14.064,19.541,17.754
					c5.848,1.25,6.205,0.375,1.073-2.635c-3.55-2.863-7.339-5.428-11.109-7.996c-3.121-1.555-5.666-3.789-7.63-6.703
					c2.791,2.387,5.956,4.348,9.032,6.332c7.443,4.793,15.763,8.432,24.407,10.318c1.412,0.305,1.095,2.234-0.314,2.184
					c-12.146-0.447-22.236-5.035-32.374-11.473c-1.062-0.672-0.005-2.443,1.109-1.885c7.8,3.895,15.628,7.67,23.642,11.104
					c1.317,0.568,0.463,2.482-0.872,2.029c-11.331-3.863-21.19-9.482-28.552-19.086c-0.662-0.871,0.295-2.148,1.313-1.688
					c19.875,9.018,36.558,21.994,58.974,24.15c1.415,0.137,1.095,2.32-0.319,2.186c-14.002-1.346-25.847-6.273-38.066-13.066
					c-5.833-3.242-11.612-6.529-17.595-9.49c-4.01-1.979,9.235,7.65,9.354,7.74c2.523,1.365,5.041,2.742,7.556,4.111
					c4.076,0.119,5.108,1.232,3.098,3.328c-2.689-1.184-5.363-2.412-8.016-3.682c-1.845-0.869-12.241-8.428-3.412-3.346
					c4.954,2.852,10.305,4.672,15.83,6.074c0.427,0.109,5.492,2.422,4.691,2.18c-12.205-3.686-23.521-10.021-33.208-18.297
					c-0.903-0.777-0.015-2.549,1.113-1.889c10.573,6.184,20.505,13.043,29.794,21.049c0.657,0.564,0.496,1.945-0.54,1.969
					c-7.454,0.15-13.486-2.746-19.566-6.914c-3.068-2.102-5.474-4.916-7.815-7.756c-4.638-5.605-1.441,3.088-1.642,8.148
					c-0.261,6.445-0.489,12.889-0.712,19.342c1.456,3.439,0.811,5.285-1.936,5.529c0.566-4.213,0.653-8.498,0.802-12.736
					c1.718-6.006,1.995-6.102,0.837-0.285c-0.435,2.926-0.901,5.842-1.398,8.76c-0.965,5.854-2.527,11.324-4.746,16.816
					c-0.481,1.189-2.244,0.627-2.107-0.594c0.756-6.74,1.67-13.443,2.658-20.145c0.495-3.32,0.995-6.639,1.477-9.959
					c0.234-1.67,0.473-3.338,0.702-5.006c-1.093-4.535-0.285-6.016,2.429-4.445c-0.59,3.545-1.002,7.113-1.254,10.697
					c0.341-3.684-2.624,20.734-0.588,7.787c1.252-8.008,2.013-16.02,1.83-24.135c-0.21-9.693,2.069,3.33,2.17,5.988
					c0.291,7.592,0.317,15.16,0.858,22.74c0.443,6.273,2.829,18.051,3.652,21.07c-1.674-6.094-3.033-12.178-3.989-18.428
					C89.525,254.479,91.721,254.208,91.933,255.614L91.933,255.614z"/>
			</g>
		</g>
		<g>
			<g>
				<path fill="#DB0D15" d="M146.478,241.72c-22.922,3.246-44.054-8.102-59.105-24.795c-0.951-1.059,0.809-2.389,1.753-1.344
					c14.528,16.109,34.941,27.084,57.08,23.949C147.613,239.329,147.888,241.521,146.478,241.72L146.478,241.72z"/>
			</g>
		</g>
		<g>
			<g>
				<path fill="#DB0D15" d="M213.503,261.823c-5.232-19.113-13.105-35.186-28.818-48.02c-12.068-9.861-27.988-13.01-39.59-23.77
					c-1.037-0.959,0.311-2.711,1.355-1.744c12.508,11.605,29.694,15.68,42.852,26.434c14.449,11.805,21.458,28.777,26.246,46.256
					C215.914,262.337,213.878,263.192,213.503,261.823L213.503,261.823z"/>
			</g>
		</g>
		<g>
			<g>
				<path fill="#DB0D15" d="M178.964,236.171c-32.061-21.664-70.348-30.648-103.498-50.324c-1.221-0.727,0.148-2.461,1.355-1.744
					c33.154,19.682,71.434,28.654,103.499,50.326C181.501,235.228,180.137,236.964,178.964,236.171L178.964,236.171z"/>
			</g>
		</g>
		<g>
			<g>
				<path fill="#DB0D15" d="M109.878,159.466c-17.774-7.494-22.763-32.291-33.158-46.623c-0.837-1.154,0.923-2.496,1.759-1.346
					c10.234,14.115,15.038,38.678,32.273,45.939C112.061,157.989,111.194,160.019,109.878,159.466L109.878,159.466z"/>
			</g>
		</g>
		<g>
			<g>
				<path fill="#DB0D15" d="M100.698,153.413c-12.85-9.533-19.266-25.535-26.28-39.377c-0.646-1.273,1.4-2.105,2.043-0.848
					c6.847,13.527,13.048,29.172,25.595,38.48C103.198,152.521,101.844,154.261,100.698,153.413L100.698,153.413z"/>
			</g>
		</g>
		<g>
			<g>
				<path fill="#DB0D15" d="M90.323,145.341c-17.124-10.428-26.561-31.15-37.674-47.061c-0.814-1.17,0.938-2.512,1.752-1.346
					c10.991,15.734,20.389,36.373,37.28,46.66C92.89,144.339,91.521,146.071,90.323,145.341L90.323,145.341z"/>
			</g>
		</g>
		<g>
			<g>
				<path fill="#DB0D15" d="M83.35,137.788c-8.441-12.141-14.064-26.076-24.501-36.768c-0.996-1.021,0.771-2.35,1.754-1.346
					c10.441,10.703,16.057,24.625,24.499,36.768C85.913,137.61,84.159,138.952,83.35,137.788L83.35,137.788z"/>
			</g>
		</g>
		<g>
			<g>
				<path fill="#DB0D15" d="M71.53,127.548c-10.804-13.812-19.175-29.299-29.983-43.111c-0.876-1.125,0.882-2.463,1.755-1.344
					c10.806,13.812,19.177,29.299,29.983,43.111C74.164,127.331,72.407,128.665,71.53,127.548L71.53,127.548z"/>
			</g>
		</g>
		<g>
			<g>
				<path fill="#DB0D15" d="M58.274,115.146c-9.02-13.045-21.076-23.701-29.263-37.342c-0.73-1.209,1.019-2.564,1.752-1.342
					c8.186,13.635,20.245,24.299,29.259,37.342C60.83,114.974,59.079,116.315,58.274,115.146L58.274,115.146z"/>
			</g>
		</g>
		<g>
			<g>
				<path fill="#DB0D15" d="M47.888,107.071c-16.43-21.076-32.169-42.67-47.846-64.305c-0.836-1.15,0.916-2.494,1.757-1.344
					c15.681,21.641,31.409,43.229,47.845,64.303C50.523,106.853,48.761,108.188,47.888,107.071L47.888,107.071z"/>
			</g>
		</g>
		<g>
			<g>
				<path fill="#DB0D15" d="M5.214,116.421c-7.354-0.883-12.912-7.699-18.396-12.043c-1.112-0.883,0.245-2.631,1.358-1.742
					c5.114,4.057,10.512,10.779,17.353,11.605C6.947,114.405,6.627,116.595,5.214,116.421L5.214,116.421z"/>
			</g>
		</g>
		<g>
			<g>
				<path fill="#DB0D15" d="M62.144,241.708c-1.409,0.178-1.685-2.014-0.272-2.189C63.282,239.341,63.558,241.532,62.144,241.708
					L62.144,241.708z"/>
			</g>
		</g>
		<g>
			<g>
				<path fill="#DB0D15" d="M138.721,428.022c3.841-3.758,7.742-5.633,12.272-8.58c6.223-4.053,9.117-13.439,10.78-20.199
					c2.97-12.031,1.099-25.281-2.492-36.953c-0.41-1.352,1.627-2.201,2.044-0.844c3.847,12.518,4.959,25.201,2.639,38.117
					c-1.052,5.822-3.572,11.154-6.682,16.127c-4.13,6.609-11.858,8.838-17.221,14.084
					C139.042,430.769,137.717,429.007,138.721,428.022L138.721,428.022z"/>
			</g>
		</g>
		<g>
			<g>
				<path fill="#DB0D15" d="M149.94,335.931c16.429,32.639,17.522,67.105-9.879,93.844c-1.021,0.994-2.346-0.77-1.341-1.752
					c26.78-26.135,25.056-59.711,9.177-91.248C147.257,335.501,149.307,334.663,149.94,335.931L149.94,335.931z"/>
			</g>
		</g>
		<g>
			<g>
				<path fill="#DB0D15" d="M133.76,427.646c20.295-22.785,18.469-54.721,15.073-83.088c-0.169-1.41,2.019-1.686,2.188-0.271
					c3.471,28.924,5.14,61.518-15.515,84.717C134.559,430.062,132.816,428.712,133.76,427.646L133.76,427.646z"/>
			</g>
		</g>
		<g>
			<g>
				<path fill="#DB0D15" d="M148.497,333.769c9.114,24.668,14.263,55.246-1.027,78.512c-0.779,1.193-2.517-0.17-1.744-1.355
					c14.812-22.535,9.529-52.504,0.732-76.314C145.966,333.278,148.004,332.429,148.497,333.769L148.497,333.769z"/>
			</g>
		</g>
		<g>
			<g>
				<path fill="#DB0D15" d="M136.657,425.788c43.926-6.602,22.91-76.975,0.053-96.498c-1.077-0.922,0.273-2.67,1.354-1.74
					c24.233,20.697,45.304,93.451-1.134,100.43C135.519,428.19,135.255,425.997,136.657,425.788L136.657,425.788z"/>
			</g>
		</g>
		<g>
			<g>
				<path fill="#DB0D15" d="M166.494,373.103c-10.278-31.268-37.895-52.768-47.997-84.193c-0.432-1.348,1.605-2.199,2.046-0.842
					c10.089,31.42,37.702,52.9,47.99,84.191C168.971,373.606,166.933,374.456,166.494,373.103L166.494,373.103z"/>
			</g>
		</g>
		<g>
			<g>
				<path fill="#DB0D15" d="M153.673,341.405c-30.945-14.771-41.251-62.402-52.896-91.279c-0.534-1.322,1.502-2.162,2.039-0.842
					c11.446,28.375,21.703,75.762,51.727,90.09C155.825,339.987,154.962,342.021,153.673,341.405L153.673,341.405z"/>
			</g>
		</g>
		<g>
			<g>
				<path fill="#DB0D15" d="M255.925,346.038c-22.018-16.91-48.104-26.902-68.78-45.67c-18.313-16.607-29.176-43.852-40.236-65.371
					c-0.651-1.266,1.39-2.102,2.038-0.844c13.996,27.225,26.714,55.127,51.334,74.428c17.646,13.836,39.133,21.992,57.002,35.713
					C258.414,345.159,257.056,346.905,255.925,346.038L255.925,346.038z"/>
			</g>
		</g>
		<g>
			<g>
				<path fill="#DB0D15" d="M155.378,241.054c30.436,25.289,40.691,72.58,83.516,81.826c1.377,0.299,1.075,2.484-0.322,2.184
					c-43.5-9.393-53.635-56.58-84.549-82.266C152.929,241.894,154.281,240.146,155.378,241.054L155.378,241.054z"/>
			</g>
		</g>
		<g>
			<g>
				<path fill="#DB0D15" d="M228.784,323.827c-30.245-17.402-48.244-44.924-65.877-74.164c-0.732-1.207,1.019-2.561,1.752-1.344
					c17.352,28.775,35.136,56.295,64.993,73.475C230.87,322.497,230.023,324.534,228.784,323.827L228.784,323.827z"/>
			</g>
		</g>
		<g>
			<g>
				<path fill="#DB0D15" d="M160.841,244.677c6.81,29.391,25.557,57.361,53.822,69.623c1.301,0.568,0.438,2.6-0.871,2.033
					c-29.016-12.59-48.155-41.229-55.143-71.383C158.331,243.563,160.524,243.304,160.841,244.677L160.841,244.677z"/>
			</g>
		</g>
		<g>
			<g>
				<path fill="#DB0D15" d="M214.79,312.806c-20.952-4.039-34.055-29.357-41.792-47.102c-0.572-1.307,1.468-2.143,2.034-0.844
					c7.354,16.838,20.138,41.916,40.074,45.758C216.496,310.888,216.194,313.077,214.79,312.806L214.79,312.806z"/>
			</g>
		</g>
		<g>
			<g>
				<path fill="#DB0D15" d="M93.468,552.378c9.39-15.891-0.494-28.133-5.682-43.186c-0.46-1.34,1.582-2.188,2.045-0.842
					c5.615,16.301,15.245,28.689,5.383,45.389C94.484,554.96,92.749,553.591,93.468,552.378L93.468,552.378z"/>
			</g>
		</g>
		<g>
			<g>
				<path fill="#DB0D15" d="M88.042,546.45c-1.412,0.178-1.686-2.018-0.272-2.189C89.187,544.081,89.46,546.272,88.042,546.45
					L88.042,546.45z"/>
			</g>
		</g>
		<g>
			<g>
				<path fill="#DB0D15" d="M87.642,550.901c5.711-12.979,6.896-25.557,1.303-38.812c-3.156-7.492-4.938-14.629-4.887-22.779
					c-0.002-1.404,2.192-1.693,2.184-0.273c-0.064,12.391,6.042,22.383,8.382,34.178c1.923,9.658-1.102,19.816-4.953,28.561
					C89.093,553.075,87.064,552.21,87.642,550.901L87.642,550.901z"/>
			</g>
		</g>
		<g>
			<g>
				<path fill="#DB0D15" d="M88.836,541.901c0.8-32.924-7.217-64.893-11.579-97.33c-0.19-1.41,1.998-1.684,2.188-0.271
					c4.396,32.641,12.379,64.799,11.573,97.92C90.982,543.642,88.799,543.312,88.836,541.901L88.836,541.901z"/>
			</g>
		</g>
		<g>
			<g>
				<path fill="#DB0D15" d="M86.962,536.96c-3.478-23.994-9.564-47.486-12.583-71.555c-3.421-27.258,7.136-65.5-30.291-73.967
					c-1.376-0.309-1.069-2.5,0.315-2.18c16.123,3.641,27.678,16.125,30.664,32.701c3.102,17.213,0.438,34.693,2.621,52.115
					c2.643,21.037,8.42,41.617,11.466,62.609C89.355,538.097,87.166,538.366,86.962,536.96L86.962,536.96z"/>
			</g>
		</g>
		<g>
			<g>
				<path fill="#DB0D15" d="M43.106,396.212c26.854,12.809,34.339,27.816,30.014,56.76c-3.898,26.062,2.849,47.301,9.43,72.137
					c3.084,11.625,3.758,21.979-0.585,33.098c-0.522,1.328-2.546,0.455-2.029-0.869c9.186-23.533-6.083-50.439-10.205-73.838
					c-1.807-10.219-0.254-20.715,1.208-30.844c3.716-25.822-4.713-42.971-28.701-54.414
					C40.956,397.634,41.814,395.599,43.106,396.212L43.106,396.212z"/>
			</g>
		</g>
		<g>
			<g>
				<path fill="#DB0D15" d="M85.13,549.81c-17.266-3.371-34.436-15.121-42.257-30.854c-6.534-13.135-6.725-29.838-9.238-44.014
					c-4.137-23.41-15.346-45.516-24.752-67.125c-0.563-1.311,1.477-2.148,2.048-0.846c10.621,24.422,21.485,48.395,26.149,74.77
					c5.403,30.57,13.602,59.094,48.362,65.885C86.84,547.896,86.528,550.085,85.13,549.81L85.13,549.81z"/>
			</g>
		</g>
		<g>
			<g>
				<path fill="#DB0D15" d="M136.485,476.433c-8.305-4.043-16.916-7.391-24.939-11.984c-8.4-4.811-12.706-12.318-19.811-18.465
					c-1.074-0.924,0.278-2.672,1.359-1.742c6.243,5.406,10.513,12.281,17.455,17.012c8.193,5.588,17.935,8.83,26.799,13.146
					C138.625,475.022,137.764,477.054,136.485,476.433L136.485,476.433z"/>
			</g>
		</g>
		<g>
			<g>
				<path fill="#DB0D15" d="M140.954,484.821c-9.688-7.531-21.207-12.111-30.781-19.801c-8.894-7.145-14.419-18.58-21.48-27.393
					c-0.895-1.113,0.867-2.449,1.757-1.344c7.78,9.719,13.797,21.146,23.61,29.027c8.674,6.963,19.428,10.91,28.252,17.766
					C143.431,483.952,142.072,485.692,140.954,484.821L140.954,484.821z"/>
			</g>
		</g>
		<g>
			<g>
				<path fill="#DB0D15" d="M133.494,489.778c-8.394-9.041-19.091-15.311-27.724-24.09c-8.896-9.049-14.033-22.557-20.284-33.398
					c-0.713-1.229,1.335-2.053,2.036-0.842c7.615,13.193,13.582,27.375,25.072,37.754c7.408,6.686,15.816,11.869,22.653,19.232
					C136.219,489.483,134.452,490.812,133.494,489.778L133.494,489.778z"/>
			</g>
		</g>
		<g>
			<g>
				<path fill="#DB0D15" d="M131.374,495.739c-11.24-8.736-20.076-19.115-28.116-30.834c-7.931-11.57-8.864-29.355-20.572-37.85
					c-1.155-0.838,0.208-2.58,1.358-1.744c8.221,5.969,10.881,15.977,14.225,25.141c6.229,17.066,20.354,32.58,34.464,43.541
					C133.856,494.87,132.497,496.612,131.374,495.739L131.374,495.739z"/>
			</g>
		</g>
		<g>
			<g>
				<path fill="#DB0D15" d="M280.048,491.589c-1.666-14.031-12.115-26.338-19.75-37.697c-0.789-1.184,0.961-2.525,1.758-1.346
					c7.816,11.639,18.48,24.369,20.186,38.768C282.406,492.726,280.21,493.001,280.048,491.589L280.048,491.589z"/>
			</g>
		</g>
		<g>
			<g>
				<path fill="#DB0D15" d="M276.984,491.046c-7.109-13.363-14.756-26.41-21.309-40.066c-8.157-17.006-13.266-35.352-21.246-52.473
					c-0.597-1.293,1.443-2.131,2.043-0.844c7.039,15.1,12.43,30.82,18.547,46.303c6.37,16.133,15.889,30.965,23.999,46.238
					C279.687,491.46,277.64,492.292,276.984,491.046L276.984,491.046z"/>
			</g>
		</g>
		<g>
			<g>
				<path fill="#DB0D15" d="M253.645,459.923c-8.713-26.209-21.208-50.857-32.003-76.232c-0.561-1.307,1.48-2.15,2.039-0.842
					c10.799,25.371,23.289,50.02,32.007,76.23C256.134,460.423,254.091,461.272,253.645,459.923L253.645,459.923z"/>
			</g>
		</g>
		<g>
			<g>
				<path fill="#DB0D15" d="M228.962,412.22c-4.819-7.883-8.738-16.195-11.735-24.939c-0.459-1.34,1.578-2.189,2.043-0.846
					c2.932,8.562,6.727,16.721,11.444,24.441C231.449,412.083,229.702,413.433,228.962,412.22L228.962,412.22z"/>
			</g>
		</g>
		<g>
			<g>
				<path fill="#DB0D15" d="M228.741,353.688c-28.032-16.209-44.278-44.484-63.195-69.699c-0.85-1.143,0.903-2.48,1.757-1.344
					c18.628,24.838,34.665,53.027,62.308,69.014C230.826,352.364,229.972,354.399,228.741,353.688L228.741,353.688z"/>
			</g>
		</g>
		<g>
			<g>
				<path fill="#DB0D15" d="M206.155,346.384c-12.67-14.053-23.641-29.271-34.177-44.963c-8.535-12.709-19.357-22.898-25.423-37.209
					c-0.557-1.314,1.485-2.15,2.043-0.846c6.726,15.869,19.156,27.814,28.646,41.943c9.354,13.932,19.431,27.27,30.67,39.732
					C208.866,346.103,207.103,347.433,206.155,346.384L206.155,346.384z"/>
			</g>
		</g>
		<g>
			<g>
				<path fill="#DB0D15" d="M172.206,308.077c-14.871-21.373-32.349-40.984-43.449-64.74c-0.609-1.291,1.438-2.129,2.039-0.844
					c11.021,23.586,28.398,43.029,43.157,64.238C174.766,307.901,173.014,309.245,172.206,308.077L172.206,308.077z"/>
			</g>
		</g>
		<g>
			<g>
				<path fill="#DB0D15" d="M132.746,239.55c4.099,4.369,7.239,9.408,10.321,14.518c0.727,1.207-1.02,2.561-1.756,1.344
					c-3.078-5.111-6.22-10.148-10.32-14.518C130.011,239.851,131.778,238.522,132.746,239.55L132.746,239.55z"/>
			</g>
		</g>
		<g>
			<g>
				<path fill="#DB0D15" d="M148.675,244.515c2.312,4.816,4.772,9.557,7.251,14.289c0.664,1.262-1.384,2.096-2.038,0.844
					c-2.483-4.73-4.939-9.471-7.252-14.287C146.015,244.073,148.058,243.239,148.675,244.515L148.675,244.515z"/>
			</g>
		</g>
		<g>
			<g>
				<path fill="#DB0D15" d="M148.821,250.577c4.032,7.561,7.932,15.188,12.424,22.49c0.736,1.207-1.014,2.557-1.759,1.346
					c-4.58-7.471-8.583-15.264-12.702-22.994C146.112,250.159,148.159,249.331,148.821,250.577L148.821,250.577z"/>
			</g>
		</g>
		<g>
			<g>
				<path fill="#DB0D15" d="M142.54,244.062c5.698,16.633,17.997,29.203,28.348,42.998c0.857,1.143-0.9,2.48-1.752,1.344
					c-10.469-13.951-22.882-26.691-28.637-43.494C140.038,243.567,142.08,242.716,142.54,244.062L142.54,244.062z"/>
			</g>
		</g>
		<g>
			<g>
				<path fill="#DB0D15" d="M166.294,247.823c-16.202-6.801-32.904-12.311-50.594-13.021c-1.422-0.055-1.09-2.242,0.32-2.186
					c17.88,0.717,34.772,6.301,51.146,13.176C168.473,246.345,167.608,248.376,166.294,247.823L166.294,247.823z"/>
			</g>
		</g>
		<g>
			<g>
				<path fill="#DB0D15" d="M322.198,306.56c27.203-14.541,33.854-43.713,25.363-71.631c-6.752-22.203-36.939-28.039-53.951-41.459
					c-1.117-0.883,0.238-2.629,1.355-1.746c25.281,19.941,50.58,19.908,57.798,54.754c5.289,25.486-7.395,50.188-29.721,62.121
					C321.786,309.272,320.952,307.224,322.198,306.56L322.198,306.56z"/>
			</g>
		</g>
		<g>
			<g>
				<path fill="#DB0D15" d="M295.017,190.726c10.729,12.629,27.957,16.43,37.949,29.367c8.934,11.566,14.162,23.424,15.338,38.051
					c1.926,23.871-19.402,43.1-37.209,54.873c-1.184,0.783-2.529-0.969-1.338-1.756c25.564-16.898,43.379-40.475,32.096-72.277
					c-8.582-24.18-33.416-29.062-48.591-46.912C292.337,190.983,294.097,189.647,295.017,190.726L295.017,190.726z"/>
			</g>
		</g>
		<g>
			<g>
				<path fill="#DB0D15" d="M317.769,302.815c12.578-2.168,24.545-15.176,29.797-26.266c0.609-1.281,2.646-0.422,2.029,0.871
					c-5.611,11.846-18.129,25.27-31.553,27.588C316.638,305.247,316.374,303.054,317.769,302.815L317.769,302.815z"/>
			</g>
		</g>
		<g>
			<g>
				<path fill="#DB0D15" d="M308.905,312.185c-18.38,5.734-38.513-5.168-55.938-10.037c-17.177-4.793-30.299-10.451-38.785-26.93
					c-0.654-1.268,1.395-2.1,2.043-0.846c9.173,17.824,23.24,21.145,40.881,26.658c15.688,4.904,34.355,14.291,50.951,9.117
					C309.407,309.724,310.263,311.759,308.905,312.185L308.905,312.185z"/>
			</g>
		</g>
		<g>
			<g>
				<path fill="#DB0D15" d="M205.981,261.405c22.146,28.943,54.346,52.604,91.809,54.277c1.426,0.059,1.094,2.244-0.318,2.182
					c-37.998-1.695-70.781-25.746-93.244-55.119C203.361,261.61,205.116,260.278,205.981,261.405L205.981,261.405z"/>
			</g>
		</g>
		<g>
			<g>
				<path fill="#DB0D15" d="M100.794,294.253c13.244,36.059,36.63,87.789,7.756,122.885c-0.901,1.1-2.646-0.252-1.746-1.354
					c28.421-34.543,5.002-85.16-8.054-120.691C98.261,293.761,100.3,292.917,100.794,294.253L100.794,294.253z"/>
			</g>
		</g>
		<g>
			<g>
				<path fill="#DB0D15" d="M108.907,415.407c3.453-15.783,10.1-27.863,10.212-44.809c0.12-18.725-7.118-36.916-10.573-55.145
					c-0.267-1.393,1.932-1.66,2.193-0.27c3.491,18.43,10.007,36.268,10.57,55.143c0.512,17.279-6.615,28.932-10.219,45.393
					C110.787,417.104,108.597,416.798,108.907,415.407L108.907,415.407z"/>
			</g>
		</g>
		<g>
			<g>
				<path fill="#DB0D15" d="M114.398,329.923c5.829,23.688,11.63,45.045,1.704,68.424c-0.553,1.307-2.581,0.441-2.03-0.873
					c9.767-22.998,3.825-44.16-1.862-67.275C111.869,328.815,114.063,328.556,114.398,329.923L114.398,329.923z"/>
			</g>
		</g>
		<g>
			<g>
				<path fill="#DB0D15" d="M116.093,385.333c0.385-13.82,0.811-27.514-0.824-41.27c-1.847-15.527-9.906-27.75-17.343-40.965
					c-0.694-1.244,1.353-2.07,2.043-0.846c6.687,11.885,13.104,22.42,16.461,35.793c3.827,15.268,2.285,32.035,1.853,47.604
					C118.24,387.067,116.058,386.741,116.093,385.333L116.093,385.333z"/>
			</g>
		</g>
		<g>
			<g>
				<path fill="#DB0D15" d="M110.362,331.644c2.479,12.754,4.197,25.611,7.568,38.184c2.096,7.844,3.104,8.418,5.235,0.273
					c1.12-4.281,1.145-9.016,1.161-13.389c0.053-14.369-2.259-38.961-14.541-48.523c-1.124-0.877,0.232-2.619,1.359-1.742
					c9.576,7.461,12.045,22.912,13.963,34.098c1.944,11.365,4.332,29.699-4.208,39.193c-0.537,0.592-1.573,0.562-1.894-0.258
					c-5.966-15.291-7.721-31.545-10.835-47.562C107.899,330.517,110.09,330.253,110.362,331.644L110.362,331.644z"/>
			</g>
		</g>
		<g>
			<g>
				<path fill="#DB0D15" d="M110.308,312.38c-10.832-9.271-13.965-24.582-20.082-36.885c-0.635-1.277,1.41-2.109,2.043-0.846
					c5.91,11.895,8.943,27.041,19.398,35.988C112.745,311.56,111.393,313.31,110.308,312.38L110.308,312.38z"/>
			</g>
		</g>
		<g>
			<g>
				<path fill="#DB0D15" d="M294.115,489.647c16.63-17.586,33.263-50.758,27.992-75.035c-0.305-1.393,1.887-1.652,2.188-0.271
					c3.146,14.475-0.113,26.035-6.107,39.297c-5.881,13.002-12.446,26.912-22.33,37.365
					C294.884,492.028,293.132,490.679,294.115,489.647L294.115,489.647z"/>
			</g>
		</g>
		<g>
			<g>
				<path fill="#DB0D15" d="M323.37,413.8c-6.26-9.621-6.027-20.162-4.471-31.219c2.559-18.113,8.303-32.162,6.209-51.006
					c-0.156-1.41,2.033-1.688,2.189-0.27c1.141,10.289,1.248,19.672-0.762,29.855c-3.352,16.971-12.117,34.846-1.41,51.297
					C325.896,413.646,324.147,414.993,323.37,413.8L323.37,413.8z"/>
			</g>
		</g>
		<g>
			<g>
				<path fill="#DB0D15" d="M321.437,396.894c3.582-5.574,5.123-12.111,7.262-18.314c0.465-1.346,2.492-0.467,2.025,0.875
					c-2.213,6.404-3.84,13.035-7.547,18.793C322.405,399.446,320.667,398.077,321.437,396.894L321.437,396.894z"/>
			</g>
		</g>
		<g>
			<g>
				<path fill="#DB0D15" d="M321.282,390.829c4.629-7.658,7.193-16.365,9.359-24.98c0.35-1.367,2.533-1.066,2.186,0.314
					c-2.268,9.021-4.957,18.016-9.803,26.023C322.288,393.403,320.562,392.032,321.282,390.829L321.282,390.829z"/>
			</g>
		</g>
		<g>
			<g>
				<path fill="#DB0D15" d="M322.71,379.329c3.195-9.57,7.607-18.756,9.055-28.822c0.207-1.406,2.393-1.094,2.186,0.318
					c-1.475,10.26-5.951,19.621-9.211,29.375C324.294,381.548,322.267,380.673,322.71,379.329L322.71,379.329z"/>
			</g>
		</g>
		<g>
			<g>
				<path fill="#DB0D15" d="M321.515,365.772c2.145-7.812,4.031-15.662,4.941-23.721c0.156-1.41,2.346-1.094,2.188,0.32
					c-0.912,8.057-2.793,15.908-4.939,23.713C323.333,367.438,321.136,367.142,321.515,365.772L321.515,365.772z"/>
			</g>
		</g>
		<g>
			<g>
				<path fill="#DB0D15" d="M323.388,404.167c1.283-2.852,2.744-5.596,4.633-8.1c0.857-1.141,2.592,0.221,1.74,1.359
					c-1.779,2.354-3.139,4.93-4.35,7.613C324.833,406.331,322.792,405.47,323.388,404.167L323.388,404.167z"/>
			</g>
		</g>
		<g>
			<g>
				<path fill="#DB0D15" d="M324.351,410.511c2.422-3.174,4.568-6.553,6.656-9.955c0.742-1.209,2.484,0.158,1.746,1.359
					c-2.096,3.395-4.238,6.779-6.658,9.951C325.224,412.999,323.483,411.642,324.351,410.511L324.351,410.511z"/>
			</g>
		</g>
		<g>
			<g>
				<path fill="#DB0D15" d="M326.222,415.747c1.027-1.219,2.164-2.156,3.484-3.043c1.18-0.793,2.527,0.959,1.346,1.754
					c-1.156,0.773-2.186,1.572-3.092,2.645C327.044,418.185,325.3,416.835,326.222,415.747L326.222,415.747z"/>
			</g>
		</g>
		<g>
			<g>
				<path fill="#DB0D15" d="M386.097,436.306c-23.783,1.904-46.762-10.469-68.494-18.344c-1.34-0.486-0.467-2.514,0.867-2.033
					c21.363,7.738,44.033,20.055,67.354,18.186C387.237,433.999,387.519,436.188,386.097,436.306L386.097,436.306z"/>
			</g>
		</g>
		<g>
			<g>
				<path fill="#DB0D15" d="M395.409,440.253c31.836-15.867-2.912-51.768-9.047-71.83c-5.105-16.689,13-32.016,11.906-48.904
					c-1.807-27.867-31.801-41.473-39.855-66.197c-5.545-17.016-7.324-29.018-22.393-41.447
					c-13.473-11.113-27.428-16.66-44.509-19.682c-1.398-0.25-1.09-2.434,0.32-2.188c19.863,3.518,51.878,14.709,60.792,35.213
					c8.457,19.447,8.268,34.111,24.215,51.33c9.057,9.771,18.613,23.67,22.061,36.779c2.625,9.973,1.799,15.988-2.361,25.271
					c-5.176,11.551-10.99,19.648-6.348,34.848c2.529,8.266,9.383,15.037,13.242,22.676c7.895,15.672,11.055,37.086-7.174,46.168
					C394.979,442.925,394.144,440.882,395.409,440.253L395.409,440.253z"/>
			</g>
		</g>
	</g>
</g>
</svg>
