<?xml version="1.0" encoding="utf-8"?>
<!-- Generator: Adobe Illustrator 16.0.0, SVG Export Plug-In . SVG Version: 6.00 Build 0)  -->
<!DOCTYPE svg PUBLIC "-//W3C//DTD SVG 1.1 Basic//EN" "http://www.w3.org/Graphics/SVG/1.1/DTD/svg11-basic.dtd">
<svg version="1.1" baseProfile="basic" id="Capa_1" xmlns="http://www.w3.org/2000/svg" xmlns:xlink="http://www.w3.org/1999/xlink"
	 x="0px" y="0px" width="319.314px" height="460.441px" viewBox="0 0 319.314 460.441" xml:space="preserve">
<g>
	<defs>
		<rect id="SVGID_5_" x="0.851" width="318.464" height="461.225"/>
	</defs>
	<clipPath id="SVGID_2_">
		<use xlink:href="#SVGID_5_"  overflow="visible"/>
	</clipPath>
	<g opacity="0.41" clip-path="url(#SVGID_2_)">
		<g>
			<g>
				<g>
					<path fill="#DB0D15" d="M166.527,46.26c-8.897,27.004,23.512,37.889,35.77,56.199c0.676,1.012,2.314,0.064,1.637-0.949
						c-11.844-17.693-44.156-28.725-35.585-54.75C168.732,45.6,166.906,45.104,166.527,46.26L166.527,46.26z"/>
				</g>
			</g>
			<g>
				<g>
					<path fill="#DB0D15" d="M187.105,94.287c8.064,0.283,13.195,6.053,19.035,10.832c0.936,0.762,2.28-0.566,1.336-1.34
						c-6.285-5.135-11.729-11.082-20.369-11.381C185.889,92.354,185.89,94.244,187.105,94.287L187.105,94.287z"/>
				</g>
			</g>
			<g>
				<g>
					<path fill="#DB0D15" d="M194.492,101.686c6.355,0.273,12.447,3.791,18.221,6.145c1.127,0.461,1.617-1.369,0.502-1.818
						c-5.965-2.436-12.161-5.936-18.722-6.213C193.278,99.744,193.279,101.637,194.492,101.686L194.492,101.686z"/>
				</g>
			</g>
			<g>
				<g>
					<path fill="#DB0D15" d="M213.287,106.67c-0.119,0.76-1.035,0.533-1.555,0.535c-1.218,0.01-1.22,1.895-0.002,1.893
						c1.508-0.012,3.102-0.178,3.379-1.924C215.297,105.986,213.477,105.469,213.287,106.67L213.287,106.67z"/>
				</g>
			</g>
			<g>
				<g>
					<path fill="#DB0D15" d="M212.963,107.867c1.217,0,1.218-1.889,0.002-1.891C211.747,105.977,211.746,107.865,212.963,107.867
						L212.963,107.867z"/>
				</g>
			</g>
			<g>
				<g>
					<path fill="#DB0D15" d="M223.646,96.598c-3.266-4.949-6.316-10.027-9.844-14.793c-0.717-0.969-2.358-0.029-1.635,0.949
						c3.529,4.771,6.582,9.85,9.846,14.795C222.682,98.561,224.32,97.617,223.646,96.598L223.646,96.598z"/>
				</g>
			</g>
			<g>
				<g>
					<path fill="#DB0D15" d="M219.392,87.533c-10.453-2.844-20.378-11.395-28.654-17.965c-7.036-5.594-21.444-15.674-22.354-25.523
						c-0.107-1.203-1.999-1.217-1.885-0.002c0.939,10.227,13.961,19.422,21.031,25.334c8.973,7.5,19.846,16.848,31.363,19.98
						C220.066,89.678,220.568,87.857,219.392,87.533L219.392,87.533z"/>
				</g>
			</g>
			<g>
				<g>
					<path fill="#DB0D15" d="M210.107,86.729c-3.744-6.129-8.268-11.838-11.074-18.49c-0.475-1.121-2.102-0.158-1.637,0.949
						c2.81,6.656,7.336,12.361,11.076,18.49C209.11,88.719,210.742,87.77,210.107,86.729L210.107,86.729z"/>
				</g>
			</g>
			<g>
				<g>
					<path fill="#DB0D15" d="M211.34,83.035c-5.928-8.787-7.321-18.793-8.467-29.102c-0.131-1.197-2.026-1.213-1.889-0.002
						c1.18,10.604,2.639,21.021,8.723,30.053C210.383,84.99,212.025,84.045,211.34,83.035L211.34,83.035z"/>
				</g>
			</g>
			<g>
				<g>
					<path fill="#DB0D15" d="M205.187,78.1c-7.108-13.162-3.692-24.986-2.3-38.949c0.125-1.215-1.768-1.205-1.889-0.002
						c-1.439,14.445-4.711,26.439,2.553,39.904C204.13,80.127,205.762,79.172,205.187,78.1L205.187,78.1z"/>
				</g>
			</g>
			<g>
				<g>
					<path fill="#DB0D15" d="M202.856,72.225c0.005,0,0.122-21.664,2.456-30.455c0.311-1.166-1.508,0.125-1.822,1.305
						c-2.375,8.943-2.498,9.148-2.522,29.148C200.965,72.223,202.856,72.225,202.856,72.225L202.856,72.225z"/>
				</g>
			</g>
			<g>
				<g>
					<path fill="#DB0D15" d="M203.59,37.16c6.59,10.66,12.488,21.775,19.685,32.051c0.694,0.994,2.332,0.053,1.634-0.949
						c-7.191-10.277-13.094-21.391-19.683-32.051C204.584,35.178,202.944,36.123,203.59,37.16L203.59,37.16z"/>
				</g>
			</g>
			<g>
				<g>
					<path fill="#DB0D15" d="M220.723,62.824c1.889,9.926,10.586,16.926,16.086,24.879c0.691,1.002,2.332,0.057,1.635-0.949
						c-5.42-7.838-14.047-14.693-15.9-24.426C222.313,61.133,220.489,61.637,220.723,62.824L220.723,62.824z"/>
				</g>
			</g>
			<g>
				<g>
					<path fill="#DB0D15" d="M232.381,83.281c-3.613-10.934-12.711-20.719-8.598-32.773c0.395-1.158-1.43-1.65-1.82-0.502
						c-4.299,12.588,4.822,22.361,8.596,33.771C230.938,84.934,232.763,84.439,232.381,83.281L232.381,83.281z"/>
				</g>
			</g>
			<g>
				<g>
					<path fill="#DB0D15" d="M224.869,43.682c7.279,5.02,12.947,11.875,15.561,20.393c0.354,1.162,2.184,0.67,1.821-0.496
						c-2.761-9.012-8.729-16.219-16.429-21.527C224.816,41.355,223.873,42.996,224.869,43.682L224.869,43.682z"/>
				</g>
			</g>
			<g>
				<g>
					<path fill="#DB0D15" d="M236.715,53.965c1.18,10.662,2.354,21.293,2.431,32.035c0.007,1.221,1.899,1.221,1.886,0.002
						c-0.07-10.742-1.246-21.373-2.428-32.035C238.47,52.77,236.582,52.754,236.715,53.965L236.715,53.965z"/>
				</g>
			</g>
			<g>
				<g>
					<path fill="#DB0D15" d="M241.035,82.305c0.928-13.006-4.541-28.34,5.924-38.748c0.865-0.861-0.469-2.199-1.337-1.34
						c-10.95,10.898-5.499,26.416-6.474,40.086C239.062,83.525,240.953,83.516,241.035,82.305L241.035,82.305z"/>
				</g>
			</g>
			<g>
				<g>
					<path fill="#DB0D15" d="M248.432,45.605c2.271-5.602,4.951-10.902,8.541-15.787c0.72-0.982-0.918-1.924-1.633-0.955
						c-3.686,5.016-6.399,10.486-8.73,16.236C246.148,46.229,247.979,46.721,248.432,45.605L248.432,45.605z"/>
				</g>
			</g>
			<g>
				<g>
					<path fill="#DB0D15" d="M255.246,27.863c-4.377,12.582-0.077,24.047,3.668,36.229c0.354,1.162,2.179,0.668,1.818-0.496
						c-3.601-11.75-7.919-22.998-3.664-35.23C257.474,27.209,255.646,26.721,255.246,27.863L255.246,27.863z"/>
				</g>
			</g>
			<g>
				<g>
					<path fill="#DB0D15" d="M256.462,50.539c2.599,13.092,7.853,25.555,3.658,38.928c-0.366,1.162,1.458,1.662,1.819,0.502
						c4.309-13.727-0.973-26.436-3.657-39.928C258.045,48.842,256.224,49.35,256.462,50.539L256.462,50.539z"/>
				</g>
			</g>
			<g>
				<g>
					<path fill="#DB0D15" d="M260.709,89.967c4.498-27.229,25.695-43.037,48.898-54.828c1.087-0.555,0.133-2.184-0.947-1.631
						c-23.658,12.018-45.201,28.27-49.77,55.957C258.69,90.654,260.512,91.17,260.709,89.967L260.709,89.967z"/>
				</g>
			</g>
			<g>
				<g>
					<path fill="#DB0D15" d="M306,34.881c-15.537,16.857-13.92,46.207-35.596,57.723c-1.078,0.576-0.125,2.207,0.949,1.637
						c22.024-11.705,20.332-41.043,35.98-58.02C308.16,35.328,306.83,33.986,306,34.881L306,34.881z"/>
				</g>
			</g>
			<g>
				<g>
					<path fill="#DB0D15" d="M276.625,95.137c11.393-22.09,36.92-36.691,61.796-31.539c1.188,0.244,1.698-1.574,0.507-1.82
						c-25.678-5.318-52.133,9.516-63.934,32.406C274.436,95.264,276.068,96.225,276.625,95.137L276.625,95.137z"/>
				</g>
			</g>
			<g>
				<g>
					<path fill="#DB0D15" d="M331.697,62.205c-12.186,18.73-29.843,30.693-48.979,41.498c-1.064,0.598-0.115,2.236,0.949,1.635
						c19.445-10.979,37.297-23.17,49.66-42.182C333.992,62.131,332.359,61.182,331.697,62.205L331.697,62.205z"/>
				</g>
			</g>
			<g>
				<g>
					<path fill="#DB0D15" d="M290.168,103.77c20.209-29.248,43.002-3.312,69.416-4.391c1.215-0.049,1.22-1.939,0.002-1.889
						c-28.057,1.143-50.232-24.807-71.049,5.328C287.844,103.824,289.483,104.77,290.168,103.77L290.168,103.77z"/>
				</g>
			</g>
			<g>
				<g>
					<path fill="#DB0D15" d="M357.686,98.994c-19.15,15.916-46.369,7.469-66.363,21.967c-0.977,0.709-0.036,2.35,0.949,1.637
						c20.102-14.576,47.373-6.16,66.75-22.262C359.962,99.557,358.619,98.221,357.686,98.994L357.686,98.994z"/>
				</g>
			</g>
			<g>
				<g>
					<path fill="#DB0D15" d="M294.938,121.219c13.156-11.832,31.76-8.363,47.132-3.41c1.16,0.377,1.659-1.451,0.502-1.82
						c-16.106-5.193-35.286-8.41-48.972,3.889C292.693,120.695,294.035,122.029,294.938,121.219L294.938,121.219z"/>
				</g>
			</g>
			<g>
				<g>
					<path fill="#DB0D15" d="M343.071,118.545c-14.128,7.799-33.63,9.633-48.327,2.418c-1.088-0.533-2.049,1.096-0.953,1.637
						c15.332,7.521,35.479,5.729,50.232-2.424C345.088,119.588,344.139,117.955,343.071,118.545L343.071,118.545z"/>
				</g>
			</g>
			<g>
				<g>
					<path fill="#DB0D15" d="M304.115,127.662c17.729-0.402,31.216,13.555,49.522,9.869c1.194-0.24,0.688-2.064-0.498-1.824
						c-18.013,3.627-31.511-10.332-49.022-9.93C302.9,125.805,302.898,127.689,304.115,127.662L304.115,127.662z"/>
				</g>
			</g>
			<g>
				<g>
					<path fill="#DB0D15" d="M351.906,138.176c-15.732,4.865-27.925,7.207-43.992,1.924c-9.877-3.248-19.51-7.105-29.926-4.463
						c-1.186,0.297-0.686,2.125,0.496,1.824c13.6-3.453,27.447,4.605,40.405,7.818c11.524,2.854,22.688-1.932,33.515-5.285
						C353.564,139.637,353.07,137.812,351.906,138.176L351.906,138.176z"/>
				</g>
			</g>
			<g>
				<g>
					<path fill="#DB0D15" d="M284.642,138.699c22.044-4.574,37.415,17.395,59.127,13.605c1.2-0.209,0.688-2.031-0.501-1.822
						c-21.477,3.748-36.923-18.215-59.126-13.605C282.947,137.123,283.452,138.949,284.642,138.699L284.642,138.699z"/>
				</g>
			</g>
			<g>
				<g>
					<path fill="#DB0D15" d="M339.568,152.943c-22.975,6.855-44.039,6.094-63.137-9.672c-0.932-0.768-2.277,0.559-1.338,1.336
						c19.668,16.232,41.215,17.254,64.973,10.158C341.235,154.418,340.74,152.592,339.568,152.943L339.568,152.943z"/>
				</g>
			</g>
			<g>
				<g>
					<path fill="#DB0D15" d="M279.203,147.316c17.86,5.332,24.874,20.98,25.143,38.539c0.02,1.219,1.908,1.221,1.889,0
						c-0.279-18.445-7.887-34.795-26.525-40.359C278.538,145.146,278.039,146.969,279.203,147.316L279.203,147.316z"/>
				</g>
			</g>
			<g>
				<g>
					<path fill="#DB0D15" d="M307.004,185.041c-15.471-10.023-36.834-16.449-43.887-35.205c-0.43-1.131-2.254-0.639-1.822,0.5
						c7.293,19.404,28.742,25.959,44.752,36.334C307.076,187.338,308.023,185.703,307.004,185.041L307.004,185.041z"/>
				</g>
			</g>
			<g>
				<g>
					<path fill="#DB0D15" d="M259.075,150.752c12.907,15.467,10.895,37.268,2.262,54.299c-0.548,1.086,1.081,2.047,1.632,0.955
						c9.053-17.875,10.916-40.445-2.557-56.59C259.629,148.48,258.299,149.824,259.075,150.752L259.075,150.752z"/>
				</g>
			</g>
			<g>
				<g>
					<path fill="#DB0D15" d="M261.74,205.051c-8.121-17.486-27.056-32.346-22.035-53.506c0.286-1.184-1.538-1.688-1.82-0.502
						c-5.205,21.904,13.788,36.805,22.219,54.961C260.616,207.107,262.251,206.152,261.74,205.051L261.74,205.051z"/>
				</g>
			</g>
			<g>
				<g>
					<path fill="#DB0D15" d="M239.114,153.51c-5.199,19.863-14.972,38.383-35.11,46.123c-1.125,0.436-0.637,2.262,0.498,1.824
						c20.785-7.992,31.039-26.844,36.434-47.445C241.244,152.83,239.424,152.326,239.114,153.51L239.114,153.51z"/>
				</g>
			</g>
			<g>
				<g>
					<path fill="#DB0D15" d="M207.629,199.068c-5.295-19.264,7.907-37.57,23.021-48.195c0.991-0.695,0.048-2.336-0.948-1.633
						c-15.834,11.127-29.424,30.221-23.891,50.324C206.133,200.738,207.953,200.242,207.629,199.068L207.629,199.068z"/>
				</g>
			</g>
			<g>
				<g>
					<path fill="#DB0D15" d="M226.895,148.35c-7.108,11.988-19.545,19.828-30.486,27.967c-0.968,0.715-0.025,2.365,0.949,1.631
						c11.213-8.336,23.888-16.359,31.168-28.646C229.148,148.25,227.513,147.299,226.895,148.35L226.895,148.35z"/>
				</g>
			</g>
			<g>
				<g>
					<path fill="#DB0D15" d="M199.025,176.883c-1.573-4.465,5.795-12.043,8.229-14.941c4.228-5.033,9.113-10.133,14.773-13.541
						c1.043-0.625,0.096-2.264-0.949-1.635c-6.631,3.994-12.115,10.055-16.955,16.002c-2.672,3.289-8.605,9.83-6.92,14.617
						C197.604,178.521,199.432,178.037,199.025,176.883L199.025,176.883z"/>
				</g>
			</g>
			<g>
				<g>
					<path fill="#DB0D15" d="M218.838,147.904c-19.897,5.922-35.822,19.855-57.672,18.393c-1.218-0.08-1.215,1.809-0.002,1.885
						c22.105,1.482,37.975-12.443,58.17-18.455C220.5,149.379,220.004,147.559,218.838,147.904L218.838,147.904z"/>
				</g>
			</g>
			<g>
				<g>
					<path fill="#DB0D15" d="M161.982,167.717c12.211-15.906,29.627-34.223,50.957-35.213c1.215-0.057,1.219-1.941,0.002-1.885
						c-22.078,1.02-39.977,19.709-52.594,36.145C159.605,167.73,161.248,168.674,161.982,167.717L161.982,167.717z"/>
				</g>
			</g>
			<g>
				<g>
					<path fill="#DB0D15" d="M205.298,130.643c-25.687,7.703-48.126,10.832-74.651,4.855c-1.188-0.268-1.691,1.553-0.502,1.824
						c26.849,6.047,49.541,2.973,75.654-4.855C206.965,132.117,206.469,130.291,205.298,130.643L205.298,130.643z"/>
				</g>
			</g>
			<g>
				<g>
					<path fill="#DB0D15" d="M133.33,137.23c18.844-12.453,45.404-29.967,66.822-13.486c0.963,0.744,1.91-0.9,0.955-1.635
						c-21.992-16.914-49.344,0.676-68.727,13.486C131.367,136.264,132.314,137.9,133.33,137.23L133.33,137.23z"/>
				</g>
			</g>
			<g>
				<g>
					<path fill="#DB0D15" d="M200.883,120.781c-17.106-4.312-33.523-7.814-46.203-20.861c-7.07-7.277-12.818-15.283-22.752-18.627
						c-1.158-0.389-1.652,1.438-0.502,1.82c12.604,4.242,19.822,17.168,29.677,25.373c10.405,8.67,26.603,10.924,39.276,14.117
						C201.562,122.902,202.064,121.08,200.883,120.781L200.883,120.781z"/>
				</g>
			</g>
			<g>
				<g>
					<path fill="#DB0D15" d="M131.676,81.918c20.174-0.371,35.436-0.812,52.006,12.584c7.492,6.053,14.498,10.734,24.357,10.891
						c1.217,0.023,1.219-1.869,0.002-1.887c-16.104-0.258-25.18-14.736-38.93-20.854c-11.609-5.166-25.197-2.85-37.434-2.619
						C130.459,80.047,130.457,81.939,131.676,81.918L131.676,81.918z"/>
				</g>
			</g>
			<g>
				<g>
					<path fill="#DB0D15" d="M203.365,101.074c-7.336-1.459-13.228-5.957-19.479-9.783c-1.041-0.635-1.992,0.996-0.951,1.635
						c6.391,3.91,12.424,8.479,19.928,9.971C204.053,103.135,204.564,101.309,203.365,101.074L203.365,101.074z"/>
				</g>
			</g>
			<g>
				<g>
					<path fill="#DB0D15" d="M194.971,98.695c-7.99-5.814-15.234-12.717-19.352-21.852c-0.5-1.113-2.129-0.15-1.633,0.949
						c4.245,9.428,11.784,16.535,20.033,22.535C195.006,101.045,195.947,99.406,194.971,98.695L194.971,98.695z"/>
				</g>
			</g>
			<g>
				<g>
					<path fill="#DB0D15" d="M189.248,95.562c-1.455-7.529-6.043-13.557-11.316-18.91c-0.855-0.869-2.195,0.467-1.338,1.334
						c5.061,5.139,9.434,10.852,10.832,18.072C187.66,97.258,189.48,96.752,189.248,95.562L189.248,95.562z"/>
				</g>
			</g>
			<g>
				<g>
					<path fill="#DB0D15" d="M195.17,95.148c-6.03-7.115-13.097-13.182-19.699-19.732c-0.863-0.859-2.201,0.475-1.336,1.334
						c6.602,6.555,13.67,12.619,19.693,19.734C194.621,97.412,195.951,96.07,195.17,95.148L195.17,95.148z"/>
				</g>
			</g>
			<g>
				<g>
					<path fill="#DB0D15" d="M186.689,92.865c-7.385-11.035-14.848-21.781-19.583-34.285c-0.424-1.127-2.257-0.645-1.821,0.498
						c4.793,12.65,12.297,23.564,19.773,34.74C185.734,94.826,187.371,93.881,186.689,92.865L186.689,92.865z"/>
				</g>
			</g>
			<g>
				<g>
					<path fill="#DB0D15" d="M229.873,125.666c1.35-7.326,1.143-14.846,2.488-22.176c0.217-1.188-1.605-1.695-1.82-0.5
						c-1.345,7.33-1.139,14.846-2.487,22.174C227.836,126.354,229.656,126.863,229.873,125.666L229.873,125.666z"/>
				</g>
			</g>
			<g>
				<g>
					<path fill="#DB0D15" d="M228.314,105.035c-5.232,4.164-7.52,10.361-6.418,16.926c0.201,1.203,2.023,0.693,1.82-0.496
						c-0.989-5.934,1.262-11.375,5.934-15.09C230.604,105.617,229.26,104.287,228.314,105.035L228.314,105.035z"/>
				</g>
			</g>
			<g>
				<g>
					<path fill="#DB0D15" d="M223.736,135.025c0.006,0-0.395-11.066,3.434-15.227c-0.492-0.068-0.986-0.07-1.48-0.135
						c3.582,6.109,6.037,12.549,7.277,19.527c0.212,1.199,2.033,0.707,1.822-0.482c-1.271-7.154-3.798-13.693-7.467-19.939
						c-0.301-0.51-1.072-0.764-1.484-0.312c-4.234,4.602-3.979,10.52-3.988,16.566C221.846,138.047,223.733,138.049,223.736,135.025
						C223.736,135.025,223.733,138.049,223.736,135.025z"/>
				</g>
			</g>
			<g>
				<g>
					<path fill="#DB0D15" d="M228.658,140.282c0.009,0,0.431-1.966,2.351-7.966c-0.544,0-1.087,0-1.632,0
						c2.598,6,6.934,9.599,8.512,15.046c0.338,1.17,2.164,0.917,1.82-0.257c-1.627-5.645-6.016-9.777-8.699-14.898
						c-0.345-0.648-1.273-1.714-1.633-1.14c-2.093,3.311-2.6,7.199-2.605,9.199L228.658,140.282L228.658,140.282z"/>
				</g>
			</g>
			<g>
				<g>
					<path fill="#DB0D15" d="M237.287,140.286c0.004,0,0.2-7.97,2.349-11.97c-0.546,0-1.087,0-1.633,0
						c2.737,4,5.871,11.255,8.607,16.667c0.546,1.088,2.182,0.45,1.63-0.632c-2.735-5.422-5.871-10.455-8.605-15.867
						c-0.334-0.662-1.275-0.456-1.633,0.11c-2.328,3.672-2.598,9.676-2.604,11.676C235.395,140.271,237.287,140.286,237.287,140.286
						L237.287,140.286z"/>
				</g>
			</g>
			<g>
				<g>
					<path fill="#DB0D15" d="M243.419,136.764c1.208-3.297,3.478-5.752,5.921-8.195c-0.534-0.221-1.072-0.449-1.611-0.67
						c0.225,5.162,4.481,8.051,6.18,12.57c0.432,1.137,2.256,0.646,1.824-0.496c-1.598-4.258-5.902-7.283-6.117-12.072
						c-0.031-0.807-1.011-1.273-1.613-0.67c-2.693,2.699-5.076,5.402-6.404,9.035C241.178,137.41,243.002,137.906,243.419,136.764
						L243.419,136.764z"/>
				</g>
			</g>
			<g>
				<g>
					<path fill="#DB0D15" d="M253.309,134.359c0.194-3.482,2.016-6.086,3.575-9.084c-0.548,0-1.087,0-1.635-0.002
						c2.361,3.002,7.181,7.121,11.229,11c0.883,0.84,2.219-0.643,1.341-1.488c-3.887-3.713-8.672-5.762-10.935-10.975
						c-0.282-0.65-1.33-0.627-1.635-0.039c-1.727,3.342-3.621,6.605-3.826,10.457C251.355,135.445,253.247,135.576,253.309,134.359
						L253.309,134.359z"/>
				</g>
			</g>
			<g>
				<g>
					<path fill="#DB0D15" d="M263.168,129.145c0.061-2.338,0.688-4.592,0.811-6.92c0.133-2.553-0.934-4.951-2.154-7.109
						c-0.357,0.461-0.719,0.918-1.07,1.383c3.303,1.213,5.756,3.48,8.2,5.928c0.86,0.861,2.198-0.475,1.337-1.34
						c-2.699-2.701-5.4-5.064-9.033-6.408c-0.812-0.301-1.451,0.711-1.07,1.387c1.41,2.49,2.15,4.846,1.762,7.699
						c-0.248,1.809-0.627,3.551-0.666,5.379C261.247,130.359,263.139,130.361,263.168,129.145L263.168,129.145z"/>
				</g>
			</g>
			<g>
				<g>
					<path fill="#DB0D15" d="M266.606,114.924c-2.808-2.902-5.005-6.316-7.236-9.668c-0.355,0.465-0.714,0.922-1.065,1.387
						c4.158,1.062,8.241,2.348,12.31,3.705c1.157,0.393,1.655-1.432,0.501-1.818c-4.066-1.367-8.148-2.65-12.31-3.705
						c-0.765-0.197-1.55,0.666-1.069,1.383c2.316,3.484,4.614,7.037,7.529,10.055C266.115,117.141,267.455,115.799,266.606,114.924
						L266.606,114.924z"/>
				</g>
			</g>
			<g>
				<g>
					<path fill="#DB0D15" d="M258.555,103.555c-9.469,0.273-11.959,8.83-12.047,16.951c-0.016,1.219,1.87,1.221,1.885,0.002
						c0.08-6.961,1.797-14.822,10.16-15.068C259.77,105.41,259.773,103.516,258.555,103.555L258.555,103.555z"/>
				</g>
			</g>
			<g>
				<g>
					<path fill="#DB0D15" d="M248.687,114.635c-6.769-0.186-13.122-2.771-19.458-4.912c-1.154-0.393-1.65,1.432-0.502,1.82
						c6.511,2.201,13.004,4.789,19.958,4.977C249.902,116.553,249.904,114.664,248.687,114.635L248.687,114.635z"/>
				</g>
			</g>
			<g>
				<g>
					<path fill="#DB0D15" d="M236.079,110.639c0.061-3.098,1.419-4.271,4.241-5.248c1.145-0.395,0.652-2.221-0.499-1.82
						c-3.643,1.26-5.55,3.088-5.628,7.066C234.166,111.852,236.059,111.854,236.079,110.639L236.079,110.639z"/>
				</g>
			</g>
			<g>
				<g>
					<path fill="#DB0D15" d="M242.063,105.299c2.834,1.531,5.515,4.217,7.042,7.061c0.578,1.074,2.209,0.119,1.633-0.949
						c-1.681-3.123-4.607-6.061-7.723-7.744C241.943,103.088,240.986,104.717,242.063,105.299L242.063,105.299z"/>
				</g>
			</g>
			<g>
				<g>
					<path fill="#DB0D15" d="M245.549,121.062c-2.185,2.273-3.852,4.836-3.979,8.061c-0.051,1.217,1.843,1.217,1.889,0.002
						c0.105-2.715,1.6-4.822,3.428-6.721C247.732,121.527,246.395,120.189,245.549,121.062L245.549,121.062z"/>
				</g>
			</g>
			<g>
				<g>
					<path fill="#DB0D15" d="M245.898,154.316c0.008,0,0.105-6.54,2.205-8.532c2.828-2.68,7.079,2.419,8.355,4.302
						c0.682,0.996,2.322-0.324,1.639-1.332c-1.859-2.729-5.654-7.903-9.689-6.796c-1.524,0.416-2.953,3.851-3.607,5.187
						c-0.851,1.75-0.787,7.172-0.787,7.172C244.009,154.316,245.898,154.316,245.898,154.316L245.898,154.316z"/>
				</g>
			</g>
			<g>
				<g>
					<path fill="#DB0D15" d="M255.312,146.252c0,0,0.006-5.203,0.008-8.49c0,0.314,0.207,0.631-0.109,0.941
						c4.341,0.111,8.24,2.164,10.693,5.703c0.686,0.996,2.539,0.053,1.844-0.947c-2.84-4.109-6.662-6.516-11.692-6.641
						c-0.517-0.012-0.734,0.438-0.735,0.943C255.318,141.049,255.312,146.252,255.312,146.252
						C255.309,150.453,255.309,150.453,255.312,146.252C255.312,146.252,255.309,150.453,255.312,146.252z"/>
				</g>
			</g>
			<g>
				<g>
					<path fill="#DB0D15" d="M265.35,138.334c-1.553-1.764,0.406-4.854,1.387-6.383c-0.271,0.154-0.543,0.334-0.814,0.332
						c0.41,0.002,0.819,0.002,1.232,0.002c-0.271,0-0.55-0.18-0.818-0.334c0.896,1.635,1.995,2.9,3.777,3.535
						c1.664,0.582,3.563-0.072,5.18,0.611c1.109,0.467,2.076-1.141,0.955-1.613c-1.07-0.455-2.102-0.537-3.257-0.537
						c-2.392-0.01-3.823-0.629-5.022-2.816c-0.16-0.291-0.488-0.459-0.813-0.461c-0.507,0-1.25-0.148-1.71,0.123
						c-1.041,0.607-1.637,2.578-2.066,3.668c-0.695,1.756-0.645,3.758,0.633,5.207C264.818,140.584,266.154,139.244,265.35,138.334
						L265.35,138.334z"/>
				</g>
			</g>
			<g>
				<g>
					<path fill="#DB0D15" d="M270.553,132.846c0.133-3.314,1.152-6.516,1.24-9.854c-0.469,0.271-0.947,0.543-1.418,0.816
						c3.418,1.523,7.996,0.963,10.895,3.559c0.906,0.811,2.25-0.523,1.34-1.336c-3.177-2.836-7.604-2.213-11.281-3.855
						c-0.649-0.287-1.4,0.045-1.42,0.814c-0.092,3.338-1.117,6.537-1.24,9.854C268.617,134.062,270.511,134.061,270.553,132.846
						L270.553,132.846z"/>
				</g>
			</g>
			<g>
				<g>
					<path fill="#DB0D15" d="M276.598,124.982c-1.312-2.641-2.256-5.158-2.326-8.15c-0.156,0.273-0.848,0.549-1.004,0.818
						c3.312-2.072,8.074-2.326,10.074-2.33c0,0,0.002-1.891,0.002-1.885c-2-0.002-8.431-0.055-11.217,2.727
						c-0.865,0.863,0.203,3.41,0.43,4.467c0.404,1.861,1.43,3.613,2.273,5.305C275.377,127.027,277.139,126.07,276.598,124.982
						L276.598,124.982z"/>
				</g>
			</g>
			<g>
				<g>
					<path fill="#DB0D15" d="M276.266,114.787c-2.49-1.395-4.014-4.002-5.963-6.018c-0.221,0.537-0.445,1.078-0.668,1.613
						c3.839-0.15,7.008-2.109,10.337-3.812c1.087-0.559,0.13-2.188-0.955-1.637c-3.001,1.541-5.909,3.422-9.38,3.559
						c-0.826,0.035-1.256,1.01-0.672,1.613c2.08,2.152,3.684,4.822,6.347,6.312C276.377,117.014,277.332,115.385,276.266,114.787
						L276.266,114.787z"/>
				</g>
			</g>
			<g>
				<g>
					<path fill="#DB0D15" d="M272.578,107.391c-2.125-1.117-4.033-2.58-6.157-3.701c0.067,0.494,0.129,0.988,0.194,1.486
						c2.086-2.211,3.301-5.697,5.971-7.24c1.055-0.607,0.106-2.246-0.95-1.631c-2.919,1.682-4.118,5.16-6.358,7.529
						c-0.4,0.432-0.365,1.193,0.191,1.486c2.125,1.117,4.029,2.584,6.155,3.703C272.703,109.59,273.66,107.957,272.578,107.391
						L272.578,107.391z"/>
				</g>
			</g>
			<g>
				<g>
					<path fill="#DB0D15" d="M265.698,102.361c-7.729,1.055-9.027-6.492-7.453-12.396c0.318-1.178-1.506-1.68-1.819-0.502
						c-1.033,3.867-1.344,8.186,1,11.646c1.983,2.93,5.51,3.521,8.77,3.074C267.406,104.02,266.887,102.203,265.698,102.361
						L265.698,102.361z"/>
				</g>
			</g>
			<g>
				<g>
					<path fill="#DB0D15" d="M255.844,97.424c-4.156,1.199-7.073-2.439-8.781-5.732c-0.566-1.08-2.195-0.127-1.635,0.953
						c2.129,4.086,5.906,8.055,10.912,6.604C257.512,98.912,257.017,97.088,255.844,97.424L255.844,97.424z"/>
				</g>
			</g>
			<g>
				<g>
					<path fill="#DB0D15" d="M249.263,100.125c-1.505,1.17-4.827,0.766-6.569,0.643c-3.559-0.25-6.978-1.637-9.338-4.352
						c-0.803-0.922-2.132,0.42-1.338,1.33c2.762,3.18,6.588,4.477,10.674,4.91c2.347,0.25,5.918,0.355,7.908-1.191
						C251.562,100.715,250.211,99.387,249.263,100.125L249.263,100.125z"/>
				</g>
			</g>
			<g>
				<g>
					<path fill="#DB0D15" d="M237.364,102.336c-5.877,1.416-11.978,2.26-17.987,1.215c-1.189-0.211-1.703,1.609-0.5,1.82
						c6.353,1.115,12.764,0.285,18.986-1.213C239.045,103.873,238.547,102.049,237.364,102.336L237.364,102.336z"/>
				</g>
			</g>
			<g>
				<g>
					<path fill="#DB0D15" d="M206.799,114.02c2.716,0.109,4.824,1.594,6.721,3.428c0.875,0.846,2.217-0.49,1.34-1.338
						c-2.273-2.188-4.833-3.85-8.059-3.975C205.584,112.08,205.584,113.975,206.799,114.02L206.799,114.02z"/>
				</g>
			</g>
			<g>
				<g>
					<path fill="#DB0D15" d="M207.561,106.502c3.253,1.57,6.709,2.512,10.333,2.6c1.218,0.027,1.22-1.859,0.001-1.891
						c-3.281-0.078-6.432-0.918-9.381-2.342C207.424,104.344,206.463,105.971,207.561,106.502L207.561,106.502z"/>
				</g>
			</g>
			<g>
				<g>
					<path fill="#DB0D15" d="M209.838,102.662c2.598,2.449,6.025,3.713,8.615,6.162c0.381-0.496,0.766-0.988,1.146-1.482
						c-3.747-2.699-5.258-7.637-8.418-10.947c-0.842-0.883-2.182,0.451-1.339,1.332c3.315,3.48,4.832,8.381,8.805,11.246
						c0.88,0.631,1.913-0.758,1.146-1.482c-2.6-2.451-6.023-3.723-8.615-6.168C210.292,100.492,208.949,101.822,209.838,102.662
						L209.838,102.662z"/>
				</g>
			</g>
			<g>
				<g>
					<path fill="#DB0D15" d="M211.486,102.904c3.696,1.232,7.391,2.467,11.084,3.705c0.781,0.262,1.499-0.699,1.068-1.387
						c-1.979-3.146-3.772-6.732-6.201-9.557c1.25,1.457,6.9,4.197,9.837,5.924c0.815,0.475,1.778-0.477,1.296-1.291
						c-5.307-8.982-7.221-8.844,2.412-3.631c0.736,0.396,1.583-0.252,1.387-1.064c-0.414-1.738-1.332-7.016-2.004-8.541
						c-0.696-0.031-1.391-0.062-2.086-0.096c1.236,2.199,2.579,4.334,4.037,6.398c1.864,2.795,1.433,3.43,4.066,3.432
						c0.673,0.002,0.996-0.598,0.912-1.189c-2.33-16.021-1.211-6.799,0.643-0.732c0.332,1.082,1.73,0.768,1.854-0.246
						c1.103-8.957,0.767-16.314,1.812-1.232c0.07,1.045,1.541,1.311,1.855,0.248c2.287-7.707,0.623-13.383,0.613-2.4
						c0,0.518,0.425,0.02,0.941,0.02c0.412,0.002,0.82,0.002,1.229,0.002c0.316,0,0.672,0.748,0.82,0.457
						c2.251-4.502,1.94-5.369,1.936-0.01c-0.002,1.141,1.469,1.408,1.853,0.475c6.281-15.111,2.228-4.721,0.642,3.314
						c-0.207,1.033,1.143,1.73,1.729,0.785c1.078-1.789,2.203-3.527,3.375-5.262c-4.319,6.582,1.248-15.246-2.644,3.348
						c-0.229,1.107,1.086,1.572,1.729,0.736c10.317-13.447,5.554-6.943,2.067-0.943c-0.559,0.967,0.691,1.834,1.486,1.145
						c5.586-4.855,2.58-4.158-0.255,0.09c-0.591,0.885,0.794,1.969,1.481,1.146c3.04-3.641,4.195-7.123,2.116-0.916
						c-0.292,0.855,0.985,1.674,1.573,0.92c6.537-8.385,2.55-3.912-0.247,2.549c-0.482,1.111,0.916,1.961,1.63,0.953
						c2.941-4.143,3.528-8.16,1.971-1.955c-0.189,0.754,0.666,1.559,1.385,1.068c8.262-5.613,10.391-6.289,2.548,3.447
						c-0.769,0.951,0.379,2.098,1.337,1.336c3.346-2.67,3.356-5.988,0.888,0.312c-0.312,0.783,0.726,1.49,1.385,1.068
						c2.678-1.504,5.478-2.701,8.398-3.594c1.145-0.393,0.653-2.221-0.497-1.824c-2.668,0.918-9.027,4.787-4.006-0.883
						c0.818-0.928-0.4-2.088-1.34-1.34c-10.949,8.74-0.824,0.59-2.31,3.123c1.63-2.783,3.101-5.545,5.03-8.135
						c0.605-0.809-0.527-1.709-1.293-1.297c-0.959,0.521-10.926,7.814-7.331,1.289c0.507-0.93-0.724-1.938-1.486-1.146
						c-7.878,8.217-1.167,1.51,1.489-2.553c0.609-0.934-0.717-1.84-1.486-1.146c-3.77,3.396-5.887,8.52-3.344,0.914
						c0.297-0.865-0.968-1.646-1.58-0.918c-3.172,3.795-3.916,7.389,0.252,1.145c0.59-0.883-0.786-1.965-1.482-1.146
						c-6.703,7.871,0.143-1.469,1.486-3.783c0.539-0.924-0.722-1.914-1.482-1.146c-0.885,0.9-9.57,12.791-5.909,4.834
						c0.503-1.092-1.118-2.057-1.636-0.951c-5.479,11.734-2.002,0.949-0.732-6.666c0.199-1.189-1.422-1.674-1.821-0.502
						c-3.979,11.678-3.081,10.422-3.076,5.176c0.001-0.898-1.327-1.342-1.757-0.475c-1.152,2.307-2.32,4.621-3.502,6.918
						c0.355-3.373,0.467-6.754,0.336-10.145c0.002-1.236-1.779-1.193-1.885-0.002c-1.148,12.469-1.096,8.48-1.814-0.002
						c-0.103-1.234-1.744-1.195-1.887-0.002c-1.641,13.369-1.254,10.951-4.307,0.98c-0.299-0.98-1.99-0.85-1.855,0.246
						c0.018,0.152,0.265,12.611,1.546,12.613c-2.048-0.002-6.395-10.107-7.177-11.861c-0.502-1.113-2.123-0.152-1.635,0.949
						c5.393,12.184,0.419,9.314-6.104,4.861c-0.95-0.65-1.776,0.709-1.146,1.484c11.244,13.82,0.82,5.629-5.016,2.207
						c-0.965-0.568-1.826,0.691-1.146,1.482c7.295,8.465,8.85,10.523-1.551,7.047C210.832,100.695,210.335,102.52,211.486,102.904
						L211.486,102.904z"/>
				</g>
			</g>
			<g>
				<g>
					<path fill="#DB0D15" d="M276.36,106.312c-2.01,2.191-1.651,1.576-2.705,4.109c-0.369,0.873,0.739,1.344,1.385,1.07
						c4.784-2.047,5.661-3.17,2.55-0.533c-0.648,0.551-0.107,1.336,0.666,1.336c2.055,0.002,2.549,0.004,6.748,0.008l0,0
						c-4.199-0.004-4.693-0.006-6.748-0.008c-0.889,0-1.357,0.676-0.473,1.092c5.109,2.43,7.456,1.484,1.222,4.197
						c-0.737,0.324-0.538,1.422,0.224,1.564c4.766,0.67,4.439,0.787-0.979,0.523c-0.767,0-1.325,1.027-0.669,1.572
						c2.324,1.934,4.072,2.793,0.418,3.324c-0.916,0.129-0.789,1.299-0.227,1.719c10.496,7.895,3.305,4.988-0.514,4.434
						c-0.621-0.09-1.463,0.402-1.162,1.152c2.266,5.688,4.865,4.77,0.153,1.396c-0.745-0.535-1.513,0.34-1.388,1.064
						c0.308,2.281,0.764,4.535,1.359,6.754c0.254,0.713,0.375,0.271,0.363-1.322c-0.596-0.797-2.1-0.367-1.729,0.723
						c1.045,3.078,2.135,3.723-2.115,0.316c-0.607-0.484-1.629-0.23-1.615,0.668c0.075,5.533,2.353,12.516-4.398,0.748
						c-0.615-1.07-2.135-0.133-1.631,0.953c3.7,8.084,5.514,6.711-0.988,0.086c-0.766-0.779-1.996,0.211-1.482,1.143
						c3.178,5.805,6.711,8.084,0.252,2.551c-0.842-0.721-1.928,0.164-1.486,1.143c4.6,10.223,1.009,2.775-4.869-1.297
						c-0.656-0.457-1.676,0.303-1.389,1.066c2.795,7.387,6.254,7.588-0.882,0.312c-0.724-0.736-1.71,0.045-1.579,0.92
						c2.146,14.66-0.449,6.045-4.436,0.5c-0.576-0.803-2.164-0.336-1.726,0.725c3.735,9.057,3.75,6.287-2.118,0.309
						c-0.625-0.637-1.534-0.111-1.613,0.67c-1.133,10.928-0.941,5.982-3.073-0.256c-0.286-0.857-1.565-0.945-1.821-0.002
						c-1.753,6.479-1.989,15.939-3.076,0.25c-0.051-0.799-0.994-1.285-1.611-0.674c-7.166,7.166-3.234,4.621,0.256-1.312
						c0.562-0.961-0.693-1.844-1.482-1.148c-6.93,6.123-6.027,7.02,0.108,0.105c0.56-0.633,0.03-1.975-0.919-1.582
						c-4.71,3-5.699,2.758-2.977-0.738c0.793-0.58,0.35-2.16-0.723-1.725c-8.256,3.354-1.942,1.031,0.726-0.738
						c0.901-0.6,0.341-1.965-0.723-1.727c-8.562,1.891-8.802,3.744-2.771-2.119c0.669-0.654-0.004-1.857-0.917-1.58
						c-8.819,2.66-11.735,5.455-4.009-2.125c0.653-0.641-0.001-1.881-0.917-1.58c-5.783,1.92-3.562,2.639,0.725,0.498
						c1.045-0.525,0.242-1.859-0.723-1.725c-3.688,0.506-7.777,2.324-5.244-0.893c0.305-0.387,0.421-0.963,0.002-1.338
						c-3.416-3.061-2.42-0.727,1.24-4.824c0.531-0.6,0.193-1.609-0.666-1.611c-4.139-0.004-2.014,0.35,0.475-0.699
						c0.768-0.322,0.518-1.562-0.225-1.729c-5.674-1.75-7.072-1.965-4.193-0.646c1.205,0.18,1.643-1.363,0.501-1.824
						c-7.065-2.84,2.396-0.605,4.675-0.604c1.148,0,1.18-1.465,0.254-1.855c-8.834-3.717-10.908-2.748-3.689-5.572
						c0.908-0.357,0.881-1.459,0.002-1.822c-1.748-0.109-0.682,0.09,3.195,0.592c1.015,0.178,1.697-1.141,0.727-1.723
						c-6.536-3.934,3.027-1.699,6.918-1.93c0.725-0.043,1.163-0.771,0.816-1.422c-1.758-3.326-3.463-5.014-6.297-7.588
						c-0.902-0.82-2.244,0.514-1.34,1.336c7.213,6.541-1.558,6.387-6.729,5.771c-0.98-0.119-1.225,1.312-0.479,1.762
						c4.179,2.512,4.371,1.553-0.51,0.73c-0.856-0.145-1.68,0.883-0.92,1.58c3.748,3.441,2.372,2.053-3.279,3.35
						c-1.016,0.23-0.783,1.492-0.002,1.82c11.785,4.957,7.176,3.078,0.248,3.072c-1.138,0-1.195,1.477-0.252,1.852
						c3.412,1.369,5.454-0.166-0.001,0.645c-0.972,0.145-0.841,1.594-0.002,1.824c3.435,0.949,6.659,1.01,3.466,3.201
						c-0.746,0.52-0.514,1.76,0.477,1.762c6.527,0.01,2.205,1.34-0.48,3.172c-0.644,0.438-0.619,1.514,0.224,1.725
						c3.238,0.812,1.083,2.857-0.423,4.576c-0.59,0.678-0.039,1.879,0.917,1.582c1.651-0.504,11.836-4.912,2.971-0.49
						c-0.957,0.479-0.29,2.066,0.728,1.727c5.089-1.693,7.062-3.461-1.959,3.197c-0.836,0.615-0.375,2.006,0.723,1.729
						c4.579-1.146,17.285-7.35,5.436,0.746c-0.889,0.6-0.348,1.959,0.725,1.727c4.947-1.094,9.516-3.621,2.965,0.734
						c-0.891,0.6-0.342,1.984,0.723,1.73c3.997-0.943,4.249-3.205,0.166,2.311c-0.494,0.662,0.318,1.641,1.066,1.385
						c9.412-3.211,6.105-1.799,1.543,3.355c-0.809,0.91,0.418,2.143,1.334,1.336c6.74-5.963,6.365-5.773,0.977,1.324
						c-0.666,0.871,0.743,1.883,1.48,1.143c6.416-6.396,6.301-4.064,7.011,4.262c0.089,1.061,1.506,1.303,1.854,0.256
						c1.922-5.805,1.924-11.295,5.576-2.459c0.41,0.992,1.74,0.85,1.855-0.25c0.887-8.539,1.18-9.023,6.86-0.746
						c0.573,0.836,2.095,0.346,1.729-0.723c-4.018-11.758-0.613-2.502,1.967,1.957c0.576,0.996,1.873,0.275,1.727-0.727
						c-1.5-10.234-1.592-11.141,4.436-2.967c0.705,0.959,2.289,0.109,1.637-0.949c-5.301-8.551,3.463-0.229,4.672,1.148
						c0.727,0.82,2.014-0.232,1.488-1.143c-3.305-5.754-6.221-10.285-0.253-2.551c0.716,0.926,1.862-0.252,1.485-1.143
						c-2.126-5.025-7.971-12.211,0.829-0.279c0.728,0.98,2.147,0.166,1.636-0.949c-3.74-8.16-6.334-6.801,0.982-0.09
						c0.68,0.623,1.848,0.021,1.582-0.918c-2.293-8.203-1.318-7.746,3.35-4.004c0.666,0.535,1.92,0.07,1.582-0.918
						c-0.799-2.348-5.357-5.561-0.35-1.545c0.768,0.611,2.184-0.217,1.486-1.141c-4.139-4.998-4.682-6.732-1.626-5.213
						c0.549,0.869,2.14,0.312,1.729-0.723c-2.458-6.15-2.562-4.697,3.766-3.764c0.964,0.139,1.521-0.809,0.92-1.58
						c-4.998-6.408-6.105-4.977-0.412-5.814c0.686-0.098,0.932-1.15,0.42-1.576c-3.152-2.621-3.916-3.322,1.801-3.316
						c0.912,0,1.326-1.311,0.476-1.758c-4.688-2.467-3.132-1.975,0.198-4.676c0.522-0.422-0.271-1.48-0.953-1.58
						c-4.35-0.639-9.25-0.617-3.25-0.613l0.002-1.889c-6-0.006-2.463,0.484,0.125-3.506c0.569-0.885-0.234-1.631-1.021-1.293
						c-1.732,2.051-3.27,2.541-4.885,1.48C278.385,106.752,277.188,105.41,276.36,106.312L276.36,106.312z"/>
				</g>
			</g>
			<g>
				<g>
					<path fill="#DB0D15" d="M211.399,123.188c1.308-4.775,3.8-8.164,8.195-10.52c-0.464-0.188-0.923-0.039-1.388-0.229
						c2.312,6.268,2.418,12.803,2.414,19.803c0,0,1.893,0.002,1.891,0.002c-0.001-7-0.117-13.883-2.48-20.305
						c-0.213-0.582-0.816-1.045-1.386-0.736c-4.806,2.578-7.64,6.342-9.067,11.566C209.256,123.945,211.075,124.365,211.399,123.188
						L211.399,123.188z"/>
				</g>
			</g>
			<g>
				<g>
					<path fill="#DB0D15" d="M219.424,128.85c-1.172,6.775-0.096,13.545,1.217,20.219c0.23,1.197,2.055,0.691,1.822-0.5
						c-1.242-6.322-2.324-12.791-1.216-19.213C221.451,128.166,219.631,127.652,219.424,128.85L219.424,128.85z"/>
				</g>
			</g>
			<g>
				<g>
					<path fill="#DB0D15" d="M318.418,199.02c1.589-3.547,1.359-3.686,1.369-13.686c0.004,0-1.887-0.002-1.887-0.002
						c-0.012,10,0.312,8.488-1.113,11.672C316.293,198.102,317.92,200.123,318.418,199.02L318.418,199.02z"/>
				</g>
			</g>
			<g>
				<g>
					<path fill="#DB0D15" d="M288.85,301.402c-2.449-7.205-5.316-13.834-9.934-19.949c-0.432,0.43-0.863,0.863-1.291,1.289
						c3.326,2.467,7.455,2.965,11.082,4.943c0.722,0.389,1.611-0.248,1.387-1.066c-1.173-4.307-1.645-8.58-3.78-12.553
						c-0.497,0.381-0.985,0.764-1.483,1.143c2.145,2.404,4.006,4.998,6.148,7.4c0.572,0.639,1.592,0.111,1.611-0.666
						c0.184-6.311,0.854-12.449-0.014-18.73c-0.607,0.168-1.217,0.33-1.82,0.496c1.182,4.533,2.504,9.029,3.688,13.559
						c0.23,0.893,1.598,0.916,1.822,0.002c1.288-5.326,2.42-10.684,3.709-16.012c-0.621-0.084-1.238-0.17-1.854-0.256
						c0.207,4.955,1.004,9.838,1.217,14.787c0.045,1.064,1.545,1.297,1.854,0.254c1.384-4.623,4.021-8.924,5.401-13.549
						c-0.621-0.082-1.389-0.17-1.389-0.248c-0.006,4.926-0.01,9.854-0.015,14.779c-0.001,1.131,1.019,1.203,1.39,0.254
						c1.102-2.799,1.414-5.73,2.243-8.625c-0.623-0.078-1.353-0.166-1.972-0.248c-0.02,5.74-0.125,11.346-1.269,16.996
						c-0.207,0.996,1.19,1.736,1.692,0.73c0.9-1.771,3.068-5.023,3.098-6.387c-0.129,5.59-1.65,10.646-4.759,15.285
						c-0.682,1.018,0.956,1.959,1.63,0.953c3.879-5.801,4.91-12.076,5.068-18.951c0.021-0.766-1.084-1.334-1.611-0.67
						c-2.11,2.668-3.562,5.783-5.084,8.814c0.572,0.24,1.152,0.486,1.723,0.729c1.18-5.797,1.27-11.6,1.283-17.498
						c0.006-1.076-1.562-1.277-1.855-0.254c-0.824,2.887-1.848,5.82-2.949,8.623c0.617,0.08,1.372,0.168,1.372,0.248
						c0.005-4.926,0.009-9.854,0.015-14.779c0-1.084-1.07-1.271-1.373-0.254c-1.387,4.621-3.32,8.924-4.701,13.549
						c0.619,0.08,1.355,0.168,1.973,0.25c-0.207-4.949-0.942-9.832-1.154-14.787c-0.043-1.035-1.566-2.051-1.832-0.98
						c-1.285,5.326-2.383,10.289-3.672,15.287c0.605,0,1.213,0.002,1.822,0.002c-1.18-5.002-2.508-8.301-3.691-12.826
						c-0.313-1.217-1.984-0.312-1.82,0.861c0.709,5.143,0.354,10.201,0.038,15.328c0.013-0.26-4.118-4.32-4.628-4.893
						c-0.737-0.824-1.977,0.273-1.484,1.193c0.49,0.908,2.768,9.848,3.048,10c-2.978-1.617-6.352-1.801-9.152-3.877
						c-0.74-0.553-1.854,0.551-1.296,1.297c4.514,5.977,7.34,12.43,9.744,19.5C287.416,303.049,289.24,302.561,288.85,301.402
						L288.85,301.402z"/>
				</g>
			</g>
			<g>
				<g>
					<path fill="#DB0D15" d="M303.631,303.148c2.471-6.16,4.937-12.316,7.41-18.475c0.457-1.133-1.371-1.621-1.82-0.502
						c-2.475,6.154-4.943,12.316-7.412,18.475C301.354,303.777,303.186,304.266,303.631,303.148L303.631,303.148z"/>
				</g>
			</g>
			<g>
				<g>
					<path fill="#DB0D15" d="M307.326,301.918c2.475-7.391,4.941-14.775,7.414-22.168c0.388-1.152-1.437-1.652-1.82-0.502
						c-2.471,7.389-4.94,14.781-7.41,22.17C305.121,302.576,306.945,303.072,307.326,301.918L307.326,301.918z"/>
				</g>
			</g>
			<g>
				<g>
					<path fill="#DB0D15" d="M309.699,300.914c3.505-5.957,6.165-12.289,8.734-18.697c0.457-1.133-1.373-1.621-1.822-0.504
						c-2.506,6.258-5.121,12.424-8.543,18.25C307.447,301.016,309.083,301.967,309.699,300.914L309.699,300.914z"/>
				</g>
			</g>
			<g>
				<g>
					<path fill="#DB0D15" d="M310.928,304.615c3.928-6.631,7.277-13.584,7.541-21.414c0.038-1.219-1.851-1.217-1.891-0.002
						c-0.251,7.492-3.531,14.129-7.281,20.459C308.67,304.709,310.305,305.662,310.928,304.615L310.928,304.615z"/>
				</g>
			</g>
			<g>
				<g>
					<path fill="#DB0D15" d="M312.01,303.57c5.079-5.27,7.617-11.76,8.885-18.889c0.213-1.188-1.607-1.695-1.822-0.502
						c-1.209,6.797-3.539,13.016-8.396,18.057C309.832,303.113,311.165,304.449,312.01,303.57L312.01,303.57z"/>
				</g>
			</g>
			<g>
				<g>
					<path fill="#DB0D15" d="M306.984,296.074c-3.887,3.682-8.732,4.371-13.868,3.438c-1.188-0.215-1.7,1.605-0.502,1.824
						c5.817,1.055,11.3,0.248,15.706-3.924C309.209,296.57,307.869,295.238,306.984,296.074L306.984,296.074z"/>
				</g>
			</g>
			<g>
				<g>
					<path fill="#DB0D15" d="M301.631,302.318c0,0-8.402-0.008-12.602-0.014c-4.202-0.004-4.202-0.004,0,0
						C293.229,302.311,297.432,302.314,301.631,302.318L301.631,302.318L301.631,302.318z"/>
				</g>
			</g>
			<g>
				<g>
					<path fill="#DB0D15" d="M291.166,302.596c0,0,9.1-0.107,12.801-1.25c1.16-0.359-0.066-2.182-1.232-1.824
						c-3.547,1.098-7.566,1.191-11.566,1.189L291.166,302.596L291.166,302.596z"/>
				</g>
			</g>
			<g>
				<g>
					<path fill="#DB0D15" d="M298.26,309.869c2.822-1.359,5.812-2.33,8.631-3.688c1.1-0.529,0.141-2.162-0.955-1.635
						c-2.82,1.361-5.807,2.328-8.626,3.691C296.209,308.764,297.168,310.396,298.26,309.869L298.26,309.869z"/>
				</g>
			</g>
			<g>
				<g>
					<path fill="#DB0D15" d="M298.029,313.66c5.579-1.461,10.4-4.279,13.979-8.855c0.746-0.943-0.584-2.293-1.334-1.334
						c-3.398,4.338-7.848,6.982-13.141,8.367C296.355,312.145,296.854,313.969,298.029,313.66L298.029,313.66z"/>
				</g>
			</g>
			<g>
				<g>
					<path fill="#DB0D15" d="M302.959,313.664c4.486-1.533,8.865-3.877,11.662-7.816c0.709-0.998-0.932-1.938-1.631-0.955
						c-2.49,3.504-6.555,5.586-10.529,6.951C301.314,312.236,301.806,314.061,302.959,313.664L302.959,313.664z"/>
				</g>
			</g>
			<g>
				<g>
					<path fill="#DB0D15" d="M307.07,318.355c5.215-5.283,9.84-11.096,13.711-17.43c0.641-1.041-0.992-1.99-1.629-0.953
						c-3.791,6.201-8.314,11.879-13.416,17.045C304.877,317.887,306.215,319.227,307.07,318.355L307.07,318.355z"/>
				</g>
			</g>
			<g>
				<g>
					<path fill="#DB0D15" d="M163.143,341.938c-1.449-7.352-4.547-14.057-7.373-20.949c-0.574,0.246-1.15,0.486-1.729,0.729
						c2.643,4.67,6.703,8.043,9.85,12.326c0.526,0.721,1.762,0.539,1.756-0.475c-0.004-4.688-0.041-9.254-1.248-13.805
						c-0.578,0.242-1.154,0.482-1.727,0.723c1.357,2.752,2.57,5.518,3.592,8.406c0.351,0.998,1.81,2.396,1.852,1.303
						c0.174-4.543,1.031-8.002,1.243-12.002c-0.628,0-1.261,0-1.889-0.002c0.286,4,1.456,4.379,2.493,7.324
						c0.352,0.996,1.814,0.07,1.854-1.021c0.193-4.613-0.057-9.316,1.321-13.684c-0.618-0.084-2.978-0.566-2.978-0.646
						c-0.004,3.285-0.007,6.572-0.01,9.857c-0.001,0.9,2.455,1.346,2.881,0.475c1.482-3.004,2.937-5.732,3.162-9.09
						c-0.614,0.076-0.959,0.164-1.569,0.246c0.856,2.83,1.318,5.438,1.329,8.375c0.004,1.131,1.543,1.193,1.922,0.25
						c0.969-2.428,1.547-4.959,2.505-7.389c-0.606-0.17-1.195-0.334-1.802-0.502c-0.83,4.506-0.408,9.041-1.23,13.551
						c0.604,0.17,1.212,0.334,1.818,0.502c0.299-1.68,0.951-3.244,1.236-4.922c0.209-1.191-1.605-1.703-1.818-0.508
						c-0.79,4.504-0.244,9.096-1.24,13.551c-0.224,1.004,1.226,1.729,1.729,0.729c1.232-2.463,2.469-4.924,3.703-7.389
						c-0.586-0.16-1.174-0.316-1.758-0.479c-0.266,5.096-2.061,8.912-4.818,13.072c-0.671,1.02,0.965,1.967,1.635,0.955
						c2.974-4.492,4.791-8.592,5.068-14.025c0.048-0.924-1.342-1.318-1.76-0.475c-1.231,2.463-2.468,4.922-3.701,7.385
						c0.572,0.244,1.152,0.486,1.727,0.729c1-4.473,0.444-9.02,1.241-13.545c-0.604-0.172-1.212-0.338-1.819-0.508
						c-0.295,1.686-0.945,3.248-1.234,4.928c-0.209,1.191,1.6,1.705,1.821,0.502c0.826-4.508,0.414-9.041,1.241-13.551
						c0.223-1.207-1.375-1.629-1.819-0.502c-0.964,2.432-1.507,4.959-2.472,7.387c0.617,0.086,1.236,0.172,1.854,0.254
						c-0.015-3.186-0.328-5.828-1.258-8.873c-0.316-1.051-1.782-0.805-1.854,0.25c-0.207,3.074,2.425,5.426,1.091,8.143
						c0.586,0.164,5.19,0.324,5.19,0.484c0.003-3.283,0.006-6.572,0.01-9.857c0-1.084-4.973-1.266-5.289-0.254
						c-1.436,4.561-4.031,9.018-4.225,13.797c0.617-0.08,0.377-0.168,0.994-0.246c-0.965-2.754-2.583-5.441-2.852-8.377
						c-0.107-1.203-2.041-1.236-2.1-0.002c-0.217,4.539-1.178,9.006-1.35,13.551c0.611-0.08,1.186-0.166,1.799-0.246
						c-1.08-3.059-2.371-5.957-3.807-8.859c-0.488-0.98-2.01-0.287-1.74,0.727c1.158,4.389,1.166,8.807,1.178,13.303
						c0.582-0.156,1.174-0.314,1.754-0.473c-3.129-4.277-7.209-7.67-9.844-12.326c-0.52-0.914-2.145-0.291-1.732,0.725
						c2.826,6.896,5.925,13.592,7.375,20.945C161.561,343.639,163.377,343.129,163.143,341.938L163.143,341.938z"/>
				</g>
			</g>
			<g>
				<g>
					<path fill="#DB0D15" d="M166.172,350.498c8.408-3.066,12.998-10.93,15.465-19.131c0.354-1.164-1.471-1.664-1.824-0.502
						c-2.254,7.498-6.396,14.984-14.139,17.812C164.541,349.092,165.027,350.92,166.172,350.498L166.172,350.498z"/>
				</g>
			</g>
			<g>
				<g>
					<path fill="#DB0D15" d="M175.361,352.531c3.604-7.199,7.216-14.42,8.738-22.391c0.227-1.189-1.595-1.699-1.822-0.504
						c-1.486,7.812-5.014,14.889-8.547,21.941C173.188,352.666,174.814,353.625,175.361,352.531L175.361,352.531z"/>
				</g>
			</g>
			<g>
				<g>
					<path fill="#DB0D15" d="M179.058,350.078c4.22-5.91,6.151-12.975,6.306-20.186c0.026-1.221-1.863-1.223-1.889-0.002
						c-0.146,6.91-2.016,13.574-6.047,19.23C176.717,350.115,178.357,351.059,179.058,350.078L179.058,350.078z"/>
				</g>
			</g>
			<g>
				<g>
					<path fill="#DB0D15" d="M182.754,350.082c2.632-5.525,3.84-11.51,5.041-17.475c0.239-1.189-1.582-1.693-1.823-0.5
						c-1.169,5.787-2.292,11.652-4.851,17.018C180.602,350.223,182.229,351.18,182.754,350.082L182.754,350.082z"/>
				</g>
			</g>
			<g>
				<g>
					<path fill="#DB0D15" d="M183.84,349.039c2.16-2.246,3.689-4.803,5.086-7.578c0.541-1.09-1.086-2.047-1.635-0.955
						c-1.318,2.633-2.727,5.057-4.789,7.193C181.656,348.576,182.994,349.914,183.84,349.039L183.84,349.039z"/>
				</g>
			</g>
			<g>
				<g>
					<path fill="#DB0D15" d="M155.771,222.203c-3.721-6.783-4.809-14.426-6.051-21.955c-0.573,0.238-1.151,0.482-1.725,0.723
						c2.121,4.996,4.967,8.703,8.762,12.523c0.668,0.668,1.834-0.01,1.58-0.92c-1.123-4.053-1.33-8.268-2.455-12.32
						c-0.387,0.385-0.773,0.775-1.161,1.158c1.622,0.65,2.653,2.678,3.036,4.271c0.257,1.08,1.795,0.582,1.854-0.441
						c0.201-3.338,0.973-7.057,1.239-10.057c-0.626,0-1.259,0-1.889-0.002c0.263,3,1.03,6.721,1.222,10.059
						c0.062,1.094,1.48,1.342,1.855,0.346c1.57-4.17,3.682-7.969,4.941-12.264c-0.619-0.086-1.237-0.145-1.854-0.229
						c-0.018,2.92-0.092,5.629-1.209,8.383c-0.41,0.998,1.247,1.688,1.727,0.736c1.235-2.459,2.471-4.924,3.701-7.387
						c-0.572-0.242-1.15-0.484-1.725-0.727c-1.145,5.293-1.334,10.717-2.479,16.016c-0.227,1.039,1.141,1.645,1.727,0.723
						c2.766-4.342,4.854-8.809,6.266-13.768c-0.604-0.168-1.215-0.332-1.82-0.5c-1.131,6.227-1.561,12.477-3.713,18.475
						c-0.418,1.164,1.375,1.605,1.82,0.502c1.249-3.078,3.211-5.547,4.846-8.395c0.621-1.08-0.932-1.922-1.635-0.955
						c-2.117,2.914-3.955,5.928-5.6,9.129c-1.035,2.027-3.363,5.617-3.098,7.998c0.066,0.609,0.547,1.072,1.195,0.912
						c1.472-0.367,1.289-2.523,2.619-3.197c1.088-0.555,0.137-2.184-0.949-1.633c-0.922,0.467-1.848,2.926-2.172,3.008
						c0.402,0.305,0.799,0.609,1.195,0.912c-0.243-2.184,2.609-6.582,3.662-8.631c1.357-2.658,3.025-5.133,4.781-7.543
						c-0.548-0.316-1.089-0.635-1.635-0.955c-1.711,2.99-3.73,5.635-5.031,8.848c0.605,0.17,1.213,0.334,1.82,0.502
						c2.155-6,2.588-12.242,3.713-18.477c0.215-1.178-1.484-1.688-1.82-0.5c-1.361,4.779-3.414,9.135-6.074,13.316
						c0.572,0.244,1.15,0.486,1.725,0.729c1.146-5.289,1.336-10.719,2.477-16.014c0.217-1-1.227-1.73-1.727-0.727
						c-1.232,2.463-2.465,4.924-3.701,7.389c0.572,0.244,1.148,0.484,1.725,0.727c1.191-2.934,1.26-5.719,1.273-8.873
						c0.012-1.076-1.552-1.268-1.852-0.248c-1.26,4.275-3.377,8.154-4.941,12.312c0.619,0.08,1.236,0.168,1.854,0.254
						c-0.191-3.326-0.963-6.549-1.223-9.863c-0.094-1.215-1.793-1.217-1.889-0.002c-0.262,3.314-1.043,6.535-1.235,9.861
						c0.614-0.084,1.231-0.172,1.854-0.252c-0.547-2.301-2.113-4.691-4.359-5.592c-0.688-0.271-1.336,0.527-1.162,1.158
						c1.125,4.059,1.33,8.271,2.457,12.326c0.525-0.303,1.055-0.613,1.58-0.92c-3.643-3.66-6.438-7.352-8.467-12.133
						c-0.451-1.061-1.887-0.244-1.729,0.723c1.269,7.707,2.436,15.48,6.234,22.41C154.718,224.223,156.354,223.271,155.771,222.203
						L155.771,222.203z"/>
				</g>
			</g>
			<g>
				<g>
					<path fill="#DB0D15" d="M164.245,227.051c5.224-4.102,8.677-9.969,10.112-16.426c0.264-1.184-1.561-1.693-1.82-0.502
						c-1.377,6.176-4.635,11.672-9.631,15.59C161.949,226.465,163.296,227.791,164.245,227.051L164.245,227.051z"/>
				</g>
			</g>
			<g>
				<g>
					<path fill="#DB0D15" d="M166.512,228.434c4.319-2.941,7.799-6.773,10.207-11.42c0.557-1.08-1.07-2.037-1.63-0.953
						c-2.259,4.354-5.474,7.977-9.526,10.734C164.562,227.479,165.503,229.119,166.512,228.434L166.512,228.434z"/>
				</g>
			</g>
			<g>
				<g>
					<path fill="#DB0D15" d="M150.785,221.025c5.641,3.965,12.715,4.912,19.198,2.578c1.136-0.408,0.649-2.234-0.499-1.822
						c-6.064,2.182-12.477,1.312-17.746-2.387C150.74,218.693,149.793,220.334,150.785,221.025L150.785,221.025z"/>
				</g>
			</g>
			<g>
				<g>
					<path fill="#DB0D15" d="M150.779,225.957c5.486,3.961,10.985,4.588,16.965,1.246c1.07-0.596,0.113-2.227-0.949-1.633
						c-5.401,3.016-10.154,2.297-15.061-1.246C150.749,223.609,149.801,225.248,150.779,225.957L150.779,225.957z"/>
				</g>
			</g>
			<g>
				<g>
					<path fill="#DB0D15" d="M152.234,229.748c5.652,1.309,11.427,1.139,16.74-1.312c1.109-0.51,0.148-2.146-0.949-1.637
						c-4.836,2.236-10.168,2.314-15.288,1.127C151.551,227.652,151.045,229.475,152.234,229.748L152.234,229.748z"/>
				</g>
			</g>
			<g>
				<g>
					<path fill="#DB0D15" d="M158.893,233.449c4.992-1.326,9.076-4.027,12.742-7.625c0.871-0.855-0.465-2.188-1.338-1.334
						c-3.441,3.375-7.213,5.887-11.902,7.135C157.213,231.938,157.715,233.762,158.893,233.449L158.893,233.449z"/>
				</g>
			</g>
			<g>
				<g>
					<path fill="#DB0D15" d="M240.631,222.092c-1.008-1.004-1.688-1.5-3.129-1.512c-1.219-0.016-1.221,1.879-0.002,1.889
						c0.887,0.008,1.173,0.342,1.791,0.957C240.158,224.285,241.493,222.953,240.631,222.092L240.631,222.092z"/>
				</g>
			</g>
			<g>
				<g>
					<path fill="#DB0D15" d="M240.779,222.281c-2.514-4.729-5.697-8.754-6.023-14.312c-0.066-1.209-1.945-1.225-1.886-0.002
						c0.181,3.73,1.044,7.361,1.224,11.09c0.049,1.047,1.57,1.314,1.854,0.254c1.448-5.395,3.449-10.645,3.742-16.266
						c-0.534,0.219-1.072,0.445-1.609,0.664c0.819,0.822,1.636,1.648,2.458,2.469c0.545,0.547,1.325-1.328,1.58-1.967
						c0.967-2.43,1.514-5.947,2.475-8.947c-0.607,0-1.213,0-1.822-0.002c0.478,3.002,1.01,5.475,1.197,7.469
						c0.09,1.023,1.543,2.105,1.852,1.025c0.934-3.264,2.137-6.301,3.381-9.465c-0.616-0.086-0.934,0.219-0.934,0.137
						c-0.004,4.93-0.01,9.859-0.014,14.785c-0.001,0.918,0.393,1.324,0.844,0.475c1.564-2.914,2.914-5.697,4.482-8.619
						c-0.588-0.156-1.404-0.314-1.992-0.473c-0.01,3.312-0.372,6.408-1.323,9.6c-0.284,0.979,0.834,1.479,1.521,0.92
						c1.84-1.494,3.852-2.484,5.947-3.541c-0.438-0.434-0.879-0.863-1.303-1.297c-2.586,5.135-5.273,10.121-8.648,14.779
						c-0.721,0.988,0.918,1.934,1.627,0.955c3.375-4.658,6.062-9.646,8.637-14.779c0.432-0.857-0.434-1.729-1.293-1.293
						c-2.256,1.139-4.396,2.248-6.357,3.836c0.526,0.311,1.055,0.613,1.58,0.922c1.008-3.398,1.262-6.572,1.271-10.102
						c0.006-0.92-1.305-1.318-1.76-0.48c-1.564,2.922-3.395,5.697-4.967,8.617c0.586,0.16,1.734,0.32,1.734,0.48
						c0.004-4.926,0.01-9.855,0.014-14.785c0.002-1.131-1.449-1.197-1.826-0.25c-1.252,3.16-1.527,6.592-2.457,9.852
						c0.623,0.086,1.248,0.172,1.867,0.254c-0.205-2.17-0.739-4.299-1.264-6.412c-0.24-0.988-1.5-0.809-1.816-0.002
						c-0.971,2.434-1.509,4.959-2.471,7.389c0.525-0.139,1.053-0.279,1.575-0.416c-0.819-0.82-1.64-1.643-2.458-2.465
						c-0.606-0.609-1.568-0.139-1.613,0.666c-0.281,5.449-2.274,10.541-3.68,15.76c0.621,0.086,1.237,1.316,1.856,1.396
						c-0.185-3.727-1.042-7.943-1.228-9.943c-0.625-0.002-1.258-0.002-1.886-0.002c0.35,2,3.559,9.008,6.274,14.119
						C239.716,225.455,241.352,223.355,240.779,222.281L240.779,222.281z"/>
				</g>
			</g>
			<g>
				<g>
					<path fill="#DB0D15" d="M236.012,226.133c6.442,1.129,12.604,0.021,17.98-3.777c0.986-0.691,0.048-2.336-0.953-1.633
						c-4.953,3.498-10.574,4.629-16.525,3.586C235.324,224.098,234.811,225.922,236.012,226.133L236.012,226.133z"/>
				</g>
			</g>
			<g>
				<g>
					<path fill="#DB0D15" d="M243.336,225.477c1.492-5.258,5.947-9.289,10.664-11.748c1.08-0.562,0.128-2.191-0.953-1.631
						c-5.15,2.688-9.908,7.154-11.531,12.877C241.182,226.146,243.002,226.648,243.336,225.477L243.336,225.477z"/>
				</g>
			</g>
			<g>
				<g>
					<path fill="#DB0D15" d="M237.975,224.801c5.2-3.752,11.104-6.15,17.023-8.512c1.125-0.443,0.635-2.275-0.496-1.822
						c-6.062,2.42-12.153,4.854-17.477,8.701C236.044,223.879,236.984,225.518,237.975,224.801L237.975,224.801z"/>
				</g>
			</g>
			<g>
				<g>
					<path fill="#DB0D15" d="M242.896,230.969c5.444-2.789,10.152-6.562,13.899-11.412c0.743-0.967-0.897-1.908-1.634-0.955
						c-3.539,4.578-8.084,8.105-13.215,10.734C240.854,229.891,241.811,231.52,242.896,230.969L242.896,230.969z"/>
				</g>
			</g>
			<g>
				<g>
					<path fill="#DB0D15" d="M244.123,233.436c5.418-2.918,8.744-8.561,11.441-13.881c0.549-1.084-1.081-2.043-1.632-0.955
						c-2.554,5.035-5.626,10.438-10.761,13.199C242.098,232.379,243.051,234.012,244.123,233.436L244.123,233.436z"/>
				</g>
			</g>
			<g>
				<g>
					<path fill="#DB0D15" d="M254.42,225.486c1.236-4.932,2.473-9.855,3.713-14.783c0.295-1.182-1.526-1.684-1.82-0.502
						c-1.242,4.926-2.479,9.852-3.711,14.783C252.305,226.166,254.125,226.668,254.42,225.486L254.42,225.486z"/>
				</g>
			</g>
			<g>
				<g>
					<path fill="#DB0D15" d="M318.518,191.779c-1.378-8.223-4.567-15.998-4.875-24.393c-0.535,0.219-1.074,0.443-1.613,0.664
						c2.057,2.053,4.109,4.111,6.154,6.168c0.54,0.537,1.706,0.186,1.615-0.668c-0.256-2.502-0.963-4.887-1.221-7.391
						c-0.475,0.268-0.951,0.541-1.423,0.812c2.042,1.043,2.735,5.832,5.652,5.027c0.411-0.113,0.694-0.488,0.694-0.91
						c0.021-2.891,0.18-5.633,1.204-8.373c-0.618-0.082-1.239-0.17-1.854-0.25c0.221,2.17,0.74,4.297,1.26,6.41
						c0.183,0.754,1.377,0.988,1.729,0.227c1.311-2.838,1.651-5.777,2.961-8.621c-0.585-0.158-2.501-0.318-2.501-0.48
						c-0.003,3.695-0.007,7.396-0.011,11.09c0,0.943,2.021,1.291,2.502,0.477c1.508-2.561,3.798-4.82,5.303-7.387
						c-0.574-0.24-0.963-1.035-1.537-1.287c-1.623,6.902-1.686,13.451-3.516,20.449c0.609,0,1.217,0,1.823,0.002
						c0,0-0.013,0.516-0.016,0.492c-0.351-1.16-2.177-0.391-1.823,0.781c0.008,0.018,0.01,0.178,0.016,0.193
						c0.268,0.885,1.576,0.996,1.822,0.066c1.828-6.826,2.074-14.055,3.695-20.953c0.242-1.033-1.172-1.656-1.725-0.713
						c-1.504,2.562-2.11,4.832-3.62,7.398c0.587,0.16,3.075,0.328,3.075,0.486c0.004-3.693,0.008-7.396,0.011-11.09
						c0.001-0.887-2.667-1.361-3.075-0.475c-1.307,2.836-3.052,5.773-4.361,8.619c0.575,0.072,0.823,0.15,1.398,0.227
						c-0.472-1.943-1.148-3.912-1.357-5.91c-0.111-1.068-1.555-1.277-1.932-0.252c-0.469,1.25-0.904,2.285-1.05,3.641
						c-0.088,0.898,0.569,4.988-0.987,2.752c-0.832-1.184-1.486-2.588-2.815-3.268c-0.574-0.293-1.509,0.051-1.425,0.816
						c0.256,2.498,0.959,4.883,1.215,7.393c0.543-0.225,1.076-0.447,1.615-0.67c-2.051-2.055-4.104-4.107-6.156-6.168
						c-0.568-0.564-1.645-0.168-1.615,0.672c0.313,8.564,3.531,16.5,4.941,24.893C316.896,193.482,318.719,192.967,318.518,191.779
						L318.518,191.779z"/>
				</g>
			</g>
			<g>
				<g>
					<path fill="#DB0D15" d="M320.319,192.945c6.023-1.68,10.407-6.979,11.765-12.973c0.269-1.184-1.553-1.689-1.822-0.502
						c-1.213,5.359-5.031,10.141-10.441,11.65C318.646,191.445,319.146,193.27,320.319,192.945L320.319,192.945z"/>
				</g>
			</g>
			<g>
				<g>
					<path fill="#DB0D15" d="M79.522,169.883c2.065-9.402-0.731-18.389-2.435-27.611c-0.605,0.166-1.215,0.334-1.82,0.5
						c0.406,1.234,0.819,2.467,1.228,3.695c0.237,0.723,1.337,1.006,1.724,0.227c1.318-2.623,0.067-0.723,1.244,1.787
						c1.273,2.719,3.828,4.953,5.887,7.039c0.465,0.469,1.459,0.307,1.582-0.414c1.139-6.789,1.146-13.426,0.019-20.217
						c-0.575,0.24-1.157,0.482-1.729,0.723c1.41,2.219,2.199,4.607,2.365,7.172c0.141,0.977,1.576,1.01,1.822,0.186
						c1.469-5.035,3.266-10.848,3.738-14.846c-0.627-0.002-1.26-0.002-1.885-0.002c0.348,4,1.78,7.318,2.49,11.156
						c0.15,0.832,1.332,0.793,1.725,0.133c0.929-1.576,1.55-3.412,2.471-4.971c-0.587-0.16-1.173-0.336-1.76-0.494
						c0.225,3.732,0.734,7.033,0.022,10.82c-0.229,1.217,1.37,1.617,1.821,0.498c1.52-3.76,3.42-7.326,4.936-11.086
						c-0.605-0.17-1.215-0.334-1.82-0.504c-1.565,8.658-4.543,17.301-4.983,26.119c-0.062,1.215,1.827,1.213,1.886-0.004
						c0.432-8.623,3.385-17.145,4.918-25.615c0.226-1.217-1.369-1.623-1.82-0.502c-1.521,3.76-3.418,7.322-4.937,11.08
						c0.606,0.176,1.214,0.336,1.821,0.506c0.734-3.895,0.287-7.389,0.043-11.338c-0.059-0.918-1.264-1.324-1.762-0.479
						c-1.074,1.822-1.363,1.764-0.922,4.158c-0.619-3.373-1.926-6.35-2.244-9.846c-0.102-1.221-1.773-2.202-1.883-0.983
						c-0.465,5.104-2.264,11.546-3.676,13.546c0.607,0,1.214,0,1.822,0c-0.426-2-1.314-4.054-2.553-6.64
						c-0.504-1.033-1.895,0.237-1.73,1.214c0.789,4.729,0.965,9.436,0.709,14.189c-0.426,8.002-5.732-3.935-6.289-5.698
						c-0.229-0.727-1.34-0.934-1.725-0.16c-1.354,2.701,0.074,1.445-0.734-0.982c-0.385-1.164-2.043-0.673-1.82,0.517
						c1.631,8.846,4.416,17.579,2.434,26.616C77.442,170.558,79.264,171.072,79.522,169.883L79.522,169.883z"/>
				</g>
			</g>
			<g>
				<g>
					<path fill="#DB0D15" d="M77.061,171.84c-1.041-4.732,1.727-7.926,5.736-10.014c1.082-0.562,0.127-2.193-0.949-1.631
						c-4.82,2.498-7.834,6.582-6.607,12.148C75.502,173.533,77.322,173.027,77.061,171.84L77.061,171.84z"/>
				</g>
			</g>
			<g>
				<g>
					<path fill="#DB0D15" d="M81.988,171.117c1.207-4.357,4.5-6.609,8.954-6.695c1.218-0.021,1.22-1.91,0.001-1.885
						c-5.289,0.102-9.342,2.902-10.776,8.074C79.843,171.789,81.66,172.289,81.988,171.117L81.988,171.117z"/>
				</g>
			</g>
			<g>
				<g>
					<path fill="#DB0D15" d="M81.08,169.342c4.287-0.078,8.512-1.162,12.57-2.482c1.152-0.379,0.663-2.205-0.5-1.822
						c-3.896,1.266-7.947,2.336-12.068,2.42C79.863,167.48,79.861,169.365,81.08,169.342L81.08,169.342z"/>
				</g>
			</g>
			<g>
				<g>
					<path fill="#DB0D15" d="M81.295,165.646c0,0,8.739-0.109,13.697-1.25c1.189-0.275,1.352-2.094,0.172-1.824
						c-4.797,1.109-9.867,1.191-13.867,1.189C81.297,163.762,81.295,165.65,81.295,165.646L81.295,165.646z"/>
				</g>
			</g>
			<g>
				<g>
					<path fill="#DB0D15" d="M85.027,165.619c4.303-1.408,8.703-2.566,12.555-5.012c1.023-0.65,0.078-2.289-0.949-1.637
						c-3.725,2.363-7.961,3.471-12.102,4.828C83.377,164.174,83.865,165.998,85.027,165.619L85.027,165.619z"/>
				</g>
			</g>
			<g>
				<g>
					<path fill="#DB0D15" d="M84.525,169.314c5.576,1.172,10.518-1.357,14.477-5.158c0.877-0.852-0.459-2.186-1.336-1.338
						c-3.436,3.297-7.748,5.695-12.641,4.676C83.836,167.244,83.33,169.064,84.525,169.314L84.525,169.314z"/>
				</g>
			</g>
			<g>
				<g>
					<path fill="#DB0D15" d="M90.687,168.086c3.956,1.162,7.79,0.102,10.774-2.691c0.891-0.84-0.448-2.17-1.336-1.342
						c-2.502,2.346-5.627,3.186-8.937,2.211C90.014,165.922,89.52,167.744,90.687,168.086L90.687,168.086z"/>
				</g>
			</g>
			<g>
				<g>
					<path fill="#DB0D15" d="M93.396,171.818c6.297-0.115,11.572-2.684,15.459-7.652c0.74-0.953-0.585-2.301-1.338-1.34
						c-3.586,4.596-8.277,6.994-14.119,7.104C92.178,169.951,92.176,171.838,93.396,171.818L93.396,171.818z"/>
				</g>
			</g>
			<g>
				<g>
					<path fill="#DB0D15" d="M103.586,163.242c-0.148,0.812-1.389,1.32-1.947,1.854c-0.379,0.357-0.357,0.977-0.002,1.334
						c0.004,0.006,0.006,0.008,0.015,0.014c0.226,0.23,0.606,0.354,0.919,0.248c0.832-0.293,1.615-0.756,2.398-1.146
						c0.293-0.146,0.468-0.502,0.469-0.816c0.004-4.531-5.029-4.43-7.662-6.838c-0.897-0.82-2.24,0.51-1.338,1.334
						c1.086,0.998,2.271,1.586,3.65,2.082c1.089,0.396,1.973,0.871,2.816,1.68c0.748,0.723,0.647,0.816,0.646,1.74
						c0.154-0.27,0.311-0.547,0.469-0.816c-0.631,0.314-1.279,0.721-1.951,0.957c0.305,0.078,2.128,0.164,2.437,0.244
						c-0.006-0.008,1.508-0.01,1.508-0.01c0,0.443,0,0.891,0,1.334c0-0.812,0.676-1.406,0.914-2.691
						C107.14,162.555,103.803,162.043,103.586,163.242L103.586,163.242z"/>
				</g>
			</g>
			<g>
				<g>
					<path fill="#DB0D15" d="M96.803,169.316c0.01,0,0.139-4.784,2.008-5.792c1.074-0.574,0.119-1.366-0.951-0.79
						c-2.455,1.322-2.934,2.582-2.941,6.582C94.916,169.316,96.803,169.316,96.803,169.316L96.803,169.316z"/>
				</g>
			</g>
			<g>
				<g>
					<path fill="#DB0D15" d="M43.68,293.781c-2.182-5.654-5.946-10.889-10.08-15.27c-0.223,0.533-0.449,1.555-0.672,1.555
						c3.289,0.002,6.568,0.006,9.855,0.01c0.768,0,1.106-0.729,0.816-1.363c-1.152-2.5-2.045-5.135-3.686-7.367
						c-0.358,0.463-0.715,0.943-1.068,1.402c0.874,0.311,1.564,0.918,2.459,1.236c0.59,0.207,1.197-1.752,1.197-2.336
						c0.014-2.58-0.262-5.574,1.113-9.572c-0.545,0-1.084-0.002-1.633-0.002c1.299,4.002,2.062,5.195,2.365,7.369
						c0.107,0.795,1.402,1.646,1.723,0.941c1.341-2.945,2.326-5.504,2.604-8.74c-0.586,0.158-1.172,0.496-1.762,0.656
						c1.445,3.201,2.108,5.936,2.326,9.471c0.055,0.93,1.244,0.645,1.758-0.18c1.955-3.121,4.51-5.504,5.035-9.504
						c-0.605,0-1.215-0.002-1.822-0.002c0.92,4.002,1.176,6.994,1.19,10.309c0.001,1.016,1.226,1.545,1.757,0.83
						c1.443-1.939,2.262-4.041,3.703-5.982c-0.574-0.242-1.154-0.398-1.727-0.643c-0.861,5.531-2.065,11.031-3.227,16.506
						c-0.499,2.346-0.939,4.725-1.359,7.086c-0.76,4.291-10.648,2.234-12.754,1.682c-1.182-0.312-1.682,1.52-0.506,1.834
						c4.756,1.258,9.262,1.008,14.053,0.014c0.293-0.059,0.618-0.361,0.663-0.66c1.353-8.684,3.598-17.188,4.95-25.871
						c0.168-1.074-1.072-1.605-1.727-0.727c-1.44,1.939-2.256,4.219-3.701,6.156c0.586,0.16,1.174,0.32,1.758,0.48
						c-0.01-3.555-0.273-6.691-1.252-10.107c-0.238-0.832-1.686-0.979-1.822-0.002c-0.48,3.438-3.094,5.6-4.844,8.396
						c0.588,0.156,1.174,0.316,1.76,0.477c-0.225-3.68-1.066-6.98-2.578-10.336c-0.422-0.945-1.689-0.355-1.762,0.477
						c-0.262,2.982-1.107,5.426-2.347,8.143c0.575,0.076,1.155,0.146,1.729,0.227c-0.324-2.334-1.166-4.488-2.555-6.385
						c-0.41-0.562-1.237-0.658-1.633-0.002c-0.887,1.471-1.029,3.105-1.211,4.785c-0.127,1.207-0.133,2.43-0.154,3.641
						c0.021-1.295-0.019-1.033-1.266-1.469c-0.746-0.268-1.557,0.721-1.07,1.383c1.64,2.232,2.533,3.283,3.689,5.785
						c0.269-0.473,0.545,1.963,0.82-3.035c-3.288-0.004-6.568-0.008-9.855-0.01c-0.841-0.002-1.23,2.629-0.674,3.225
						c3.879,4.107,7.547,9.867,9.598,15.184C42.293,294.596,44.121,294.916,43.68,293.781L43.68,293.781z"/>
				</g>
			</g>
			<g>
				<g>
					<path fill="#DB0D15" d="M42.203,295.93c4.386-4.379,8.715-8.801,12.484-13.732c0.738-0.965-0.902-1.908-1.629-0.951
						c-3.669,4.791-7.926,9.086-12.189,13.342C40.006,295.451,41.342,296.789,42.203,295.93L42.203,295.93z"/>
				</g>
			</g>
			<g>
				<g>
					<path fill="#DB0D15" d="M48.512,299.436c3.691-5.006,6.398-10.475,8.732-16.227c0.459-1.129-1.369-1.623-1.822-0.506
						c-2.273,5.6-4.949,10.904-8.543,15.781C46.156,299.463,47.797,300.41,48.512,299.436L48.512,299.436z"/>
				</g>
			</g>
			<g>
				<g>
					<path fill="#DB0D15" d="M50.828,298.402c4.797-3.789,7.368-9.395,8.879-15.191c0.311-1.184-1.516-1.686-1.82-0.506
						c-1.44,5.518-3.83,10.752-8.396,14.359C48.531,297.818,49.883,299.148,50.828,298.402L50.828,298.402z"/>
				</g>
			</g>
			<g>
				<g>
					<path fill="#DB0D15" d="M54.525,298.406c1.651-1.951,2.527-4.666,3.439-7.014c1.654-4.248,2.887-8.781,3.012-13.359
						c0.033-1.221-1.857-1.223-1.889-0.002c-0.104,3.766-1.072,7.379-2.254,10.936c-0.857,2.598-1.83,5.955-3.646,8.102
						C52.41,297.992,53.736,299.336,54.525,298.406L54.525,298.406z"/>
				</g>
			</g>
			<g>
				<g>
					<path fill="#DB0D15" d="M57.074,294.857c4.428,3.428,7.225-17.01,7.565-19.035c0.206-1.191-1.616-1.705-1.821-0.502
						c-0.576,3.418-1.199,6.83-1.955,10.215c-0.154,0.678-2.225,8.164-2.836,7.693C57.064,292.482,56.125,294.123,57.074,294.857
						L57.074,294.857z"/>
				</g>
			</g>
			<g>
				<g>
					<path fill="#DB0D15" d="M63.43,293.096c0.002,0,0.197-9.027,1.205-12.207c0.373-1.162-1.453-0.359-1.822,0.801
						c-1.061,3.34-1.271,8.404-1.275,11.404C61.535,293.094,63.43,293.096,63.43,293.096L63.43,293.096z"/>
				</g>
			</g>
			<g>
				<g>
					<path fill="#DB0D15" d="M62.693,338.078c26.151-6.756,43.662-20.355,46.923-48.1c3.819-32.539-11.051-67.764,11.532-96.229
						c0.748-0.943-0.578-2.297-1.334-1.34c-15.197,19.156-14.247,42.461-12.682,65.703c2.598,38.455-2.66,67.223-44.941,78.145
						C61.012,336.559,61.51,338.387,62.693,338.078L62.693,338.078z"/>
				</g>
			</g>
			<g>
				<g>
					<path fill="#DB0D15" d="M37.455,260.287c-19.079-39.93,58.626-48.352,79.803-63.932c0.975-0.715,0.03-2.361-0.949-1.637
						c-21.415,15.764-100.69,24.234-80.484,66.518C36.344,262.336,37.98,261.377,37.455,260.287L37.455,260.287z"/>
				</g>
			</g>
			<g>
				<g>
					<path fill="#DB0D15" d="M113.561,198.814c18.107-9.889,27.508-23.363,30.074-43.91c0.152-1.205-1.736-1.191-1.887,0
						c-2.479,19.807-11.694,32.756-29.137,42.279C111.54,197.768,112.492,199.4,113.561,198.814L113.561,198.814z"/>
				</g>
			</g>
			<g>
				<g>
					<path fill="#DB0D15" d="M142.275,156.895c-7.266-12.508-27.166-15.334-39.973-17.719c-1.191-0.225-1.701,1.598-0.502,1.82
						c12.34,2.299,31.924,4.932,38.842,16.848C141.255,158.896,142.891,157.947,142.275,156.895L142.275,156.895z"/>
				</g>
			</g>
			<g>
				<g>
					<path fill="#DB0D15" d="M103.76,140.9c12.406-8.264,25.859-17.682,41.426-17.08c1.219,0.047,1.217-1.84,0.002-1.889
						c-15.918-0.623-29.686,8.879-42.376,17.336C101.801,139.941,102.743,141.58,103.76,140.9L103.76,140.9z"/>
				</g>
			</g>
			<g>
				<g>
					<path fill="#DB0D15" d="M161.965,120.842c-10.629,5.609-19.697,5.205-29.85-1.26c-1.031-0.656-1.98,0.977-0.955,1.635
						c10.719,6.822,20.525,7.189,31.753,1.264C163.992,121.908,163.037,120.275,161.965,120.842L161.965,120.842z"/>
				</g>
			</g>
			<g>
				<g>
					<path fill="#DB0D15" d="M133.541,121.068c7.31-9.246,21.302-11.713,32.353-9.584c1.188,0.23,1.7-1.592,0.502-1.82
						c-11.669-2.256-26.456,0.285-34.194,10.062C131.457,120.674,132.782,122.02,133.541,121.068L133.541,121.068z"/>
				</g>
			</g>
			<g>
				<g>
					<path fill="#DB0D15" d="M142.273,160.309c7.646-11.697,22.242-13.924,32.949-21.803c0.969-0.717,0.025-2.361-0.954-1.637
						c-11.036,8.125-25.739,10.43-33.628,22.486C139.973,160.375,141.605,161.324,142.273,160.309L142.273,160.309z"/>
				</g>
			</g>
			<g>
				<g>
					<path fill="#DB0D15" d="M135.527,180.449c24.188-5.084,53.079,19.748,70.797-6.529c0.682-1.012-0.951-1.959-1.63-0.955
						c-16.887,25.041-46.337,0.76-69.665,5.664C133.833,178.879,134.338,180.701,135.527,180.449L135.527,180.449z"/>
				</g>
			</g>
			<g>
				<g>
					<path fill="#DB0D15" d="M125.908,377.219c-29.457-37.871-3.092-88.119,36.506-103.342
						c20.301-7.803,35.967-15.209,42.717-37.346c0.355-1.172-1.469-1.67-1.822-0.506c-11.541,37.85-55.555,30.037-75.986,59.059
						c-17.061,24.24-21.77,59.021-2.752,83.473C125.321,379.516,126.646,378.168,125.908,377.219L125.908,377.219z"/>
				</g>
			</g>
			<g>
				<g>
					<path fill="#DB0D15" d="M205.164,238.74c-0.115-12.615-2.9-27.037,2.367-38.949c0.489-1.104-1.138-2.066-1.632-0.951
						c-5.459,12.346-2.743,26.842-2.624,39.898C203.287,239.955,205.172,239.957,205.164,238.74L205.164,238.74z"/>
				</g>
			</g>
			<g>
				<g>
					<path fill="#DB0D15" d="M202.98,247.078c38.144-3.791,39.609,42.035,38.409,69.314c-1.851,42.025-20.015,69.328-62.214,77.877
						c-1.191,0.24-0.691,2.064,0.498,1.822c44.641-9.043,59.709-36.199,63.607-79.697c2.553-28.531-2.037-75.008-40.299-71.207
						C201.779,245.305,201.766,247.199,202.98,247.078L202.98,247.078z"/>
				</g>
			</g>
			<g>
				<g>
					<path fill="#DB0D15" d="M239.588,277.217c5.652-25.572,73.962-66.938,29.218-89.746c-1.079-0.553-2.04,1.076-0.95,1.631
						c42.396,21.613-24.359,61.664-30.088,87.613C237.506,277.896,239.328,278.406,239.588,277.217L239.588,277.217z"/>
				</g>
			</g>
			<g>
				<g>
					<path fill="#DB0D15" d="M284.668,184.355c-13.275,33.922,17.203,42.346,40.566,58.18
						c22.021,14.926,31.924,52.127,11.617,72.189c-25.711,25.398-73.443,25.859-96.307-1.463c-0.781-0.938-2.111,0.406-1.338,1.336
						c17.71,21.162,39.656,24.332,65.603,17.721c17.987-4.582,42.669-15.527,44.469-36.965c1.608-19.193-4.013-40.211-19.985-52.133
						c-21.801-16.273-56.298-23.859-42.805-58.363C286.934,183.723,285.107,183.23,284.668,184.355L284.668,184.355z"/>
				</g>
			</g>
			<g>
				<g>
					<path fill="#DB0D15" d="M303.238,226.227c0-0.031,46.352-4.312,55.648-28.709c7.4-19.441-13.691-32.281-29.492-35.959
						c-1.188-0.271-1.902,1.547-0.713,1.824c18.658,4.34,36.469,18.139,26.275,38.654c-10.021,20.154-31.717,22.295-51.717,22.303
						L303.238,226.227L303.238,226.227z"/>
				</g>
			</g>
			<g>
				<g>
					<path fill="#DB0D15" d="M189.535,401.031c10.203-3.23,21.511,2.184,32.025-1.205c1.158-0.369,0.664-2.195-0.498-1.82
						c-10.537,3.391-21.758-2.047-32.027,1.203C187.877,399.574,188.365,401.398,189.535,401.031L189.535,401.031z"/>
				</g>
			</g>
			<g>
				<g>
					<path fill="#DB0D15" d="M196.666,409.695c13.985,0.285,29.514,4.945,42.365-2.551c1.057-0.617,0.107-2.252-0.949-1.639
						c-12.435,7.26-27.879,2.576-41.414,2.305C195.449,407.783,195.447,409.672,196.666,409.695L196.666,409.695z"/>
				</g>
			</g>
			<g>
				<g>
					<path fill="#DB0D15" d="M207.506,405.975c17.673,7.166,36.965,1.717,54.713-2.412c1.189-0.273,0.686-2.102-0.5-1.82
						c-17.458,4.061-36.333,9.449-53.711,2.412C206.881,403.693,206.393,405.523,207.506,405.975L207.506,405.975z"/>
				</g>
			</g>
			<g>
				<g>
					<path fill="#DB0D15" d="M220.076,402.326c24.559-0.254,48.709-3.74,72.945-7.359c1.204-0.178,0.693-2-0.496-1.82
						c-24.074,3.598-48.067,7.041-72.447,7.291C218.861,400.449,218.859,402.34,220.076,402.326L220.076,402.326z"/>
				</g>
			</g>
			<g>
				<g>
					<path fill="#DB0D15" d="M233.627,408.498c25.079-0.318,48.945-5.238,72.947-12.287c1.171-0.346,0.674-2.166-0.498-1.822
						c-23.799,6.992-47.553,11.906-72.447,12.225C232.411,406.629,232.41,408.514,233.627,408.498L233.627,408.498z"/>
				</g>
			</g>
			<g>
				<g>
					<path fill="#DB0D15" d="M248.408,412.207c22.646-1.508,44.441-6.383,65.559-14.756c1.119-0.439,0.633-2.271-0.498-1.82
						c-20.979,8.312-42.527,13.186-65.059,14.689C247.197,410.396,247.188,412.289,248.408,412.207L248.408,412.207z"/>
				</g>
			</g>
			<g>
				<g>
					<path fill="#DB0D15" d="M234.848,417.119c23.24,2.023,45.939-4.604,68.025-11.055c1.17-0.338,0.676-2.16-0.498-1.822
						c-21.921,6.404-44.457,12.99-67.525,10.992C233.639,415.129,233.643,417.02,234.848,417.119L234.848,417.119z"/>
				</g>
			</g>
			<g>
				<g>
					<path fill="#DB0D15" d="M246.92,420.795c28.693,5.379,56.361-8.766,80.824-22.195c1.068-0.582,0.117-2.215-0.949-1.631
						c-23.971,13.152-51.218,27.277-79.375,22.01C246.231,418.754,245.721,420.576,246.92,420.795L246.92,420.795z"/>
				</g>
			</g>
			<g>
				<g>
					<path fill="#DB0D15" d="M281.937,397.422c17.763-3.715,34.257-9.889,49.526-19.762c1.023-0.656,0.077-2.295-0.949-1.631
						c-15.114,9.768-31.516,15.895-49.074,19.57C280.244,395.852,280.747,397.674,281.937,397.422L281.937,397.422z"/>
				</g>
			</g>
			<g>
				<g>
					<path fill="#DB0D15" d="M299.185,396.203c16.507-4.039,31.892-11.008,47.062-18.529c1.094-0.541,0.139-2.174-0.949-1.631
						c-15.026,7.445-30.271,14.34-46.609,18.34C297.5,394.676,298.002,396.492,299.185,396.203L299.185,396.203z"/>
				</g>
			</g>
			<g>
				<g>
					<path fill="#DB0D15" d="M298.932,397.471c19.141-0.748,36.064-12.621,49.973-24.867c0.916-0.807-0.423-2.143-1.334-1.338
						c-13.487,11.873-30.06,23.584-48.638,24.32C297.723,395.629,297.713,397.52,298.932,397.471L298.932,397.471z"/>
				</g>
			</g>
			<g>
				<g>
					<path fill="#DB0D15" d="M299.178,403.598c23.929-3.438,40.941-21.666,61.857-32.07c1.094-0.545,0.137-2.174-0.949-1.635
						c-20.764,10.332-37.641,28.461-61.406,31.883C297.477,401.947,297.987,403.766,299.178,403.598L299.178,403.598z"/>
				</g>
			</g>
			<g>
				<g>
					<path fill="#DB0D15" d="M300.406,408.529c28.539-6.424,51.694-25.912,75.417-41.918c1.007-0.672,0.065-2.312-0.952-1.631
						c-23.568,15.9-46.613,35.346-74.961,41.725C298.721,406.973,299.223,408.797,300.406,408.529L300.406,408.529z"/>
				</g>
			</g>
			<g>
				<g>
					<path fill="#DB0D15" d="M310.265,408.539c24.069-6.215,42.624-23.875,63.091-37c1.021-0.656,0.078-2.295-0.951-1.635
						c-20.316,13.027-38.746,30.643-62.639,36.811C308.582,407.016,309.084,408.842,310.265,408.539L310.265,408.539z"/>
				</g>
			</g>
			<g>
				<g>
					<path fill="#DB0D15" d="M76.547,350.174c7.801,9.033,16.348,17.242,27.277,22.348c1.092,0.514,2.055-1.119,0.953-1.635
						c-10.781-5.031-19.201-13.139-26.893-22.051C77.088,347.912,75.754,349.252,76.547,350.174L76.547,350.174z"/>
				</g>
			</g>
			<g>
				<g>
					<path fill="#DB0D15" d="M65.663,339.221c12.733,9.438,19.7,24.34,30.573,35.605c0.85,0.879,2.182-0.457,1.338-1.334
						c-11.006-11.402-18.053-26.334-30.96-35.908C65.637,336.859,64.694,338.5,65.663,339.221L65.663,339.221z"/>
				</g>
			</g>
			<g>
				<g>
					<path fill="#DB0D15" d="M65.305,354.898c10.473,14.094,23.444,25.842,38.504,34.871c1.045,0.629,1.997-1.006,0.953-1.629
						c-14.771-8.859-27.551-20.369-37.822-34.191C66.221,352.979,64.577,353.92,65.305,354.898L65.305,354.898z"/>
				</g>
			</g>
			<g>
				<g>
					<path fill="#DB0D15" d="M79.195,357.713c7.25,4.508,12.746,12.08,18.729,18.057c3.775,3.766,9.129,9.521,14.984,9.203
						c1.217-0.061,1.221-1.947,0.002-1.885c-7.01,0.371-13.914-8.842-18.252-13.377c-4.523-4.727-8.893-10.139-14.509-13.627
						C79.114,355.438,78.163,357.076,79.195,357.713L79.195,357.713z"/>
				</g>
			</g>
			<g>
				<g>
					<path fill="#DB0D15" d="M73.035,356.475c11.62,7.33,21.537,17.947,31.818,26.988c0.908,0.803,2.254-0.527,1.336-1.334
						c-10.41-9.16-20.426-19.855-32.199-27.287C72.955,354.189,72.008,355.824,73.035,356.475L73.035,356.475z"/>
				</g>
			</g>
			<g>
				<g>
					<path fill="#DB0D15" d="M66.883,355.238c7.902,4.836,12.787,13.881,18.187,21.145c3.653,4.908,7.895,10.479,14.032,12.244
						c1.172,0.338,1.672-1.486,0.506-1.82c-8.109-2.328-13.363-11.947-17.969-18.348c-3.924-5.455-7.977-11.287-13.805-14.854
						C66.793,352.969,65.844,354.602,66.883,355.238L66.883,355.238z"/>
				</g>
			</g>
			<g>
				<g>
					<path fill="#DB0D15" d="M66.543,351.205c11.453,16.088,26.672,32.742,46.113,38.668c1.166,0.359,1.664-1.467,0.502-1.818
						c-18.893-5.764-33.836-22.15-44.983-37.803C67.477,349.266,65.836,350.209,66.543,351.205L66.543,351.205z"/>
				</g>
			</g>
			<g>
				<g>
					<path fill="#DB0D15" d="M69.346,352.775c20.537,12.254,36.216,34.389,60.559,39.576c1.189,0.256,1.692-1.568,0.502-1.82
						c-24.16-5.15-39.65-27.176-60.109-39.387C69.25,350.518,68.301,352.152,69.346,352.775L69.346,352.775z"/>
				</g>
			</g>
			<g>
				<g>
					<path fill="#DB0D15" d="M89.27,366.443c23.914,9.516,43.154,27.646,67.725,35.789c1.16,0.389,1.655-1.441,0.502-1.822
						c-24.561-8.139-43.812-26.273-67.723-35.791C88.643,364.168,88.152,365.996,89.27,366.443L89.27,366.443z"/>
				</g>
			</g>
			<g>
				<g>
					<path fill="#DB0D15" d="M91.498,374.973c23.314,12.08,50.002,14.102,73.9,24.707c1.104,0.49,2.068-1.139,0.951-1.629
						c-23.889-10.611-50.588-12.633-73.896-24.715C91.373,372.779,90.418,374.406,91.498,374.973L91.498,374.973z"/>
				</g>
			</g>
			<g>
				<g>
					<path fill="#DB0D15" d="M102.811,381.238c23.074,3.9,47.35,8.184,66.084,23.23c0.945,0.756,2.291-0.576,1.342-1.336
						c-19.041-15.287-43.439-19.744-66.926-23.715C102.123,379.215,101.609,381.037,102.811,381.238L102.811,381.238z"/>
				</g>
			</g>
			<g>
				<g>
					<path fill="#DB0D15" d="M110.199,386.174c28.098,6.666,57.521,1.186,84.996,11.168c1.15,0.422,1.639-1.41,0.506-1.822
						c-27.527-10-56.855-4.496-85.001-11.164C109.514,384.074,109.014,385.896,110.199,386.174L110.199,386.174z"/>
				</g>
			</g>
			<g>
				<g>
					<path fill="#DB0D15" d="M120.861,387.174c18.408,14.758,41.908,18.299,64.463,22.48c1.19,0.217,1.701-1.602,0.501-1.824
						c-22.138-4.104-45.524-7.477-63.626-21.992C121.257,385.082,119.911,386.408,120.861,387.174L120.861,387.174z"/>
				</g>
			</g>
			<g>
				<g>
					<path fill="#DB0D15" d="M126.705,397.277c26.541-4.916,51.273,4.133,77.105,8.693c1.191,0.211,1.705-1.609,0.502-1.82
						c-26.285-4.637-51.145-13.691-78.111-8.695C125.006,395.678,125.514,397.5,126.705,397.277L126.705,397.277z"/>
				</g>
			</g>
			<g>
				<g>
					<path fill="#DB0D15" d="M154.318,391.049c18.621,11.902,41.545,6.957,61.818,13.707c1.16,0.383,1.652-1.439,0.502-1.822
						c-20.104-6.693-42.943-1.742-61.369-13.516C154.242,388.76,153.293,390.396,154.318,391.049L154.318,391.049z"/>
				</g>
			</g>
			<g>
				<g>
					<path fill="#DB0D15" d="M150.84,402.227c10.398,1.549,20.539,4.02,30.694,6.723c5.774,1.543,17.634,7.209,23.403,5.459
						c0.949-0.289,0.848-1.494,0.002-1.822c-1.516-0.59-2.984-0.865-4.579-1.078c-1.206-0.166-1.189,1.73-0.002,1.885
						c8.14,1.098-2.365-2.08-3.446-2.338c-4.985-1.207-9.927-2.588-14.875-3.926c-10.145-2.732-20.301-5.18-30.699-6.725
						C150.15,400.227,149.637,402.049,150.84,402.227L150.84,402.227z"/>
				</g>
			</g>
			<g>
				<g>
					<path fill="#DB0D15" d="M112.082,394.365c12.699,26.309,58.449,13.605,80.629,21.453c1.148,0.406,1.639-1.416,0.502-1.818
						c-22.197-7.852-67.172,4.943-79.493-20.586C113.191,392.312,111.557,393.273,112.082,394.365L112.082,394.365z"/>
				</g>
			</g>
			<g>
				<g>
					<path fill="#DB0D15" d="M115.364,396.064c23.28,3.018,45.501,14.023,67.888,20.67c14.331,4.262,31.865,8.77,45.912,1.49
						c1.082-0.561,0.127-2.193-0.951-1.633c-19.219,9.961-45.921-1.787-64.715-8.162c-15.758-5.346-31.52-12.102-48.133-14.252
						C114.16,394.023,114.174,395.91,115.364,396.064L115.364,396.064z"/>
				</g>
			</g>
			<g>
				<g>
					<path fill="#DB0D15" d="M186.568,399.793c23.99,8.287,48.963,9.84,74.166,8.73c1.212-0.051,1.216-1.941,0.001-1.885
						c-24.994,1.094-49.852-0.441-73.667-8.664C185.91,397.574,185.424,399.398,186.568,399.793L186.568,399.793z"/>
				</g>
			</g>
			<g>
				<g>
					<path fill="#DB0D15" d="M208.732,410.904c18.346,2.742,36.695,2.01,55.147,1.055c2.335-0.121,12.692-0.498,8.61-5.037
						c-0.816-0.906-2.151,0.434-1.34,1.338c0.469,0.52-15.863,2.064-17.811,2.066c-15.011,0.006-29.101,0.996-44.104-1.244
						C208.045,408.908,207.531,410.727,208.732,410.904L208.732,410.904z"/>
				</g>
			</g>
			<g>
				<g>
					<path fill="#DB0D15" d="M209.551,410.662c17,14.713,46.666,4.691,64.986-2.156c1.132-0.422,0.643-2.256-0.498-1.824
						c-17.75,6.633-46.855,16.75-63.15,2.645C209.971,408.535,208.63,409.861,209.551,410.662L209.551,410.662z"/>
				</g>
			</g>
			<g>
				<g>
					<path fill="#DB0D15" d="M205.844,416.82c14.346,13.381,53.465,1.447,67.683-7.182c0.856-0.52,0.424-1.668-0.476-1.758
						c-32.978-3.426-73.232,21.514-102.842,1.322c-4.336-2.963-21.604-19.602-23.727-6.908c-0.203,1.188,1.617,1.705,1.816,0.502
						c1.178-7.023,26.41,11.645,29.625,13.008c14.746,6.234,33.432,1.865,48.404-1.184c11.201-2.283,21.988-4.656,33.448-5.559
						c17.704-1.393,4.499,3.197-3.649,5.629c-11.833,3.527-38.366,10.654-48.943,0.791
						C206.293,414.654,204.951,415.986,205.844,416.82L205.844,416.82z"/>
				</g>
			</g>
			<g>
				<g>
					<path fill="#DB0D15" d="M200.113,406.611c-14.715,3.424-29.795,3.543-44.807,2.725c-8.152-0.439-16.242-1.678-24.25-3.238
						c-2.389-0.467-25.57-6.17-18.912-10.162c1.049-0.627,0.098-2.26-0.949-1.635c-3.045,1.826-2.213,0.996-4.043,4.033
						c-0.26,0.434-0.105,1.045,0.342,1.291c26.084,14.703,64.594,15.449,93.121,8.811
						C201.804,408.162,201.301,406.334,200.113,406.611L200.113,406.611z"/>
				</g>
			</g>
			<g>
				<g>
					<path fill="#DB0D15" d="M152.793,410.361c-13.227-9.125-27.673-16.412-40.637-25.91c-0.984-0.725-1.932,0.914-0.953,1.631
						c12.96,9.5,27.406,16.785,40.635,25.908C152.84,412.686,153.787,411.045,152.793,410.361L152.793,410.361z"/>
				</g>
			</g>
			<g>
				<g>
					<path fill="#DB0D15" d="M131.861,394.32c-9.316-6.77-19.246-12.277-29.684-17.129c-5.043-2.344-10.248-4.34-15.451-6.273
						c-2.586-0.934-5.189-1.812-7.814-2.645c-4.682-1.535,6.124-0.566,6.906-0.57c1.219-0.006,1.221-1.895,0.002-1.889
						c-4.023,0.02-7.451,0.193-11.336,1.258c-0.918,0.248-0.887,1.547-0.001,1.82c20.081,6.145,39.388,14.666,56.425,27.061
						C131.896,396.672,132.838,395.033,131.861,394.32L131.861,394.32z"/>
				</g>
			</g>
			<g>
				<g>
					<path fill="#DB0D15" d="M107.225,384.445c-11.326-7.619-17.521-20.988-26.882-30.68c-0.847-0.879-2.185,0.457-1.337,1.336
						c9.473,9.799,15.771,23.242,27.268,30.977C107.284,386.758,108.232,385.121,107.225,384.445L107.225,384.445z"/>
				</g>
			</g>
			<g>
				<g>
					<path fill="#DB0D15" d="M77.465,351.055c-20.168-6.533-34.334-34.344-33.756-54.555c0.039-1.221-1.854-1.223-1.885-0.002
						c-0.613,21.123,14.098,49.564,35.137,56.377C78.121,353.254,78.62,351.43,77.465,351.055L77.465,351.055z"/>
				</g>
			</g>
			<g>
				<g>
					<path fill="#DB0D15" d="M63.266,329.303c-5.378-10.486-12.295-20.088-17.221-30.818c-0.504-1.107-2.133-0.146-1.635,0.947
						c4.929,10.74,11.842,20.334,17.223,30.82C62.191,331.342,63.822,330.379,63.266,329.303L63.266,329.303z"/>
				</g>
			</g>
			<g>
				<g>
					<path fill="#DB0D15" d="M66.611,341.287c-12.482-9.23-20.217-22.826-24.173-37.652c-0.313-1.178-2.134-0.674-1.817,0.504
						c4.085,15.33,12.145,29.246,25.039,38.777C66.639,343.641,67.581,341.998,66.611,341.287L66.611,341.287z"/>
				</g>
			</g>
			<g>
				<g>
					<path fill="#DB0D15" d="M60.891,339.385c-2.297-6.195-6.135-11.365-10.084-16.598c-2.057-2.719-4.047-5.469-5.9-8.33
						c-1.125-1.74-2.055-3.58-2.967-5.434c-0.441-0.889,3.141-2.725,3.761-3.086c1.05-0.617,0.097-2.252-0.95-1.635
						c-1.651,0.967-3.303,1.504-4.93,2.463c-0.484,0.285-0.545,0.82-0.344,1.289c4.986,11.578,15.205,20.006,19.592,31.826
						C59.484,341.014,61.312,340.529,60.891,339.385L60.891,339.385z"/>
				</g>
			</g>
			<g>
				<g>
					<path fill="#DB0D15" d="M58.334,330.527c-5.117-10.113-10.918-19.844-14.66-30.586c-0.396-1.146-2.221-0.652-1.823,0.496
						c3.798,10.898,9.657,20.787,14.851,31.039C57.252,332.562,58.882,331.609,58.334,330.527L58.334,330.527z"/>
				</g>
			</g>
			<g>
				<g>
					<path fill="#DB0D15" d="M33.777,245.494c-12.254-28.623,23.416-71.055,41.824-89.982c0.854-0.869-0.484-2.211-1.332-1.336
						c-19.361,19.9-55.015,62.162-42.123,92.268C32.62,247.566,34.254,246.604,33.777,245.494L33.777,245.494z"/>
				</g>
			</g>
			<g>
				<g>
					<path fill="#DB0D15" d="M218.59,412.148c26.734,10.152,58.014-0.385,84.281-7.311c1.178-0.316,0.68-2.135-0.498-1.824
						c-26.083,6.881-56.848,17.35-83.283,7.311C217.949,409.889,217.461,411.723,218.59,412.148L218.59,412.148z"/>
				</g>
			</g>
			<g>
				<g>
					<path fill="#DB0D15" d="M244.707,410.973c19.715,0.914,39.781-7.619,57.164-16.092c1.098-0.537,0.142-2.166-0.949-1.631
						c-16.965,8.268-36.945,16.723-56.213,15.838C243.491,409.031,243.495,410.92,244.707,410.973L244.707,410.973z"/>
				</g>
			</g>
			<g>
				<g>
					<path fill="#DB0D15" d="M247.176,409.744c15.328-0.232,30.186-3.539,44.611-8.617c1.141-0.398,0.656-2.225-0.5-1.822
						c-14.258,5.023-28.941,8.316-44.109,8.555C245.961,407.875,245.959,409.764,247.176,409.744L247.176,409.744z"/>
				</g>
			</g>
			<g>
				<g>
					<path fill="#DB0D15" d="M238.537,428.215c14.229,0.727,26.849-5.842,39.684-11.084c1.111-0.453,0.628-2.279-0.5-1.816
						c-12.686,5.172-25.104,11.729-39.182,11.016C237.318,426.268,237.32,428.158,238.537,428.215L238.537,428.215z"/>
				</g>
			</g>
			<g>
				<g>
					<path fill="#DB0D15" d="M57.756,341.771c23.715-6.527,44.264-21.316,53.707-44.496c5.236-12.865,1.777-28.715,0.475-41.951
						c-2.531-25.592-1.445-47.887,15.379-68.963c0.752-0.945-0.575-2.289-1.334-1.336c-17.121,21.439-18.405,43.715-15.938,70.297
						c1.682,18.107,3.997,34.426-4.979,51.143c-9.361,17.436-29.49,28.441-47.807,33.486
						C56.086,340.271,56.58,342.096,57.756,341.771L57.756,341.771z"/>
				</g>
			</g>
			<g>
				<g>
					<path fill="#DB0D15" d="M132.061,380.92c-34.732-28.342,7.074-84.475,31.394-105.232
						c12.874-10.986,26.938-19.924,37.262-33.555c9.259-12.227,2.114-32.566,6.913-46.26c0.41-1.148-1.418-1.643-1.82-0.5
						c-2.934,8.361-3.329,14.967-2.954,23.754c0.906,21.383-11.354,31.924-26.39,43.928c-15.832,12.631-29.693,24.527-40.844,41.58
						c-14.643,22.398-29.971,57.162-4.896,77.623C131.658,383.018,133.004,381.691,132.061,380.92L132.061,380.92z"/>
				</g>
			</g>
			<g>
				<g>
					<path fill="#DB0D15" d="M202.971,249.541c34.461-1.377,41.449,33.73,40.404,61.211c-1.52,39.77-31.465,65.92-63.194,84.848
						c-1.048,0.625-0.093,2.26,0.949,1.633c34.933-20.836,62.669-48.037,64.3-90.756c1.072-28.092-9.719-60.133-42.457-58.82
						C201.763,247.703,201.756,249.594,202.971,249.541L202.971,249.541z"/>
				</g>
			</g>
			<g>
				<g>
					<path fill="#DB0D15" d="M240.854,316.07c23.854,8.635,49.081,18.031,74.744,12.766c20.336-4.176,34.703-25.34,34.399-45.43
						c-0.671-44.736-87.105-45.838-67.204-97.316c0.439-1.137-1.385-1.629-1.822-0.502c-12.992,33.605,22.796,49.924,45.258,66.48
						c25.605,18.879,29.893,50.215,0.666,70.113c-24.312,16.553-61.138,0.898-85.536-7.934
						C240.207,313.834,239.715,315.658,240.854,316.07L240.854,316.07z"/>
				</g>
			</g>
			<g>
				<g>
					<path fill="#DB0D15" d="M295.146,224.957c20.945,5.018,43.062-5.041,55.606-22.037c13.924-18.863-0.036-34.107-19.319-38.891
						c-1.182-0.299-1.686,1.527-0.5,1.82c9.354,2.318,19.316,6.006,22.982,15.77c3.11,8.279-2.248,17.373-7.295,23.561
						c-11.857,14.551-32.693,22.338-50.971,17.953C294.465,222.85,293.965,224.672,295.146,224.957L295.146,224.957z"/>
				</g>
			</g>
			<g>
				<g>
					<path fill="#DB0D15" d="M300.668,123.344c-6.221-1.424-12.734-1.17-18.98-0.018c-1.195,0.219-0.688,2.041,0.501,1.824
						c5.895-1.092,12.104-1.328,17.978,0.018C301.352,125.439,301.857,123.617,300.668,123.344L300.668,123.344z"/>
				</g>
			</g>
			<g>
				<g>
					<path fill="#DB0D15" d="M288.346,125.156c9.396-3.541,18.58-7.475,27.344-12.393c1.062-0.596,0.112-2.232-0.951-1.633
						c-8.626,4.84-17.648,8.719-26.893,12.201C286.719,123.758,287.203,125.582,288.346,125.156L288.346,125.156z"/>
				</g>
			</g>
			<g>
				<g>
					<path fill="#DB0D15" d="M291.045,122.6c17.591-13.074,38.242-18.014,59.902-18.297c1.221-0.016,1.223-1.91,0.002-1.889
						c-21.961,0.287-43.016,5.293-60.857,18.547C289.123,121.68,290.068,123.324,291.045,122.6L291.045,122.6z"/>
				</g>
			</g>
		</g>
	</g>
</g>
</svg>
