<svg baseProfile="basic" xmlns="http://www.w3.org/2000/svg" xmlns:xlink="http://www.w3.org/1999/xlink" width="443.334" height="620.102" viewBox="0 0 443.334 620.102"><defs><path id="a" d="M2.976-.066H444.02v624.062H2.975z"/></defs><clipPath id="b"><use xlink:href="#a" overflow="visible"/></clipPath><g opacity=".41" clip-path="url(#b)"><path fill="#DB0D15" d="M281.12 356.265c26.666-11.168 40.905-39.275 16.24-62.002-8.958-8.258-21.964-12.188-32.534-17.988-15.064-8.258-18.98-21.637-17.944-37.945.053-.92 1.47-1.307 1.968-.514 10.757 17.266 26.257 28.87 41.24 42.14 13.438 11.895 21.28 26.546 28.656 42.657 4.938 10.78 10.002 25.838 6.482 37.805-3.64 12.348-8.723 21.32-7.744 35.38.8 11.57 7.412 20.683 6.797 32.58-.737 14.417-5.313 24.483-13.386 36.255-3.872 5.658-11.503 26.86-20.738 27.383-8.984.51-21.244-4.025-28.56 3.55-3.815 3.952-6.193 11.685-9.652 16.468-8.14 11.23-33.296 5.918-43.24 10.02-.527.22-1.25-.023-1.44-.594-2.894-8.58-26.24-13.105-33.665-17.3-11.056-6.245-19.477-17.185-29.963-24.438-23.872-16.52-47.24-22.43-59.724-50.518-8.823-19.838-32.183-32.936-52.986-32.895-13.825.024-27.487 7.49-40.512 11.515-14.986 4.635-31.414 5.8-40.747-8.55-.58-.89.233-2.155 1.31-1.69 23.853 10.44 54.932-5.77 77.977-12.73 17.993-5.437 32.837-2.9 48.887 6.272 20.16 11.518 33.11 37.207 59.1 36.97 31.523-.284 32.24-50.298 26.377-70.983-.385-1.355 1.655-2.215 2.042-.848 7.29 25.73 4.063 68.236-28.144 74.025-17.994 3.23-35.176-16.18-46.77-26.604-33.772-30.38-61.477-13.8-98.976-4.844-10.604 2.533-20.816 4.266-31.714 3.742-2.73-.133-15.267-4.62 1.193 4.404 6.732 3.693 16.598 1.48 23.77.06 22.178-4.392 39.238-16.626 62.717-11.073 16.308 3.86 30.85 18.11 38.515 32.38 17.166 31.972 49.02 38.907 74.53 62.03 12.272 11.11 23.14 16.98 39.344 20.383 2.294.486 7.02 2.576 7.902 5.172.846 2.518 13.296.21 14.577.04 12.985-1.728 19.974 11.23 32.807-13.21 3.572-6.8 6.414-11.184 13.158-14.89 12.574-6.9 13.037 19.83 29.945-8.16 8.88-14.696 20.11-26.833 23.503-44.272 3.28-16.87-9.56-31.396-6.967-47.467 3.323-20.563 11.728-34.444 5.038-56.65-10.336-34.267-36.443-51.728-60.228-75.497-3.458-3.45-5.793-6.77-8.713-10.652-.628 1.813-1.253 3.63-1.88 5.442.803 7.512 4.103 13.79 9.904 18.826 8.327 8.096 21.653 11.87 31.716 17.455 35.417 19.656 23.976 57.756-8.62 71.402-1.32.546-2.16-1.492-.847-2.04z"/><path fill="#DB0D15" d="M112.138 413.95c16.765-21.596 16.795-55.25 9.007-80.322-6.424-20.723-22.546-38.424-33.353-57.012-.71-1.22 1.04-2.57 1.76-1.346 13.887 23.9 31.677 44.576 37.432 72.234 4.584 21.982.75 49.953-13.105 67.803-.875 1.124-2.617-.232-1.742-1.357zM68.604 429.333c-23.21-7.322-42.67-18.31-57.812-37.69-.88-1.126.88-2.464 1.752-1.34 14.914 19.087 34.133 29.81 56.924 37 1.363.432.483 2.456-.864 2.03z"/><path fill="#DB0D15" d="M11.508 388.944c-5.165-13.52-8.72-26.77-9.868-41.23-1.09-13.84 5.07-27.326 4.447-41.316 1.682 38.092-16.21-47.082-6.604-3.45 1.83 8.3 1.508 16.91 1.313 25.33-.595 24.956-17 46.88-.072 70.522.828 1.158-.93 2.504-1.754 1.344-7.998-11.172-9.587-20.617-7.664-34.234 3.975-28.275 10.86-49.885 1.627-78.89-.315-1.005.777-2.022 1.698-1.294 8.62 6.8 14.862 14.447 13.896 26.246-.827 10.01-3.144 19.746-4.45 29.695-2.042 15.54 4.036 32.197 9.48 46.434.506 1.33-1.535 2.174-2.048.844zM4.7 403.935c18.51 11.795 18.335 37.244 20.574 56.79 2.12 18.5 14.314 31.923 20.21 48.876 4.334 12.456-4.48 6.396 6.712 23.722 5.898 9.13 19.103 14.03 28.747 18.078 11.65 4.89 18.33 9.504 16.73-10.018-1.023-12.643-6.47-24.982-10.84-36.78-4.707-12.737-8.727-25.18-9.354-38.823-.813-17.708-1.115-70.558-28.484-66.644-1.407.203-1.68-1.988-.276-2.188 22.843-3.27 26.83 28.346 29.065 44.594 2.612 19.018 2.282 36.305 8.48 54.996 6.784 20.492 14.69 38.543 13.974 60.535-.02.635-.714.97-1.254.934-17.408-1.213-50.21-13.242-53.413-33.732-3.39-21.643-17.98-36.723-21.752-57.83-3.638-20.385-.583-48.098-20.474-60.77-1.2-.76.17-2.498 1.354-1.74z"/><path fill="#DB0D15" d="M146.146 480.67c-30.64 13.937-23.103 62.282-50.512 81.153-1.172.807-2.514-.947-1.342-1.756 27.597-19.002 19.582-67.143 51.005-81.434 1.304-.59 2.142 1.45.85 2.038z"/><path fill="#DB0D15" d="M181.6 506.698c-17.27-4.438-37.253 13.275-52.13-.807-1.02-.972.32-2.72 1.355-1.74 13.863 13.118 34.36-3.942 51.09.366 1.358.35 1.062 2.54-.315 2.182zM324.92 418.84c21.976 10.927 46.017 16.958 70.22 20.407 1.406.2 1.094 2.387-.32 2.184-24.367-3.472-48.64-9.554-70.762-20.558-1.274-.63-.41-2.668.863-2.03z"/><path fill="#DB0D15" d="M392.524 437.74c8.84-21.798-21.914-26.56-27.63-41.114-2.642-6.746-3.74-13.63-5.95-20.602-3.234-10.172-13.5-15.807-20.13-23.326-11.68-13.254-17.5-29.287-24.94-45.094-12.487-26.53-38.667-41.076-61.682-57.145-1.17-.82.19-2.554 1.36-1.743 19.62 13.703 39.27 25.916 54.46 44.693 6.312 7.807 10.123 17.932 14.107 26.982 6.942 15.79 15.587 27.385 27.638 39.674 15.145 15.44 15.434 37.635 33.475 51.27 10.627 8.027 16.637 14.164 11.318 27.277-.53 1.316-2.56.45-2.026-.872z"/><path fill="#DB0D15" d="M399.585 438.03c6.08-18.508 5.498-33.543-6.496-49.73-2.07-2.803-4.868-8.182-4.813-11.838.14-9.736 2.973-17.023 6.582-25.992 9.286-23.055 1.85-45.303-13.218-63.793-5.97-7.326-12.03-13.193-16.63-21.506-7.6-13.757-4.897-30.353-13.036-44.41-9.34-16.12-36.816-21.136-52.27-29.63-4.108-2.26-7.218-5.14-10.347-8.52-8.26-8.95 9.907 16.353 12.113 18.27 10.306 8.95 25.458 11.105 34.233 22.256 23.14 29.396 4.627 56.896-18.31 79.096-1.024.99-2.35-.775-1.345-1.754 15.515-15.01 30.024-30.65 28.296-53.867-1.45-19.595-17.697-29.4-32.848-37.11-15.158-7.71-22.673-17.52-25.687-34.297-.226-1.227 1.7-1.73 2.114-.56 7.54 21.263 42.19 25.53 59.242 37.937 5.936 4.318 10.36 11.76 11.922 18.855 2.46 11.164 4.002 22.008 7.967 32.893 3.62 9.932 14.168 18.34 20.76 26.424 22.014 27.023 9.438 50.684 2.732 79.664-3.86 16.69 15.703 23.652 18.61 37.664 2.54 12.24-3.782 19.37-7.542 30.818-.442 1.355-2.466.476-2.03-.868zM306.766 315.425c-32.264 6.463-67.594-10.11-90.33-32.39-1.003-.98.34-2.737 1.356-1.74 22.365 21.907 56.963 38.294 88.7 31.937 1.398-.278 1.665 1.912.274 2.193zM281.238 357.218c-23.656-4.496-40.538-18.715-56.39-36.117-21.92-24.07-48.264-45.87-63.675-74.995-.662-1.254 1.384-2.088 2.045-.838 12.3 23.244 31.282 40.182 49.488 58.684 21.154 21.507 37.096 45.05 68.85 51.09 1.395.26 1.078 2.45-.318 2.178zM256.064 365.933c-24.73-14.617-42.903-36.39-63.036-56.44-20.348-20.26-40.643-39.228-56.362-63.57-.767-1.192.985-2.54 1.754-1.347 16.968 26.283 39.433 46.72 61.45 68.646 18.383 18.305 34.985 37.635 57.545 50.97 1.23.723-.142 2.454-1.35 1.74zM228.756 420.657c-18.514-30.836-33.927-63.365-52.16-94.357-18.31-31.117-40.924-59.27-57.806-91.303-.666-1.262 1.386-2.092 2.046-.844 16.788 31.848 38.69 60.223 57.512 90.803 18.837 30.613 33.65 63.535 52.167 94.355.722 1.214-1.027 2.564-1.76 1.347zM174.42 361.58c-7.814-27.343-26.53-48.87-40.59-73.106-11.75-20.268-21.548-41.01-28.01-63.57-.39-1.354 1.65-2.205 2.044-.844 7.937 27.695 20.974 52.996 36.316 77.318 12.34 19.56 25.825 36.764 32.275 59.36.384 1.353-1.647 2.206-2.036.84zM93.016 227.085c10.044 36.895 38.305 69.34 55.974 102.977 13.22 25.162 31.184 63.738 7.42 88.137-.984 1.01-2.738-.335-1.75-1.355 27.018-27.734-.676-73.73-15.756-100.793-15.753-28.264-39.315-56.482-47.93-88.12-.37-1.36 1.664-2.216 2.042-.847z"/><path fill="#DB0D15" d="M142.33 423.558c4.966-37.057 7.42-73.266-6.927-108.63-10.668-26.304-28.01-49.68-41.694-74.458-.688-1.246 1.36-2.072 2.042-.846 16.478 29.844 36.388 57.63 47.554 90.113 10.096 29.365 5.22 64.19 1.21 94.14-.19 1.41-2.376 1.095-2.187-.32z"/><path fill="#DB0D15" d="M89.55 247.16c19.106 28.714 33.527 62.733 41.626 96.188 6.412 26.477 13.287 63.686-11.444 83.115-1.123.88-2.46-.877-1.338-1.758 28.125-22.096 14.744-68.766 5.943-97.21-8.477-27.42-20.617-55.063-36.538-78.99-.787-1.18.964-2.526 1.75-1.346zM211.77 275.204c-29.255-46.62-99.765-22.54-131.317-66.77-.826-1.16.93-2.5 1.757-1.343 31.41 44.044 101.878 19.866 131.316 66.77.752 1.196-1 2.545-1.757 1.344z"/><path fill="#DB0D15" d="M83.577 207.48c4.322 22.534-1.81 45.147 1.43 67.753.208 1.414-1.986 1.684-2.187.275-3.245-22.604 2.886-45.24-1.433-67.752-.27-1.4 1.924-1.665 2.19-.277z"/><path fill="#DB0D15" d="M85.057 273.45c-18.35-24.486-30.705-41.996-37.923-72.107-6.144-25.64-13.61-47.125-32.527-66.152-11.054-11.104-23.4-20.954-35.545-30.82-21.673-17.606-43.492-34.876-62.55-55.374-9.16-9.863-16.735-20.9-23.31-32.605-8.078-14.384-8.48-33.26-19.29-45.71-.934-1.08.828-2.412 1.757-1.344 7.52 8.666 8.694 17.164 11.817 28.072 4.82 16.855 15.413 31.752 26.34 45.16C-64.447 69.23-35.3 89.644-8.917 111.348 11.77 128.354 30.24 145.06 40.57 170.22c6.952 16.945 9.645 35.852 14.532 53.398 5.33 19.166 20.144 33.055 31.706 48.488.855 1.14-.902 2.483-1.75 1.344zM217.466 275.095c-5.375-21.094-3.652-40.055-20.578-57.04-11.148-11.19-27.426-17.753-41.328-24.83-17.086-8.7-35.198-17.978-44.104-35.784-.64-1.276 1.408-2.108 2.04-.845 13.925 27.834 51.265 36.906 75.94 52.842 24.932 16.102 23.585 39.365 30.218 65.387.35 1.378-1.846 1.632-2.188.27zM133.13 169.288c-17.16-13.002-25.93-33.29-38.104-50.523-17.017-24.108-42.895-40.88-62.84-62.428-41.228-44.564-90.872-76.81-149.47-93.39-1.37-.388-.48-2.413.872-2.03C-62.626-23.86-16.152 4.327 23.364 43.743c18.928 18.89 39.346 36.62 57.908 55.815 19.854 20.533 30.436 50.73 53.216 67.982 1.135.86-.22 2.604-1.357 1.748zM71.445 156.278c-.443-9.48-7.65-15.982-14.14-22.05-1.03-.96.315-2.712 1.36-1.74 6.91 6.466 14.502 13.437 14.97 23.52.067 1.41-2.12 1.694-2.19.27zM57.108 143.405c-4.36-5.623-8.324-11.537-12.685-17.154-.875-1.13.883-2.468 1.757-1.343 4.354 5.625 8.323 11.533 12.68 17.152.876 1.13-.878 2.466-1.752 1.345z"/><path fill="#DB0D15" d="M73.694 160.472c-22.467-9.133-24.562-37.785-44.824-49.45-1.215-.702-.363-2.74.865-2.028 20.28 11.668 22.6 40.412 44.83 49.45 1.315.534.446 2.565-.87 2.028z"/><path fill="#DB0D15" d="M67.253 148.216c-16.248-12.99-25.043-32.428-42.61-44.055C7.667 92.924-2.244 80.457-14.816 64.54c-.885-1.12.874-2.46 1.76-1.346C-.995 78.48 9.27 91.892 25.998 102.417c17.878 11.248 26.345 31.055 42.61 44.057 1.112.888-.24 2.634-1.355 1.742zM212.774 265.43C189.9 217.37 137.096 194.514 96.22 164.512c-1.145-.844.21-2.586 1.36-1.742 41.262 30.29 94.133 53.28 117.24 101.813.614 1.287-1.436 2.125-2.046.846z"/><path fill="#DB0D15" d="M216.294 272.51c-13.38-12.644-25.7-26.284-37.967-39.993-.948-1.066.81-2.396 1.758-1.344 12.14 13.57 24.324 27.082 37.562 39.596 1.03.967-.322 2.72-1.353 1.74z"/><path fill="#DB0D15" d="M207.788 260.685c-11.815-10.63-20.038-24.55-32.428-34.605-1.105-.893.248-2.64 1.352-1.74 12.404 10.066 20.612 23.975 32.43 34.605 1.054.947-.295 2.697-1.354 1.74z"/><path fill="#DB0D15" d="M210.18 262.503c-20.77-29.572-46.405-58.926-79.264-75.207-1.265-.63-.405-2.662.874-2.03 33.145 16.427 59.193 46.062 80.147 75.894.82 1.165-.933 2.51-1.756 1.343zM135.14 194.798c-15.194-9.86-29.528-20.902-43.813-32.016-1.126-.877.226-2.615 1.353-1.746 14.29 11.117 28.62 22.158 43.818 32.02 1.198.77-.17 2.507-1.358 1.742zM128.468 195.802c-16.176-7.793-27.424-22.053-41.753-32.447-1.157-.834.204-2.576 1.354-1.74 14.163 10.277 25.272 24.453 41.27 32.158 1.273.617.415 2.65-.872 2.03z"/><path fill="#DB0D15" d="M126.64 201.712c-16.843-11.287-30.855-25.924-45.03-40.28-.997-1.02.77-2.345 1.757-1.35 14.047 14.233 27.935 28.704 44.627 39.888 1.185.797-.18 2.53-1.354 1.742zM120.97 201.42c-14.06-7.86-27.115-17.077-38.87-28.116-1.034-.967.313-2.72 1.353-1.742 11.62 10.908 24.48 20.06 38.386 27.832 1.233.683.376 2.724-.87 2.027zM65.596 239.56c-10.124-14.2-12.77-29.842-15.536-46.75-4.53-27.658-15.29-51.348-38.45-68.096-1.155-.838.205-2.574 1.358-1.744 15.454 11.172 25.287 24.578 32.32 42.268 9.568 24.06 6.52 51.176 22.06 72.98.826 1.156-.922 2.5-1.752 1.342z"/><path fill="#DB0D15" d="M51.255 210.337c-8.692-44.37-36.16-71.34-70.494-98.174-1.122-.877.234-2.617 1.358-1.742 34.96 27.32 62.518 54.67 71.33 99.644.273 1.398-1.922 1.665-2.193.273zM77.782 119.97c-12.634-8.143-21.193-20.428-31.046-31.494-.947-1.068.815-2.398 1.754-1.346 9.727 10.924 18.173 23.06 30.65 31.094 1.195.775-.17 2.51-1.358 1.746z"/><path fill="#DB0D15" d="M64.47 108.52C49.22 92.53 32.872 77.645 17.623 61.66c-.984-1.03.783-2.356 1.755-1.34C34.624 76.302 50.972 91.19 66.22 107.175c.983 1.036-.783 2.36-1.753 1.343z"/><path fill="#DB0D15" d="M48.087 97.903c-19.207-16.486-33.508-37.412-50.5-56-.96-1.055.803-2.383 1.756-1.34 16.862 18.45 31.03 39.23 50.103 55.598 1.074.925-.273 2.677-1.36 1.743z"/><path fill="#DB0D15" d="M17.388 58.4C3.96 44.95-10.405 32.484-23.836 19.037c-.988-.992.354-2.748 1.354-1.744C-9.047 30.742 5.32 43.21 18.746 56.66c.997.99-.353 2.747-1.358 1.74z"/><path fill="#DB0D15" d="M13.153 63.388C-5.94 38.99-28.263 6.216-59.93-1.937c-1.36-.352-1.058-2.543.323-2.186C-27.31 4.197-4.523 37.22 14.91 62.047c.876 1.12-.876 2.46-1.757 1.34zM319.854 504.7c-1.67.316-2.582 1.186-3.59 2.465-.88 1.12-2.625-.234-1.742-1.355 1.404-1.78 2.795-2.87 5.06-3.303 1.403-.266 1.667 1.926.272 2.193zM283.527 484.085c-7.088-9.043-11.805-19.486-16.72-29.803-.61-1.29 1.437-2.127 2.044-.846 4.83 10.14 9.462 20.414 16.435 29.307.877 1.12-.88 2.46-1.758 1.342zM277.044 490.13c-1.412.174-1.686-2.016-.273-2.193 1.413-.174 1.688 2.013.274 2.193zM280.646 490.853c-1.412.176-1.68-2.016-.27-2.19 1.415-.18 1.686 2.014.27 2.19zM257.017 432.897c-1.414.178-1.686-2.014-.27-2.19 1.413-.18 1.686 2.013.27 2.19zM97.41 271.33c2.437 10.548 3.927 21.298 7.414 31.577.458 1.344-1.58 2.193-2.04.842-3.546-10.466-5.09-21.407-7.567-32.144-.32-1.388 1.872-1.648 2.192-.275z"/><path fill="#DB0D15" d="M89.407 263.835c6.293 13.166 12.526 26.35 17.864 39.938.523 1.324-1.516 2.166-2.033.842-5.342-13.586-11.58-26.766-17.873-39.932-.617-1.29 1.43-2.123 2.043-.848zM95.87 286.692c-1.414.172-1.687-2.02-.274-2.193s1.688 2.013.275 2.192z"/><path fill="#DB0D15" d="M92.44 259.946c5.914 18.613 11.29 37.643 20.89 54.783.692 1.235-1.355 2.065-2.046.843-9.592-17.14-14.972-36.162-20.89-54.783-.43-1.346 1.61-2.203 2.045-.844z"/><path fill="#DB0D15" d="M91.933 255.614c1.166 7.645 3.068 15.035 5.11 22.5.375 1.36-1.368 2.127-2.042.842-9.972-19.02-6.757-40.602-8.855-61.264-.144-1.424 1.94-1.668 2.192-.277 2.355 13.012-.033 26.328-2.172 39.213-.204 1.21-2.074 1.248-2.188-.018-.967-10.96-.09-21.328 1.88-32.152.26-1.404 2.343-1.104 2.19.31-1.32 11.753-3.2 23.41-4.844 35.114-1.93 13.79.386-2.162 1.26-6.7 1.1-5.698 1.796-11.483 2.832-17.194.218-1.168 2.2-1.27 2.196.02-.038 8.806-.288 17.513-1.454 26.25-.193 1.442-2.225 1.067-2.18-.32.426-14.517.996-29.024 1.588-43.538.05-1.16 1.697-1.176 2.117-.262 3.925 8.596 11.058 14.064 19.542 17.754 5.848 1.25 6.205.375 1.073-2.635-3.55-2.863-7.34-5.428-11.11-7.996-3.12-1.554-5.665-3.788-7.63-6.702 2.792 2.387 5.957 4.348 9.033 6.332 7.443 4.793 15.763 8.432 24.407 10.318 1.412.305 1.095 2.234-.314 2.184-12.145-.447-22.235-5.035-32.373-11.473-1.062-.673-.005-2.444 1.11-1.886 7.8 3.895 15.627 7.67 23.64 11.104 1.318.568.464 2.482-.87 2.03-11.332-3.864-21.19-9.483-28.553-19.087-.662-.87.295-2.147 1.313-1.687 19.875 9.018 36.558 21.994 58.974 24.15 1.416.137 1.096 2.32-.318 2.186-14.002-1.347-25.847-6.274-38.066-13.067-5.833-3.242-11.612-6.53-17.595-9.49-4.01-1.98 9.236 7.65 9.355 7.74 2.523 1.365 5.04 2.742 7.556 4.11 4.077.12 5.11 1.233 3.1 3.33-2.69-1.185-5.364-2.413-8.017-3.683-1.845-.87-12.24-8.428-3.412-3.346 4.955 2.852 10.306 4.672 15.83 6.074.428.11 5.493 2.422 4.692 2.18-12.205-3.686-23.52-10.02-33.208-18.297-.903-.776-.015-2.548 1.113-1.888 10.573 6.184 20.505 13.043 29.794 21.05.658.563.497 1.944-.54 1.968-7.453.15-13.485-2.746-19.565-6.914-3.068-2.102-5.474-4.916-7.815-7.756-4.638-5.605-1.44 3.088-1.642 8.148-.26 6.445-.49 12.89-.712 19.342 1.456 3.44.81 5.285-1.936 5.53.566-4.214.653-8.5.802-12.737 1.718-6.006 1.995-6.102.837-.285-.436 2.926-.902 5.842-1.4 8.76-.964 5.854-2.526 11.324-4.745 16.816-.48 1.19-2.244.627-2.107-.594.756-6.74 1.67-13.443 2.658-20.145.495-3.32.995-6.64 1.477-9.96.234-1.67.473-3.337.702-5.005-1.093-4.535-.285-6.016 2.43-4.445-.59 3.545-1.003 7.113-1.255 10.697.34-3.684-2.624 20.734-.588 7.787 1.252-8.01 2.013-16.02 1.83-24.136-.21-9.693 2.07 3.33 2.17 5.988.29 7.592.317 15.16.858 22.74.443 6.273 2.83 18.05 3.652 21.07-1.674-6.094-3.033-12.178-3.99-18.428-.217-1.405 1.98-1.676 2.19-.27z"/><path fill="#DB0D15" d="M146.478 241.72c-22.922 3.246-44.054-8.102-59.105-24.795-.95-1.06.81-2.39 1.753-1.344 14.528 16.11 34.94 27.085 57.08 23.95 1.407-.2 1.682 1.99.272 2.19zM213.503 261.823c-5.232-19.113-13.105-35.186-28.818-48.02-12.068-9.86-27.988-13.01-39.59-23.77-1.037-.96.31-2.71 1.355-1.744 12.508 11.604 29.694 15.68 42.852 26.433 14.45 11.805 21.458 28.777 26.246 46.256.366 1.357-1.67 2.212-2.045.843zM178.964 236.17c-32.06-21.663-70.348-30.647-103.498-50.323-1.22-.727.148-2.46 1.355-1.744 33.155 19.682 71.435 28.654 103.5 50.326 1.18.798-.183 2.534-1.356 1.74zM109.878 159.466c-17.774-7.494-22.763-32.29-33.158-46.623-.837-1.154.923-2.496 1.76-1.346 10.233 14.115 15.037 38.678 32.272 45.94 1.31.552.442 2.582-.874 2.03z"/><path fill="#DB0D15" d="M100.698 153.413c-12.85-9.533-19.266-25.535-26.28-39.377-.646-1.273 1.4-2.105 2.043-.848 6.848 13.527 13.05 29.172 25.596 38.48 1.142.853-.212 2.593-1.358 1.745z"/><path fill="#DB0D15" d="M90.323 145.34C73.2 134.914 63.763 114.19 52.65 98.28c-.815-1.17.937-2.512 1.75-1.346 10.992 15.734 20.39 36.373 37.28 46.66 1.21.745-.16 2.477-1.357 1.747z"/><path fill="#DB0D15" d="M83.35 137.788c-8.44-12.14-14.064-26.076-24.5-36.768-.997-1.02.77-2.35 1.753-1.346 10.44 10.703 16.057 24.625 24.5 36.768.81 1.168-.944 2.51-1.753 1.346zM71.53 127.548c-10.804-13.812-19.175-29.3-29.983-43.11-.876-1.126.882-2.464 1.755-1.345 10.806 13.812 19.177 29.3 29.983 43.11.88 1.128-.878 2.462-1.755 1.345zM58.274 115.146c-9.02-13.045-21.076-23.7-29.263-37.342-.73-1.21 1.02-2.564 1.753-1.342 8.186 13.635 20.245 24.3 29.26 37.342.807 1.17-.944 2.51-1.75 1.342z"/><path fill="#DB0D15" d="M47.888 107.07C31.458 85.996 15.718 64.4.042 42.767c-.836-1.15.916-2.494 1.757-1.344 15.68 21.64 31.408 43.23 47.844 64.303.88 1.128-.883 2.463-1.756 1.346zM5.214 116.42c-7.354-.882-12.912-7.698-18.396-12.042-1.112-.883.245-2.63 1.358-1.742 5.114 4.057 10.512 10.78 17.353 11.605 1.417.165 1.097 2.355-.316 2.18zM62.144 241.708c-1.41.178-1.685-2.014-.272-2.19 1.41-.177 1.686 2.014.272 2.19zM138.72 428.022c3.842-3.758 7.743-5.633 12.273-8.58 6.223-4.053 9.117-13.44 10.78-20.2 2.97-12.03 1.1-25.28-2.492-36.952-.41-1.352 1.628-2.2 2.045-.844 3.847 12.518 4.96 25.2 2.64 38.117-1.053 5.822-3.573 11.154-6.683 16.127-4.13 6.61-11.858 8.838-17.22 14.084-1.02.995-2.345-.767-1.34-1.752z"/><path fill="#DB0D15" d="M149.94 335.93c16.43 32.64 17.522 67.106-9.88 93.845-1.02.994-2.345-.77-1.34-1.752 26.78-26.135 25.056-59.71 9.177-91.248-.64-1.274 1.41-2.112 2.043-.844z"/><path fill="#DB0D15" d="M133.76 427.646c20.295-22.785 18.47-54.72 15.073-83.088-.17-1.41 2.02-1.686 2.188-.27 3.472 28.923 5.14 61.517-15.514 84.716-.947 1.058-2.69-.292-1.746-1.358z"/><path fill="#DB0D15" d="M148.497 333.77c9.114 24.667 14.263 55.245-1.027 78.51-.78 1.194-2.517-.17-1.744-1.354 14.812-22.535 9.53-52.504.732-76.314-.492-1.334 1.546-2.183 2.04-.843z"/><path fill="#DB0D15" d="M136.657 425.788c43.926-6.602 22.91-76.975.053-96.498-1.077-.922.273-2.67 1.354-1.74 24.233 20.697 45.304 93.45-1.134 100.43-1.41.21-1.675-1.983-.273-2.192z"/><path fill="#DB0D15" d="M166.494 373.103c-10.278-31.268-37.895-52.768-47.997-84.193-.432-1.348 1.605-2.2 2.046-.842 10.09 31.42 37.702 52.9 47.99 84.19.438 1.348-1.6 2.198-2.04.845z"/><path fill="#DB0D15" d="M153.673 341.405c-30.945-14.77-41.25-62.402-52.896-91.28-.534-1.32 1.502-2.16 2.04-.84 11.445 28.374 21.702 75.76 51.726 90.09 1.282.612.42 2.646-.87 2.03zM255.925 346.038c-22.018-16.91-48.104-26.902-68.78-45.67-18.313-16.607-29.176-43.852-40.236-65.37-.652-1.267 1.39-2.103 2.037-.845 13.996 27.225 26.714 55.127 51.334 74.428 17.647 13.837 39.134 21.993 57.003 35.714 1.13.865-.227 2.61-1.358 1.744z"/><path fill="#DB0D15" d="M155.378 241.054c30.436 25.29 40.69 72.58 83.516 81.826 1.377.3 1.075 2.484-.322 2.184-43.5-9.393-53.635-56.58-84.55-82.266-1.093-.904.26-2.652 1.356-1.744z"/><path fill="#DB0D15" d="M228.784 323.827c-30.245-17.402-48.244-44.924-65.877-74.164-.732-1.207 1.02-2.56 1.752-1.344 17.35 28.774 35.135 56.294 64.992 73.474 1.218.703.37 2.74-.868 2.033z"/><path fill="#DB0D15" d="M160.84 244.677c6.81 29.39 25.558 57.36 53.823 69.623 1.3.568.438 2.6-.87 2.033-29.017-12.59-48.156-41.23-55.144-71.383-.32-1.387 1.874-1.646 2.19-.273z"/><path fill="#DB0D15" d="M214.79 312.806c-20.952-4.04-34.055-29.357-41.792-47.102-.572-1.307 1.468-2.143 2.034-.844 7.354 16.838 20.138 41.916 40.074 45.758 1.39.27 1.088 2.46-.316 2.188zM93.468 552.378c9.39-15.89-.494-28.133-5.682-43.186-.46-1.34 1.582-2.188 2.045-.842 5.616 16.3 15.246 28.69 5.384 45.39-.73 1.22-2.465-.15-1.746-1.362zM88.042 546.45c-1.412.178-1.686-2.018-.272-2.19 1.417-.18 1.69 2.012.272 2.19z"/><path fill="#DB0D15" d="M87.642 550.9c5.71-12.978 6.896-25.556 1.303-38.81-3.156-7.493-4.938-14.63-4.887-22.78-.002-1.404 2.192-1.693 2.184-.273-.064 12.39 6.042 22.383 8.382 34.178 1.923 9.658-1.102 19.816-4.953 28.56-.577 1.3-2.606.435-2.028-.874z"/><path fill="#DB0D15" d="M88.836 541.9c.8-32.923-7.217-64.892-11.58-97.33-.19-1.41 2-1.683 2.19-.27 4.395 32.64 12.378 64.8 11.572 97.92-.036 1.422-2.22 1.092-2.182-.32z"/><path fill="#DB0D15" d="M86.962 536.96c-3.478-23.994-9.564-47.486-12.583-71.555-3.422-27.258 7.135-65.5-30.292-73.967-1.376-.31-1.07-2.5.315-2.18 16.123 3.64 27.678 16.125 30.664 32.7 3.102 17.214.438 34.694 2.62 52.116 2.644 21.037 8.42 41.617 11.467 62.61.2 1.413-1.988 1.682-2.192.276z"/><path fill="#DB0D15" d="M43.106 396.212c26.854 12.81 34.34 27.816 30.014 56.76-3.898 26.062 2.85 47.3 9.43 72.137 3.084 11.624 3.758 21.978-.585 33.097-.522 1.328-2.546.455-2.03-.87 9.187-23.532-6.082-50.438-10.204-73.837-1.806-10.22-.253-20.715 1.21-30.844 3.715-25.822-4.714-42.97-28.702-54.414-1.282-.608-.424-2.643.868-2.03z"/><path fill="#DB0D15" d="M85.13 549.81c-17.266-3.37-34.436-15.12-42.257-30.854-6.534-13.135-6.725-29.838-9.238-44.014-4.137-23.41-15.346-45.516-24.752-67.125-.563-1.31 1.477-2.148 2.048-.846 10.622 24.423 21.486 48.396 26.15 74.77 5.403 30.57 13.602 59.095 48.362 65.886 1.398.27 1.086 2.46-.312 2.184zM136.485 476.433c-8.305-4.043-16.916-7.39-24.94-11.984-8.4-4.812-12.705-12.32-19.81-18.466-1.074-.924.278-2.672 1.36-1.742 6.242 5.406 10.512 12.28 17.454 17.012 8.192 5.588 17.934 8.83 26.798 13.146 1.277.622.416 2.654-.863 2.033z"/><path fill="#DB0D15" d="M140.954 484.82c-9.688-7.53-21.207-12.11-30.78-19.8-8.895-7.145-14.42-18.58-21.48-27.393-.896-1.113.866-2.45 1.756-1.344 7.78 9.72 13.797 21.146 23.61 29.027 8.674 6.963 19.428 10.91 28.252 17.766 1.12.876-.24 2.616-1.358 1.745z"/><path fill="#DB0D15" d="M133.494 489.778c-8.394-9.04-19.09-15.31-27.724-24.09-8.896-9.05-14.033-22.557-20.284-33.398-.713-1.23 1.335-2.053 2.036-.842 7.615 13.193 13.582 27.375 25.072 37.754 7.408 6.686 15.816 11.87 22.653 19.232.972 1.05-.795 2.378-1.753 1.344z"/><path fill="#DB0D15" d="M131.374 495.74c-11.24-8.737-20.076-19.116-28.116-30.835-7.93-11.57-8.864-29.355-20.572-37.85-1.155-.838.208-2.58 1.358-1.744 8.22 5.97 10.88 15.978 14.225 25.142 6.228 17.066 20.353 32.58 34.463 43.54 1.123.878-.236 2.62-1.36 1.747zM280.048 491.59c-1.666-14.032-12.115-26.34-19.75-37.698-.79-1.184.96-2.525 1.758-1.346 7.816 11.64 18.48 24.37 20.186 38.768.164 1.412-2.032 1.687-2.194.275z"/><path fill="#DB0D15" d="M276.984 491.046c-7.11-13.363-14.756-26.41-21.31-40.066-8.156-17.006-13.265-35.352-21.245-52.473-.598-1.293 1.442-2.13 2.042-.844 7.04 15.1 12.43 30.82 18.547 46.303 6.37 16.133 15.888 30.965 23.998 46.238.67 1.256-1.378 2.088-2.034.842zM253.645 459.923c-8.713-26.21-21.208-50.857-32.003-76.232-.56-1.306 1.48-2.15 2.04-.84 10.798 25.37 23.288 50.02 32.006 76.23.446 1.343-1.597 2.192-2.043.843zM228.962 412.22c-4.82-7.883-8.738-16.195-11.735-24.94-.46-1.34 1.578-2.188 2.043-.845 2.932 8.562 6.727 16.72 11.444 24.44.735 1.208-1.012 2.558-1.752 1.345zM228.74 353.688c-28.03-16.21-44.277-44.484-63.194-69.7-.85-1.142.903-2.48 1.757-1.343 18.628 24.838 34.665 53.027 62.308 69.014 1.216.704.362 2.74-.87 2.028zM206.155 346.384c-12.67-14.053-23.64-29.27-34.177-44.963-8.535-12.708-19.357-22.897-25.423-37.208-.557-1.314 1.485-2.15 2.043-.846 6.726 15.87 19.156 27.814 28.646 41.943 9.354 13.93 19.43 27.27 30.67 39.73.952 1.063-.81 2.393-1.76 1.344z"/><path fill="#DB0D15" d="M172.206 308.077c-14.87-21.373-32.35-40.984-43.45-64.74-.608-1.29 1.44-2.13 2.04-.844 11.02 23.586 28.398 43.03 43.157 64.238.813 1.17-.94 2.515-1.747 1.347zM132.746 239.55c4.1 4.37 7.24 9.408 10.32 14.518.728 1.207-1.02 2.56-1.755 1.344-3.077-5.11-6.22-10.148-10.32-14.518-.98-1.043.788-2.372 1.756-1.344zM148.675 244.515c2.312 4.816 4.772 9.557 7.25 14.29.665 1.26-1.383 2.095-2.037.843-2.483-4.73-4.94-9.47-7.252-14.287-.62-1.287 1.422-2.12 2.04-.845zM148.82 250.577c4.033 7.56 7.933 15.188 12.425 22.49.736 1.207-1.014 2.557-1.76 1.346-4.58-7.47-8.582-15.264-12.7-22.994-.673-1.26 1.374-2.09 2.036-.843z"/><path fill="#DB0D15" d="M142.54 244.062c5.698 16.633 17.997 29.203 28.348 42.998.857 1.143-.9 2.48-1.752 1.344-10.47-13.95-22.882-26.69-28.637-43.494-.462-1.343 1.58-2.194 2.04-.848zM166.294 247.823c-16.202-6.8-32.904-12.31-50.594-13.02-1.422-.056-1.09-2.243.32-2.187 17.88.717 34.772 6.3 51.146 13.176 1.307.553.442 2.584-.872 2.03zM322.198 306.56c27.203-14.54 33.854-43.713 25.363-71.63-6.75-22.204-36.938-28.04-53.95-41.46-1.117-.883.238-2.63 1.355-1.746 25.28 19.94 50.58 19.908 57.798 54.754 5.29 25.486-7.395 50.188-29.72 62.12-1.257.674-2.09-1.374-.845-2.038z"/><path fill="#DB0D15" d="M295.017 190.726c10.73 12.63 27.957 16.43 37.95 29.367 8.933 11.566 14.16 23.424 15.337 38.05 1.926 23.872-19.402 43.1-37.21 54.874-1.183.783-2.528-.97-1.337-1.756 25.564-16.897 43.38-40.474 32.096-72.276-8.582-24.18-33.416-29.062-48.59-46.912-.926-1.09.834-2.425 1.754-1.346z"/><path fill="#DB0D15" d="M317.77 302.815c12.577-2.168 24.544-15.176 29.796-26.266.61-1.282 2.646-.423 2.03.87-5.612 11.846-18.13 25.27-31.554 27.588-1.404.24-1.668-1.954-.273-2.193zM308.905 312.185c-18.38 5.734-38.513-5.168-55.938-10.037-17.177-4.793-30.3-10.45-38.785-26.93-.654-1.268 1.395-2.1 2.043-.846 9.173 17.824 23.24 21.145 40.88 26.658 15.69 4.904 34.356 14.29 50.952 9.117 1.35-.423 2.206 1.612.848 2.038z"/><path fill="#DB0D15" d="M205.98 261.405c22.147 28.943 54.347 52.604 91.81 54.277 1.426.06 1.094 2.244-.318 2.182-37.998-1.695-70.78-25.746-93.244-55.12-.867-1.134.888-2.466 1.753-1.34zM100.794 294.253c13.244 36.06 36.63 87.79 7.756 122.885-.9 1.1-2.646-.252-1.746-1.354 28.42-34.543 5.002-85.16-8.054-120.69-.49-1.333 1.55-2.177 2.044-.84z"/><path fill="#DB0D15" d="M108.907 415.407c3.453-15.783 10.1-27.863 10.212-44.81.12-18.724-7.12-36.915-10.574-55.144-.267-1.393 1.932-1.66 2.193-.27 3.49 18.43 10.006 36.268 10.57 55.143.51 17.28-6.616 28.932-10.22 45.393-.303 1.384-2.493 1.078-2.183-.313z"/><path fill="#DB0D15" d="M114.398 329.923c5.83 23.688 11.63 45.045 1.704 68.424-.553 1.307-2.58.44-2.03-.873 9.767-22.998 3.825-44.16-1.862-67.275-.34-1.385 1.853-1.644 2.188-.277z"/><path fill="#DB0D15" d="M116.093 385.333c.385-13.82.81-27.514-.824-41.27-1.848-15.527-9.907-27.75-17.344-40.965-.694-1.244 1.353-2.07 2.043-.846 6.686 11.885 13.103 22.42 16.46 35.793 3.827 15.268 2.285 32.035 1.853 47.604-.043 1.417-2.225 1.09-2.19-.317z"/><path fill="#DB0D15" d="M110.362 331.644c2.48 12.754 4.197 25.61 7.568 38.184 2.096 7.844 3.104 8.418 5.235.273 1.12-4.28 1.145-9.015 1.16-13.388.054-14.37-2.258-38.96-14.54-48.523-1.124-.878.232-2.62 1.36-1.743 9.575 7.46 12.044 22.912 13.962 34.098 1.944 11.365 4.332 29.7-4.208 39.193-.538.592-1.574.562-1.895-.258-5.966-15.29-7.72-31.545-10.835-47.562-.27-1.4 1.92-1.665 2.192-.274z"/><path fill="#DB0D15" d="M110.308 312.38c-10.832-9.27-13.965-24.582-20.082-36.885-.635-1.277 1.41-2.11 2.043-.846 5.91 11.894 8.942 27.04 19.397 35.987 1.078.923-.274 2.673-1.36 1.743zM294.115 489.647c16.63-17.586 33.263-50.758 27.992-75.035-.305-1.393 1.887-1.652 2.188-.27 3.146 14.474-.113 26.034-6.107 39.296-5.88 13.002-12.446 26.912-22.33 37.365-.974 1.025-2.726-.324-1.743-1.356z"/><path fill="#DB0D15" d="M323.37 413.8c-6.26-9.62-6.027-20.162-4.47-31.22 2.558-18.112 8.302-32.16 6.208-51.005-.156-1.41 2.033-1.688 2.19-.27 1.14 10.29 1.247 19.672-.763 29.855-3.352 16.97-12.117 34.846-1.41 51.297.77 1.19-.978 2.536-1.755 1.343z"/><path fill="#DB0D15" d="M321.437 396.894c3.582-5.574 5.123-12.11 7.262-18.314.464-1.346 2.49-.467 2.024.875-2.213 6.404-3.84 13.035-7.547 18.793-.772 1.198-2.51-.17-1.74-1.354z"/><path fill="#DB0D15" d="M321.282 390.83c4.63-7.66 7.193-16.366 9.36-24.98.35-1.368 2.532-1.067 2.185.313-2.268 9.02-4.957 18.016-9.803 26.023-.736 1.217-2.462-.154-1.742-1.357zM322.71 379.33c3.195-9.57 7.607-18.757 9.055-28.823.207-1.406 2.393-1.094 2.186.318-1.474 10.26-5.95 19.62-9.21 29.375-.446 1.348-2.473.473-2.03-.87zM321.515 365.772c2.145-7.812 4.03-15.662 4.94-23.72.157-1.41 2.347-1.095 2.19.32-.913 8.056-2.794 15.907-4.94 23.712-.372 1.354-2.57 1.058-2.19-.312zM323.388 404.167c1.283-2.852 2.744-5.596 4.633-8.1.858-1.14 2.593.22 1.74 1.36-1.778 2.353-3.138 4.93-4.35 7.612-.577 1.29-2.618.43-2.022-.873zM324.35 410.51c2.423-3.173 4.57-6.552 6.657-9.954.742-1.21 2.484.158 1.746 1.36-2.096 3.394-4.238 6.778-6.658 9.95-.87 1.133-2.612-.224-1.744-1.355zM326.222 415.747c1.027-1.22 2.164-2.156 3.484-3.043 1.18-.793 2.527.96 1.346 1.754-1.156.773-2.186 1.572-3.092 2.645-.916 1.082-2.66-.268-1.738-1.356zM386.097 436.306c-23.783 1.904-46.762-10.47-68.494-18.344-1.34-.486-.467-2.514.867-2.033 21.363 7.737 44.033 20.054 67.354 18.185 1.413-.116 1.695 2.073.273 2.19zM395.41 440.253c31.835-15.867-2.913-51.768-9.048-71.83-5.105-16.69 13-32.016 11.906-48.904-1.807-27.868-31.8-41.474-39.855-66.198-5.545-17.016-7.324-29.018-22.393-41.447-13.473-11.113-27.428-16.66-44.51-19.682-1.397-.25-1.09-2.434.32-2.188 19.864 3.518 51.88 14.71 60.793 35.213 8.457 19.447 8.268 34.11 24.215 51.33 9.057 9.77 18.613 23.67 22.06 36.78 2.626 9.972 1.8 15.987-2.36 25.27-5.176 11.55-10.99 19.648-6.348 34.848 2.53 8.266 9.383 15.037 13.242 22.676 7.895 15.672 11.055 37.086-7.174 46.168-1.28.635-2.114-1.408-.85-2.037z"/></g></svg>