<svg version="1" xmlns="http://www.w3.org/2000/svg" xmlns:xlink="http://www.w3.org/1999/xlink" viewBox="0 0 261.7 376.3"><defs><path id="a" d="M9.8 0h251.9v370.7H9.8z"/></defs><clipPath id="b"><use xlink:href="#a" overflow="visible"/></clipPath><g clip-path="url(#b)"><path fill="#FDED00" d="M-52.9 69.9c21.2 7.5 43.5-3.4 65.1.1.6.1.4 1-.2.9-21.7-3.5-43.9 7.5-65.1-.1-.6-.2-.4-1.1.2-.9z"/><path fill="#FDED00" d="M-20.8 67.9c16.3 2 32.7 0 49.1 0 .6 0 .6.9 0 .9-16.5.1-32.9 2-49.3 0-.6 0-.4-.9.2-.9z"/><path fill="#FDED00" d="M5.3 66.6c11.6 2.9 23.5 4.2 34.9 7.8.6.2.3 1.1-.2.9-11.4-3.7-23.3-5-34.9-7.8-.7-.1-.4-1.1.2-.9z"/><path fill="#FDED00" d="M17.8 70.2c5.6 1.4 11.2 1.7 16.9 1.9.6 0 .6 1 0 .9-5.8-.2-11.5-.6-17.2-1.9-.5-.2-.3-1.1.3-.9z"/><path fill="#FDED00" d="M34.2 75.1c-9.1-4.3-19.1-4.8-28.9-6.3-.6-.1-.4-1 .2-.9 9.9 1.5 20 2 29.2 6.4.6.2.1 1.1-.5.8zM42.6 72.5c8.1 1.2 16.3-.7 24.2-2.4.6-.1.9.8.3.9-8.1 1.7-16.4 3.6-24.7 2.4-.7 0-.4-.9.2-.9z"/><path fill="#FDED00" d="M50.1 73c8.8-.1 17.3-1.7 25.9.8 10.6 3.1 18.2 12.1 28.9 15.4.6.2.4 1.1-.2.9C97.1 87.8 91 83.3 84.5 79c-11.1-7.3-22-5.2-34.3-5-.7-.1-.7-1-.1-1z"/><path fill="#FDED00" d="M82.9 80.6c12 .7 23.3 4.8 34.5 8.7.6.2.3 1.1-.2.9-11.2-3.9-22.4-7.9-34.3-8.6-.6-.1-.6-1.1 0-1z"/><path fill="#FDED00" d="M78.6 76.6c17.5-1.4 33.3 7.9 48 16.3.5.3.1 1.1-.5.8-14.5-8.2-30.1-17.5-47.5-16.1-.6 0-.6-.9 0-1z"/><path fill="#FDED00" d="M117.8 90.6c6.3 4.1 12.5 8.1 19.9 9.6.6.1.4 1-.2.9-7.5-1.5-13.8-5.5-20.2-9.7-.4-.3 0-1.1.5-.8z"/><path fill="#FDED00" d="M133.8 99.8c-4.2-1.4-8.6-2.2-13.1-2.8-.5-.1-.4-.9.1-.9 5-.1 9.1 2.3 13.6 4.2.2.1.3.5.2.6-2.2 3.4-9.6.3-12.5-.7-.6-.2-.3-1.1.2-.9 1.6.5 3.1 1 4.7 1.5 1.4.4 5.7 1.4 6.6-.1-.4.6-4.7-1.8-5.3-2-2.4-1-4.8-1.6-7.4-1.6 0-.3.1-.6.1-.9 4.4.5 8.8 1.4 13.1 2.8.5.1.3 1-.3.8z"/><path fill="#FDED00" d="M126.7 98.8c1.4 5.7 6.3 9.7 10.4 13.5.5.4-.2 1.1-.7.7-4.3-3.9-9.2-8-10.6-13.9-.2-.7.7-.9.9-.3z"/><path fill="#FDED00" d="M131 109.4c-5.3-1.1-10-3.1-14.5-6-.5-.3 0-1.1.5-.8 4.5 2.8 9.1 4.8 14.3 5.9.5.1.3 1-.3.9z"/><path fill="#FDED00" d="M128 108.6c-7.1-2.3-13.5-6.3-20.2-9.7-.5-.3-.1-1.1.5-.8 6.6 3.3 12.9 7.2 19.9 9.6.7.2.4 1.1-.2.9z"/><path fill="#FDED00" d="M127.2 111.5c-15.3-8.9-30.1-19-48.4-20.1-.6 0-.6-1 0-.9 18.5 1.1 33.3 11.2 48.9 20.2.5.3 0 1.1-.5.8z"/><path fill="#FDED00" d="M99.1 95.4C89.7 95 81 91.8 72 89.3c-.6-.2-.4-1.1.2-.9 8.9 2.4 17.5 5.6 26.8 6.1.6 0 .7 1 .1.9zM106.5 104.9C92.4 100.4 78.9 94.4 64 93.2c-.6-.1-.6-1 0-.9 15 1.3 28.6 7.2 42.8 11.8.5.1.3 1-.3.8z"/><path fill="#FDED00" d="M93.1 100.8C76.8 98 50 96.1 41.8 78.8c-.3-.5.6-1 .8-.5 8 17 34.5 18.8 50.7 21.5.7.2.4 1.1-.2 1z"/><path fill="#FDED00" d="M50.3 85.6c-3.5-2.4-5.5-6-6.4-10-.1-.6.8-.9.9-.3.9 3.8 2.8 7.3 6 9.5.5.3 0 1.1-.5.8zM50.6 77.8c7.2 1.2 14.5 1.7 21.6 3.7.6.2.4 1.1-.2.9-7-2-14.4-2.6-21.6-3.7-.6-.1-.4-1 .2-.9z"/><path fill="#FDED00" d="M53.1 77.2c7.2.4 14.4.4 21.4 2.4.6.2.4 1.1-.2.9-6.9-2-14.1-2-21.2-2.4-.6 0-.6-.9 0-.9z"/><path fill="#FDED00" d="M49.9 75.1c13.1 1.2 25.5 4.8 38 8.6.6.2.3 1.1-.2.9C75.3 80.8 63 77.2 50 76c-.7 0-.7-1-.1-.9z"/><path fill="#FDED00" d="M57.5 74.2c12.5 3.5 24.8 7.1 36.7 12.4.6.3.1 1.1-.5.8-11.8-5.3-24.1-8.8-36.4-12.3-.7-.1-.4-1 .2-.9zM16.9 75.2c9.1 4 19.4 1 28.3 6.1.5.3.1 1.1-.5.8-8.9-5-19.2-2.1-28.3-6.1-.6-.2-.1-1 .5-.8z"/><path fill="#FDED00" d="M45.2 77.7c-12.2 1.9-23.5-4.9-33.7-7.5-2-.5-1.8-1.4.2-.9 10.2 2.6 21.5 9.5 33.5 7.6.6-.1.6.7 0 .8zM18.8 74.3c10.1 19.6 33.2 35.3 55 38 .6.1.4 1-.2.9-22.1-2.7-45.3-18.6-55.6-38.4-.3-.5.5-1 .8-.5z"/><path fill="#FDED00" d="M27 84.1c11.9 16.4 30.7 25.6 50 30.3.6.1.4 1.1-.2.9-19.5-4.8-38.5-14.1-50.6-30.7-.4-.6.4-1 .8-.5z"/><path fill="#FDED00" d="M39.3 95.4c13.3 8.4 33.8 19.7 50 14.9.6-.2.8.7.3.9-16.5 4.9-37.2-6.4-50.7-15-.5-.3-.1-1.1.4-.8z"/><path fill="#FDED00" d="M75.6 111.2c10 3.8 21.4.1 28.2-8 .4-.5 1.1.2.7.7-7 8.3-18.7 12.1-29.1 8.2-.6-.2-.4-1.1.2-.9z"/><path fill="#FDED00" d="M87.8 112.6c5.9-2.5 11.8-4.7 16.8-8.9.5-.4 1.1.3.7.7-5.1 4.3-11.2 6.5-17.2 9.1-.6.3-.9-.6-.3-.9zM121.5 88.1c5.3-4.9 8.6-11.4 11.6-17.9.3-.6 1.1-.1.8.5-3.1 6.5-6.4 13.1-11.8 18.1-.4.3-1.1-.3-.6-.7z"/><path fill="#FDED00" d="M127.2 81c2.1-6.4 5.5-12.1 8.4-18.1.3-.6 1.1-.1.8.5-2.8 5.9-6.2 11.6-8.3 17.8-.2.6-1.1.3-.9-.2zM125.7 76.5c3.5-5.5 6.4-11.4 9.9-16.9.3-.5 1.1 0 .8.5-3.5 5.5-6.4 11.4-9.9 16.9-.3.5-1.2 0-.8-.5zM126.1 72.4c1.8-6.4 5.6-12 9.2-17.6.3-.5 1.2 0 .8.5-3.6 5.5-7.2 11-9.1 17.3-.2.7-1.1.4-.9-.2zM124.3 66.6c3.2-5 6.4-9.9 9.7-14.9.3-.5 1.2 0 .8.5-3.2 5-6.4 9.9-9.7 14.9-.4.5-1.2.1-.8-.5zM121.9 61.7c4.8-4.2 8.9-8.7 12.4-14 .3-.5 1.2 0 .8.5-3.5 5.3-7.8 10-12.6 14.2-.3.3-1-.3-.6-.7z"/><path fill="#FDED00" d="M122.6 55.4c4.8-4.2 9.8-8.1 15.2-11.4.5-.3 1 .5.5.8-5.4 3.2-10.3 7.1-15 11.2-.4.5-1.1-.2-.7-.6z"/><path fill="#FDED00" d="M123.1 83.7c7.3-11.5 2.3-25.7 8.9-37.6 3.1-5.6 7.6-10.2 10.6-15.9 3.7-7.1 3.7-15.6 3.9-23.3 0-.6 1-.6.9 0-.3 12.4-2 21.7-9 32-6.5 9.5-9.6 16.6-9.9 28.3-.2 6.3-1.1 11.7-4.6 17.1-.3.4-1.1 0-.8-.6z"/><path fill="#FDED00" d="M147.7 7.9c3 6.4 8.3 11.8 10.8 18.4 2.8 7.3.6 13.8-3.4 20.3-.3.5-1.1.1-.8-.5 4.5-7.3 6.2-14 2.2-21.9-2.8-5.5-6.9-10.2-9.6-15.8-.3-.5.5-1 .8-.5z"/><path fill="#FDED00" d="M157.1 39.7c2 7.9 9.4 13.9 8.8 22.5 0 .6-1 .6-.9 0 .6-8.5-6.8-14.4-8.8-22.3-.1-.5.8-.7.9-.2z"/><path fill="#FDED00" d="M167.2 58.8c-4.9 12.2-18.7 17.6-26.7 27.4-.4.5-1.1-.2-.7-.7 7.9-9.7 21.7-15 26.5-27 .2-.5 1.1-.3.9.3z"/><path fill="#FDED00" d="M147.8 78.1c1 5.2.4 9.8-2.5 14.4-.3.5-1.1 0-.8-.5 2.7-4.3 3.4-8.6 2.4-13.6-.2-.6.7-.9.9-.3z"/><path fill="#FDED00" d="M147.4 90.8c-5.3 2.5-10.8 4.2-16.6 2.8-.6-.1-.4-1.1.2-.9 5.6 1.3 10.9-.3 15.9-2.7.6-.2 1.1.6.5.8zM124.3 86.1c3.8 2.1 10.5.9 14.4-.5.6-.2.8.7.3.9-4.2 1.4-11 2.7-15.1.4-.6-.2-.1-1.1.4-.8zM135.6 73.5c9.8.3 17.5-6.8 24.6-12.6.5-.4 1.1.3.7.7-7.4 5.9-15.2 13.2-25.3 12.8-.6.1-.6-.9 0-.9z"/><path fill="#FDED00" d="M147.2 72.5c6.3-6.6 11-14.6 17.9-20.6.5-.4 1.1.3.7.7-6.9 6.1-11.6 14-17.9 20.6-.5.4-1.2-.3-.7-.7zM137.1 65.8c6.8-3.6 12.8-8.1 17.9-13.8.4-.5 1.1.2.7.7-5.1 5.8-11.2 10.4-18 14-.7.2-1.2-.6-.6-.9z"/><path fill="#FDED00" d="M125.2 84c5.4-7.8 12.3-14.7 15.7-23.8 3.4-9.2 3.8-18.4 9.4-26.7.3-.5 1.2 0 .8.5-6.1 9.1-6.8 19.7-10.5 29.8-2.8 7.5-10.2 14.3-14.6 20.7-.3.4-1.1 0-.8-.5z"/><path fill="#FDED00" d="M134.1 65.2c4.4-10.8 7.2-27.6 17.9-34.3.5-.3 1 .5.5.8-10.5 6.5-13.2 23.2-17.6 33.9-.2.7-1.1.2-.8-.4zM102.4 103.7c1.3 1.7 6.6 2.5 8.5 3.1 3.6 1.1 7.5 2.3 11.3 2.5.6 0 .6 1 0 .9-4.2-.2-8.5-1.6-12.5-2.8-2.1-.6-6.8-1.3-8.2-3.2-.3-.5.5-1 .9-.5z"/><path fill="#FDED00" d="M106.4 104.4c6.7 1.8 13.6 2.7 20.1 5.1.6.2.3 1.1-.2.9-6.5-2.4-13.4-3.3-20.1-5.1-.7-.1-.4-1 .2-.9z"/><path fill="#FDED00" d="M110.2 105.7c6.6 5.2 16 4.6 23.4 8.4.5.3.1 1.1-.5.8-7.5-3.8-16.8-3.3-23.5-8.6-.6-.3.1-1 .6-.6z"/><path fill="#FDED00" d="M132.8 114.1c-2.7-2.4-5.4-4.7-8.4-6.7-.5-.3 0-1.2.5-.8 3.1 2 5.9 4.4 8.6 6.9.4.3-.2 1-.7.6z"/><path fill="#FDED00" d="M133.3 113.3c.4.1.5-.1.4.2 0-.1-.2-.4-.3-.5-.4-.7-.9-1.2-1.4-1.8-.9-1.1-2-2.3-2.5-3.7-.2-.6.7-.8.9-.3.7 1.9 2.4 3.4 3.6 5 .3.4.8 1.1.6 1.6-.2.6-1 .5-1.5.4-.7-.1-.4-1 .2-.9z"/><path fill="#FDED00" d="M135 114.3c-1.6-2.3-3.2-4.5-4.8-6.8-.4-.5.5-1 .8-.5 1.6 2.3 3.2 4.5 4.8 6.8.4.5-.4 1-.8.5zM129.8 105c3.5-.8 6.6-2.8 10-4 0 .3-.1.6-.1.9-3.5-1.6-7.1-2.9-10.7-4.5-.6-.3-.1-1.1.5-.8 3.5 1.6 7.1 2.9 10.7 4.5.4.2.2.7-.1.9-3.4 1.2-6.5 3.1-10 4-.7.1-.9-.8-.3-1z"/><path fill="#FDED00" d="M133.6 99.8c-6.8-4.4-13.5-8.9-20.1-13.7-.5-.4 0-1.2.5-.8 6.5 4.8 13.3 9.3 20.1 13.7.5.3 0 1.2-.5.8z"/><path fill="#FDED00" d="M135.8 101.9c-6.7-6.7-14.9-11.6-22.6-17.1-.5-.4 0-1.2.5-.8 7.7 5.6 16 10.5 22.8 17.3.4.3-.2 1-.7.6z"/><path fill="#FDED00" d="M118.9 89.2c8.4 5.1 20.9 5.8 28.8-.5.5-.4 1.1.3.7.7-8.3 6.6-21.1 6-29.9.7-.6-.4-.1-1.3.4-.9z"/><path fill="#FDED00" d="M143 92.2c5.1-2.8 4.8-9.1 3.8-14.1-.1-.6.8-.9.9-.3 1.1 5.5 1.3 12.1-4.2 15.2-.6.3-1.1-.5-.5-.8z"/><path fill="#FDED00" d="M141.4 83.2c5.7-6.2 13.2-10 19.2-15.8 9.7-9.4-.1-18.5-3.6-27.7-.2-.6.7-.8.9-.3 2.8 7.3 9.7 13.9 7.7 22.2-2.3 9.7-17.5 15.7-23.5 22.3-.5.4-1.2-.2-.7-.7zM125.9 79.6c3.7-9.6-3.6-21.8 3.1-30.3.4-.5 1 .2.7.7-6.4 8.2.8 20.5-2.8 29.9-.3.5-1.3.3-1-.3z"/><path fill="#FDED00" d="M128.6 73.1c-4.1-7-5.5-20.3 2.9-24.8.5-.3 1 .5.5.8-8 4.2-6.4 16.9-2.6 23.5.3.5-.5 1-.8.5z"/><path fill="#FDED00" d="M127.3 70.5c-8.8-10.4-2.6-19.8 6.7-27.1.5-.4 1.2.3.7.7-8.6 6.8-15.2 15.7-6.7 25.8.4.3-.3 1-.7.6z"/><path fill="#FDED00" d="M126.9 49.7c8.2-4.8 16.4-14 18.8-23.5 1.6-6.3-1.5-13.6 1.7-19.6.3-.5 1.1-.1.8.5-3.8 7 .1 16.3-3.2 23.8-3.4 7.8-10.4 15.3-17.7 19.6-.5.3-.9-.5-.4-.8zM7.5 77.7c13.8 8.7 24.9 20.8 38.5 29.9.5.3 0 1.2-.5.8C31.9 99.3 20.8 87.2 7 78.5c-.5-.3-.1-1.2.5-.8zM43.3 109c5 4.3-.4 10.6-5.7 10.9-.6 0-.6-.9 0-.9 4.5-.2 9.4-5.5 5-9.3-.4-.4.2-1.1.7-.7z"/><path fill="#FDED00" d="M43.6 115.9c-3.3 4.6-9.5 4.1-14.5 4-.6 0-.6-1 0-.9 4.6.1 10.7.7 13.7-3.5.3-.6 1.2-.1.8.4z"/><path fill="#FDED00" d="M32.9 120.5c-6.5-.6-12.7-2.2-18.5-5.2-.5-.3-.1-1.1.5-.8 5.7 2.9 11.7 4.5 18 5 .6.1.6 1.1 0 1z"/><path fill="#FDED00" d="M14.1 114.6c6.7 1.1 13.7 4.2 20.6 3.1.6-.1.9.8.3.9-7.1 1.2-14.2-1.9-21.1-3.1-.7 0-.4-1 .2-.9z"/><path fill="#FDED00" d="M31.6 119.2c6.6 2.8 12.8-1.9 15.6-7.7.3-.6 1.1-.1.8.5-3.1 6.4-9.8 11.1-16.9 8.1-.6-.3-.1-1.1.5-.9z"/><path fill="#FDED00" d="M40.6 119.8c4-2.6 5.2-7.3 5.8-11.8.1-.6 1-.4.9.2-.6 4.7-2 9.7-6.2 12.4-.6.4-1-.4-.5-.8z"/><path fill="#FDED00" d="M44.8 111.6C39.8 97.6 22.2 80.5 7 79c-.6-.1-.6-1 0-.9 15.8 1.6 33.6 18.8 38.8 33.3.1.5-.8.8-1 .2z"/><path fill="#FDED00" d="M7.5 80c-24.4 0-55.5-12.6-76.7 4.6-.5.4-1.1-.3-.7-.7C-48.4 66.5-17.1 79 7.5 79c.6 0 .6 1 0 1zM-53.3 99.4c14-3.9 26.8 3 37.4 11.8 7.5 6.3 13.4 14.4 20.8 21 9.3 8.3 21.3 11.4 32.5 16.1.4.2.3.6 0 .8-2.3 1.7-3.6 1.7-6.3 1.3-.5-.1-6.6-3.1-3.8-.8 2.7 2.3 2.4 2.2 4.5 4.9.1.2 0 .5-.2.6-5.1 2.5-9.8 1.4-15-.6-2-.8 2.2 1.1 3.1 2 1.7 1.5 2.6 3 3 5.1 1.4 7.6-13.6-2.4-14.6-3.6-.4-.5.3-1.1.7-.7 4.1 4.7 8.8 8.6 12 14 .2.3-.1.8-.5.7-10-3.1-13.9-12.2-20.1-19.8-10-12.2-27.4-16-39.8-25-4-2.9-21.1-22-11.6-25.3.6-.2.8.7.3.9-9.1 3.2 12.8 24.4 14.5 25.6 9.1 6.6 20.2 10.2 29.5 16.5 8.1 5.5 12.1 13.4 18.3 20.6 2.3 4.4 4.1 4.9 5.3 1.5-1.9-2.4-4.3-4.4-6.4-6.6-5-5.1 6.4 2.9 4.3 1.6 1.5-1.7 3-3.3 4.5-5-1.5-1.4-3-2.6-4.7-3.7-.5-.3-.1-1.1.5-.8 2.2 1.2 4.6 2 7 2.6 5.8-2.7 6.5-5.1 2.1-7.3-.4-.3 0-.9.5-.8 1.6.4 3.1.9 4.6 1.5 2.9 1.6 3.3.8 1.2-2.3-3.5-1.3-7.1-2.4-10.5-4-7.7-3.5-14.1-8.1-20.1-14-14.3-14-29.5-34.4-52.5-28.1-.8.3-1.1-.6-.5-.7zM58.9 129.6c6.2 7.4 15.7 12 15.4 22.7-.2 6.3 2.3 9.6 4.6 14.9 1 2.3-.3 5-1.2 7.1-.2.6-1.1.1-.8-.5 3-7-3.7-12.7-3.6-19.9.2-11.7-8.3-15.7-15-23.7-.5-.4.2-1.1.6-.6zM47.5 159.6c-1.8-6.1-2.2-11.4.2-17.3 1.2-3.1 3.8-5.4 5.7-8 3.4-4.7-3.2-15.7-5.3-19.9-.3-.5.5-1 .8-.5 2.6 5.2 6.7 12.2 6 18.3-.2 2-1.1 3.2-2.4 4.7-5.9 6.8-6.5 14.1-4.1 22.4.2.6-.7.8-.9.3zM47.7 114.2c-3.2 5.9-8.2 10.6-15.4 11-8.4.4-12.7-5.1-18.1-10.6-.4-.4.2-1.1.7-.7 3.8 3.8 7 8 12.2 9.9 8.3 3 16.2-3.4 19.9-10 .2-.6 1-.1.7.4z"/><path fill="#FDED00" d="M59 130.7c-3.2-4.2-4.6-9.2-5.7-14.2-.1-.6.8-.9.9-.3 1.1 5 2.4 9.9 5.6 14 .4.5-.4 1-.8.5z"/><path fill="#FDED00" d="M54.5 116.2c2 1.3 4 2.6 6.1 3.9.5.3 0 1.2-.5.8-2-1.3-4-2.6-6.1-3.9-.5-.3 0-1.1.5-.8z"/><path fill="#FDED00" d="M59 119.3c2.4 13 20 12.8 28.9 19.3.5.4 0 1.2-.5.8-9.1-6.6-26.9-6.5-29.4-19.9 0-.5.9-.8 1-.2z"/><path fill="#FDED00" d="M86.3 139.8c-2.7-7.2-7.9-11.9-12.8-17.5-3.1-3.5-6.2-6.6-11.3-6.2-2.5.2-3.8-.1-6-1.3-.5-.3-.1-1.1.5-.8 3.7 2.1 7.7.4 11.4 2.2 3 1.4 5.3 4.6 7.4 7 4.7 5.3 9.2 9.6 11.7 16.3.2.6-.7.8-.9.3z"/><path fill="#FDED00" d="M57.4 114.9c-2.3-.9-4.1-2.7-5.4-4.7-.3-.5.5-1 .8-.5 1.1 1.9 2.7 3.5 4.8 4.3.6.2.4 1.1-.2.9z"/><path fill="#FDED00" d="M53.7 109.6c4.3 1.4 8.7 2.6 13.1 3.6.6.1.4 1-.2.9-4.4-1-8.8-2.1-13.1-3.6-.6-.2-.4-1.1.2-.9z"/><path fill="#FDED00" d="M55 110.5c6.2 1.3 12.6 1.6 18.7 3.5.6.2.3 1.1-.2.9-6.1-1.9-12.5-2.2-18.7-3.5-.6-.2-.4-1.1.2-.9z"/><path fill="#FDED00" d="M61.6 111c6.4 4.6 13.5 7.6 21.3 8.4.6.1.6 1 0 .9-8-.8-15.3-3.8-21.8-8.6-.5-.2 0-1.1.5-.7z"/><path fill="#FDED00" d="M82.1 119.4c6 4.8 9.4 11.8 13.6 18.1.3.5-.5 1-.8.5-4.1-6.2-7.5-13.2-13.5-17.9-.4-.4.2-1 .7-.7z"/><path fill="#FDED00" d="M86.2 172.8c.9-4.6 3.3-7 7-9.7 11.2-8 6.2-18.4-.3-27.6-.4-.5.5-1 .8-.5 3.6 5 9.3 12.6 7.3 19.3-2.5 8.3-12.2 10.2-13.9 18.6-.1.7-1 .5-.9-.1zM90.7 119.5c4 3.3 7.2 7.6 11.5 10.5.5.3 0 1.2-.5.8-4.4-3-7.6-7.3-11.7-10.7-.4-.3.2-1 .7-.6z"/><path fill="#FDED00" d="M102.2 130c4.9 2.7 11.7-.1 16.7-1.6 5-1.6 10-3.7 15.3-4.5.6-.1.9.8.3.9-6.2.9-12.2 3.6-18.2 5.4-4.5 1.3-10.1 3-14.5.6-.6-.2-.1-1.1.4-.8z"/><path fill="#FDED00" d="M132.4 123.6c3.9-3.2 6.9-7 12.3-7.2.6 0 .6.9 0 .9-5.1.2-8 3.9-11.6 6.9-.5.4-1.2-.2-.7-.6z"/><path fill="#FDED00" d="M144.9 118.1c-2.6 1.1-3.9 4.3-5.4 6.6-.3.5-1.2 0-.8-.5 1.6-2.5 3-5.8 5.9-7 .6-.3.9.7.3.9z"/><path fill="#FDED00" d="M139.5 123.2c23.6-11.7 47.8-31.2 49.6-59.5.6-10 1.8-20.2 1.9-30.3.1-7.8-2.7-14.9-9.4-19.2-2.2-1.4-2.8-2.7-3.6-5.2-.2-.6.7-.8.9-.3 1.4 4.7 6.1 5.7 8.6 9.5 2.6 4 3.7 7.7 4.3 12.4 1.5 12.2-1 27.1-2.3 39.3-2.7 24.9-29.1 43.8-49.6 54-.5.3-1-.5-.4-.7z"/><path fill="#FDED00" d="M179.3 9.5c13.4 5.9 23.4 16.6 30.2 29.4 2.3 4.3 4.9 10 4.3 15-.5 4-1.7 7.8-2.7 11.7-1.8 7.2-.5 13.4.3 20.5 1.5 13.2-12.7 18.3-21.2 24.8-10.8 8.3-21.8 12.4-34.7 6.1-.6-.3-.1-1.1.5-.8 14 6.8 25.1.5 36.2-8 4.2-3.3 9-5.7 13.2-9 7.5-6.1 4.6-15.7 3.6-23.8-.6-4.7.9-8.9 1.9-13.3 2.4-9.7.8-16.8-3.8-25.5-6.1-11.6-16.5-21.1-28.4-26.4-.4-.1.1-.9.6-.7z"/><path fill="#FDED00" d="M137.9 126.1c7 2 15-4.1 20.3-8.1.5-.4 1 .5.5.8-5.5 4.1-13.7 10.2-21 8.2-.7-.1-.4-1 .2-.9zM186.5 114.7c12-.4 26.5-.9 33.4-12.5 3.3-5.6.1-13.3 1.1-19.5 1.8-11.9-1.3-18.2-9-26.9-.4-.5.3-1.1.7-.7 4 4.5 9.1 9.5 9.9 15.7.6 4.5.3 7.7-.7 12.1-1.4 5.8 1.4 11.4-.1 17.3-3.8 14.3-23.6 14.9-35.2 15.4-.7 0-.8-.9-.1-.9z"/><path fill="#FDED00" d="M138.2 127c4.3 4.7 11.5.9 16.1 4.9 2.9 2.5 5.2 5.4 8 8.1 3.5 3.4 10 3.4 14.5 4.1.6.1.4 1-.2.9-9.2-1.4-13.4-2.4-19.6-9.3-4.3-4.8-8.7-4.8-14.5-5.4-2.1-.2-3.5-1-4.9-2.6-.5-.5.2-1.2.6-.7z"/><path fill="#FDED00" d="M175.8 144.7c-5.4 6.5-13.9 3.3-21 2.1-11.4-2-11.3-11.7-20.1-17.3-.5-.3 0-1.1.5-.8 6 3.8 7.5 11.1 13.2 15.2 6 4.2 22.1 5.8 26.8.2.3-.5 1 .1.6.6z"/><path fill="#FDED00" d="M109.7 135c9.2.1 17.1-6.3 26.4-5.6.6 0 .6 1 0 .9-9.3-.7-17.2 5.7-26.4 5.6-.5.1-.6-.9 0-.9z"/><path fill="#FDED00" d="M110.3 136c2.3 4.1 6.9 6.3 10.7 8.7.5.3 0 1.2-.5.8-3.9-2.5-8.6-4.9-11-9.1-.3-.5.5-.9.8-.4z"/><path fill="#FDED00" d="M120.2 144.4c14.9-2.6 26.2 10.6 36 19.9 7 6.6 16 9.9 23.3 15.9 8.6 7 11.8 20.4 24.7 20 .6 0 .6.9 0 .9-6 .2-9.8-1.3-13.7-5.9-1.6-1.9-2.9-4.3-4.3-6.4-3.7-5.7-9-9.3-14.7-12.7-6.6-4-12.4-7.7-18-13-9-8.6-19.4-20.2-33.1-17.7-.5 0-.8-.9-.2-1z"/><path fill="#FDED00" d="M205.2 201.7c-3.4 1.1-6.8 1.8-10.3 2.6-.6.1-.9-.8-.3-.9 3.5-.7 6.9-1.5 10.3-2.6.6-.2.9.7.3.9z"/><path fill="#FDED00" d="M200.5 204.9c-3.5.2-6.6-1.2-9.7-2.5-.6-.2-.1-1.1.5-.8 3 1.3 5.9 2.6 9.2 2.4.6-.1.6.8 0 .9z"/><path fill="#FDED00" d="M198.6 206.7c-4.8-1.8-9.7-3.3-14.1-6.1-.5-.3-.1-1.1.5-.8 4.3 2.7 9.1 4.2 13.8 6 .6.2.3 1.2-.2.9z"/><path fill="#FDED00" d="M199 209.6c-4.6-3.5-10.1-5.5-14.4-9.4-.5-.4.2-1.1.7-.7 4.3 3.8 9.7 5.8 14.2 9.2.5.4 0 1.2-.5.9z"/><path fill="#FDED00" d="M186.4 202.5c-24.1-10.6-66.6-22.9-69.3-55.2-.1-.6.9-.6.9 0 2.7 31.9 45.1 44 68.9 54.4.5.3 0 1.1-.5.8zM115.8 148c-5.5-3.2-8.7-9.1-13.9-12.7-.5-.3 0-1.2.5-.8 5.2 3.6 8.4 9.5 13.9 12.7.5.3 0 1.1-.5.8z"/><path fill="#FDED00" d="M104 136.5c-.9.2-1.4.4-2.2 0 .2-.1.4-.1.6-.2-.5.7-.2 1.4-.2 2.2 0 .5-.8.7-.9.1v-.1c-.1-.6.8-.9.9-.3v.1c-.3 0-.6.1-.9.1-.1-.8-.3-1.8.3-2.7.1-.2.4-.3.6-.2.6.3.9.1 1.5-.1.6 0 .9.9.3 1.1z"/><path fill="#FDED00" d="M102.4 137.2c-.9.5-1.4 1.3-2 2.1-.3.5-1.2 0-.8-.5.6-1 1.3-1.9 2.3-2.5.5-.3 1 .5.5.9z"/><path fill="#FDED00" d="M100.1 139.2c4.8 4.4 9.2 10 12 15.9.3.6-.5 1-.8.5-2.8-5.8-7-11.4-11.9-15.7-.4-.5.2-1.2.7-.7z"/><path fill="#FDED00" d="M102.8 146.5c.8 1.7 2.5 2.9 3.9 4.1 2 1.6 4.2 3 6.3 4.4.5.3 0 1.2-.5.8-2-1.3-4.1-2.6-6-4.1-1.7-1.3-3.7-2.7-4.6-4.7-.1-.5.7-1 .9-.5z"/><path fill="#FDED00" d="M105 148.4c-1.8 4.1 1.7 8.3 5.4 9.8.6.2.1 1-.5.8-4.2-1.7-7.7-6.4-5.7-11 .2-.6 1-.1.8.4z"/><path fill="#FDED00" d="M106.2 154.2c3.4 1.9 5.4 4.7 6.6 8.4 1.4 4.5 1.5 9.5 5.7 12.5.5.3 0 1.2-.5.8-2.9-2-4.1-4.9-4.9-8.3-1.3-5.2-2.3-9.8-7.3-12.7-.6-.2-.1-1 .4-.7z"/><path fill="#FDED00" d="M116 172.3c2.2 1 4.1 2.6 6.1 3.9.2.2.3.4.2.6-1.9 4.1-2.5 8.3-1.7 12.7.1.6-.8.9-.9.3-.6-3.2-.5-6.2.2-9.4.2-.7 1.6-3.5.8-4.1-1.7-1.2-3.2-2.5-5.1-3.3-.6-.1-.2-.9.4-.7zM159.4 114.9c6.3 2.1 13.4-.6 19.8-1.2.6-.1.6.9 0 .9-6.4.6-13.7 3.3-20 1.2-.7-.2-.4-1.1.2-.9zM166.5 111.1c2.7-.6 5.2-1.5 7.4-3 .5-.3 1 .5.5.8-2.3 1.6-4.9 2.5-7.7 3.1-.5.1-.8-.8-.2-.9z"/><path fill="#FDED00" d="M169 109.1c3.3-1.8 7.1-2.3 10.7-3 .6-.1.9.8.3.9-3.5.7-7.2 1.2-10.5 2.9-.6.3-1.1-.5-.5-.8zM170.2 106.2c5.1-2.6 10.8-3.8 16.5-4.3.6 0 .6.9 0 .9-5.5.4-11.1 1.6-16.1 4.1-.4.4-.9-.4-.4-.7zM173.6 102.1c7-2.3 13.9-5.1 21.3-6 .6-.1.6.9 0 .9-7.3.9-14.1 3.7-21 6-.6.2-.9-.7-.3-.9z"/><path fill="#FDED00" d="M173.4 102.2c7.1-7.2 17.2-10.5 26-15.3.5-.3 1 .5.5.8-8.7 4.7-18.7 7.9-25.8 15.1-.5.5-1.2-.2-.7-.6z"/><path fill="#FDED00" d="M190.7 93.6c5.8-3.6 10.2-8.4 13.1-14.6.3-.5 1.1-.1.8.5-3 6.3-7.5 11.3-13.5 14.9-.4.4-.9-.5-.4-.8z"/><path fill="#FDED00" d="M195.6 87.9c3.8-5.8 7.5-11.6 11.3-17.3.3-.5 1.2 0 .8.5-3.8 5.8-7.5 11.5-11.3 17.3-.3.5-1.1 0-.8-.5z"/><path fill="#FDED00" d="M206 75.7c1.3-4 1.6-8.1 1.8-12.2 0-.6 1-.6.9 0-.2 4.2-.6 8.4-1.9 12.5 0 .5-.9.3-.8-.3zM182.6 90.9c3-2.8 6.4-5.1 9.8-7.3.5-.3 1 .5.5.8-3.3 2.2-6.6 4.5-9.6 7.2-.5.4-1.2-.3-.7-.7zM183.8 88.1c3.7-2.9 7.4-5.7 10.8-9 .4-.4 1.1.2.7.7-3.4 3.3-7.1 6.1-10.8 9-.5.3-1.2-.4-.7-.7zM186.2 83.4c3.3-3 6.9-5.6 10.8-7.9.5-.3 1 .5.5.8-3.8 2.2-7.3 4.8-10.6 7.8-.5.4-1.2-.2-.7-.7zM191.4 74.5c2.5-2.7 5.9-4.3 8.7-6.7.5-.4 1.1.3.7.7-2.8 2.4-6.2 4-8.7 6.7-.4.4-1.1-.3-.7-.7zM192 71.7c3.8-2.3 7.2-5.3 11.1-7.6.5-.3 1 .5.5.8-3.8 2.3-7.2 5.3-11.1 7.6-.5.3-1-.5-.5-.8zM192.6 69c4.7-2.5 8.8-5.9 13.5-8.5.5-.3 1 .5.5.8-4.7 2.5-8.8 5.9-13.5 8.5-.6.3-1.1-.5-.5-.8zM192.6 63.1c1.7-2.6 3.8-4.7 6.2-6.6.5-.4 1.1.3.7.7-2.3 1.9-4.4 3.9-6 6.4-.4.5-1.2 0-.9-.5zM191.1 60.7c2.6-2.1 5.2-4.3 7.5-6.8.4-.4 1.1.2.7.7-2.3 2.5-4.9 4.7-7.5 6.8-.5.4-1.2-.3-.7-.7zM191.1 58.9c3.1-3.7 7.2-6.4 10.6-9.7.4-.4 1.1.2.7.7-3.5 3.3-7.5 6-10.6 9.7-.4.4-1.1-.3-.7-.7zM192.5 54.9c3.2-3 6.1-6.3 9.2-9.4.4-.4 1.1.2.7.7-3.1 3.1-6 6.4-9.2 9.4-.5.3-1.2-.3-.7-.7zM204.2 57.7c2-4.1 3.6-8.4 4.7-12.8.1-.6 1.1-.4.9.2-1.1 4.5-2.7 8.9-4.8 13.1-.3.5-1.1 0-.8-.5zM202.8 55c3.8-6.1 4.7-11.6 2.3-18.4-.2-.6.7-.8.9-.3 2.4 7 1.5 12.9-2.4 19.2-.2.5-1.1 0-.8-.5z"/><path fill="#FDED00" d="M205.8 41.1c-.1-6.4-6.4-11.2-10.9-14.9-.5-.4.2-1.1.7-.7 4.7 3.8 11.1 8.8 11.2 15.5-.1.7-1 .8-1 .1z"/><path fill="#FDED00" d="M204.3 34.1c-1.6-5.7-9.2-10.1-13.8-13.2-.5-.3 0-1.2.5-.8 4.9 3.2 12.6 7.7 14.3 13.7.1.6-.8.9-1 .3z"/><path fill="#FDED00" d="M199.1 25.4c-4.3-5.1-10.1-8.5-14.8-13.3-.4-.4.2-1.1.7-.7 4.6 4.8 10.5 8.2 14.8 13.3.4.5-.3 1.1-.7.7zM185.7 108.9c5.6-3.1 10.3-7.4 15-11.7.4-.4 1.1.2.7.7-4.7 4.4-9.5 8.7-15.1 11.9-.6.2-1.1-.6-.6-.9z"/><path fill="#FDED00" d="M186.2 111.8c5.9-6 12.1-11.8 19-16.8.5-.4 1 .5.5.8-6.8 4.9-12.9 10.6-18.8 16.6-.4.5-1.1-.2-.7-.6zM196 105.2c4.2-3.7 9.1-6.6 13.1-10.6.4-.4 1.1.2.7.7-3.9 4-8.8 6.9-13.1 10.6-.4.4-1.1-.2-.7-.7z"/><path fill="#FDED00" d="M194.3 106c4.5-4 9-7.9 13.7-11.6.5-.4 1 .4.5.8-4.7 3.6-9.1 7.5-13.5 11.4-.4.5-1.1-.2-.7-.6z"/><path fill="#FDED00" d="M207.5 94.3c1.5-3.4 1.8-6.9 1.4-10.5-.1-.6.9-.6.9 0 .4 3.8 0 7.5-1.5 11-.3.6-1.1.1-.8-.5zM209 82.8c-.5-2.1-.9-4.3-1.4-6.4-.1-.6.8-.9.9-.3.5 2.1.9 4.3 1.4 6.4.1.6-.8.9-.9.3zM140.5 132.2c3.1 5.9 8.3 8.4 14.1 11 .6.3.1 1.1-.5.8-6-2.7-11.3-5.3-14.5-11.3-.2-.5.6-1 .9-.5z"/><path fill="#FDED00" d="M144.4 134.7c4.2 6.1 11.1 7.8 18 8.6.6.1.4 1-.2.9-7.2-.9-14.3-2.8-18.6-9-.4-.5.5-1 .8-.5zM146.9 141.8c8.1 4.1 15.7 7.2 24.9 5.8.6-.1.6.9 0 .9-9.4 1.4-17.1-1.8-25.4-5.9-.5-.2-.1-1 .5-.8z"/><path fill="#FDED00" d="M154.4 144.3c5.1 1.8 10.4 1.1 15.6.4.6-.1.6.9 0 1-5.4.8-10.7 1.4-15.9-.4-.5-.3-.3-1.2.3-1z"/><path fill="#FDED00" d="M152.1 142.2c6.4 2.1 13.1 2.6 19.8 2.5.6 0 .6.9 0 .9-6.8.2-13.6-.4-20.1-2.5-.5-.2-.3-1.1.3-.9zM121.8 150.2c5.1 3.3 10.2 6.7 14.4 11.2.4.4-.3 1.1-.7.7-4.1-4.5-9.2-7.8-14.2-11.1-.5-.4-.1-1.2.5-.8zM124.5 148.8c9.4 6.2 18.2 13.1 25.6 21.6.4.5-.3 1.1-.7.7-7.3-8.4-16.1-15.3-25.4-21.4-.5-.4 0-1.2.5-.9zM126.7 147.2c11.7 7.5 24.3 14.3 31.6 26.8.3.5-.5 1-.8.5-7.2-12.3-19.6-19-31.2-26.4-.5-.4-.1-1.2.4-.9z"/><path fill="#FDED00" d="M138.7 155.6c7.8 7.5 16.5 13.9 24 21.8.4.4-.2 1.1-.7.7-7.5-7.8-16.2-14.3-24-21.8-.4-.4.2-1.1.7-.7zM168.9 179c7.2 5.5 13.4 11.9 18.4 19.4.3.5-.5 1-.8.5-5-7.4-11-13.8-18.1-19.1-.4-.3.1-1.2.5-.8z"/><path fill="#FDED00" d="M174.6 181.5c8.1 3.1 11.8 11.6 17 17.8.4.5-.3 1.1-.7.7-5.1-6.1-8.7-14.6-16.6-17.6-.5-.2-.3-1.2.3-.9z"/><path fill="#FDED00" d="M177.1 180.6c5.9 4.3 9.1 11.8 14.5 16.8.4.4-.2 1.1-.7.7-2.5-2.3-4.5-5-6.6-7.6-2.3-3-4.5-6.8-7.7-9-.4-.4 0-1.2.5-.9z"/><path fill="#FDED00" d="M184.5 186.7c2.6 5.4 7.3 11.4 12.6 14.3.5.3.1 1.1-.5.8-5.4-3-10.3-9.1-12.9-14.6-.2-.5.6-1 .8-.5zM99.8 178.4c1-1.7 1-3.5.6-5.4-.1-.6.8-.9.9-.3.4 2.1.5 4.2-.7 6.1-.3.6-1.1.1-.8-.4zM102 175c1-3.7-.1-7.6-1.9-10.8-.3-.5.5-1 .8-.5 1.9 3.5 3.1 7.6 2 11.5-.1.6-1.1.4-.9-.2z"/><path fill="#FDED00" d="M103.6 168.8c-.4-3.4-2.7-6.4-4.8-9.1-.4-.5.3-1.2.7-.7 2.3 2.9 4.6 6 5.1 9.7.1.7-.9.7-1 .1zM103.4 162.1c-1.4-1.5-2.3-3.3-3.6-4.8-.4-.5.3-1.1.7-.7 1.4 1.5 2.3 3.3 3.6 4.8.4.5-.3 1.2-.7.7zM91.1 169c1.3-2.9 3.7-4.9 6.3-6.7.5-.4 1 .5.5.8-2.4 1.7-4.6 3.6-5.9 6.3-.3.6-1.2.2-.9-.4z"/><path fill="#FDED00" d="M93.3 169.4c1.2-3.6 3.6-6.5 7.4-7.4.6-.1.9.8.3.9-3.5.8-5.7 3.5-6.8 6.8-.1.5-1 .3-.9-.3z"/><path fill="#FDED00" d="M95.1 170.5c1.3-3.8 4.5-6 8.3-6.9.6-.1.9.8.3.9-3.4.8-6.5 2.8-7.6 6.2-.3.6-1.2.4-1-.2z"/><path fill="#FDED00" d="M96.3 170.4c1.9-1.9 4-3.2 6.5-4.1.6-.2.8.7.3.9-2.3.9-4.3 2.1-6.1 3.8-.4.5-1.1-.1-.7-.6zM50.2 152.5c2-.5 4-1.5 5.5-3 .4-.4 1.1.2.7.7-1.6 1.5-3.8 2.7-5.9 3.2-.6.1-.9-.8-.3-.9zM48.2 150.7c2.7-1.3 5.4-2.6 8.1-4 .5-.3 1 .5.5.8-2.7 1.3-5.4 2.6-8.1 4-.5.3-1-.5-.5-.8zM49.2 149c2.6-2.8 6.2-4 9.1-6.4.5-.4 1.1.3.7.7-2.9 2.4-6.5 3.6-9.1 6.4-.4.5-1.1-.2-.7-.7zM49.4 146c1.5-1.5 3.2-2.8 4.8-4.1 1.4-1.1 3.2-2.1 4.4-3.4.4-.5 1.1.2.7.7-.9 1.1-2.4 1.9-3.5 2.7-2 1.5-4 3-5.8 4.8-.4.4-1.1-.2-.6-.7zM50.7 142.1c1.9-3.9 6.5-5.8 9.4-8.8.4-.4 1.1.2.7.7-2.8 3-7.4 4.8-9.3 8.6-.3.5-1.1.1-.8-.5z"/><path fill="#FDED00" d="M53.5 137.8c1.7-3.4 4.9-5.6 7.7-8.1.5-.4 1.1.3.7.7-2.8 2.4-5.9 4.5-7.6 7.9-.3.5-1.1 0-.8-.5z"/><path fill="#FDED00" d="M58.8 129.5c-5.4 8.7 1.9 21 1 30.6-.1.6-1 .6-.9 0 .9-9.6-6.4-22.1-.9-31 .3-.6 1.1-.2.8.4zM61.6 125.3c.7-2 1.8-3.8 3-5.6.3-.5 1.2 0 .8.5-1.1 1.7-2.2 3.4-2.9 5.4-.2.5-1.1.3-.9-.3z"/><path fill="#FDED00" d="M63.9 125.7c0-2 .2-4.2-.2-6.2-.1-.6.8-.9.9-.3.4 2.1.3 4.3.2 6.4 0 .7-.9.7-.9.1z"/><path fill="#FDED00" d="M63.9 121.3c.8 3.4 3.1 5.5 6.2 7 .6.3.1 1.1-.5.8-3.3-1.6-5.8-3.9-6.6-7.5-.1-.6.8-.9.9-.3z"/><path fill="#FDED00" d="M63.9 119.9c2.4 2.3 4.6 4.9 7.1 7.1.5.4-.2 1.1-.7.7-2.5-2.2-4.7-4.8-7.1-7.1-.4-.4.3-1.1.7-.7z"/><path fill="#FDED00" d="M65.1 121.4c1.2 4.4 6.5 7.2 10.1 9.5.5.3 0 1.2-.5.8-3.7-2.4-9.2-5.4-10.5-10.1-.2-.5.7-.8.9-.2z"/><path fill="#FDED00" d="M67.5 128.3c-3.8-3-8.8-5.1-10.4-10-.2-.6.7-.8.9-.3 1.6 4.6 6.6 6.7 10.2 9.6.4.4-.2 1.1-.7.7z"/><path fill="#FDED00" d="M65.5 127.6c-2.8-2.5-4.3-6-5.1-9.6-.1-.6.8-.9.9-.3.8 3.5 2.2 6.7 4.9 9.2.4.4-.3 1.1-.7.7zM26.4 200.3c2.3-3.5 4.2-7.3 7.3-10.2.4-.4 1.1.2.7.7-3 2.9-4.9 6.5-7.1 10-.4.4-1.2 0-.9-.5zM30.6 198.5c2.6-3.2 4.1-7.1 6.3-10.6.3-.5 1.1 0 .8.5-2.2 3.5-3.7 7.5-6.4 10.8-.4.5-1.1-.2-.7-.7z"/><path fill="#FDED00" d="M30 194.8c1-3.4 3.2-6 5.9-8.2.5-.4 1.1.3.7.7-2.5 2.1-4.7 4.5-5.7 7.7-.1.6-1.1.3-.9-.2z"/><path fill="#FDED00" d="M28.4 195.8c-3-6.3 5.5-9.2 10.2-10.3.6-.1.9.8.3.9-3.9.9-12.3 3.3-9.6 8.9.1.6-.7 1.1-.9.5z"/><path fill="#FDED00" d="M31.3 191.8c1.9-3.7 6.1-5.2 9.8-6.3.6-.2.8.7.3.9-3.5 1.1-7.5 2.4-9.2 5.9-.3.5-1.2 0-.9-.5zM26.2 196.5c3 .7 6 .9 9.1 1 .6 0 .6 1 0 .9-3.1-.1-6.2-.3-9.3-1.1-.7-.1-.4-1 .2-.8z"/><path fill="#FDED00" d="M28.7 198.7c4.5 5 15.6-.5 20-3.3.5-.3 1 .5.5.8-4.9 3-16.3 8.7-21.2 3.2-.4-.5.3-1.1.7-.7z"/><path fill="#FDED00" d="M43.9 198.3c.7-.2 1.4-.3 2.1-.5.6-.1.9.8.3.9-.7.2-1.4.3-2.1.5-.7.1-.9-.8-.3-.9zM121.9 155.3c1.8 7.2 7.3 13.1 12.7 18 .5.4-.2 1.1-.7.7-5.5-4.9-11.1-11.1-12.9-18.4-.2-.6.7-.9.9-.3z"/><path fill="#FDED00" d="M130.4 167.5c7.9 7.3 16.9 12.9 25.9 18.7.5.3 0 1.2-.5.8-9-5.9-18.2-11.5-26.1-18.8-.4-.5.2-1.1.7-.7zM137.8 176c5.3 4.7 11.2 8.5 17.7 11.5.6.3.1 1.1-.5.8-6.5-3-12.5-6.9-17.9-11.6-.5-.4.2-1.1.7-.7z"/><path fill="#FDED00" d="M134.2 173.7c7.6 3.8 14.5 8.7 22.1 12.5.5.3.1 1.1-.5.8-7.6-3.8-14.5-8.7-22.1-12.5-.5-.3 0-1.1.5-.8z"/><path fill="#FDED00" d="M152.7 185.1c5.9 4.2 12.9 6 19.6 8.5.6.2.3 1.1-.2.9-6.8-2.5-13.9-4.3-19.8-8.6-.6-.4-.1-1.2.4-.8zM33.2 149.9c7.7 4.9 15.8 9.1 23.8 13.6.5.3.1 1.1-.5.8-8-4.5-16.1-8.7-23.8-13.6-.5-.3 0-1.2.5-.8z"/><path fill="#FDED00" d="M38.6 152.8c15.7 3.1 29.7 11.9 42.9 20.5.5.3 0 1.2-.5.8-13.2-8.5-27.1-17.3-42.7-20.4-.6-.1-.3-1 .3-.9z"/><path fill="#FDED00" d="M51.7 159.4c17.6 9.8 36.8 16.1 55.4 23.7 9.7 4 18 10.4 27.8 14.3 8.8 3.5 18.5 5.6 27.5 8.6 17.6 5.9 43.9 14.8 61.4 4.4 4.7-2.8 14-11.8 18.4-4.2.3.5-.5 1-.8.5-3.8-6.5-15.1 3.4-18.5 5.4-5.2 3.1-13.9 3.1-19.7 3.3-17.5.6-34.7-6.5-51.1-11.9-6.8-2.3-14.2-3.5-20.7-6.6-8.4-4-16.1-9.2-24.6-13-18.4-8.3-37.7-13.8-55.4-23.7-.7-.3-.3-1.1.3-.8z"/><path fill="#FDED00" d="M242 206.8c-5.6 5.4-13.9 6.9-17.4 14.4-.3.6-1.1.1-.8-.5 3.6-7.6 11.9-9.1 17.5-14.6.5-.3 1.1.3.7.7z"/><path fill="#FDED00" d="M191.3 229.9c8.8 4.1 14.9-2.6 22-6.6 4.3-2.5 9.4-3.3 14.2-4.2.6-.1.9.8.3.9-8.4 1.5-14.5 4.4-21.5 9-5 3.3-10 4.2-15.4 1.7-.6-.2-.2-1.1.4-.8z"/><path fill="#FDED00" d="M224.1 220c.9 5.9-3.4 11.3-4.7 16.8-.1.6-1.1.4-.9-.2 1.3-5.5 5.5-10.7 4.7-16.5-.1-.6.8-.7.9-.1z"/><path fill="#FDED00" d="M219 235.6c-2 2-4.6 3.3-7.5 3.5-.6.1-.6-.9 0-.9 2.6-.2 5-1.4 6.8-3.2.4-.5 1.1.2.7.6z"/><path fill="#FDED00" d="M215.8 234.3c1.9-.6 5.2-1.5 5.8 1.3.4 1.7.3 3.5.4 5.3 0 5.9 4.6 8.4 9.7 6.1 5.6-2.5 12.6-11.1 17.9-3.8.4.5-.5 1-.8.5-5.4-7.4-14.7 5.3-21.5 5.3-9.1 0-3.5-16.1-11.1-13.7-.7.1-1-.8-.4-1z"/><path fill="#FDED00" d="M247.8 243.4c-10.2 6.3-22.7 10.1-31.7 18.1-6.9 6.1-10.4 14.2-18.8 18.7-.5.3-1-.5-.5-.8 8.9-4.8 13.2-13.8 20.6-20.3 8.2-7.3 20.5-10.7 29.8-16.5.6-.3 1.1.5.6.8z"/><path fill="#FDED00" d="M202.4 274.7c4 4.1.4 8.7-2.5 12.5-7.5 9.7-10.5 21.8-18.6 31.1-.4.5-1.1-.2-.7-.7 6.4-7.3 9-15.9 13.4-24.4 2.3-4.5 13.3-12.2 7.8-17.9-.5-.4.1-1 .6-.6z"/><path fill="#FDED00" d="M180.3 319.1c.1-2.4 1.2-4.7 1.8-7 .8-2.7 1.8-6.7-2.4-6.2-.6.1-.6-.9 0-.9 8.1-1 1.6 10.5 1.5 14.1 0 .6-.9.6-.9 0z"/><path fill="#FDED00" d="M179.8 306.3c-5 4.6-10.8 7.9-17 3.6-.5-.3 0-1.2.5-.8 5.9 4.1 11.2.8 15.9-3.4.4-.5 1 .2.6.6z"/><path fill="#FDED00" d="M164.4 308.6c6.4 9.2-13.3 8.2-15.6 13.1-.3.6-1.1.1-.8-.5 2.3-4.9 21.1-4.3 15.6-12.2-.3-.4.5-.9.8-.4z"/><path fill="#FDED00" d="M149 320.3c.2 4-3.4 8.1-5.8 11-2.4 2.9-6 7.6-10 8.4-.3.1-.6-.1-.6-.4.8-7.3 7.4-12 8.7-19.1.1-.6 1-.4.9.2-.7 4.1-3 7.3-5.3 10.6-.7 1-3.3 7.7-3.5 7.7 1.4-.3 2.7-1.6 3.7-2.4 4-3.3 11.2-10.3 10.9-16 0-.6 1-.6 1 0zM144 319.1c-3.8-9.3 3-19.5 10.4-24.7.5-.3 1 .5.5.8-7.1 5-13.6 14.8-10 23.7.3.5-.6.7-.9.2z"/><path fill="#FDED00" d="M154.4 294.9c-3.4.8-4.9.1-7.8-1.8-.3-.2-.3-.5-.1-.7 7.4-7.6 18.6-9.4 27-15.9 10.3-7.9 14.5 1.9 25.9.1.6-.1.9.8.3.9-8.2 1.3-15.5-6.2-23.2-2.1-4.4 2.4-7.5 6-12.2 8.1-1.6.7-3.4 1.4-5 2.1-1.8.7-3.5 1.4-5.3 2.1-3.8 1.1-3.7 3.1.3 6.2.4 0 .7.9.1 1z"/><path fill="#FDED00" d="M197.5 278.2c-7.7-4.7-17.5-7.5-19.1-17.5-1.9-12.2 15.4-17.9 12-30.9-.2-.6.8-.9.9-.3 1.8 6.8-1.4 11.6-5.4 16.9-5.3 7-10 14.9-2.2 22.5 3.9 3.8 9.6 5.7 14.2 8.5.6.3.2 1.1-.4.8z"/><path fill="#FDED00" d="M189.8 231.8c-1.8-4-8.4-6.7-12.1-8.7-4.2-2.3-8.6-4.5-13-6.3-.6-.2-.1-1.1.5-.8 5.3 2.2 10.4 4.9 15.3 7.6 3.1 1.8 8.5 4.2 10.1 7.7.3.6-.5 1.1-.8.5z"/><path fill="#FDED00" d="M161.6 216.8c10.1 5.3 20.2 10.8 31.4 13.1.6.1.4 1-.2.9-11.3-2.3-21.5-7.8-31.6-13.2-.6-.3-.1-1.1.4-.8z"/><path fill="#FDED00" d="M168.8 219c8.9 4.1 18.9 6.6 28.6 7.6.6.1.6 1 0 .9-10-1-20-3.5-29.1-7.8-.5-.2 0-1 .5-.7z"/><path fill="#FDED00" d="M175.3 221.3c7.3 5 16 6.9 23.9 10.6.6.3.1 1.1-.5.8-7.9-3.7-16.6-5.6-23.9-10.6-.5-.3 0-1.1.5-.8z"/><path fill="#FDED00" d="M186 225.8c5.1 2.5 10.8 3.1 16.4 3.9.6.1.4 1-.2.9-5.7-.9-11.4-1.4-16.6-4-.7-.2-.2-1.1.4-.8z"/><path fill="#FDED00" d="M194.9 229.3c.2-.6 1.1-.4.9.2-.1.6-1.1.4-.9-.2zM173.6 222.2c.2-.6 1.1-.4.9.2-.1.6-1 .4-.9-.2zM164 218.8c-10.7-6.3-21.8-11.9-32.3-18.5-.5-.3 0-1.2.5-.8 10.5 6.7 21.6 12.3 32.3 18.5.5.3.1 1.1-.5.8zM146.8 211.3c-14.4-8-29.1-15.3-43.7-22.9-.5-.3-.1-1.1.5-.8 14.6 7.6 29.3 14.9 43.7 22.9.5.3 0 1.1-.5.8zM117 199.3c-15.7-8.3-31.6-16.4-46.6-26-.5-.3 0-1.2.5-.8 15 9.6 30.9 17.7 46.6 26 .5.3 0 1.1-.5.8z"/><path fill="#FDED00" d="M78.6 178c-14.7-4.2-26.5-14.4-40.3-20.7-.6-.2-.1-1.1.5-.8 13.7 6.2 25.5 16.4 40.1 20.6.5.2.3 1.1-.3.9zM58.3 164.3c32.3 17.5 67.4 30 100.6 45.8 15.3 7.3 33.8 15.1 50.8 9.7 11-3.5 18.3-14.5 30.9-12.1.6.1.4 1-.2.9-13.6-2.5-24.5 11.8-37.9 13.8-13.1 1.9-27-3.9-38.7-9-15.2-6.6-29.8-14.4-45.1-20.9-20.6-8.7-41.3-16.8-61-27.5-.4-.1.1-.9.6-.7zM177.9 265.5c-4.4-3.6-8.3-7.8-13.1-11-.5-.3 0-1.2.5-.8 4.8 3.2 8.8 7.5 13.3 11.1.5.4-.2 1-.7.7z"/><path fill="#FDED00" d="M175.2 261.2c-5.2-6.2-12-10.3-18.7-14.6-.5-.3 0-1.2.5-.8 6.8 4.4 13.7 8.5 18.9 14.8.3.4-.3 1.1-.7.6zM163.9 253.9c-6.8-5.6-14.1-10.6-20.7-16.5-.5-.4.2-1.1.7-.7 6.5 6 13.8 10.9 20.7 16.5.5.4-.2 1.1-.7.7z"/><path fill="#FDED00" d="M156 246.3c-8.6-6.1-17.6-11.5-26.4-17.2-.5-.3 0-1.2.5-.8 8.8 5.7 17.9 11.1 26.4 17.2.5.3 0 1.2-.5.8zM60.1 172.3c4.2 3.3 8.9 5.9 12.9 9.6.4.4-.2 1.1-.7.7-3.9-3.7-8.6-6.3-12.9-9.6-.5-.4.2-1.1.7-.7z"/><path fill="#FDED00" d="M62.4 174.4c8.8 8.6 19 15.4 29.2 22.1.5.3 0 1.2-.5.8-10.4-6.7-20.6-13.5-29.4-22.2-.4-.4.3-1.1.7-.7z"/><path fill="#FDED00" d="M72.8 181.8c9.2 6.1 17.9 12.8 27.1 18.9.5.3 0 1.2-.5.8-9.2-6.1-17.9-12.8-27.2-18.9-.3-.3.1-1.1.6-.8zM72.5 180.4c10.2 6.7 20.2 13.7 30.5 20.4.5.3 0 1.2-.5.8-10.2-6.7-20.2-13.7-30.5-20.4-.4-.3 0-1.2.5-.8z"/><path fill="#FDED00" d="M80.2 184.7c14.3 5.9 26.3 15.7 39.1 24.2.5.3 0 1.2-.5.8-12.8-8.5-24.8-18.3-39.1-24.2-.6-.2-.1-1 .5-.8zM99.4 199.7c13.6 8.8 27.4 17.2 41 26 .5.3 0 1.2-.5.8-13.6-8.8-27.4-17.2-41-26-.5-.3 0-1.1.5-.8z"/><path fill="#FDED00" d="M106.9 202.8c1 1.6 3.9 2.8 5.4 3.8 3.5 2.2 7 4.2 10.5 6.3 5.6 3.3 11.4 6.5 16.9 10 .5.3 0 1.2-.5.8-6.4-4.1-13.2-7.8-19.8-11.7-3.7-2.2-11.1-4.9-13.4-8.7-.2-.5.6-1 .9-.5z"/><path fill="#FDED00" d="M93.9 194.9c9.9 4.2 18.6 10.7 28.3 15.3.5.3.1 1.1-.5.8-9.7-4.6-18.3-11.1-28.3-15.3-.5-.2-.1-1 .5-.8zM123.9 213.2c10.1 4.3 18.8 10.9 27.8 16.9.5.3 0 1.2-.5.8-9.1-6-17.8-12.6-27.8-16.9-.5-.2 0-1.1.5-.8zM154.5 232.6c.2-.6 1.1-.4.9.2-.1.6-1 .4-.9-.2zM135.6 224.4c-.4-.6-.9-1.1-1.5-1.6-.4-.4.2-1.1.7-.7 7.1 6.2 16 9.3 23.8 14.3.5.3 0 1.1-.5.8-4.2-2.6-8.7-4.8-13.1-7.1-2.2-1.1-4.3-2.4-6.4-3.8-.6-.4-1.1-.7-1.6-1.1-.8-.7-2.1-3.1-.8-1.5.5.5-.2 1.2-.6.7z"/><path fill="#FDED00" d="M133.4 220.6c10.1 9.5 22.7 15.5 34.3 22.9.5.3 0 1.2-.5.8-11.7-7.4-24.3-13.5-34.5-23-.4-.5.3-1.1.7-.7z"/><path fill="#FDED00" d="M144.6 229.7c11.4 5.6 22 12.5 31.4 21.1.5.4-.2 1.1-.7.7-9.3-8.5-19.9-15.4-31.2-20.9-.5-.3-.1-1.2.5-.9z"/><path fill="#FDED00" d="M178.4 253.4c-9.3-9.6-21.2-15.8-32.1-23.3-.5-.3 0-1.2.5-.8 10.9 7.6 22.9 13.9 32.3 23.5.4.4-.3 1.1-.7.6z"/><path fill="#FDED00" d="M176 249.4c-7.9-8-17.8-13.5-27.2-19.5-.5-.3 0-1.2.5-.8 9.5 6.1 19.4 11.6 27.4 19.7.4.4-.2 1.1-.7.6z"/><path fill="#FDED00" d="M176.3 245.3c-10.6-8.4-23-13.8-35.1-19.7-.5-.3-.1-1.1.5-.8 12.2 6 24.6 11.4 35.3 19.9.4.3-.2 1-.7.6z"/><path fill="#FDED00" d="M173.2 242.7c-6.2-4.1-12.2-8.4-18.9-11.7-.6-.3-.1-1.1.5-.8 6.7 3.2 12.7 7.6 18.9 11.7.5.3 0 1.1-.5.8zM130.3 211.8c5.8 3.1 11.5 6.3 17 9.8.5.3 0 1.2-.5.8-5.5-3.5-11.3-6.7-17-9.8-.5-.3 0-1.1.5-.8zM151 221c4.5 4.9 11.9 6.7 17.9 9.2.6.2.1 1-.5.8-6.1-2.5-13.5-4.4-18.1-9.3-.3-.5.3-1.2.7-.7zM128 203.6c.7 1.4 4.3 2.5 5.6 3.2 3.7 1.9 7.5 3.7 11.3 5.5 6.6 3.1 13.3 6.1 19.7 9.5.5.3.1 1.1-.5.8-7-3.7-14.2-6.8-21.2-10.2-3.5-1.7-13.7-4.6-15.7-8.3-.3-.6.5-1.1.8-.5zM139.4 206.1c.3.9 2.9 1.9 3.7 2.3 2.5 1.4 5.1 2.7 7.7 4 4.2 2.1 8.5 4.1 12.5 6.6.5.3 0 1.2-.5.8-4.6-2.9-9.7-5.2-14.6-7.6-2.2-1.1-8.8-3.2-9.7-5.8-.2-.6.7-.9.9-.3z"/><path fill="#FDED00" d="M159.3 216.5c9.7 4.6 18.6 10.7 28.5 14.9.6.2.1 1.1-.5.8-9.9-4.2-18.9-10.2-28.5-14.9-.5-.2 0-1.1.5-.8zM163.6 221.1c.4.1.8 0 1.1.1.6.2.3 1.1-.2.9-.4-.1-.8 0-1.1-.1-.6-.2-.4-1.1.2-.9zM162.2 274.3c-6.7-8.7-17-13.6-25.5-20.2-.5-.4.2-1 .7-.7 8.6 6.8 18.9 11.6 25.7 20.4.3.5-.5 1-.9.5zM161.7 269.7c-9.1-7.1-18.8-13.6-27.3-21.5-.4-.4.2-1.1.7-.7 8.5 7.9 18.2 14.3 27.3 21.5.4.4-.3 1-.7.7z"/><path fill="#FDED00" d="M146.4 259.2c-11.2-8.2-20.6-18.6-33-25.1-.5-.3-.1-1.1.5-.8 12.3 6.5 21.8 17 33 25.1.5.3 0 1.1-.5.8z"/><path fill="#FDED00" d="M124.1 242.1c-7.6-7.3-15.5-14.3-24.3-20.1-.5-.3 0-1.2.5-.8 8.9 5.9 16.8 12.9 24.5 20.3.4.4-.3 1.1-.7.6zM94.1 218.3c-4.4-2.9-8.5-6.1-12.5-9.4-.5-.4.2-1.1.7-.7 4 3.2 8 6.4 12.3 9.2.5.5 0 1.3-.5.9zM73.7 203.2c-3.8-2.4-7.5-4.9-11.3-7.3-.5-.3 0-1.2.5-.8 3.8 2.4 7.5 4.9 11.3 7.3.5.3.1 1.2-.5.8zM56.2 180.8c4.2 2.2 8.1 4.8 11.5 8.1.4.4-.2 1.1-.7.7-3.3-3.3-7.2-5.8-11.3-8-.5-.2 0-1 .5-.8zM73.7 192.8c11.9 5 19.8 15.6 30.2 22.7.5.3 0 1.2-.5.8-10.4-7.1-18.4-17.7-30.2-22.7-.6-.2-.1-1 .5-.8z"/><path fill="#FDED00" d="M81.2 199c3.8.9 7.1 3.9 10.1 6.3 4.5 3.6 8.7 7.6 13.5 10.8.5.3 0 1.2-.5.8-3.7-2.5-7-5.5-10.4-8.3-3.7-3.1-8-7.5-12.9-8.7-.6-.1-.4-1 .2-.9zM107.3 217.8c9 6 17.1 13.1 25 20.6.4.4-.2 1.1-.7.7-7.8-7.4-15.8-14.5-24.8-20.4-.4-.4 0-1.2.5-.9z"/><path fill="#FDED00" d="M102.2 217c10.7 4.1 18.7 12.5 28 18.8.5.3 0 1.2-.5.8-9.3-6.2-17.2-14.6-27.7-18.7-.6-.2-.4-1.2.2-.9z"/><path fill="#FDED00" d="M125.5 232.7c9.2 9.1 20.4 15.8 31.3 22.8.5.3 0 1.2-.5.8-10.9-7-22.2-13.8-31.4-22.9-.5-.4.2-1.1.6-.7z"/><path fill="#FDED00" d="M129.4 237.7c15.3 5.6 26.8 18.3 39.1 28.5.5.4-.2 1.1-.7.7-12.1-10.1-23.5-22.7-38.6-28.2-.6-.3-.4-1.2.2-1z"/><path fill="#FDED00" d="M152.1 256.1c7.8 4 14.2 9.8 20.9 15.5.5.4-.2 1.1-.7.7-6.6-5.5-13-11.3-20.7-15.3-.6-.3-.1-1.2.5-.9z"/><path fill="#FDED00" d="M174.2 272.2c-7.4-6.6-15.3-12.5-23-18.7-.5-.4.2-1.1.7-.7 7.7 6.2 15.6 12.1 23 18.7.4.5-.3 1.1-.7.7zM147.6 287.9c9-3.8 17.6-5.2 25.3-11.8 4.6-3.9 8.9-5.1 14.9-4.2.6.1.4 1-.2.9-8.6-1.3-12.5 3.2-18.8 7.9-6 4.5-14.2 5.2-20.9 8.1-.6.3-.8-.6-.3-.9zM145.1 288.5c-5.1-6.1-8.5-13.4-13.2-19.7-.4-.5.5-1 .8-.5 4.7 6.3 8 13.5 13 19.5.5.5-.2 1.1-.6.7zM129.3 270.2c-6.6-6.3-13.1-13-18.2-20.5-.3-.5.5-1 .8-.5 5.1 7.4 11.6 14.1 18.1 20.3.4.4-.3 1.1-.7.7z"/><path fill="#FDED00" d="M121.6 260.2c-7.7-7.5-15.7-14.6-23-22.4-.4-.4.2-1.1.7-.7 7.3 7.8 15.4 14.9 23 22.4.4.5-.3 1.1-.7.7zM117.2 253.7c-11.1-10.5-21-22.1-31.3-33.3-.4-.4.2-1.1.7-.7 10.3 11.2 20.2 22.8 31.3 33.3.4.4-.3 1.1-.7.7z"/><path fill="#FDED00" d="M99.3 232.8c-8.8-8.3-17.4-16.8-26.2-25.1-.4-.4.2-1.1.7-.7 8.8 8.3 17.4 16.8 26.2 25.1.5.5-.2 1.1-.7.7zM123.5 260.8c-6.9-12-18.1-20.4-27.9-29.8-.4-.4.2-1.1.7-.7 9.9 9.5 21.2 18 28.1 30 .2.6-.6 1.1-.9.5zM136.9 268.9c-7.9-8.8-16.8-16.6-24.8-25.4-.4-.4.3-1.1.7-.7 7.9 8.8 16.8 16.6 24.8 25.4.3.5-.3 1.2-.7.7zM143.6 278.1c-.1-.3-.1-.5-.4-.7-.5-.3 0-1.2.5-.8.5.3.7.7.8 1.3.1.5-.8.8-.9.2z"/><path fill="#FDED00" d="M132.4 267.3c-5.9-7.4-12-14.5-19.3-20.6-.5-.4.2-1.1.7-.7 7.3 6.1 13.4 13.2 19.3 20.6.3.5-.3 1.1-.7.7z"/><path fill="#FDED00" d="M137.2 275.9c-5.9-8.1-11.9-16.1-19.7-22.6-.5-.4.2-1.1.7-.7 7.8 6.5 13.9 14.6 19.8 22.8.3.5-.5.9-.8.5z"/><path fill="#FDED00" d="M132.4 274.6c-5.3-7.7-10.3-15.6-16.7-22.5-.4-.4.2-1.1.7-.7 6.5 6.9 11.5 14.9 16.8 22.7.4.5-.4 1-.8.5z"/><path fill="#FDED00" d="M123.7 259.3c4.3 9.7 12.6 16.7 18.8 25.1.4.5-.5 1-.8.5-6.2-8.4-14.5-15.4-18.8-25.1-.2-.5.6-1 .8-.5z"/><path fill="#FDED00" d="M132.1 270.4c3.1 10.9 12.8 18.1 16.5 28.6.2.6-.7.8-.9.3-3.7-10.6-13.5-17.7-16.5-28.6-.2-.6.7-.9.9-.3zM148.3 295.3c.6-.5-1.5-2-1.7-2.2-.5-.3 0-1.2.5-.8 1 .7 3.4 2.6 1.8 3.8-.6.4-1.1-.5-.6-.8z"/><path fill="#FDED00" d="M146.9 293.8c-2.3-6.5-7.7-11.1-12-16.3-.4-.5.3-1.1.7-.7 4.3 5.4 9.8 10 12.2 16.7.2.6-.7.9-.9.3z"/><path fill="#FDED00" d="M144.5 292.9c-1.4-4.5-4.6-7.9-7-11.8-.3-.5.5-1 .8-.5 2.4 4 5.6 7.5 7.1 12.1.2.5-.8.7-.9.2zM147.1 289.2c-3.7-4.4-7.2-9-11-13.3-.4-.5.3-1.1.7-.7 3.8 4.3 7.3 8.9 11 13.3.4.5-.3 1.1-.7.7zM147.4 285c-5.2-5.7-11-10.9-16.5-16.3-.4-.4.2-1.1.7-.7 5.5 5.4 11.3 10.6 16.5 16.3.3.5-.3 1.2-.7.7zM151.1 285c-9.6-7.7-17.2-17.3-25.4-26.4-.4-.5.3-1.1.7-.7 8.2 9.1 15.8 18.7 25.4 26.4.4.4-.2 1-.7.7z"/><path fill="#FDED00" d="M154.9 283.8c-9.4-9.1-19.7-17.2-29.4-25.9-.5-.4.2-1.1.7-.7 9.7 8.7 20 16.8 29.4 25.9.4.4-.2 1.1-.7.7zM152.9 279.4c-6-6.3-13-11.6-19.7-17.1-.5-.4.2-1.1.7-.7 6.7 5.5 13.7 10.8 19.7 17.1.4.4-.3 1.1-.7.7z"/><path fill="#FDED00" d="M152.1 277.6c-7.7-7.3-16.2-13.7-23.9-21.1-.4-.4.2-1.1.7-.7 7.7 7.4 16.2 13.8 23.9 21.1.5.5-.2 1.2-.7.7zM122.6 252.3c-7.4-5.5-14.3-11.8-21.1-18-.4-.4.2-1.1.7-.7 6.8 6.2 13.5 12.4 20.9 17.9.4.3 0 1.1-.5.8zM99.9 235.7c-2.6-2.3-5.1-4.6-6.9-7.6-.3-.5.5-1 .8-.5 1.8 2.9 4.2 5.2 6.7 7.4.6.4-.1 1.1-.6.7zM49.6 192c6.4 3.2 9.6 10.3 14.2 15.4.4.5-.3 1.1-.7.7-4.5-5.1-7.6-12.1-14-15.2-.5-.4-.1-1.2.5-.9z"/><path fill="#FDED00" d="M54.2 196.2c8.4 6.3 15.3 14.2 22.3 21.9.4.5-.3 1.1-.7.7-6.9-7.7-13.8-15.5-22.1-21.7-.4-.4 0-1.3.5-.9zM63.5 207.8c8.7 7.7 16.2 16.5 24.9 24.2.5.4-.2 1.1-.7.7-8.7-7.7-16.2-16.5-24.9-24.2-.4-.5.2-1.1.7-.7z"/><path fill="#FDED00" d="M67 211.9c10.3 8.7 17.7 20 26.8 29.8.4.4-.2 1.1-.7.7-9.1-9.8-16.6-21.1-26.8-29.8-.5-.4.2-1.1.7-.7z"/><path fill="#FDED00" d="M87 234.2c6.5 5 12.1 11.2 16.9 17.8.4.5-.5 1-.8.5-4.8-6.5-10.4-12.7-16.7-17.6-.6-.4.1-1.1.6-.7z"/><path fill="#FDED00" d="M90.6 235.3c3.9 3.8 7.6 7.9 11.5 11.8.4.4-.2 1.1-.7.7-3.9-3.8-7.6-7.9-11.5-11.8-.4-.5.2-1.2.7-.7zM98.9 240.7c3.8 5 8.5 9.2 12.3 14.2.4.5-.4 1-.8.5-3.8-5-8.5-9.2-12.3-14.2-.4-.5.4-1 .8-.5z"/><path fill="#FDED00" d="M100.7 244.3c6 5.2 11.3 11.1 15.8 17.7.3.5-.5 1-.8.5-4.4-6.5-9.7-12.3-15.6-17.5-.5-.4.2-1.1.6-.7z"/><path fill="#FDED00" d="M103.9 250.7c5.9 5.1 11.1 10.9 16.2 16.7.4.5-.3 1.1-.7.7-5.1-5.9-10.4-11.6-16.2-16.7-.4-.4.3-1.1.7-.7zM95.5 240.9c5.3 5.7 11.6 10.1 16.8 15.9.4.5-.3 1.1-.7.7-5.2-5.7-11.5-10.2-16.8-15.9-.4-.4.3-1.1.7-.7z"/><path fill="#FDED00" d="M95.1 240.7c10.8 9.6 20.7 20.2 27.2 33.2.3.5-.5 1-.8.5-6.5-12.9-16.4-23.4-27.1-33-.4-.5.2-1.1.7-.7zM137.8 322.9c-5.4-35.8-31.9-59.4-54.9-84.8-10.1-11.1-19.6-22.7-28.5-34.8C43.7 188.9 30.8 177 18 164.5c-.4-.4.2-1.1.7-.7 11.9 11.5 24.1 22.6 34.2 35.8 12.1 16 24.6 31.3 38.2 46 21.1 23 42.8 44.9 47.6 77.2.1.7-.8.7-.9.1z"/><path fill="#FDED00" d="M18.6 165c16.3 13.6 30.6 29 44.1 45.4 13.1 16.1 26.9 31.1 40.7 46.6 11.8 13.2 18.3 27.7 25.4 43.6 5.8 12.9 9.2 25.3 2 38.3-.3.5-1.1.1-.8-.5 9.3-16.9-.1-32.5-6.8-48.3-7.5-17.5-18.6-30.9-31.7-44.6-25.1-26.4-45.4-56.5-73.6-80-.5-.2.2-.9.7-.5zM36.2 151.8c8.2 5.9 17.4 11 27.1 14 .6.2.4 1.1-.2.9-9.8-3-19-8.1-27.4-14.1-.4-.3 0-1.1.5-.8zM136.7 303.8c-2.2-5-4.3-10-6.9-14.9-.3-.5.5-1 .8-.5 2.6 4.9 4.8 10 7 15.1.3.6-.7.9-.9.3zM141.1 299.9c-2.6-6-7.1-10.7-11.1-15.7-.4-.5.3-1.1.7-.7 4.1 5.1 8.7 10 11.3 16.1.3.6-.7.9-.9.3z"/><path fill="#FDED00" d="M142.7 298.6c-4.6-6.1-8.9-12.4-13.9-18.2-.4-.5.3-1.1.7-.7 5 5.9 9.4 12.3 14 18.4.4.5-.4 1-.8.5zM145.2 313.7c-.9-2-1.9-3.8-2.4-6-.1-.6.8-.9.9-.3.5 2 1.5 3.8 2.3 5.7.2.7-.6 1.2-.8.6zM147.1 314.3c-.6-3-1.3-6-2.2-8.9-.2-.6.7-.8.9-.3.9 2.9 1.6 5.9 2.3 8.9.1.7-.8.9-1 .3zM148.8 311.7c-.6-2.7-1.5-5.3-2.8-7.9-.3-.5.5-1 .8-.5 1.3 2.6 2.2 5.3 2.9 8.1.2.7-.7.9-.9.3zM151.9 310.1c-2-2.7-3.1-5.8-4.2-8.9-.2-.6.7-.8.9-.3 1 3.1 2.1 6.1 4.1 8.7.4.5-.5 1-.8.5z"/><path fill="#FDED00" d="M151.8 308.1c-.8-3.8-2-7.5-3.8-11-.3-.5.5-1 .8-.5 1.8 3.6 3 7.3 3.9 11.2.1.6-.8.9-.9.3zM153.6 303.8c-2-2-2.9-4.6-3.5-7.3-.1-.6.8-.9.9-.3.6 2.6 1.4 5 3.3 6.9.4.5-.3 1.2-.7.7zM160 308c-2.8-5-3.5-10.8-6.3-15.8-.3-.5.5-1 .8-.5 2.8 5 3.6 10.8 6.3 15.8.3.5-.5 1-.8.5z"/><path fill="#FDED00" d="M158.2 301.3c-2-4.5-3.2-9.4-5.9-13.7-.3-.5.5-1 .8-.5 2.7 4.3 3.8 9.1 5.9 13.7.3.5-.5 1-.8.5zM161.1 306.1c-1.3-6-2.9-11.9-5.9-17.3-.3-.5.5-1 .8-.5 3.1 5.4 4.7 11.5 6 17.5.1.7-.8.9-.9.3zM161.9 301c-.2-5.6-3.5-10.3-4.5-15.7-.1-.6.8-.9.9-.3.9 5.5 4.2 10.3 4.5 16 .1.6-.9.6-.9 0zM162.2 293.9c-.6-3-1.6-5.9-2.9-8.6-.3-.5.6-1 .8-.5 1.3 2.8 2.3 5.8 3 8.8.2.7-.7.9-.9.3zM163.1 290.8c-.5-2.3-1.3-4.4-1.8-6.7-.1-.6.8-.9.9-.3.5 2.3 1.3 4.4 1.8 6.7.1.6-.8.9-.9.3zM164.7 287.6c-.6-1.1-.9-2.3-1.5-3.4-.3-.5.5-1 .8-.5.6 1.1.9 2.3 1.5 3.4.3.5-.6 1-.8.5zM166.9 285.9c-.3-1.3-.9-2.5-1.2-3.9-.1-.6.8-.9.9-.3.3 1.3.9 2.5 1.2 3.9.1.6-.8.9-.9.3z"/><path fill="#FDED00" d="M167.6 285.3c4.9 3.4 7.3 9.1 10.2 14.1.3.5-.5 1-.8.5-2.8-4.8-5.2-10.5-9.9-13.8-.5-.3 0-1.1.5-.8zM168.6 281.1c1.3 1.4 2.5 2.8 4.1 3.9.5.3 0 1.2-.5.8-1.7-1.1-3-2.6-4.3-4-.4-.5.3-1.2.7-.7zM171 280.2c2 2.5 4.4 4.7 6.4 7.2.4.5-.3 1.1-.7.7-2-2.5-4.4-4.7-6.4-7.2-.3-.5.4-1.2.7-.7z"/><path fill="#FDED00" d="M170.8 279.4c6.9 4.1 12.2 10.4 16.1 17.3.3.5-.5 1-.8.5-3.8-6.8-9-13-15.8-17-.5-.3 0-1.1.5-.8z"/><path fill="#FDED00" d="M183.6 290.7c-3.2-4.4-7.5-7.9-11.4-11.7-.4-.4.2-1.1.7-.7 4 3.8 8.2 7.4 11.5 11.9.4.5-.4.9-.8.5z"/><path fill="#FDED00" d="M180.3 285.5c-2.7-2.5-4.6-5.6-6.1-8.9-.2-.6.6-1 .8-.5 1.4 3.3 3.2 6.3 5.9 8.7.5.4-.1 1.1-.6.7zM173.4 277.3c-.6-.5-.7-1.2-.9-1.9-.1-.6.8-.9.9-.3.1.5.2 1.1.6 1.5.5.4-.2 1.1-.6.7z"/><path fill="#FDED00" d="M173.2 276.8c.2-.6 1.1-.4.9.2-.1.6-1 .4-.9-.2zM181.1 259c2.5 2.2 6 2.8 8.2 5.3.4.5-.3 1.1-.7.7-2.2-2.5-5.7-3.2-8.2-5.4-.4-.3.3-1 .7-.6zM181.6 256.9c4.4 1.8 8.1 4.6 12.1 7.2.5.3 0 1.2-.5.8-3.9-2.6-7.5-5.4-11.9-7.1-.5-.2-.3-1.1.3-.9zM182 255.3c6.7 2.6 12.4 6.8 18.2 11.2.5.4 0 1.2-.5.8-5.6-4.3-11.3-8.5-17.9-11.1-.6-.2-.4-1.1.2-.9zM182.7 252.6c5.3 2.2 10.1 5.3 14.9 8.4.5.3 0 1.2-.5.8-4.8-3.1-9.6-6.2-14.9-8.4-.6-.2-.1-1 .5-.8z"/><path fill="#FDED00" d="M184 252.3c4.8.7 9.1 2.9 13.2 5.5.5.3 0 1.1-.5.8-4-2.6-8.2-4.7-13-5.4-.6-.1-.3-1 .3-.9zM184.2 249.3c3.8 1.8 7.7 3.2 11.5 5 .6.3.1 1.1-.5.8-3.8-1.8-7.7-3.2-11.5-5-.5-.2 0-1 .5-.8zM188.3 244.6c3.9.7 7.7 2 11.5 3.2.6.2.4 1.1-.2.9-3.8-1.2-7.6-2.4-11.5-3.2-.6-.1-.4-1 .2-.9zM190.3 240.9c4.3 2.7 9.1 4.1 13.8 6 .6.2.3 1.1-.2.9-4.8-1.9-9.7-3.3-14.1-6.1-.5-.3 0-1.1.5-.8zM190.6 243c5.6 2 11 4.6 16.7 6.5.6.2.3 1.1-.2.9-5.7-1.9-11.1-4.5-16.7-6.5-.6-.2-.4-1.1.2-.9zM191.8 237.6c3.7 1.7 7.6 2.7 11.5 3.8.6.2.4 1.1-.2.9-4-1.2-8-2.2-11.8-3.9-.5-.2 0-1 .5-.8zM194 236c2.2.8 4.5 1.2 6.8 1.9.6.2.3 1.1-.2.9-2.2-.7-4.6-1.1-6.8-1.9-.6-.2-.4-1.1.2-.9zM195.6 235.2c2.1.2 4.3.5 6.5.5.6 0 .6.9 0 .9-2.2 0-4.3-.3-6.5-.5-.6 0-.6-.9 0-.9zM199.4 234c2.3.3 4.6.5 6.9.8.6.1.6 1 0 1-2.3-.3-4.6-.5-6.9-.8-.6-.1-.6-1 0-1z"/><path fill="#FDED00" d="M199.5 232.2c4.8 1.2 9.8 1.6 14.3 3.8.6.3.1 1.1-.5.8-4.5-2.1-9.4-2.5-14.1-3.7-.5-.1-.3-1.1.3-.9z"/><path fill="#FDED00" d="M202.4 231.6c3.1.4 6.1 1.1 9.1 2.2.6.2.3 1.1-.2.9-2.9-1.1-5.9-1.8-9-2.2-.8-.1-.5-1 .1-.9zM195.2 275c8.7 3.8 13.2-1.4 17-8.6 2.2-4.1 4.5-9.5 9.7-10.3.6-.1.9.8.3.9-6.6 1-9 10.6-12.4 15.4-3.8 5.4-9.2 6-15 3.4-.6-.2-.1-1.1.4-.8z"/><path fill="#FDED00" d="M218.5 258.4c9.6-4.4 18.9-8.9 27.2-15.4.5-.4 1.2.3.7.7-8.4 6.6-17.8 11.1-27.4 15.6-.6.1-1-.7-.5-.9z"/><path fill="#FDED00" d="M247.7 243.7c-7.3-3.9-13.3 3.3-20.7 1.8-4.7-.9-7.7-4.7-11.5-7.3-.5-.3 0-1.2.5-.8 1.8 1.2 3.4 2.5 5.1 3.9 4.2 3.6 7.9 3.7 13.1 2.5 5.6-1.2 8.5-3.9 14-1 .5.3.1 1.2-.5.9zM216.9 236.1c3.1-5 1.9-10.9 5.3-15.9 3.5-5.2 8.9-8.9 12.8-13.7.4-.5 1.1.2.7.7-3.5 4.3-7.8 7.9-11.5 12-4.8 5.4-2.9 11.8-6.5 17.5-.3.4-1.1-.1-.8-.6zM-13.2 121.5c7.7 2.7 12.5 9.7 18 15.4.4.4-.2 1.1-.7.7-5.4-5.5-10.1-12.5-17.6-15.2-.5-.1-.3-1.1.3-.9z"/><path fill="#FDED00" d="M-5.7 130.1c6.9 3.5 11.1 10.1 16.7 15.2.5.4-.2 1.1-.7.7-5.5-5-9.7-11.6-16.6-15.1-.4-.2.1-1.1.6-.8zM-1.4 130.4C4.6 135 9.3 141 15 146c.5.4-.2 1.1-.7.7-5.7-5-10.4-10.9-16.4-15.6-.5-.4.2-1 .7-.7z"/><path fill="#FDED00" d="M8 138.4c4 2.6 8.1 5.3 12.1 7.9.5.3 0 1.2-.5.8-4-2.6-8.1-5.3-12.1-7.9-.5-.3 0-1.1.5-.8z"/><path fill="#FDED00" d="M12.6 140.8c3 1.4 5.8 3.1 8.8 4.5.6.2.1 1.1-.5.8-3-1.3-5.8-3.1-8.8-4.5-.5-.2 0-1.1.5-.8zM11.7 145.3c1.8-.3 3.6.3 5.1 1.3.5.3 0 1.1-.5.8-1.3-.8-2.9-1.4-4.4-1.2-.5.1-.8-.8-.2-.9zM-7 168.1c6 3.3 8.7 8.7 11.4 14.8 4 8.8 11.5 15.6 18.2 22.4.4.4-.2 1.1-.7.7-5.1-5.2-10.3-10.3-14.6-16.2C2.1 182.7.8 173.6-7.5 169c-.5-.4 0-1.2.5-.9zM23.8 207c-2 7-2.1 16.3-1.6 23.5.6 9.1 7 17.1 11.2 24.9.3.5-.5 1-.8.5-3.9-7.3-9.7-14.6-11-23-1.1-7.9-.9-18.3 1.3-26.1.1-.7 1-.4.9.2z"/><path fill="#FDED00" d="M34 254.7c-6.9 5.1-10 14.3-14.3 21.4-5.3 8.7-6.6 18.8-7.2 28.8 0 .6-1 .6-.9 0 .7-10.4 2.4-19.9 7.3-29.2 3.9-7.5 7.7-16.6 14.7-21.7.4-.5.8.3.4.7z"/><path fill="#FDED00" d="M13.6 303.1c-18 8.8-29.6 21-32.4 41.3-.1.6-1 .4-.9-.2 2.8-20.6 14.6-33 32.8-41.9.6-.3 1 .5.5.8zM-24 207.1c3 7.9 13.5 9.3 18.5 15.6C.3 230 2 239.5 7.3 247.1c.3.5-.5 1-.8.5-6.5-9.3-7.9-22.1-17.7-28.7-5.1-3.4-11.3-5.3-13.6-11.4-.3-.7.6-1 .8-.4z"/><path fill="#FDED00" d="M6.8 243.3c.4 8-3.7 15.7 2.2 22.7.4.5-.3 1.1-.7.7-6.1-7.3-2-14.8-2.4-23.4 0-.6.9-.6.9 0z"/><path fill="#FDED00" d="M7.3 265c2.3 4 3.5 8.8 6.7 12.3.4.5-.3 1.1-.7.7-3.2-3.6-4.5-8.4-6.8-12.5-.3-.6.5-1.1.8-.5z"/><path fill="#FDED00" d="M11.4 271.9c1.6 2.9 2.2 6.3 4.8 8.6.5.4-.2 1.1-.7.7-2.6-2.4-3.2-5.8-4.9-8.8-.3-.5.5-1 .8-.5zM-19.6 343.2c.6-7.4 4.5-13.6 9.1-19.3 2.3-2.9 5.1-5.4 8.1-7.6 5.5-4 12.6-4.4 16.9-10.4.3-.5 1.2 0 .8.5-3.7 5.2-9.7 6.9-15.2 9.6-9.3 4.5-17.9 17-18.7 27.2-.1.6-1.1.6-1 0z"/><path fill="#FDED00" d="M12.8 309.5C6.7 288 18.4 268.4 32.2 252c.4-.5 1.1.2.7.7-6.8 8.1-11.5 17.5-16.7 26.6-5.7 10-5.6 19.2-2.5 30 .2.6-.7.8-.9.2z"/><path fill="#FDED00" d="M33.5 255.9c-20.4-7.6-16.3-34.5-10.2-50.8.2-.6 1.1-.3.9.2-5.9 15.6-10.3 42.2 9.5 49.6.6.3.3 1.2-.2 1z"/><path fill="#FDED00" d="M24.2 206.7c-17.5-5.7-20.5-27-32.3-38.9-.4-.4.2-1.1.7-.7 11.6 11.7 14.7 33 31.9 38.6.5.3.3 1.2-.3 1zM-9.1 217.3c1.5 2.1 6.1.3 8.1-.2 2.2-.6 4.3-1.2 6.5-1.4.6 0 .6.9 0 .9-3.5.3-6.9 1.6-10.4 2.2-1.8.3-3.9.4-5.1-1.1-.3-.4.5-.9.9-.4zM7 216c4.1 3.4 6.3 8.3 9.1 12.7.3.5-.5 1-.8.5-2.8-4.3-4.9-9.2-8.9-12.6-.6-.3.1-1 .6-.6zM-1.3 229.7c7 5.9 19.3.2 22.6 11.1.2.6-.7.8-.9.3-3.1-10.3-15.6-5-22.4-10.7-.5-.4.2-1.1.7-.7zM6.4 241.5c6.5 6.6 16.5 6.5 20.9 15.5.3.5-.5 1-.8.5-4.3-8.9-14.3-8.8-20.7-15.3-.5-.4.2-1.1.6-.7zM10.6 249.2c4.7 5.3 1.4 12-3.6 15.7-.5.4-1-.5-.5-.8 4.5-3.3 7.7-9.4 3.5-14.2-.4-.5.2-1.1.6-.7z"/><path fill="#FDED00" d="M9.8 260.4c4.5 1.4 8.7 3.8 9.6 8.8.1.6-.8.9-.9.3-.8-4.7-4.7-6.8-8.9-8.2-.6-.2-.3-1.1.2-.9zM13.1 259.7c4.6-2.7 9.7-1.3 13.4 2.2.4.4-.2 1.1-.7.7-3.4-3.2-8-4.6-12.2-2.1-.6.3-1.1-.5-.5-.8z"/><path fill="#FDED00" d="M11 260.1c5.7-1 8.8-4.5 10.6-9.8.2-.6 1.1-.3.9.2-1.9 5.6-5.3 9.5-11.2 10.5-.6.1-.9-.8-.3-.9zM-47 160.6c7.4 5.6 13.6 12.4 20.3 18.9 5.4 5.2 11.9 9.2 17.9 13.7 7.3 5.4 14.9 12.6 13.5 22.4-.1.6-1 .4-.9-.2 2-13.3-13.5-21.8-22.6-28.2-10.6-7.5-18.5-17.9-28.7-25.8-.6-.5.1-1.2.5-.8z"/><path fill="#FDED00" d="M-5.8 194.7c6 3.7 15 5.8 17.8 13 .2.6-.7.8-.9.3-2.7-6.8-11.7-8.9-17.4-12.4-.5-.4-.1-1.2.5-.9z"/><path fill="#FDED00" d="M8.5 202.2c3.9 3 8.1 5 12.8 6.5.6.2.3 1.1-.2.9-4.9-1.5-9.2-3.6-13.2-6.7-.5-.4.2-1 .6-.7zM7.3 196.9c-7.4.9-14.2-1.4-19.6-6.5-.4-.4.2-1.1.7-.7 5.2 4.9 11.8 7.1 18.9 6.2.6 0 .6.9 0 1zM-20.9 183.1c5.1 5.4 15.5 2.9 20.9-.9.5-.3 1 .5.5.8-5.8 4-16.6 6.5-22.1.7-.4-.4.3-1.1.7-.6zM-42.7 189.8c11.8 7.6 18.2 20.3 29.7 28.3 3.2 2.2 7.7 4.7 9.9 8 4.1 6.2 5.8 13.2 9.4 19.7.3.5-.5 1-.8.5-2.1-3.7-3.5-7.5-5-11.4-3.3-8.7-9.6-12.4-16.5-17.7-10.2-7.8-16.1-19.4-27-26.4-.7-.5-.2-1.3.3-1z"/><path fill="#FDED00" d="M-12.4 239.2c5.3 4.2 14 15.3 20.8 7.8.4-.5 1.1.2.7.7-7.3 8.1-16.4-3.3-22.1-7.8-.5-.4.1-1.1.6-.7zM-6.1 275.9c3.1 2.7 5.4 6.1 7.3 9.8.3.5-.5 1-.8.5-1.9-3.6-4.1-6.9-7.2-9.6-.4-.4.2-1.1.7-.7z"/><path fill="#FDED00" d="M-4.2 275.9c3.5 3.1 5.1 7.6 8.3 10.9.4.4-.2 1.1-.7.7-3.2-3.4-4.8-7.9-8.3-10.9-.5-.4.2-1.1.7-.7z"/><path fill="#FDED00" d="M-5.8 274.9c16.2 5.3 9.6 20.2 4.7 31.9-.2.6-1.1.1-.8-.5 4.6-10.8 11.5-25.4-4.1-30.5-.6-.1-.3-1.1.2-.9z"/><path fill="#FDED00" d="M5.1 291.3c1 4.4 3 8.5 6.5 11.5.5.4-.2 1.1-.7.7-3.6-3.1-5.7-7.3-6.7-11.9-.2-.6.7-.9.9-.3zM-2.9 275.8c-1-8 4.6-12.2 9.1-17.9.4-.5 1 .2.7.7-4.3 5.5-9.8 9.5-8.8 17.2 0 .6-.9.6-1 0z"/><path fill="#FDED00" d="M-.7 266.6c.3-1.3-.2-2.8-.5-4.1-.4-1.7-1-3.5-1.8-5.1-.3-.5.6-1 .8-.5.8 1.7 1.4 3.5 1.9 5.3.4 1.4.8 3.1.6 4.6-.2.6-1.1.4-1-.2z"/><path fill="#FDED00" d="M-1 262c2.1.7 4.3.5 6.2-.6.5-.3 1 .5.5.8-2.1 1.2-4.6 1.4-6.9.7-.6-.2-.4-1.1.2-.9z"/><path fill="#FDED00" d="M5.5 259.6c.1 6.1 4.3 12.7 8.1 17.3.4.5-.3 1.1-.7.7-3.9-4.8-8.2-11.6-8.4-18 0-.6.9-.6 1 0z"/><path fill="#FDED00" d="M11.2 274.5c-.3 4.4-1 8.6.1 12.9.2.6-.8.9-.9.3-1.1-4.4-.5-8.7-.2-13.2.1-.6 1.1-.6 1 0z"/><path fill="#FDED00" d="M11.8 277.3c-.2 4.3.5 8.6-.3 12.9-.1.6-1 .4-.9-.2.8-4.2.1-8.4.3-12.6 0-.7.9-.7.9-.1zM14.1 279.6c-.8 2.1-1.2 4.4-.8 6.6.1.6-.8.9-.9.3-.5-2.5-.1-4.8.8-7.1.2-.6 1.1-.4.9.2z"/><path fill="#FDED00" d="M14.4 279.1c-.9 7.1-.7 14.2-1 21.4 0 .6-1 .6-.9 0 .3-7.2.1-14.4 1.1-21.6 0-.6.9-.4.8.2zM-12.1 238.7C-6 243.5.5 251.3 9 250.1c.6-.1.6.9 0 .9-8.8 1.3-15.5-6.7-21.8-11.6-.5-.4.2-1 .7-.7zM-47.7 68.7c15.5 8 34.5 4.3 51.1 3.2.6 0 .6.9 0 .9-16.9 1.1-35.9 4.7-51.6-3.3-.5-.2 0-1.1.5-.8z"/><path fill="#FDED00" d="M-23.2 74c14-.7 27.9-2.3 41.8-3 .6 0 .6.9 0 .9-14 .7-27.9 2.3-41.8 3-.6.1-.6-.8 0-.9z"/><path fill="#FDED00" d="M-22 67.9c18.5 5.3 38.1 3 56.9 6.8.6.1.4 1-.2.9-18.8-3.9-38.3-1.5-56.9-6.8-.7-.1-.4-1 .2-.9z"/><path fill="#FDED00" d="M19.4 71.5C27 74.4 35 75.9 43 77.1c.6.1.4 1-.2.9-8-1.3-16-2.7-23.6-5.6-.6-.2-.4-1.1.2-.9z"/></g></svg>