<?xml version="1.0" encoding="utf-8"?>
<!-- Generator: Adobe Illustrator 18.1.1, SVG Export Plug-In . SVG Version: 6.00 Build 0)  -->
<svg version="1.0" id="Capa_1" xmlns="http://www.w3.org/2000/svg" xmlns:xlink="http://www.w3.org/1999/xlink" x="0px" y="0px"
	 viewBox="0 0 261.7 376.3" enable-background="new 0 0 261.7 376.3" xml:space="preserve">
<g>
	<defs>
		<rect id="SVGID_7_" x="9.8" width="251.9" height="370.7"/>
	</defs>
	<clipPath id="SVGID_2_">
		<use xlink:href="#SVGID_7_"  overflow="visible"/>
	</clipPath>
	<g clip-path="url(#SVGID_2_)">
		<g>
			<path fill="#FDED00" d="M-52.9,69.9c21.2,7.5,43.5-3.4,65.1,0.1c0.6,0.1,0.4,1-0.2,0.9c-21.7-3.5-43.9,7.5-65.1-0.1
				C-53.7,70.6-53.5,69.7-52.9,69.9L-52.9,69.9z"/>
		</g>
		<g>
			<path fill="#FDED00" d="M-20.8,67.9c16.3,2,32.7,0,49.1,0c0.6,0,0.6,0.9,0,0.9c-16.5,0.1-32.9,2-49.3,0
				C-21.6,68.8-21.4,67.9-20.8,67.9L-20.8,67.9z"/>
		</g>
		<g>
			<path fill="#FDED00" d="M5.3,66.6c11.6,2.9,23.5,4.2,34.9,7.8c0.6,0.2,0.3,1.1-0.2,0.9c-11.4-3.7-23.3-5-34.9-7.8
				C4.4,67.4,4.7,66.4,5.3,66.6L5.3,66.6z"/>
		</g>
		<g>
			<path fill="#FDED00" d="M17.8,70.2c5.6,1.4,11.2,1.7,16.9,1.9c0.6,0,0.6,1,0,0.9c-5.8-0.2-11.5-0.6-17.2-1.9
				C17,70.9,17.2,70,17.8,70.2L17.8,70.2z"/>
		</g>
		<g>
			<path fill="#FDED00" d="M34.2,75.1c-9.1-4.3-19.1-4.8-28.9-6.3c-0.6-0.1-0.4-1,0.2-0.9c9.9,1.5,20,2,29.2,6.4
				C35.3,74.5,34.8,75.4,34.2,75.1L34.2,75.1z"/>
		</g>
		<g>
			<path fill="#FDED00" d="M42.6,72.5c8.1,1.2,16.3-0.7,24.2-2.4c0.6-0.1,0.9,0.8,0.3,0.9c-8.1,1.7-16.4,3.6-24.7,2.4
				C41.7,73.4,42,72.5,42.6,72.5L42.6,72.5z"/>
		</g>
		<g>
			<path fill="#FDED00" d="M50.1,73c8.8-0.1,17.3-1.7,25.9,0.8c10.6,3.1,18.2,12.1,28.9,15.4c0.6,0.2,0.4,1.1-0.2,0.9
				c-7.6-2.3-13.7-6.8-20.2-11.1c-11.1-7.3-22-5.2-34.3-5C49.5,73.9,49.5,73,50.1,73L50.1,73z"/>
		</g>
		<g>
			<path fill="#FDED00" d="M82.9,80.6c12,0.7,23.3,4.8,34.5,8.7c0.6,0.2,0.3,1.1-0.2,0.9c-11.2-3.9-22.4-7.9-34.3-8.6
				C82.3,81.5,82.3,80.5,82.9,80.6L82.9,80.6z"/>
		</g>
		<g>
			<path fill="#FDED00" d="M78.6,76.6c17.5-1.4,33.3,7.9,48,16.3c0.5,0.3,0.1,1.1-0.5,0.8C111.6,85.5,96,76.2,78.6,77.6
				C78,77.6,78,76.7,78.6,76.6L78.6,76.6z"/>
		</g>
		<g>
			<path fill="#FDED00" d="M117.8,90.6c6.3,4.1,12.5,8.1,19.9,9.6c0.6,0.1,0.4,1-0.2,0.9c-7.5-1.5-13.8-5.5-20.2-9.7
				C116.9,91.1,117.3,90.3,117.8,90.6L117.8,90.6z"/>
		</g>
		<g>
			<path fill="#FDED00" d="M133.8,99.8c-4.2-1.4-8.6-2.2-13.1-2.8c-0.5-0.1-0.4-0.9,0.1-0.9c5-0.1,9.1,2.3,13.6,4.2
				c0.2,0.1,0.3,0.5,0.2,0.6c-2.2,3.4-9.6,0.3-12.5-0.7c-0.6-0.2-0.3-1.1,0.2-0.9c1.6,0.5,3.1,1,4.7,1.5c1.4,0.4,5.7,1.4,6.6-0.1
				c-0.4,0.6-4.7-1.8-5.3-2c-2.4-1-4.8-1.6-7.4-1.6c0-0.3,0.1-0.6,0.1-0.9c4.4,0.5,8.8,1.4,13.1,2.8
				C134.6,99.1,134.4,100,133.8,99.8L133.8,99.8z"/>
		</g>
		<g>
			<path fill="#FDED00" d="M126.7,98.8c1.4,5.7,6.3,9.7,10.4,13.5c0.5,0.4-0.2,1.1-0.7,0.7c-4.3-3.9-9.2-8-10.6-13.9
				C125.6,98.4,126.5,98.2,126.7,98.8L126.7,98.8z"/>
		</g>
		<g>
			<path fill="#FDED00" d="M131,109.4c-5.3-1.1-10-3.1-14.5-6c-0.5-0.3,0-1.1,0.5-0.8c4.5,2.8,9.1,4.8,14.3,5.9
				C131.8,108.6,131.6,109.5,131,109.4L131,109.4z"/>
		</g>
		<g>
			<path fill="#FDED00" d="M128,108.6c-7.1-2.3-13.5-6.3-20.2-9.7c-0.5-0.3-0.1-1.1,0.5-0.8c6.6,3.3,12.9,7.2,19.9,9.6
				C128.9,107.9,128.6,108.8,128,108.6L128,108.6z"/>
		</g>
		<g>
			<path fill="#FDED00" d="M127.2,111.5c-15.3-8.9-30.1-19-48.4-20.1c-0.6,0-0.6-1,0-0.9c18.5,1.1,33.3,11.2,48.9,20.2
				C128.2,111,127.7,111.8,127.2,111.5L127.2,111.5z"/>
		</g>
		<g>
			<path fill="#FDED00" d="M99.1,95.4C89.7,95,81,91.8,72,89.3c-0.6-0.2-0.4-1.1,0.2-0.9c8.9,2.4,17.5,5.6,26.8,6.1
				C99.6,94.5,99.7,95.5,99.1,95.4L99.1,95.4z"/>
		</g>
		<g>
			<path fill="#FDED00" d="M106.5,104.9c-14.1-4.5-27.6-10.5-42.5-11.7c-0.6-0.1-0.6-1,0-0.9c15,1.3,28.6,7.2,42.8,11.8
				C107.3,104.2,107.1,105.1,106.5,104.9L106.5,104.9z"/>
		</g>
		<g>
			<path fill="#FDED00" d="M93.1,100.8C76.8,98,50,96.1,41.8,78.8c-0.3-0.5,0.6-1,0.8-0.5c8,17,34.5,18.8,50.7,21.5
				C94,100,93.7,100.9,93.1,100.8L93.1,100.8z"/>
		</g>
		<g>
			<path fill="#FDED00" d="M50.3,85.6c-3.5-2.4-5.5-6-6.4-10c-0.1-0.6,0.8-0.9,0.9-0.3c0.9,3.8,2.8,7.3,6,9.5
				C51.3,85.1,50.8,85.9,50.3,85.6L50.3,85.6z"/>
		</g>
		<g>
			<path fill="#FDED00" d="M50.6,77.8c7.2,1.2,14.5,1.7,21.6,3.7c0.6,0.2,0.4,1.1-0.2,0.9c-7-2-14.4-2.6-21.6-3.7
				C49.8,78.6,50,77.7,50.6,77.8L50.6,77.8z"/>
		</g>
		<g>
			<path fill="#FDED00" d="M53.1,77.2c7.2,0.4,14.4,0.4,21.4,2.4c0.6,0.2,0.4,1.1-0.2,0.9c-6.9-2-14.1-2-21.2-2.4
				C52.5,78.1,52.5,77.2,53.1,77.2L53.1,77.2z"/>
		</g>
		<g>
			<path fill="#FDED00" d="M49.9,75.1c13.1,1.2,25.5,4.8,38,8.6c0.6,0.2,0.3,1.1-0.2,0.9c-12.4-3.8-24.7-7.4-37.7-8.6
				C49.3,76,49.3,75,49.9,75.1L49.9,75.1z"/>
		</g>
		<g>
			<path fill="#FDED00" d="M57.5,74.2c12.5,3.5,24.8,7.1,36.7,12.4c0.6,0.3,0.1,1.1-0.5,0.8c-11.8-5.3-24.1-8.8-36.4-12.3
				C56.6,75,56.9,74.1,57.5,74.2L57.5,74.2z"/>
		</g>
		<g>
			<path fill="#FDED00" d="M16.9,75.2c9.1,4,19.4,1,28.3,6.1c0.5,0.3,0.1,1.1-0.5,0.8C35.8,77.1,25.5,80,16.4,76
				C15.8,75.8,16.3,75,16.9,75.2L16.9,75.2z"/>
		</g>
		<g>
			<path fill="#FDED00" d="M45.2,77.7c-12.2,1.9-23.5-4.9-33.7-7.5c-2-0.5-1.8-1.4,0.2-0.9c10.2,2.6,21.5,9.5,33.5,7.6
				C45.8,76.8,45.8,77.6,45.2,77.7L45.2,77.7z"/>
		</g>
		<g>
			<path fill="#FDED00" d="M18.8,74.3c10.1,19.6,33.2,35.3,55,38c0.6,0.1,0.4,1-0.2,0.9C51.5,110.5,28.3,94.6,18,74.8
				C17.7,74.3,18.5,73.8,18.8,74.3L18.8,74.3z"/>
		</g>
		<g>
			<path fill="#FDED00" d="M27,84.1c11.9,16.4,30.7,25.6,50,30.3c0.6,0.1,0.4,1.1-0.2,0.9c-19.5-4.8-38.5-14.1-50.6-30.7
				C25.8,84,26.6,83.6,27,84.1L27,84.1z"/>
		</g>
		<g>
			<path fill="#FDED00" d="M39.3,95.4c13.3,8.4,33.8,19.7,50,14.9c0.6-0.2,0.8,0.7,0.3,0.9c-16.5,4.9-37.2-6.4-50.7-15
				C38.4,95.9,38.8,95.1,39.3,95.4L39.3,95.4z"/>
		</g>
		<g>
			<path fill="#FDED00" d="M75.6,111.2c10,3.8,21.4,0.1,28.2-8c0.4-0.5,1.1,0.2,0.7,0.7c-7,8.3-18.7,12.1-29.1,8.2
				C74.8,111.9,75,111,75.6,111.2L75.6,111.2z"/>
		</g>
		<g>
			<path fill="#FDED00" d="M87.8,112.6c5.9-2.5,11.8-4.7,16.8-8.9c0.5-0.4,1.1,0.3,0.7,0.7c-5.1,4.3-11.2,6.5-17.2,9.1
				C87.5,113.8,87.2,112.9,87.8,112.6L87.8,112.6z"/>
		</g>
		<g>
			<path fill="#FDED00" d="M121.5,88.1c5.3-4.9,8.6-11.4,11.6-17.9c0.3-0.6,1.1-0.1,0.8,0.5c-3.1,6.5-6.4,13.1-11.8,18.1
				C121.7,89.1,121,88.5,121.5,88.1L121.5,88.1z"/>
		</g>
		<g>
			<path fill="#FDED00" d="M127.2,81c2.1-6.4,5.5-12.1,8.4-18.1c0.3-0.6,1.1-0.1,0.8,0.5c-2.8,5.9-6.2,11.6-8.3,17.8
				C127.9,81.8,127,81.5,127.2,81L127.2,81z"/>
		</g>
		<g>
			<path fill="#FDED00" d="M125.7,76.5c3.5-5.5,6.4-11.4,9.9-16.9c0.3-0.5,1.1,0,0.8,0.5c-3.5,5.5-6.4,11.4-9.9,16.9
				C126.2,77.5,125.3,77,125.7,76.5L125.7,76.5z"/>
		</g>
		<g>
			<path fill="#FDED00" d="M126.1,72.4c1.8-6.4,5.6-12,9.2-17.6c0.3-0.5,1.2,0,0.8,0.5c-3.6,5.5-7.2,11-9.1,17.3
				C126.8,73.3,125.9,73,126.1,72.4L126.1,72.4z"/>
		</g>
		<g>
			<path fill="#FDED00" d="M124.3,66.6c3.2-5,6.4-9.9,9.7-14.9c0.3-0.5,1.2,0,0.8,0.5c-3.2,5-6.4,9.9-9.7,14.9
				C124.7,67.6,123.9,67.2,124.3,66.6L124.3,66.6z"/>
		</g>
		<g>
			<path fill="#FDED00" d="M121.9,61.7c4.8-4.2,8.9-8.7,12.4-14c0.3-0.5,1.2,0,0.8,0.5c-3.5,5.3-7.8,10-12.6,14.2
				C122.2,62.7,121.5,62.1,121.9,61.7L121.9,61.7z"/>
		</g>
		<g>
			<path fill="#FDED00" d="M122.6,55.4c4.8-4.2,9.8-8.1,15.2-11.4c0.5-0.3,1,0.5,0.5,0.8c-5.4,3.2-10.3,7.1-15,11.2
				C122.9,56.5,122.2,55.8,122.6,55.4L122.6,55.4z"/>
		</g>
		<g>
			<path fill="#FDED00" d="M123.1,83.7c7.3-11.5,2.3-25.7,8.9-37.6c3.1-5.6,7.6-10.2,10.6-15.9c3.7-7.1,3.7-15.6,3.9-23.3
				c0-0.6,1-0.6,0.9,0c-0.3,12.4-2,21.7-9,32c-6.5,9.5-9.6,16.6-9.9,28.3c-0.2,6.3-1.1,11.7-4.6,17.1
				C123.6,84.7,122.8,84.3,123.1,83.7L123.1,83.7z"/>
		</g>
		<g>
			<path fill="#FDED00" d="M147.7,7.9c3,6.4,8.3,11.8,10.8,18.4c2.8,7.3,0.6,13.8-3.4,20.3c-0.3,0.5-1.1,0.1-0.8-0.5
				c4.5-7.3,6.2-14,2.2-21.9c-2.8-5.5-6.9-10.2-9.6-15.8C146.6,7.9,147.4,7.4,147.7,7.9L147.7,7.9z"/>
		</g>
		<g>
			<path fill="#FDED00" d="M157.1,39.7c2,7.9,9.4,13.9,8.8,22.5c0,0.6-1,0.6-0.9,0c0.6-8.5-6.8-14.4-8.8-22.3
				C156.1,39.4,157,39.2,157.1,39.7L157.1,39.7z"/>
		</g>
		<g>
			<path fill="#FDED00" d="M167.2,58.8c-4.9,12.2-18.7,17.6-26.7,27.4c-0.4,0.5-1.1-0.2-0.7-0.7c7.9-9.7,21.7-15,26.5-27
				C166.5,58,167.4,58.2,167.2,58.8L167.2,58.8z"/>
		</g>
		<g>
			<path fill="#FDED00" d="M147.8,78.1c1,5.2,0.4,9.8-2.5,14.4c-0.3,0.5-1.1,0-0.8-0.5c2.7-4.3,3.4-8.6,2.4-13.6
				C146.7,77.8,147.6,77.5,147.8,78.1L147.8,78.1z"/>
		</g>
		<g>
			<path fill="#FDED00" d="M147.4,90.8c-5.3,2.5-10.8,4.2-16.6,2.8c-0.6-0.1-0.4-1.1,0.2-0.9c5.6,1.3,10.9-0.3,15.9-2.7
				C147.5,89.8,148,90.6,147.4,90.8L147.4,90.8z"/>
		</g>
		<g>
			<path fill="#FDED00" d="M124.3,86.1c3.8,2.1,10.5,0.9,14.4-0.5c0.6-0.2,0.8,0.7,0.3,0.9c-4.2,1.4-11,2.7-15.1,0.4
				C123.3,86.7,123.8,85.8,124.3,86.1L124.3,86.1z"/>
		</g>
		<g>
			<path fill="#FDED00" d="M135.6,73.5c9.8,0.3,17.5-6.8,24.6-12.6c0.5-0.4,1.1,0.3,0.7,0.7c-7.4,5.9-15.2,13.2-25.3,12.8
				C135,74.5,135,73.5,135.6,73.5L135.6,73.5z"/>
		</g>
		<g>
			<path fill="#FDED00" d="M147.2,72.5c6.3-6.6,11-14.6,17.9-20.6c0.5-0.4,1.1,0.3,0.7,0.7c-6.9,6.1-11.6,14-17.9,20.6
				C147.4,73.6,146.7,72.9,147.2,72.5L147.2,72.5z"/>
		</g>
		<g>
			<path fill="#FDED00" d="M137.1,65.8c6.8-3.6,12.8-8.1,17.9-13.8c0.4-0.5,1.1,0.2,0.7,0.7c-5.1,5.8-11.2,10.4-18,14
				C137,66.9,136.5,66.1,137.1,65.8L137.1,65.8z"/>
		</g>
		<g>
			<path fill="#FDED00" d="M125.2,84c5.4-7.8,12.3-14.7,15.7-23.8c3.4-9.2,3.8-18.4,9.4-26.7c0.3-0.5,1.2,0,0.8,0.5
				c-6.1,9.1-6.8,19.7-10.5,29.8c-2.8,7.5-10.2,14.3-14.6,20.7C125.7,84.9,124.9,84.5,125.2,84L125.2,84z"/>
		</g>
		<g>
			<path fill="#FDED00" d="M134.1,65.2c4.4-10.8,7.2-27.6,17.9-34.3c0.5-0.3,1,0.5,0.5,0.8c-10.5,6.5-13.2,23.2-17.6,33.9
				C134.7,66.3,133.8,65.8,134.1,65.2L134.1,65.2z"/>
		</g>
		<g>
			<path fill="#FDED00" d="M102.4,103.7c1.3,1.7,6.6,2.5,8.5,3.1c3.6,1.1,7.5,2.3,11.3,2.5c0.6,0,0.6,1,0,0.9
				c-4.2-0.2-8.5-1.6-12.5-2.8c-2.1-0.6-6.8-1.3-8.2-3.2C101.2,103.7,102,103.2,102.4,103.7L102.4,103.7z"/>
		</g>
		<g>
			<path fill="#FDED00" d="M106.4,104.4c6.7,1.8,13.6,2.7,20.1,5.1c0.6,0.2,0.3,1.1-0.2,0.9c-6.5-2.4-13.4-3.3-20.1-5.1
				C105.5,105.2,105.8,104.3,106.4,104.4L106.4,104.4z"/>
		</g>
		<g>
			<path fill="#FDED00" d="M110.2,105.7c6.6,5.2,16,4.6,23.4,8.4c0.5,0.3,0.1,1.1-0.5,0.8c-7.5-3.8-16.8-3.3-23.5-8.6
				C109,106,109.7,105.3,110.2,105.7L110.2,105.7z"/>
		</g>
		<g>
			<path fill="#FDED00" d="M132.8,114.1c-2.7-2.4-5.4-4.7-8.4-6.7c-0.5-0.3,0-1.2,0.5-0.8c3.1,2,5.9,4.4,8.6,6.9
				C133.9,113.8,133.3,114.5,132.8,114.1L132.8,114.1z"/>
		</g>
		<g>
			<path fill="#FDED00" d="M133.3,113.3c0.4,0.1,0.5-0.1,0.4,0.2c0-0.1-0.2-0.4-0.3-0.5c-0.4-0.7-0.9-1.2-1.4-1.8
				c-0.9-1.1-2-2.3-2.5-3.7c-0.2-0.6,0.7-0.8,0.9-0.3c0.7,1.9,2.4,3.4,3.6,5c0.3,0.4,0.8,1.1,0.6,1.6c-0.2,0.6-1,0.5-1.5,0.4
				C132.4,114.1,132.7,113.2,133.3,113.3L133.3,113.3z"/>
		</g>
		<g>
			<path fill="#FDED00" d="M135,114.3c-1.6-2.3-3.2-4.5-4.8-6.8c-0.4-0.5,0.5-1,0.8-0.5c1.6,2.3,3.2,4.5,4.8,6.8
				C136.2,114.3,135.4,114.8,135,114.3L135,114.3z"/>
		</g>
		<g>
			<path fill="#FDED00" d="M129.8,105c3.5-0.8,6.6-2.8,10-4c0,0.3-0.1,0.6-0.1,0.9c-3.5-1.6-7.1-2.9-10.7-4.5
				c-0.6-0.3-0.1-1.1,0.5-0.8c3.5,1.6,7.1,2.9,10.7,4.5c0.4,0.2,0.2,0.7-0.1,0.9c-3.4,1.2-6.5,3.1-10,4
				C129.4,106.1,129.2,105.2,129.8,105L129.8,105z"/>
		</g>
		<g>
			<path fill="#FDED00" d="M133.6,99.8c-6.8-4.4-13.5-8.9-20.1-13.7c-0.5-0.4,0-1.2,0.5-0.8c6.5,4.8,13.3,9.3,20.1,13.7
				C134.6,99.3,134.1,100.2,133.6,99.8L133.6,99.8z"/>
		</g>
		<g>
			<path fill="#FDED00" d="M135.8,101.9c-6.7-6.7-14.9-11.6-22.6-17.1c-0.5-0.4,0-1.2,0.5-0.8c7.7,5.6,16,10.5,22.8,17.3
				C136.9,101.6,136.3,102.3,135.8,101.9L135.8,101.9z"/>
		</g>
		<g>
			<path fill="#FDED00" d="M118.9,89.2c8.4,5.1,20.9,5.8,28.8-0.5c0.5-0.4,1.1,0.3,0.7,0.7c-8.3,6.6-21.1,6-29.9,0.7
				C117.9,89.7,118.4,88.8,118.9,89.2L118.9,89.2z"/>
		</g>
		<g>
			<path fill="#FDED00" d="M143,92.2c5.1-2.8,4.8-9.1,3.8-14.1c-0.1-0.6,0.8-0.9,0.9-0.3c1.1,5.5,1.3,12.1-4.2,15.2
				C142.9,93.3,142.4,92.5,143,92.2L143,92.2z"/>
		</g>
		<g>
			<path fill="#FDED00" d="M141.4,83.2c5.7-6.2,13.2-10,19.2-15.8c9.7-9.4-0.1-18.5-3.6-27.7c-0.2-0.6,0.7-0.8,0.9-0.3
				c2.8,7.3,9.7,13.9,7.7,22.2c-2.3,9.7-17.5,15.7-23.5,22.3C141.6,84.3,140.9,83.7,141.4,83.2L141.4,83.2z"/>
		</g>
		<g>
			<path fill="#FDED00" d="M125.9,79.6c3.7-9.6-3.6-21.8,3.1-30.3c0.4-0.5,1,0.2,0.7,0.7c-6.4,8.2,0.8,20.5-2.8,29.9
				C126.6,80.4,125.6,80.2,125.9,79.6L125.9,79.6z"/>
		</g>
		<g>
			<path fill="#FDED00" d="M128.6,73.1c-4.1-7-5.5-20.3,2.9-24.8c0.5-0.3,1,0.5,0.5,0.8c-8,4.2-6.4,16.9-2.6,23.5
				C129.7,73.1,128.9,73.6,128.6,73.1L128.6,73.1z"/>
		</g>
		<g>
			<path fill="#FDED00" d="M127.3,70.5c-8.8-10.4-2.6-19.8,6.7-27.1c0.5-0.4,1.2,0.3,0.7,0.7c-8.6,6.8-15.2,15.7-6.7,25.8
				C128.4,70.2,127.7,70.9,127.3,70.5L127.3,70.5z"/>
		</g>
		<g>
			<path fill="#FDED00" d="M126.9,49.7c8.2-4.8,16.4-14,18.8-23.5c1.6-6.3-1.5-13.6,1.7-19.6c0.3-0.5,1.1-0.1,0.8,0.5
				c-3.8,7,0.1,16.3-3.2,23.8c-3.4,7.8-10.4,15.3-17.7,19.6C126.8,50.8,126.4,50,126.9,49.7L126.9,49.7z"/>
		</g>
		<g>
			<path fill="#FDED00" d="M7.5,77.7c13.8,8.7,24.9,20.8,38.5,29.9c0.5,0.3,0,1.2-0.5,0.8C31.9,99.3,20.8,87.2,7,78.5
				C6.5,78.2,6.9,77.3,7.5,77.7L7.5,77.7z"/>
		</g>
		<g>
			<path fill="#FDED00" d="M43.3,109c5,4.3-0.4,10.6-5.7,10.9c-0.6,0-0.6-0.9,0-0.9c4.5-0.2,9.4-5.5,5-9.3
				C42.2,109.3,42.8,108.6,43.3,109L43.3,109z"/>
		</g>
		<g>
			<path fill="#FDED00" d="M43.6,115.9c-3.3,4.6-9.5,4.1-14.5,4c-0.6,0-0.6-1,0-0.9c4.6,0.1,10.7,0.7,13.7-3.5
				C43.1,114.9,44,115.4,43.6,115.9L43.6,115.9z"/>
		</g>
		<g>
			<path fill="#FDED00" d="M32.9,120.5c-6.5-0.6-12.7-2.2-18.5-5.2c-0.5-0.3-0.1-1.1,0.5-0.8c5.7,2.9,11.7,4.5,18,5
				C33.5,119.6,33.5,120.6,32.9,120.5L32.9,120.5z"/>
		</g>
		<g>
			<path fill="#FDED00" d="M14.1,114.6c6.7,1.1,13.7,4.2,20.6,3.1c0.6-0.1,0.9,0.8,0.3,0.9c-7.1,1.2-14.2-1.9-21.1-3.1
				C13.2,115.5,13.5,114.5,14.1,114.6L14.1,114.6z"/>
		</g>
		<g>
			<path fill="#FDED00" d="M31.6,119.2c6.6,2.8,12.8-1.9,15.6-7.7c0.3-0.6,1.1-0.1,0.8,0.5c-3.1,6.4-9.8,11.1-16.9,8.1
				C30.5,119.8,31,119,31.6,119.2L31.6,119.2z"/>
		</g>
		<g>
			<path fill="#FDED00" d="M40.6,119.8c4-2.6,5.2-7.3,5.8-11.8c0.1-0.6,1-0.4,0.9,0.2c-0.6,4.7-2,9.7-6.2,12.4
				C40.5,121,40.1,120.2,40.6,119.8L40.6,119.8z"/>
		</g>
		<g>
			<path fill="#FDED00" d="M44.8,111.6C39.8,97.6,22.2,80.5,7,79c-0.6-0.1-0.6-1,0-0.9c15.8,1.6,33.6,18.8,38.8,33.3
				C45.9,111.9,45,112.2,44.8,111.6L44.8,111.6z"/>
		</g>
		<g>
			<path fill="#FDED00" d="M7.5,80c-24.4,0-55.5-12.6-76.7,4.6c-0.5,0.4-1.1-0.3-0.7-0.7C-48.4,66.5-17.1,79,7.5,79
				C8.1,79,8.1,80,7.5,80L7.5,80z"/>
		</g>
		<g>
			<path fill="#FDED00" d="M-53.3,99.4c14-3.9,26.8,3,37.4,11.8c7.5,6.3,13.4,14.4,20.8,21c9.3,8.3,21.3,11.4,32.5,16.1
				c0.4,0.2,0.3,0.6,0,0.8c-2.3,1.7-3.6,1.7-6.3,1.3c-0.5-0.1-6.6-3.1-3.8-0.8c2.7,2.3,2.4,2.2,4.5,4.9c0.1,0.2,0,0.5-0.2,0.6
				c-5.1,2.5-9.8,1.4-15-0.6c-2-0.8,2.2,1.1,3.1,2c1.7,1.5,2.6,3,3,5.1c1.4,7.6-13.6-2.4-14.6-3.6c-0.4-0.5,0.3-1.1,0.7-0.7
				c4.1,4.7,8.8,8.6,12,14c0.2,0.3-0.1,0.8-0.5,0.7c-10-3.1-13.9-12.2-20.1-19.8c-10-12.2-27.4-16-39.8-25c-4-2.9-21.1-22-11.6-25.3
				c0.6-0.2,0.8,0.7,0.3,0.9c-9.1,3.2,12.8,24.4,14.5,25.6c9.1,6.6,20.2,10.2,29.5,16.5c8.1,5.5,12.1,13.4,18.3,20.6
				c2.3,4.4,4.1,4.9,5.3,1.5c-1.9-2.4-4.3-4.4-6.4-6.6c-5-5.1,6.4,2.9,4.3,1.6c1.5-1.7,3-3.3,4.5-5c-1.5-1.4-3-2.6-4.7-3.7
				c-0.5-0.3-0.1-1.1,0.5-0.8c2.2,1.2,4.6,2,7,2.6c5.8-2.7,6.5-5.1,2.1-7.3c-0.4-0.3,0-0.9,0.5-0.8c1.6,0.4,3.1,0.9,4.6,1.5
				c2.9,1.6,3.3,0.8,1.2-2.3c-3.5-1.3-7.1-2.4-10.5-4c-7.7-3.5-14.1-8.1-20.1-14c-14.3-14-29.5-34.4-52.5-28.1
				C-53.6,100.4-53.9,99.5-53.3,99.4L-53.3,99.4z"/>
		</g>
		<g>
			<path fill="#FDED00" d="M58.9,129.6c6.2,7.4,15.7,12,15.4,22.7c-0.2,6.3,2.3,9.6,4.6,14.9c1,2.3-0.3,5-1.2,7.1
				c-0.2,0.6-1.1,0.1-0.8-0.5c3-7-3.7-12.7-3.6-19.9c0.2-11.7-8.3-15.7-15-23.7C57.8,129.8,58.5,129.1,58.9,129.6L58.9,129.6z"/>
		</g>
		<g>
			<path fill="#FDED00" d="M47.5,159.6c-1.8-6.1-2.2-11.4,0.2-17.3c1.2-3.1,3.8-5.4,5.7-8c3.4-4.7-3.2-15.7-5.3-19.9
				c-0.3-0.5,0.5-1,0.8-0.5c2.6,5.2,6.7,12.2,6,18.3c-0.2,2-1.1,3.2-2.4,4.7c-5.9,6.8-6.5,14.1-4.1,22.4
				C48.6,159.9,47.7,160.1,47.5,159.6L47.5,159.6z"/>
		</g>
		<g>
			<path fill="#FDED00" d="M47.7,114.2c-3.2,5.9-8.2,10.6-15.4,11c-8.4,0.4-12.7-5.1-18.1-10.6c-0.4-0.4,0.2-1.1,0.7-0.7
				c3.8,3.8,7,8,12.2,9.9c8.3,3,16.2-3.4,19.9-10C47.2,113.2,48,113.7,47.7,114.2L47.7,114.2z"/>
		</g>
		<g>
			<path fill="#FDED00" d="M59,130.7c-3.2-4.2-4.6-9.2-5.7-14.2c-0.1-0.6,0.8-0.9,0.9-0.3c1.1,5,2.4,9.9,5.6,14
				C60.2,130.7,59.4,131.2,59,130.7L59,130.7z"/>
		</g>
		<g>
			<path fill="#FDED00" d="M54.5,116.2c2,1.3,4,2.6,6.1,3.9c0.5,0.3,0,1.2-0.5,0.8c-2-1.3-4-2.6-6.1-3.9
				C53.5,116.7,54,115.9,54.5,116.2L54.5,116.2z"/>
		</g>
		<g>
			<path fill="#FDED00" d="M59,119.3c2.4,13,20,12.8,28.9,19.3c0.5,0.4,0,1.2-0.5,0.8c-9.1-6.6-26.9-6.5-29.4-19.9
				C58,119,58.9,118.7,59,119.3L59,119.3z"/>
		</g>
		<g>
			<path fill="#FDED00" d="M86.3,139.8c-2.7-7.2-7.9-11.9-12.8-17.5c-3.1-3.5-6.2-6.6-11.3-6.2c-2.5,0.2-3.8-0.1-6-1.3
				c-0.5-0.3-0.1-1.1,0.5-0.8c3.7,2.1,7.7,0.4,11.4,2.2c3,1.4,5.3,4.6,7.4,7c4.7,5.3,9.2,9.6,11.7,16.3
				C87.4,140.1,86.5,140.3,86.3,139.8L86.3,139.8z"/>
		</g>
		<g>
			<path fill="#FDED00" d="M57.4,114.9c-2.3-0.9-4.1-2.7-5.4-4.7c-0.3-0.5,0.5-1,0.8-0.5c1.1,1.9,2.7,3.5,4.8,4.3
				C58.2,114.2,58,115.1,57.4,114.9L57.4,114.9z"/>
		</g>
		<g>
			<path fill="#FDED00" d="M53.7,109.6c4.3,1.4,8.7,2.6,13.1,3.6c0.6,0.1,0.4,1-0.2,0.9c-4.4-1-8.8-2.1-13.1-3.6
				C52.9,110.3,53.1,109.4,53.7,109.6L53.7,109.6z"/>
		</g>
		<g>
			<path fill="#FDED00" d="M55,110.5c6.2,1.3,12.6,1.6,18.7,3.5c0.6,0.2,0.3,1.1-0.2,0.9c-6.1-1.9-12.5-2.2-18.7-3.5
				C54.2,111.2,54.4,110.3,55,110.5L55,110.5z"/>
		</g>
		<g>
			<path fill="#FDED00" d="M61.6,111c6.4,4.6,13.5,7.6,21.3,8.4c0.6,0.1,0.6,1,0,0.9c-8-0.8-15.3-3.8-21.8-8.6
				C60.6,111.5,61.1,110.6,61.6,111L61.6,111z"/>
		</g>
		<g>
			<path fill="#FDED00" d="M82.1,119.4c6,4.8,9.4,11.8,13.6,18.1c0.3,0.5-0.5,1-0.8,0.5c-4.1-6.2-7.5-13.2-13.5-17.9
				C81,119.7,81.6,119.1,82.1,119.4L82.1,119.4z"/>
		</g>
		<g>
			<path fill="#FDED00" d="M86.2,172.8c0.9-4.6,3.3-7,7-9.7c11.2-8,6.2-18.4-0.3-27.6c-0.4-0.5,0.5-1,0.8-0.5
				c3.6,5,9.3,12.6,7.3,19.3c-2.5,8.3-12.2,10.2-13.9,18.6C87,173.6,86.1,173.4,86.2,172.8L86.2,172.8z"/>
		</g>
		<g>
			<path fill="#FDED00" d="M90.7,119.5c4,3.3,7.2,7.6,11.5,10.5c0.5,0.3,0,1.2-0.5,0.8c-4.4-3-7.6-7.3-11.7-10.7
				C89.6,119.8,90.2,119.1,90.7,119.5L90.7,119.5z"/>
		</g>
		<g>
			<path fill="#FDED00" d="M102.2,130c4.9,2.7,11.7-0.1,16.7-1.6c5-1.6,10-3.7,15.3-4.5c0.6-0.1,0.9,0.8,0.3,0.9
				c-6.2,0.9-12.2,3.6-18.2,5.4c-4.5,1.3-10.1,3-14.5,0.6C101.2,130.6,101.7,129.7,102.2,130L102.2,130z"/>
		</g>
		<g>
			<path fill="#FDED00" d="M132.4,123.6c3.9-3.2,6.9-7,12.3-7.2c0.6,0,0.6,0.9,0,0.9c-5.1,0.2-8,3.9-11.6,6.9
				C132.6,124.6,131.9,124,132.4,123.6L132.4,123.6z"/>
		</g>
		<g>
			<path fill="#FDED00" d="M144.9,118.1c-2.6,1.1-3.9,4.3-5.4,6.6c-0.3,0.5-1.2,0-0.8-0.5c1.6-2.5,3-5.8,5.9-7
				C145.2,116.9,145.5,117.9,144.9,118.1L144.9,118.1z"/>
		</g>
		<g>
			<path fill="#FDED00" d="M139.5,123.2c23.6-11.7,47.8-31.2,49.6-59.5c0.6-10,1.8-20.2,1.9-30.3c0.1-7.8-2.7-14.9-9.4-19.2
				c-2.2-1.4-2.8-2.7-3.6-5.2c-0.2-0.6,0.7-0.8,0.9-0.3c1.4,4.7,6.1,5.7,8.6,9.5c2.6,4,3.7,7.7,4.3,12.4c1.5,12.2-1,27.1-2.3,39.3
				c-2.7,24.9-29.1,43.8-49.6,54C139.4,124.2,138.9,123.4,139.5,123.2L139.5,123.2z"/>
		</g>
		<g>
			<path fill="#FDED00" d="M179.3,9.5c13.4,5.9,23.4,16.6,30.2,29.4c2.3,4.3,4.9,10,4.3,15c-0.5,4-1.7,7.8-2.7,11.7
				c-1.8,7.2-0.5,13.4,0.3,20.5c1.5,13.2-12.7,18.3-21.2,24.8c-10.8,8.3-21.8,12.4-34.7,6.1c-0.6-0.3-0.1-1.1,0.5-0.8
				c14,6.8,25.1,0.5,36.2-8c4.2-3.3,9-5.7,13.2-9c7.5-6.1,4.6-15.7,3.6-23.8c-0.6-4.7,0.9-8.9,1.9-13.3c2.4-9.7,0.8-16.8-3.8-25.5
				c-6.1-11.6-16.5-21.1-28.4-26.4C178.3,10.1,178.8,9.3,179.3,9.5L179.3,9.5z"/>
		</g>
		<g>
			<path fill="#FDED00" d="M137.9,126.1c7,2,15-4.1,20.3-8.1c0.5-0.4,1,0.5,0.5,0.8c-5.5,4.1-13.7,10.2-21,8.2
				C137,126.9,137.3,126,137.9,126.1L137.9,126.1z"/>
		</g>
		<g>
			<path fill="#FDED00" d="M186.5,114.7c12-0.4,26.5-0.9,33.4-12.5c3.3-5.6,0.1-13.3,1.1-19.5c1.8-11.9-1.3-18.2-9-26.9
				c-0.4-0.5,0.3-1.1,0.7-0.7c4,4.5,9.1,9.5,9.9,15.7c0.6,4.5,0.3,7.7-0.7,12.1c-1.4,5.8,1.4,11.4-0.1,17.3
				c-3.8,14.3-23.6,14.9-35.2,15.4C185.9,115.6,185.8,114.7,186.5,114.7L186.5,114.7z"/>
		</g>
		<g>
			<path fill="#FDED00" d="M138.2,127c4.3,4.7,11.5,0.9,16.1,4.9c2.9,2.5,5.2,5.4,8,8.1c3.5,3.4,10,3.4,14.5,4.1
				c0.6,0.1,0.4,1-0.2,0.9c-9.2-1.4-13.4-2.4-19.6-9.3c-4.3-4.8-8.7-4.8-14.5-5.4c-2.1-0.2-3.5-1-4.9-2.6
				C137.1,127.2,137.8,126.5,138.2,127L138.2,127z"/>
		</g>
		<g>
			<path fill="#FDED00" d="M175.8,144.7c-5.4,6.5-13.9,3.3-21,2.1c-11.4-2-11.3-11.7-20.1-17.3c-0.5-0.3,0-1.1,0.5-0.8
				c6,3.8,7.5,11.1,13.2,15.2c6,4.2,22.1,5.8,26.8,0.2C175.5,143.6,176.2,144.2,175.8,144.7L175.8,144.7z"/>
		</g>
		<g>
			<path fill="#FDED00" d="M109.7,135c9.2,0.1,17.1-6.3,26.4-5.6c0.6,0,0.6,1,0,0.9c-9.3-0.7-17.2,5.7-26.4,5.6
				C109.2,136,109.1,135,109.7,135L109.7,135z"/>
		</g>
		<g>
			<path fill="#FDED00" d="M110.3,136c2.3,4.1,6.9,6.3,10.7,8.7c0.5,0.3,0,1.2-0.5,0.8c-3.9-2.5-8.6-4.9-11-9.1
				C109.2,135.9,110,135.5,110.3,136L110.3,136z"/>
		</g>
		<g>
			<path fill="#FDED00" d="M120.2,144.4c14.9-2.6,26.2,10.6,36,19.9c7,6.6,16,9.9,23.3,15.9c8.6,7,11.8,20.4,24.7,20
				c0.6,0,0.6,0.9,0,0.9c-6,0.2-9.8-1.3-13.7-5.9c-1.6-1.9-2.9-4.3-4.3-6.4c-3.7-5.7-9-9.3-14.7-12.7c-6.6-4-12.4-7.7-18-13
				c-9-8.6-19.4-20.2-33.1-17.7C119.9,145.4,119.6,144.5,120.2,144.4L120.2,144.4z"/>
		</g>
		<g>
			<path fill="#FDED00" d="M205.2,201.7c-3.4,1.1-6.8,1.8-10.3,2.6c-0.6,0.1-0.9-0.8-0.3-0.9c3.5-0.7,6.9-1.5,10.3-2.6
				C205.5,200.6,205.8,201.5,205.2,201.7L205.2,201.7z"/>
		</g>
		<g>
			<path fill="#FDED00" d="M200.5,204.9c-3.5,0.2-6.6-1.2-9.7-2.5c-0.6-0.2-0.1-1.1,0.5-0.8c3,1.3,5.9,2.6,9.2,2.4
				C201.1,203.9,201.1,204.8,200.5,204.9L200.5,204.9z"/>
		</g>
		<g>
			<path fill="#FDED00" d="M198.6,206.7c-4.8-1.8-9.7-3.3-14.1-6.1c-0.5-0.3-0.1-1.1,0.5-0.8c4.3,2.7,9.1,4.2,13.8,6
				C199.4,206,199.1,207,198.6,206.7L198.6,206.7z"/>
		</g>
		<g>
			<path fill="#FDED00" d="M199,209.6c-4.6-3.5-10.1-5.5-14.4-9.4c-0.5-0.4,0.2-1.1,0.7-0.7c4.3,3.8,9.7,5.8,14.2,9.2
				C200,209.1,199.5,209.9,199,209.6L199,209.6z"/>
		</g>
		<g>
			<path fill="#FDED00" d="M186.4,202.5c-24.1-10.6-66.6-22.9-69.3-55.2c-0.1-0.6,0.9-0.6,0.9,0c2.7,31.9,45.1,44,68.9,54.4
				C187.4,202,186.9,202.8,186.4,202.5L186.4,202.5z"/>
		</g>
		<g>
			<path fill="#FDED00" d="M115.8,148c-5.5-3.2-8.7-9.1-13.9-12.7c-0.5-0.3,0-1.2,0.5-0.8c5.2,3.6,8.4,9.5,13.9,12.7
				C116.8,147.5,116.3,148.3,115.8,148L115.8,148z"/>
		</g>
		<g>
			<path fill="#FDED00" d="M104,136.5c-0.9,0.2-1.4,0.4-2.2,0c0.2-0.1,0.4-0.1,0.6-0.2c-0.5,0.7-0.2,1.4-0.2,2.2
				c0,0.5-0.8,0.7-0.9,0.1c0,0,0-0.1,0-0.1c-0.1-0.6,0.8-0.9,0.9-0.3c0,0,0,0.1,0,0.1c-0.3,0-0.6,0.1-0.9,0.1
				c-0.1-0.8-0.3-1.8,0.3-2.7c0.1-0.2,0.4-0.3,0.6-0.2c0.6,0.3,0.9,0.1,1.5-0.1C104.3,135.4,104.6,136.3,104,136.5L104,136.5z"/>
		</g>
		<g>
			<path fill="#FDED00" d="M102.4,137.2c-0.9,0.5-1.4,1.3-2,2.1c-0.3,0.5-1.2,0-0.8-0.5c0.6-1,1.3-1.9,2.3-2.5
				C102.4,136,102.9,136.8,102.4,137.2L102.4,137.2z"/>
		</g>
		<g>
			<path fill="#FDED00" d="M100.1,139.2c4.8,4.4,9.2,10,12,15.9c0.3,0.6-0.5,1-0.8,0.5c-2.8-5.8-7-11.4-11.9-15.7
				C99,139.4,99.6,138.7,100.1,139.2L100.1,139.2z"/>
		</g>
		<g>
			<path fill="#FDED00" d="M102.8,146.5c0.8,1.7,2.5,2.9,3.9,4.1c2,1.6,4.2,3,6.3,4.4c0.5,0.3,0,1.2-0.5,0.8c-2-1.3-4.1-2.6-6-4.1
				c-1.7-1.3-3.7-2.7-4.6-4.7C101.8,146.5,102.6,146,102.8,146.5L102.8,146.5z"/>
		</g>
		<g>
			<path fill="#FDED00" d="M105,148.4c-1.8,4.1,1.7,8.3,5.4,9.8c0.6,0.2,0.1,1-0.5,0.8c-4.2-1.7-7.7-6.4-5.7-11
				C104.4,147.4,105.2,147.9,105,148.4L105,148.4z"/>
		</g>
		<g>
			<path fill="#FDED00" d="M106.2,154.2c3.4,1.9,5.4,4.7,6.6,8.4c1.4,4.5,1.5,9.5,5.7,12.5c0.5,0.3,0,1.2-0.5,0.8
				c-2.9-2-4.1-4.9-4.9-8.3c-1.3-5.2-2.3-9.8-7.3-12.7C105.2,154.7,105.7,153.9,106.2,154.2L106.2,154.2z"/>
		</g>
		<g>
			<path fill="#FDED00" d="M116,172.3c2.2,1,4.1,2.6,6.1,3.9c0.2,0.2,0.3,0.4,0.2,0.6c-1.9,4.1-2.5,8.3-1.7,12.7
				c0.1,0.6-0.8,0.9-0.9,0.3c-0.6-3.2-0.5-6.2,0.2-9.4c0.2-0.7,1.6-3.5,0.8-4.1c-1.7-1.2-3.2-2.5-5.1-3.3
				C115,172.9,115.4,172.1,116,172.3L116,172.3z"/>
		</g>
		<g>
			<path fill="#FDED00" d="M159.4,114.9c6.3,2.1,13.4-0.6,19.8-1.2c0.6-0.1,0.6,0.9,0,0.9c-6.4,0.6-13.7,3.3-20,1.2
				C158.5,115.6,158.8,114.7,159.4,114.9L159.4,114.9z"/>
		</g>
		<g>
			<path fill="#FDED00" d="M166.5,111.1c2.7-0.6,5.2-1.5,7.4-3c0.5-0.3,1,0.5,0.5,0.8c-2.3,1.6-4.9,2.5-7.7,3.1
				C166.2,112.1,165.9,111.2,166.5,111.1L166.5,111.1z"/>
		</g>
		<g>
			<path fill="#FDED00" d="M169,109.1c3.3-1.8,7.1-2.3,10.7-3c0.6-0.1,0.9,0.8,0.3,0.9c-3.5,0.7-7.2,1.2-10.5,2.9
				C168.9,110.2,168.4,109.4,169,109.1L169,109.1z"/>
		</g>
		<g>
			<path fill="#FDED00" d="M170.2,106.2c5.1-2.6,10.8-3.8,16.5-4.3c0.6,0,0.6,0.9,0,0.9c-5.5,0.4-11.1,1.6-16.1,4.1
				C170.2,107.3,169.7,106.5,170.2,106.2L170.2,106.2z"/>
		</g>
		<g>
			<path fill="#FDED00" d="M173.6,102.1c7-2.3,13.9-5.1,21.3-6c0.6-0.1,0.6,0.9,0,0.9c-7.3,0.9-14.1,3.7-21,6
				C173.3,103.2,173,102.3,173.6,102.1L173.6,102.1z"/>
		</g>
		<g>
			<path fill="#FDED00" d="M173.4,102.2c7.1-7.2,17.2-10.5,26-15.3c0.5-0.3,1,0.5,0.5,0.8c-8.7,4.7-18.7,7.9-25.8,15.1
				C173.6,103.3,172.9,102.6,173.4,102.2L173.4,102.2z"/>
		</g>
		<g>
			<path fill="#FDED00" d="M190.7,93.6c5.8-3.6,10.2-8.4,13.1-14.6c0.3-0.5,1.1-0.1,0.8,0.5c-3,6.3-7.5,11.3-13.5,14.9
				C190.7,94.8,190.2,93.9,190.7,93.6L190.7,93.6z"/>
		</g>
		<g>
			<path fill="#FDED00" d="M195.6,87.9c3.8-5.8,7.5-11.6,11.3-17.3c0.3-0.5,1.2,0,0.8,0.5c-3.8,5.8-7.5,11.5-11.3,17.3
				C196.1,88.9,195.3,88.4,195.6,87.9L195.6,87.9z"/>
		</g>
		<g>
			<path fill="#FDED00" d="M206,75.7c1.3-4,1.6-8.1,1.8-12.2c0-0.6,1-0.6,0.9,0c-0.2,4.2-0.6,8.4-1.9,12.5
				C206.8,76.5,205.9,76.3,206,75.7L206,75.7z"/>
		</g>
		<g>
			<path fill="#FDED00" d="M182.6,90.9c3-2.8,6.4-5.1,9.8-7.3c0.5-0.3,1,0.5,0.5,0.8c-3.3,2.2-6.6,4.5-9.6,7.2
				C182.8,92,182.1,91.3,182.6,90.9L182.6,90.9z"/>
		</g>
		<g>
			<path fill="#FDED00" d="M183.8,88.1c3.7-2.9,7.4-5.7,10.8-9c0.4-0.4,1.1,0.2,0.7,0.7c-3.4,3.3-7.1,6.1-10.8,9
				C184,89.1,183.3,88.4,183.8,88.1L183.8,88.1z"/>
		</g>
		<g>
			<path fill="#FDED00" d="M186.2,83.4c3.3-3,6.9-5.6,10.8-7.9c0.5-0.3,1,0.5,0.5,0.8c-3.8,2.2-7.3,4.8-10.6,7.8
				C186.4,84.5,185.7,83.9,186.2,83.4L186.2,83.4z"/>
		</g>
		<g>
			<path fill="#FDED00" d="M191.4,74.5c2.5-2.7,5.9-4.3,8.7-6.7c0.5-0.4,1.1,0.3,0.7,0.7c-2.8,2.4-6.2,4-8.7,6.7
				C191.7,75.6,191,74.9,191.4,74.5L191.4,74.5z"/>
		</g>
		<g>
			<path fill="#FDED00" d="M192,71.7c3.8-2.3,7.2-5.3,11.1-7.6c0.5-0.3,1,0.5,0.5,0.8c-3.8,2.3-7.2,5.3-11.1,7.6
				C192,72.8,191.5,72,192,71.7L192,71.7z"/>
		</g>
		<g>
			<path fill="#FDED00" d="M192.6,69c4.7-2.5,8.8-5.9,13.5-8.5c0.5-0.3,1,0.5,0.5,0.8c-4.7,2.5-8.8,5.9-13.5,8.5
				C192.5,70.1,192,69.3,192.6,69L192.6,69z"/>
		</g>
		<g>
			<path fill="#FDED00" d="M192.6,63.1c1.7-2.6,3.8-4.7,6.2-6.6c0.5-0.4,1.1,0.3,0.7,0.7c-2.3,1.9-4.4,3.9-6,6.4
				C193.1,64.1,192.3,63.6,192.6,63.1L192.6,63.1z"/>
		</g>
		<g>
			<path fill="#FDED00" d="M191.1,60.7c2.6-2.1,5.2-4.3,7.5-6.8c0.4-0.4,1.1,0.2,0.7,0.7c-2.3,2.5-4.9,4.7-7.5,6.8
				C191.3,61.8,190.6,61.1,191.1,60.7L191.1,60.7z"/>
		</g>
		<g>
			<path fill="#FDED00" d="M191.1,58.9c3.1-3.7,7.2-6.4,10.6-9.7c0.4-0.4,1.1,0.2,0.7,0.7c-3.5,3.3-7.5,6-10.6,9.7
				C191.4,60,190.7,59.3,191.1,58.9L191.1,58.9z"/>
		</g>
		<g>
			<path fill="#FDED00" d="M192.5,54.9c3.2-3,6.1-6.3,9.2-9.4c0.4-0.4,1.1,0.2,0.7,0.7c-3.1,3.1-6,6.4-9.2,9.4
				C192.7,55.9,192,55.3,192.5,54.9L192.5,54.9z"/>
		</g>
		<g>
			<path fill="#FDED00" d="M204.2,57.7c2-4.1,3.6-8.4,4.7-12.8c0.1-0.6,1.1-0.4,0.9,0.2c-1.1,4.5-2.7,8.9-4.8,13.1
				C204.7,58.7,203.9,58.2,204.2,57.7L204.2,57.7z"/>
		</g>
		<g>
			<path fill="#FDED00" d="M202.8,55c3.8-6.1,4.7-11.6,2.3-18.4c-0.2-0.6,0.7-0.8,0.9-0.3c2.4,7,1.5,12.9-2.4,19.2
				C203.4,56,202.5,55.5,202.8,55L202.8,55z"/>
		</g>
		<g>
			<path fill="#FDED00" d="M205.8,41.1c-0.1-6.4-6.4-11.2-10.9-14.9c-0.5-0.4,0.2-1.1,0.7-0.7c4.7,3.8,11.1,8.8,11.2,15.5
				C206.7,41.7,205.8,41.8,205.8,41.1L205.8,41.1z"/>
		</g>
		<g>
			<path fill="#FDED00" d="M204.3,34.1c-1.6-5.7-9.2-10.1-13.8-13.2c-0.5-0.3,0-1.2,0.5-0.8c4.9,3.2,12.6,7.7,14.3,13.7
				C205.4,34.4,204.5,34.7,204.3,34.1L204.3,34.1z"/>
		</g>
		<g>
			<path fill="#FDED00" d="M199.1,25.4c-4.3-5.1-10.1-8.5-14.8-13.3c-0.4-0.4,0.2-1.1,0.7-0.7c4.6,4.8,10.5,8.2,14.8,13.3
				C200.2,25.2,199.5,25.8,199.1,25.4L199.1,25.4z"/>
		</g>
		<g>
			<path fill="#FDED00" d="M185.7,108.9c5.6-3.1,10.3-7.4,15-11.7c0.4-0.4,1.1,0.2,0.7,0.7c-4.7,4.4-9.5,8.7-15.1,11.9
				C185.7,110,185.2,109.2,185.7,108.9L185.7,108.9z"/>
		</g>
		<g>
			<path fill="#FDED00" d="M186.2,111.8c5.9-6,12.1-11.8,19-16.8c0.5-0.4,1,0.5,0.5,0.8c-6.8,4.9-12.9,10.6-18.8,16.6
				C186.5,112.9,185.8,112.2,186.2,111.8L186.2,111.8z"/>
		</g>
		<g>
			<path fill="#FDED00" d="M196,105.2c4.2-3.7,9.1-6.6,13.1-10.6c0.4-0.4,1.1,0.2,0.7,0.7c-3.9,4-8.8,6.9-13.1,10.6
				C196.3,106.3,195.6,105.7,196,105.2L196,105.2z"/>
		</g>
		<g>
			<path fill="#FDED00" d="M194.3,106c4.5-4,9-7.9,13.7-11.6c0.5-0.4,1,0.4,0.5,0.8c-4.7,3.6-9.1,7.5-13.5,11.4
				C194.6,107.1,193.9,106.4,194.3,106L194.3,106z"/>
		</g>
		<g>
			<path fill="#FDED00" d="M207.5,94.3c1.5-3.4,1.8-6.9,1.4-10.5c-0.1-0.6,0.9-0.6,0.9,0c0.4,3.8,0,7.5-1.5,11
				C208,95.4,207.2,94.9,207.5,94.3L207.5,94.3z"/>
		</g>
		<g>
			<path fill="#FDED00" d="M209,82.8c-0.5-2.1-0.9-4.3-1.4-6.4c-0.1-0.6,0.8-0.9,0.9-0.3c0.5,2.1,0.9,4.3,1.4,6.4
				C210,83.1,209.1,83.4,209,82.8L209,82.8z"/>
		</g>
		<g>
			<path fill="#FDED00" d="M140.5,132.2c3.1,5.9,8.3,8.4,14.1,11c0.6,0.3,0.1,1.1-0.5,0.8c-6-2.7-11.3-5.3-14.5-11.3
				C139.4,132.2,140.2,131.7,140.5,132.2L140.5,132.2z"/>
		</g>
		<g>
			<path fill="#FDED00" d="M144.4,134.7c4.2,6.1,11.1,7.8,18,8.6c0.6,0.1,0.4,1-0.2,0.9c-7.2-0.9-14.3-2.8-18.6-9
				C143.2,134.7,144.1,134.2,144.4,134.7L144.4,134.7z"/>
		</g>
		<g>
			<path fill="#FDED00" d="M146.9,141.8c8.1,4.1,15.7,7.2,24.9,5.8c0.6-0.1,0.6,0.9,0,0.9c-9.4,1.4-17.1-1.8-25.4-5.9
				C145.9,142.4,146.3,141.6,146.9,141.8L146.9,141.8z"/>
		</g>
		<g>
			<path fill="#FDED00" d="M154.4,144.3c5.1,1.8,10.4,1.1,15.6,0.4c0.6-0.1,0.6,0.9,0,1c-5.4,0.8-10.7,1.4-15.9-0.4
				C153.6,145,153.8,144.1,154.4,144.3L154.4,144.3z"/>
		</g>
		<g>
			<path fill="#FDED00" d="M152.1,142.2c6.4,2.1,13.1,2.6,19.8,2.5c0.6,0,0.6,0.9,0,0.9c-6.8,0.2-13.6-0.4-20.1-2.5
				C151.3,142.9,151.5,142,152.1,142.2L152.1,142.2z"/>
		</g>
		<g>
			<path fill="#FDED00" d="M121.8,150.2c5.1,3.3,10.2,6.7,14.4,11.2c0.4,0.4-0.3,1.1-0.7,0.7c-4.1-4.5-9.2-7.8-14.2-11.1
				C120.8,150.6,121.2,149.8,121.8,150.2L121.8,150.2z"/>
		</g>
		<g>
			<path fill="#FDED00" d="M124.5,148.8c9.4,6.2,18.2,13.1,25.6,21.6c0.4,0.5-0.3,1.1-0.7,0.7c-7.3-8.4-16.1-15.3-25.4-21.4
				C123.5,149.3,124,148.5,124.5,148.8L124.5,148.8z"/>
		</g>
		<g>
			<path fill="#FDED00" d="M126.7,147.2c11.7,7.5,24.3,14.3,31.6,26.8c0.3,0.5-0.5,1-0.8,0.5c-7.2-12.3-19.6-19-31.2-26.4
				C125.8,147.7,126.2,146.9,126.7,147.2L126.7,147.2z"/>
		</g>
		<g>
			<path fill="#FDED00" d="M138.7,155.6c7.8,7.5,16.5,13.9,24,21.8c0.4,0.4-0.2,1.1-0.7,0.7c-7.5-7.8-16.2-14.3-24-21.8
				C137.6,155.9,138.2,155.2,138.7,155.6L138.7,155.6z"/>
		</g>
		<g>
			<path fill="#FDED00" d="M168.9,179c7.2,5.5,13.4,11.9,18.4,19.4c0.3,0.5-0.5,1-0.8,0.5c-5-7.4-11-13.8-18.1-19.1
				C168,179.5,168.5,178.6,168.9,179L168.9,179z"/>
		</g>
		<g>
			<path fill="#FDED00" d="M174.6,181.5c8.1,3.1,11.8,11.6,17,17.8c0.4,0.5-0.3,1.1-0.7,0.7c-5.1-6.1-8.7-14.6-16.6-17.6
				C173.8,182.2,174,181.2,174.6,181.5L174.6,181.5z"/>
		</g>
		<g>
			<path fill="#FDED00" d="M177.1,180.6c5.9,4.3,9.1,11.8,14.5,16.8c0.4,0.4-0.2,1.1-0.7,0.7c-2.5-2.3-4.5-5-6.6-7.6
				c-2.3-3-4.5-6.8-7.7-9C176.2,181.1,176.6,180.3,177.1,180.6L177.1,180.6z"/>
		</g>
		<g>
			<path fill="#FDED00" d="M184.5,186.7c2.6,5.4,7.3,11.4,12.6,14.3c0.5,0.3,0.1,1.1-0.5,0.8c-5.4-3-10.3-9.1-12.9-14.6
				C183.5,186.7,184.3,186.2,184.5,186.7L184.5,186.7z"/>
		</g>
		<g>
			<path fill="#FDED00" d="M99.8,178.4c1-1.7,1-3.5,0.6-5.4c-0.1-0.6,0.8-0.9,0.9-0.3c0.4,2.1,0.5,4.2-0.7,6.1
				C100.3,179.4,99.5,178.9,99.8,178.4L99.8,178.4z"/>
		</g>
		<g>
			<path fill="#FDED00" d="M102,175c1-3.7-0.1-7.6-1.9-10.8c-0.3-0.5,0.5-1,0.8-0.5c1.9,3.5,3.1,7.6,2,11.5
				C102.8,175.8,101.8,175.6,102,175L102,175z"/>
		</g>
		<g>
			<path fill="#FDED00" d="M103.6,168.8c-0.4-3.4-2.7-6.4-4.8-9.1c-0.4-0.5,0.3-1.2,0.7-0.7c2.3,2.9,4.6,6,5.1,9.7
				C104.7,169.4,103.7,169.4,103.6,168.8L103.6,168.8z"/>
		</g>
		<g>
			<path fill="#FDED00" d="M103.4,162.1c-1.4-1.5-2.3-3.3-3.6-4.8c-0.4-0.5,0.3-1.1,0.7-0.7c1.4,1.5,2.3,3.3,3.6,4.8
				C104.5,161.9,103.8,162.6,103.4,162.1L103.4,162.1z"/>
		</g>
		<g>
			<path fill="#FDED00" d="M91.1,169c1.3-2.9,3.7-4.9,6.3-6.7c0.5-0.4,1,0.5,0.5,0.8c-2.4,1.7-4.6,3.6-5.9,6.3
				C91.7,170,90.8,169.6,91.1,169L91.1,169z"/>
		</g>
		<g>
			<path fill="#FDED00" d="M93.3,169.4c1.2-3.6,3.6-6.5,7.4-7.4c0.6-0.1,0.9,0.8,0.3,0.9c-3.5,0.8-5.7,3.5-6.8,6.8
				C94.1,170.2,93.2,170,93.3,169.4L93.3,169.4z"/>
		</g>
		<g>
			<path fill="#FDED00" d="M95.1,170.5c1.3-3.8,4.5-6,8.3-6.9c0.6-0.1,0.9,0.8,0.3,0.9c-3.4,0.8-6.5,2.8-7.6,6.2
				C95.8,171.3,94.9,171.1,95.1,170.5L95.1,170.5z"/>
		</g>
		<g>
			<path fill="#FDED00" d="M96.3,170.4c1.9-1.9,4-3.2,6.5-4.1c0.6-0.2,0.8,0.7,0.3,0.9c-2.3,0.9-4.3,2.1-6.1,3.8
				C96.6,171.5,95.9,170.9,96.3,170.4L96.3,170.4z"/>
		</g>
		<g>
			<path fill="#FDED00" d="M50.2,152.5c2-0.5,4-1.5,5.5-3c0.4-0.4,1.1,0.2,0.7,0.7c-1.6,1.5-3.8,2.7-5.9,3.2
				C49.9,153.5,49.6,152.6,50.2,152.5L50.2,152.5z"/>
		</g>
		<g>
			<path fill="#FDED00" d="M48.2,150.7c2.7-1.3,5.4-2.6,8.1-4c0.5-0.3,1,0.5,0.5,0.8c-2.7,1.3-5.4,2.6-8.1,4
				C48.2,151.8,47.7,151,48.2,150.7L48.2,150.7z"/>
		</g>
		<g>
			<path fill="#FDED00" d="M49.2,149c2.6-2.8,6.2-4,9.1-6.4c0.5-0.4,1.1,0.3,0.7,0.7c-2.9,2.4-6.5,3.6-9.1,6.4
				C49.5,150.2,48.8,149.5,49.2,149L49.2,149z"/>
		</g>
		<g>
			<path fill="#FDED00" d="M49.4,146c1.5-1.5,3.2-2.8,4.8-4.1c1.4-1.1,3.2-2.1,4.4-3.4c0.4-0.5,1.1,0.2,0.7,0.7
				c-0.9,1.1-2.4,1.9-3.5,2.7c-2,1.5-4,3-5.8,4.8C49.6,147.1,48.9,146.5,49.4,146L49.4,146z"/>
		</g>
		<g>
			<path fill="#FDED00" d="M50.7,142.1c1.9-3.9,6.5-5.8,9.4-8.8c0.4-0.4,1.1,0.2,0.7,0.7c-2.8,3-7.4,4.8-9.3,8.6
				C51.2,143.1,50.4,142.7,50.7,142.1L50.7,142.1z"/>
		</g>
		<g>
			<path fill="#FDED00" d="M53.5,137.8c1.7-3.4,4.9-5.6,7.7-8.1c0.5-0.4,1.1,0.3,0.7,0.7c-2.8,2.4-5.9,4.5-7.6,7.9
				C54,138.8,53.2,138.3,53.5,137.8L53.5,137.8z"/>
		</g>
		<g>
			<path fill="#FDED00" d="M58.8,129.5c-5.4,8.7,1.9,21,1,30.6c-0.1,0.6-1,0.6-0.9,0c0.9-9.6-6.4-22.1-0.9-31
				C58.3,128.5,59.1,128.9,58.8,129.5L58.8,129.5z"/>
		</g>
		<g>
			<path fill="#FDED00" d="M61.6,125.3c0.7-2,1.8-3.8,3-5.6c0.3-0.5,1.2,0,0.8,0.5c-1.1,1.7-2.2,3.4-2.9,5.4
				C62.3,126.1,61.4,125.9,61.6,125.3L61.6,125.3z"/>
		</g>
		<g>
			<path fill="#FDED00" d="M63.9,125.7c0-2,0.2-4.2-0.2-6.2c-0.1-0.6,0.8-0.9,0.9-0.3c0.4,2.1,0.3,4.3,0.2,6.4
				C64.8,126.3,63.9,126.3,63.9,125.7L63.9,125.7z"/>
		</g>
		<g>
			<path fill="#FDED00" d="M63.9,121.3c0.8,3.4,3.1,5.5,6.2,7c0.6,0.3,0.1,1.1-0.5,0.8c-3.3-1.6-5.8-3.9-6.6-7.5
				C62.9,121,63.8,120.7,63.9,121.3L63.9,121.3z"/>
		</g>
		<g>
			<path fill="#FDED00" d="M63.9,119.9c2.4,2.3,4.6,4.9,7.1,7.1c0.5,0.4-0.2,1.1-0.7,0.7c-2.5-2.2-4.7-4.8-7.1-7.1
				C62.8,120.2,63.5,119.5,63.9,119.9L63.9,119.9z"/>
		</g>
		<g>
			<path fill="#FDED00" d="M65.1,121.4c1.2,4.4,6.5,7.2,10.1,9.5c0.5,0.3,0,1.2-0.5,0.8c-3.7-2.4-9.2-5.4-10.5-10.1
				C64,121.1,64.9,120.8,65.1,121.4L65.1,121.4z"/>
		</g>
		<g>
			<path fill="#FDED00" d="M67.5,128.3c-3.8-3-8.8-5.1-10.4-10c-0.2-0.6,0.7-0.8,0.9-0.3c1.6,4.6,6.6,6.7,10.2,9.6
				C68.6,128,68,128.7,67.5,128.3L67.5,128.3z"/>
		</g>
		<g>
			<path fill="#FDED00" d="M65.5,127.6c-2.8-2.5-4.3-6-5.1-9.6c-0.1-0.6,0.8-0.9,0.9-0.3c0.8,3.5,2.2,6.7,4.9,9.2
				C66.6,127.3,65.9,128,65.5,127.6L65.5,127.6z"/>
		</g>
		<g>
			<path fill="#FDED00" d="M26.4,200.3c2.3-3.5,4.2-7.3,7.3-10.2c0.4-0.4,1.1,0.2,0.7,0.7c-3,2.9-4.9,6.5-7.1,10
				C26.9,201.2,26.1,200.8,26.4,200.3L26.4,200.3z"/>
		</g>
		<g>
			<path fill="#FDED00" d="M30.6,198.5c2.6-3.2,4.1-7.1,6.3-10.6c0.3-0.5,1.1,0,0.8,0.5c-2.2,3.5-3.7,7.5-6.4,10.8
				C30.9,199.7,30.2,199,30.6,198.5L30.6,198.5z"/>
		</g>
		<g>
			<path fill="#FDED00" d="M30,194.8c1-3.4,3.2-6,5.9-8.2c0.5-0.4,1.1,0.3,0.7,0.7c-2.5,2.1-4.7,4.5-5.7,7.7
				C30.8,195.6,29.8,195.3,30,194.8L30,194.8z"/>
		</g>
		<g>
			<path fill="#FDED00" d="M28.4,195.8c-3-6.3,5.5-9.2,10.2-10.3c0.6-0.1,0.9,0.8,0.3,0.9c-3.9,0.9-12.3,3.3-9.6,8.9
				C29.4,195.9,28.6,196.4,28.4,195.8L28.4,195.8z"/>
		</g>
		<g>
			<path fill="#FDED00" d="M31.3,191.8c1.9-3.7,6.1-5.2,9.8-6.3c0.6-0.2,0.8,0.7,0.3,0.9c-3.5,1.1-7.5,2.4-9.2,5.9
				C31.9,192.8,31,192.3,31.3,191.8L31.3,191.8z"/>
		</g>
		<g>
			<path fill="#FDED00" d="M26.2,196.5c3,0.7,6,0.9,9.1,1c0.6,0,0.6,1,0,0.9c-3.1-0.1-6.2-0.3-9.3-1.1
				C25.3,197.2,25.6,196.3,26.2,196.5L26.2,196.5z"/>
		</g>
		<g>
			<path fill="#FDED00" d="M28.7,198.7c4.5,5,15.6-0.5,20-3.3c0.5-0.3,1,0.5,0.5,0.8c-4.9,3-16.3,8.7-21.2,3.2
				C27.6,198.9,28.3,198.3,28.7,198.7L28.7,198.7z"/>
		</g>
		<g>
			<path fill="#FDED00" d="M43.9,198.3c0.7-0.2,1.4-0.3,2.1-0.5c0.6-0.1,0.9,0.8,0.3,0.9c-0.7,0.2-1.4,0.3-2.1,0.5
				C43.5,199.3,43.3,198.4,43.9,198.3L43.9,198.3z"/>
		</g>
		<g>
			<path fill="#FDED00" d="M121.9,155.3c1.8,7.2,7.3,13.1,12.7,18c0.5,0.4-0.2,1.1-0.7,0.7c-5.5-4.9-11.1-11.1-12.9-18.4
				C120.8,155,121.7,154.7,121.9,155.3L121.9,155.3z"/>
		</g>
		<g>
			<path fill="#FDED00" d="M130.4,167.5c7.9,7.3,16.9,12.9,25.9,18.7c0.5,0.3,0,1.2-0.5,0.8c-9-5.9-18.2-11.5-26.1-18.8
				C129.3,167.7,129.9,167.1,130.4,167.5L130.4,167.5z"/>
		</g>
		<g>
			<path fill="#FDED00" d="M137.8,176c5.3,4.7,11.2,8.5,17.7,11.5c0.6,0.3,0.1,1.1-0.5,0.8c-6.5-3-12.5-6.9-17.9-11.6
				C136.6,176.3,137.3,175.6,137.8,176L137.8,176z"/>
		</g>
		<g>
			<path fill="#FDED00" d="M134.2,173.7c7.6,3.8,14.5,8.7,22.1,12.5c0.5,0.3,0.1,1.1-0.5,0.8c-7.6-3.8-14.5-8.7-22.1-12.5
				C133.2,174.2,133.7,173.4,134.2,173.7L134.2,173.7z"/>
		</g>
		<g>
			<path fill="#FDED00" d="M152.7,185.1c5.9,4.2,12.9,6,19.6,8.5c0.6,0.2,0.3,1.1-0.2,0.9c-6.8-2.5-13.9-4.3-19.8-8.6
				C151.7,185.5,152.2,184.7,152.7,185.1L152.7,185.1z"/>
		</g>
		<g>
			<path fill="#FDED00" d="M33.2,149.9c7.7,4.9,15.8,9.1,23.8,13.6c0.5,0.3,0.1,1.1-0.5,0.8c-8-4.5-16.1-8.7-23.8-13.6
				C32.2,150.4,32.7,149.5,33.2,149.9L33.2,149.9z"/>
		</g>
		<g>
			<path fill="#FDED00" d="M38.6,152.8c15.7,3.1,29.7,11.9,42.9,20.5c0.5,0.3,0,1.2-0.5,0.8c-13.2-8.5-27.1-17.3-42.7-20.4
				C37.7,153.6,38,152.7,38.6,152.8L38.6,152.8z"/>
		</g>
		<g>
			<path fill="#FDED00" d="M51.7,159.4c17.6,9.8,36.8,16.1,55.4,23.7c9.7,4,18,10.4,27.8,14.3c8.8,3.5,18.5,5.6,27.5,8.6
				c17.6,5.9,43.9,14.8,61.4,4.4c4.7-2.8,14-11.8,18.4-4.2c0.3,0.5-0.5,1-0.8,0.5c-3.8-6.5-15.1,3.4-18.5,5.4
				c-5.2,3.1-13.9,3.1-19.7,3.3c-17.5,0.6-34.7-6.5-51.1-11.9c-6.8-2.3-14.2-3.5-20.7-6.6c-8.4-4-16.1-9.2-24.6-13
				c-18.4-8.3-37.7-13.8-55.4-23.7C50.7,159.9,51.1,159.1,51.7,159.4L51.7,159.4z"/>
		</g>
		<g>
			<path fill="#FDED00" d="M242,206.8c-5.6,5.4-13.9,6.9-17.4,14.4c-0.3,0.6-1.1,0.1-0.8-0.5c3.6-7.6,11.9-9.1,17.5-14.6
				C241.8,205.8,242.4,206.4,242,206.8L242,206.8z"/>
		</g>
		<g>
			<path fill="#FDED00" d="M191.3,229.9c8.8,4.1,14.9-2.6,22-6.6c4.3-2.5,9.4-3.3,14.2-4.2c0.6-0.1,0.9,0.8,0.3,0.9
				c-8.4,1.5-14.5,4.4-21.5,9c-5,3.3-10,4.2-15.4,1.7C190.3,230.5,190.7,229.6,191.3,229.9L191.3,229.9z"/>
		</g>
		<g>
			<path fill="#FDED00" d="M224.1,220c0.9,5.9-3.4,11.3-4.7,16.8c-0.1,0.6-1.1,0.4-0.9-0.2c1.3-5.5,5.5-10.7,4.7-16.5
				C223.1,219.5,224,219.4,224.1,220L224.1,220z"/>
		</g>
		<g>
			<path fill="#FDED00" d="M219,235.6c-2,2-4.6,3.3-7.5,3.5c-0.6,0.1-0.6-0.9,0-0.9c2.6-0.2,5-1.4,6.8-3.2
				C218.7,234.5,219.4,235.2,219,235.6L219,235.6z"/>
		</g>
		<g>
			<path fill="#FDED00" d="M215.8,234.3c1.9-0.6,5.2-1.5,5.8,1.3c0.4,1.7,0.3,3.5,0.4,5.3c0,5.9,4.6,8.4,9.7,6.1
				c5.6-2.5,12.6-11.1,17.9-3.8c0.4,0.5-0.5,1-0.8,0.5c-5.4-7.4-14.7,5.3-21.5,5.3c-9.1,0-3.5-16.1-11.1-13.7
				C215.5,235.4,215.2,234.5,215.8,234.3L215.8,234.3z"/>
		</g>
		<g>
			<path fill="#FDED00" d="M247.8,243.4c-10.2,6.3-22.7,10.1-31.7,18.1c-6.9,6.1-10.4,14.2-18.8,18.7c-0.5,0.3-1-0.5-0.5-0.8
				c8.9-4.8,13.2-13.8,20.6-20.3c8.2-7.3,20.5-10.7,29.8-16.5C247.8,242.3,248.3,243.1,247.8,243.4L247.8,243.4z"/>
		</g>
		<g>
			<path fill="#FDED00" d="M202.4,274.7c4,4.1,0.4,8.7-2.5,12.5c-7.5,9.7-10.5,21.8-18.6,31.1c-0.4,0.5-1.1-0.2-0.7-0.7
				c6.4-7.3,9-15.9,13.4-24.4c2.3-4.5,13.3-12.2,7.8-17.9C201.3,274.9,201.9,274.3,202.4,274.7L202.4,274.7z"/>
		</g>
		<g>
			<path fill="#FDED00" d="M180.3,319.1c0.1-2.4,1.2-4.7,1.8-7c0.8-2.7,1.8-6.7-2.4-6.2c-0.6,0.1-0.6-0.9,0-0.9
				c8.1-1,1.6,10.5,1.5,14.1C181.2,319.7,180.3,319.7,180.3,319.1L180.3,319.1z"/>
		</g>
		<g>
			<path fill="#FDED00" d="M179.8,306.3c-5,4.6-10.8,7.9-17,3.6c-0.5-0.3,0-1.2,0.5-0.8c5.9,4.1,11.2,0.8,15.9-3.4
				C179.6,305.2,180.2,305.9,179.8,306.3L179.8,306.3z"/>
		</g>
		<g>
			<path fill="#FDED00" d="M164.4,308.6c6.4,9.2-13.3,8.2-15.6,13.1c-0.3,0.6-1.1,0.1-0.8-0.5c2.3-4.9,21.1-4.3,15.6-12.2
				C163.3,308.6,164.1,308.1,164.4,308.6L164.4,308.6z"/>
		</g>
		<g>
			<path fill="#FDED00" d="M149,320.3c0.2,4-3.4,8.1-5.8,11c-2.4,2.9-6,7.6-10,8.4c-0.3,0.1-0.6-0.1-0.6-0.4
				c0.8-7.3,7.4-12,8.7-19.1c0.1-0.6,1-0.4,0.9,0.2c-0.7,4.1-3,7.3-5.3,10.6c-0.7,1-3.3,7.7-3.5,7.7c1.4-0.3,2.7-1.6,3.7-2.4
				c4-3.3,11.2-10.3,10.9-16C148,319.7,149,319.7,149,320.3L149,320.3z"/>
		</g>
		<g>
			<path fill="#FDED00" d="M144,319.1c-3.8-9.3,3-19.5,10.4-24.7c0.5-0.3,1,0.5,0.5,0.8c-7.1,5-13.6,14.8-10,23.7
				C145.2,319.4,144.3,319.6,144,319.1L144,319.1z"/>
		</g>
		<g>
			<path fill="#FDED00" d="M154.4,294.9c-3.4,0.8-4.9,0.1-7.8-1.8c-0.3-0.2-0.3-0.5-0.1-0.7c7.4-7.6,18.6-9.4,27-15.9
				c10.3-7.9,14.5,1.9,25.9,0.1c0.6-0.1,0.9,0.8,0.3,0.9c-8.2,1.3-15.5-6.2-23.2-2.1c-4.4,2.4-7.5,6-12.2,8.1
				c-1.6,0.7-3.4,1.4-5,2.1c-1.8,0.7-3.5,1.4-5.3,2.1c-3.8,1.1-3.7,3.1,0.3,6.2C154.7,293.9,155,294.8,154.4,294.9L154.4,294.9z"/>
		</g>
		<g>
			<path fill="#FDED00" d="M197.5,278.2c-7.7-4.7-17.5-7.5-19.1-17.5c-1.9-12.2,15.4-17.9,12-30.9c-0.2-0.6,0.8-0.9,0.9-0.3
				c1.8,6.8-1.4,11.6-5.4,16.9c-5.3,7-10,14.9-2.2,22.5c3.9,3.8,9.6,5.7,14.2,8.5C198.5,277.7,198.1,278.5,197.5,278.2L197.5,278.2z
				"/>
		</g>
		<g>
			<path fill="#FDED00" d="M189.8,231.8c-1.8-4-8.4-6.7-12.1-8.7c-4.2-2.3-8.6-4.5-13-6.3c-0.6-0.2-0.1-1.1,0.5-0.8
				c5.3,2.2,10.4,4.9,15.3,7.6c3.1,1.8,8.5,4.2,10.1,7.7C190.9,231.9,190.1,232.4,189.8,231.8L189.8,231.8z"/>
		</g>
		<g>
			<path fill="#FDED00" d="M161.6,216.8c10.1,5.3,20.2,10.8,31.4,13.1c0.6,0.1,0.4,1-0.2,0.9c-11.3-2.3-21.5-7.8-31.6-13.2
				C160.6,217.3,161.1,216.5,161.6,216.8L161.6,216.8z"/>
		</g>
		<g>
			<path fill="#FDED00" d="M168.8,219c8.9,4.1,18.9,6.6,28.6,7.6c0.6,0.1,0.6,1,0,0.9c-10-1-20-3.5-29.1-7.8
				C167.8,219.5,168.3,218.7,168.8,219L168.8,219z"/>
		</g>
		<g>
			<path fill="#FDED00" d="M175.3,221.3c7.3,5,16,6.9,23.9,10.6c0.6,0.3,0.1,1.1-0.5,0.8c-7.9-3.7-16.6-5.6-23.9-10.6
				C174.3,221.8,174.8,221,175.3,221.3L175.3,221.3z"/>
		</g>
		<g>
			<path fill="#FDED00" d="M186,225.8c5.1,2.5,10.8,3.1,16.4,3.9c0.6,0.1,0.4,1-0.2,0.9c-5.7-0.9-11.4-1.4-16.6-4
				C184.9,226.4,185.4,225.5,186,225.8L186,225.8z"/>
		</g>
		<g>
			<path fill="#FDED00" d="M194.9,229.3c0.2-0.6,1.1-0.4,0.9,0.2C195.7,230.1,194.7,229.9,194.9,229.3L194.9,229.3z"/>
		</g>
		<g>
			<path fill="#FDED00" d="M173.6,222.2c0.2-0.6,1.1-0.4,0.9,0.2C174.4,223,173.5,222.8,173.6,222.2L173.6,222.2z"/>
		</g>
		<g>
			<path fill="#FDED00" d="M164,218.8c-10.7-6.3-21.8-11.9-32.3-18.5c-0.5-0.3,0-1.2,0.5-0.8c10.5,6.7,21.6,12.3,32.3,18.5
				C165,218.3,164.6,219.1,164,218.8L164,218.8z"/>
		</g>
		<g>
			<path fill="#FDED00" d="M146.8,211.3c-14.4-8-29.1-15.3-43.7-22.9c-0.5-0.3-0.1-1.1,0.5-0.8c14.6,7.6,29.3,14.9,43.7,22.9
				C147.8,210.8,147.3,211.6,146.8,211.3L146.8,211.3z"/>
		</g>
		<g>
			<path fill="#FDED00" d="M117,199.3c-15.7-8.3-31.6-16.4-46.6-26c-0.5-0.3,0-1.2,0.5-0.8c15,9.6,30.9,17.7,46.6,26
				C118,198.8,117.5,199.6,117,199.3L117,199.3z"/>
		</g>
		<g>
			<path fill="#FDED00" d="M78.6,178c-14.7-4.2-26.5-14.4-40.3-20.7c-0.6-0.2-0.1-1.1,0.5-0.8c13.7,6.2,25.5,16.4,40.1,20.6
				C79.4,177.3,79.2,178.2,78.6,178L78.6,178z"/>
		</g>
		<g>
			<path fill="#FDED00" d="M58.3,164.3c32.3,17.5,67.4,30,100.6,45.8c15.3,7.3,33.8,15.1,50.8,9.7c11-3.5,18.3-14.5,30.9-12.1
				c0.6,0.1,0.4,1-0.2,0.9c-13.6-2.5-24.5,11.8-37.9,13.8c-13.1,1.9-27-3.9-38.7-9c-15.2-6.6-29.8-14.4-45.1-20.9
				c-20.6-8.7-41.3-16.8-61-27.5C57.3,164.9,57.8,164.1,58.3,164.3L58.3,164.3z"/>
		</g>
		<g>
			<path fill="#FDED00" d="M177.9,265.5c-4.4-3.6-8.3-7.8-13.1-11c-0.5-0.3,0-1.2,0.5-0.8c4.8,3.2,8.8,7.5,13.3,11.1
				C179.1,265.2,178.4,265.8,177.9,265.5L177.9,265.5z"/>
		</g>
		<g>
			<path fill="#FDED00" d="M175.2,261.2c-5.2-6.2-12-10.3-18.7-14.6c-0.5-0.3,0-1.2,0.5-0.8c6.8,4.4,13.7,8.5,18.9,14.8
				C176.2,261,175.6,261.7,175.2,261.2L175.2,261.2z"/>
		</g>
		<g>
			<path fill="#FDED00" d="M163.9,253.9c-6.8-5.6-14.1-10.6-20.7-16.5c-0.5-0.4,0.2-1.1,0.7-0.7c6.5,6,13.8,10.9,20.7,16.5
				C165.1,253.6,164.4,254.3,163.9,253.9L163.9,253.9z"/>
		</g>
		<g>
			<path fill="#FDED00" d="M156,246.3c-8.6-6.1-17.6-11.5-26.4-17.2c-0.5-0.3,0-1.2,0.5-0.8c8.8,5.7,17.9,11.1,26.4,17.2
				C157,245.8,156.5,246.7,156,246.3L156,246.3z"/>
		</g>
		<g>
			<path fill="#FDED00" d="M60.1,172.3c4.2,3.3,8.9,5.9,12.9,9.6c0.4,0.4-0.2,1.1-0.7,0.7c-3.9-3.7-8.6-6.3-12.9-9.6
				C58.9,172.6,59.6,171.9,60.1,172.3L60.1,172.3z"/>
		</g>
		<g>
			<path fill="#FDED00" d="M62.4,174.4c8.8,8.6,19,15.4,29.2,22.1c0.5,0.3,0,1.2-0.5,0.8c-10.4-6.7-20.6-13.5-29.4-22.2
				C61.3,174.7,62,174,62.4,174.4L62.4,174.4z"/>
		</g>
		<g>
			<path fill="#FDED00" d="M72.8,181.8c9.2,6.1,17.9,12.8,27.1,18.9c0.5,0.3,0,1.2-0.5,0.8c-9.2-6.1-17.9-12.8-27.2-18.9
				C71.9,182.3,72.3,181.5,72.8,181.8L72.8,181.8z"/>
		</g>
		<g>
			<path fill="#FDED00" d="M72.5,180.4c10.2,6.7,20.2,13.7,30.5,20.4c0.5,0.3,0,1.2-0.5,0.8c-10.2-6.7-20.2-13.7-30.5-20.4
				C71.6,180.9,72,180,72.5,180.4L72.5,180.4z"/>
		</g>
		<g>
			<path fill="#FDED00" d="M80.2,184.7c14.3,5.9,26.3,15.7,39.1,24.2c0.5,0.3,0,1.2-0.5,0.8c-12.8-8.5-24.8-18.3-39.1-24.2
				C79.1,185.3,79.6,184.5,80.2,184.7L80.2,184.7z"/>
		</g>
		<g>
			<path fill="#FDED00" d="M99.4,199.7c13.6,8.8,27.4,17.2,41,26c0.5,0.3,0,1.2-0.5,0.8c-13.6-8.8-27.4-17.2-41-26
				C98.4,200.2,98.9,199.4,99.4,199.7L99.4,199.7z"/>
		</g>
		<g>
			<path fill="#FDED00" d="M106.9,202.8c1,1.6,3.9,2.8,5.4,3.8c3.5,2.2,7,4.2,10.5,6.3c5.6,3.3,11.4,6.5,16.9,10
				c0.5,0.3,0,1.2-0.5,0.8c-6.4-4.1-13.2-7.8-19.8-11.7c-3.7-2.2-11.1-4.9-13.4-8.7C105.8,202.8,106.6,202.3,106.9,202.8
				L106.9,202.8z"/>
		</g>
		<g>
			<path fill="#FDED00" d="M93.9,194.9c9.9,4.2,18.6,10.7,28.3,15.3c0.5,0.3,0.1,1.1-0.5,0.8c-9.7-4.6-18.3-11.1-28.3-15.3
				C92.9,195.5,93.3,194.7,93.9,194.9L93.9,194.9z"/>
		</g>
		<g>
			<path fill="#FDED00" d="M123.9,213.2c10.1,4.3,18.8,10.9,27.8,16.9c0.5,0.3,0,1.2-0.5,0.8c-9.1-6-17.8-12.6-27.8-16.9
				C122.9,213.8,123.4,212.9,123.9,213.2L123.9,213.2z"/>
		</g>
		<g>
			<path fill="#FDED00" d="M154.5,232.6c0.2-0.6,1.1-0.4,0.9,0.2C155.3,233.4,154.4,233.2,154.5,232.6L154.5,232.6z"/>
		</g>
		<g>
			<path fill="#FDED00" d="M135.6,224.4c-0.4-0.6-0.9-1.1-1.5-1.6c-0.4-0.4,0.2-1.1,0.7-0.7c7.1,6.2,16,9.3,23.8,14.3
				c0.5,0.3,0,1.1-0.5,0.8c-4.2-2.6-8.7-4.8-13.1-7.1c-2.2-1.1-4.3-2.4-6.4-3.8c-0.6-0.4-1.1-0.7-1.6-1.1c-0.8-0.7-2.1-3.1-0.8-1.5
				C136.7,224.2,136,224.9,135.6,224.4L135.6,224.4z"/>
		</g>
		<g>
			<path fill="#FDED00" d="M133.4,220.6c10.1,9.5,22.7,15.5,34.3,22.9c0.5,0.3,0,1.2-0.5,0.8c-11.7-7.4-24.3-13.5-34.5-23
				C132.3,220.8,133,220.2,133.4,220.6L133.4,220.6z"/>
		</g>
		<g>
			<path fill="#FDED00" d="M144.6,229.7c11.4,5.6,22,12.5,31.4,21.1c0.5,0.4-0.2,1.1-0.7,0.7c-9.3-8.5-19.9-15.4-31.2-20.9
				C143.6,230.3,144,229.4,144.6,229.7L144.6,229.7z"/>
		</g>
		<g>
			<path fill="#FDED00" d="M178.4,253.4c-9.3-9.6-21.2-15.8-32.1-23.3c-0.5-0.3,0-1.2,0.5-0.8c10.9,7.6,22.9,13.9,32.3,23.5
				C179.5,253.2,178.8,253.9,178.4,253.4L178.4,253.4z"/>
		</g>
		<g>
			<path fill="#FDED00" d="M176,249.4c-7.9-8-17.8-13.5-27.2-19.5c-0.5-0.3,0-1.2,0.5-0.8c9.5,6.1,19.4,11.6,27.4,19.7
				C177.1,249.2,176.5,249.9,176,249.4L176,249.4z"/>
		</g>
		<g>
			<path fill="#FDED00" d="M176.3,245.3c-10.6-8.4-23-13.8-35.1-19.7c-0.5-0.3-0.1-1.1,0.5-0.8c12.2,6,24.6,11.4,35.3,19.9
				C177.4,245,176.8,245.7,176.3,245.3L176.3,245.3z"/>
		</g>
		<g>
			<path fill="#FDED00" d="M173.2,242.7c-6.2-4.1-12.2-8.4-18.9-11.7c-0.6-0.3-0.1-1.1,0.5-0.8c6.7,3.2,12.7,7.6,18.9,11.7
				C174.2,242.2,173.7,243,173.2,242.7L173.2,242.7z"/>
		</g>
		<g>
			<path fill="#FDED00" d="M130.3,211.8c5.8,3.1,11.5,6.3,17,9.8c0.5,0.3,0,1.2-0.5,0.8c-5.5-3.5-11.3-6.7-17-9.8
				C129.3,212.3,129.8,211.5,130.3,211.8L130.3,211.8z"/>
		</g>
		<g>
			<path fill="#FDED00" d="M151,221c4.5,4.9,11.9,6.7,17.9,9.2c0.6,0.2,0.1,1-0.5,0.8c-6.1-2.5-13.5-4.4-18.1-9.3
				C150,221.2,150.6,220.5,151,221L151,221z"/>
		</g>
		<g>
			<path fill="#FDED00" d="M128,203.6c0.7,1.4,4.3,2.5,5.6,3.2c3.7,1.9,7.5,3.7,11.3,5.5c6.6,3.1,13.3,6.1,19.7,9.5
				c0.5,0.3,0.1,1.1-0.5,0.8c-7-3.7-14.2-6.8-21.2-10.2c-3.5-1.7-13.7-4.6-15.7-8.3C126.9,203.5,127.7,203,128,203.6L128,203.6z"/>
		</g>
		<g>
			<path fill="#FDED00" d="M139.4,206.1c0.3,0.9,2.9,1.9,3.7,2.3c2.5,1.4,5.1,2.7,7.7,4c4.2,2.1,8.5,4.1,12.5,6.6
				c0.5,0.3,0,1.2-0.5,0.8c-4.6-2.9-9.7-5.2-14.6-7.6c-2.2-1.1-8.8-3.2-9.7-5.8C138.3,205.8,139.2,205.5,139.4,206.1L139.4,206.1z"
				/>
		</g>
		<g>
			<path fill="#FDED00" d="M159.3,216.5c9.7,4.6,18.6,10.7,28.5,14.9c0.6,0.2,0.1,1.1-0.5,0.8c-9.9-4.2-18.9-10.2-28.5-14.9
				C158.3,217.1,158.8,216.2,159.3,216.5L159.3,216.5z"/>
		</g>
		<g>
			<path fill="#FDED00" d="M163.6,221.1c0.4,0.1,0.8,0,1.1,0.1c0.6,0.2,0.3,1.1-0.2,0.9c-0.4-0.1-0.8,0-1.1-0.1
				C162.8,221.8,163,220.9,163.6,221.1L163.6,221.1z"/>
		</g>
		<g>
			<path fill="#FDED00" d="M162.2,274.3c-6.7-8.7-17-13.6-25.5-20.2c-0.5-0.4,0.2-1,0.7-0.7c8.6,6.8,18.9,11.6,25.7,20.4
				C163.4,274.3,162.6,274.8,162.2,274.3L162.2,274.3z"/>
		</g>
		<g>
			<path fill="#FDED00" d="M161.7,269.7c-9.1-7.1-18.8-13.6-27.3-21.5c-0.4-0.4,0.2-1.1,0.7-0.7c8.5,7.9,18.2,14.3,27.3,21.5
				C162.8,269.4,162.1,270,161.7,269.7L161.7,269.7z"/>
		</g>
		<g>
			<path fill="#FDED00" d="M146.4,259.2c-11.2-8.2-20.6-18.6-33-25.1c-0.5-0.3-0.1-1.1,0.5-0.8c12.3,6.5,21.8,17,33,25.1
				C147.4,258.7,146.9,259.5,146.4,259.2L146.4,259.2z"/>
		</g>
		<g>
			<path fill="#FDED00" d="M124.1,242.1c-7.6-7.3-15.5-14.3-24.3-20.1c-0.5-0.3,0-1.2,0.5-0.8c8.9,5.9,16.8,12.9,24.5,20.3
				C125.2,241.9,124.5,242.6,124.1,242.1L124.1,242.1z"/>
		</g>
		<g>
			<path fill="#FDED00" d="M94.1,218.3c-4.4-2.9-8.5-6.1-12.5-9.4c-0.5-0.4,0.2-1.1,0.7-0.7c4,3.2,8,6.4,12.3,9.2
				C95.1,217.9,94.6,218.7,94.1,218.3L94.1,218.3z"/>
		</g>
		<g>
			<path fill="#FDED00" d="M73.7,203.2c-3.8-2.4-7.5-4.9-11.3-7.3c-0.5-0.3,0-1.2,0.5-0.8c3.8,2.4,7.5,4.9,11.3,7.3
				C74.7,202.7,74.3,203.6,73.7,203.2L73.7,203.2z"/>
		</g>
		<g>
			<path fill="#FDED00" d="M56.2,180.8c4.2,2.2,8.1,4.8,11.5,8.1c0.4,0.4-0.2,1.1-0.7,0.7c-3.3-3.3-7.2-5.8-11.3-8
				C55.2,181.4,55.7,180.6,56.2,180.8L56.2,180.8z"/>
		</g>
		<g>
			<path fill="#FDED00" d="M73.7,192.8c11.9,5,19.8,15.6,30.2,22.7c0.5,0.3,0,1.2-0.5,0.8c-10.4-7.1-18.4-17.7-30.2-22.7
				C72.6,193.4,73.1,192.6,73.7,192.8L73.7,192.8z"/>
		</g>
		<g>
			<path fill="#FDED00" d="M81.2,199c3.8,0.9,7.1,3.9,10.1,6.3c4.5,3.6,8.7,7.6,13.5,10.8c0.5,0.3,0,1.2-0.5,0.8
				c-3.7-2.5-7-5.5-10.4-8.3c-3.7-3.1-8-7.5-12.9-8.7C80.4,199.8,80.6,198.9,81.2,199L81.2,199z"/>
		</g>
		<g>
			<path fill="#FDED00" d="M107.3,217.8c9,6,17.1,13.1,25,20.6c0.4,0.4-0.2,1.1-0.7,0.7c-7.8-7.4-15.8-14.5-24.8-20.4
				C106.4,218.3,106.8,217.5,107.3,217.8L107.3,217.8z"/>
		</g>
		<g>
			<path fill="#FDED00" d="M102.2,217c10.7,4.1,18.7,12.5,28,18.8c0.5,0.3,0,1.2-0.5,0.8c-9.3-6.2-17.2-14.6-27.7-18.7
				C101.4,217.7,101.6,216.7,102.2,217L102.2,217z"/>
		</g>
		<g>
			<path fill="#FDED00" d="M125.5,232.7c9.2,9.1,20.4,15.8,31.3,22.8c0.5,0.3,0,1.2-0.5,0.8c-10.9-7-22.2-13.8-31.4-22.9
				C124.4,233,125.1,232.3,125.5,232.7L125.5,232.7z"/>
		</g>
		<g>
			<path fill="#FDED00" d="M129.4,237.7c15.3,5.6,26.8,18.3,39.1,28.5c0.5,0.4-0.2,1.1-0.7,0.7c-12.1-10.1-23.5-22.7-38.6-28.2
				C128.6,238.4,128.8,237.5,129.4,237.7L129.4,237.7z"/>
		</g>
		<g>
			<path fill="#FDED00" d="M152.1,256.1c7.8,4,14.2,9.8,20.9,15.5c0.5,0.4-0.2,1.1-0.7,0.7c-6.6-5.5-13-11.3-20.7-15.3
				C151,256.7,151.5,255.8,152.1,256.1L152.1,256.1z"/>
		</g>
		<g>
			<path fill="#FDED00" d="M174.2,272.2c-7.4-6.6-15.3-12.5-23-18.7c-0.5-0.4,0.2-1.1,0.7-0.7c7.7,6.2,15.6,12.1,23,18.7
				C175.3,272,174.6,272.6,174.2,272.2L174.2,272.2z"/>
		</g>
		<g>
			<path fill="#FDED00" d="M147.6,287.9c9-3.8,17.6-5.2,25.3-11.8c4.6-3.9,8.9-5.1,14.9-4.2c0.6,0.1,0.4,1-0.2,0.9
				c-8.6-1.3-12.5,3.2-18.8,7.9c-6,4.5-14.2,5.2-20.9,8.1C147.3,289.1,147.1,288.2,147.6,287.9L147.6,287.9z"/>
		</g>
		<g>
			<path fill="#FDED00" d="M145.1,288.5c-5.1-6.1-8.5-13.4-13.2-19.7c-0.4-0.5,0.5-1,0.8-0.5c4.7,6.3,8,13.5,13,19.5
				C146.2,288.3,145.5,288.9,145.1,288.5L145.1,288.5z"/>
		</g>
		<g>
			<path fill="#FDED00" d="M129.3,270.2c-6.6-6.3-13.1-13-18.2-20.5c-0.3-0.5,0.5-1,0.8-0.5c5.1,7.4,11.6,14.1,18.1,20.3
				C130.4,269.9,129.7,270.6,129.3,270.2L129.3,270.2z"/>
		</g>
		<g>
			<path fill="#FDED00" d="M121.6,260.2c-7.7-7.5-15.7-14.6-23-22.4c-0.4-0.4,0.2-1.1,0.7-0.7c7.3,7.8,15.4,14.9,23,22.4
				C122.7,260,122,260.6,121.6,260.2L121.6,260.2z"/>
		</g>
		<g>
			<path fill="#FDED00" d="M117.2,253.7c-11.1-10.5-21-22.1-31.3-33.3c-0.4-0.4,0.2-1.1,0.7-0.7c10.3,11.2,20.2,22.8,31.3,33.3
				C118.3,253.4,117.6,254.1,117.2,253.7L117.2,253.7z"/>
		</g>
		<g>
			<path fill="#FDED00" d="M99.3,232.8c-8.8-8.3-17.4-16.8-26.2-25.1c-0.4-0.4,0.2-1.1,0.7-0.7c8.8,8.3,17.4,16.8,26.2,25.1
				C100.5,232.6,99.8,233.2,99.3,232.8L99.3,232.8z"/>
		</g>
		<g>
			<path fill="#FDED00" d="M123.5,260.8c-6.9-12-18.1-20.4-27.9-29.8c-0.4-0.4,0.2-1.1,0.7-0.7c9.9,9.5,21.2,18,28.1,30
				C124.6,260.9,123.8,261.4,123.5,260.8L123.5,260.8z"/>
		</g>
		<g>
			<path fill="#FDED00" d="M136.9,268.9c-7.9-8.8-16.8-16.6-24.8-25.4c-0.4-0.4,0.3-1.1,0.7-0.7c7.9,8.8,16.8,16.6,24.8,25.4
				C137.9,268.7,137.3,269.4,136.9,268.9L136.9,268.9z"/>
		</g>
		<g>
			<path fill="#FDED00" d="M143.6,278.1c-0.1-0.3-0.1-0.5-0.4-0.7c-0.5-0.3,0-1.2,0.5-0.8c0.5,0.3,0.7,0.7,0.8,1.3
				C144.6,278.4,143.7,278.7,143.6,278.1L143.6,278.1z"/>
		</g>
		<g>
			<path fill="#FDED00" d="M132.4,267.3c-5.9-7.4-12-14.5-19.3-20.6c-0.5-0.4,0.2-1.1,0.7-0.7c7.3,6.1,13.4,13.2,19.3,20.6
				C133.4,267.1,132.8,267.7,132.4,267.3L132.4,267.3z"/>
		</g>
		<g>
			<path fill="#FDED00" d="M137.2,275.9c-5.9-8.1-11.9-16.1-19.7-22.6c-0.5-0.4,0.2-1.1,0.7-0.7c7.8,6.5,13.9,14.6,19.8,22.8
				C138.3,275.9,137.5,276.3,137.2,275.9L137.2,275.9z"/>
		</g>
		<g>
			<path fill="#FDED00" d="M132.4,274.6c-5.3-7.7-10.3-15.6-16.7-22.5c-0.4-0.4,0.2-1.1,0.7-0.7c6.5,6.9,11.5,14.9,16.8,22.7
				C133.6,274.6,132.8,275.1,132.4,274.6L132.4,274.6z"/>
		</g>
		<g>
			<path fill="#FDED00" d="M123.7,259.3c4.3,9.7,12.6,16.7,18.8,25.1c0.4,0.5-0.5,1-0.8,0.5c-6.2-8.4-14.5-15.4-18.8-25.1
				C122.7,259.3,123.5,258.8,123.7,259.3L123.7,259.3z"/>
		</g>
		<g>
			<path fill="#FDED00" d="M132.1,270.4c3.1,10.9,12.8,18.1,16.5,28.6c0.2,0.6-0.7,0.8-0.9,0.3c-3.7-10.6-13.5-17.7-16.5-28.6
				C131,270.1,131.9,269.8,132.1,270.4L132.1,270.4z"/>
		</g>
		<g>
			<path fill="#FDED00" d="M148.3,295.3c0.6-0.5-1.5-2-1.7-2.2c-0.5-0.3,0-1.2,0.5-0.8c1,0.7,3.4,2.6,1.8,3.8
				C148.3,296.5,147.8,295.6,148.3,295.3L148.3,295.3z"/>
		</g>
		<g>
			<path fill="#FDED00" d="M146.9,293.8c-2.3-6.5-7.7-11.1-12-16.3c-0.4-0.5,0.3-1.1,0.7-0.7c4.3,5.4,9.8,10,12.2,16.7
				C148,294.1,147.1,294.4,146.9,293.8L146.9,293.8z"/>
		</g>
		<g>
			<path fill="#FDED00" d="M144.5,292.9c-1.4-4.5-4.6-7.9-7-11.8c-0.3-0.5,0.5-1,0.8-0.5c2.4,4,5.6,7.5,7.1,12.1
				C145.6,293.2,144.6,293.4,144.5,292.9L144.5,292.9z"/>
		</g>
		<g>
			<path fill="#FDED00" d="M147.1,289.2c-3.7-4.4-7.2-9-11-13.3c-0.4-0.5,0.3-1.1,0.7-0.7c3.8,4.3,7.3,8.9,11,13.3
				C148.2,289,147.5,289.6,147.1,289.2L147.1,289.2z"/>
		</g>
		<g>
			<path fill="#FDED00" d="M147.4,285c-5.2-5.7-11-10.9-16.5-16.3c-0.4-0.4,0.2-1.1,0.7-0.7c5.5,5.4,11.3,10.6,16.5,16.3
				C148.4,284.8,147.8,285.5,147.4,285L147.4,285z"/>
		</g>
		<g>
			<path fill="#FDED00" d="M151.1,285c-9.6-7.7-17.2-17.3-25.4-26.4c-0.4-0.5,0.3-1.1,0.7-0.7c8.2,9.1,15.8,18.7,25.4,26.4
				C152.2,284.7,151.6,285.3,151.1,285L151.1,285z"/>
		</g>
		<g>
			<path fill="#FDED00" d="M154.9,283.8c-9.4-9.1-19.7-17.2-29.4-25.9c-0.5-0.4,0.2-1.1,0.7-0.7c9.7,8.7,20,16.8,29.4,25.9
				C156,283.5,155.4,284.2,154.9,283.8L154.9,283.8z"/>
		</g>
		<g>
			<path fill="#FDED00" d="M152.9,279.4c-6-6.3-13-11.6-19.7-17.1c-0.5-0.4,0.2-1.1,0.7-0.7c6.7,5.5,13.7,10.8,19.7,17.1
				C154,279.1,153.3,279.8,152.9,279.4L152.9,279.4z"/>
		</g>
		<g>
			<path fill="#FDED00" d="M152.1,277.6c-7.7-7.3-16.2-13.7-23.9-21.1c-0.4-0.4,0.2-1.1,0.7-0.7c7.7,7.4,16.2,13.8,23.9,21.1
				C153.3,277.4,152.6,278.1,152.1,277.6L152.1,277.6z"/>
		</g>
		<g>
			<path fill="#FDED00" d="M122.6,252.3c-7.4-5.5-14.3-11.8-21.1-18c-0.4-0.4,0.2-1.1,0.7-0.7c6.8,6.2,13.5,12.4,20.9,17.9
				C123.5,251.8,123.1,252.6,122.6,252.3L122.6,252.3z"/>
		</g>
		<g>
			<path fill="#FDED00" d="M99.9,235.7c-2.6-2.3-5.1-4.6-6.9-7.6c-0.3-0.5,0.5-1,0.8-0.5c1.8,2.9,4.2,5.2,6.7,7.4
				C101.1,235.4,100.4,236.1,99.9,235.7L99.9,235.7z"/>
		</g>
		<g>
			<path fill="#FDED00" d="M49.6,192c6.4,3.2,9.6,10.3,14.2,15.4c0.4,0.5-0.3,1.1-0.7,0.7c-4.5-5.1-7.6-12.1-14-15.2
				C48.6,192.5,49,191.7,49.6,192L49.6,192z"/>
		</g>
		<g>
			<path fill="#FDED00" d="M54.2,196.2c8.4,6.3,15.3,14.2,22.3,21.9c0.4,0.5-0.3,1.1-0.7,0.7c-6.9-7.7-13.8-15.5-22.1-21.7
				C53.3,196.7,53.7,195.8,54.2,196.2L54.2,196.2z"/>
		</g>
		<g>
			<path fill="#FDED00" d="M63.5,207.8c8.7,7.7,16.2,16.5,24.9,24.2c0.5,0.4-0.2,1.1-0.7,0.7c-8.7-7.7-16.2-16.5-24.9-24.2
				C62.4,208,63,207.4,63.5,207.8L63.5,207.8z"/>
		</g>
		<g>
			<path fill="#FDED00" d="M67,211.9c10.3,8.7,17.7,20,26.8,29.8c0.4,0.4-0.2,1.1-0.7,0.7c-9.1-9.8-16.6-21.1-26.8-29.8
				C65.8,212.2,66.5,211.5,67,211.9L67,211.9z"/>
		</g>
		<g>
			<path fill="#FDED00" d="M87,234.2c6.5,5,12.1,11.2,16.9,17.8c0.4,0.5-0.5,1-0.8,0.5c-4.8-6.5-10.4-12.7-16.7-17.6
				C85.8,234.5,86.5,233.8,87,234.2L87,234.2z"/>
		</g>
		<g>
			<path fill="#FDED00" d="M90.6,235.3c3.9,3.8,7.6,7.9,11.5,11.8c0.4,0.4-0.2,1.1-0.7,0.7c-3.9-3.8-7.6-7.9-11.5-11.8
				C89.5,235.5,90.1,234.8,90.6,235.3L90.6,235.3z"/>
		</g>
		<g>
			<path fill="#FDED00" d="M98.9,240.7c3.8,5,8.5,9.2,12.3,14.2c0.4,0.5-0.4,1-0.8,0.5c-3.8-5-8.5-9.2-12.3-14.2
				C97.7,240.7,98.5,240.2,98.9,240.7L98.9,240.7z"/>
		</g>
		<g>
			<path fill="#FDED00" d="M100.7,244.3c6,5.2,11.3,11.1,15.8,17.7c0.3,0.5-0.5,1-0.8,0.5c-4.4-6.5-9.7-12.3-15.6-17.5
				C99.6,244.6,100.3,243.9,100.7,244.3L100.7,244.3z"/>
		</g>
		<g>
			<path fill="#FDED00" d="M103.9,250.7c5.9,5.1,11.1,10.9,16.2,16.7c0.4,0.5-0.3,1.1-0.7,0.7c-5.1-5.9-10.4-11.6-16.2-16.7
				C102.8,251,103.5,250.3,103.9,250.7L103.9,250.7z"/>
		</g>
		<g>
			<path fill="#FDED00" d="M95.5,240.9c5.3,5.7,11.6,10.1,16.8,15.9c0.4,0.5-0.3,1.1-0.7,0.7c-5.2-5.7-11.5-10.2-16.8-15.9
				C94.4,241.2,95.1,240.5,95.5,240.9L95.5,240.9z"/>
		</g>
		<g>
			<path fill="#FDED00" d="M95.1,240.7c10.8,9.6,20.7,20.2,27.2,33.2c0.3,0.5-0.5,1-0.8,0.5c-6.5-12.9-16.4-23.4-27.1-33
				C94,240.9,94.6,240.3,95.1,240.7L95.1,240.7z"/>
		</g>
		<g>
			<path fill="#FDED00" d="M137.8,322.9c-5.4-35.8-31.9-59.4-54.9-84.8c-10.1-11.1-19.6-22.7-28.5-34.8
				C43.7,188.9,30.8,177,18,164.5c-0.4-0.4,0.2-1.1,0.7-0.7c11.9,11.5,24.1,22.6,34.2,35.8c12.1,16,24.6,31.3,38.2,46
				c21.1,23,42.8,44.9,47.6,77.2C138.8,323.5,137.9,323.5,137.8,322.9L137.8,322.9z"/>
		</g>
		<g>
			<path fill="#FDED00" d="M18.6,165c16.3,13.6,30.6,29,44.1,45.4c13.1,16.1,26.9,31.1,40.7,46.6c11.8,13.2,18.3,27.7,25.4,43.6
				c5.8,12.9,9.2,25.3,2,38.3c-0.3,0.5-1.1,0.1-0.8-0.5c9.3-16.9-0.1-32.5-6.8-48.3c-7.5-17.5-18.6-30.9-31.7-44.6
				c-25.1-26.4-45.4-56.5-73.6-80C17.4,165.3,18.1,164.6,18.6,165L18.6,165z"/>
		</g>
		<g>
			<path fill="#FDED00" d="M36.2,151.8c8.2,5.9,17.4,11,27.1,14c0.6,0.2,0.4,1.1-0.2,0.9c-9.8-3-19-8.1-27.4-14.1
				C35.3,152.3,35.7,151.5,36.2,151.8L36.2,151.8z"/>
		</g>
		<g>
			<path fill="#FDED00" d="M136.7,303.8c-2.2-5-4.3-10-6.9-14.9c-0.3-0.5,0.5-1,0.8-0.5c2.6,4.9,4.8,10,7,15.1
				C137.9,304.1,136.9,304.4,136.7,303.8L136.7,303.8z"/>
		</g>
		<g>
			<path fill="#FDED00" d="M141.1,299.9c-2.6-6-7.1-10.7-11.1-15.7c-0.4-0.5,0.3-1.1,0.7-0.7c4.1,5.1,8.7,10,11.3,16.1
				C142.3,300.2,141.3,300.5,141.1,299.9L141.1,299.9z"/>
		</g>
		<g>
			<path fill="#FDED00" d="M142.7,298.6c-4.6-6.1-8.9-12.4-13.9-18.2c-0.4-0.5,0.3-1.1,0.7-0.7c5,5.9,9.4,12.3,14,18.4
				C143.9,298.6,143.1,299.1,142.7,298.6L142.7,298.6z"/>
		</g>
		<g>
			<path fill="#FDED00" d="M145.2,313.7c-0.9-2-1.9-3.8-2.4-6c-0.1-0.6,0.8-0.9,0.9-0.3c0.5,2,1.5,3.8,2.3,5.7
				C146.2,313.8,145.4,314.3,145.2,313.7L145.2,313.7z"/>
		</g>
		<g>
			<path fill="#FDED00" d="M147.1,314.3c-0.6-3-1.3-6-2.2-8.9c-0.2-0.6,0.7-0.8,0.9-0.3c0.9,2.9,1.6,5.9,2.3,8.9
				C148.2,314.7,147.3,314.9,147.1,314.3L147.1,314.3z"/>
		</g>
		<g>
			<path fill="#FDED00" d="M148.8,311.7c-0.6-2.7-1.5-5.3-2.8-7.9c-0.3-0.5,0.5-1,0.8-0.5c1.3,2.6,2.2,5.3,2.9,8.1
				C149.9,312.1,149,312.3,148.8,311.7L148.8,311.7z"/>
		</g>
		<g>
			<path fill="#FDED00" d="M151.9,310.1c-2-2.7-3.1-5.8-4.2-8.9c-0.2-0.6,0.7-0.8,0.9-0.3c1,3.1,2.1,6.1,4.1,8.7
				C153.1,310.1,152.2,310.6,151.9,310.1L151.9,310.1z"/>
		</g>
		<g>
			<path fill="#FDED00" d="M151.8,308.1c-0.8-3.8-2-7.5-3.8-11c-0.3-0.5,0.5-1,0.8-0.5c1.8,3.6,3,7.3,3.9,11.2
				C152.8,308.4,151.9,308.7,151.8,308.1L151.8,308.1z"/>
		</g>
		<g>
			<path fill="#FDED00" d="M153.6,303.8c-2-2-2.9-4.6-3.5-7.3c-0.1-0.6,0.8-0.9,0.9-0.3c0.6,2.6,1.4,5,3.3,6.9
				C154.7,303.6,154,304.3,153.6,303.8L153.6,303.8z"/>
		</g>
		<g>
			<path fill="#FDED00" d="M160,308c-2.8-5-3.5-10.8-6.3-15.8c-0.3-0.5,0.5-1,0.8-0.5c2.8,5,3.6,10.8,6.3,15.8
				C161.1,308,160.3,308.5,160,308L160,308z"/>
		</g>
		<g>
			<path fill="#FDED00" d="M158.2,301.3c-2-4.5-3.2-9.4-5.9-13.7c-0.3-0.5,0.5-1,0.8-0.5c2.7,4.3,3.8,9.1,5.9,13.7
				C159.3,301.3,158.5,301.8,158.2,301.3L158.2,301.3z"/>
		</g>
		<g>
			<path fill="#FDED00" d="M161.1,306.1c-1.3-6-2.9-11.9-5.9-17.3c-0.3-0.5,0.5-1,0.8-0.5c3.1,5.4,4.7,11.5,6,17.5
				C162.1,306.5,161.2,306.7,161.1,306.1L161.1,306.1z"/>
		</g>
		<g>
			<path fill="#FDED00" d="M161.9,301c-0.2-5.6-3.5-10.3-4.5-15.7c-0.1-0.6,0.8-0.9,0.9-0.3c0.9,5.5,4.2,10.3,4.5,16
				C162.9,301.6,161.9,301.6,161.9,301L161.9,301z"/>
		</g>
		<g>
			<path fill="#FDED00" d="M162.2,293.9c-0.6-3-1.6-5.9-2.9-8.6c-0.3-0.5,0.6-1,0.8-0.5c1.3,2.8,2.3,5.8,3,8.8
				C163.3,294.3,162.4,294.5,162.2,293.9L162.2,293.9z"/>
		</g>
		<g>
			<path fill="#FDED00" d="M163.1,290.8c-0.5-2.3-1.3-4.4-1.8-6.7c-0.1-0.6,0.8-0.9,0.9-0.3c0.5,2.3,1.3,4.4,1.8,6.7
				C164.1,291.1,163.2,291.4,163.1,290.8L163.1,290.8z"/>
		</g>
		<g>
			<path fill="#FDED00" d="M164.7,287.6c-0.6-1.1-0.9-2.3-1.5-3.4c-0.3-0.5,0.5-1,0.8-0.5c0.6,1.1,0.9,2.3,1.5,3.4
				C165.8,287.6,164.9,288.1,164.7,287.6L164.7,287.6z"/>
		</g>
		<g>
			<path fill="#FDED00" d="M166.9,285.9c-0.3-1.3-0.9-2.5-1.2-3.9c-0.1-0.6,0.8-0.9,0.9-0.3c0.3,1.3,0.9,2.5,1.2,3.9
				C167.9,286.2,167,286.5,166.9,285.9L166.9,285.9z"/>
		</g>
		<g>
			<path fill="#FDED00" d="M167.6,285.3c4.9,3.4,7.3,9.1,10.2,14.1c0.3,0.5-0.5,1-0.8,0.5c-2.8-4.8-5.2-10.5-9.9-13.8
				C166.6,285.8,167.1,285,167.6,285.3L167.6,285.3z"/>
		</g>
		<g>
			<path fill="#FDED00" d="M168.6,281.1c1.3,1.4,2.5,2.8,4.1,3.9c0.5,0.3,0,1.2-0.5,0.8c-1.7-1.1-3-2.6-4.3-4
				C167.5,281.3,168.2,280.6,168.6,281.1L168.6,281.1z"/>
		</g>
		<g>
			<path fill="#FDED00" d="M171,280.2c2,2.5,4.4,4.7,6.4,7.2c0.4,0.5-0.3,1.1-0.7,0.7c-2-2.5-4.4-4.7-6.4-7.2
				C170,280.4,170.7,279.7,171,280.2L171,280.2z"/>
		</g>
		<g>
			<path fill="#FDED00" d="M170.8,279.4c6.9,4.1,12.2,10.4,16.1,17.3c0.3,0.5-0.5,1-0.8,0.5c-3.8-6.8-9-13-15.8-17
				C169.8,279.9,170.3,279.1,170.8,279.4L170.8,279.4z"/>
		</g>
		<g>
			<path fill="#FDED00" d="M183.6,290.7c-3.2-4.4-7.5-7.9-11.4-11.7c-0.4-0.4,0.2-1.1,0.7-0.7c4,3.8,8.2,7.4,11.5,11.9
				C184.8,290.7,184,291.1,183.6,290.7L183.6,290.7z"/>
		</g>
		<g>
			<path fill="#FDED00" d="M180.3,285.5c-2.7-2.5-4.6-5.6-6.1-8.9c-0.2-0.6,0.6-1,0.8-0.5c1.4,3.3,3.2,6.3,5.9,8.7
				C181.4,285.2,180.8,285.9,180.3,285.5L180.3,285.5z"/>
		</g>
		<g>
			<path fill="#FDED00" d="M173.4,277.3c-0.6-0.5-0.7-1.2-0.9-1.9c-0.1-0.6,0.8-0.9,0.9-0.3c0.1,0.5,0.2,1.1,0.6,1.5
				C174.5,277,173.8,277.7,173.4,277.3L173.4,277.3z"/>
		</g>
		<g>
			<path fill="#FDED00" d="M173.2,276.8c0.2-0.6,1.1-0.4,0.9,0.2C174,277.6,173.1,277.4,173.2,276.8L173.2,276.8z"/>
		</g>
		<g>
			<path fill="#FDED00" d="M181.1,259c2.5,2.2,6,2.8,8.2,5.3c0.4,0.5-0.3,1.1-0.7,0.7c-2.2-2.5-5.7-3.2-8.2-5.4
				C180,259.3,180.7,258.6,181.1,259L181.1,259z"/>
		</g>
		<g>
			<path fill="#FDED00" d="M181.6,256.9c4.4,1.8,8.1,4.6,12.1,7.2c0.5,0.3,0,1.2-0.5,0.8c-3.9-2.6-7.5-5.4-11.9-7.1
				C180.8,257.6,181,256.7,181.6,256.9L181.6,256.9z"/>
		</g>
		<g>
			<path fill="#FDED00" d="M182,255.3c6.7,2.6,12.4,6.8,18.2,11.2c0.5,0.4,0,1.2-0.5,0.8c-5.6-4.3-11.3-8.5-17.9-11.1
				C181.2,256,181.4,255.1,182,255.3L182,255.3z"/>
		</g>
		<g>
			<path fill="#FDED00" d="M182.7,252.6c5.3,2.2,10.1,5.3,14.9,8.4c0.5,0.3,0,1.2-0.5,0.8c-4.8-3.1-9.6-6.2-14.9-8.4
				C181.6,253.2,182.1,252.4,182.7,252.6L182.7,252.6z"/>
		</g>
		<g>
			<path fill="#FDED00" d="M184,252.3c4.8,0.7,9.1,2.9,13.2,5.5c0.5,0.3,0,1.1-0.5,0.8c-4-2.6-8.2-4.7-13-5.4
				C183.1,253.1,183.4,252.2,184,252.3L184,252.3z"/>
		</g>
		<g>
			<path fill="#FDED00" d="M184.2,249.3c3.8,1.8,7.7,3.2,11.5,5c0.6,0.3,0.1,1.1-0.5,0.8c-3.8-1.8-7.7-3.2-11.5-5
				C183.2,249.9,183.7,249.1,184.2,249.3L184.2,249.3z"/>
		</g>
		<g>
			<path fill="#FDED00" d="M188.3,244.6c3.9,0.7,7.7,2,11.5,3.2c0.6,0.2,0.4,1.1-0.2,0.9c-3.8-1.2-7.6-2.4-11.5-3.2
				C187.5,245.4,187.7,244.5,188.3,244.6L188.3,244.6z"/>
		</g>
		<g>
			<path fill="#FDED00" d="M190.3,240.9c4.3,2.7,9.1,4.1,13.8,6c0.6,0.2,0.3,1.1-0.2,0.9c-4.8-1.9-9.7-3.3-14.1-6.1
				C189.3,241.4,189.8,240.6,190.3,240.9L190.3,240.9z"/>
		</g>
		<g>
			<path fill="#FDED00" d="M190.6,243c5.6,2,11,4.6,16.7,6.5c0.6,0.2,0.3,1.1-0.2,0.9c-5.7-1.9-11.1-4.5-16.7-6.5
				C189.8,243.7,190,242.8,190.6,243L190.6,243z"/>
		</g>
		<g>
			<path fill="#FDED00" d="M191.8,237.6c3.7,1.7,7.6,2.7,11.5,3.8c0.6,0.2,0.4,1.1-0.2,0.9c-4-1.2-8-2.2-11.8-3.9
				C190.8,238.2,191.3,237.4,191.8,237.6L191.8,237.6z"/>
		</g>
		<g>
			<path fill="#FDED00" d="M194,236c2.2,0.8,4.5,1.2,6.8,1.9c0.6,0.2,0.3,1.1-0.2,0.9c-2.2-0.7-4.6-1.1-6.8-1.9
				C193.2,236.7,193.4,235.8,194,236L194,236z"/>
		</g>
		<g>
			<path fill="#FDED00" d="M195.6,235.2c2.1,0.2,4.3,0.5,6.5,0.5c0.6,0,0.6,0.9,0,0.9c-2.2,0-4.3-0.3-6.5-0.5
				C195,236.1,195,235.2,195.6,235.2L195.6,235.2z"/>
		</g>
		<g>
			<path fill="#FDED00" d="M199.4,234c2.3,0.3,4.6,0.5,6.9,0.8c0.6,0.1,0.6,1,0,1c-2.3-0.3-4.6-0.5-6.9-0.8
				C198.8,234.9,198.8,234,199.4,234L199.4,234z"/>
		</g>
		<g>
			<path fill="#FDED00" d="M199.5,232.2c4.8,1.2,9.8,1.6,14.3,3.8c0.6,0.3,0.1,1.1-0.5,0.8c-4.5-2.1-9.4-2.5-14.1-3.7
				C198.7,233,198.9,232,199.5,232.2L199.5,232.2z"/>
		</g>
		<g>
			<path fill="#FDED00" d="M202.4,231.6c3.1,0.4,6.1,1.1,9.1,2.2c0.6,0.2,0.3,1.1-0.2,0.9c-2.9-1.1-5.9-1.8-9-2.2
				C201.5,232.4,201.8,231.5,202.4,231.6L202.4,231.6z"/>
		</g>
		<g>
			<path fill="#FDED00" d="M195.2,275c8.7,3.8,13.2-1.4,17-8.6c2.2-4.1,4.5-9.5,9.7-10.3c0.6-0.1,0.9,0.8,0.3,0.9
				c-6.6,1-9,10.6-12.4,15.4c-3.8,5.4-9.2,6-15,3.4C194.2,275.6,194.7,274.7,195.2,275L195.2,275z"/>
		</g>
		<g>
			<path fill="#FDED00" d="M218.5,258.4c9.6-4.4,18.9-8.9,27.2-15.4c0.5-0.4,1.2,0.3,0.7,0.7c-8.4,6.6-17.8,11.1-27.4,15.6
				C218.4,259.4,218,258.6,218.5,258.4L218.5,258.4z"/>
		</g>
		<g>
			<path fill="#FDED00" d="M247.7,243.7c-7.3-3.9-13.3,3.3-20.7,1.8c-4.7-0.9-7.7-4.7-11.5-7.3c-0.5-0.3,0-1.2,0.5-0.8
				c1.8,1.2,3.4,2.5,5.1,3.9c4.2,3.6,7.9,3.7,13.1,2.5c5.6-1.2,8.5-3.9,14-1C248.7,243.1,248.3,244,247.7,243.7L247.7,243.7z"/>
		</g>
		<g>
			<path fill="#FDED00" d="M216.9,236.1c3.1-5,1.9-10.9,5.3-15.9c3.5-5.2,8.9-8.9,12.8-13.7c0.4-0.5,1.1,0.2,0.7,0.7
				c-3.5,4.3-7.8,7.9-11.5,12c-4.8,5.4-2.9,11.8-6.5,17.5C217.4,237.1,216.6,236.6,216.9,236.1L216.9,236.1z"/>
		</g>
		<g>
			<path fill="#FDED00" d="M-13.2,121.5c7.7,2.7,12.5,9.7,18,15.4c0.4,0.4-0.2,1.1-0.7,0.7c-5.4-5.5-10.1-12.5-17.6-15.2
				C-14,122.3-13.8,121.3-13.2,121.5L-13.2,121.5z"/>
		</g>
		<g>
			<path fill="#FDED00" d="M-5.7,130.1c6.9,3.5,11.1,10.1,16.7,15.2c0.5,0.4-0.2,1.1-0.7,0.7c-5.5-5-9.7-11.6-16.6-15.1
				C-6.7,130.7-6.2,129.8-5.7,130.1L-5.7,130.1z"/>
		</g>
		<g>
			<path fill="#FDED00" d="M-1.4,130.4c6,4.6,10.7,10.6,16.4,15.6c0.5,0.4-0.2,1.1-0.7,0.7c-5.7-5-10.4-10.9-16.4-15.6
				C-2.6,130.7-1.9,130.1-1.4,130.4L-1.4,130.4z"/>
		</g>
		<g>
			<path fill="#FDED00" d="M8,138.4c4,2.6,8.1,5.3,12.1,7.9c0.5,0.3,0,1.2-0.5,0.8c-4-2.6-8.1-5.3-12.1-7.9
				C7,138.9,7.5,138.1,8,138.4L8,138.4z"/>
		</g>
		<g>
			<path fill="#FDED00" d="M12.6,140.8c3,1.4,5.8,3.1,8.8,4.5c0.6,0.2,0.1,1.1-0.5,0.8c-3-1.3-5.8-3.1-8.8-4.5
				C11.6,141.4,12.1,140.5,12.6,140.8L12.6,140.8z"/>
		</g>
		<g>
			<path fill="#FDED00" d="M11.7,145.3c1.8-0.3,3.6,0.3,5.1,1.3c0.5,0.3,0,1.1-0.5,0.8c-1.3-0.8-2.9-1.4-4.4-1.2
				C11.4,146.3,11.1,145.4,11.7,145.3L11.7,145.3z"/>
		</g>
		<g>
			<path fill="#FDED00" d="M-7,168.1c6,3.3,8.7,8.7,11.4,14.8c4,8.8,11.5,15.6,18.2,22.4c0.4,0.4-0.2,1.1-0.7,0.7
				c-5.1-5.2-10.3-10.3-14.6-16.2c-5.2-7.1-6.5-16.2-14.8-20.8C-8,168.6-7.5,167.8-7,168.1L-7,168.1z"/>
		</g>
		<g>
			<path fill="#FDED00" d="M23.8,207c-2,7-2.1,16.3-1.6,23.5c0.6,9.1,7,17.1,11.2,24.9c0.3,0.5-0.5,1-0.8,0.5
				c-3.9-7.3-9.7-14.6-11-23c-1.1-7.9-0.9-18.3,1.3-26.1C23,206.1,23.9,206.4,23.8,207L23.8,207z"/>
		</g>
		<g>
			<path fill="#FDED00" d="M34,254.7c-6.9,5.1-10,14.3-14.3,21.4c-5.3,8.7-6.6,18.8-7.2,28.8c0,0.6-1,0.6-0.9,0
				c0.7-10.4,2.4-19.9,7.3-29.2c3.9-7.5,7.7-16.6,14.7-21.7C34,253.5,34.4,254.3,34,254.7L34,254.7z"/>
		</g>
		<g>
			<path fill="#FDED00" d="M13.6,303.1c-18,8.8-29.6,21-32.4,41.3c-0.1,0.6-1,0.4-0.9-0.2c2.8-20.6,14.6-33,32.8-41.9
				C13.7,302,14.1,302.8,13.6,303.1L13.6,303.1z"/>
		</g>
		<g>
			<path fill="#FDED00" d="M-24,207.1c3,7.9,13.5,9.3,18.5,15.6C0.3,230,2,239.5,7.3,247.1c0.3,0.5-0.5,1-0.8,0.5
				c-6.5-9.3-7.9-22.1-17.7-28.7c-5.1-3.4-11.3-5.3-13.6-11.4C-25.1,206.8-24.2,206.5-24,207.1L-24,207.1z"/>
		</g>
		<g>
			<path fill="#FDED00" d="M6.8,243.3C7.2,251.3,3.1,259,9,266c0.4,0.5-0.3,1.1-0.7,0.7c-6.1-7.3-2-14.8-2.4-23.4
				C5.9,242.7,6.8,242.7,6.8,243.3L6.8,243.3z"/>
		</g>
		<g>
			<path fill="#FDED00" d="M7.3,265c2.3,4,3.5,8.8,6.7,12.3c0.4,0.5-0.3,1.1-0.7,0.7c-3.2-3.6-4.5-8.4-6.8-12.5
				C6.2,264.9,7,264.4,7.3,265L7.3,265z"/>
		</g>
		<g>
			<path fill="#FDED00" d="M11.4,271.9c1.6,2.9,2.2,6.3,4.8,8.6c0.5,0.4-0.2,1.1-0.7,0.7c-2.6-2.4-3.2-5.8-4.9-8.8
				C10.3,271.9,11.1,271.4,11.4,271.9L11.4,271.9z"/>
		</g>
		<g>
			<path fill="#FDED00" d="M-19.6,343.2c0.6-7.4,4.5-13.6,9.1-19.3c2.3-2.9,5.1-5.4,8.1-7.6c5.5-4,12.6-4.4,16.9-10.4
				c0.3-0.5,1.2,0,0.8,0.5c-3.7,5.2-9.7,6.9-15.2,9.6c-9.3,4.5-17.9,17-18.7,27.2C-18.7,343.8-19.7,343.8-19.6,343.2L-19.6,343.2z"
				/>
		</g>
		<g>
			<path fill="#FDED00" d="M12.8,309.5C6.7,288,18.4,268.4,32.2,252c0.4-0.5,1.1,0.2,0.7,0.7c-6.8,8.1-11.5,17.5-16.7,26.6
				c-5.7,10-5.6,19.2-2.5,30C13.9,309.9,13,310.1,12.8,309.5L12.8,309.5z"/>
		</g>
		<g>
			<path fill="#FDED00" d="M33.5,255.9c-20.4-7.6-16.3-34.5-10.2-50.8c0.2-0.6,1.1-0.3,0.9,0.2c-5.9,15.6-10.3,42.2,9.5,49.6
				C34.3,255.2,34,256.1,33.5,255.9L33.5,255.9z"/>
		</g>
		<g>
			<path fill="#FDED00" d="M24.2,206.7c-17.5-5.7-20.5-27-32.3-38.9c-0.4-0.4,0.2-1.1,0.7-0.7c11.6,11.7,14.7,33,31.9,38.6
				C25,206,24.8,206.9,24.2,206.7L24.2,206.7z"/>
		</g>
		<g>
			<path fill="#FDED00" d="M-9.1,217.3c1.5,2.1,6.1,0.3,8.1-0.2c2.2-0.6,4.3-1.2,6.5-1.4c0.6,0,0.6,0.9,0,0.9
				c-3.5,0.3-6.9,1.6-10.4,2.2c-1.8,0.3-3.9,0.4-5.1-1.1C-10.3,217.3-9.5,216.8-9.1,217.3L-9.1,217.3z"/>
		</g>
		<g>
			<path fill="#FDED00" d="M7,216c4.1,3.4,6.3,8.3,9.1,12.7c0.3,0.5-0.5,1-0.8,0.5c-2.8-4.3-4.9-9.2-8.9-12.6
				C5.8,216.3,6.5,215.6,7,216L7,216z"/>
		</g>
		<g>
			<path fill="#FDED00" d="M-1.3,229.7c7,5.9,19.3,0.2,22.6,11.1c0.2,0.6-0.7,0.8-0.9,0.3c-3.1-10.3-15.6-5-22.4-10.7
				C-2.5,230-1.8,229.3-1.3,229.7L-1.3,229.7z"/>
		</g>
		<g>
			<path fill="#FDED00" d="M6.4,241.5c6.5,6.6,16.5,6.5,20.9,15.5c0.3,0.5-0.5,1-0.8,0.5c-4.3-8.9-14.3-8.8-20.7-15.3
				C5.3,241.8,6,241.1,6.4,241.5L6.4,241.5z"/>
		</g>
		<g>
			<path fill="#FDED00" d="M10.6,249.2c4.7,5.3,1.4,12-3.6,15.7c-0.5,0.4-1-0.5-0.5-0.8c4.5-3.3,7.7-9.4,3.5-14.2
				C9.6,249.4,10.2,248.8,10.6,249.2L10.6,249.2z"/>
		</g>
		<g>
			<path fill="#FDED00" d="M9.8,260.4c4.5,1.4,8.7,3.8,9.6,8.8c0.1,0.6-0.8,0.9-0.9,0.3c-0.8-4.7-4.7-6.8-8.9-8.2
				C9,261.1,9.3,260.2,9.8,260.4L9.8,260.4z"/>
		</g>
		<g>
			<path fill="#FDED00" d="M13.1,259.7c4.6-2.7,9.7-1.3,13.4,2.2c0.4,0.4-0.2,1.1-0.7,0.7c-3.4-3.2-8-4.6-12.2-2.1
				C13,260.8,12.5,260,13.1,259.7L13.1,259.7z"/>
		</g>
		<g>
			<path fill="#FDED00" d="M11,260.1c5.7-1,8.8-4.5,10.6-9.8c0.2-0.6,1.1-0.3,0.9,0.2c-1.9,5.6-5.3,9.5-11.2,10.5
				C10.7,261.1,10.4,260.2,11,260.1L11,260.1z"/>
		</g>
		<g>
			<path fill="#FDED00" d="M-47,160.6c7.4,5.6,13.6,12.4,20.3,18.9c5.4,5.2,11.9,9.2,17.9,13.7c7.3,5.4,14.9,12.6,13.5,22.4
				c-0.1,0.6-1,0.4-0.9-0.2c2-13.3-13.5-21.8-22.6-28.2c-10.6-7.5-18.5-17.9-28.7-25.8C-48.1,160.9-47.4,160.2-47,160.6L-47,160.6z"
				/>
		</g>
		<g>
			<path fill="#FDED00" d="M-5.8,194.7c6,3.7,15,5.8,17.8,13c0.2,0.6-0.7,0.8-0.9,0.3c-2.7-6.8-11.7-8.9-17.4-12.4
				C-6.8,195.2-6.4,194.4-5.8,194.7L-5.8,194.7z"/>
		</g>
		<g>
			<path fill="#FDED00" d="M8.5,202.2c3.9,3,8.1,5,12.8,6.5c0.6,0.2,0.3,1.1-0.2,0.9c-4.9-1.5-9.2-3.6-13.2-6.7
				C7.4,202.5,8.1,201.9,8.5,202.2L8.5,202.2z"/>
		</g>
		<g>
			<path fill="#FDED00" d="M7.3,196.9c-7.4,0.9-14.2-1.4-19.6-6.5c-0.4-0.4,0.2-1.1,0.7-0.7c5.2,4.9,11.8,7.1,18.9,6.2
				C7.9,195.9,7.9,196.8,7.3,196.9L7.3,196.9z"/>
		</g>
		<g>
			<path fill="#FDED00" d="M-20.9,183.1c5.1,5.4,15.5,2.9,20.9-0.9c0.5-0.3,1,0.5,0.5,0.8c-5.8,4-16.6,6.5-22.1,0.7
				C-22,183.3-21.3,182.6-20.9,183.1L-20.9,183.1z"/>
		</g>
		<g>
			<path fill="#FDED00" d="M-42.7,189.8c11.8,7.6,18.2,20.3,29.7,28.3c3.2,2.2,7.7,4.7,9.9,8c4.1,6.2,5.8,13.2,9.4,19.7
				c0.3,0.5-0.5,1-0.8,0.5c-2.1-3.7-3.5-7.5-5-11.4c-3.3-8.7-9.6-12.4-16.5-17.7c-10.2-7.8-16.1-19.4-27-26.4
				C-43.7,190.3-43.2,189.5-42.7,189.8L-42.7,189.8z"/>
		</g>
		<g>
			<path fill="#FDED00" d="M-12.4,239.2c5.3,4.2,14,15.3,20.8,7.8c0.4-0.5,1.1,0.2,0.7,0.7c-7.3,8.1-16.4-3.3-22.1-7.8
				C-13.5,239.5-12.9,238.8-12.4,239.2L-12.4,239.2z"/>
		</g>
		<g>
			<path fill="#FDED00" d="M-6.1,275.9c3.1,2.7,5.4,6.1,7.3,9.8c0.3,0.5-0.5,1-0.8,0.5c-1.9-3.6-4.1-6.9-7.2-9.6
				C-7.2,276.2-6.6,275.5-6.1,275.9L-6.1,275.9z"/>
		</g>
		<g>
			<path fill="#FDED00" d="M-4.2,275.9c3.5,3.1,5.1,7.6,8.3,10.9c0.4,0.4-0.2,1.1-0.7,0.7c-3.2-3.4-4.8-7.9-8.3-10.9
				C-5.4,276.2-4.7,275.5-4.2,275.9L-4.2,275.9z"/>
		</g>
		<g>
			<path fill="#FDED00" d="M-5.8,274.9c16.2,5.3,9.6,20.2,4.7,31.9c-0.2,0.6-1.1,0.1-0.8-0.5c4.6-10.8,11.5-25.4-4.1-30.5
				C-6.6,275.7-6.3,274.7-5.8,274.9L-5.8,274.9z"/>
		</g>
		<g>
			<path fill="#FDED00" d="M5.1,291.3c1,4.4,3,8.5,6.5,11.5c0.5,0.4-0.2,1.1-0.7,0.7c-3.6-3.1-5.7-7.3-6.7-11.9
				C4,291,4.9,290.7,5.1,291.3L5.1,291.3z"/>
		</g>
		<g>
			<path fill="#FDED00" d="M-2.9,275.8c-1-8,4.6-12.2,9.1-17.9c0.4-0.5,1,0.2,0.7,0.7c-4.3,5.5-9.8,9.5-8.8,17.2
				C-1.9,276.4-2.8,276.4-2.9,275.8L-2.9,275.8z"/>
		</g>
		<g>
			<path fill="#FDED00" d="M-0.7,266.6c0.3-1.3-0.2-2.8-0.5-4.1c-0.4-1.7-1-3.5-1.8-5.1c-0.3-0.5,0.6-1,0.8-0.5
				c0.8,1.7,1.4,3.5,1.9,5.3c0.4,1.4,0.8,3.1,0.6,4.6C0.1,267.4-0.8,267.2-0.7,266.6L-0.7,266.6z"/>
		</g>
		<g>
			<path fill="#FDED00" d="M-1,262c2.1,0.7,4.3,0.5,6.2-0.6c0.5-0.3,1,0.5,0.5,0.8c-2.1,1.2-4.6,1.4-6.9,0.7
				C-1.8,262.7-1.6,261.8-1,262L-1,262z"/>
		</g>
		<g>
			<path fill="#FDED00" d="M5.5,259.6c0.1,6.1,4.3,12.7,8.1,17.3c0.4,0.5-0.3,1.1-0.7,0.7c-3.9-4.8-8.2-11.6-8.4-18
				C4.5,259,5.4,259,5.5,259.6L5.5,259.6z"/>
		</g>
		<g>
			<path fill="#FDED00" d="M11.2,274.5c-0.3,4.4-1,8.6,0.1,12.9c0.2,0.6-0.8,0.9-0.9,0.3c-1.1-4.4-0.5-8.7-0.2-13.2
				C10.3,273.9,11.3,273.9,11.2,274.5L11.2,274.5z"/>
		</g>
		<g>
			<path fill="#FDED00" d="M11.8,277.3c-0.2,4.3,0.5,8.6-0.3,12.9c-0.1,0.6-1,0.4-0.9-0.2c0.8-4.2,0.1-8.4,0.3-12.6
				C10.9,276.7,11.8,276.7,11.8,277.3L11.8,277.3z"/>
		</g>
		<g>
			<path fill="#FDED00" d="M14.1,279.6c-0.8,2.1-1.2,4.4-0.8,6.6c0.1,0.6-0.8,0.9-0.9,0.3c-0.5-2.5-0.1-4.8,0.8-7.1
				C13.4,278.8,14.3,279,14.1,279.6L14.1,279.6z"/>
		</g>
		<g>
			<path fill="#FDED00" d="M14.4,279.1c-0.9,7.1-0.7,14.2-1,21.4c0,0.6-1,0.6-0.9,0c0.3-7.2,0.1-14.4,1.1-21.6
				C13.6,278.3,14.5,278.5,14.4,279.1L14.4,279.1z"/>
		</g>
		<g>
			<path fill="#FDED00" d="M-12.1,238.7C-6,243.5,0.5,251.3,9,250.1c0.6-0.1,0.6,0.9,0,0.9c-8.8,1.3-15.5-6.7-21.8-11.6
				C-13.3,239-12.6,238.4-12.1,238.7L-12.1,238.7z"/>
		</g>
		<g>
			<path fill="#FDED00" d="M-47.7,68.7c15.5,8,34.5,4.3,51.1,3.2c0.6,0,0.6,0.9,0,0.9c-16.9,1.1-35.9,4.7-51.6-3.3
				C-48.7,69.3-48.2,68.4-47.7,68.7L-47.7,68.7z"/>
		</g>
		<g>
			<path fill="#FDED00" d="M-23.2,74c14-0.7,27.9-2.3,41.8-3c0.6,0,0.6,0.9,0,0.9c-14,0.7-27.9,2.3-41.8,3
				C-23.8,75-23.8,74.1-23.2,74L-23.2,74z"/>
		</g>
		<g>
			<path fill="#FDED00" d="M-22,67.9c18.5,5.3,38.1,3,56.9,6.8c0.6,0.1,0.4,1-0.2,0.9c-18.8-3.9-38.3-1.5-56.9-6.8
				C-22.9,68.7-22.6,67.8-22,67.9L-22,67.9z"/>
		</g>
		<g>
			<path fill="#FDED00" d="M19.4,71.5C27,74.4,35,75.9,43,77.1c0.6,0.1,0.4,1-0.2,0.9c-8-1.3-16-2.7-23.6-5.6
				C18.6,72.2,18.8,71.3,19.4,71.5L19.4,71.5z"/>
		</g>
	</g>
</g>
</svg>
