<?xml version="1.0" encoding="utf-8"?>
<!-- Generator: Adobe Illustrator 18.0.0, SVG Export Plug-In . SVG Version: 6.00 Build 0)  -->
<!DOCTYPE svg PUBLIC "-//W3C//DTD SVG 1.1//EN" "http://www.w3.org/Graphics/SVG/1.1/DTD/svg11.dtd">
<svg version="1.1" id="Capa_1" xmlns="http://www.w3.org/2000/svg" xmlns:xlink="http://www.w3.org/1999/xlink" x="0px" y="0px"
	 viewBox="0 0 214.5 726.3" enable-background="new 0 0 214.5 726.3" xml:space="preserve">
<g>
	<path fill="#FFFFFF" d="M213.4,0.2L107.2,60.7l0,0.2c0.2,0,0.3,0,0.5,0.1L213.4,0.8c0,0,0-0.1,0.1-0.1
		C213.5,0.5,213.5,0.4,213.4,0.2L213.4,0.2z"/>
</g>
<g>
	<path fill="#FFFFFF" d="M106.9,423.5c0,0,0,0.1-0.1,0.1l-0.1,120.9c0.1,0,0.2,0,0.3,0c0.1,0,0.2,0,0.2,0c0,0,0,0,0,0l0,0l0.1-120.7
		l0.2-0.1c0-0.1-0.1-0.2-0.1-0.3C107.3,423.4,107.1,423.4,106.9,423.5z"/>
</g>
<g>
	<path fill="#FFFFFF" d="M213.2,605.1l-106-60.7l-0.1-0.1L0.9,604.9L0.8,726c0.2,0,0.3,0,0.5,0c0,0,0-0.1,0-0.1l0,0l0.1-120.7
		l105.7-60.3l105.6,60.4l-0.1,120.7l0,0c0,0.1,0.1,0.1,0.1,0.2c0.1,0,0.2,0,0.4,0l0.1-121L213.2,605.1
		C213.2,605.1,213.2,605.1,213.2,605.1z"/>
</g>
<g>
	<path fill="#FFFFFF" d="M1.8,0.1L1.8,0.1C1.7,0.2,1.7,0.4,1.6,0.6L107.2,61l-0.1,120.7L1.4,242l0,0c0,0-0.1,0-0.1,0.1
		c-0.1,0.1-0.1,0.2-0.2,0.4l0.1,0.1l0.1,0.1l106.1-60.5l0.1-0.1l0.1-121.1v-0.1L1.8,0.1z"/>
</g>
<g>
	<path fill="#FFFFFF" d="M213.5,242.3l-106-60.7l-0.1-0.1l-0.3,0.2c0.1,0.1,0.2,0.3,0.3,0.4L213,242.5l-0.1,120.7l-105.7,60.3
		L1.6,363l0-0.7c-0.2,0-0.3,0.1-0.5,0.1l0,0.8v0.1L107,424l0.1,0.1l106.2-60.5l0.1-121.1L213.5,242.3
		C213.5,242.3,213.5,242.3,213.5,242.3z"/>
</g>
</svg>
