<svg xmlns="http://www.w3.org/2000/svg" viewBox="0 0 214.5 726.3"><path fill="#FFF" d="M213.4.2L107.2 60.7v.2c.2 0 .3 0 .5.1L213.4.8s0-.1.1-.1c0-.2 0-.3-.1-.5zM106.9 423.5s0 .1-.1.1l-.1 120.9h.5l.1-120.7.2-.1c0-.1-.1-.2-.1-.3-.1 0-.3 0-.5.1z"/><path fill="#FFF" d="M213.2 605.1l-106-60.7-.1-.1L.9 604.9.8 726h.5v-.1l.1-120.7 105.7-60.3 105.6 60.4-.1 120.7c0 .1.1.1.1.2h.4l.1-121v-.1zM1.8.1c-.1.1-.1.3-.2.5L107.2 61l-.1 120.7L1.4 242s-.1 0-.1.1c-.1.1-.1.2-.2.4l.1.1.1.1 106.1-60.5.1-.1.1-121.1v-.1L1.8.1z"/><path fill="#FFF" d="M213.5 242.3l-106-60.7-.1-.1-.3.2c.1.1.2.3.3.4L213 242.5l-.1 120.7-105.7 60.3L1.6 363v-.7c-.2 0-.3.1-.5.1v.9L107 424l.1.1 106.2-60.5.1-121.1.1-.2z"/></svg>