<svg version="1" xmlns="http://www.w3.org/2000/svg" viewBox="0 0 501.1 399"><g fill="#2119FF"><g fill-rule="evenodd" clip-rule="evenodd"><path d="M457.7 282.8c-25.3-26.3-101.8-7.5-134.7-3.7-51.2 5.8-103.6 18.8-150.1 39.5-9.9 15.3 33.4 4.2 37.8 3.5 38.3-9.9 75.4-12.8 114.2-17.9-.3 0 55.5-7.8 56.9-2.8 1.2 4.3-66.6 32.2-41.3 32.3 30.9.2 87.3-24.1 87.3-24.1s39.6-16.8 29.9-26.8c-.5-.5.7.7 0 0zM193.9 244.4c1.2-6.7 2-12.7 2.2-17.9-.2-1.7-1-4.8-.2-6.3-1.5-16.5-12.2-23.2-40-19.5-.1-.1-.1-.3-.2-.4 6.4-7.8 46.6-66.1 10.3-69.1-29.9-2.5-76.8-11.8-100.5 13.1-1 1.1-.8 2.1.6 2.5 1.6.2 3.1 0 4.5-.6.6 2.5 2.1 3.8 4.4 4 6.2-3.8 25.1-7.1 32-3.6-13.9 2-34.9 61.5-48.6 103.1.2.7-.1 1.2-.5 1.6-5.3 16-9.4 29.1-11.5 34.9-2.9 7.8-10 46.9-5.9 66.1 1.6 1.1 3.3 2.1 5.2 2.7 5.8 1.9 12.8.1 16.8-4.6 3.4-3.9 5-9.1 6.1-14.1 1.2-5.5 1.8-11.1 2.6-16.7 1.2-7.5 3.1-14.8 5.3-22 2.3-7.8 4.4-15.7 6.3-23.6 1.6-6.8 3.3-13.5 6.4-19.8.1-.3.3-.5.4-.7.3-1.4.6-2.9 1-4.2.4-2 .9-4 1.5-6 .7-2.5 1.8-4.5 3.2-6.2.6-1.3 1.5-2.5 2.8-3.5.3.2.7.3 1 .3.7-.4 1.4-.8 2.2-1.1 5.4-2.4 10.9-4.6 16.4-6.8 5.5-2.2 11.2-4.1 16.8-6 1-1.1 2.2-2 3.7-2.7.1-.1.3-.2.6-.3-.2.7-.4 1.3-.8 1.8 4.2-1.5 8.4-3 12.6-4.7 5.3-2.2 12.9-5.8 19.1-4.5 15.2-9.4-6.8 61-14.4 57.2.3.2.7.3 1.3.6-14 14.6-37 17.4-57.1 16.2-3.4 4.8-6.2 10.2-8.1 15.6-1.9 5.5-3.8 12.5-.3 17.8.3.4.5.7.8 1.1l4.2-.3c-.5.7-1.4 1.4-2.1 2.3 2.2 1.7 4.9 2.6 7.8 3 14.7-3.8 43.9-20 49.3-23.7 14.6-10.1 27.4-24.1 37.3-38.6 2.7-5.3 4.3-10.8 5.5-16.4zM50.7 354.3c-1.8.1-2.9-1-3.3-3.3 3.1-1.9 3.2 1.8 3.5 3.3-.1.1-.1.1-.2 0zm27.7-132.7c-.1.1-.5 0-.6-.1-.4-.7.1-1.1.8-1.5.5.8.4 1.2-.2 1.6zm5.9-18c.5-3.2 2.1-6 3.2-9-.6 3.2-1.8 6.1-3.2 9zm4-10.2c.4-2.2 2.2-9.4 4.1-11-.7.6-.1-.5 0 0-.1-.5-.1-1.1.8-1.1-2.3 2.8-3.7 10-4.9 12.1zm13.4-61.5c1.7-1.7 3.9-2.2 6.7-1.4 0 .1 0 .3.1.4-2.1.4-4.3.7-6.8 1zm3.7 75.6c-.1 0-.3-.1-.4-.1.1 0 .3-1.7.1-.3 2.2-15.6 5.8-31.4 7-47v-.1c-.2-.7-.3-1.4-.5-2-.4-.6-.6-1.2-.7-2.1-.1-1.2-.4-2.3-.5-3.5v-.8h-.1c.1-.1.1-.3.2-.4.1-.2.1-.4.2-.6.3-.8.4-1.7.5-2.5-.5.1-1 .3-1.5.4-.3-1.2.5-1.9 1.4-2.7.1.8.2 1.6.2 2.3 1-.3 2.1-.6 3.2-.9l.9-.3c11.1-3.1 27.9-7.3 42.8-.3 10.1 4.6-49 56-52.8 60.9zm-7.4 113c-.2.1-.4.2-.6.1 1.9-2.9 2.7-3.1 6-1.4-1.7.7-3.5 1.1-5.4 1.3zm5.2-35.8c0-.2 0-.3-.1-.5l1.5-.3c-.3.9-.7 1.4-1.4.8zm48.8 7.1c.4-.4.6-.6 1-.9.2.9-.1 1.1-1 .9zm7.2 0c-.1-.1-.2-.2-.2-.3.5-.5.9-1.2 1.6-1.4.1-.1.3-.1.6-.1-.6.7-1.3 1.2-2 1.8zm15.4-15.4c.3-2.9 1.8-5.1 4.4-6.8.2-.2.6-.5 1.4-.8-.6 1.6-4.6 6.7-5.8 7.6zm13.4-21.7c-1.4 4.2-3.4 8.1-5.9 11.8-2.3-3.3 3.2-9.3 5.9-11.8z"/><path d="M196.1 227.6c0 .2 0 .4.1.5 1.2-1.3 1.4-4.3.7-6.6.1.7-.9-.5-.4-.9-.3.2-.4.4-.6.7.2 2 .3 4.1.2 6.3zM390.4 189.6c-1.1 1.7-1.7-.1-2.8-1.6-2.6-7.7 4.5-13.5 6.1-14.4 22.7-12.8 40.7-9.6 40.7-9.6s-4.6 40.9-24.5 63.8c-23.8 27.5-84.4 39.7-65.9-16.9 11.4-34.9 18.5-101.8 61.6-113.1 17.1-4.5 39.3 3.5 42.1 21.4 4.6 28.7-31.9 35.9-32.4 34.7 1.1-6.3 4.8-20.1 2.3-23.9-4.6-7.2-16.8-.7-23.4 7.2-15.4 18.5-27.2 66.8-29.3 71.7-9.5 21.8 34.4 23.8 46.3-24.5l-20.8 5.2zM43.3 340.2c-.5.4-1.1.5-1.5-.1-.7-1-1.3-2.1-2-3.2 1-.6 1.8-.1 2.6.1.2.1.3.4.4.7.2.8.3 1.6.5 2.5zM339 118.5c-10.2-15.1-32.4-14.8-43.6-7.3-17.2 11.6-22.7 32.5-22.7 32.5-.6 1.3-8.9 28.1-9.2 34.9-.2 3.7-2.1 21 2.4 29.2 7 12.7 18.6 13.8 20.8 14 16.4 1.3 36.1-15.3 41.6-26 7.2-14 8.3-19 9.5-22.5.9-2.9 2-6.8 2.7-9.7.9-4 2.3-12.4 3-16.4 2.6-14.6-.4-22.7-4.5-28.7zm-17.2 29.7c-1.4 11.9-2.9 21.4-8.7 31.9-1.2 2.2-8.1 20.2-18.5 20.1-1.3 0-6.1-.7-7.8-2.4-3.9-3.8-3.4-10.1-3-15 .6-7.1 2.1-14.1 4.1-20.9 2-7 4.3-14.2 7.9-20.6 1.8-3.3 6.3-13.1 15.4-12.3 7 .6 11.9 7.3 10.6 19.2z"/><path d="M325 228.6c-1.4-1.1-1.6-12.1-4.6-11.4-9.5 2.2-18.9 5.3-28.3 7.8-20.6 5.6-60 16.6-60 16.6s7.2-34.2 10.1-51.6c2.6-16 17-59.2 13.4-79.1-2.5-13.6-24.4-.7-34.8 7.4-3.8 55.3-17.3 110.2-22.7 165.4.2.1-.8 10.1-.9 11.3 11.1-4.7 120.4-36.9 120.4-42.3 6.3-5.7 7.6-16 7.5-24l-.1-.1c-1-.8 0 0 0 0zM346.4 243c.2.3.3.4.3.6 0 .1-.2.3-.3.3-.2-.1-.4-.2-.4-.3-.1-.2.2-.3.4-.6zM359.5 244.9c-2.9-.3-5.4-1.3-7.4-3.7.8-.5 1.4-.2 2 .1.7.3 1.5.7 2.2.7 1.9.2 2.5 1.6 3.2 2.9z"/><path d="M211.9 285.3c-.4.2-.9.4-1.3.6-1.7.7-3.5 1.4-5.2 2.1-.2.1-.4.2-.6.2-.5.2-1.1.5-1.5-.2-.3-.7-.2-1.5.4-1.8.9-.4 2-1 2.9-.8 1.7.3 3.3.1 4.8-.5.1-.1.3 0 .5.1v.3zM316.9 248.7c.5 2 .3 2.4-1.1 2.9-1.2.4-2.4.6-3.6.8-.3 0-.6-.2-1.2-.3 1.8-1.7 3.7-2.6 5.9-3.4zM319.2 239.5c0 .6.1 1.3 0 1.9 0 .3-.4.6-.6.6-.3 0-.8-.2-1-.5-.1-.2 0-.7.1-.9.3-.5.7-.9 1.1-1.3.1.2.2.2.4.2z"/></g><path d="M80.1 36.6c-2 1.2-3.9 2.8-4.8 4.9-1 2.1-.9 4.5 0 6.5.9 2.1 2.4 3.8 4.2 5.1 1.8 1.3 4 1.9 6.1 1.8 1-.1 2-.4 2.8-.9.7-.5 1.3-1.3 1.6-2.1.3-.9.3-1.6-.1-2.4-.4-.8-.9-1.2-1.6-1.5-.7-.2-1.7-.2-2.6 0-1 .2-2 .5-3 1-2 .9-3.9 2-5.8 3.3-1.9 1.3-3.6 2.7-5.2 4.3-1.6 1.6-3.1 3.3-4.4 5.1-1.3 1.8-2.4 3.7-3 5.7-.2.5-.3 1-.4 1.4l-.1.9-.1.7c-.1 1-.1 2.1 0 3.1.2 2.1.9 4.1 2 5.5.3.4.6.7 1 1 .2.2.4.3.5.4l.1.1s.1.1 0 0l.1.1.4.2c.7.4 1.7.8 2.6.9 1.9.3 4 .1 6.2-.5 2.1-.6 4.2-1.4 6.3-2.4l1.5 3.7c-5.3 2-10.5 4.1-14.6 7.4-1 .8-2 1.7-2.8 2.7l-.6.7-.2.2-.1.1-.3.4c-.3.5-.6 1-.9 1.6-1.1 2.2-1.8 4.8-1.7 7.3 0 2.5.8 4.9 2.3 6.6 1.5 1.7 3.7 2.7 6.3 3.1 5.2.8 10.7.1 15.8-1.7 5.1-1.8 9.8-4.7 13.9-8.4 4.1-3.6 7.4-8 10.2-12.8 2.7-4.8 4.8-10 6.4-15.3 1.6-5.3 2.7-10.8 3.5-16.4.8-5.6 1.4-11.2 1.4-16.7 0-1.4 0-2.7-.2-4-.1-.7-.2-1.3-.3-1.9-.1-.6-.3-1.1-.5-1.4l-.1-.1s.1 0 .1.1h.2-.1c-.1 0-.3.1-.7.4-.6.6-1.3 1.7-1.8 2.9-1 2.4-1.7 5.1-2.3 7.8-.6 2.7-1 5.5-1.4 8.3-.8 5.6-1.3 11.2-1.5 16.8-.1 2.8-.2 5.6-.2 8.4 0 2.8.2 5.5.7 8.1.6 2.6 1.3 5.1 2.5 7.4 1.3 2.2 3.1 4.2 5.3 5.5 2.2 1.3 4.8 2 7.3 1.6 2.6-.4 4.9-1.9 6.6-4 1.8-2.1 3-4.6 4-7.2 1-2.6 1.7-5.4 2.3-8.2-.3 2.8-.8 5.7-1.5 8.4-.8 2.8-1.8 5.5-3.6 7.9-.9 1.2-1.9 2.3-3.2 3.2-.6.5-1.3.8-2 1.2-.7.3-1.5.6-2.2.8-3.1.8-6.4.2-9.2-1.2-2.8-1.4-5.2-3.5-7-6.2-1.8-2.6-2.9-5.6-3.4-8.5-.5-3-.7-5.9-.8-8.9 0-2.9 0-5.8.2-8.6.3-5.7.8-11.5 1.6-17.2.4-2.8.9-5.7 1.5-8.6.6-2.9 1.3-5.7 2.5-8.6.6-1.4 1.3-2.9 2.8-4.2.7-.7 1.8-1.3 3.1-1.4h.4c.2 0 .4 0 .6.1.4.1.8.3 1.1.5.7.4 1 .9 1.3 1.4.6.9.8 1.8 1 2.6.2.8.3 1.6.4 2.3.2 1.5.2 3 .2 4.5 0 5.9-.7 11.6-1.5 17.3-.8 5.7-1.9 11.4-3.6 17-1.7 5.6-3.8 11-6.7 16.1-2.9 5.1-6.5 9.9-11 13.8-4.4 3.9-9.6 7.1-15.2 9.2-2.8 1-5.8 1.7-8.7 2-1.5.2-3 .2-4.5.2s-3-.1-4.5-.4c-1.5-.3-3.1-.7-4.6-1.4-.4-.2-.7-.4-1.1-.6l-.5-.3-.6-.4c-.7-.5-1.3-1.1-1.9-1.7-2.3-2.6-3.2-6-3.3-9.2-.1-3.2.7-6.4 2.2-9.2.4-.7.8-1.4 1.3-2.1l.3-.4.1-.1.1-.1.2-.2.7-.9c1-1.2 2.2-2.2 3.4-3.2 4.8-3.8 10.4-5.9 15.7-8 1-.4 2.2.1 2.6 1.1.4 1-.1 2.1-1.1 2.6-2.2 1-4.5 1.9-6.9 2.6-2.4.6-5.1 1.1-7.9.6-1.4-.2-2.7-.7-4-1.5l-.4-.2-.1-.1-.1.2-.2-.2c-.3-.2-.6-.4-.8-.7-.5-.5-1-1-1.5-1.6-1.8-2.3-2.6-5-2.8-7.6-.1-1.3-.1-2.6 0-3.9l.1-1 .1-.9c.1-.7.3-1.3.5-2 .8-2.5 2.1-4.8 3.6-6.8 2.9-4.1 6.6-7.4 10.6-10.3 2-1.4 4.2-2.7 6.6-3.6 1.2-.4 2.5-.8 3.9-.9 1.4-.2 2.9-.1 4.4.5 3.2 1.3 4.4 5.3 3 8-.6 1.4-1.6 2.5-2.9 3.2-1.2.7-2.6 1-4 .9-2.7-.1-5.2-1.1-7.1-2.7-1.9-1.6-3.5-3.6-4.3-6-.8-2.3-.7-5.1.5-7.2 1.2-2.1 3.2-3.5 5.3-4.6zM148.8 57s.4-.5 1.2-1.1c.8-.6 1.9-1.2 3-1.7s2.4-.8 3.3-.9c1-.1 1.7 0 1.7 0s-.4.5-1.2 1.1c-.8.6-1.9 1.2-3 1.7-1.2.5-2.4.8-3.3.9-1 .1-1.7 0-1.7 0zM149.6 70.2s.8 0 1.9.2c1.1.2 2.6.7 3.9 1.3 1.4.6 2.7 1.4 3.6 2.1.9.7 1.5 1.3 1.5 1.3s-.8 0-1.9-.2c-1.1-.2-2.6-.7-3.9-1.3-1.4-.6-2.7-1.4-3.6-2.1-.9-.7-1.5-1.3-1.5-1.3zM144.4 46.7v-.4c0-.2.1-.5.1-.9.1-.7.4-1.6.7-2.4.3-.8.7-1.6 1.1-2.2.4-.6.8-1 .8-1s.3.5.4 1.3c.1.8 0 1.8-.4 2.7-.4.9-1 1.7-1.6 2.2-.5.6-1.1.7-1.1.7zM46.6 62.8s-.8-.3-1.9-1c-1.1-.6-2.5-1.6-3.7-2.6-1.3-1-2.5-2.1-3.4-3-.9-.9-1.4-1.6-1.4-1.6s.9.2 2.1.7c1.2.5 2.7 1.3 4 2.4 1.3 1 2.5 2.3 3.3 3.3.6 1 1 1.8 1 1.8zM34.8 78.8s.6-.5 1.6-1.1c1-.6 2.2-1.2 3.5-1.8 1.3-.6 2.7-1.1 3.7-1.4 1.1-.3 1.9-.4 1.9-.4s-.4.7-1.3 1.4c-.8.8-2.1 1.6-3.5 2.2-1.4.6-2.9 1-4 1.1-1.1.1-1.9 0-1.9 0zM38.8 97.3s0-.8.4-1.8c.3-1.1.8-2.4 1.5-3.6.7-1.2 1.5-2.4 2.3-3.2.7-.8 1.4-1.3 1.4-1.3s0 .8-.4 1.8c-.3 1.1-.8 2.4-1.5 3.6-.7 1.2-1.5 2.4-2.3 3.2-.8.8-1.4 1.3-1.4 1.3z"/></g></svg>