<?xml version="1.0" encoding="utf-8"?>
<!-- Generator: Adobe Illustrator 18.1.1, SVG Export Plug-In . SVG Version: 6.00 Build 0)  -->
<svg version="1.0" id="Capa_1" xmlns="http://www.w3.org/2000/svg" xmlns:xlink="http://www.w3.org/1999/xlink" x="0px" y="0px"
	 viewBox="0 0 501.1 399" enable-background="new 0 0 501.1 399" xml:space="preserve">
<g>
	<g>
		<path fill-rule="evenodd" clip-rule="evenodd" fill="#2119FF" d="M457.7,282.8c-25.3-26.3-101.8-7.5-134.7-3.7
			c-51.2,5.8-103.6,18.8-150.1,39.5c-9.9,15.3,33.4,4.2,37.8,3.5c38.3-9.9,75.4-12.8,114.2-17.9c-0.3,0,55.5-7.8,56.9-2.8
			c1.2,4.3-66.6,32.2-41.3,32.3c30.9,0.2,87.3-24.1,87.3-24.1S467.4,292.8,457.7,282.8C457.2,282.3,458.4,283.5,457.7,282.8z"/>
		<path fill-rule="evenodd" clip-rule="evenodd" fill="#2119FF" d="M193.9,244.4C193.9,244.4,193.9,244.4,193.9,244.4
			c1.2-6.7,2-12.7,2.2-17.9c-0.2-1.7-1-4.8-0.2-6.3c-1.5-16.5-12.2-23.2-40-19.5c-0.1-0.1-0.1-0.3-0.2-0.4
			c6.4-7.8,46.6-66.1,10.3-69.1c-29.9-2.5-76.8-11.8-100.5,13.1c-1,1.1-0.8,2.1,0.6,2.5c1.6,0.2,3.1,0,4.5-0.6
			c0.6,2.5,2.1,3.8,4.4,4c6.2-3.8,25.1-7.1,32-3.6c-13.9,2-34.9,61.5-48.6,103.1c0,0,0,0,0,0c0.2,0.7-0.1,1.2-0.5,1.6
			c-5.3,16-9.4,29.1-11.5,34.9c-2.9,7.8-10,46.9-5.9,66.1c1.6,1.1,3.3,2.1,5.2,2.7c5.8,1.9,12.8,0.1,16.8-4.6
			c3.4-3.9,5-9.1,6.1-14.1c1.2-5.5,1.8-11.1,2.6-16.7c1.2-7.5,3.1-14.8,5.3-22c2.3-7.8,4.4-15.7,6.3-23.6c1.6-6.8,3.3-13.5,6.4-19.8
			c0.1-0.3,0.3-0.5,0.4-0.7c0.3-1.4,0.6-2.9,1-4.2c0.4-2,0.9-4,1.5-6c0.7-2.5,1.8-4.5,3.2-6.2c0.6-1.3,1.5-2.5,2.8-3.5
			c0.3,0.2,0.7,0.3,1,0.3c0.7-0.4,1.4-0.8,2.2-1.1c5.4-2.4,10.9-4.6,16.4-6.8c5.5-2.2,11.2-4.1,16.8-6c1-1.1,2.2-2,3.7-2.7
			c0.1-0.1,0.3-0.2,0.6-0.3c-0.2,0.7-0.4,1.3-0.8,1.8c4.2-1.5,8.4-3,12.6-4.7c5.3-2.2,12.9-5.8,19.1-4.5c15.2-9.4-6.8,61-14.4,57.2
			c0.3,0.2,0.7,0.3,1.3,0.6c-14,14.6-37,17.4-57.1,16.2c-3.4,4.8-6.2,10.2-8.1,15.6c-1.9,5.5-3.8,12.5-0.3,17.8
			c0.3,0.4,0.5,0.7,0.8,1.1c1.4-0.1,2.8-0.2,4.2-0.3c-0.5,0.7-1.4,1.4-2.1,2.3c2.2,1.7,4.9,2.6,7.8,3c14.7-3.8,43.9-20,49.3-23.7
			c14.6-10.1,27.4-24.1,37.3-38.6C191.1,255.5,192.7,250,193.9,244.4z M50.7,354.3c-1.8,0.1-2.9-1-3.3-3.3c3.1-1.9,3.2,1.8,3.5,3.3
			C50.8,354.4,50.8,354.4,50.7,354.3z M78.4,221.6c-0.1,0.1-0.5,0-0.6-0.1c-0.4-0.7,0.1-1.1,0.8-1.5C79.1,220.8,79,221.2,78.4,221.6
			z M84.3,203.6c0.5-3.2,2.1-6,3.2-9C86.9,197.8,85.7,200.7,84.3,203.6z M88.3,193.4c0.4-2.2,2.2-9.4,4.1-11c-0.7,0.6-0.1-0.5,0,0
			c-0.1-0.5-0.1-1.1,0.8-1.1C90.9,184.1,89.5,191.3,88.3,193.4z M101.7,131.9c1.7-1.7,3.9-2.2,6.7-1.4c0,0.1,0,0.3,0.1,0.4
			C106.4,131.3,104.2,131.6,101.7,131.9z M105.4,207.5c-0.1,0-0.3-0.1-0.4-0.1c0.1,0,0.3-1.7,0.1-0.3c2.2-15.6,5.8-31.4,7-47
			c0,0,0-0.1,0-0.1c-0.2-0.7-0.3-1.4-0.5-2c-0.4-0.6-0.6-1.2-0.7-2.1c-0.1-1.2-0.4-2.3-0.5-3.5c0-0.3,0-0.6,0-0.8c0,0-0.1,0-0.1,0
			c0.1-0.1,0.1-0.3,0.2-0.4c0.1-0.2,0.1-0.4,0.2-0.6c0.3-0.8,0.4-1.7,0.5-2.5c-0.5,0.1-1,0.3-1.5,0.4c-0.3-1.2,0.5-1.9,1.4-2.7
			c0.1,0.8,0.2,1.6,0.2,2.3c1-0.3,2.1-0.6,3.2-0.9c0.3-0.1,0.6-0.2,0.9-0.3c11.1-3.1,27.9-7.3,42.8-0.3
			C168.3,151.2,109.2,202.6,105.4,207.5z M98,320.5c-0.2,0.1-0.4,0.2-0.6,0.1c1.9-2.9,2.7-3.1,6-1.4
			C101.7,319.9,99.9,320.3,98,320.5z M103.2,284.7c0-0.2,0-0.3-0.1-0.5c0.5-0.1,1-0.2,1.5-0.3C104.3,284.8,103.9,285.3,103.2,284.7z
			 M152,291.8c0.4-0.4,0.6-0.6,1-0.9C153.2,291.8,152.9,292,152,291.8z M159.2,291.8c-0.1-0.1-0.2-0.2-0.2-0.3
			c0.5-0.5,0.9-1.2,1.6-1.4c0.1-0.1,0.3-0.1,0.6-0.1C160.6,290.7,159.9,291.2,159.2,291.8z M174.6,276.4c0.3-2.9,1.8-5.1,4.4-6.8
			c0.2-0.2,0.6-0.5,1.4-0.8C179.8,270.4,175.8,275.5,174.6,276.4z M188,254.7c-1.4,4.2-3.4,8.1-5.9,11.8
			C179.8,263.2,185.3,257.2,188,254.7z"/>
		<path fill-rule="evenodd" clip-rule="evenodd" fill="#2119FF" d="M196.1,227.6c0,0.2,0,0.4,0.1,0.5c1.2-1.3,1.4-4.3,0.7-6.6
			c0.1,0.7-0.9-0.5-0.4-0.9c-0.3,0.2-0.4,0.4-0.6,0.7C196.1,223.3,196.2,225.4,196.1,227.6z"/>
		<path fill-rule="evenodd" clip-rule="evenodd" fill="#2119FF" d="M390.4,189.6c-1.1,1.7-1.7-0.1-2.8-1.6
			c-2.6-7.7,4.5-13.5,6.1-14.4c22.7-12.8,40.7-9.6,40.7-9.6s-4.6,40.9-24.5,63.8c-23.8,27.5-84.4,39.7-65.9-16.9
			c11.4-34.9,18.5-101.8,61.6-113.1c17.1-4.5,39.3,3.5,42.1,21.4c4.6,28.7-31.9,35.9-32.4,34.7c1.1-6.3,4.8-20.1,2.3-23.9
			c-4.6-7.2-16.8-0.7-23.4,7.2c-15.4,18.5-27.2,66.8-29.3,71.7c-9.5,21.8,34.4,23.8,46.3-24.5L390.4,189.6z"/>
		<path fill-rule="evenodd" clip-rule="evenodd" fill="#2119FF" d="M43.3,340.2c-0.5,0.4-1.1,0.5-1.5-0.1c-0.7-1-1.3-2.1-2-3.2
			c1-0.6,1.8-0.1,2.6,0.1c0.2,0.1,0.3,0.4,0.4,0.7C43,338.5,43.1,339.3,43.3,340.2z"/>
		<path fill-rule="evenodd" clip-rule="evenodd" fill="#2119FF" d="M339,118.5c-10.2-15.1-32.4-14.8-43.6-7.3
			c-17.2,11.6-22.7,32.5-22.7,32.5c-0.6,1.3-8.9,28.1-9.2,34.9c-0.2,3.7-2.1,21,2.4,29.2c7,12.7,18.6,13.8,20.8,14
			c16.4,1.3,36.1-15.3,41.6-26c7.2-14,8.3-19,9.5-22.5c0.9-2.9,2-6.8,2.7-9.7c0.9-4,2.3-12.4,3-16.4
			C346.1,132.6,343.1,124.5,339,118.5z M321.8,148.2c-1.4,11.9-2.9,21.4-8.7,31.9c-1.2,2.2-8.1,20.2-18.5,20.1
			c-1.3,0-6.1-0.7-7.8-2.4c-3.9-3.8-3.4-10.1-3-15c0.6-7.1,2.1-14.1,4.1-20.9c2-7,4.3-14.2,7.9-20.6c1.8-3.3,6.3-13.1,15.4-12.3
			C318.2,129.6,323.1,136.3,321.8,148.2z"/>
		<path fill-rule="evenodd" clip-rule="evenodd" fill="#2119FF" d="M325,228.6c-1.4-1.1-1.6-12.1-4.6-11.4
			c-9.5,2.2-18.9,5.3-28.3,7.8c-20.6,5.6-60,16.6-60,16.6s7.2-34.2,10.1-51.6c2.6-16,17-59.2,13.4-79.1c-2.5-13.6-24.4-0.7-34.8,7.4
			c-3.8,55.3-17.3,110.2-22.7,165.4c0.2,0.1-0.8,10.1-0.9,11.3c11.1-4.7,120.4-36.9,120.4-42.3v0c6.3-5.7,7.6-16,7.5-24
			C325.1,228.7,325,228.6,325,228.6C324,227.8,325,228.6,325,228.6z"/>
		<path fill-rule="evenodd" clip-rule="evenodd" fill="#2119FF" d="M346.4,243c0.2,0.3,0.3,0.4,0.3,0.6c0,0.1-0.2,0.3-0.3,0.3
			c-0.2-0.1-0.4-0.2-0.4-0.3C345.9,243.4,346.2,243.3,346.4,243z"/>
		<path fill-rule="evenodd" clip-rule="evenodd" fill="#2119FF" d="M359.5,244.9c-2.9-0.3-5.4-1.3-7.4-3.7c0.8-0.5,1.4-0.2,2,0.1
			c0.7,0.3,1.5,0.7,2.2,0.7C358.2,242.2,358.8,243.6,359.5,244.9z"/>
		<g>
			<path fill-rule="evenodd" clip-rule="evenodd" fill="#2119FF" d="M211.9,285.3c-0.4,0.2-0.9,0.4-1.3,0.6
				c-1.7,0.7-3.5,1.4-5.2,2.1c-0.2,0.1-0.4,0.2-0.6,0.2c-0.5,0.2-1.1,0.5-1.5-0.2c-0.3-0.7-0.2-1.5,0.4-1.8c0.9-0.4,2-1,2.9-0.8
				c1.7,0.3,3.3,0.1,4.8-0.5c0.1-0.1,0.3,0,0.5,0.1C211.9,285.1,211.9,285.2,211.9,285.3z"/>
			<path fill-rule="evenodd" clip-rule="evenodd" fill="#2119FF" d="M316.9,248.7c0.5,2,0.3,2.4-1.1,2.9c-1.2,0.4-2.4,0.6-3.6,0.8
				c-0.3,0-0.6-0.2-1.2-0.3C312.8,250.4,314.7,249.5,316.9,248.7z"/>
			<path fill-rule="evenodd" clip-rule="evenodd" fill="#2119FF" d="M319.2,239.5c0,0.6,0.1,1.3,0,1.9c0,0.3-0.4,0.6-0.6,0.6
				c-0.3,0-0.8-0.2-1-0.5c-0.1-0.2,0-0.7,0.1-0.9c0.3-0.5,0.7-0.9,1.1-1.3C318.9,239.5,319,239.5,319.2,239.5z"/>
		</g>
	</g>
	<g>
		<path fill="#2119FF" d="M80.1,36.6c-2,1.2-3.9,2.8-4.8,4.9c-1,2.1-0.9,4.5,0,6.5c0.9,2.1,2.4,3.8,4.2,5.1c1.8,1.3,4,1.9,6.1,1.8
			c1-0.1,2-0.4,2.8-0.9c0.7-0.5,1.3-1.3,1.6-2.1c0.3-0.9,0.3-1.6-0.1-2.4c-0.4-0.8-0.9-1.2-1.6-1.5c-0.7-0.2-1.7-0.2-2.6,0
			c-1,0.2-2,0.5-3,1c-2,0.9-3.9,2-5.8,3.3c-1.9,1.3-3.6,2.7-5.2,4.3c-1.6,1.6-3.1,3.3-4.4,5.1c-1.3,1.8-2.4,3.7-3,5.7
			c-0.2,0.5-0.3,1-0.4,1.4l-0.1,0.9l-0.1,0.7c-0.1,1-0.1,2.1,0,3.1c0.2,2.1,0.9,4.1,2,5.5c0.3,0.4,0.6,0.7,1,1
			c0.2,0.2,0.4,0.3,0.5,0.4l0.1,0.1c0,0,0.1,0.1,0,0l0.1,0.1l0.4,0.2c0.7,0.4,1.7,0.8,2.6,0.9c1.9,0.3,4,0.1,6.2-0.5
			c2.1-0.6,4.2-1.4,6.3-2.4l1.5,3.7c-5.3,2-10.5,4.1-14.6,7.4c-1,0.8-2,1.7-2.8,2.7l-0.6,0.7l-0.2,0.2l0,0c0,0,0,0,0,0l-0.1,0.1
			l-0.3,0.4c-0.3,0.5-0.6,1-0.9,1.6c-1.1,2.2-1.8,4.8-1.7,7.3c0,2.5,0.8,4.9,2.3,6.6c1.5,1.7,3.7,2.7,6.3,3.1
			c5.2,0.8,10.7,0.1,15.8-1.7c5.1-1.8,9.8-4.7,13.9-8.4c4.1-3.6,7.4-8,10.2-12.8c2.7-4.8,4.8-10,6.4-15.3c1.6-5.3,2.7-10.8,3.5-16.4
			c0.8-5.6,1.4-11.2,1.4-16.7c0-1.4,0-2.7-0.2-4c-0.1-0.7-0.2-1.3-0.3-1.9c-0.1-0.6-0.3-1.1-0.5-1.4c-0.1-0.1-0.2-0.2-0.1-0.1
			c0,0,0.1,0,0.1,0.1c0,0,0.1,0,0.1,0c0,0,0,0,0.1,0l-0.1,0c-0.1,0-0.3,0.1-0.7,0.4c-0.6,0.6-1.3,1.7-1.8,2.9
			c-1,2.4-1.7,5.1-2.3,7.8c-0.6,2.7-1,5.5-1.4,8.3c-0.8,5.6-1.3,11.2-1.5,16.8c-0.1,2.8-0.2,5.6-0.2,8.4c0,2.8,0.2,5.5,0.7,8.1
			c0.6,2.6,1.3,5.1,2.5,7.4c1.3,2.2,3.1,4.2,5.3,5.5c2.2,1.3,4.8,2,7.3,1.6c2.6-0.4,4.9-1.9,6.6-4c1.8-2.1,3-4.6,4-7.2
			c1-2.6,1.7-5.4,2.3-8.2c-0.3,2.8-0.8,5.7-1.5,8.4c-0.8,2.8-1.8,5.5-3.6,7.9c-0.9,1.2-1.9,2.3-3.2,3.2c-0.6,0.5-1.3,0.8-2,1.2
			c-0.7,0.3-1.5,0.6-2.2,0.8c-3.1,0.8-6.4,0.2-9.2-1.2c-2.8-1.4-5.2-3.5-7-6.2c-1.8-2.6-2.9-5.6-3.4-8.5c-0.5-3-0.7-5.9-0.8-8.9
			c0-2.9,0-5.8,0.2-8.6c0.3-5.7,0.8-11.5,1.6-17.2c0.4-2.8,0.9-5.7,1.5-8.6c0.6-2.9,1.3-5.7,2.5-8.6c0.6-1.4,1.3-2.9,2.8-4.2
			c0.7-0.7,1.8-1.3,3.1-1.4l0.1,0c0.2,0,0.2,0,0.3,0c0.2,0,0.4,0,0.6,0.1c0.4,0.1,0.8,0.3,1.1,0.5c0.7,0.4,1,0.9,1.3,1.4
			c0.6,0.9,0.8,1.8,1,2.6c0.2,0.8,0.3,1.6,0.4,2.3c0.2,1.5,0.2,3,0.2,4.5c0,5.9-0.7,11.6-1.5,17.3c-0.8,5.7-1.9,11.4-3.6,17
			c-1.7,5.6-3.8,11-6.7,16.1c-2.9,5.1-6.5,9.9-11,13.8c-4.4,3.9-9.6,7.1-15.2,9.2c-2.8,1-5.8,1.7-8.7,2c-1.5,0.2-3,0.2-4.5,0.2
			c-1.5,0-3-0.1-4.5-0.4c-1.5-0.3-3.1-0.7-4.6-1.4c-0.4-0.2-0.7-0.4-1.1-0.6l-0.5-0.3l-0.6-0.4c-0.7-0.5-1.3-1.1-1.9-1.7
			c-2.3-2.6-3.2-6-3.3-9.2c-0.1-3.2,0.7-6.4,2.2-9.2c0.4-0.7,0.8-1.4,1.3-2.1l0.3-0.4l0.1-0.1l0.1-0.1l0.2-0.2l0.7-0.9
			c1-1.2,2.2-2.2,3.4-3.2c4.8-3.8,10.4-5.9,15.7-8c1-0.4,2.2,0.1,2.6,1.1c0.4,1-0.1,2.1-1.1,2.6c-2.2,1-4.5,1.9-6.9,2.6
			c-2.4,0.6-5.1,1.1-7.9,0.6c-1.4-0.2-2.7-0.7-4-1.5l-0.4-0.2l-0.1-0.1L65.1,84l-0.2-0.2c-0.3-0.2-0.6-0.4-0.8-0.7
			c-0.5-0.5-1-1-1.5-1.6c-1.8-2.3-2.6-5-2.8-7.6c-0.1-1.3-0.1-2.6,0-3.9l0.1-1l0.1-0.9c0.1-0.7,0.3-1.3,0.5-2
			c0.8-2.5,2.1-4.8,3.6-6.8c2.9-4.1,6.6-7.4,10.6-10.3c2-1.4,4.2-2.7,6.6-3.6c1.2-0.4,2.5-0.8,3.9-0.9c1.4-0.2,2.9-0.1,4.4,0.5
			c3.2,1.3,4.4,5.3,3,8c-0.6,1.4-1.6,2.5-2.9,3.2c-1.2,0.7-2.6,1-4,0.9c-2.7-0.1-5.2-1.1-7.1-2.7c-1.9-1.6-3.5-3.6-4.3-6
			c-0.8-2.3-0.7-5.1,0.5-7.2C76,39.1,78,37.7,80.1,36.6z"/>
		<path fill="#2119FF" d="M148.8,57c0,0,0.4-0.5,1.2-1.1c0.8-0.6,1.9-1.2,3-1.7c1.1-0.5,2.4-0.8,3.3-0.9c1-0.1,1.7,0,1.7,0
			s-0.4,0.5-1.2,1.1c-0.8,0.6-1.9,1.2-3,1.7c-1.2,0.5-2.4,0.8-3.3,0.9C149.5,57.1,148.8,57,148.8,57z"/>
		<path fill="#2119FF" d="M149.6,70.2c0,0,0.8,0,1.9,0.2c1.1,0.2,2.6,0.7,3.9,1.3c1.4,0.6,2.7,1.4,3.6,2.1c0.9,0.7,1.5,1.3,1.5,1.3
			s-0.8,0-1.9-0.2c-1.1-0.2-2.6-0.7-3.9-1.3c-1.4-0.6-2.7-1.4-3.6-2.1C150.2,70.8,149.6,70.2,149.6,70.2z"/>
		<path fill="#2119FF" d="M144.4,46.7c0,0,0-0.1,0-0.4c0-0.2,0.1-0.5,0.1-0.9c0.1-0.7,0.4-1.6,0.7-2.4c0.3-0.8,0.7-1.6,1.1-2.2
			c0.4-0.6,0.8-1,0.8-1s0.3,0.5,0.4,1.3c0.1,0.8,0,1.8-0.4,2.7c-0.4,0.9-1,1.7-1.6,2.2C145,46.6,144.4,46.7,144.4,46.7z"/>
		<path fill="#2119FF" d="M46.6,62.8c0,0-0.8-0.3-1.9-1c-1.1-0.6-2.5-1.6-3.7-2.6c-1.3-1-2.5-2.1-3.4-3c-0.9-0.9-1.4-1.6-1.4-1.6
			s0.9,0.2,2.1,0.7c1.2,0.5,2.7,1.3,4,2.4c1.3,1,2.5,2.3,3.3,3.3C46.2,62,46.6,62.8,46.6,62.8z"/>
		<path fill="#2119FF" d="M34.8,78.8c0,0,0.6-0.5,1.6-1.1c1-0.6,2.2-1.2,3.5-1.8c1.3-0.6,2.7-1.1,3.7-1.4c1.1-0.3,1.9-0.4,1.9-0.4
			s-0.4,0.7-1.3,1.4c-0.8,0.8-2.1,1.6-3.5,2.2c-1.4,0.6-2.9,1-4,1.1C35.6,78.9,34.8,78.8,34.8,78.8z"/>
		<path fill="#2119FF" d="M38.8,97.3c0,0,0-0.8,0.4-1.8c0.3-1.1,0.8-2.4,1.5-3.6c0.7-1.2,1.5-2.4,2.3-3.2c0.7-0.8,1.4-1.3,1.4-1.3
			s0,0.8-0.4,1.8c-0.3,1.1-0.8,2.4-1.5,3.6c-0.7,1.2-1.5,2.4-2.3,3.2C39.4,96.8,38.8,97.3,38.8,97.3z"/>
	</g>
</g>
</svg>
