<svg id="Capa_1" data-name="Capa 1" xmlns="http://www.w3.org/2000/svg" viewBox="0 0 619.11 396.34"><defs><style>.cls-1{opacity:0.84;}.cls-2{fill:none;stroke:#ffe1ad;stroke-miterlimit:10;stroke-width:3px;}.cls-3{opacity:0.51;}.cls-4{fill:#ffe1ad;}</style></defs><title>Mesa de trabajo 123</title><g class="cls-1"><path class="cls-2" d="M602.18,229.31h15.29c0,14.56-.05,29,0,43.49s.1,29.08.16,44.12c-3.39,0-8.05.25-12.66-.16-1.28-.12-2.91-2-3.49-3.45-5.87-14.37-11.55-28.82-17.3-43.24a14.41,14.41,0,0,0-2.27-4c-.13,16.9-.84,33.71,0,50.65H567.08c.15-29.08.17-58.09,0-87.63a126.08,126.08,0,0,1,12.67.18c1.24.12,2.74,2.21,3.35,3.71,5.8,14.24,11.42,28.54,17.11,42.81.55,1.39,1.17,2.75,2,4.66Z"/><path class="cls-2" d="M287.33,229.29h15.31c0,14.65-.08,29.14,0,43.64s.21,29.07.33,44c-3.62,0-8.31.25-12.95-.17-1.26-.12-2.82-2.09-3.41-3.55-6.05-14.81-11.93-29.69-17.86-44.54-.35-.86-.76-1.7-1.31-2.93v50.86H251.12c2.49-14.37.9-28.94,1.13-43.44s-.12-29.08-.22-44a124.86,124.86,0,0,1,12.5.17c1.31.12,3,2,3.56,3.42,5.87,14.37,11.55,28.82,17.3,43.24.54,1.36,1.16,2.68,1.94,4.5Z"/><path class="cls-2" d="M314.56,316.92V229.15c11.79,0,24-.1,36.22.07,3,0,8.46,6.47,8.47,9.53q0,34.15,0,68.3c0,3.53-5.81,9.81-9.21,9.83C338.12,317,326.2,316.92,314.56,316.92Zm30.06-43.83V252.37c0-9,0-8.75-9-9-4.64-.13-6,1.54-5.89,6,.23,14.29.05,28.58.09,42.86,0,10.67-1.38,9.67,9.87,9.85,3.7,0,5-1.35,5-5C344.51,289.11,344.62,281.1,344.62,273.09Z"/><path class="cls-2" d="M555.36,272.84c0,11.15,0,22.29,0,33.44,0,5.12-5.63,10.62-10.78,10.64-7.07,0-14.14-.16-21.19.08-3.26.11-5.46-1-7.83-3.17-3-2.79-4.1-5.75-4.06-9.83.18-21.19.08-42.38.08-63.57a11.55,11.55,0,0,1,11.5-11.31c7.22,0,14.44,0,21.66,0,5.31,0,10.61,5.39,10.62,10.76C555.38,250.87,555.36,261.86,555.36,272.84ZM526,273.1v20.25c0,8.91,0,8.67,9,8.93,4.71.14,5.9-1.64,5.83-6-.22-14.28-.08-28.56-.08-42.84,0-10.15,1.16-9.49-9.69-9.63-3.95,0-5.19,1.53-5.09,5.34C526.13,257.09,526,265.1,526,273.1Z"/><path class="cls-2" d="M195,229.32h15.14c0,23.08-.06,46.05.15,69,0,1.29,2.22,2.56,3.43,3.83.08.08.3,0,.46,0,12.82,0,10.8.87,10.85-10.23q.1-23.07,0-46.15c0-5.42-.5-10.85-.77-16.44h15.34V246.8q0,29.43,0,58.86c0,5.76-5.45,11.25-11.13,11.26q-10.83,0-21.66,0c-5.49,0-11-5.4-11-10.85,0-19.94,0-39.87-.05-59.81C195.71,240.68,195.24,235.1,195,229.32Z"/><path class="cls-2" d="M423.66,316.76H407.55c-1.26-5.64-1.45-11.39-3.85-16-2.73-5.26-8.79-1.88-13.33-2.35-1.46-.15-4.13,1.46-4.53,2.79-1.51,5-2.32,10.17-3.44,15.55H366.87c6.94-28.82,14.41-57.45,20-87.21h16.75c.29,13.13,4.87,25.49,7.55,38.2,2.77,13.18,6,26.26,9.21,39.36C421.17,310.24,422.47,313.26,423.66,316.76Zm-28.17-59.87-1-.16c-1.64,8-3.35,16-4.79,24.11-.13.73,1.32,2.23,2.3,2.54,1.43.45,3.09.1,4.65.17,3.08.13,4.2-1,3.45-4.23C398.41,271.88,397,264.37,395.49,256.89Z"/><path class="cls-2" d="M66.63,316.82H51.16Q56.34,295,61.52,273.26C64.2,262,67,250.71,69.46,239.4c.68-3.1.62-6.36.93-10h17c.68,4.44,1.06,8.7,2,12.84Q97,275,104.75,307.73a92.63,92.63,0,0,0,3.11,9H91.54c-1.07-5.22-2.11-10.29-3.16-15.36a2,2,0,0,0-.31-.88c-4.1-4.5-9.42-1.57-14.14-2-1.31-.12-3.65,2.2-4.15,3.82C68.39,306.81,67.71,311.56,66.63,316.82Zm13-60.1-1,.13c-1.48,7.45-2.78,14.95-4.53,22.35-.87,3.67.56,4.52,3.72,4.35,1.09-.06,2.18,0,3.28,0,2.84.09,4-1,3.28-4C82.68,272,81.21,264.33,79.65,256.72Z"/><path class="cls-2" d="M473.16,256.44H456.64c.44-3.11,1.29-6.15,1.11-9.12-.08-1.35-2.2-2.58-3.41-3.84-.08-.08-.31,0-.46,0C443,242.77,443,242.77,443,253.8c0,14.44.08,28.89,0,43.33,0,3.66,1.29,4.95,5,5,11.05.08,11.64-.56,8.63-11.36a5.71,5.71,0,0,1,0-1.23H473.3c-.31,4.74-.79,9.23-.85,13.72-.13,9.45-4.34,13.69-13.92,13.69-6.28,0-12.56,0-18.84,0-5.44,0-11.06-5.48-11.06-10.82q0-33.21,0-66.41c0-4.92,5.48-10.53,10.33-10.56q11.54-.07,23.08,0c4.92,0,10.23,5.54,10.38,10.54C472.59,245.1,472.89,250.53,473.16,256.44Z"/><path class="cls-2" d="M142.23,229.13c13.07,0,26.71,0,40.35.1a3.72,3.72,0,0,1,2.74,2.24c.93,4.26,1.46,8.6,2,12-8.52,0-16.87.08-25.21,0-3.37,0-4.95,1.13-4.82,4.64.16,4.24.21,8.49,0,12.72-.2,3.82,1.58,5.16,5.07,4.81,3.07-.31,6.13-.73,9.48-1.14V281.3c-3.45-.36-6.94-1.08-10.39-.9-1.42.07-3.9,2-3.92,3.18-.18,10.92.06,21.85.18,33.05H142.56c.14-8.7.36-17.41.4-26.11q.1-21.67,0-43.35C142.9,241.28,142.49,235.39,142.23,229.13Z"/><path class="cls-2" d="M1.61,229.31H16.94v38.52c0,9.88,0,19.76,0,29.65,0,2.66.4,4.71,3.7,4.7,8.58,0,17.15,0,26.25,0L44.56,316.7H1.71c.28-5.47.75-10.73.78-16q.13-28.93,0-57.89C2.46,238.48,1.93,234.16,1.61,229.31Z"/><path class="cls-2" d="M484.43,229.32h15.26c-.28,29.13-.38,58.12.09,87.36H484.41c.25-6,.69-11.85.72-17.74q.15-25.89,0-51.77C485.1,241.29,484.68,235.4,484.43,229.32Z"/><path class="cls-2" d="M522.9,216.71c5.87-7.69,5.89-19.35,17.08-23.9l7.71,8.57c-6.42,5.71-12.57,11.39-19,16.69-1.08.89-3.53.12-5.34.12Z"/></g><g class="cls-3"><path class="cls-4" d="M158.71,200.4a40.83,40.83,0,0,1-2.43-9.48,64.29,64.29,0,0,1-.66-9.48,65.7,65.7,0,0,1,.67-9.48,41.35,41.35,0,0,1,2.42-9.47,42.41,42.41,0,0,1,2.42,9.47,67.14,67.14,0,0,1,.66,9.48,64.29,64.29,0,0,1-.66,9.48A41.3,41.3,0,0,1,158.71,200.4Z"/><path class="cls-4" d="M139.75,181.44a41.33,41.33,0,0,1,9.48-2.43,65.67,65.67,0,0,1,9.48-.65,67,67,0,0,1,9.47.66,42.35,42.35,0,0,1,9.48,2.42,41.3,41.3,0,0,1-9.48,2.42,65.56,65.56,0,0,1-9.47.67,67.14,67.14,0,0,1-9.48-.66A40.83,40.83,0,0,1,139.75,181.44Z"/><path class="cls-4" d="M234.16,125a40.83,40.83,0,0,1-2.43-9.48,67.9,67.9,0,0,1,0-19A41.35,41.35,0,0,1,234.16,87a42.41,42.41,0,0,1,2.42,9.47,67.14,67.14,0,0,1,.66,9.48,64.29,64.29,0,0,1-.66,9.48A41.3,41.3,0,0,1,234.16,125Z"/><path class="cls-4" d="M215.2,106a41.33,41.33,0,0,1,9.48-2.43,65.67,65.67,0,0,1,9.48-.65,67.1,67.1,0,0,1,9.47.66,42.35,42.35,0,0,1,9.48,2.42,41.3,41.3,0,0,1-9.48,2.42,65.66,65.66,0,0,1-9.47.67,67.14,67.14,0,0,1-9.48-.66A40.83,40.83,0,0,1,215.2,106Z"/><path class="cls-4" d="M309.61,49.5A40.83,40.83,0,0,1,307.18,40a65.68,65.68,0,0,1-.66-9.48,65.7,65.7,0,0,1,.67-9.48,41.35,41.35,0,0,1,2.42-9.47A42.41,42.41,0,0,1,312,21.06a67.14,67.14,0,0,1,.66,9.48A64.29,64.29,0,0,1,312,40,41.3,41.3,0,0,1,309.61,49.5Z"/><path class="cls-4" d="M290.65,30.54a41.33,41.33,0,0,1,9.48-2.43,65.67,65.67,0,0,1,9.48-.65,67.1,67.1,0,0,1,9.47.66,42.35,42.35,0,0,1,9.48,2.42A41.3,41.3,0,0,1,319.08,33a65.66,65.66,0,0,1-9.47.67,67.14,67.14,0,0,1-9.48-.66A40.83,40.83,0,0,1,290.65,30.54Z"/><path class="cls-4" d="M309.61,379.69a40.75,40.75,0,0,1-2.43-9.47,64.29,64.29,0,0,1-.66-9.48,65.7,65.7,0,0,1,.67-9.48,41.3,41.3,0,0,1,2.42-9.48,42.35,42.35,0,0,1,2.42,9.48,67.14,67.14,0,0,1,.66,9.48,64.29,64.29,0,0,1-.66,9.48A41.22,41.22,0,0,1,309.61,379.69Z"/><path class="cls-4" d="M290.65,360.74a40.83,40.83,0,0,1,9.48-2.43,67.83,67.83,0,0,1,18.95,0,41.3,41.3,0,0,1,9.48,2.42,41.3,41.3,0,0,1-9.48,2.42,68.64,68.64,0,0,1-9.47.67,67.14,67.14,0,0,1-9.48-.66A41.33,41.33,0,0,1,290.65,360.74Z"/><path class="cls-4" d="M385.06,125a40.83,40.83,0,0,1-2.43-9.48,67.9,67.9,0,0,1,0-19A41.35,41.35,0,0,1,385.06,87a42.41,42.41,0,0,1,2.42,9.47,67.14,67.14,0,0,1,.66,9.48,64.29,64.29,0,0,1-.66,9.48A41.3,41.3,0,0,1,385.06,125Z"/><path class="cls-4" d="M366.1,106a41.33,41.33,0,0,1,9.48-2.43,65.67,65.67,0,0,1,9.48-.65,67.1,67.1,0,0,1,9.47.66A42.35,42.35,0,0,1,404,106a41.3,41.3,0,0,1-9.48,2.42,65.66,65.66,0,0,1-9.47.67,67.14,67.14,0,0,1-9.48-.66A40.83,40.83,0,0,1,366.1,106Z"/><path class="cls-4" d="M309.61,200.4a40.83,40.83,0,0,1-2.43-9.48,67.83,67.83,0,0,1,0-18.95,41.3,41.3,0,0,1,2.42-9.48A42.35,42.35,0,0,1,312,172a66.9,66.9,0,0,1,.66,9.47,64.29,64.29,0,0,1-.66,9.48A41.3,41.3,0,0,1,309.61,200.4Z"/><path class="cls-4" d="M290.65,181.44a41.33,41.33,0,0,1,9.48-2.43,65.67,65.67,0,0,1,9.48-.65,67.1,67.1,0,0,1,9.47.66,42.35,42.35,0,0,1,9.48,2.42,41.3,41.3,0,0,1-9.48,2.42,65.66,65.66,0,0,1-9.47.67,67.14,67.14,0,0,1-9.48-.66A40.83,40.83,0,0,1,290.65,181.44Z"/><path class="cls-4" d="M460.51,200.4a40.83,40.83,0,0,1-2.43-9.48,67.83,67.83,0,0,1,0-18.95,41.3,41.3,0,0,1,2.42-9.48,42.35,42.35,0,0,1,2.42,9.48,66.9,66.9,0,0,1,.66,9.47,64.29,64.29,0,0,1-.66,9.48A41.3,41.3,0,0,1,460.51,200.4Z"/><path class="cls-4" d="M441.55,181.44A41.33,41.33,0,0,1,451,179a65.67,65.67,0,0,1,9.48-.65A67.1,67.1,0,0,1,470,179a42.35,42.35,0,0,1,9.48,2.42,41.3,41.3,0,0,1-9.48,2.42,65.66,65.66,0,0,1-9.47.67,67.14,67.14,0,0,1-9.48-.66A40.83,40.83,0,0,1,441.55,181.44Z"/></g></svg>