<?xml version="1.0" standalone="no"?>
<!DOCTYPE svg PUBLIC "-//W3C//DTD SVG 20010904//EN"
 "http://www.w3.org/TR/2001/REC-SVG-20010904/DTD/svg10.dtd">
<svg version="1.0" xmlns="http://www.w3.org/2000/svg"
 width="792.000000pt" height="792.000000pt" viewBox="0 0 792.000000 792.000000"
 preserveAspectRatio="xMidYMid meet">
<metadata>
Created by potrace 1.11, written by Peter Selinger 2001-2013
</metadata>
<g transform="translate(0.000000,792.000000) scale(0.100000,-0.100000)"
fill="#000000" stroke="none">
<path d="M4556 5692 l-45 -25 -27 22 c-15 11 -36 21 -47 21 -18 0 -18 -2 7
-25 14 -13 26 -30 26 -37 -1 -7 -7 -2 -15 12 -13 23 -14 23 -15 4 0 -11 11
-31 25 -44 27 -25 33 -44 13 -37 -7 2 -18 -3 -25 -12 -11 -14 -12 -14 -13 5 0
11 6 26 13 33 10 11 8 12 -9 3 -37 -19 -73 -89 -39 -76 11 5 13 2 9 -10 -3 -9
-11 -13 -17 -9 -7 4 -8 -2 -3 -18 18 -54 18 -89 2 -114 -16 -25 -16 -25 18
-25 35 0 56 -20 56 -52 -1 -7 -7 -2 -14 12 -18 31 -62 37 -71 10 -8 -24 7 -52
41 -79 37 -29 108 -28 178 3 46 20 54 28 49 45 -4 17 -2 20 13 15 26 -8 -41
52 -87 78 -50 28 -63 72 -35 113 42 60 71 82 122 90 88 14 93 14 88 0 -3 -7
13 -37 35 -66 23 -30 41 -64 41 -76 0 -12 3 -29 7 -39 4 -12 3 -15 -5 -10 -8
5 -12 0 -12 -13 0 -12 -4 -21 -10 -21 -5 0 -10 9 -10 19 0 11 -4 23 -10 26 -5
3 -10 13 -10 22 0 8 -7 30 -16 49 -38 80 -179 81 -199 2 -4 -16 -2 -30 7 -37
15 -13 94 -72 116 -86 47 -31 60 -48 53 -68 -4 -11 -18 -24 -30 -28 -17 -7
-24 -4 -31 14 -7 18 -9 19 -9 4 -1 -11 -10 -26 -22 -36 -18 -14 -19 -20 -8
-46 7 -17 13 -36 13 -44 1 -8 8 -15 18 -16 9 -2 24 -8 35 -14 17 -10 17 -10
-2 -11 -11 0 -27 4 -35 10 -15 9 -70 -16 -70 -33 0 -4 -12 -19 -26 -32 -23
-21 -37 -25 -98 -26 -62 -1 -66 -2 -31 -9 21 -4 41 -13 43 -19 2 -6 18 -9 40
-6 111 13 136 15 122 5 -8 -5 -41 -10 -72 -10 -31 0 -60 -4 -63 -10 -3 -5 -15
-10 -26 -10 -11 0 -17 5 -14 10 8 13 -12 11 -55 -5 -33 -13 -30 -13 45 -8 44
2 107 6 139 8 46 2 64 7 77 23 19 25 33 18 18 -9 -14 -27 -7 -24 27 12 l29 31
-25 -6 c-22 -6 -23 -5 -7 5 34 21 38 -5 6 -44 -17 -20 -26 -37 -20 -37 19 0
12 -27 -11 -43 -13 -9 -18 -16 -13 -16 6 -1 23 10 39 24 37 32 40 31 22 -4 -9
-16 -12 -32 -8 -36 4 -5 1 -5 -6 -1 -21 12 -76 14 -89 3 -9 -6 -13 -5 -13 5 0
7 15 20 33 27 l32 13 -30 9 c-22 6 -47 3 -90 -10 -41 -13 -54 -20 -40 -24 11
-2 -11 -2 -50 1 -38 3 -80 12 -93 20 -18 12 -25 12 -40 1 -14 -11 -15 -11 -5
1 10 11 9 16 -5 27 -15 11 -13 12 12 3 16 -6 31 -9 33 -7 5 6 -46 24 -87 31
-27 4 -31 3 -17 -5 9 -5 17 -17 17 -24 0 -18 -16 -20 -26 -3 -4 7 -3 8 4 4 7
-4 12 -3 12 3 0 13 -74 34 -78 21 -2 -5 -10 -6 -19 -3 -11 4 -14 2 -9 -5 4 -7
2 -12 -3 -12 -17 0 -13 18 7 29 14 9 11 11 -18 12 -19 1 -39 0 -45 -2 -22 -7
-103 -4 -99 3 3 5 12 8 20 8 8 0 14 5 14 12 0 6 6 3 14 -8 13 -17 15 -17 21
-3 4 11 14 15 26 12 10 -3 19 -1 19 5 0 6 -17 10 -40 9 -21 -1 -42 2 -46 5 -8
9 4 28 19 28 7 0 6 -4 -3 -10 -9 -6 -10 -10 -3 -10 6 0 14 4 17 9 8 13 120 4
174 -13 29 -10 28 -26 -2 -26 -27 0 -43 -15 -23 -22 22 -8 168 -1 177 8 5 5
-14 8 -48 7 -50 -2 -53 -1 -19 6 49 10 55 18 20 25 -25 6 -29 11 -30 46 -2 49
-8 60 -33 60 -10 0 -23 6 -27 13 -4 6 -28 26 -53 42 -25 17 -47 33 -48 38 -15
34 -161 50 -245 26 -20 -5 -74 -35 -120 -66 -45 -30 -88 -56 -95 -57 -6 -1
-27 -17 -45 -34 -44 -43 -136 -68 -189 -52 -40 11 -128 90 -128 114 0 19 24
27 58 20 64 -13 163 43 181 101 24 76 22 102 -10 134 -17 17 -34 31 -38 31
-13 0 -41 58 -41 85 0 14 -7 39 -15 54 -9 18 -12 42 -8 66 6 38 6 38 -23 30
-37 -10 -108 -10 -159 0 -76 15 -184 7 -211 -16 -7 -6 -21 -9 -29 -5 -8 3 -15
1 -15 -4 0 -6 5 -10 11 -10 5 0 7 -5 4 -10 -4 -7 -13 -7 -26 0 -10 6 -18 7
-17 3 2 -4 -1 -8 -7 -8 -5 0 -9 4 -7 9 4 12 -19 37 -29 31 -10 -7 10 -65 23
-65 18 0 -14 -31 -47 -44 -18 -8 -41 -21 -51 -29 -130 -106 -183 -151 -180
-154 6 -6 76 38 76 48 0 5 7 9 15 9 23 0 18 -25 -7 -38 -35 -18 -81 -35 -101
-37 -10 -1 -22 -6 -26 -11 -12 -12 -64 -144 -67 -169 -1 -11 -6 -29 -10 -39
-6 -15 -4 -17 6 -11 8 5 11 4 6 -3 -3 -6 -15 -9 -26 -7 -11 2 -20 0 -20 -6 0
-19 -3 -25 -29 -48 -14 -13 -19 -20 -11 -16 8 4 2 -4 -13 -18 -15 -14 -23 -27
-17 -29 6 -2 1 -23 -15 -55 -13 -29 -25 -67 -26 -85 -1 -18 -8 -62 -16 -97
-15 -66 -11 -97 9 -85 8 5 9 0 5 -17 -4 -13 -7 -35 -8 -49 -2 -20 -3 -18 -9
10 -5 24 -6 16 -3 -25 2 -33 8 -64 13 -70 4 -5 10 -32 13 -59 5 -47 27 -90 27
-52 0 9 5 14 10 11 8 -5 7 -11 0 -21 -11 -13 3 -73 30 -124 4 -9 11 -35 15
-59 5 -31 10 -39 16 -30 6 10 9 11 9 2 0 -7 5 -13 11 -13 5 0 7 6 3 13 -4 6 3
2 15 -11 12 -12 19 -27 16 -32 -4 -6 -1 -9 7 -8 8 2 14 -8 16 -25 2 -15 6 -25
10 -23 4 2 13 -2 20 -10 7 -8 10 -14 7 -14 -3 0 5 -10 18 -22 12 -13 26 -22
30 -20 5 1 29 -15 54 -37 54 -46 76 -44 100 10 16 38 17 38 31 16 9 -12 17
-24 18 -26 2 -2 29 -9 61 -16 56 -12 57 -17 1 -29 -32 -7 -90 -54 -82 -67 3
-5 -1 -9 -9 -9 -14 0 -50 -61 -53 -90 -1 -8 -7 -28 -13 -43 -6 -16 -11 -46
-11 -67 0 -34 3 -39 28 -45 36 -8 232 8 277 22 11 4 31 6 45 4 14 -1 38 3 53
8 17 7 27 7 27 1 0 -6 -7 -10 -17 -10 -9 0 -14 -3 -10 -6 3 -3 22 -1 41 6 34
11 42 27 21 42 -6 5 -5 8 3 8 7 0 17 -10 22 -22 5 -13 10 -21 11 -18 2 6 7 50
5 50 -1 0 -33 9 -71 20 -39 11 -96 21 -129 21 -38 1 -54 4 -45 10 8 5 25 9 39
9 14 0 40 9 58 20 17 11 32 17 32 14 0 -4 11 1 25 10 13 9 31 16 38 16 8 0 26
12 41 27 21 21 29 24 36 14 6 -11 11 -8 20 10 7 13 23 33 35 45 44 41 43 140
-1 187 -14 15 -21 27 -17 28 35 3 66 13 116 38 56 28 58 29 68 9 6 -11 8 -22
5 -25 -3 -3 -8 2 -12 11 -7 18 -24 22 -24 6 0 -6 12 -16 27 -23 16 -6 57 -41
93 -77 56 -57 112 -102 130 -105 3 -1 22 -10 43 -20 33 -17 39 -17 47 -5 6 8
10 11 10 6 0 -12 68 40 112 85 21 22 45 39 56 39 10 0 38 20 62 45 24 25 52
45 63 45 10 0 16 4 13 9 -3 5 1 11 9 15 8 3 12 12 9 21 -3 8 -1 15 5 15 6 0
10 6 8 13 -1 8 8 11 25 9 22 -2 38 8 73 42 25 25 57 53 70 62 24 16 27 16 41
-2 9 -10 12 -12 8 -4 -4 8 14 -6 40 -32 26 -25 61 -52 78 -59 28 -11 30 -15
24 -49 -3 -20 -3 -40 1 -44 4 -4 8 -14 9 -24 2 -9 8 -18 13 -20 6 -2 11 -14
11 -26 0 -12 6 -28 13 -34 6 -7 13 -17 13 -22 1 -6 2 -14 3 -20 2 -17 19 -11
24 8 3 12 5 11 6 -6 2 -45 71 -128 137 -168 36 -21 85 -64 73 -64 -23 0 -173
-31 -188 -39 -28 -15 -71 -70 -71 -91 0 -26 27 -32 43 -9 12 16 22 19 63 14
74 -8 138 -11 147 -7 11 5 93 14 135 13 21 0 37 7 44 19 6 10 17 16 23 14 7
-3 11 13 12 43 3 83 -33 202 -71 236 -12 10 -14 15 -6 11 8 -4 -3 12 -24 34
-22 23 -37 44 -33 48 5 6 119 8 158 3 12 -2 16 -12 15 -33 -1 -26 3 -30 24
-31 16 0 28 8 34 20 5 11 29 35 55 54 25 19 40 28 34 20 -24 -25 -13 -30 17
-9 16 12 33 33 37 48 9 38 30 58 36 34 3 -9 6 3 7 28 1 25 4 37 7 28 2 -10 13
-18 24 -18 17 0 18 3 9 21 -12 21 -4 99 9 99 5 0 6 12 4 28 -4 21 -2 24 6 12
9 -12 11 -11 11 7 0 28 10 53 21 53 5 0 9 -12 9 -26 0 -16 4 -23 11 -18 8 4
10 29 6 73 -4 38 -3 58 2 46 5 -11 7 59 5 160 -4 222 -4 226 -14 220 -4 -3
-11 2 -14 11 -3 8 -2 12 4 9 13 -8 13 -8 -6 54 -14 50 -20 61 -51 95 -8 9 -9
16 -1 24 8 8 5 21 -11 47 -11 20 -21 45 -21 55 0 10 -6 23 -13 27 -28 17 -60
76 -61 114 -1 21 -6 42 -10 46 -5 4 -6 -3 -3 -17 5 -21 0 -18 -36 20 -23 25
-39 47 -34 49 5 2 20 -9 34 -25 16 -20 21 -22 14 -8 -6 12 -31 36 -57 55 -25
19 -57 44 -71 57 -14 13 -43 25 -69 29 -24 3 -41 10 -38 14 3 5 11 6 17 3 9
-5 9 -4 0 6 -14 15 -130 43 -143 35 -6 -4 -6 5 0 21 6 15 9 27 8 28 -2 0 -19
9 -38 18 -42 20 -88 28 -197 32 -72 2 -87 0 -127 -22z m111 -27 c-15 -16 -19
-13 -11 9 3 9 10 13 15 10 5 -3 3 -11 -4 -19z m-1502 5 c3 -6 -1 -7 -9 -4 -18
7 -21 14 -7 14 6 0 13 -4 16 -10z m158 -7 c-7 -2 -19 -2 -25 0 -7 3 -2 5 12 5
14 0 19 -2 13 -5z m1312 -13 c3 -6 -4 -10 -17 -10 -18 0 -20 2 -8 10 19 12 18
12 25 0z m-1519 -12 c4 -7 3 -8 -4 -4 -7 4 -12 0 -12 -10 0 -10 -3 -15 -6 -11
-7 6 2 37 10 37 3 0 8 -5 12 -12z m1758 2 c-6 -6 -21 -13 -34 -15 -28 -5 -14
11 15 18 11 3 22 5 25 6 2 0 -1 -4 -6 -9z m-1689 -14 c18 -13 18 -14 -8 -9
-15 3 -27 9 -27 14 0 13 13 11 35 -5z m-142 -37 c15 0 17 -2 7 -6 -8 -4 -20
-13 -26 -21 -8 -12 -11 -7 -11 19 0 19 2 28 5 22 2 -7 13 -13 25 -14z m317 6
c22 -11 30 -23 30 -42 0 -20 3 -24 11 -16 9 9 15 8 26 -3 12 -11 12 -21 4 -47
-13 -38 -104 -147 -152 -183 -34 -25 -36 -29 -38 -97 -1 -26 -5 -37 -13 -34
-7 2 -12 15 -10 28 3 23 2 23 -12 4 -10 -13 -15 -15 -16 -6 0 7 -6 11 -15 8
-8 -4 -17 -2 -20 3 -4 6 -14 10 -25 10 -10 0 -20 6 -23 14 -5 11 0 12 24 3 34
-13 62 4 41 25 -19 19 -15 23 36 48 47 23 133 102 136 125 1 7 7 20 14 28 20
23 -11 43 -43 29 -25 -12 -34 -32 -14 -32 12 0 -31 -50 -43 -50 -5 0 -8 9 -8
20 0 11 5 20 11 20 5 0 8 4 5 9 -7 10 53 51 74 51 8 0 22 -8 33 -17 20 -18 20
-17 14 22 -9 56 -29 68 -102 60 -66 -7 -84 -16 -131 -64 -29 -30 -50 -90 -45
-131 1 -11 -2 -10 -10 3 -6 11 -8 35 -5 55 3 21 6 45 7 55 0 9 5 17 10 17 6 0
7 5 4 10 -3 6 4 14 17 19 13 6 19 10 14 10 -14 1 37 37 69 49 44 16 112 14
145 -3z m120 -27 c0 -13 -23 -5 -28 10 -2 7 2 10 12 6 9 -3 16 -11 16 -16z
m1356 -17 c-15 -17 -15 -20 -1 -34 10 -11 12 -18 4 -22 -13 -9 -15 -7 -23 27
-4 20 -1 30 11 37 26 15 28 13 9 -8z m-1756 -11 c0 -5 -7 -10 -15 -10 -8 0
-15 5 -15 10 0 6 7 10 15 10 8 0 15 -4 15 -10z m-27 -41 c-4 -16 -8 -17 -14
-7 -13 19 -11 28 5 28 9 0 12 -7 9 -21z m1407 3 c0 -4 -11 -8 -26 -8 -23 -2
-24 -1 -7 11 17 13 33 11 33 -3z m205 -14 c33 -15 34 -48 1 -48 -19 0 -23 4
-19 20 4 16 0 20 -19 20 -13 0 -29 -5 -36 -12 -9 -9 -12 -9 -12 0 0 12 28 31
47 32 7 0 24 -5 38 -12z m-218 -24 c-3 -3 -12 -4 -19 -1 -8 3 -5 6 6 6 11 1
17 -2 13 -5z m-1397 -8 c0 -3 -4 -8 -10 -11 -5 -3 -10 -1 -10 4 0 6 5 11 10
11 6 0 10 -2 10 -4z m1446 -18 c4 -7 3 -8 -4 -4 -7 4 -12 2 -12 -4 0 -6 -5 -8
-11 -4 -8 4 -7 9 2 15 18 11 17 11 25 -3z m21 -10 c-3 -8 -6 -5 -6 6 -1 11 2
17 5 13 3 -3 4 -12 1 -19z m510 -18 c-1 -11 -4 -20 -8 -20 -4 0 -9 9 -12 20
-3 13 0 20 8 20 8 0 13 -9 12 -20z m118 -20 c-3 -5 4 -23 16 -40 13 -16 20
-33 16 -36 -4 -4 -11 5 -16 20 -6 14 -18 26 -27 26 -13 0 -14 -3 -4 -15 15
-18 5 -20 -14 -3 -16 16 -9 46 13 51 9 3 17 5 19 6 2 0 0 -3 -3 -9z m-248 -25
c0 -11 -4 -12 -14 -4 -7 6 -13 15 -13 20 0 5 6 6 13 3 8 -3 14 -11 14 -19z
m307 3 c15 -20 21 -18 17 6 -1 5 5 4 13 -4 9 -7 16 -16 16 -21 0 -18 -37 -8
-60 16 -13 14 -18 25 -12 25 6 0 18 -10 26 -22z m-2177 -10 c-3 -8 -6 -5 -6 6
-1 11 2 17 5 13 3 -3 4 -12 1 -19z m-260 -2 c0 -8 -6 -12 -14 -9 -7 3 -10 9
-7 14 8 14 21 11 21 -5z m121 -10 c23 -12 22 -13 -11 -12 -19 1 -33 4 -31 7 2
4 -5 9 -16 12 -14 3 -18 1 -13 -6 14 -22 11 -36 -5 -30 -9 4 -13 2 -9 -4 4 -6
0 -13 -8 -17 -18 -6 -18 -5 -5 28 6 17 6 26 0 26 -6 0 -10 5 -10 11 0 13 73 3
108 -15z m277 4 c3 -6 -1 -7 -9 -4 -18 7 -21 14 -7 14 6 0 13 -4 16 -10z
m1831 -15 c-11 -8 -24 -15 -30 -15 -5 0 -1 7 10 15 10 8 24 14 29 14 6 0 1 -6
-9 -14z m117 -25 c6 0 3 -6 -7 -13 -9 -7 -18 -22 -19 -34 0 -12 -5 -20 -9 -17
-4 3 -14 -8 -22 -23 -8 -15 -15 -22 -16 -14 0 11 -3 11 -17 0 -10 -7 -5 1 11
19 16 17 30 42 31 54 1 13 8 22 14 20 7 -1 10 8 6 25 -5 27 -5 27 6 6 7 -13
17 -23 22 -23z m161 24 c3 -8 2 -12 -4 -9 -6 3 -10 10 -10 16 0 14 7 11 14 -7z
m-2542 -16 c-7 -7 -12 -8 -12 -2 0 14 12 26 19 19 2 -3 -1 -11 -7 -17z m293
12 c3 -5 2 -10 -4 -10 -5 0 -13 5 -16 10 -3 6 -2 10 4 10 5 0 13 -4 16 -10z
m2195 -18 c0 -8 -1 -13 -3 -11 -1 2 -9 12 -16 22 -12 15 -12 17 3 11 9 -3 16
-13 16 -22z m-2340 -27 c-7 -8 -19 -15 -26 -15 -24 0 -54 -39 -53 -67 l1 -28
13 31 c8 17 20 36 29 43 13 11 12 5 -2 -38 -11 -37 -21 -51 -34 -51 -44 0 -7
131 42 148 31 12 48 -1 30 -23z m2288 -5 c-2 -7 -10 1 -17 16 -12 27 -11 28 4
12 10 -9 16 -21 13 -28z m-533 20 c-3 -5 -11 -10 -16 -10 -6 0 -7 5 -4 10 3 6
11 10 16 10 6 0 7 -4 4 -10z m-1580 -10 c3 -5 -1 -10 -10 -10 -9 0 -13 5 -10
10 3 6 8 10 10 10 2 0 7 -4 10 -10z m2087 -22 c-9 -9 -12 -7 -12 12 0 19 3 21
12 12 9 -9 9 -15 0 -24z m-1797 12 c3 -5 -1 -10 -10 -10 -9 0 -13 5 -10 10 3
6 8 10 10 10 2 0 7 -4 10 -10z m1475 -15 c0 -8 -4 -15 -9 -15 -13 0 -22 16
-14 24 11 11 23 6 23 -9z m46 -23 c-4 -3 -14 2 -24 12 -16 18 -16 18 6 6 13
-6 21 -14 18 -18z m105 5 c-10 -9 -11 -8 -5 6 3 10 9 15 12 12 3 -3 0 -11 -7
-18z m-1626 3 c3 -5 1 -10 -4 -10 -6 0 -11 5 -11 10 0 6 2 10 4 10 3 0 8 -4
11 -10z m760 -7 c-1 -10 3 -24 9 -32 9 -12 8 -13 -8 -4 -10 6 -28 8 -40 6 -17
-4 -18 -3 -6 6 13 9 13 11 1 11 -11 0 -9 4 5 15 26 20 43 19 39 -2z m685 -3
c0 -4 15 -7 33 -6 26 1 33 -3 35 -23 2 -13 -2 -28 -9 -35 -9 -8 -11 -7 -6 7 6
16 5 16 -25 1 -30 -16 -31 -16 -25 6 3 12 3 19 0 16 -4 -3 -12 -1 -20 5 -10 9
-13 8 -13 -4 0 -10 -6 -14 -15 -11 -8 4 -15 10 -15 16 0 5 5 6 12 2 7 -4 8 -3
4 4 -4 7 -14 12 -22 12 -8 0 -13 4 -9 10 3 5 12 7 19 4 8 -3 17 -1 20 5 7 11
36 4 36 -9z m-1835 -16 c9 3 15 -1 15 -10 0 -9 9 -27 20 -41 21 -27 27 -59 10
-48 -6 4 -10 -7 -10 -24 0 -17 -5 -31 -11 -31 -8 0 -9 16 -5 51 5 34 4 49 -4
44 -5 -3 -10 0 -11 7 -1 7 -5 -3 -10 -22 -6 -25 -4 -44 7 -69 11 -23 13 -36 5
-44 -17 -17 -33 41 -27 102 5 57 3 53 -20 -42 -5 -21 -9 -25 -15 -15 -5 7 -9
23 -9 36 0 12 -6 22 -12 22 -10 0 -10 2 0 8 7 5 10 16 6 25 -3 10 -1 17 5 17
6 0 11 9 11 20 0 22 -15 27 -26 9 -3 -6 -10 -34 -15 -63 l-8 -51 3 57 c3 75
16 91 57 71 16 -8 36 -12 44 -9z m-238 -46 c-2 -13 -4 -5 -4 17 -1 22 1 32 4
23 2 -10 2 -28 0 -40z m270 20 c-3 -8 -6 -5 -6 6 -1 11 2 17 5 13 3 -3 4 -12
1 -19z m2250 0 c-3 -8 -6 -5 -6 6 -1 11 2 17 5 13 3 -3 4 -12 1 -19z m-128
-45 c-7 -21 -17 -42 -23 -48 -6 -6 -6 -6 -2 3 4 6 4 17 0 24 -5 7 -22 -6 -50
-38 -42 -47 -56 -73 -33 -58 16 9 -17 -50 -36 -66 -14 -12 -16 -11 -11 13 3
15 8 38 11 52 3 14 21 39 40 56 19 17 39 47 45 65 13 39 29 45 31 12 1 -21 2
-21 6 -3 5 19 24 38 31 30 2 -2 -2 -21 -9 -42z m-2449 17 c0 -11 -7 -20 -15
-20 -8 0 -15 5 -15 11 0 5 5 7 10 4 6 -3 10 1 10 9 0 9 2 16 5 16 3 0 5 -9 5
-20z m2376 1 c0 -11 -4 -17 -8 -15 -4 3 -8 -3 -8 -13 0 -16 -33 -47 -52 -48
-4 0 -14 -9 -22 -20 -14 -19 -15 -18 -6 14 5 19 17 42 27 53 17 18 18 19 24 1
5 -12 8 -13 8 -4 1 11 28 51 35 51 1 0 2 -9 2 -19z m-1921 -21 c3 -5 2 -10 -4
-10 -5 0 -13 5 -16 10 -3 6 -2 10 4 10 5 0 13 -4 16 -10z m49 -12 c4 4 6 1 4
-7 -1 -8 6 -17 17 -19 17 -4 18 -3 5 13 -14 17 -14 17 7 4 13 -8 18 -16 12
-20 -12 -7 50 -49 72 -49 10 0 10 -3 2 -11 -9 -9 -18 -8 -38 5 -15 10 -30 15
-33 11 -4 -3 -1 -10 7 -14 7 -5 14 -27 17 -49 3 -39 3 -41 -14 -24 -23 24 -54
72 -46 72 4 0 17 -8 28 -17 12 -10 8 -3 -9 16 -31 34 -93 71 -120 71 -8 0 -15
4 -15 8 0 5 13 7 29 4 16 -2 32 1 36 8 5 8 11 8 19 1 7 -6 16 -7 20 -3z m-127
-5 c-11 -10 23 -42 39 -36 8 3 14 0 14 -6 0 -6 6 -11 13 -11 17 0 54 -27 46
-34 -3 -3 -22 6 -43 21 l-39 26 5 -27 c4 -18 1 -29 -8 -33 -8 -3 -14 -15 -14
-27 -1 -11 -10 5 -21 37 -19 58 -18 97 3 97 6 0 8 -3 5 -7z m-396 -26 c-10 -9
-11 -8 -5 6 3 10 9 15 12 12 3 -3 0 -11 -7 -18z m91 -6 c2 -17 1 -28 -3 -26
-4 3 -10 -6 -13 -20 -4 -14 -11 -25 -16 -25 -13 0 -13 25 -1 48 5 9 12 25 15
35 8 25 13 21 18 -12z m1188 19 c0 -5 -5 -10 -11 -10 -5 0 -7 5 -4 10 3 6 8
10 11 10 2 0 4 -4 4 -10z m55 0 c7 -12 -2 -12 -30 0 -19 8 -19 9 2 9 12 1 25
-3 28 -9z m-1195 -67 c7 -24 17 -43 23 -43 5 0 7 7 3 15 -8 22 2 18 15 -6 8
-17 8 -20 -1 -14 -8 5 -11 3 -8 -6 3 -8 10 -13 16 -12 5 1 13 -4 16 -12 7 -20
-16 -14 -32 8 -7 9 -17 15 -21 13 -4 -3 -13 -1 -21 5 -10 5 -11 9 -3 9 7 0 10
6 7 13 -8 23 -34 16 -34 -10 0 -12 -4 -23 -10 -23 -15 0 -12 36 4 49 7 6 17
26 21 44 4 17 8 28 10 22 1 -5 8 -29 15 -52z m1093 50 c-7 -2 -21 -2 -30 0
-10 3 -4 5 12 5 17 0 24 -2 18 -5z m67 -8 c0 -8 -7 -15 -15 -15 -13 0 -14 3
-3 15 16 18 18 18 18 0z m1387 -7 c-3 -8 -6 -5 -6 6 -1 11 2 17 5 13 3 -3 4
-12 1 -19z m-572 3 c9 -16 -9 -20 -23 -5 -10 12 -10 14 2 14 8 0 17 -4 21 -9z
m165 -10 c-5 -11 -15 -23 -20 -26 -6 -4 -8 -10 -5 -15 9 -15 -59 -105 -80
-105 -27 0 -21 32 12 65 26 26 23 16 -13 -40 -9 -14 4 -2 29 25 25 28 43 52
41 54 -5 6 29 61 39 61 4 0 3 -9 -3 -19z m-2274 -35 c-21 -49 -28 -46 -9 4 9
22 18 38 20 36 2 -2 -3 -20 -11 -40z m1154 35 c0 -14 -25 -20 -51 -14 -22 6
-22 7 -3 14 27 11 54 11 54 0z m51 2 c-11 -5 -11 -7 0 -14 11 -7 10 -9 -3 -9
-18 0 -23 11 -11 23 3 4 11 7 17 6 6 0 5 -3 -3 -6z m823 -1 c3 -5 -1 -9 -9 -9
-8 0 -12 4 -9 9 3 4 7 8 9 8 2 0 6 -4 9 -8z m-731 -19 c-7 -2 -19 -2 -25 0 -7
3 -2 5 12 5 14 0 19 -2 13 -5z m927 -13 c-6 -11 -15 -18 -20 -15 -4 3 -17 -5
-27 -18 -10 -13 -25 -27 -33 -32 -30 -18 16 39 50 63 40 27 44 27 30 2z
m-2266 -5 c-4 -8 -11 -15 -16 -15 -6 0 -5 6 2 15 7 8 14 15 16 15 2 0 1 -7 -2
-15z m415 -42 c8 -31 15 -43 20 -34 6 9 10 4 14 -16 8 -42 2 -40 -28 10 -14
25 -33 48 -41 51 -8 3 -12 10 -9 16 4 6 11 7 17 4 8 -5 9 -1 5 10 -4 9 -3 15
2 12 5 -3 14 -27 20 -53z m657 42 c-23 -18 -36 -19 -36 -4 0 5 4 8 8 5 4 -2
14 -1 22 5 23 14 27 10 6 -6z m134 0 c-14 -17 -36 -20 -45 -5 -3 6 1 7 9 4 9
-3 16 -1 16 5 0 6 7 11 16 11 14 0 14 -3 4 -15z m199 -11 c4 3 13 0 21 -5 11
-7 6 -9 -16 -7 -24 2 -30 6 -26 17 4 10 7 11 10 3 2 -7 7 -10 11 -8z m791 4
c0 -13 -59 -78 -72 -78 -10 0 54 89 65 89 4 1 7 -4 7 -11z m117 -26 c-8 -9
-24 -36 -36 -59 -12 -24 -26 -43 -31 -43 -12 0 9 44 49 104 14 21 27 33 29 27
2 -7 -3 -20 -11 -29z m497 22 c3 -8 2 -12 -4 -9 -6 3 -10 10 -10 16 0 14 7 11
14 -7z m-2899 -50 c-9 -16 -13 -20 -9 -9 4 11 7 28 8 37 0 10 4 14 9 9 5 -5 2
-21 -8 -37z m752 32 c-3 -8 0 -21 6 -30 14 -19 85 -56 107 -56 9 0 11 -3 5 -8
-5 -4 -15 -16 -22 -27 -6 -11 -16 -19 -21 -18 -5 1 -8 -7 -5 -17 4 -16 2 -19
-11 -14 -10 4 -15 12 -12 19 3 9 -3 11 -17 9 -12 -2 -16 -1 -9 2 10 5 10 11
-3 30 -14 22 -12 28 8 25 12 -2 8 6 -10 20 -11 10 -14 10 -9 2 4 -7 5 -13 1
-13 -11 0 -25 53 -20 71 4 11 9 19 12 19 3 0 3 -6 0 -14z m653 -5 c0 -11 12
-34 27 -51 23 -27 31 -31 60 -25 20 3 33 2 33 -5 0 -13 41 -13 76 0 23 9 31 7
53 -13 14 -12 37 -28 51 -33 14 -6 50 -22 80 -36 62 -29 159 -59 195 -62 14 0
25 -4 25 -8 0 -5 16 -8 35 -8 34 0 46 -12 25 -25 -6 -4 -8 -11 -5 -16 9 -13
-7 -10 -28 5 -26 20 -126 12 -185 -14 -50 -22 -92 -56 -92 -74 0 -6 -9 -17
-20 -24 -11 -7 -20 -17 -20 -23 0 -6 -9 -22 -20 -36 -11 -14 -18 -29 -15 -33
8 -13 -83 0 -113 16 -33 17 -133 19 -150 2 -17 -17 -15 -28 6 -22 16 5 16 5 0
-6 -10 -6 -18 -18 -18 -25 0 -18 5 -18 31 -5 25 14 25 -2 -1 -18 -12 -7 -18
-17 -14 -23 4 -6 11 -5 22 3 14 11 15 10 8 -7 -20 -48 -19 -65 3 -65 11 0 21
5 21 11 0 6 10 5 28 -4 40 -21 123 -48 131 -42 4 2 8 -2 8 -10 0 -8 -20 -22
-46 -31 -50 -17 -68 -25 -121 -54 -19 -10 -47 -17 -62 -16 -16 2 -28 -2 -29
-8 0 -7 -3 -6 -6 2 -2 6 -8 10 -13 7 -4 -3 -14 3 -21 13 -13 15 -12 16 4 3 16
-13 22 -8 18 13 -1 5 5 3 14 -4 8 -7 17 -11 20 -9 4 4 -33 44 -77 84 -9 8 -15
22 -14 32 2 9 -6 25 -16 35 -11 11 -18 25 -15 31 4 14 -28 48 -38 39 -3 -4 -3
0 0 9 4 10 -10 25 -45 48 -51 33 -63 45 -33 34 11 -4 14 -3 9 5 -4 7 -19 12
-34 12 -20 0 -23 3 -13 9 25 16 -56 31 -164 30 -55 0 -111 1 -125 1 -21 0 -28
7 -36 38 l-10 38 35 -2 c47 -1 72 6 65 18 -4 6 1 8 14 4 21 -7 108 33 128 59
6 8 21 16 35 19 53 10 66 22 60 59 0 4 4 7 9 7 6 0 10 6 10 14 0 8 11 17 25
20 14 4 24 12 22 18 -1 7 18 17 43 24 39 10 41 12 20 16 -22 5 -21 5 7 7 40 1
83 20 83 36 0 11 34 33 53 34 4 1 7 -8 7 -18z m-1324 -2 c3 -6 1 -16 -5 -22
-9 -9 -11 -7 -5 8 8 24 0 16 -45 -43 -19 -24 -35 -41 -38 -38 -6 5 69 106 79
106 4 0 10 -5 14 -11z m91 -11 c-3 -8 -6 -5 -6 6 -1 11 2 17 5 13 3 -3 4 -12
1 -19z m417 -17 c0 -11 4 -21 9 -21 6 0 7 -3 4 -7 -4 -3 -2 -12 5 -20 6 -7 8
-16 5 -19 -9 -9 -39 55 -31 67 4 6 0 16 -7 21 -12 8 -11 9 1 5 8 -2 15 -14 14
-26z m77 12 c12 -15 12 -16 -6 -9 -19 7 -19 6 1 -16 12 -13 20 -28 17 -34 -2
-6 8 -19 23 -29 l27 -17 -7 27 c-4 16 -3 24 3 21 5 -4 9 -24 8 -46 -1 -26 5
-46 18 -62 12 -13 13 -17 4 -10 -9 6 -19 8 -23 4 -4 -4 -6 -2 -5 3 5 15 -21
56 -31 50 -13 -8 -39 35 -33 54 4 11 1 10 -10 -4 -8 -11 -13 -24 -10 -30 4 -5
2 -6 -2 -2 -5 4 -11 20 -13 34 -2 15 -8 36 -13 47 -9 19 -9 20 4 4 20 -25 25
-22 19 7 -5 29 9 33 29 8z m-193 -18 c-3 -3 -9 2 -12 12 -6 14 -5 15 5 6 7 -7
10 -15 7 -18z m350 3 c-6 -16 -21 -14 -24 4 -1 11 3 15 12 11 8 -3 13 -10 12
-15z m352 12 c0 -13 -20 -13 -40 0 -12 8 -9 10 13 10 15 0 27 -4 27 -10z
m1647 -62 c-2 -13 -4 -3 -4 22 0 25 2 35 4 23 2 -13 2 -33 0 -45z m-1682 42
c-3 -5 -18 -10 -33 -10 -21 0 -24 2 -12 10 20 13 53 13 45 0z m-959 -58 c-11
-10 -15 4 -8 28 l7 25 3 -23 c2 -13 1 -26 -2 -30z m194 44 c0 -3 -4 -8 -10
-11 -5 -3 -10 -1 -10 4 0 6 5 11 10 11 6 0 10 -2 10 -4z m545 -26 c-4 -6 5
-10 20 -10 16 0 24 -4 19 -11 -3 -6 -14 -9 -23 -6 -11 3 -17 -4 -18 -23 -1
-17 3 -27 13 -27 7 0 14 4 14 9 0 5 4 6 10 3 11 -7 -9 -34 -24 -32 -10 2 -66
54 -66 61 0 2 9 2 19 -1 16 -4 19 0 17 21 -2 17 2 26 11 26 8 0 11 -4 8 -10z
m85 0 c0 -5 -5 -10 -11 -10 -5 0 -7 5 -4 10 3 6 8 10 11 10 2 0 4 -4 4 -10z
m-899 -52 c-12 -37 -80 -120 -81 -100 0 7 11 23 24 35 27 25 56 78 57 104 0
10 3 13 6 6 2 -7 0 -27 -6 -45z m259 37 c0 -8 -2 -15 -4 -15 -2 0 -6 7 -10 15
-3 8 -1 15 4 15 6 0 10 -7 10 -15z m98 -28 c12 3 13 2 5 -4 -7 -5 -11 -19 -8
-31 2 -12 0 -22 -5 -22 -14 0 -28 33 -23 50 3 9 0 8 -9 -4 -11 -13 -17 -16
-22 -7 -4 6 -12 9 -17 6 -10 -7 -12 8 -2 18 3 4 12 -1 20 -11 13 -15 13 -15 4
5 -19 38 -12 47 15 20 15 -15 32 -24 42 -20z m154 -12 c11 -21 8 -18 -32 30
-24 29 -24 29 -2 10 13 -11 28 -29 34 -40z m1478 40 c-14 -8 -32 -14 -40 -14
-8 0 -1 7 15 14 39 18 57 18 25 0z m380 11 c0 -2 -8 -10 -17 -17 -16 -13 -17
-12 -4 4 13 16 21 21 21 13z m-70 -21 c-7 -9 -15 -13 -17 -11 -7 7 7 26 19 26
6 0 6 -6 -2 -15z m-2354 -19 c0 -13 -4 -22 -7 -20 -3 2 -19 -20 -34 -49 -28
-51 -45 -70 -54 -62 -2 3 4 15 15 26 14 16 15 21 4 17 -8 -2 -20 -14 -26 -26
-17 -35 -25 -38 -14 -6 6 16 23 37 40 46 16 9 38 35 50 57 24 47 28 50 26 17z
m999 14 c27 -7 27 -8 5 -8 -14 0 -38 4 -55 8 -27 7 -27 8 -5 8 14 0 39 -4 55
-8z m-912 -28 c-3 -12 -9 -22 -14 -22 -12 0 -11 7 3 30 15 24 19 21 11 -8z
m1862 18 c19 -8 19 -9 -2 -9 -12 -1 -25 4 -28 9 -7 12 2 12 30 0z m275 -1 c0
-20 -63 -38 -100 -28 l-35 9 36 -4 c24 -3 46 2 65 14 35 23 34 22 34 9z m497
-21 c-3 -7 -5 -2 -5 12 0 14 2 19 5 13 2 -7 2 -19 0 -25z m-2544 -9 c-4 -15
-8 -17 -13 -8 -10 15 -1 41 10 34 5 -3 6 -14 3 -26z m2660 -19 c4 -30 3 -38
-3 -25 -8 19 -14 83 -6 74 2 -2 6 -24 9 -49z m-2633 8 c0 -23 -3 -29 -11 -21
-6 6 -8 20 -4 32 9 30 15 26 15 -11z m1657 26 c-3 -3 -12 -4 -19 -1 -8 3 -5 6
6 6 11 1 17 -2 13 -5z m428 -4 c-3 -5 -14 -10 -23 -10 -15 0 -15 2 -2 10 20
13 33 13 25 0z m-1485 -21 c0 -5 -4 -9 -10 -9 -5 0 -10 7 -10 16 0 8 5 12 10
9 6 -3 10 -10 10 -16z m197 15 c-3 -3 -12 -4 -19 -1 -8 3 -5 6 6 6 11 1 17 -2
13 -5z m1737 -38 c-3 -14 -10 -26 -15 -26 -12 0 -11 4 3 35 14 31 21 26 12 -9z
m-2825 -7 c-25 -16 -32 -9 -13 12 12 13 20 16 22 9 3 -7 -2 -16 -9 -21z m542
14 c13 -16 12 -17 -3 -4 -17 13 -22 21 -14 21 2 0 10 -8 17 -17z m2251 -5 c-7
-7 -12 -8 -12 -2 0 14 12 26 19 19 2 -3 -1 -11 -7 -17z m-2596 -15 c-10 -10
-19 5 -10 18 6 11 8 11 12 0 2 -7 1 -15 -2 -18z m819 9 c-3 -3 -11 0 -18 7 -9
10 -8 11 6 5 10 -3 15 -9 12 -12z m-865 -31 c-10 -20 -30 -29 -30 -14 0 10 33
44 37 39 3 -2 0 -14 -7 -25z m445 19 c3 -6 -1 -7 -9 -4 -18 7 -21 14 -7 14 6
0 13 -4 16 -10z m-542 -15 c-3 -9 -8 -14 -10 -11 -3 3 -2 9 2 15 9 16 15 13 8
-4z m158 -12 c-12 -20 -14 -14 -5 12 4 9 9 14 11 11 3 -2 0 -13 -6 -23z m538
-20 c2 -2 -1 -3 -7 -3 -6 0 -24 12 -39 26 l-28 26 35 -23 c19 -12 37 -24 39
-26z m162 -1 c-10 -3 -81 35 -81 44 0 2 21 -6 46 -18 25 -13 40 -24 35 -26z
m1936 26 c-3 -8 -6 -5 -6 6 -1 11 2 17 5 13 3 -3 4 -12 1 -19z m50 0 c-3 -8
-6 -5 -6 6 -1 11 2 17 5 13 3 -3 4 -12 1 -19z m-2625 -26 c-17 -17 -42 -79
-55 -137 -3 -11 -5 12 -6 51 -1 47 4 76 14 90 13 18 14 18 9 -6 -6 -25 -5 -25
23 5 15 17 29 28 31 24 2 -4 -5 -16 -16 -27z m88 13 c0 -8 -4 -15 -10 -15 -5
0 -7 7 -4 15 4 8 8 15 10 15 2 0 4 -7 4 -15z m505 -16 c0 -7 -8 -15 -17 -17
-10 -2 -18 2 -18 8 0 6 5 8 12 4 8 -5 9 -2 5 10 -5 12 -3 16 5 14 7 -3 13 -11
13 -19z m1849 -4 c-4 -8 -11 -12 -17 -8 -8 5 -7 8 1 11 7 2 9 9 6 14 -4 7 -2
8 4 4 6 -4 9 -13 6 -21z m239 12 c3 -8 1 -20 -4 -28 -6 -10 -9 -7 -9 14 0 29
5 35 13 14z m-2660 -47 c-6 -41 13 -104 28 -94 5 3 9 -7 9 -23 0 -22 -2 -25
-10 -13 -5 8 -10 11 -10 5 -1 -20 -20 21 -20 43 0 12 -7 25 -15 28 -19 8 -19
13 0 58 20 47 24 46 18 -4z m40 13 c-7 -3 -13 -9 -13 -14 0 -6 5 -7 12 -3 6 4
8 3 5 -2 -3 -6 3 -11 14 -11 10 -1 19 3 19 8 0 6 -4 7 -10 4 -5 -3 -10 -2 -10
4 0 20 19 21 25 0 7 -21 1 -33 -16 -35 -5 -1 -13 -2 -19 -3 -5 0 -10 -11 -10
-23 0 -36 -10 -14 -14 32 -5 53 2 77 18 59 8 -8 8 -13 -1 -16z m1861 12 c3 8
13 15 23 15 15 0 16 -2 3 -10 -18 -11 -9 -13 50 -10 34 1 35 1 13 -14 -31 -23
-108 -28 -149 -11 -40 16 -42 23 -11 34 15 6 29 5 44 -5 18 -11 22 -11 27 1z
m-2109 -5 c3 -5 1 -10 -4 -10 -6 0 -11 5 -11 10 0 6 2 10 4 10 3 0 8 -4 11
-10z m575 0 c0 -5 -2 -10 -4 -10 -3 0 -8 5 -11 10 -3 6 -1 10 4 10 6 0 11 -4
11 -10z m-613 -37 c-3 -10 -5 -4 -5 12 0 17 2 24 5 18 2 -7 2 -21 0 -30z m147
-40 l-8 -58 -6 45 c-3 25 -2 53 3 63 15 32 19 11 11 -50z m2707 36 c-5 -13
-10 -19 -10 -12 -1 15 10 45 15 40 3 -2 0 -15 -5 -28z m-2817 -11 c-10 -18
-19 -28 -21 -21 -5 15 15 53 28 53 5 0 2 -15 -7 -32z m31 -38 c-10 -52 -13
-58 -14 -29 -1 32 17 104 24 97 2 -2 -3 -32 -10 -68z m2675 40 c-6 -11 -12
-20 -14 -20 -3 0 -1 23 3 38 1 1 6 2 11 2 7 0 7 -6 0 -20z m-846 -5 c-4 -8
-10 -15 -15 -15 -5 0 -8 -5 -6 -11 1 -6 -5 -14 -13 -16 -13 -4 -13 -3 0 6 10
7 11 11 3 11 -9 0 -7 7 4 20 21 24 35 26 27 5z m-1794 -5 c0 -5 -5 -10 -11
-10 -5 0 -7 5 -4 10 3 6 8 10 11 10 2 0 4 -4 4 -10z m1827 -5 c0 -8 -4 -15 -9
-15 -4 0 -8 7 -8 15 0 8 4 15 8 15 5 0 9 -7 9 -15z m80 9 c-3 -3 -12 -4 -19
-1 -8 3 -5 6 6 6 11 1 17 -2 13 -5z m629 -11 c-2 -9 -8 -19 -15 -21 -10 -3
-10 0 -2 17 14 25 20 27 17 4z m165 -19 c-11 -15 -21 -23 -21 -18 0 14 31 56
37 50 3 -3 -4 -17 -16 -32z m-2465 0 c-3 -9 -6 -18 -6 -20 0 -3 -4 -3 -10 1
-11 7 -2 35 12 35 6 0 7 -7 4 -16z m36 -36 l-8 -33 -6 27 c-3 15 -1 25 3 22 5
-3 9 0 9 5 0 6 -6 11 -12 11 -9 0 -8 4 2 10 19 12 23 0 12 -42z m1617 21 c-5
-11 -14 -17 -20 -13 -7 4 -6 10 0 18 6 7 8 16 4 20 -4 4 0 4 10 1 13 -6 14
-11 6 -26z m-1902 -1 c-3 -8 -6 -5 -6 6 -1 11 2 17 5 13 3 -3 4 -12 1 -19z
m488 0 c-8 -35 18 -61 55 -56 17 3 33 2 35 -2 2 -3 -8 -7 -22 -8 -13 -1 -32
-6 -41 -11 -10 -6 -24 -5 -37 1 -19 10 -19 9 -3 -7 13 -15 22 -16 47 -7 17 6
33 7 36 2 3 -4 -11 -11 -30 -14 -24 -5 -33 -11 -28 -21 4 -11 -2 -15 -20 -15
-14 0 -29 5 -32 10 -3 6 3 10 14 10 12 0 21 5 21 10 0 6 -9 10 -19 10 -11 0
-23 5 -26 10 -4 6 -12 10 -18 9 -21 -4 -68 21 -62 31 4 6 17 4 35 -5 37 -19
61 -19 86 1 10 8 13 12 5 8 -9 -4 -12 -3 -8 3 4 6 -2 13 -13 16 -11 3 -20 0
-20 -6 0 -6 -2 -8 -5 -5 -3 3 -2 13 1 22 5 13 9 14 14 5 6 -8 12 -6 21 10 17
27 21 27 14 -1z m1377 -4 c-3 -16 -9 -23 -18 -20 -22 8 -44 -4 -44 -26 0 -12
4 -17 12 -12 7 4 8 3 4 -4 -4 -7 -3 -12 2 -12 6 0 12 7 16 15 3 8 1 15 -5 15
-6 0 -7 5 -3 11 11 19 24 -13 13 -33 -7 -14 -6 -20 5 -24 9 -3 12 -12 9 -21
-5 -13 -8 -12 -15 6 -9 25 -28 20 -28 -8 0 -9 -6 -26 -14 -36 -13 -18 -14 -17
-9 10 2 17 6 35 8 40 6 24 3 30 -15 27 -11 -2 -20 2 -20 8 0 6 6 8 13 4 6 -4
9 -3 4 1 -4 5 0 17 10 27 9 10 11 18 5 18 -6 0 -13 -4 -17 -9 -3 -6 -20 -17
-37 -25 -31 -16 -31 -16 -13 4 10 11 21 17 25 15 4 -2 15 4 25 15 14 16 20 17
26 8 6 -10 14 -8 31 10 29 29 36 28 30 -4z m-1445 -8 c-5 -15 -35 -15 -47 -1
-8 9 -3 12 20 11 16 -1 29 -5 27 -10z m1533 10 c0 -2 -12 -11 -27 -20 l-28
-17 24 20 c23 21 31 25 31 17z m-1923 -28 c-3 -8 -6 -5 -6 6 -1 11 2 17 5 13
3 -3 4 -12 1 -19z m120 -26 c11 -11 11 -17 2 -29 -11 -12 -15 -11 -26 11 -7
13 -10 33 -6 42 5 14 8 15 11 4 3 -8 11 -21 19 -28z m60 6 c-3 -7 -5 -2 -5 12
0 14 2 19 5 13 2 -7 2 -19 0 -25z m153 -52 c0 -6 10 -21 23 -34 l22 -25 -34
18 c-26 13 -36 14 -45 4 -6 -6 -6 -9 -1 -6 21 11 34 -7 20 -26 -13 -18 -14
-18 -24 1 -6 11 -18 28 -27 37 -21 20 -13 28 26 27 26 -1 29 2 21 17 -6 10
-17 23 -25 31 -9 7 -16 17 -16 23 0 13 59 -54 60 -67z m2277 58 c-3 -3 -12 -4
-19 -1 -8 3 -5 6 6 6 11 1 17 -2 13 -5z m-2538 -47 c-1 -31 -1 -31 -9 -7 -11
36 -11 52 0 45 6 -3 10 -21 9 -38z m801 34 c0 -5 -9 -7 -20 -4 -11 3 -20 7
-20 9 0 2 9 4 20 4 11 0 20 -4 20 -9z m88 -12 c-18 -12 -25 -11 -31 4 -4 10 2
13 20 9 18 -3 21 -7 11 -13z m-383 -9 c-27 -12 -43 -12 -25 0 8 5 22 9 30 9
10 0 8 -3 -5 -9z m340 0 c7 -11 -38 -24 -57 -17 -7 3 0 6 15 6 16 1 26 5 22
11 -3 6 -2 10 4 10 5 0 13 -4 16 -10z m1562 -5 c0 -8 -4 -12 -9 -9 -5 3 -6 10
-3 15 9 13 12 11 12 -6z m-2242 -45 c7 -22 6 -23 -9 -11 -9 7 -16 25 -16 40 1
29 11 17 25 -29z m535 40 c0 -13 -11 -13 -30 0 -12 8 -11 10 8 10 12 0 22 -4
22 -10z m936 -16 c-9 -8 -12 -22 -9 -31 6 -15 5 -16 -9 -3 -9 8 -12 17 -7 18
5 2 9 8 9 13 0 6 -5 7 -12 3 -7 -4 -8 -3 -4 5 4 6 12 9 17 6 5 -4 9 -1 9 5 0
6 5 8 10 5 6 -4 5 -12 -4 -21z m-723 -4 c4 0 5 5 1 12 -4 7 -3 8 5 4 6 -4 9
-11 6 -16 -3 -4 1 -11 7 -13 8 -4 9 -6 2 -6 -7 -1 -20 7 -31 17 -10 9 -14 14
-9 10 6 -5 14 -8 19 -8z m-793 -16 c0 5 12 -9 26 -30 15 -21 32 -42 38 -46 17
-12 -3 -9 -25 2 -11 6 -30 29 -44 50 -27 43 -34 66 -10 34 8 -10 15 -15 15
-10z m493 15 c-12 -4 -34 -4 -50 0 -23 7 -20 8 21 8 35 0 44 -2 29 -8z m61
-10 c-27 -11 -34 -10 -34 0 0 11 31 20 44 13 5 -3 1 -9 -10 -13z m143 4 c16 2
33 6 39 10 6 3 21 -7 34 -23 13 -16 27 -27 31 -24 4 2 15 -6 23 -18 11 -15 16
-18 16 -8 0 13 1 13 10 0 5 -9 5 -19 -2 -27 -7 -9 -6 -14 6 -19 9 -3 16 -11
16 -16 0 -6 -7 -7 -16 -4 -12 5 -15 2 -10 -9 3 -10 2 -13 -5 -10 -6 4 -8 13
-5 21 3 7 1 16 -5 20 -6 3 -8 12 -5 19 4 11 -36 48 -54 50 -3 0 -11 4 -17 8
-7 5 -18 5 -25 1 -7 -4 -8 -3 -4 4 5 9 -8 12 -45 12 -29 0 -49 -3 -46 -6 8 -8
-57 -44 -79 -44 -14 0 -15 2 -3 17 13 15 10 16 -26 10 -22 -4 -34 -4 -27 -1 6
3 10 9 8 13 -2 3 13 6 35 6 22 0 43 6 47 12 9 14 54 21 68 11 6 -5 24 -7 41
-5z m1438 7 c3 -5 1 -10 -4 -10 -6 0 -11 5 -11 10 0 6 2 10 4 10 3 0 8 -4 11
-10z m-1735 -10 c0 -5 -8 -10 -17 -10 -15 0 -16 2 -3 10 19 12 20 12 20 0z
m1680 -4 c-8 -8 -28 -17 -45 -21 l-30 -6 35 19 c42 24 59 27 40 8z m165 -7
c-8 -12 -56 -32 -63 -25 -2 3 11 12 29 20 43 18 41 18 34 5z m-1380 -17 c-3
-3 -11 0 -18 7 -9 10 -8 11 6 5 10 -3 15 -9 12 -12z m688 3 c-3 -9 -8 -14 -10
-11 -3 3 -2 9 2 15 9 16 15 13 8 -4z m-1108 -5 c-3 -5 3 -10 13 -10 11 0 22
-7 26 -15 8 -22 -60 -21 -72 1 -9 17 -33 16 -137 -2 l-40 -7 30 -14 30 -14
-40 7 c-22 4 -55 7 -72 7 -18 1 -33 5 -33 10 0 4 -4 5 -10 2 -5 -3 -10 -1 -10
4 0 7 28 11 71 11 46 0 68 4 64 11 -5 7 21 9 79 8 48 -1 89 1 93 5 10 9 15 7
8 -4z m1635 -10 c-8 -5 -19 -10 -25 -10 -5 0 -3 5 5 10 8 5 20 10 25 10 6 0 3
-5 -5 -10z m285 0 c-7 -11 -65 -43 -65 -36 0 4 62 45 68 46 2 0 0 -5 -3 -10z
m-855 -21 c0 -5 -4 -9 -8 -9 -5 0 -9 7 -9 15 0 8 4 12 9 9 4 -3 8 -9 8 -15z
m809 17 c-10 -9 -69 -36 -69 -32 0 7 52 35 64 36 5 0 7 -2 5 -4z m-1602 -12
c-3 -3 -12 -4 -19 -1 -8 3 -5 6 6 6 11 1 17 -2 13 -5z m643 -4 c0 -5 -15 -10
-32 -9 -31 1 -32 1 -8 9 35 11 40 11 40 0z m675 0 c-3 -5 -14 -10 -23 -9 -14
0 -13 2 3 9 27 11 27 11 20 0z m-1678 -6 c-3 -3 -12 -4 -19 -1 -8 3 -5 6 6 6
11 1 17 -2 13 -5z m1583 -9 c-7 -8 -17 -15 -22 -15 -6 0 -5 7 2 15 7 8 17 15
22 15 6 0 5 -7 -2 -15z m-1341 -21 c2 -2 -15 -4 -38 -4 -26 0 -40 -4 -36 -10
3 -5 20 -10 38 -10 35 0 26 -20 -11 -23 -11 0 -20 -5 -19 -10 1 -5 -6 -11 -15
-12 -10 -2 -18 1 -18 7 0 6 -17 8 -42 4 -35 -4 -40 -3 -27 7 13 10 -4 12 -85
14 -66 1 -113 7 -136 17 -32 14 -33 15 -10 16 15 0 30 -4 35 -9 6 -5 47 -11
93 -13 52 -3 78 -1 70 4 -8 6 3 8 32 4 24 -2 46 -10 48 -15 2 -6 13 -11 25
-11 20 1 20 2 5 11 -25 14 -22 26 10 37 24 9 69 6 81 -4z m791 6 c0 -5 7 -7
15 -4 11 5 14 2 8 -12 -6 -18 -6 -18 15 0 21 18 21 18 9 -7 -10 -22 -13 -23
-32 -11 -12 8 -24 12 -26 9 -3 -2 -10 5 -17 15 -11 17 -10 20 8 20 11 0 20 -4
20 -10z m735 -2 c-26 -16 -131 -40 -119 -28 6 6 31 14 57 19 27 5 51 11 54 15
4 3 11 6 17 6 6 0 2 -6 -9 -12z m-2135 -8 c0 -5 -5 -10 -11 -10 -5 0 -7 5 -4
10 3 6 8 10 11 10 2 0 4 -4 4 -10z m448 3 c-10 -2 -28 -2 -40 0 -13 2 -5 4 17
4 22 1 32 -1 23 -4z m1454 -15 c-9 -9 -8 -16 5 -32 10 -12 11 -16 4 -9 -7 6
-20 9 -27 6 -8 -3 -14 -2 -14 3 0 9 31 44 39 44 3 0 0 -5 -7 -12z m378 -3 c0
-2 -9 -3 -19 -2 -11 0 -18 5 -15 9 4 6 34 0 34 -7z m-2593 -17 c-3 -8 -6 -5
-6 6 -1 11 2 17 5 13 3 -3 4 -12 1 -19z m383 12 c0 -5 -7 -7 -15 -4 -8 4 -15
8 -15 10 0 2 7 4 15 4 8 0 15 -4 15 -10z m37 4 c-3 -3 -12 -4 -19 -1 -8 3 -5
6 6 6 11 1 17 -2 13 -5z m98 -26 c5 -4 18 -8 30 -9 17 -1 16 -2 -5 -9 -24 -8
-23 -8 8 -9 44 -1 32 -19 -14 -19 -25 0 -34 4 -30 13 3 8 -9 15 -37 20 -23 4
-34 10 -25 12 10 3 15 10 11 19 -5 12 -1 13 23 2 16 -6 33 -15 39 -20z m1134
11 c-7 -4 -17 -5 -22 -2 -5 3 -3 9 4 14 7 4 17 5 22 2 5 -3 3 -9 -4 -14z
m1006 11 c-3 -5 -16 -15 -28 -21 -19 -9 -19 -8 3 10 28 23 34 26 25 11z
m-1419 -19 c18 3 25 -1 19 -11 -4 -7 -12 -7 -25 0 -14 8 -20 6 -23 -8 -3 -10
-5 -5 -6 12 -1 23 2 26 13 17 8 -6 18 -11 22 -10z m1069 9 c-3 -5 -12 -10 -19
-10 -8 0 -19 -7 -26 -15 -7 -9 -15 -13 -18 -10 -9 9 31 45 50 45 11 0 16 -4
13 -10z m-1866 -35 c64 -5 63 -15 -1 -15 -40 0 -59 5 -69 17 -12 15 -12 16 6
9 11 -5 40 -10 64 -11z m221 11 c0 -2 -13 -6 -30 -8 -16 -3 -30 -1 -30 4 0 4
14 8 30 8 17 0 30 -2 30 -4z m1734 -11 c-4 -8 -13 -15 -22 -15 -13 0 -12 3 4
15 24 18 25 18 18 0z m-220 -33 c-22 -21 -41 -37 -44 -34 -5 4 69 72 78 72 2
0 -13 -17 -34 -38z m466 34 c0 -2 -8 -10 -17 -17 -16 -13 -17 -12 -4 4 13 16
21 21 21 13z m-1390 -16 c0 -5 -2 -10 -4 -10 -3 0 -8 5 -11 10 -3 6 -1 10 4
10 6 0 11 -4 11 -10z m-633 -6 c-3 -3 -12 -4 -19 -1 -8 3 -5 6 6 6 11 1 17 -2
13 -5z m78 -4 c13 -6 15 -9 5 -9 -8 0 -22 4 -30 9 -18 12 -2 12 25 0z m1610 2
c-3 -3 0 -10 5 -17 16 -19 -14 -50 -49 -51 -18 0 -42 -10 -58 -25 -15 -13 -4
3 24 37 29 33 59 61 68 61 8 0 13 -3 10 -5z m-1510 -12 c7 -12 -2 -12 -30 0
-19 8 -19 9 2 9 12 1 25 -3 28 -9z m85 1 c0 -5 8 -12 18 -14 13 -4 14 -5 1 -6
-8 0 -24 6 -35 14 -17 13 -17 14 -1 15 9 0 17 -4 17 -9z m1345 -10 c-2 -10
-15 -30 -29 -46 -14 -15 -30 -43 -37 -62 -6 -19 -13 -32 -15 -30 -10 10 29 94
54 115 l27 24 -25 -7 c-24 -6 -24 -5 -6 9 26 21 36 20 31 -3z m-1717 -7 c21
-4 24 -3 12 5 -13 9 -13 11 1 11 9 0 23 -7 30 -17 13 -15 10 -16 -34 -11 -27
3 -54 11 -60 18 -9 10 -8 12 6 6 11 -3 31 -9 45 -12z m1612 1 c0 -8 -4 -15
-10 -15 -5 0 -7 7 -4 15 4 8 8 15 10 15 2 0 4 -7 4 -15z m240 0 c-7 -9 -15
-13 -17 -11 -7 7 7 26 19 26 6 0 6 -6 -2 -15z m65 -5 c13 -6 15 -9 5 -9 -8 0
-22 4 -30 9 -18 12 -2 12 25 0z m150 0 c3 -6 -1 -7 -9 -4 -18 7 -21 14 -7 14
6 0 13 -4 16 -10z m292 -12 c-3 -8 -6 -5 -6 6 -1 11 2 17 5 13 3 -3 4 -12 1
-19z m-2412 2 c13 -6 15 -9 5 -9 -8 0 -22 4 -30 9 -18 12 -2 12 25 0z m-415
-20 c6 -11 8 -20 6 -20 -3 0 -10 9 -16 20 -6 11 -8 20 -6 20 3 0 10 -9 16 -20z
m1271 -55 c5 -11 -2 -6 -16 10 -14 17 -31 39 -36 50 -6 11 1 7 15 -10 15 -16
31 -39 37 -50z m-61 45 c6 -11 8 -20 6 -20 -3 0 -10 9 -16 20 -6 11 -8 20 -6
20 3 0 10 -9 16 -20z m60 10 c0 -5 -2 -10 -4 -10 -3 0 -8 5 -11 10 -3 6 -1 10
4 10 6 0 11 -4 11 -10z m-854 -31 c4 -8 1 -8 -14 0 -12 6 -24 16 -28 22 -4 8
-1 8 14 0 12 -6 24 -16 28 -22z m1677 6 c-3 -9 -8 -14 -10 -11 -3 3 -2 9 2 15
9 16 15 13 8 -4z m-1568 -9 c-11 -8 -24 -12 -29 -8 -5 3 -1 9 10 13 31 12 39
10 19 -5z m-239 -24 c-9 -9 -37 8 -31 18 5 8 11 7 21 -1 8 -6 12 -14 10 -17z
m512 21 c-10 -2 -26 -2 -35 0 -10 3 -2 5 17 5 19 0 27 -2 18 -5z m413 -35
c-11 -11 -13 -10 -7 0 4 7 2 21 -5 30 -12 15 -11 15 6 0 16 -15 17 -20 6 -30z
m89 21 c0 -6 -4 -7 -10 -4 -5 3 -10 11 -10 16 0 6 5 7 10 4 6 -3 10 -11 10
-16z m-809 -9 l24 -21 -32 16 c-32 15 -42 25 -24 25 5 0 19 -9 32 -20z m1711
-22 c-3 -14 -2 -19 6 -14 7 4 12 1 12 -7 0 -8 -6 -17 -14 -20 -8 -3 -16 -16
-19 -29 -2 -13 -3 2 -1 32 1 30 0 44 -2 30 -7 -31 -24 -51 -24 -28 0 9 -3 25
-6 35 -4 13 -3 14 4 5 7 -11 10 -11 15 2 10 25 36 20 29 -6z m-1785 -13 c0
-17 0 -17 -21 -9 -22 8 -20 24 2 24 10 0 19 -7 19 -15z m1842 -65 c0 -15 -28
48 -28 65 0 11 6 2 14 -20 8 -22 15 -42 14 -45z m-1804 60 c3 -5 2 -10 -4 -10
-5 0 -13 5 -16 10 -3 6 -2 10 4 10 5 0 13 -4 16 -10z m1845 -10 c0 -5 -4 -10
-10 -10 -5 0 -10 5 -10 10 0 6 5 10 10 10 6 0 10 -4 10 -10z m-2091 -33 c0
-21 -1 -21 -9 -2 -12 28 -12 37 0 30 6 -3 10 -16 9 -28z m131 2 c0 -6 -5 -7
-12 -3 -8 5 -9 1 -4 -12 6 -15 4 -16 -5 -7 -14 14 -4 47 11 38 5 -3 10 -11 10
-16z m45 11 c3 -6 -1 -7 -9 -4 -18 7 -21 14 -7 14 6 0 13 -4 16 -10z m1702
-52 c-3 -8 -6 -5 -6 6 -1 11 2 17 5 13 3 -3 4 -12 1 -19z m-1300 -20 c-3 -7
-5 -2 -5 12 0 14 2 19 5 13 2 -7 2 -19 0 -25z m1533 -38 c0 9 7 7 23 -7 12
-11 36 -26 54 -34 17 -7 38 -25 47 -40 21 -35 21 -50 0 -21 -8 12 -20 19 -26
16 -6 -4 -8 -2 -4 4 3 6 1 14 -5 18 -8 5 -9 3 -4 -6 6 -10 4 -12 -8 -7 -11 4
-17 1 -17 -9 0 -8 4 -13 10 -9 5 3 24 -8 42 -26 36 -33 18 -29 -20 5 -13 12
-27 20 -30 19 -4 -2 -7 7 -7 20 0 15 -7 22 -19 22 -11 0 -21 6 -24 13 -2 6
-10 12 -18 12 -8 0 -14 3 -15 8 0 4 -2 16 -4 27 -4 20 -4 20 11 1 9 -13 14
-15 14 -6z m-133 -37 c-3 -10 -5 -2 -5 17 0 19 2 27 5 18 2 -10 2 -26 0 -35z
m-937 12 c7 -9 8 -15 2 -15 -5 0 -12 7 -16 15 -3 8 -4 15 -2 15 2 0 9 -7 16
-15z m984 -1 c3 -8 2 -12 -4 -9 -6 3 -10 10 -10 16 0 14 7 11 14 -7z m140 -99
c11 -8 16 -18 12 -22 -3 -4 -16 3 -28 15 -25 25 -13 29 16 7z m-1944 -25 c-8
-5 -19 -10 -25 -10 -5 0 -3 5 5 10 8 5 20 10 25 10 6 0 3 -5 -5 -10z m2046
-49 c1 -12 -1 -19 -4 -16 -3 2 -12 -1 -21 -8 -14 -10 -14 -10 -3 5 11 14 10
21 -5 45 l-18 28 25 -16 c14 -9 26 -26 26 -38z m-2069 -7 c-3 -3 -12 -4 -19
-1 -8 3 -5 6 6 6 11 1 17 -2 13 -5z m-37 -39 c-10 -12 -10 -15 3 -15 11 0 14
-5 10 -16 -5 -15 -7 -15 -15 0 -5 9 -15 13 -21 9 -7 -3 -3 3 7 15 21 25 36 31
16 7z m2106 3 c4 -7 3 -8 -4 -4 -7 4 -12 2 -12 -5 0 -7 -3 -10 -6 -6 -6 5 3
27 11 27 2 0 7 -5 11 -12z m-1893 -55 c-6 -16 -19 -17 -28 -2 -5 6 -12 4 -20
-8 -13 -17 -14 -17 -9 3 4 15 13 21 34 21 19 0 26 -4 23 -14z m-138 -3 c-3 -5
-10 -10 -16 -10 -5 0 -9 5 -9 10 0 6 7 10 16 10 8 0 12 -4 9 -10z m198 -17
c-7 -2 -19 -2 -25 0 -7 3 -2 5 12 5 14 0 19 -2 13 -5z"/>
<path d="M4755 5240 c-3 -5 -1 -10 4 -10 6 0 11 5 11 10 0 6 -2 10 -4 10 -3 0
-8 -4 -11 -10z"/>
<path d="M4977 5023 c-4 -3 -7 -11 -7 -17 0 -6 5 -5 12 2 6 6 9 14 7 17 -3 3
-9 2 -12 -2z"/>
<path d="M3150 5113 c0 -12 38 -48 45 -41 3 2 -6 15 -20 28 -14 13 -25 19 -25
13z"/>
<path d="M3320 4916 c0 -8 9 -14 19 -13 15 1 17 4 9 14 -14 17 -28 16 -28 -1z"/>
<path d="M3340 4686 c0 -2 7 -7 16 -10 8 -3 12 -2 9 4 -6 10 -25 14 -25 6z"/>
<path d="M3191 4903 c7 -12 15 -20 18 -17 3 2 -3 12 -13 22 -17 16 -18 16 -5
-5z"/>
<path d="M4770 4295 c-8 -9 -8 -15 -2 -15 12 0 26 19 19 26 -2 2 -10 -2 -17
-11z"/>
<path d="M4809 4293 c-13 -16 -12 -17 4 -4 16 13 21 21 13 21 -2 0 -10 -8 -17
-17z"/>
<path d="M3000 5696 c0 -2 7 -7 16 -10 8 -3 12 -2 9 4 -6 10 -25 14 -25 6z"/>
<path d="M4520 4955 c-31 -12 -32 -14 -10 -14 14 0 45 6 70 13 l45 15 -35 0
c-19 0 -51 -7 -70 -14z"/>
<path d="M4425 4931 c-13 -5 -4 -8 29 -8 26 -1 46 0 44 1 -10 9 -56 13 -73 7z"/>
<path d="M5452 4420 c0 -14 2 -19 5 -12 2 6 2 18 0 25 -3 6 -5 1 -5 -13z"/>
<path d="M1636 3870 c-3 -8 -39 -160 -80 -338 -56 -238 -76 -340 -76 -392 l0
-69 143 -3 142 -3 3 -112 3 -113 74 0 75 0 0 110 0 110 55 0 55 0 0 65 0 65
-50 0 -50 0 0 170 0 170 -75 0 -75 0 0 -97 c0 -54 -3 -128 -7 -165 l-6 -68
-65 0 c-61 0 -64 1 -59 23 34 142 140 648 136 651 -2 2 -34 6 -71 8 -55 3 -69
1 -72 -12z"/>
<path d="M2195 3375 l0 -335 132 0 c81 0 142 5 158 12 52 23 55 44 55 332 l0
264 -26 31 -26 31 -146 0 -147 0 0 -335z m213 217 c9 -7 12 -57 10 -218 l-3
-209 -47 -3 -48 -3 0 215 c0 162 3 216 13 219 19 8 61 7 75 -1z"/>
<path d="M6088 3684 c-15 -8 -32 -23 -38 -34 -5 -10 -10 -80 -10 -155 l0 -137
29 -29 c28 -27 34 -29 109 -29 91 0 92 -1 92 -83 0 -70 -8 -79 -61 -75 l-44 3
1 48 0 47 -66 0 -65 0 1 -67 c1 -38 2 -74 3 -81 1 -7 13 -24 27 -37 25 -23 34
-25 139 -25 111 0 113 0 145 30 l32 29 -4 142 c-3 140 -3 141 -31 165 -24 21
-38 24 -101 24 -91 0 -98 7 -94 92 l3 63 53 3 54 3 -4 -48 -3 -48 63 -3 62 -3
0 71 c0 74 -16 122 -48 139 -29 15 -213 12 -244 -5z"/>
<path d="M5155 3335 l0 -335 62 0 63 0 2 188 3 187 75 -185 75 -185 60 -3 60
-3 0 336 0 335 -62 0 -63 0 -2 -185 -3 -186 -73 186 -73 185 -62 0 -62 0 0
-335z"/>
<path d="M3235 3270 l0 -350 170 2 170 3 11 63 c6 34 8 62 5 63 -3 0 -57 0
-119 -1 l-113 -1 3 83 3 83 53 -3 52 -3 0 65 0 66 -55 0 -55 0 0 81 0 81 116
-4 116 -3 -7 55 c-4 30 -9 58 -12 63 -2 4 -79 7 -171 7 l-167 0 0 -350z"/>
<path d="M3715 3611 c-11 -5 -29 -19 -40 -31 -19 -21 -20 -39 -23 -282 -5
-353 -7 -348 176 -348 112 0 114 0 142 29 26 25 29 35 29 95 0 36 3 70 6 76 4
6 -20 10 -65 10 l-71 0 7 -45 6 -45 -50 0 c-36 0 -52 4 -56 16 -3 9 -6 98 -6
199 0 101 3 190 6 199 4 12 20 16 56 16 l50 0 -6 -45 -7 -45 55 -1 c31 -1 61
-2 68 -3 16 -1 11 130 -7 164 -7 14 -25 31 -40 38 -29 13 -199 15 -230 3z"/>
<path d="M5635 3280 l0 -330 166 0 166 0 10 59 9 59 -103 -6 c-127 -6 -133 -3
-133 83 0 76 10 87 74 79 l46 -7 0 67 0 66 -55 0 -55 0 0 76 0 76 115 -4 c112
-3 116 -2 111 17 -2 11 -8 37 -11 58 l-7 37 -167 0 -166 0 0 -330z"/>
<path d="M4100 3569 l-31 -31 3 -294 3 -293 29 -30 30 -31 117 0 c110 0 119 2
147 25 26 22 30 32 35 97 3 40 9 81 12 91 7 16 1 18 -66 15 l-73 -3 3 -48 3
-48 -54 3 -53 3 0 225 0 225 54 3 54 3 -5 -50 -5 -51 71 0 71 0 -6 78 c-6 82
-18 115 -49 132 -10 5 -73 10 -139 10 l-119 0 -32 -31z"/>
<path d="M4773 3580 c-18 -11 -35 -30 -38 -42 -3 -13 -5 -144 -3 -291 l3 -269
28 -24 c26 -22 36 -24 141 -24 110 0 113 1 139 28 l27 28 0 276 c0 318 1 314
-86 329 -92 15 -176 11 -211 -11z m182 -320 l0 -215 -29 -3 c-15 -2 -39 -1
-52 2 l-24 6 0 209 c0 114 3 211 7 215 4 4 28 6 53 4 l45 -3 0 -215z"/>
<path d="M4535 3275 l0 -315 60 0 60 0 0 315 0 315 -60 0 -60 0 0 -315z"/>
<path d="M2615 3230 l0 -330 63 0 62 0 0 314 c0 173 3 321 6 330 5 14 -4 16
-62 16 l-69 0 0 -330z"/>
<path d="M2825 3215 l0 -335 63 0 62 0 0 124 c0 108 2 125 17 130 22 9 41 -16
49 -63 4 -20 13 -60 20 -90 8 -30 11 -64 8 -77 -6 -23 -4 -24 58 -24 36 0 67
2 70 5 3 3 -8 58 -24 121 -30 121 -30 147 3 164 18 10 19 23 19 169 0 158 0
158 -26 185 -26 26 -28 26 -173 26 l-146 0 0 -335z m223 128 l-3 -88 -46 -3
-47 -3 -4 83 c-3 46 -3 86 -1 91 2 4 27 7 54 7 l50 0 -3 -87z"/>
<path d="M2482 2548 c-26 -109 -26 -108 -8 -108 8 0 17 11 20 25 5 18 13 25
30 25 17 0 26 -7 30 -25 4 -14 13 -25 21 -25 19 0 19 -3 -8 105 -19 73 -27 91
-43 93 -17 2 -23 -9 -42 -90z m57 -10 c1 -10 -6 -18 -14 -18 -16 0 -19 20 -8
60 l7 25 7 -25 c4 -14 7 -33 8 -42z"/>
<path d="M2650 2556 c0 -64 4 -88 16 -100 18 -18 47 -20 75 -6 17 9 19 22 19
100 0 72 -3 90 -15 90 -11 0 -15 -18 -17 -82 -3 -75 -5 -83 -23 -83 -18 0 -20
8 -23 83 -2 64 -6 82 -17 82 -12 0 -15 -17 -15 -84z"/>
<path d="M2840 2539 l0 -102 46 6 c26 2 50 11 55 18 12 19 11 136 -1 160 -8
14 -21 19 -55 19 l-45 0 0 -101z m68 3 c3 -67 1 -72 -18 -72 -18 0 -20 6 -20
76 0 66 2 75 18 72 14 -3 18 -16 20 -76z"/>
<path d="M3010 2630 c0 -5 5 -10 10 -10 6 0 10 -32 10 -75 0 -43 -4 -75 -10
-75 -5 0 -10 -7 -10 -15 0 -10 11 -15 35 -15 34 0 46 12 25 25 -5 3 -10 40
-10 81 0 43 4 74 10 74 6 0 10 5 10 10 0 6 -16 10 -35 10 -19 0 -35 -4 -35
-10z"/>
<path d="M3150 2621 c-5 -11 -10 -47 -10 -81 0 -80 11 -100 55 -100 52 0 65
20 65 104 0 43 -5 77 -12 84 -20 20 -86 15 -98 -7z m69 -15 c7 -9 11 -38 9
-73 -3 -54 -5 -58 -28 -58 -24 0 -25 3 -28 64 -2 45 1 67 10 72 18 12 24 11
37 -5z"/>
<path d="M3711 2623 c0 -10 8 -54 18 -98 14 -66 21 -80 37 -80 16 0 22 13 36
75 21 96 22 120 4 120 -10 0 -18 -23 -27 -71 -14 -78 -22 -73 -35 21 -4 32
-11 50 -20 50 -8 0 -14 -8 -13 -17z"/>
<path d="M3880 2631 c0 -6 5 -13 10 -16 6 -3 10 -37 10 -76 0 -39 -4 -69 -10
-69 -5 0 -10 -7 -10 -15 0 -10 11 -15 35 -15 34 0 46 12 25 25 -5 3 -10 40
-10 81 0 43 4 74 10 74 6 0 10 5 10 10 0 6 -16 10 -35 10 -19 0 -35 -4 -35 -9z"/>
<path d="M4024 2632 c-37 -24 -16 -102 27 -102 17 0 20 -5 17 -32 -2 -28 -8
-34 -30 -36 -39 -5 -35 -22 5 -22 44 0 57 15 57 67 0 33 -4 45 -17 49 -35 11
-48 22 -48 40 0 14 8 20 33 22 17 2 32 7 32 13 0 11 -60 12 -76 1z"/>
<path d="M4160 2630 c0 -5 5 -10 10 -10 6 0 10 -32 10 -75 0 -43 -4 -75 -10
-75 -5 0 -10 -7 -10 -15 0 -10 11 -15 35 -15 24 0 35 5 35 15 0 8 -4 15 -10
15 -6 0 -10 32 -10 75 0 43 4 75 10 75 6 0 10 5 10 10 0 6 -16 10 -35 10 -19
0 -35 -4 -35 -10z"/>
<path d="M4300 2621 c-5 -11 -10 -47 -10 -81 0 -82 11 -100 58 -100 21 0 43 5
50 12 16 16 16 160 0 176 -20 20 -86 15 -98 -7z m68 -10 c9 -5 12 -27 10 -72
-3 -61 -4 -64 -28 -64 -23 0 -25 4 -28 58 -4 72 13 100 46 78z"/>
<path d="M4480 2540 c0 -82 3 -100 15 -100 12 0 15 15 16 68 l1 67 17 -65 c14
-53 21 -66 39 -68 21 -3 22 -1 22 97 0 83 -3 101 -15 101 -11 0 -15 -13 -16
-57 l-1 -58 -15 58 c-13 49 -18 57 -39 57 -24 0 -24 -1 -24 -100z"/>
<path d="M4681 2555 c-11 -46 -21 -91 -21 -100 0 -24 28 -18 32 8 4 31 58 38
58 7 0 -11 7 -23 15 -27 28 -10 29 -12 -16 160 -7 26 -15 37 -28 37 -15 0 -23
-17 -40 -85z m58 -22 c1 -7 -8 -13 -18 -13 -15 0 -18 5 -14 23 10 47 15 53 23
27 5 -14 8 -31 9 -37z"/>
<path d="M4850 2540 c0 -82 3 -100 15 -100 11 0 15 11 15 40 0 22 5 40 11 40
6 0 18 -18 26 -40 11 -26 22 -40 34 -40 17 0 17 2 -1 42 -16 37 -17 44 -4 62
34 49 6 96 -57 96 l-39 0 0 -100z m68 42 c3 -27 0 -32 -17 -32 -17 0 -21 6
-21 36 0 28 3 35 18 32 11 -2 18 -14 20 -36z"/>
<path d="M5020 2630 c0 -5 5 -10 10 -10 6 0 10 -32 10 -75 0 -43 -4 -75 -10
-75 -5 0 -10 -7 -10 -15 0 -10 11 -15 35 -15 34 0 46 12 25 25 -5 3 -10 40
-10 81 0 43 4 74 10 74 6 0 10 5 10 10 0 6 -16 10 -35 10 -19 0 -35 -4 -35
-10z"/>
<path d="M5163 2633 c-9 -3 -13 -32 -13 -93 0 -95 3 -100 59 -100 42 0 51 17
51 100 0 46 -5 81 -12 88 -12 12 -62 15 -85 5z m55 -22 c9 -5 12 -27 10 -72
-3 -61 -4 -64 -28 -64 -24 0 -25 3 -28 64 -3 59 5 81 28 81 3 0 11 -4 18 -9z"/>
<path d="M5322 2628 c-16 -16 -15 -73 1 -86 6 -5 21 -12 32 -14 15 -2 20 -11
20 -33 0 -25 -4 -31 -27 -33 -37 -4 -36 -22 1 -22 37 0 61 23 61 59 0 33 -18
58 -45 63 -14 2 -20 11 -20 28 0 20 6 26 28 28 15 2 27 8 27 13 0 13 -64 11
-78 -3z"/>
<path d="M3440 2530 c0 -5 23 -10 50 -10 28 0 50 5 50 10 0 6 -22 10 -50 10
-27 0 -50 -4 -50 -10z"/>
</g>
</svg>
