<?xml version="1.0" encoding="utf-8"?>
<!-- Generator: Adobe Illustrator 18.1.1, SVG Export Plug-In . SVG Version: 6.00 Build 0)  -->
<svg version="1.0" id="Capa_1" xmlns="http://www.w3.org/2000/svg" xmlns:xlink="http://www.w3.org/1999/xlink" x="0px" y="0px"
	 viewBox="0 0 54.3 44.2" enable-background="new 0 0 54.3 44.2" xml:space="preserve">
<g>
	<g>
		<g>
			<path fill="#FFFF01" d="M41.9,4.2h-36v16.6c0,4.3,3.5,7.9,7.9,7.9h20.2L45.1,40l-0.2-11.3h3.5v-18C48.4,7.1,45.5,4.2,41.9,4.2z"
				/>
		</g>
		<g>
			<path d="M41,13.8c-0.9,0-1.8,0-2.7,0c0.1-0.5,0.1-1,0.2-1.5c0-0.4-0.2-0.6-0.6-0.6c-0.4,0-0.7,0-1.1,0c-0.6,0-0.7,0.1-0.7,0.7
				c0,2.2,0,4.4,0,6.6c0,0.6,0,1.1,0,1.7c0,0.4,0.2,0.5,0.5,0.5c0.4,0,0.9,0,1.3,0c0.3,0,0.5-0.1,0.5-0.4c0-0.8,0-1.6,0-2.4
				c-0.2,0-0.4,0-0.7,0c-0.2-0.8-0.3-1.5-0.5-2.3c1.3,0,2.5,0,3.8,0c-0.1,0.5-0.2,1-0.2,1.4c0,1.5,0,3,0,4.5c0,0.4-0.1,0.6-0.3,0.9
				c-0.5,0.7-1.1,0.9-2,0.8c-1-0.1-2.1,0-3.1,0c-0.3,0-0.5-0.1-0.8-0.3c-0.7-0.5-0.9-1.2-0.9-2.1c0.1-3.3,0-6.7,0-10
				c0-0.4,0.1-0.7,0.4-1c0.5-0.6,1.1-0.8,1.9-0.8c1,0.1,2.1,0,3.1,0c0.4,0,0.6,0.1,0.9,0.4c0.6,0.5,0.9,1.1,0.8,1.9
				C40.8,12.3,40.9,13,41,13.8z"/>
			<path d="M29.1,17.7c0-0.4,0-0.8,0-1.1c0-1.7,0-3.4,0-5c0-0.7-0.1-1.4-0.1-2.2c0.9,0,1.8,0,2.7,0c-0.3,2.9-0.1,5.9-0.1,8.8
				c0,1,0,2,0,2.9c0,0.8,0.1,1.6,0.1,2.4c-0.7,0-1.5,0-2.4,0c-0.1,0-0.2-0.2-0.3-0.4c-1-2.5-2-5-3-7.5c-0.1-0.2-0.1-0.3-0.2-0.5
				c0.1,2.8-0.2,5.6,0.1,8.4c-0.8,0-1.8,0-2.6,0c0-1,0.1-1.9,0.1-2.8c0-3,0-5.9,0-8.9c0-0.8-0.1-1.6-0.1-2.5c0.7,0,1.5,0,2.3,0
				c0.1,0,0.3,0.2,0.3,0.4c1,2.5,2,5,3,7.5C28.9,17.4,28.9,17.6,29.1,17.7C29,17.7,29.1,17.7,29.1,17.7z"/>
			<path d="M16.9,14.3c-0.1,0.5,0.1,0.8,0.5,0.8c0.6,0,1.2-0.1,1.8-0.2v2.7c-0.6-0.1-1.2-0.1-1.8-0.2c-0.4,0-0.6,0.1-0.6,0.6
				c0,0.8,0,1.7,0,2.5c0,0.3,0.2,0.5,0.5,0.5c1.1,0,2.2,0,3.3,0c0.3,0,0.7-0.1,1.1-0.2c-0.1,0.9-0.3,1.7-0.4,2.6h-6.9
				c0-0.8,0.1-1.6,0.1-2.4c0-3,0-6.1,0-9.1c0-0.9-0.1-1.8-0.1-2.7h6.9c0.1,0.8,0.3,1.7,0.4,2.6c-1.5-0.4-2.9-0.2-4.4-0.3
				c-0.3,0-0.6,0.3-0.5,0.6C17,12.9,17,13.6,16.9,14.3z"/>
		</g>
	</g>
</g>
</svg>
