<?xml version="1.0" encoding="utf-8"?>
<!-- Generator: Adobe Illustrator 16.0.0, SVG Export Plug-In . SVG Version: 6.00 Build 0)  -->
<!DOCTYPE svg PUBLIC "-//W3C//DTD SVG 1.1 Basic//EN" "http://www.w3.org/Graphics/SVG/1.1/DTD/svg11-basic.dtd">
<svg version="1.1" baseProfile="basic" id="Capa_1" xmlns="http://www.w3.org/2000/svg" xmlns:xlink="http://www.w3.org/1999/xlink"
	 x="0px" y="0px" width="39.833px" height="27.333px" viewBox="0 0 39.833 27.333" xml:space="preserve">
<g>
	<path d="M38.875,1.133L28.37,1.134L0.958,1.159l0.016,17.128l5.264-0.002l-0.104,7.916l7.861-7.924l20.339-0.018L38.875,1.133z
		 M12.054,8.667c0.402-0.025,0.806-0.066,1.234-0.103c0,0.588-0.001,1.215-0.002,1.815c-0.395-0.037-0.795-0.078-1.195-0.111
		c-0.273-0.022-0.406,0.096-0.402,0.382c0.01,0.552,0.006,1.104,0,1.656c-0.002,0.247,0.113,0.366,0.359,0.366
		c0.738,0,1.475,0.012,2.211-0.006c0.227-0.005,0.451-0.09,0.734-0.15c-0.094,0.589-0.184,1.156-0.277,1.743
		c-1.592-0.002-3.178-0.004-4.7-0.005c0.032-0.538,0.087-1.061,0.09-1.584c0.013-2.031,0.015-4.063,0.007-6.095
		c-0.004-0.596-0.051-1.19-0.08-1.796c1.496,0.002,3.072,0.003,4.687,0.005c0.093,0.565,0.187,1.132,0.284,1.723
		c-1.002-0.303-1.986-0.124-2.957-0.172c-0.232-0.011-0.35,0.113-0.35,0.344c-0.001,0.553-0.002,1.104-0.002,1.656
		C11.694,8.573,11.829,8.682,12.054,8.667z M19.005,6.38c-0.295,0.007-0.59-0.001-0.885,0.003c-0.215,0.002-0.33,0.111-0.332,0.329
		c0,0.562-0.004,1.125,0,1.688C17.79,8.65,17.94,8.74,18.179,8.738c0.568-0.003,1.138,0.011,1.705-0.005
		c0.232-0.006,0.379,0.09,0.555,0.226c0.455,0.353,0.602,0.777,0.57,1.349c-0.051,0.956-0.021,1.916-0.012,2.875
		c0.004,0.226-0.083,0.373-0.221,0.548c-0.363,0.463-0.81,0.607-1.393,0.565c-0.682-0.05-1.369-0.023-2.053-0.008
		c-0.24,0.005-0.398-0.092-0.584-0.229c-0.46-0.345-0.641-0.758-0.59-1.335c0.041-0.467-0.047-0.944-0.08-1.426
		c0.582,0.001,1.211,0.001,1.857,0.002c-0.052,0.307-0.128,0.604-0.145,0.905c-0.025,0.427,0.055,0.491,0.48,0.492
		c0.252,0.001,0.504,0.001,0.758,0.001c0.24-0.001,0.37-0.11,0.369-0.359c-0.002-0.542-0.002-1.084,0.002-1.625
		c0.002-0.26-0.118-0.381-0.383-0.38c-0.568,0.004-1.137-0.009-1.705,0.005c-0.219,0.005-0.359-0.089-0.527-0.21
		c-0.514-0.366-0.656-0.834-0.621-1.447c0.053-0.935,0.021-1.875,0.011-2.812c-0.003-0.226,0.079-0.372,0.226-0.543
		c0.387-0.452,0.842-0.607,1.436-0.562c0.691,0.052,1.39,0.02,2.084,0.01c0.205-0.004,0.34,0.077,0.499,0.196
		c0.481,0.36,0.642,0.807,0.595,1.399c-0.035,0.454,0.061,0.918,0.1,1.394c-0.579-0.001-1.216-0.002-1.846-0.002
		c0.045-0.326,0.098-0.657,0.133-0.989C19.431,6.49,19.279,6.375,19.005,6.38z M27.636,9.579c0.002,0.225-0.082,0.373-0.221,0.549
		c-0.371,0.468-0.818,0.655-1.419,0.585c-0.396-0.046-0.8-0.005-1.2-0.011c-0.279-0.005-0.396,0.119-0.395,0.396
		c0.008,0.813-0.011,1.627,0.008,2.439c0.006,0.241,0.104,0.481,0.162,0.736c-0.641,0-1.277-0.001-1.953-0.001
		c0.326-0.667,0.193-1.362,0.199-2.042c0.018-1.928,0.016-3.856,0.007-5.785c-0.003-0.544-0.056-1.088-0.087-1.666
		c0.107,0,0.291,0.001,0.476,0.001c1.096,0.001,2.191,0.009,3.286-0.003c0.242-0.003,0.398,0.094,0.582,0.234
		c0.446,0.343,0.59,0.755,0.566,1.314C27.599,7.409,27.626,8.495,27.636,9.579z"/>
	<path fill="#FFFFFF" d="M12.046,6.336c0.971,0.048,1.955-0.131,2.957,0.172c-0.098-0.591-0.191-1.157-0.284-1.723
		c-1.614-0.002-3.19-0.003-4.687-0.005c0.029,0.605,0.076,1.2,0.08,1.796c0.008,2.031,0.006,4.063-0.007,6.095
		c-0.003,0.523-0.058,1.046-0.09,1.584c1.522,0.001,3.108,0.003,4.7,0.005c0.094-0.587,0.184-1.154,0.277-1.743
		c-0.283,0.061-0.508,0.146-0.734,0.15c-0.736,0.018-1.473,0.006-2.211,0.006c-0.246,0-0.361-0.119-0.359-0.366
		c0.006-0.553,0.01-1.104,0-1.656c-0.004-0.286,0.129-0.404,0.402-0.382c0.4,0.033,0.801,0.074,1.195,0.111
		c0.001-0.601,0.002-1.228,0.002-1.815c-0.429,0.036-0.832,0.077-1.234,0.103c-0.225,0.015-0.359-0.094-0.359-0.331
		c0-0.552,0.001-1.104,0.002-1.656C11.696,6.449,11.813,6.325,12.046,6.336z"/>
	<path fill="#FFFFFF" d="M21.112,7.763c-0.039-0.476-0.135-0.939-0.1-1.394c0.047-0.593-0.113-1.039-0.595-1.399
		c-0.159-0.119-0.294-0.2-0.499-0.196c-0.694,0.01-1.393,0.042-2.084-0.01c-0.594-0.045-1.049,0.11-1.436,0.562
		c-0.146,0.171-0.229,0.317-0.226,0.543c0.011,0.938,0.042,1.878-0.011,2.812c-0.035,0.613,0.107,1.081,0.621,1.447
		c0.168,0.121,0.309,0.215,0.527,0.21c0.568-0.014,1.137-0.001,1.705-0.005c0.265-0.001,0.385,0.12,0.383,0.38
		c-0.004,0.541-0.004,1.083-0.002,1.625c0.001,0.249-0.129,0.358-0.369,0.359c-0.254,0-0.506,0-0.758-0.001
		c-0.426-0.001-0.506-0.065-0.48-0.492c0.017-0.301,0.093-0.599,0.145-0.905c-0.646-0.001-1.275-0.001-1.857-0.002
		c0.033,0.481,0.121,0.959,0.08,1.426c-0.051,0.577,0.13,0.99,0.59,1.335c0.186,0.138,0.344,0.234,0.584,0.229
		c0.684-0.016,1.371-0.042,2.053,0.008c0.583,0.042,1.029-0.103,1.393-0.565c0.138-0.175,0.225-0.322,0.221-0.548
		c-0.01-0.959-0.039-1.919,0.012-2.875c0.031-0.571-0.115-0.996-0.57-1.349c-0.176-0.136-0.322-0.231-0.555-0.226
		c-0.567,0.016-1.137,0.002-1.705,0.005C17.94,8.74,17.79,8.65,17.788,8.399c-0.004-0.562,0-1.125,0-1.688
		c0.002-0.218,0.117-0.327,0.332-0.329c0.295-0.004,0.59,0.004,0.885-0.003c0.274-0.005,0.426,0.11,0.395,0.392
		c-0.035,0.332-0.088,0.663-0.133,0.989C19.896,7.761,20.533,7.762,21.112,7.763z"/>
	<path fill="#FFFFFF" d="M27.081,5.013c-0.184-0.141-0.34-0.237-0.582-0.234c-1.095,0.012-2.19,0.004-3.286,0.003
		c-0.185,0-0.368-0.001-0.476-0.001c0.031,0.578,0.084,1.122,0.087,1.666c0.009,1.929,0.011,3.857-0.007,5.785
		c-0.006,0.68,0.127,1.375-0.199,2.042c0.676,0,1.312,0.001,1.953,0.001c-0.059-0.255-0.156-0.495-0.162-0.736
		c-0.019-0.812,0-1.626-0.008-2.439c-0.002-0.277,0.115-0.401,0.395-0.396c0.4,0.006,0.805-0.035,1.2,0.011
		c0.601,0.07,1.048-0.117,1.419-0.585c0.139-0.176,0.223-0.324,0.221-0.549c-0.01-1.084-0.037-2.17,0.012-3.252
		C27.671,5.768,27.527,5.355,27.081,5.013z M26.011,8.742c0.001,0.268-0.129,0.374-0.389,0.366c-0.273-0.008-0.547-0.009-0.82-0.001
		c-0.275,0.008-0.408-0.103-0.397-0.387c0.012-0.322,0.003-0.645,0.003-0.968c0.001-0.333,0.008-0.666,0-0.999
		c-0.006-0.248,0.107-0.366,0.355-0.366c0.293,0,0.588,0.003,0.883,0c0.246-0.002,0.367,0.106,0.366,0.357
		C26.007,7.411,26.006,8.076,26.011,8.742z"/>
	<path d="M25.646,6.388c-0.295,0.003-0.59,0-0.883,0c-0.248,0-0.361,0.118-0.355,0.366c0.008,0.333,0.001,0.666,0,0.999
		c0,0.323,0.009,0.646-0.003,0.968c-0.011,0.284,0.122,0.395,0.397,0.387c0.273-0.008,0.547-0.007,0.82,0.001
		c0.26,0.008,0.39-0.099,0.389-0.366c-0.005-0.666-0.004-1.331,0.001-1.997C26.013,6.494,25.892,6.386,25.646,6.388z"/>
</g>
</svg>
