<svg xmlns="http://www.w3.org/2000/svg" viewBox="0 0 39.8 27.3"><g fill="#FFF"><path d="M34.8 16.4H13.5l-5.8 5.8.1-5.8H2.9V3.1L38.4 3l.5-1.9H28.4L1 1.2v17.1h5.2l-.1 7.9 7.9-7.9h20.3z"/><path d="M12 6.3c1 0 2-.1 3 .2-.1-.6-.2-1.2-.3-1.7H10c0 .6.1 1.2.1 1.8v6.1c0 .5-.1 1-.1 1.6h4.7c.1-.6.2-1.2.3-1.7-.3.1-.5.1-.7.1h-2.2c-.2 0-.4-.1-.4-.4v-1.7c0-.3.1-.4.4-.4.4 0 .8.1 1.2.1V8.5c-.4 0-.8.1-1.2.1-.2 0-.4-.1-.4-.3V6.6c0-.2.1-.3.3-.3zM21.1 7.8c0-.5-.1-.9-.1-1.4 0-.6-.1-1-.6-1.4-.2-.1-.3-.2-.5-.2h-2.1c-.6 0-1 .1-1.4.6-.1.2-.2.3-.2.5v2.8c0 .6.1 1.1.6 1.4.2.1.3.2.5.2H19c.3 0 .4.1.4.4v1.6c0 .3-.1.4-.4.4h-.8c-.4 0-.5-.1-.5-.5 0-.3.1-.6.1-.9h-1.9c0 .5.1 1 .1 1.4-.1.6.1 1 .6 1.3.2.1.3.2.6.2h2.1c.6 0 1-.1 1.4-.6.1-.2.2-.3.2-.5v-2.9c0-.6-.1-1-.6-1.4-.2-.1-.3-.2-.6-.2H18c-.2 0-.4-.1-.4-.3V6.6c0-.2.1-.3.3-.3h.9c.3 0 .4.1.4.4 0 .3-.1.7-.1 1 .8.1 1.4.1 2 .1zM27.1 5c-.2-.1-.3-.2-.6-.2h-3.8c0 .6.1 1.1.1 1.7v5.8c0 .7.1 1.4-.2 2h2c-.1-.3-.2-.5-.2-.7v-2.4c0-.3.1-.4.4-.4H26c.6.1 1-.1 1.4-.6.1-.2.2-.3.2-.5V6.4c.1-.6-.1-1-.5-1.4zM26 8.7c0 .3-.1.4-.4.4h-.8c-.3 0-.4-.1-.4-.4v-1-1c0-.2.1-.4.4-.4h.9c.2 0 .4.1.4.4-.1.7-.1 1.4-.1 2z"/><path d="M25.6 6.4h-.9c-.2 0-.4.1-.4.4v2c0 .3.1.4.4.4h.8c.4-.1.5-.2.5-.5v-2c0-.2-.1-.3-.4-.3z"/></g></svg>