<svg xmlns="http://www.w3.org/2000/svg" viewBox="0 0 39.8 27.3"><path fill="#FFF" d="M38.9 1.1H28.4L1 1.2v17.1h5.3l-.1 7.9 7.9-7.9h20.3l4.5-17.2zM12.1 8.7c.4 0 .8-.1 1.2-.1v1.8c-.4 0-.8-.1-1.2-.1-.3 0-.4.1-.4.4v1.7c0 .2.1.4.4.4h2.2c.2 0 .5-.1.7-.1-.1.6-.2 1.2-.3 1.7H10c0-.5.1-1.1.1-1.6V6.7c0-.6-.1-1.2-.1-1.8h4.7c.1.6.2 1.1.3 1.7-1-.3-2-.1-3-.2-.2 0-.4.1-.4.3v1.7c.1.2.2.3.5.3zM19 6.4h-.9c-.2 0-.3.1-.3.3v1.7c0 .3.2.3.4.3h1.7c.2 0 .4.1.6.2.5.4.6.8.6 1.3-.1 1 0 1.9 0 2.9 0 .2-.1.4-.2.5-.4.5-.8.6-1.4.6-.7-.1-1.4 0-2.1 0-.2 0-.4-.1-.6-.2-.5-.3-.6-.8-.6-1.3s0-.9-.1-1.4H18c-.1.3-.1.6-.1.9 0 .4.1.5.5.5h.8c.2 0 .4-.1.4-.4v-1.6c0-.3-.1-.4-.4-.4h-1.7c-.2 0-.4-.1-.5-.2-.5-.4-.7-.8-.6-1.4.1-.9 0-1.9 0-2.8 0-.2.1-.4.2-.5.4-.5.8-.6 1.4-.6.7.1 1.4 0 2.1 0 .2 0 .3.1.5.2.5.4.6.8.6 1.4 0 .5.1.9.1 1.4h-1.8c0-.3.1-.7.1-1-.2-.3-.3-.4-.6-.4zm8.6 3.2c0 .2-.1.4-.2.5-.4.5-.8.7-1.4.6h-1.2c-.3 0-.4.1-.4.4v2.4c0 .2.1.5.2.7h-2c.3-.7.2-1.4.2-2V6.4c0-.5-.1-1.1-.1-1.7h3.8c.2 0 .4.1.6.2.4.3.6.8.6 1.3-.1 1.2-.1 2.3-.1 3.4z"/><path d="M12 6.3c1 0 2-.1 3 .2-.1-.6-.2-1.2-.3-1.7H10c0 .6.1 1.2.1 1.8v6.1c0 .5-.1 1-.1 1.6h4.7c.1-.6.2-1.2.3-1.7-.3.1-.5.1-.7.1h-2.2c-.2 0-.4-.1-.4-.4v-1.7c0-.3.1-.4.4-.4.4 0 .8.1 1.2.1V8.5c-.4 0-.8.1-1.2.1-.2 0-.4-.1-.4-.3V6.6c0-.2.1-.3.3-.3zM21.1 7.8c0-.5-.1-.9-.1-1.4 0-.6-.1-1-.6-1.4-.2-.1-.3-.2-.5-.2h-2.1c-.6 0-1 .1-1.4.6-.1.2-.2.3-.2.5v2.8c0 .6.1 1.1.6 1.4.2.1.3.2.5.2H19c.3 0 .4.1.4.4v1.6c0 .2-.1.4-.4.4h-.8c-.4 0-.5-.1-.5-.5 0-.3.1-.6.1-.9h-1.9c0 .5.1 1 .1 1.4-.1.6.1 1 .6 1.3.2.1.3.2.6.2h2.1c.6 0 1-.1 1.4-.6.1-.2.2-.3.2-.5v-2.9c0-.6-.1-1-.6-1.3-.2-.1-.3-.2-.6-.2H18c-.2 0-.4-.1-.4-.3V6.7c0-.2.1-.3.3-.3h.9c.3 0 .4.1.4.4 0 .3-.1.7-.1 1h2zM27.1 5c-.2-.1-.3-.2-.6-.2h-3.8c0 .6.1 1.1.1 1.7v5.8c0 .7.1 1.4-.2 2h2c-.1-.3-.2-.5-.2-.7v-2.4c0-.3.1-.4.4-.4H26c.6.1 1-.1 1.4-.6.1-.2.2-.3.2-.5V6.4c.1-.6-.1-1-.5-1.4zM26 8.7c0 .3-.1.4-.4.4h-.8c-.3 0-.4-.1-.4-.4v-1-1c0-.2.1-.4.4-.4h.9c.2 0 .4.1.4.4-.1.7-.1 1.4-.1 2z"/><path fill="#FFF" d="M25.6 6.4h-.9c-.2 0-.4.1-.4.4v2c0 .3.1.4.4.4h.8c.4-.1.5-.2.5-.5v-2c0-.2-.1-.3-.4-.3z"/></svg>