<?xml version="1.0" encoding="utf-8"?>
<!-- Generator: Adobe Illustrator 16.0.0, SVG Export Plug-In . SVG Version: 6.00 Build 0)  -->
<!DOCTYPE svg PUBLIC "-//W3C//DTD SVG 1.1 Basic//EN" "http://www.w3.org/Graphics/SVG/1.1/DTD/svg11-basic.dtd">
<svg version="1.1" baseProfile="basic" id="Capa_1" xmlns="http://www.w3.org/2000/svg" xmlns:xlink="http://www.w3.org/1999/xlink"
	 x="0px" y="0px" width="39.833px" height="27.333px" viewBox="0 0 39.833 27.333" xml:space="preserve">
<g>
	<polygon points="34.839,16.354 13.505,16.375 7.694,22.231 7.776,16.419 2.896,16.382 2.882,3.06 38.371,3.036 38.875,1.133 
		28.37,1.133 0.958,1.159 0.974,18.286 6.237,18.284 6.134,26.201 13.995,18.277 34.334,18.259 	"/>
	<path d="M12.046,6.336c0.971,0.047,1.955-0.131,2.957,0.171c-0.098-0.591-0.191-1.157-0.284-1.723
		c-1.614-0.001-3.19-0.003-4.687-0.004c0.029,0.604,0.076,1.2,0.08,1.796c0.008,2.031,0.006,4.062-0.007,6.094
		c-0.003,0.523-0.058,1.047-0.09,1.585c1.522,0.001,3.108,0.003,4.7,0.004c0.094-0.587,0.184-1.153,0.277-1.742
		c-0.283,0.061-0.508,0.145-0.734,0.15c-0.736,0.018-1.473,0.006-2.211,0.005c-0.246,0-0.361-0.119-0.359-0.366
		c0.006-0.552,0.01-1.104,0-1.656c-0.004-0.285,0.129-0.404,0.402-0.382c0.4,0.033,0.801,0.074,1.195,0.111
		c0.001-0.6,0.002-1.227,0.002-1.814c-0.429,0.036-0.832,0.077-1.234,0.103c-0.225,0.014-0.359-0.095-0.359-0.331
		c0-0.553,0.001-1.104,0.002-1.656C11.696,6.449,11.813,6.324,12.046,6.336z"/>
	<path d="M21.112,7.762c-0.039-0.475-0.135-0.939-0.1-1.393c0.047-0.593-0.113-1.04-0.595-1.399c-0.159-0.119-0.294-0.2-0.499-0.197
		c-0.694,0.011-1.393,0.042-2.084-0.01c-0.594-0.045-1.049,0.11-1.436,0.562c-0.146,0.172-0.229,0.318-0.226,0.544
		c0.011,0.938,0.042,1.877-0.011,2.812c-0.035,0.613,0.107,1.082,0.621,1.448c0.168,0.12,0.309,0.215,0.527,0.209
		c0.568-0.014,1.137-0.001,1.705-0.004c0.265-0.002,0.385,0.12,0.383,0.379c-0.004,0.542-0.004,1.084-0.002,1.625
		c0.001,0.25-0.129,0.359-0.369,0.359c-0.254,0.001-0.506,0.001-0.758,0c-0.426-0.002-0.506-0.065-0.48-0.493
		c0.017-0.301,0.093-0.598,0.145-0.905c-0.646,0-1.275-0.001-1.857-0.001c0.033,0.481,0.121,0.959,0.08,1.425
		c-0.051,0.578,0.13,0.991,0.59,1.335c0.186,0.139,0.344,0.234,0.584,0.229c0.684-0.015,1.371-0.042,2.053,0.008
		c0.583,0.043,1.029-0.102,1.393-0.565c0.138-0.175,0.225-0.322,0.221-0.548c-0.01-0.958-0.039-1.919,0.012-2.874
		c0.031-0.571-0.115-0.997-0.57-1.35c-0.176-0.136-0.322-0.23-0.555-0.225c-0.567,0.015-1.137,0.001-1.705,0.005
		c-0.238,0.001-0.389-0.089-0.391-0.34c-0.004-0.562,0-1.125,0-1.688c0.002-0.217,0.117-0.326,0.332-0.329
		c0.295-0.003,0.59,0.004,0.885-0.002c0.274-0.006,0.426,0.11,0.395,0.391c-0.035,0.333-0.088,0.663-0.133,0.989
		C19.896,7.761,20.533,7.761,21.112,7.762z"/>
	<path d="M27.081,5.012c-0.184-0.14-0.34-0.236-0.582-0.233c-1.095,0.012-2.19,0.003-3.286,0.002c-0.185,0-0.368,0-0.476,0
		c0.031,0.578,0.084,1.122,0.087,1.666c0.009,1.929,0.011,3.856-0.007,5.784c-0.006,0.681,0.127,1.376-0.199,2.042
		c0.676,0.001,1.312,0.001,1.953,0.002c-0.059-0.256-0.156-0.495-0.162-0.737c-0.019-0.812,0-1.626-0.008-2.438
		c-0.002-0.277,0.115-0.401,0.395-0.397c0.4,0.007,0.805-0.035,1.2,0.012c0.601,0.07,1.048-0.117,1.419-0.586
		c0.139-0.175,0.223-0.323,0.221-0.549c-0.01-1.084-0.037-2.169,0.012-3.251C27.671,5.768,27.527,5.354,27.081,5.012z M26.011,8.742
		c0.001,0.268-0.129,0.373-0.389,0.366c-0.273-0.008-0.547-0.009-0.82-0.001c-0.275,0.008-0.408-0.103-0.397-0.387
		c0.012-0.322,0.003-0.646,0.003-0.968c0.001-0.333,0.008-0.666,0-0.999c-0.006-0.249,0.107-0.366,0.355-0.366
		c0.293,0,0.588,0.003,0.883,0c0.246-0.003,0.367,0.106,0.366,0.356C26.007,7.41,26.006,8.076,26.011,8.742z"/>
	<path fill="#FFFFFF" d="M25.646,6.388c-0.295,0.003-0.59,0-0.883,0c-0.248,0-0.361,0.117-0.355,0.366
		c0.008,0.333,0.001,0.666,0,0.999c0,0.322,0.009,0.646-0.003,0.968c-0.011,0.284,0.122,0.395,0.397,0.387
		c0.273-0.008,0.547-0.007,0.82,0.001c0.26,0.007,0.39-0.099,0.389-0.366c-0.005-0.666-0.004-1.332,0.001-1.998
		C26.013,6.494,25.892,6.385,25.646,6.388z"/>
</g>
</svg>
