<?xml version="1.0" encoding="UTF-8" standalone="no"?>
<svg
   xmlns:dc="http://purl.org/dc/elements/1.1/"
   xmlns:cc="http://creativecommons.org/ns#"
   xmlns:rdf="http://www.w3.org/1999/02/22-rdf-syntax-ns#"
   xmlns:svg="http://www.w3.org/2000/svg"
   xmlns="http://www.w3.org/2000/svg"
   xmlns:sodipodi="http://sodipodi.sourceforge.net/DTD/sodipodi-0.dtd"
   xmlns:inkscape="http://www.inkscape.org/namespaces/inkscape"
   id="Capa_1"
   data-name="Capa 1"
   viewBox="0 0 53.400008 40.819628"
   version="1.1"
   sodipodi:docname="esp-inac.svg"
   width="53.400009"
   height="40.81963"
   inkscape:version="0.92.4 (5da689c313, 2019-01-14)">
  <metadata
     id="metadata49">
    <rdf:RDF>
      <cc:Work
         rdf:about="">
        <dc:format>image/svg+xml</dc:format>
        <dc:type
           rdf:resource="http://purl.org/dc/dcmitype/StillImage" />
        <dc:title>Mesa de trabajo 139</dc:title>
      </cc:Work>
    </rdf:RDF>
  </metadata>
  <sodipodi:namedview
     pagecolor="#ffffff"
     bordercolor="#666666"
     borderopacity="1"
     objecttolerance="10"
     gridtolerance="10"
     guidetolerance="10"
     inkscape:pageopacity="0"
     inkscape:pageshadow="2"
     inkscape:window-width="958"
     inkscape:window-height="1018"
     id="namedview47"
     showgrid="false"
     inkscape:zoom="3.3828744"
     inkscape:cx="40.910961"
     inkscape:cy="22.296155"
     inkscape:window-x="954"
     inkscape:window-y="900"
     inkscape:window-maximized="0"
     inkscape:current-layer="Capa_1" />
  <defs
     id="defs4">
    <style
       id="style2">.cls-1,.cls-3{fill:#ff99dc;}.cls-2{fill:#211915;}.cls-3{stroke:#ff99dc;stroke-linejoin:round;stroke-width:5px;}</style>
  </defs>
  <title
     id="title6">Mesa de trabajo 139</title>
  <path
     class="cls-3"
     d="m 51.195617,27.295607 v -17.92 c -0.0055,-3.63175 -2.94825,-6.5744934 -6.58,-6.5800004 H 2.9756166 c -0.09941,0 -0.18,0.08059 -0.18,0.18 V 22.185607 c -0.0055,2.820557 2.2794382,5.110005 5.1000002,5.11 h 2.4500002 l -0.16,11.32 11.11,-11.32 v 0 c 13.776369,0.188192 13.867668,0 29.9,0 z"
     id="path32"
     inkscape:connector-curvature="0"
     style="fill:#000000;fill-opacity:1;stroke:#000000;stroke-width:5px;stroke-linejoin:round;stroke-opacity:1"
     sodipodi:nodetypes="cccssccccccc" />
  <path
     style="fill:#ff99dc;fill-opacity:1"
     inkscape:connector-curvature="0"
     class="cls-2"
     d="M 51.195617,27.295607 V 9.375608 a 6.59,6.59 0 0 0 -6.58,-6.580001 H 2.9756168 a 0.18,0.18 0 0 0 -0.18,0.18 v 19.21 a 5.1,5.1 0 0 0 5.1,5.11 h 2.4500002 l -0.16,11.32 11.11,-11.32 z m -34.6,-14.44 c -0.1,0.51 0.1,0.75 0.48,0.72 l 1.75,-0.15 v 2.6 l -1.69,-0.16 c -0.39,0 -0.58,0.14 -0.57,0.55 0,0.79 0,1.58 0,2.37 a 0.52,0.52 0 0 0 0.52,0.52 c 1,0 2.08,0 3.12,0 a 6.09,6.09 0 0 0 1,-0.22 c -0.13,0.85 -0.26,1.66 -0.39,2.5 h -6.61 c 0,-0.77 0.12,-1.52 0.12,-2.27 q 0,-4.35 0,-8.72 c 0,-0.849999 -0.07,-1.699999 -0.11,-2.559999 h 6.63 c 0.13,0.8 0.27,1.61 0.4,2.459999 a 15.83,15.83 0 0 0 -4.16,-0.2 0.51,0.51 0 0 0 -0.51,0.59 5.49,5.49 0 0 1 0.02,1.97 z m 10.32,-2.56 h -1.27 a 0.46,0.46 0 0 0 -0.45,0.47 c 0,0.8 0,1.61 0,2.41 0,0.36 0.21,0.49 0.55,0.49 0.8,0 1.61,0 2.41,0 a 1,1 0 0 1 0.68,0.24 2.29,2.29 0 0 1 0.92,2 c -0.07,1.38 0,2.76 0,4.15 a 1.1,1.1 0 0 1 -0.31,0.78 2.15,2.15 0 0 1 -2.15,0.76 17.13,17.13 0 0 0 -2.68,0 1.24,1.24 0 0 1 -0.84,-0.32 2,2 0 0 1 -0.83,-1.91 14.13,14.13 0 0 0 -0.12,-2 h 2.63 c -0.07,0.44 -0.18,0.86 -0.21,1.29 0,0.62 0.08,0.71 0.68,0.71 h 1.08 a 0.46,0.46 0 0 0 0.52,-0.52 c 0,-0.77 0,-1.55 0,-2.33 a 0.52,0.52 0 0 0 -0.54,-0.53 c -0.81,0 -1.61,0 -2.41,0 a 1.22,1.22 0 0 1 -0.75,-0.3 2.29,2.29 0 0 1 -0.9,-2.39 18.73,18.73 0 0 0 0,-3.589999 1.07,1.07 0 0 1 0.31,-0.86 2.34,2.34 0 0 1 2,-0.82 c 0.95,0.07 1.91,0 2.87,0 a 1.22,1.22 0 0 1 0.63,0.15 2.16,2.16 0 0 1 1.06,2 11.45,11.45 0 0 0 0.1,2.119999 h -2.6 c 0.06,-0.47 0.13,-0.94 0.19,-1.42 0.06,-0.48 -0.19,-0.58 -0.57,-0.58 z m 12.21,4.57 a 1.3,1.3 0 0 1 -0.43,0.93 2.1,2.1 0 0 1 -1.88,0.69 13.78,13.78 0 0 0 -1.7,0 0.54,0.54 0 0 0 -0.56,0.55 c 0,1.17 0,2.33 0,3.5 a 6.12,6.12 0 0 0 0.23,1.06 h -2.75 a 6.47,6.47 0 0 0 0.26,-2.93 q 0,-4.14 0,-8.28 c 0,-0.779999 -0.08,-1.549999 -0.12,-2.379999 h 0.67 c 1.55,0 3.1,0 4.65,0 a 1.25,1.25 0 0 1 0.8,0.29 2.16,2.16 0 0 1 0.81,1.8 c -0.03,1.609999 0.01,3.199999 0.02,4.769999 z"
     id="path42" />
  <path
     style="fill:#ff99dc;fill-opacity:1"
     inkscape:connector-curvature="0"
     class="cls-2"
     d="m 36.295617,10 h -1.24 c -0.35,0 -0.51,0.16 -0.5,0.52 0.01,0.36 0,1 0,1.43 0,0.43 0,0.92 0,1.38 0,0.46 0.17,0.57 0.56,0.56 a 11.22,11.22 0 0 1 1.16,0 c 0.37,0 0.55,-0.15 0.55,-0.53 0,-0.95 0,-1.9 0,-2.86 0,-0.34 -0.17,-0.5 -0.53,-0.5 z"
     id="path44" />
</svg>
