<?xml version="1.0" encoding="utf-8"?>
<!-- Generator: Adobe Illustrator 18.0.0, SVG Export Plug-In . SVG Version: 6.00 Build 0)  -->
<!DOCTYPE svg PUBLIC "-//W3C//DTD SVG 1.1//EN" "http://www.w3.org/Graphics/SVG/1.1/DTD/svg11.dtd">
<svg version="1.1" id="Capa_1" xmlns="http://www.w3.org/2000/svg" xmlns:xlink="http://www.w3.org/1999/xlink" x="0px" y="0px"
	 viewBox="0 0 39.8 27.3" enable-background="new 0 0 39.8 27.3" xml:space="preserve">
<g>
	<path fill="#FFFFFF" d="M38.9,1.1l-10.5,0L1,1.2l0,17.1l5.3,0l-0.1,7.9l7.9-7.9l20.3,0L38.9,1.1z M12.1,8.7c0.4,0,0.8-0.1,1.2-0.1
		c0,0.6,0,1.2,0,1.8c-0.4,0-0.8-0.1-1.2-0.1c-0.3,0-0.4,0.1-0.4,0.4c0,0.6,0,1.1,0,1.7c0,0.2,0.1,0.4,0.4,0.4c0.7,0,1.5,0,2.2,0
		c0.2,0,0.5-0.1,0.7-0.1c-0.1,0.6-0.2,1.2-0.3,1.7c-1.6,0-3.2,0-4.7,0c0-0.5,0.1-1.1,0.1-1.6c0-2,0-4.1,0-6.1c0-0.6-0.1-1.2-0.1-1.8
		c1.5,0,3.1,0,4.7,0c0.1,0.6,0.2,1.1,0.3,1.7c-1-0.3-2-0.1-3-0.2c-0.2,0-0.4,0.1-0.4,0.3c0,0.6,0,1.1,0,1.7
		C11.7,8.6,11.8,8.7,12.1,8.7z M19,6.4c-0.3,0-0.6,0-0.9,0c-0.2,0-0.3,0.1-0.3,0.3c0,0.6,0,1.1,0,1.7c0,0.3,0.2,0.3,0.4,0.3
		c0.6,0,1.1,0,1.7,0c0.2,0,0.4,0.1,0.6,0.2c0.5,0.4,0.6,0.8,0.6,1.3c-0.1,1,0,1.9,0,2.9c0,0.2-0.1,0.4-0.2,0.5
		c-0.4,0.5-0.8,0.6-1.4,0.6c-0.7-0.1-1.4,0-2.1,0c-0.2,0-0.4-0.1-0.6-0.2c-0.5-0.3-0.6-0.8-0.6-1.3c0-0.5,0-0.9-0.1-1.4
		c0.6,0,1.2,0,1.9,0c-0.1,0.3-0.1,0.6-0.1,0.9c0,0.4,0.1,0.5,0.5,0.5c0.3,0,0.5,0,0.8,0c0.2,0,0.4-0.1,0.4-0.4c0-0.5,0-1.1,0-1.6
		c0-0.3-0.1-0.4-0.4-0.4c-0.6,0-1.1,0-1.7,0c-0.2,0-0.4-0.1-0.5-0.2c-0.5-0.4-0.7-0.8-0.6-1.4c0.1-0.9,0-1.9,0-2.8
		c0-0.2,0.1-0.4,0.2-0.5c0.4-0.5,0.8-0.6,1.4-0.6c0.7,0.1,1.4,0,2.1,0c0.2,0,0.3,0.1,0.5,0.2c0.5,0.4,0.6,0.8,0.6,1.4
		c0,0.5,0.1,0.9,0.1,1.4c-0.6,0-1.2,0-1.8,0c0-0.3,0.1-0.7,0.1-1C19.4,6.5,19.3,6.4,19,6.4z M27.6,9.6c0,0.2-0.1,0.4-0.2,0.5
		c-0.4,0.5-0.8,0.7-1.4,0.6c-0.4,0-0.8,0-1.2,0c-0.3,0-0.4,0.1-0.4,0.4c0,0.8,0,1.6,0,2.4c0,0.2,0.1,0.5,0.2,0.7c-0.6,0-1.3,0-2,0
		c0.3-0.7,0.2-1.4,0.2-2c0-1.9,0-3.9,0-5.8c0-0.5-0.1-1.1-0.1-1.7c0.1,0,0.3,0,0.5,0c1.1,0,2.2,0,3.3,0c0.2,0,0.4,0.1,0.6,0.2
		c0.4,0.3,0.6,0.8,0.6,1.3C27.6,7.4,27.6,8.5,27.6,9.6z"/>
	<path d="M12,6.3c1,0,2-0.1,3,0.2c-0.1-0.6-0.2-1.2-0.3-1.7c-1.6,0-3.2,0-4.7,0c0,0.6,0.1,1.2,0.1,1.8c0,2,0,4.1,0,6.1
		c0,0.5-0.1,1-0.1,1.6c1.5,0,3.1,0,4.7,0c0.1-0.6,0.2-1.2,0.3-1.7c-0.3,0.1-0.5,0.1-0.7,0.1c-0.7,0-1.5,0-2.2,0
		c-0.2,0-0.4-0.1-0.4-0.4c0-0.6,0-1.1,0-1.7c0-0.3,0.1-0.4,0.4-0.4c0.4,0,0.8,0.1,1.2,0.1c0-0.6,0-1.2,0-1.8c-0.4,0-0.8,0.1-1.2,0.1
		c-0.2,0-0.4-0.1-0.4-0.3c0-0.6,0-1.1,0-1.7C11.7,6.4,11.8,6.3,12,6.3z"/>
	<path d="M21.1,7.8c0-0.5-0.1-0.9-0.1-1.4c0-0.6-0.1-1-0.6-1.4c-0.2-0.1-0.3-0.2-0.5-0.2c-0.7,0-1.4,0-2.1,0c-0.6,0-1,0.1-1.4,0.6
		c-0.1,0.2-0.2,0.3-0.2,0.5c0,0.9,0,1.9,0,2.8c0,0.6,0.1,1.1,0.6,1.4c0.2,0.1,0.3,0.2,0.5,0.2c0.6,0,1.1,0,1.7,0
		c0.3,0,0.4,0.1,0.4,0.4c0,0.5,0,1.1,0,1.6c0,0.2-0.1,0.4-0.4,0.4c-0.3,0-0.5,0-0.8,0c-0.4,0-0.5-0.1-0.5-0.5c0-0.3,0.1-0.6,0.1-0.9
		c-0.6,0-1.3,0-1.9,0c0,0.5,0.1,1,0.1,1.4c-0.1,0.6,0.1,1,0.6,1.3c0.2,0.1,0.3,0.2,0.6,0.2c0.7,0,1.4,0,2.1,0c0.6,0,1-0.1,1.4-0.6
		c0.1-0.2,0.2-0.3,0.2-0.5c0-1,0-1.9,0-2.9c0-0.6-0.1-1-0.6-1.3c-0.2-0.1-0.3-0.2-0.6-0.2c-0.6,0-1.1,0-1.7,0
		c-0.2,0-0.4-0.1-0.4-0.3c0-0.6,0-1.1,0-1.7c0-0.2,0.1-0.3,0.3-0.3c0.3,0,0.6,0,0.9,0c0.3,0,0.4,0.1,0.4,0.4c0,0.3-0.1,0.7-0.1,1
		C19.9,7.8,20.5,7.8,21.1,7.8z"/>
	<path d="M27.1,5c-0.2-0.1-0.3-0.2-0.6-0.2c-1.1,0-2.2,0-3.3,0c-0.2,0-0.4,0-0.5,0c0,0.6,0.1,1.1,0.1,1.7c0,1.9,0,3.9,0,5.8
		c0,0.7,0.1,1.4-0.2,2c0.7,0,1.3,0,2,0c-0.1-0.3-0.2-0.5-0.2-0.7c0-0.8,0-1.6,0-2.4c0-0.3,0.1-0.4,0.4-0.4c0.4,0,0.8,0,1.2,0
		c0.6,0.1,1-0.1,1.4-0.6c0.1-0.2,0.2-0.3,0.2-0.5c0-1.1,0-2.2,0-3.3C27.7,5.8,27.5,5.4,27.1,5z M26,8.7c0,0.3-0.1,0.4-0.4,0.4
		c-0.3,0-0.5,0-0.8,0c-0.3,0-0.4-0.1-0.4-0.4c0-0.3,0-0.6,0-1c0-0.3,0-0.7,0-1c0-0.2,0.1-0.4,0.4-0.4c0.3,0,0.6,0,0.9,0
		c0.2,0,0.4,0.1,0.4,0.4C26,7.4,26,8.1,26,8.7z"/>
	<path fill="#FFFFFF" d="M25.6,6.4c-0.3,0-0.6,0-0.9,0c-0.2,0-0.4,0.1-0.4,0.4c0,0.3,0,0.7,0,1c0,0.3,0,0.6,0,1
		c0,0.3,0.1,0.4,0.4,0.4c0.3,0,0.5,0,0.8,0C25.9,9.1,26,9,26,8.7c0-0.7,0-1.3,0-2C26,6.5,25.9,6.4,25.6,6.4z"/>
</g>
</svg>
