<svg xmlns="http://www.w3.org/2000/svg" viewBox="0 0 54.3 44.2"><path fill="#39E900" d="M51.4 28.7V10.8c0-3.6-2.9-6.6-6.6-6.6H3.1c-.1 0-.1.1-.1.2v19.2c0 2.8 2.3 5.1 5.1 5.1h2.4L10.3 40l11.1-11.3h30z"/><path d="M48.5 26V12.7c0-3-2.4-5.4-5.4-5.4H5.4V23c0 1.6 1.3 2.9 2.9 2.9h4.3l-.1 8.4 8.6-8.4h27.4z"/><path fill="#39E900" d="M16.8 14.3c-.1.5.1.7.5.7.6 0 1.1-.1 1.7-.1v2.6c-.6-.1-1.1-.1-1.7-.2-.4 0-.6.1-.6.5v2.4c0 .3.2.5.5.5h3.1c.3 0 .6-.1 1-.2-.1.8-.3 1.7-.4 2.5h-6.7c0-.8.1-1.5.1-2.3V12c0-.9-.1-1.7-.1-2.6H21c.1.8.3 1.6.4 2.5-1.4-.4-2.8-.2-4.2-.2-.3 0-.6.3-.5.6.1.6.2 1.3.1 2zM27.1 11.7h-1.3c-.3 0-.5.2-.5.5v2.4c0 .4.2.5.6.5h2.4c.3 0 .5.1.7.2.6.5 1 1.2.9 2-.1 1.4 0 2.8 0 4.2 0 .3-.1.5-.3.8-.6.7-1.3.9-2.2.8-.9-.1-1.8 0-2.7 0-.3 0-.6-.1-.8-.3-.7-.5-.9-1.1-.8-1.9.1-.7-.1-1.3-.1-2h2.6c-.1.4-.2.9-.2 1.3 0 .6.1.7.7.7h1.1c.3 0 .5-.2.5-.5v-2.3c0-.3-.2-.5-.5-.5h-2.4c-.3 0-.5-.1-.7-.3-.8-.6-1-1.4-.9-2.4.1-1.2.1-2.4 0-3.6 0-.4.1-.6.3-.9.5-.6 1.2-.9 2-.8 1 .1 1.9 0 2.9 0 .2 0 .4 0 .6.1.7.4 1.1 1.2 1.1 2-.1.7.1 1.4.1 2.1h-2.6c.1-.5.1-.9.2-1.4-.1-.5-.3-.7-.7-.7zM39.3 16.3c0 .4-.2.6-.4.9-.5.5-1.2.8-1.9.7-.6-.1-1.1 0-1.7 0-.3 0-.6.2-.6.6V22c0 .3.1.7.2 1.1h-2.8c.5-1 .3-1.9.3-2.9v-8.3c0-.8-.1-1.6-.1-2.4h5.4c.3 0 .6.1.8.3.6.4.8 1.1.8 1.8-.1 1.5 0 3.1 0 4.7z"/><path d="M36.5 11.7h-1.2c-.3 0-.5.2-.5.5V15c0 .4.2.6.6.6h1.2c.4 0 .6-.1.5-.5v-2.9c-.1-.3-.3-.5-.6-.5z"/></svg>