<?xml version="1.0" encoding="utf-8"?>
<!-- Generator: Adobe Illustrator 18.1.1, SVG Export Plug-In . SVG Version: 6.00 Build 0)  -->
<svg version="1.1" id="Capa_1" xmlns="http://www.w3.org/2000/svg" xmlns:xlink="http://www.w3.org/1999/xlink" x="0px" y="0px"
	 viewBox="0 0 54.3 44.2" enable-background="new 0 0 54.3 44.2" xml:space="preserve">
<g>
	<g>
		<path fill="#39E900" d="M41.9,4.2h-36v16.6c0,4.3,3.5,7.9,7.9,7.9h20.2L45.1,40l-0.2-11.3h3.5v-18C48.4,7.1,45.5,4.2,41.9,4.2z"/>
	</g>
	<g>
		<path d="M39.9,13.4c-0.9,0-1.9,0-2.8,0c0.1-0.5,0.2-1.1,0.2-1.6c0-0.4-0.2-0.6-0.6-0.6c-0.4,0-0.7,0-1.1,0c-0.6,0-0.7,0.1-0.7,0.7
			c0,2.3,0,4.6,0,6.8c0,0.6,0,1.2,0,1.7c0,0.4,0.2,0.6,0.6,0.6c0.5,0,0.9,0,1.4,0c0.3,0,0.5-0.1,0.5-0.4c0-0.8,0-1.6,0-2.5
			c-0.3,0-0.5,0-0.7,0c-0.2-0.8-0.3-1.6-0.5-2.4c1.3,0,2.6,0,3.9,0c-0.1,0.5-0.2,1-0.2,1.5c0,1.5,0,3.1,0,4.6c0,0.4-0.1,0.6-0.4,0.9
			c-0.5,0.7-1.2,0.9-2,0.9c-1.1-0.1-2.2,0-3.2,0c-0.3,0-0.6-0.1-0.8-0.3c-0.8-0.6-1-1.3-0.9-2.2c0.1-3.5,0-6.9,0-10.4
			c0-0.4,0.1-0.7,0.4-1c0.5-0.6,1.1-0.9,2-0.8c1.1,0.1,2.1,0,3.2,0c0.4,0,0.7,0.1,1,0.4c0.6,0.5,0.9,1.1,0.8,2
			C39.7,11.9,39.9,12.6,39.9,13.4z"/>
		<path d="M27.6,17.5c0-0.4,0-0.8,0-1.2c0-1.7,0-3.5,0-5.2c0-0.7-0.1-1.5-0.2-2.3c0.9,0,1.9,0,2.7,0c-0.3,3-0.1,6.1-0.1,9.2
			c0,1,0,2,0,3c0,0.8,0.1,1.6,0.1,2.5c-0.7,0-1.6,0-2.5,0c-0.1,0-0.2-0.2-0.3-0.4c-1-2.6-2.1-5.2-3.1-7.8c-0.1-0.2-0.1-0.3-0.3-0.5
			c0.1,2.9-0.2,5.8,0.1,8.7c-0.9,0-1.8,0-2.7,0c0-1,0.1-2,0.1-2.9c0-3.1,0-6.1,0-9.2c0-0.8-0.1-1.7-0.1-2.6c0.7,0,1.5,0,2.4,0
			c0.1,0,0.3,0.3,0.4,0.4c1,2.6,2.1,5.2,3.1,7.8C27.4,17.2,27.4,17.4,27.6,17.5C27.5,17.5,27.6,17.5,27.6,17.5z"/>
		<path d="M16.6,8.8c0.9,0,1.8,0,2.7,0c-0.3,4.5-0.1,9-0.1,13.5c0,0.4,0.2,0.7,0.2,1.1c-1,0-2,0-3,0c0.5-1.2,0.3-2.4,0.3-3.5
			c0-2.8,0-5.5,0-8.3C16.7,10.7,16.6,9.8,16.6,8.8z"/>
	</g>
</g>
</svg>
