<svg version="1.0" xmlns="http://www.w3.org/2000/svg" viewBox="0 0 54.3 44.2"><path fill="#39E900" d="M41.9 4.2h-36v16.6c0 4.3 3.5 7.9 7.9 7.9H34L45.1 40l-.2-11.3h3.5v-18c0-3.6-2.9-6.5-6.5-6.5z"/><path d="M39.9 13.4h-2.8c.1-.5.2-1.1.2-1.6 0-.4-.2-.6-.6-.6h-1.1c-.6 0-.7.1-.7.7v8.5c0 .4.2.6.6.6h1.4c.3 0 .5-.1.5-.4v-2.5h-.7c-.2-.8-.3-1.6-.5-2.4h3.9c-.1.5-.2 1-.2 1.5v4.6c0 .4-.1.6-.4.9-.5.7-1.2.9-2 .9-1.1-.1-2.2 0-3.2 0-.3 0-.6-.1-.8-.3-.8-.6-1-1.3-.9-2.2.1-3.5 0-6.9 0-10.4 0-.4.1-.7.4-1 .5-.6 1.1-.9 2-.8 1.1.1 2.1 0 3.2 0 .4 0 .7.1 1 .4.6.5.9 1.1.8 2-.3.6-.1 1.3-.1 2.1zM27.6 17.5v-1.2-5.2c0-.7-.1-1.5-.2-2.3h2.7c-.3 3-.1 6.1-.1 9.2v3c0 .8.1 1.6.1 2.5h-2.5c-.1 0-.2-.2-.3-.4-1-2.6-2.1-5.2-3.1-7.8-.1-.2-.1-.3-.3-.5.1 2.9-.2 5.8.1 8.7h-2.7c0-1 .1-2 .1-2.9v-9.2c0-.8-.1-1.7-.1-2.6h2.4c.1 0 .3.3.4.4 1 2.6 2.1 5.2 3.1 7.8.2.2.2.4.4.5-.1 0 0 0 0 0zM14.9 14c-.1.6.1.8.5.8.6 0 1.2-.1 1.9-.2v2.8c-.6-.1-1.2-.1-1.8-.2-.4 0-.6.1-.6.6v2.6c0 .3.3.6.6.6h3.4c.3 0 .7-.1 1.1-.2-.1.9-.3 1.8-.4 2.7h-7.2c0-.8.1-1.6.1-2.5v-9.4c0-.9-.1-1.8-.1-2.8h7.2c.1.9.3 1.8.4 2.7-1.5-.5-3-.2-4.5-.3-.3 0-.6.3-.5.6 0 .8.1 1.5-.1 2.2z"/></svg>