<?xml version="1.0" encoding="utf-8"?>
<!-- Generator: Adobe Illustrator 18.1.1, SVG Export Plug-In . SVG Version: 6.00 Build 0)  -->
<svg version="1.1" id="Capa_1" xmlns="http://www.w3.org/2000/svg" xmlns:xlink="http://www.w3.org/1999/xlink" x="0px" y="0px"
	 viewBox="0 0 54.3 44.2" enable-background="new 0 0 54.3 44.2" xml:space="preserve">
<g>
	<path fill="#39E900" d="M51.4,28.7V10.8c0-3.6-2.9-6.6-6.6-6.6H3.1C3,4.2,3,4.3,3,4.4v19.2c0,2.8,2.3,5.1,5.1,5.1h2.4L10.3,40
		l11.1-11.3h17.2H51.4z"/>
	<path d="M48.5,26V12.7c0-3-2.4-5.4-5.4-5.4H5.4V23c0,1.6,1.3,2.9,2.9,2.9h4.3l-0.1,8.4l8.6-8.4h15.5H48.5z"/>
	<path fill="#39E900" d="M16.8,14.3c-0.1,0.5,0.1,0.7,0.5,0.7c0.6,0,1.1-0.1,1.7-0.1v2.6c-0.6-0.1-1.1-0.1-1.7-0.2
		c-0.4,0-0.6,0.1-0.6,0.5c0,0.8,0,1.6,0,2.4c0,0.3,0.2,0.5,0.5,0.5c1,0,2.1,0,3.1,0c0.3,0,0.6-0.1,1-0.2c-0.1,0.8-0.3,1.7-0.4,2.5
		h-6.7c0-0.8,0.1-1.5,0.1-2.3c0-2.9,0-5.8,0-8.7c0-0.9-0.1-1.7-0.1-2.6H21c0.1,0.8,0.3,1.6,0.4,2.5c-1.4-0.4-2.8-0.2-4.2-0.2
		c-0.3,0-0.6,0.3-0.5,0.6C16.8,12.9,16.9,13.6,16.8,14.3z"/>
	<path fill="#39E900" d="M27.1,11.7c-0.4,0-0.8,0-1.3,0c-0.3,0-0.5,0.2-0.5,0.5c0,0.8,0,1.6,0,2.4c0,0.4,0.2,0.5,0.6,0.5
		c0.8,0,1.6,0,2.4,0c0.3,0,0.5,0.1,0.7,0.2c0.6,0.5,1,1.2,0.9,2c-0.1,1.4,0,2.8,0,4.2c0,0.3-0.1,0.5-0.3,0.8
		c-0.6,0.7-1.3,0.9-2.2,0.8c-0.9-0.1-1.8,0-2.7,0c-0.3,0-0.6-0.1-0.8-0.3c-0.7-0.5-0.9-1.1-0.8-1.9c0.1-0.7-0.1-1.3-0.1-2
		c0.8,0,1.7,0,2.6,0c-0.1,0.4-0.2,0.9-0.2,1.3c0,0.6,0.1,0.7,0.7,0.7c0.4,0,0.7,0,1.1,0c0.3,0,0.5-0.2,0.5-0.5c0-0.8,0-1.6,0-2.3
		c0-0.3-0.2-0.5-0.5-0.5c-0.8,0-1.6,0-2.4,0c-0.3,0-0.5-0.1-0.7-0.3c-0.8-0.6-1-1.4-0.9-2.4c0.1-1.2,0.1-2.4,0-3.6
		c0-0.4,0.1-0.6,0.3-0.9c0.5-0.6,1.2-0.9,2-0.8c1,0.1,1.9,0,2.9,0c0.2,0,0.4,0,0.6,0.1c0.7,0.4,1.1,1.2,1.1,2
		c-0.1,0.7,0.1,1.4,0.1,2.1c-0.8,0-1.7,0-2.6,0c0.1-0.5,0.1-0.9,0.2-1.4C27.7,11.9,27.5,11.7,27.1,11.7z"/>
	<path fill="#39E900" d="M39.3,16.3c0,0.4-0.2,0.6-0.4,0.9c-0.5,0.5-1.2,0.8-1.9,0.7c-0.6-0.1-1.1,0-1.7,0c-0.3,0-0.6,0.2-0.6,0.6
		c0,1.2,0,2.3,0,3.5c0,0.3,0.1,0.7,0.2,1.1c-0.9,0-1.8,0-2.8,0c0.5-1,0.3-1.9,0.3-2.9c0-2.8,0-5.5,0-8.3c0-0.8-0.1-1.6-0.1-2.4
		c0.2,0,0.4,0,0.7,0c1.6,0,3.1,0,4.7,0c0.3,0,0.6,0.1,0.8,0.3c0.6,0.4,0.8,1.1,0.8,1.8C39.2,13.1,39.3,14.7,39.3,16.3z"/>
	<path d="M36.5,11.7c-0.4,0-0.8,0-1.2,0c-0.3,0-0.5,0.2-0.5,0.5c0,0.5,0,1,0,1.4c0,0.5,0,0.9,0,1.4c0,0.4,0.2,0.6,0.6,0.6
		c0.4,0,0.8,0,1.2,0c0.4,0,0.6-0.1,0.5-0.5c0-1,0-1.9,0-2.9C37,11.9,36.8,11.7,36.5,11.7z"/>
</g>
</svg>
