<?xml version="1.0" encoding="UTF-8" standalone="no"?>
<svg
   xmlns:dc="http://purl.org/dc/elements/1.1/"
   xmlns:cc="http://creativecommons.org/ns#"
   xmlns:rdf="http://www.w3.org/1999/02/22-rdf-syntax-ns#"
   xmlns:svg="http://www.w3.org/2000/svg"
   xmlns="http://www.w3.org/2000/svg"
   xmlns:sodipodi="http://sodipodi.sourceforge.net/DTD/sodipodi-0.dtd"
   xmlns:inkscape="http://www.inkscape.org/namespaces/inkscape"
   id="Capa_1"
   data-name="Capa 1"
   viewBox="0 0 47.580001 40.779753"
   version="1.1"
   sodipodi:docname="ing-act.svg"
   width="47.580002"
   height="40.779755"
   inkscape:version="0.92.4 (5da689c313, 2019-01-14)">
  <metadata
     id="metadata49">
    <rdf:RDF>
      <cc:Work
         rdf:about="">
        <dc:format>image/svg+xml</dc:format>
        <dc:type
           rdf:resource="http://purl.org/dc/dcmitype/StillImage" />
        <dc:title>Mesa de trabajo 139</dc:title>
      </cc:Work>
    </rdf:RDF>
  </metadata>
  <sodipodi:namedview
     pagecolor="#ffffff"
     bordercolor="#666666"
     borderopacity="1"
     objecttolerance="10"
     gridtolerance="10"
     guidetolerance="10"
     inkscape:pageopacity="0"
     inkscape:pageshadow="2"
     inkscape:window-width="1920"
     inkscape:window-height="1027"
     id="namedview47"
     showgrid="false"
     inkscape:zoom="3.3828744"
     inkscape:cx="-31.550157"
     inkscape:cy="-22.215956"
     inkscape:window-x="-8"
     inkscape:window-y="892"
     inkscape:window-maximized="1"
     inkscape:current-layer="Capa_1" />
  <defs
     id="defs4">
    <style
       id="style2">.cls-1,.cls-3{fill:#ff99dc;}.cls-2{fill:#211915;}.cls-3{stroke:#ff99dc;stroke-linejoin:round;stroke-width:5px;}</style>
  </defs>
  <title
     id="title6">Mesa de trabajo 139</title>
  <path
     class="cls-3"
     d="m 45.08,9.0001234 c -0.02202,-3.611971 -2.96803,-6.522159 -6.58,-6.5 h -6.1 c -12.785331,0.297959 -13.079357,0.122237 -29.9,0 v 0 16.6099996 c 0,4.335435 3.514565,7.85 7.85,7.85 H 30.6 l 11.13,11.32 -0.15,-11.32 h 3.5 z"
     id="path32"
     inkscape:connector-curvature="0"
     style="fill:#000000;stroke:#000000;stroke-width:5px;stroke-linejoin:round;stroke-opacity:1"
     sodipodi:nodetypes="cccccssccccc" />
  <path
     style="fill:#ff99dc;fill-opacity:1"
     inkscape:connector-curvature="0"
     class="cls-2"
     d="m 38.5,2.500123 h -36 v 16.61 a 7.86,7.86 0 0 0 7.85,7.85 H 30.6 l 11.13,11.32 -0.15,-11.32 h 3.5 v -18 a 6.54,6.54 0 0 0 -6.58,-6.46 z m 3.81,21.78 h -3 l 0.19,8.33 -8.23,-8.37 H 11.42 a 5.64,5.64 0 0 1 -5.63,-5.66 l 0.05,-13.39 h 30.82 a 5.69,5.69 0 0 1 5.69,5.69 z"
     id="path34" />
  <path
     style="fill:#ff99dc;fill-opacity:1"
     inkscape:connector-curvature="0"
     class="cls-2"
     d="M 36.61,11.660123 H 33.8 c 0.07,-0.54 0.15,-1.06 0.2,-1.58 0.05,-0.52 -0.18,-0.61 -0.61,-0.59 -0.43,0.02 -0.74,0 -1.11,0 -0.62,0 -0.71,0.08 -0.71,0.69 v 6.82 c 0,0.58 0,1.17 0,1.75 a 0.48,0.48 0 0 0 0.56,0.55 h 1.37 c 0.31,0 0.52,-0.12 0.52,-0.44 0,-0.82 0,-1.64 0,-2.48 h -0.7 c -0.17,-0.8 -0.34,-1.6 -0.52,-2.43 h 3.88 a 12.88,12.88 0 0 0 -0.21,1.5 c 0,1.55 0,3.09 0,4.64 a 1.38,1.38 0 0 1 -0.36,0.9 2.21,2.21 0 0 1 -2.05,0.86 c -1.07,-0.08 -2.16,0 -3.24,0 a 1.18,1.18 0 0 1 -0.82,-0.35 2.44,2.44 0 0 1 -0.94,-2.21 c 0.06,-3.47 0,-6.94 0,-10.4 a 1.45,1.45 0 0 1 0.41,-1 2.23,2.23 0 0 1 2,-0.81 30.86,30.86 0 0 0 3.19,0 1.45,1.45 0 0 1 1,0.39 2.09,2.09 0 0 1 0.83,2 16.08,16.08 0 0 0 0.12,2.19 z"
     id="path36" />
  <path
     style="fill:#ff99dc;fill-opacity:1"
     inkscape:connector-curvature="0"
     class="cls-2"
     d="m 24.29,15.760123 v -1.19 c 0,-1.74 0,-3.48 0,-5.22 0,-0.75 -0.1,-1.49 -0.15,-2.25 h 2.74 c -0.29,3 -0.07,6.1 -0.13,9.15 0,1 0,2 0,3 0,0.81 0.09,1.62 0.14,2.5 -0.74,0 -1.6,0 -2.46,0 -0.11,0 -0.24,-0.23 -0.3,-0.38 -1,-2.6 -2.07,-5.21 -3.11,-7.81 a 1.94,1.94 0 0 0 -0.26,-0.49 c 0.06,2.89 -0.2,5.78 0.1,8.68 h -2.69 c 0,-1 0.11,-2 0.12,-2.93 q 0,-4.59 0,-9.2 c 0,-0.84 -0.09,-1.68 -0.14,-2.57 0.72,0 1.55,0 2.38,0 0.12,0 0.29,0.25 0.36,0.42 1,2.6 2.07,5.2 3.11,7.81 l 0.19,0.46 z"
     id="path38" />
  <path
     style="fill:#ff99dc;fill-opacity:1"
     inkscape:connector-curvature="0"
     class="cls-2"
     d="m 11.79,12.240123 c -0.12,0.55 0.1,0.81 0.51,0.78 0.62,0 1.23,-0.1 1.89,-0.16 v 2.8 l -1.83,-0.16 c -0.41,0 -0.62,0.15 -0.61,0.59 0,0.85 0,1.7 0,2.55 a 0.56,0.56 0 0 0 0.56,0.56 c 1.12,0 2.24,0 3.36,0 a 6.31,6.31 0 0 0 1.12,-0.24 c -0.14,0.91 -0.28,1.78 -0.42,2.69 H 9.21 c 0.05,-0.83 0.13,-1.64 0.13,-2.44 q 0,-4.69 0,-9.38 c 0,-0.92 -0.08,-1.84 -0.12,-2.77 h 7.14 c 0.14,0.87 0.29,1.74 0.43,2.65 -1.52,-0.46 -3,-0.19 -4.48,-0.26 a 0.55,0.55 0 0 0 -0.55,0.64 5.87,5.87 0 0 1 0.03,2.15 z"
     id="path40" />
</svg>
