<?xml version="1.0" encoding="utf-8"?>
<!-- Generator: Adobe Illustrator 16.0.0, SVG Export Plug-In . SVG Version: 6.00 Build 0)  -->
<!DOCTYPE svg PUBLIC "-//W3C//DTD SVG 1.1 Basic//EN" "http://www.w3.org/Graphics/SVG/1.1/DTD/svg11-basic.dtd">
<svg version="1.1" baseProfile="basic" id="Capa_1" xmlns="http://www.w3.org/2000/svg" xmlns:xlink="http://www.w3.org/1999/xlink"
	 x="0px" y="0px" width="34.75px" height="27.333px" viewBox="0 0 34.75 27.333" xml:space="preserve">
<g>
	<polygon points="5.686,3.036 31.177,3.06 31.163,16.381 29.073,16.419 29.155,22.231 23.345,16.374 2.153,16.354 1.649,18.257 
		22.854,18.276 30.716,26.2 30.612,18.284 33.085,18.286 33.101,1.158 6.189,1.133 	"/>
	<path d="M20.948,14.45c0.182,0.138,0.338,0.225,0.572,0.22c0.764-0.013,1.531-0.044,2.291,0.01c0.611,0.044,1.064-0.125,1.445-0.6
		c0.158-0.197,0.258-0.367,0.254-0.624c-0.012-1.082-0.016-2.166,0.006-3.249c0.006-0.349,0.098-0.696,0.152-1.049
		c-0.908-0.001-1.803-0.001-2.748-0.002c0.127,0.586,0.248,1.142,0.371,1.703c0.166,0.011,0.311,0.019,0.488,0.029
		c0,0.587,0.006,1.159-0.004,1.731c-0.004,0.221-0.152,0.311-0.365,0.309c-0.32-0.002-0.639-0.004-0.959,0
		c-0.268,0.003-0.396-0.12-0.393-0.39c0.004-0.406,0.002-0.812,0.002-1.218c0.002-1.591,0.002-3.182,0.004-4.772
		c0.002-0.425,0.064-0.484,0.5-0.484c0.264-0.001,0.525,0.01,0.787-0.002c0.305-0.015,0.461,0.113,0.43,0.415
		c-0.035,0.362-0.094,0.724-0.145,1.102c0.656,0.001,1.344,0.002,1.984,0.002c-0.039-0.553-0.131-1.067-0.094-1.572
		c0.041-0.584-0.127-1.008-0.586-1.374c-0.219-0.175-0.408-0.274-0.691-0.269c-0.752,0.017-1.508,0.045-2.256-0.009
		c-0.588-0.042-1.016,0.127-1.4,0.562c-0.193,0.221-0.291,0.417-0.291,0.709c0.008,2.426,0.027,4.852-0.018,7.276
		C20.274,13.56,20.417,14.053,20.948,14.45z"/>
	<path d="M16.913,10.441c-0.023,0.006-0.047,0.012-0.07,0.019c-0.045-0.108-0.092-0.215-0.135-0.323
		c-0.729-1.822-1.457-3.645-2.193-5.464c-0.047-0.117-0.164-0.29-0.254-0.294c-0.586-0.027-1.174-0.015-1.678-0.016
		c0.033,0.625,0.092,1.214,0.094,1.803c0.01,2.144,0.008,4.287-0.006,6.431c-0.004,0.679-0.055,1.357-0.084,2.048
		c0.598,0,1.287,0.001,1.896,0.001c-0.213-2.024-0.031-4.046-0.066-6.065c0.086,0.111,0.135,0.226,0.182,0.34
		c0.73,1.821,1.459,3.644,2.195,5.463c0.043,0.104,0.135,0.263,0.209,0.266c0.605,0.021,1.213,0.013,1.736,0.014
		c-0.035-0.614-0.082-1.18-0.096-1.747c-0.016-0.71-0.014-1.421,0-2.132c0.045-2.132-0.105-4.269,0.104-6.4
		c-0.623-0.001-1.314-0.001-1.943-0.002c0.039,0.532,0.102,1.053,0.109,1.574c0.014,1.219,0.002,2.438,0,3.655
		C16.913,9.888,16.913,10.164,16.913,10.441z"/>
	<path d="M11.116,14.639c-0.064-0.277-0.178-0.539-0.176-0.799c0.045-3.155-0.113-6.313,0.098-9.472c-0.609,0-1.281-0.001-1.9-0.001
		c0.029,0.665,0.084,1.321,0.086,1.978c0.012,1.939,0.016,3.88-0.008,5.819c-0.01,0.825,0.15,1.667-0.203,2.473
		C9.735,14.638,10.425,14.639,11.116,14.639z"/>
</g>
</svg>
