<?xml version="1.0" encoding="UTF-8" standalone="no"?>
<svg
   xmlns:dc="http://purl.org/dc/elements/1.1/"
   xmlns:cc="http://creativecommons.org/ns#"
   xmlns:rdf="http://www.w3.org/1999/02/22-rdf-syntax-ns#"
   xmlns:svg="http://www.w3.org/2000/svg"
   xmlns="http://www.w3.org/2000/svg"
   xmlns:sodipodi="http://sodipodi.sourceforge.net/DTD/sodipodi-0.dtd"
   xmlns:inkscape="http://www.inkscape.org/namespaces/inkscape"
   id="Capa_1"
   data-name="Capa 1"
   viewBox="0 0 47.580001 40.779753"
   version="1.1"
   sodipodi:docname="ing-inac.svg"
   width="47.580002"
   height="40.779755"
   inkscape:version="0.92.4 (5da689c313, 2019-01-14)">
  <metadata
     id="metadata49">
    <rdf:RDF>
      <cc:Work
         rdf:about="">
        <dc:format>image/svg+xml</dc:format>
        <dc:type
           rdf:resource="http://purl.org/dc/dcmitype/StillImage" />
        <dc:title>Mesa de trabajo 139</dc:title>
      </cc:Work>
    </rdf:RDF>
  </metadata>
  <sodipodi:namedview
     pagecolor="#ffffff"
     bordercolor="#666666"
     borderopacity="1"
     objecttolerance="10"
     gridtolerance="10"
     guidetolerance="10"
     inkscape:pageopacity="0"
     inkscape:pageshadow="2"
     inkscape:window-width="958"
     inkscape:window-height="1018"
     id="namedview47"
     showgrid="false"
     inkscape:zoom="3.3828744"
     inkscape:cx="16.485916"
     inkscape:cy="-22.215956"
     inkscape:window-x="954"
     inkscape:window-y="900"
     inkscape:window-maximized="0"
     inkscape:current-layer="Capa_1" />
  <defs
     id="defs4">
    <style
       id="style2">.cls-1,.cls-3{fill:#ff99dc;}.cls-2{fill:#211915;}.cls-3{stroke:#ff99dc;stroke-linejoin:round;stroke-width:5px;}</style>
  </defs>
  <title
     id="title6">Mesa de trabajo 139</title>
  <g
     id="g878"
     transform="translate(-18.5,-24.499877)">
    <g
       id="g869">
      <g
         id="g861">
        <path
           sodipodi:nodetypes="cccccssccccc"
           style="fill:#ff99dc;stroke:#ff99dc;stroke-width:5px;stroke-linejoin:round"
           inkscape:connector-curvature="0"
           id="path32"
           d="M 63.58,33.5 C 63.557976,29.888029 60.61197,26.977841 57,27 H 50.9 C 38.114669,27.297959 37.820643,27.122237 21,27 v 0 16.61 c 0,4.335435 3.514565,7.85 7.85,7.85 H 49.1 L 60.23,62.78 60.08,51.46 h 3.5 z"
           class="cls-3" />
        <path
           id="path34"
           d="M 57,27 H 21 v 16.61 a 7.86,7.86 0 0 0 7.85,7.85 H 49.1 L 60.23,62.78 60.08,51.46 h 3.5 v -18 A 6.54,6.54 0 0 0 57,27 Z m 3.81,21.78 h -3 L 58,57.11 49.77,48.74 H 29.92 a 5.64,5.64 0 0 1 -5.63,-5.66 l 0.05,-13.39 h 30.82 a 5.69,5.69 0 0 1 5.69,5.69 z"
           class="cls-2"
           inkscape:connector-curvature="0"
           style="fill:#211915" />
        <path
           id="path36"
           d="M 55.11,36.16 H 52.3 c 0.07,-0.54 0.15,-1.06 0.2,-1.58 0.05,-0.52 -0.18,-0.61 -0.61,-0.59 -0.43,0.02 -0.74,0 -1.11,0 -0.62,0 -0.71,0.08 -0.71,0.69 v 6.82 c 0,0.58 0,1.17 0,1.75 a 0.48,0.48 0 0 0 0.56,0.55 H 52 c 0.31,0 0.52,-0.12 0.52,-0.44 0,-0.82 0,-1.64 0,-2.48 h -0.7 c -0.17,-0.8 -0.34,-1.6 -0.52,-2.43 h 3.88 a 12.88,12.88 0 0 0 -0.21,1.5 c 0,1.55 0,3.09 0,4.64 a 1.38,1.38 0 0 1 -0.36,0.9 2.21,2.21 0 0 1 -2.05,0.86 c -1.07,-0.08 -2.16,0 -3.24,0 A 1.18,1.18 0 0 1 48.5,46 2.44,2.44 0 0 1 47.56,43.79 c 0.06,-3.47 0,-6.94 0,-10.4 a 1.45,1.45 0 0 1 0.41,-1 2.23,2.23 0 0 1 2,-0.81 30.86,30.86 0 0 0 3.19,0 1.45,1.45 0 0 1 1,0.39 2.09,2.09 0 0 1 0.83,2 16.08,16.08 0 0 0 0.12,2.19 z"
           class="cls-2"
           inkscape:connector-curvature="0"
           style="fill:#211915" />
        <path
           id="path38"
           d="m 42.79,40.26 v -1.19 c 0,-1.74 0,-3.48 0,-5.22 0,-0.75 -0.1,-1.49 -0.15,-2.25 h 2.74 c -0.29,3 -0.07,6.1 -0.13,9.15 0,1 0,2 0,3 0,0.81 0.09,1.62 0.14,2.5 -0.74,0 -1.6,0 -2.46,0 -0.11,0 -0.24,-0.23 -0.3,-0.38 -1,-2.6 -2.07,-5.21 -3.11,-7.81 a 1.94,1.94 0 0 0 -0.26,-0.49 c 0.06,2.89 -0.2,5.78 0.1,8.68 h -2.69 c 0,-1 0.11,-2 0.12,-2.93 q 0,-4.59 0,-9.2 c 0,-0.84 -0.09,-1.68 -0.14,-2.57 0.72,0 1.55,0 2.38,0 0.12,0 0.29,0.25 0.36,0.42 1,2.6 2.07,5.2 3.11,7.81 l 0.19,0.46 z"
           class="cls-2"
           inkscape:connector-curvature="0"
           style="fill:#211915" />
        <path
           id="path40"
           d="m 30.29,36.74 c -0.12,0.55 0.1,0.81 0.51,0.78 0.62,0 1.23,-0.1 1.89,-0.16 v 2.8 L 30.86,40 c -0.41,0 -0.62,0.15 -0.61,0.59 0,0.85 0,1.7 0,2.55 a 0.56,0.56 0 0 0 0.56,0.56 c 1.12,0 2.24,0 3.36,0 a 6.31,6.31 0 0 0 1.12,-0.24 c -0.14,0.91 -0.28,1.78 -0.42,2.69 h -7.16 c 0.05,-0.83 0.13,-1.64 0.13,-2.44 q 0,-4.69 0,-9.38 c 0,-0.92 -0.08,-1.84 -0.12,-2.77 h 7.14 c 0.14,0.87 0.29,1.74 0.43,2.65 -1.52,-0.46 -3,-0.19 -4.48,-0.26 a 0.55,0.55 0 0 0 -0.55,0.64 5.87,5.87 0 0 1 0.03,2.15 z"
           class="cls-2"
           inkscape:connector-curvature="0"
           style="fill:#211915" />
      </g>
    </g>
  </g>
</svg>
