<?xml version="1.0" encoding="utf-8"?>
<!-- Generator: Adobe Illustrator 16.0.0, SVG Export Plug-In . SVG Version: 6.00 Build 0)  -->
<!DOCTYPE svg PUBLIC "-//W3C//DTD SVG 1.1 Basic//EN" "http://www.w3.org/Graphics/SVG/1.1/DTD/svg11-basic.dtd">
<svg version="1.1" baseProfile="basic" id="Capa_1" xmlns="http://www.w3.org/2000/svg" xmlns:xlink="http://www.w3.org/1999/xlink"
	 x="0px" y="0px" width="34.75px" height="27.333px" viewBox="0 0 34.75 27.333" xml:space="preserve">
<g>
	<path d="M1.441,18.256l21.205,0.021l7.861,7.924l-0.104-7.917l2.473,0.002l0.016-17.127L5.98,1.133L1.441,18.256z M20.096,5.629
		c0-0.292,0.098-0.489,0.291-0.71c0.385-0.436,0.812-0.604,1.4-0.562c0.748,0.054,1.504,0.026,2.256,0.01
		c0.283-0.007,0.473,0.094,0.691,0.269c0.459,0.366,0.627,0.79,0.586,1.373c-0.037,0.506,0.055,1.021,0.094,1.573
		C24.773,7.58,24.086,7.58,23.43,7.579C23.48,7.2,23.539,6.84,23.574,6.477c0.031-0.301-0.125-0.429-0.43-0.415
		c-0.262,0.013-0.523,0.002-0.787,0.002c-0.436,0.001-0.498,0.061-0.5,0.484c-0.002,1.591-0.002,3.182-0.004,4.772
		c0,0.406,0.002,0.812-0.002,1.219c-0.004,0.269,0.125,0.392,0.393,0.389c0.32-0.003,0.639-0.002,0.959,0.001
		c0.213,0.001,0.361-0.088,0.365-0.309c0.01-0.572,0.004-1.145,0.004-1.731c-0.178-0.011-0.322-0.02-0.488-0.029
		c-0.123-0.562-0.244-1.118-0.371-1.704c0.945,0.001,1.84,0.002,2.748,0.003c-0.055,0.353-0.146,0.7-0.152,1.049
		c-0.021,1.083-0.018,2.166-0.006,3.249c0.004,0.257-0.096,0.427-0.254,0.623c-0.381,0.475-0.834,0.645-1.445,0.601
		c-0.76-0.055-1.527-0.023-2.291-0.01c-0.234,0.004-0.391-0.083-0.572-0.22c-0.531-0.398-0.674-0.891-0.662-1.545
		C20.123,10.48,20.104,8.054,20.096,5.629z M14.053,4.378c0.09,0.005,0.207,0.178,0.254,0.295c0.736,1.818,1.465,3.642,2.193,5.463
		c0.043,0.108,0.09,0.216,0.135,0.323c0.023-0.006,0.047-0.012,0.07-0.018c0-0.277,0-0.555,0-0.831c0.002-1.219,0.014-2.438,0-3.655
		c-0.008-0.521-0.07-1.043-0.109-1.575c0.629,0.001,1.32,0.002,1.943,0.002c-0.209,2.132-0.059,4.27-0.104,6.401
		c-0.014,0.71-0.016,1.421,0,2.132c0.014,0.566,0.061,1.133,0.096,1.746c-0.523,0-1.131,0.009-1.736-0.014
		c-0.074-0.003-0.166-0.162-0.209-0.266c-0.736-1.819-1.465-3.641-2.195-5.462c-0.047-0.115-0.096-0.229-0.182-0.341
		c0.035,2.02-0.146,4.041,0.066,6.066c-0.609,0-1.299-0.001-1.896-0.002c0.029-0.69,0.08-1.368,0.084-2.047
		c0.014-2.144,0.016-4.287,0.006-6.431c-0.002-0.589-0.061-1.178-0.094-1.803C12.879,4.363,13.467,4.351,14.053,4.378z M10.83,4.368
		c-0.211,3.158-0.053,6.316-0.098,9.471c-0.002,0.26,0.111,0.521,0.176,0.8c-0.691-0.001-1.381-0.001-2.104-0.002
		c0.354-0.807,0.193-1.648,0.203-2.473c0.023-1.94,0.02-3.88,0.008-5.82C9.014,5.688,8.959,5.032,8.93,4.366
		C9.549,4.367,10.221,4.367,10.83,4.368z"/>
	<path fill="#FFFFFF" d="M20.74,14.45c0.182,0.137,0.338,0.224,0.572,0.22c0.764-0.014,1.531-0.045,2.291,0.01
		c0.611,0.044,1.064-0.126,1.445-0.601c0.158-0.196,0.258-0.366,0.254-0.623c-0.012-1.083-0.016-2.166,0.006-3.249
		c0.006-0.349,0.098-0.696,0.152-1.049c-0.908-0.001-1.803-0.002-2.748-0.003c0.127,0.586,0.248,1.143,0.371,1.704
		c0.166,0.01,0.311,0.019,0.488,0.029c0,0.587,0.006,1.159-0.004,1.731c-0.004,0.221-0.152,0.31-0.365,0.309
		c-0.32-0.003-0.639-0.004-0.959-0.001c-0.268,0.003-0.396-0.12-0.393-0.389c0.004-0.406,0.002-0.812,0.002-1.219
		c0.002-1.591,0.002-3.182,0.004-4.772c0.002-0.424,0.064-0.483,0.5-0.484c0.264,0,0.525,0.011,0.787-0.002
		c0.305-0.014,0.461,0.114,0.43,0.415C23.539,6.84,23.48,7.2,23.43,7.579c0.656,0.001,1.344,0.001,1.984,0.002
		c-0.039-0.553-0.131-1.067-0.094-1.573c0.041-0.583-0.127-1.007-0.586-1.373c-0.219-0.175-0.408-0.275-0.691-0.269
		c-0.752,0.017-1.508,0.044-2.256-0.01c-0.588-0.042-1.016,0.127-1.4,0.562c-0.193,0.221-0.291,0.418-0.291,0.71
		c0.008,2.425,0.027,4.852-0.018,7.276C20.066,13.56,20.209,14.052,20.74,14.45z"/>
	<path fill="#FFFFFF" d="M12.463,12.597c-0.004,0.679-0.055,1.356-0.084,2.047c0.598,0.001,1.287,0.002,1.896,0.002
		c-0.213-2.025-0.031-4.047-0.066-6.066c0.086,0.112,0.135,0.226,0.182,0.341c0.73,1.821,1.459,3.643,2.195,5.462
		c0.043,0.104,0.135,0.263,0.209,0.266c0.605,0.022,1.213,0.014,1.736,0.014c-0.035-0.613-0.082-1.18-0.096-1.746
		c-0.016-0.711-0.014-1.422,0-2.132c0.045-2.132-0.105-4.27,0.104-6.401c-0.623,0-1.314-0.001-1.943-0.002
		c0.039,0.532,0.102,1.054,0.109,1.575c0.014,1.218,0.002,2.437,0,3.655c0,0.276,0,0.554,0,0.831
		c-0.023,0.006-0.047,0.012-0.07,0.018c-0.045-0.107-0.092-0.215-0.135-0.323c-0.729-1.821-1.457-3.645-2.193-5.463
		c-0.047-0.117-0.164-0.29-0.254-0.295c-0.586-0.027-1.174-0.015-1.678-0.015c0.033,0.625,0.092,1.214,0.094,1.803
		C12.479,8.31,12.477,10.453,12.463,12.597z"/>
	<path fill="#FFFFFF" d="M9.008,12.164c-0.01,0.824,0.15,1.666-0.203,2.473c0.723,0.001,1.412,0.001,2.104,0.002
		c-0.064-0.278-0.178-0.54-0.176-0.8c0.045-3.154-0.113-6.312,0.098-9.471c-0.609-0.001-1.281-0.001-1.9-0.002
		c0.029,0.666,0.084,1.321,0.086,1.978C9.027,8.284,9.031,10.224,9.008,12.164z"/>
</g>
</svg>
