<?xml version="1.0" encoding="utf-8"?>
<!-- Generator: Adobe Illustrator 18.0.0, SVG Export Plug-In . SVG Version: 6.00 Build 0)  -->
<!DOCTYPE svg PUBLIC "-//W3C//DTD SVG 1.1//EN" "http://www.w3.org/Graphics/SVG/1.1/DTD/svg11.dtd">
<svg version="1.1" id="Capa_1" xmlns="http://www.w3.org/2000/svg" xmlns:xlink="http://www.w3.org/1999/xlink" x="0px" y="0px"
	 viewBox="0 0 34.8 27.3" enable-background="new 0 0 34.8 27.3" xml:space="preserve">
<g>
	<polygon fill="#FFFFFF" points="5.7,3 31.2,3.1 31.2,16.4 29.1,16.4 29.2,22.2 23.3,16.4 2.2,16.4 1.6,18.3 22.9,18.3 30.7,26.2 
		30.6,18.3 33.1,18.3 33.1,1.2 6.2,1.1 	"/>
	<path fill="#FFFFFF" d="M20.9,14.4c0.2,0.1,0.3,0.2,0.6,0.2c0.8,0,1.5,0,2.3,0c0.6,0,1.1-0.1,1.4-0.6c0.2-0.2,0.3-0.4,0.3-0.6
		c0-1.1,0-2.2,0-3.2c0-0.3,0.1-0.7,0.2-1c-0.9,0-1.8,0-2.7,0c0.1,0.6,0.2,1.1,0.4,1.7c0.2,0,0.3,0,0.5,0c0,0.6,0,1.2,0,1.7
		c0,0.2-0.2,0.3-0.4,0.3c-0.3,0-0.6,0-1,0c-0.3,0-0.4-0.1-0.4-0.4c0-0.4,0-0.8,0-1.2c0-1.6,0-3.2,0-4.8c0-0.4,0.1-0.5,0.5-0.5
		c0.3,0,0.5,0,0.8,0c0.3,0,0.5,0.1,0.4,0.4c0,0.4-0.1,0.7-0.1,1.1c0.7,0,1.3,0,2,0c0-0.6-0.1-1.1-0.1-1.6c0-0.6-0.1-1-0.6-1.4
		c-0.2-0.2-0.4-0.3-0.7-0.3c-0.8,0-1.5,0-2.3,0c-0.6,0-1,0.1-1.4,0.6c-0.2,0.2-0.3,0.4-0.3,0.7c0,2.4,0,4.9,0,7.3
		C20.3,13.6,20.4,14.1,20.9,14.4z"/>
	<path fill="#FFFFFF" d="M16.9,10.4C16.9,10.4,16.9,10.5,16.9,10.4c-0.1-0.1-0.2-0.2-0.2-0.3c-0.7-1.8-1.5-3.6-2.2-5.5
		c0-0.1-0.2-0.3-0.3-0.3c-0.6,0-1.2,0-1.7,0c0,0.6,0.1,1.2,0.1,1.8c0,2.1,0,4.3,0,6.4c0,0.7-0.1,1.4-0.1,2c0.6,0,1.3,0,1.9,0
		c-0.2-2,0-4-0.1-6.1c0.1,0.1,0.1,0.2,0.2,0.3c0.7,1.8,1.5,3.6,2.2,5.5c0,0.1,0.1,0.3,0.2,0.3c0.6,0,1.2,0,1.7,0
		c0-0.6-0.1-1.2-0.1-1.7c0-0.7,0-1.4,0-2.1c0-2.1-0.1-4.3,0.1-6.4c-0.6,0-1.3,0-1.9,0c0,0.5,0.1,1.1,0.1,1.6c0,1.2,0,2.4,0,3.7
		C16.9,9.9,16.9,10.2,16.9,10.4z"/>
	<path fill="#FFFFFF" d="M11.1,14.6c-0.1-0.3-0.2-0.5-0.2-0.8c0-3.2-0.1-6.3,0.1-9.5c-0.6,0-1.3,0-1.9,0c0,0.7,0.1,1.3,0.1,2
		c0,1.9,0,3.9,0,5.8c0,0.8,0.1,1.7-0.2,2.5C9.7,14.6,10.4,14.6,11.1,14.6z"/>
</g>
</svg>
