<svg xmlns="http://www.w3.org/2000/svg" viewBox="0 0 34.8 27.3"><path fill="#FFF" d="M1.4 18.3h21.2l7.9 7.9-.1-7.9h2.5V1.2L6 1.1 1.4 18.3zM20.1 5.6c0-.3.1-.5.3-.7.4-.4.8-.6 1.4-.6.7.1 1.5 0 2.3 0 .3 0 .5.1.7.3.4.4.6.8.5 1.4 0 .5.1 1 .1 1.6h-2c0-.4.1-.7.1-1.1 0-.3-.1-.4-.4-.4h-.8c-.4 0-.5.1-.5.5v6c0 .3.1.4.4.4h1c.2 0 .4-.1.4-.3V11h-.5c-.1-.6-.2-1.1-.4-1.7h2.7c-.1.4-.1.7-.2 1v3.2c0 .3-.1.4-.3.6-.4.5-.8.6-1.4.6-.8-.1-1.5 0-2.3 0-.2 0-.4-.1-.6-.2-.5-.4-.7-.9-.7-1.5.2-2.5.2-4.9.2-7.4zm-6-1.2c.1 0 .2.2.3.3.7 1.8 1.5 3.6 2.2 5.5 0 .1.1.2.1.3h.1v-.8V6c0-.5-.1-1-.1-1.6h1.9c-.2 2.1-.1 4.3-.1 6.4v2.1c0 .6.1 1.1.1 1.7h-1.7c-.1 0-.2-.2-.2-.3-.7-1.8-1.5-3.6-2.2-5.5 0-.1-.1-.2-.2-.3 0 2-.1 4 .1 6.1h-1.9c0-.7.1-1.4.1-2V6.2c0-.6-.1-1.2-.1-1.8h1.6zm-3.3 0c-.2 3.2-.1 6.3-.1 9.5 0 .3.1.5.2.8H8.8c.4-.9.2-1.7.2-2.5V6.4c0-.7 0-1.4-.1-2h1.9z"/><path d="M20.7 14.4c.2.1.3.2.6.2h2.3c.6 0 1.1-.1 1.4-.6.2-.2.3-.4.3-.6v-3.2c0-.3.1-.7.2-1h-2.7c.1.6.2 1.1.4 1.7h.5v1.7c0 .2-.2.3-.4.3h-1c-.3 0-.4-.1-.4-.4v-1.2-4.8c0-.4.1-.5.5-.5h.8c.3 0 .5.1.4.4 0 .4-.1.7-.1 1.1h2c0-.6-.1-1.1-.1-1.6 0-.6-.1-1-.6-1.4-.2-.2-.4-.3-.7-.3h-2.3c-.6 0-1 .1-1.4.6-.2.2-.3.4-.3.7v7.3c0 .8.1 1.3.6 1.6zM12.5 12.6c0 .7-.1 1.4-.1 2h1.9c-.2-2 0-4-.1-6.1.1.1.1.2.2.3.7 1.8 1.5 3.6 2.2 5.5 0 .1.1.3.2.3h1.7c0-.6-.1-1.2-.1-1.7v-2.1c0-2.1-.1-4.3.1-6.4h-1.9c0 .5.1 1.1.1 1.6v4.5h-.1c0-.1-.1-.2-.1-.3-.7-1.8-1.5-3.6-2.2-5.5 0-.1-.2-.3-.3-.3h-1.7c0 .6.1 1.2.1 1.8.1 2.1.1 4.3.1 6.4zM9 12.2c0 .8.1 1.7-.2 2.5h2.1c-.1-.3-.2-.5-.2-.8 0-3.2-.1-6.3.1-9.5H8.9C9 5 9 5.7 9 6.3v5.9z"/></svg>