<svg xmlns="http://www.w3.org/2000/svg" viewBox="0 0 34.8 27.3"><g fill="#FFF"><path d="M5.7 3l25.5.1v13.3h-2.1l.1 5.8-5.9-5.8H2.2l-.6 1.9h21.3l7.8 7.9-.1-7.9h2.5V1.2L6.2 1.1z"/><path d="M20.9 14.4c.2.1.3.2.6.2h2.3c.6 0 1.1-.1 1.4-.6.2-.2.3-.4.3-.6v-3.2c0-.3.1-.7.2-1H23c.1.6.2 1.1.4 1.7h.5v1.7c0 .2-.2.3-.4.3h-1c-.3 0-.4-.1-.4-.4v-1.2-4.8c0-.4.1-.5.5-.5h.8c.3 0 .5.1.4.4 0 .4-.1.7-.1 1.1h2c0-.6-.1-1.1-.1-1.6 0-.6-.1-1-.6-1.4-.2-.2-.4-.3-.7-.3H22c-.6 0-1 .1-1.4.6-.2.2-.3.4-.3.7v7.3c0 .8.1 1.3.6 1.6zM16.9 10.4s0 .1 0 0c-.1-.1-.2-.2-.2-.3-.7-1.8-1.5-3.6-2.2-5.5 0-.1-.2-.3-.3-.3h-1.7c0 .6.1 1.2.1 1.8v6.4c0 .7-.1 1.4-.1 2h1.9c-.2-2 0-4-.1-6.1.1.1.1.2.2.3.7 1.8 1.5 3.6 2.2 5.5 0 .1.1.3.2.3h1.7c0-.6-.1-1.2-.1-1.7v-2.1c0-2.1-.1-4.3.1-6.4h-1.9c0 .5.1 1.1.1 1.6v3.7c.1.3.1.6.1.8zM11.1 14.6c-.1-.3-.2-.5-.2-.8 0-3.2-.1-6.3.1-9.5H9.1c0 .7.1 1.3.1 2v5.8c0 .8.1 1.7-.2 2.5h2.1z"/></g></svg>