<?xml version="1.0" encoding="utf-8"?>
<!-- Generator: Adobe Illustrator 18.0.0, SVG Export Plug-In . SVG Version: 6.00 Build 0)  -->
<!DOCTYPE svg PUBLIC "-//W3C//DTD SVG 1.1//EN" "http://www.w3.org/Graphics/SVG/1.1/DTD/svg11.dtd">
<svg version="1.1" id="Capa_1" xmlns="http://www.w3.org/2000/svg" xmlns:xlink="http://www.w3.org/1999/xlink" x="0px" y="0px"
	 viewBox="0 0 34.8 27.3" enable-background="new 0 0 34.8 27.3" xml:space="preserve">
<g>
	<path fill="#FFFFFF" d="M1.4,18.3l21.2,0l7.9,7.9l-0.1-7.9l2.5,0l0-17.1L6,1.1L1.4,18.3z M20.1,5.6c0-0.3,0.1-0.5,0.3-0.7
		c0.4-0.4,0.8-0.6,1.4-0.6c0.7,0.1,1.5,0,2.3,0c0.3,0,0.5,0.1,0.7,0.3C25.2,5,25.4,5.4,25.3,6c0,0.5,0.1,1,0.1,1.6c-0.6,0-1.3,0-2,0
		c0-0.4,0.1-0.7,0.1-1.1c0-0.3-0.1-0.4-0.4-0.4c-0.3,0-0.5,0-0.8,0c-0.4,0-0.5,0.1-0.5,0.5c0,1.6,0,3.2,0,4.8c0,0.4,0,0.8,0,1.2
		c0,0.3,0.1,0.4,0.4,0.4c0.3,0,0.6,0,1,0c0.2,0,0.4-0.1,0.4-0.3c0-0.6,0-1.1,0-1.7c-0.2,0-0.3,0-0.5,0c-0.1-0.6-0.2-1.1-0.4-1.7
		c0.9,0,1.8,0,2.7,0c-0.1,0.4-0.1,0.7-0.2,1c0,1.1,0,2.2,0,3.2c0,0.3-0.1,0.4-0.3,0.6c-0.4,0.5-0.8,0.6-1.4,0.6
		c-0.8-0.1-1.5,0-2.3,0c-0.2,0-0.4-0.1-0.6-0.2c-0.5-0.4-0.7-0.9-0.7-1.5C20.1,10.5,20.1,8.1,20.1,5.6z M14.1,4.4
		c0.1,0,0.2,0.2,0.3,0.3c0.7,1.8,1.5,3.6,2.2,5.5c0,0.1,0.1,0.2,0.1,0.3c0,0,0,0,0.1,0c0-0.3,0-0.6,0-0.8c0-1.2,0-2.4,0-3.7
		c0-0.5-0.1-1-0.1-1.6c0.6,0,1.3,0,1.9,0c-0.2,2.1-0.1,4.3-0.1,6.4c0,0.7,0,1.4,0,2.1c0,0.6,0.1,1.1,0.1,1.7c-0.5,0-1.1,0-1.7,0
		c-0.1,0-0.2-0.2-0.2-0.3c-0.7-1.8-1.5-3.6-2.2-5.5c0-0.1-0.1-0.2-0.2-0.3c0,2-0.1,4,0.1,6.1c-0.6,0-1.3,0-1.9,0
		c0-0.7,0.1-1.4,0.1-2c0-2.1,0-4.3,0-6.4c0-0.6-0.1-1.2-0.1-1.8C12.9,4.4,13.5,4.4,14.1,4.4z M10.8,4.4c-0.2,3.2-0.1,6.3-0.1,9.5
		c0,0.3,0.1,0.5,0.2,0.8c-0.7,0-1.4,0-2.1,0C9.2,13.8,9,13,9,12.2c0-1.9,0-3.9,0-5.8C9,5.7,9,5,8.9,4.4C9.5,4.4,10.2,4.4,10.8,4.4z"
		/>
	<path d="M20.7,14.4c0.2,0.1,0.3,0.2,0.6,0.2c0.8,0,1.5,0,2.3,0c0.6,0,1.1-0.1,1.4-0.6c0.2-0.2,0.3-0.4,0.3-0.6c0-1.1,0-2.2,0-3.2
		c0-0.3,0.1-0.7,0.2-1c-0.9,0-1.8,0-2.7,0c0.1,0.6,0.2,1.1,0.4,1.7c0.2,0,0.3,0,0.5,0c0,0.6,0,1.2,0,1.7c0,0.2-0.2,0.3-0.4,0.3
		c-0.3,0-0.6,0-1,0c-0.3,0-0.4-0.1-0.4-0.4c0-0.4,0-0.8,0-1.2c0-1.6,0-3.2,0-4.8c0-0.4,0.1-0.5,0.5-0.5c0.3,0,0.5,0,0.8,0
		c0.3,0,0.5,0.1,0.4,0.4c0,0.4-0.1,0.7-0.1,1.1c0.7,0,1.3,0,2,0c0-0.6-0.1-1.1-0.1-1.6c0-0.6-0.1-1-0.6-1.4
		c-0.2-0.2-0.4-0.3-0.7-0.3c-0.8,0-1.5,0-2.3,0c-0.6,0-1,0.1-1.4,0.6c-0.2,0.2-0.3,0.4-0.3,0.7c0,2.4,0,4.9,0,7.3
		C20.1,13.6,20.2,14.1,20.7,14.4z"/>
	<path d="M12.5,12.6c0,0.7-0.1,1.4-0.1,2c0.6,0,1.3,0,1.9,0c-0.2-2,0-4-0.1-6.1c0.1,0.1,0.1,0.2,0.2,0.3c0.7,1.8,1.5,3.6,2.2,5.5
		c0,0.1,0.1,0.3,0.2,0.3c0.6,0,1.2,0,1.7,0c0-0.6-0.1-1.2-0.1-1.7c0-0.7,0-1.4,0-2.1c0-2.1-0.1-4.3,0.1-6.4c-0.6,0-1.3,0-1.9,0
		c0,0.5,0.1,1.1,0.1,1.6c0,1.2,0,2.4,0,3.7c0,0.3,0,0.6,0,0.8c0,0,0,0-0.1,0c0-0.1-0.1-0.2-0.1-0.3c-0.7-1.8-1.5-3.6-2.2-5.5
		c0-0.1-0.2-0.3-0.3-0.3c-0.6,0-1.2,0-1.7,0c0,0.6,0.1,1.2,0.1,1.8C12.5,8.3,12.5,10.5,12.5,12.6z"/>
	<path d="M9,12.2c0,0.8,0.1,1.7-0.2,2.5c0.7,0,1.4,0,2.1,0c-0.1-0.3-0.2-0.5-0.2-0.8c0-3.2-0.1-6.3,0.1-9.5c-0.6,0-1.3,0-1.9,0
		C9,5,9,5.7,9,6.3C9,8.3,9,10.2,9,12.2z"/>
</g>
</svg>
