<?xml version="1.0" encoding="UTF-8" standalone="no"?>
<svg
   xmlns:dc="http://purl.org/dc/elements/1.1/"
   xmlns:cc="http://creativecommons.org/ns#"
   xmlns:rdf="http://www.w3.org/1999/02/22-rdf-syntax-ns#"
   xmlns:svg="http://www.w3.org/2000/svg"
   xmlns="http://www.w3.org/2000/svg"
   xmlns:sodipodi="http://sodipodi.sourceforge.net/DTD/sodipodi-0.dtd"
   xmlns:inkscape="http://www.inkscape.org/namespaces/inkscape"
   id="Capa_1"
   data-name="Capa 1"
   viewBox="0 0 178.35 185.87"
   version="1.1"
   sodipodi:docname="logo7f.svg"
   inkscape:version="0.92.4 (5da689c313, 2019-01-14)">
  <metadata
     id="metadata75">
    <rdf:RDF>
      <cc:Work
         rdf:about="">
        <dc:format>image/svg+xml</dc:format>
        <dc:type
           rdf:resource="http://purl.org/dc/dcmitype/StillImage" />
        <dc:title>Mesa de trabajo 147</dc:title>
      </cc:Work>
    </rdf:RDF>
  </metadata>
  <sodipodi:namedview
     pagecolor="#ffffff"
     bordercolor="#666666"
     borderopacity="1"
     objecttolerance="10"
     gridtolerance="10"
     guidetolerance="10"
     inkscape:pageopacity="0"
     inkscape:pageshadow="2"
     inkscape:window-width="958"
     inkscape:window-height="1018"
     id="namedview73"
     showgrid="false"
     inkscape:zoom="1.2697047"
     inkscape:cx="89.175003"
     inkscape:cy="92.934998"
     inkscape:window-x="-7"
     inkscape:window-y="900"
     inkscape:window-maximized="0"
     inkscape:current-layer="Capa_1" />
  <defs
     id="defs4">
    <style
       id="style2">.cls-1{fill:#d5482c;}.cls-2{fill:#ffe1ad;}</style>
  </defs>
  <title
     id="title6">Mesa de trabajo 147</title>
  <g
     id="g1060">
    <g
       id="g1022">
      <g
         id="g985">
        <g
           id="g949">
          <g
             id="g914">
            <path
               id="path8"
               d="M178.34,96.14c0,48.72-63.95,89.77-113.2,89.73S0,144.7,0,96,49.5,0,98.75,0,178.39,47.42,178.34,96.14Z"
               class="cls-1" />
            <path
               id="path10"
               d="M125.22,111.86H122.5a7.57,7.57,0,0,0,.13-1.54.93.93,0,0,0-.6-.62c-1.8-.23-1.88-.15-1.87,1.65,0,2.42-.34,2,2.11,2.12.69,0,1.41-.27,2.08.33a2.42,2.42,0,0,1,.89,2.1c-.07,1.51,0,3,0,4.54a2.11,2.11,0,0,1-1.8,1.82c-1.3,0-2.59,0-3.89,0a2.41,2.41,0,0,1-1.06-.42,1.92,1.92,0,0,1-.89-2,17.18,17.18,0,0,0-.09-2.23h2.85a1.64,1.64,0,0,1,0,.2c-.43,1.9-.29,2.07,1.64,1.94.47,0,.69-.19.68-.68,0-.79,0-1.57,0-2.36,0-.57-.27-.76-.8-.74s-1.14,0-1.7,0a2.11,2.11,0,0,1-2.18-.89,1.82,1.82,0,0,1-.38-.91c0-1.75,0-3.51,0-5.27a2.18,2.18,0,0,1,1.7-1.75c1.4,0,2.81,0,4.21,0a2.15,2.15,0,0,1,1.71,1.73C125.22,109.84,125.22,110.8,125.22,111.86Z"
               class="cls-2" />
            <path
               id="path12"
               d="M105.7,122.27h-2.59c0-1.8,0-3.59,0-5.38,0-.77-.27-1-1-1-1.74,0-1.57-.1-1.56,1.6,0,1.55,0,3.11,0,4.72H98c.12-5,.09-10,0-15h2.53c0,1.85,0,3.67,0,5.5,0,.47.2.66.68.69,1.87.11,1.87.12,1.87-1.78,0-1.45,0-2.9,0-4.4h2.56C105.61,112.21,105.58,117.19,105.7,122.27Z"
               class="cls-2" />
            <path
               id="path14"
               d="M109.77,119.25h-2.62c1-4.52,2.12-9.05,3.15-13.59a7.18,7.18,0,0,0,0-1.47h3c.2,1.09.35,2.11.58,3.12q1.2,5.16,2.44,10.32c.13.52.35,1,.55,1.58h-2.8a12.36,12.36,0,0,0-.62-2.7c-.44-.92-1.46-.34-2.21-.42a1.07,1.07,0,0,0-.88.45C110.11,117.41,110,118.3,109.77,119.25ZM112,108.92l-.15,0c-.26,1.25-.47,2.51-.77,3.74-.17.69,0,1,.71.9a5.42,5.42,0,0,1,.57,0c.42,0,.57-.2.48-.62C112.56,111.58,112.29,110.25,112,108.92Z"
               class="cls-2" />
            <path
               id="path16"
               d="M96,111.88H93.16c.08-.52.17-1,.22-1.55s-.2-.66-.68-.69c-1.88-.11-1.88-.12-1.88,1.77,0,2.46,0,4.93,0,7.39,0,.68.19,1,.92,1,1.84,0,2-.14,1.43-2a1,1,0,0,1,0-.22H96c0,1.09-.06,2.2-.14,3.31,0,.51-1.18,1.4-1.7,1.4h-4a2.13,2.13,0,0,1-1.77-1.77q0-5.79,0-11.6a2.08,2.08,0,0,1,1.76-1.76c1.35,0,2.71,0,4.06,0a2.1,2.1,0,0,1,1.73,1.71C95.91,109.85,96,110.82,96,111.88Z"
               class="cls-2" />
            <path
               id="path18"
               d="M79.26,119.26c0-.85.14-1.65.15-2.45q0-4.91,0-9.82c0-.91-.08-1.82-.13-2.8,2.27,0,4.65,0,7,0a.57.57,0,0,1,.41.37c.15.74.25,1.49.35,2.08-1.44,0-2.85,0-4.25,0-.72,0-1,.25-.93.95s0,1.35,0,2,.22.81.77.76l1.74-.19v2.9c-.6-.06-1.18-.12-1.77-.16s-.76.23-.74.78c0,.76,0,1.52,0,2.27,0,.57.21.77.77.77,1.44,0,2.89,0,4.4,0l-.38,2.5Z"
               class="cls-2" />
            <path
               id="path20"
               d="M68.84,106.67c-1.55,0-3,0-4.51,0a.89.89,0,0,0-.62.61c-.08.83,0,1.67,0,2.51,0,.5.26.69.71.66s1.17-.12,1.79-.19v2.89a12.14,12.14,0,0,0-1.8-.15c-.24,0-.67.36-.67.55,0,1.89,0,3.77,0,5.7H61.11c0-1.13.1-2.25.11-3.37q0-4.23,0-8.44c0-1.07-.07-2.14-.11-3.27,2.24,0,4.59,0,6.94,0a.62.62,0,0,1,.47.39C68.66,105.34,68.75,106.09,68.84,106.67Z"
               class="cls-2" />
            <path
               id="path22"
               d="M50.46,122.31h-3l5-12.45h-5l.45-2.64c2.21,0,4.34,0,6.47,0a.71.71,0,0,1,.5.45,5.76,5.76,0,0,1-.24,3.47c-1.33,3-2.5,6.15-3.7,9.24A15.87,15.87,0,0,0,50.46,122.31Z"
               class="cls-2" />
            <path
               id="path24"
               d="M78,119.78l-.39,2.49H70.23c.16-5,.07-10,0-15h2.51c0,3.9,0,7.8,0,11.69,0,.63.21.88.85.86C75.06,119.76,76.48,119.78,78,119.78Z"
               class="cls-2" />
            <path
               id="path26"
               d="M36.31,93.48a13.48,13.48,0,0,1-.79-3.07,22.73,22.73,0,0,1-.21-3.07,21,21,0,0,1,.22-3.07,13.32,13.32,0,0,1,.78-3.07,13.32,13.32,0,0,1,.78,3.07,21,21,0,0,1,.22,3.07,22.73,22.73,0,0,1-.21,3.07A13.48,13.48,0,0,1,36.31,93.48Z"
               class="cls-2" />
            <path
               id="path28"
               d="M30.17,87.34a13.48,13.48,0,0,1,3.07-.79,21.12,21.12,0,0,1,3.07-.21,22.62,22.62,0,0,1,3.07.21,13.35,13.35,0,0,1,3.07.79,13.85,13.85,0,0,1-3.07.78,21.53,21.53,0,0,1-6.14,0A13,13,0,0,1,30.17,87.34Z"
               class="cls-2" />
            <path
               id="path30"
               d="M60.74,69A12.75,12.75,0,0,1,60,66a21.53,21.53,0,0,1,0-6.14,13.19,13.19,0,0,1,.78-3.07,12.71,12.71,0,0,1,.78,3.07,21,21,0,0,1,.22,3.07A22.73,22.73,0,0,1,61.53,66,13.27,13.27,0,0,1,60.74,69Z"
               class="cls-2" />
            <path
               id="path32"
               d="M54.6,62.91a13.48,13.48,0,0,1,3.07-.79,19.89,19.89,0,0,1,3.07-.21,22.62,22.62,0,0,1,3.07.21,13.35,13.35,0,0,1,3.07.79,13.85,13.85,0,0,1-3.07.78,22.64,22.64,0,0,1-3.07.22,21.23,21.23,0,0,1-3.07-.22A13.45,13.45,0,0,1,54.6,62.91Z"
               class="cls-2" />
            <path
               id="path34"
               d="M85.17,44.61a12.71,12.71,0,0,1-.78-3.07,21.46,21.46,0,0,1,0-6.13,13.71,13.71,0,0,1,.78-3.07A13.22,13.22,0,0,1,86,35.41a22.51,22.51,0,0,1,.21,3.07A21,21,0,0,1,86,41.54,13.22,13.22,0,0,1,85.17,44.61Z"
               class="cls-2" />
            <path
               id="path36"
               d="M79,38.48a13.48,13.48,0,0,1,3.07-.79,19.89,19.89,0,0,1,3.07-.21,21,21,0,0,1,3.07.21,13.35,13.35,0,0,1,3.07.79,13.85,13.85,0,0,1-3.07.78,21,21,0,0,1-3.07.21,19.89,19.89,0,0,1-3.07-.21A14,14,0,0,1,79,38.48Z"
               class="cls-2" />
            <path
               id="path38"
               d="M85.17,151.53a12.71,12.71,0,0,1-.78-3.07,21.46,21.46,0,0,1,0-6.13,13.71,13.71,0,0,1,.78-3.07,13.22,13.22,0,0,1,.79,3.07,22.48,22.48,0,0,1,.21,3.06,21,21,0,0,1-.21,3.07A13.22,13.22,0,0,1,85.17,151.53Z"
               class="cls-2" />
            <path
               id="path40"
               d="M79,145.39a14,14,0,0,1,3.07-.78,21.23,21.23,0,0,1,3.07-.22,22.52,22.52,0,0,1,3.07.22,13.85,13.85,0,0,1,3.07.78,13.35,13.35,0,0,1-3.07.79,22.51,22.51,0,0,1-3.07.21,19.89,19.89,0,0,1-3.07-.21A13.48,13.48,0,0,1,79,145.39Z"
               class="cls-2" />
            <path
               id="path42"
               d="M109.6,69a13.24,13.24,0,0,1-.78-3.06,21.53,21.53,0,0,1,0-6.14,13.71,13.71,0,0,1,.78-3.07,13.22,13.22,0,0,1,.79,3.07,22.51,22.51,0,0,1,.21,3.07,21.22,21.22,0,0,1-.21,3.07A13.27,13.27,0,0,1,109.6,69Z"
               class="cls-2" />
            <path
               id="path44"
               d="M103.47,62.91a13.27,13.27,0,0,1,3.06-.79,19.89,19.89,0,0,1,3.07-.21,22.51,22.51,0,0,1,3.07.21,13.22,13.22,0,0,1,3.07.79,13.71,13.71,0,0,1-3.07.78,22.52,22.52,0,0,1-3.07.22,21.23,21.23,0,0,1-3.07-.22A13.24,13.24,0,0,1,103.47,62.91Z"
               class="cls-2" />
            <path
               id="path46"
               d="M85.17,93.48a13,13,0,0,1-.78-3.07,21.53,21.53,0,0,1,0-6.14,13.85,13.85,0,0,1,.78-3.07A13.35,13.35,0,0,1,86,84.27a22.51,22.51,0,0,1,.21,3.07A21.22,21.22,0,0,1,86,90.41,13.48,13.48,0,0,1,85.17,93.48Z"
               class="cls-2" />
            <path
               id="path48"
               d="M79,87.34a13.48,13.48,0,0,1,3.07-.79,21.22,21.22,0,0,1,3.07-.21,22.51,22.51,0,0,1,3.07.21,13.35,13.35,0,0,1,3.07.79,13.85,13.85,0,0,1-3.07.78,21.53,21.53,0,0,1-6.14,0A13,13,0,0,1,79,87.34Z"
               class="cls-2" />
            <path
               id="path50"
               d="M134,93.48a14,14,0,0,1-.78-3.07,19.89,19.89,0,0,1-.21-3.07,21,21,0,0,1,.21-3.07A13.85,13.85,0,0,1,134,81.2a13.35,13.35,0,0,1,.79,3.07,22.51,22.51,0,0,1,.21,3.07,19.89,19.89,0,0,1-.21,3.07A13.48,13.48,0,0,1,134,93.48Z"
               class="cls-2" />
            <path
               id="path52"
               d="M127.9,87.34a13.22,13.22,0,0,1,3.07-.79,21,21,0,0,1,3.06-.21,22.51,22.51,0,0,1,3.07.21,13.22,13.22,0,0,1,3.07.79,13.71,13.71,0,0,1-3.07.78,21.46,21.46,0,0,1-6.13,0A12.71,12.71,0,0,1,127.9,87.34Z"
               class="cls-2" />
            <path
               id="path54"
               d="M47.34,128.5h2.95V129H47.94v1.4h2V131h-2v2.21h-.6Z"
               class="cls-2" />
            <path
               id="path56"
               d="M56.77,128.5v3.19c0,.69.2,1,.82,1s.92-.33.92-1V128.5h.6V132a1.48,1.48,0,0,1-2.94,0V128.5Z"
               class="cls-2" />
            <path
               id="path58"
               d="M65.25,128.5H66l1.82,3.95,0,0,0-1.21V128.5h.6v4.69h-.75l-1.82-3.95h0l0,1.23v2.71h-.6Z"
               class="cls-2" />
            <path
               id="path60"
               d="M74.36,128.5h1.57c1.33,0,1.94.55,1.94,2.29,0,1.46-.26,2.4-1.94,2.4H74.36v-.54h.49V129h-.49Zm1.09,4.15h.64c.79,0,1.15-.45,1.15-1.8S76.82,129,76.07,129h-.62Z"
               class="cls-2" />
            <path
               id="path62"
               d="M84.35,131.91l-.45,1.4-.59-.22,1.48-4.59h.77L87,133.09l-.6.22-.43-1.4Zm.82-2.71-.66,2.17h1.33Z"
               class="cls-2" />
            <path
               id="path64"
               d="M96,132.29a1.78,1.78,0,0,1-1.56,1c-1.37,0-1.8-1.26-1.8-2.42,0-1.87,1-2.43,1.74-2.43a1.58,1.58,0,0,1,1.49,1l-.55.28a1.09,1.09,0,0,0-.93-.72c-.93,0-1.12,1.14-1.12,1.86s.17,1.86,1.12,1.86a1.29,1.29,0,0,0,1.11-.75Z"
               class="cls-2" />
            <path
               id="path66"
               d="M102.57,132.65h.66V129h-.66v-.54h1.93V129h-.67v3.61h.67v.54h-1.93Z"
               class="cls-2" />
            <path
               id="path68"
               d="M114.38,130.85c0,.38,0,2.42-1.67,2.42-.75,0-1.66-.54-1.66-2.42s.89-2.43,1.66-2.43S114.38,129,114.38,130.85Zm-2.7,0c0,.68.12,1.85,1,1.85s1-1.17,1-1.85-.13-1.87-1-1.87S111.68,130.15,111.68,130.85Zm2-3.35-1.68.74-.24-.4,1.6-.91Z"
               class="cls-2" />
            <path
               id="path70"
               d="M120.33,128.5h.74l1.82,3.95,0,0,0-1.21V128.5h.6v4.69h-.75l-1.82-3.95h0l.05,1.23v2.71h-.6Z"
               class="cls-2" />
          </g>
        </g>
      </g>
    </g>
  </g>
</svg>
