<svg xmlns="http://www.w3.org/2000/svg" viewBox="0 0 221.45 210.35"><defs><style>.cls-3{fill:#d5482c}</style></defs><g style="isolation:isolate"><g style="mix-blend-mode:multiply" id="Capa_1" data-name="Capa 1"><path class="cls-3" d="M17.15 143.53l-3.42 1.64 6.24 13-1.75.84L12 146l-3.44 1.65-.84-1.65 8.61-4.13zM4.07 121.65l2.06-.51 4.52 18.14-2.06.51zM23.31 163.75l1.14-.76 7.23 10.85-1.15.76zM19 166.61l1.15-.76 7.21 10.84-1.14.76zM31.46 176.26l-2.91 1.94-.95-1.43 2.91-1.94zM0 97.41l6.3-.21.07 2.07-4.2.14.52 16-2.1.07z"/><path class="cls-3" d="M8.89 115.14l-6.05-5.75 3.93-4.2 1.46 1.37-2.59 2.63 4.73 4.4zM6.58 99.51l2.06-.07.17 5.28-2.05.07zM52.7 1.87l6 7.22-2 1.7-4.28-5.12-13.64 11.42 4.29 5.12L41 24l-6-7.21z"/><path class="cls-3" d="M49.64 14.27l-3.78-.33.22-2.41 3.82.26zM6.42 73.58l2.19.33-2.87 19.26-2.18-.32zM8.6 73.38l-1.2-1.59 2.65-1.93 1.16 1.64zM8.51 66l-2.27-1 9.19-19.6 5.46 2.56-1.07 2.24-3.2-1.5-.35.76c-1.06 2.27-2.11 4.55-3.21 6.81a1.74 1.74 0 0 0-.06 1.67c.23.46.39 1 .64 1.58-.7.22-1.33.36-1.91.61a1.68 1.68 0 0 0-.77.72c-.84 1.69-1.62 3.41-2.45 5.15zM18.59 58l.79 2.1-4.74 1.7-.71-2.13zM18.77 57.54l2.1-4.48 2.28 1.07L22 56.6l-.09.19c-1.01 2.14-1.01 2.14-3.14.75zM21 52.65l-.81-2.17 2.32-.8.74 2.2zM25.74 26.58l2.5-.08.42 16.84-6.11.1.1-2.34h3.46zM36.58 28.05l-1.68 1.76-3.59-3.41L33 24.64zM22.24 40.94l-.5.51-1.17 1.24L17 39.24l1.66-1.75zM28.56 23.81h2.35v2.41h-2.25zM35 33.6L33.21 32l1.69-1.78 1.74 1.65zM18.61 37.14l-1.76-1.67 1.67-1.75 1.76 1.67zM55.07 196l1.27.8-2.41 3.83 8.49 5.37 2.4-3.84 1.29.81-3.39 5.4-11-6.94z"/><path class="cls-3" d="M57.78 200.62l1.52-.49.31 2.47-1.45.49zM45.3 196.64l-8.61-7.47 2.69-3.1 1 .86-1.77 2 6.6 5.73 1.77-2 1 .88zM42.65 186.71l.87-1 4.23 3.67-.87 1zM48.33 190.43l.07 2-1.26.09-.07-2zM42.43 186.59l-1.93.17v-1.27l1.92-.19zM213.54 146.47l3.51-11.14 1.75.55-4.8 15.21-1.73-.54a1.75 1.75 0 0 1 .09-.38 2.21 2.21 0 0 0-.21-2.34c-.66-1.11-1.23-2.27-1.8-3.44a1.37 1.37 0 0 1-.07-.87c.26-1 .6-1.9.87-2.86a1.17 1.17 0 0 0-.06-.78c-.34-.72-.74-1.42-1.17-2.22l-3.48 11.07-1.79-.56 4.79-15.23 1.77.55a9.8 9.8 0 0 0-.35 1.17 1.21 1.21 0 0 0 .06.73c.69 1.38 1.4 2.74 2.13 4.1a1.3 1.3 0 0 1 .1 1.18c-.32.91-.61 1.82-.87 2.75a1.15 1.15 0 0 0 .06.73c.35.74.75 1.45 1.2 2.32zM190.86 176.08l1.5 1.43-12.63 13.2-1.5-1.43zM169.22 201.28c.37.5.65.92 1 1.29s.27.55-.1.82c-1.12.79-2.21 1.62-3.31 2.44l-5.52 4.11-.56.41-1.28-1.72 4.3-3.2-3.67-4.94-4.31 3.2-1.31-1.69 9.8-7.29 1.26 1.69-3.69 2.74 3.67 4.94zM165.83 196.29l.29-2.12 6.25.92-.94 6.33-2-.36.7-4.18zM196.62 165.53l-1.9-1.13 4.1-6.9 1.89 1.13zM194.45 166.33l1.93-.47 1.37 5.32-2 .48zM205.79 154.9l.49 2-5.38 1.33-.4-2.05zM206.69 157.12l2-.48.8 3.24-2 .49zM198.67 173.52l-.45-2 3.17-.8.47 2zM210.5 73.53l1.77 9.8-1.56.28L208.25 70l1.54-.28a2.17 2.17 0 0 1 .1.45 1.73 1.73 0 0 0 1 1.5c1 .63 2 1.32 2.91 2a1 1 0 0 1 .37.56c.19.89.32 1.79.5 2.68a1 1 0 0 0 .32.5c.57.42 1.16.82 1.83 1.29L215 68.8l1.6-.29 2.46 13.59-1.58.29a3.69 3.69 0 0 1-.08-.46 1.67 1.67 0 0 0-1-1.5c-1-.63-2-1.33-2.91-2a1.07 1.07 0 0 1-.37-.56c-.18-.88-.31-1.76-.5-2.63a1 1 0 0 0-.34-.54c-.56-.43-1.14-.82-1.72-1.23zM190.26 27.94l-2.11-2.52 1.16-1 5.6 6.7-1.16 1-2.45-2.94-3.38 2.82 2.45 2.93-1.18 1-5.59-6.68 1.16-1 2.1 2.51zM183.18 27.92l.41-4.48 4.53.41-.18 1.44L185 25l-.26 3.12zM212.23 115.46l1.83.41-.88 4 5.32 1.13.88-4 1.83.41-2.33 10.59-1.82-.4 1-4.62-5.3-1.17-1 4.63-1.86-.44zM217.4 113.55l-3.24 2.09-1-1.57 4.68-3 3 4.74-1.5.91zM212.64 62.27l-1.41.56L207 52l1.42-.56zM207.35 64.37l-1.41.55-4.28-10.79 1.41-.56zM208.11 65.86l-.56-1.4 3.59-1.46.55 1.4zM217.48 89.94v1.81h-3.61v12h3.61v1.83H212V89.94zM219.69 93.9h1.76v7.66h-1.76zM219 104.88l-1.16-1.16 1.93-1.85 1.12 1.19zM219.05 90.58l1.86 1.82-1.27 1.21-1.84-1.83zM195 39l5.63 7.42 3-2.31.86 1.13-4.17 3.17-7.32-9.67 3.37-2.56.84 1.11z"/><path class="cls-3" d="M200 40.71l-.3 2.49-1.39-.2.52-3.81 2.71.41-.23 1.4zM201.51 41.05l1.1-.83 2.17 2.87-1.09.83zM198.68 39l-1.26-1.65 1.11-.85 1.26 1.66zM151.61 1.42l.86-1.42 10.85 6.6c.07 0 1.8-3.09 1.88-3 .47.29 1.22.56 1.7.86L164.72 8l-.61 1zM174 10.88l-2.49-1.72.8-1.16 6.63 4.58-.79 1.14-2.91-2-2.31 3.34 2.9 2-.83 1.18-6.61-4.56.8-1.15 2.48 1.71zM167.72 12.61L167 8.53l4.14-.75.19 1.32-2.72.45.54 2.83z"/></g></g></svg>