<svg version="1.1" id="Capa_1" xmlns="http://www.w3.org/2000/svg" x="0" y="0" viewBox="0 0 191.3 330.1" xml:space="preserve"><style>.st21{fill:#d4482c}</style><switch><g><g id="XMLID_50_"><g id="XMLID_199_"><g id="XMLID_265_"><g id="XMLID_266_"><path id="XMLID_267_" class="st21" d="M29.7 198.1h12.2v3.8h-8.1v8.4h7v3.8h-7v8.4h8.1v4.1H29.7v-28.5z"/></g></g><g id="XMLID_261_"><g id="XMLID_262_"><path id="XMLID_263_" class="st21" d="M44.4 198.1h3.9l6.2 17.2h.1v-17.2h4.1v28.5h-3.8l-6.2-17.1h-.1v17.1h-4.1v-28.5z"/></g></g><g id="XMLID_257_"><g id="XMLID_258_"><path id="XMLID_259_" class="st21" d="M75.2 220.3c0 .9-.2 1.7-.5 2.5s-.8 1.5-1.4 2.1c-.6.6-1.3 1.1-2.1 1.4-.8.4-1.6.5-2.5.5-.8 0-1.6-.1-2.4-.3-.8-.2-1.5-.6-2.2-1.1-.6-.5-1.2-1.2-1.6-2.1-.4-.9-.6-1.9-.6-3.2v-15.7c0-.9.2-1.8.5-2.6s.8-1.5 1.4-2.1c.6-.6 1.3-1 2.1-1.4.8-.3 1.7-.5 2.7-.5.9 0 1.8.2 2.6.5s1.5.8 2.1 1.4c.6.6 1 1.3 1.4 2.2.3.8.5 1.8.5 2.7v1.6h-4.1v-1.4c0-.8-.2-1.5-.7-2.1-.5-.6-1.1-.9-1.8-.9-1 0-1.7.3-2 .9-.3.6-.5 1.4-.5 2.4v14.6c0 .8.2 1.5.5 2.1.4.6 1 .8 1.9.8.3 0 .6 0 .9-.1.3-.1.6-.2.8-.5.3-.2.5-.5.6-.9.2-.4.2-.8.2-1.4v-1.4h4.1v2z"/></g></g><g id="XMLID_253_"><g id="XMLID_254_"><path id="XMLID_255_" class="st21" d="M91.8 220.2c0 .9-.2 1.8-.5 2.6s-.8 1.5-1.4 2.1c-.6.6-1.3 1.1-2.1 1.4-.8.3-1.7.5-2.6.5-.9 0-1.8-.2-2.6-.5s-1.5-.8-2.1-1.4-1.1-1.3-1.4-2.1c-.3-.8-.5-1.7-.5-2.6v-22.1h4.1v21.7c0 1 .2 1.8.7 2.2.5.5 1.1.7 1.8.7s1.3-.2 1.8-.7.7-1.2.7-2.2v-21.7h4.1v22.1z"/></g></g><g id="XMLID_249_"><g id="XMLID_250_"><path id="XMLID_251_" class="st21" d="M95.6 198.1h12.2v3.8h-8.1v8.4h7v3.8h-7v8.4h8.1v4.1H95.6v-28.5z"/></g></g><g id="XMLID_245_"><g id="XMLID_246_"><path id="XMLID_247_" class="st21" d="M110.2 198.1h3.9l6.2 17.2h.1v-17.2h4.1v28.5h-3.8l-6.2-17.1h-.1v17.1h-4.1v-28.5z"/></g></g><g id="XMLID_241_"><g id="XMLID_242_"><path id="XMLID_243_" class="st21" d="M130.8 202h-4.7v-3.8h13.5v3.8h-4.7v24.6h-4.1V202z"/></g></g><g id="XMLID_236_"><g id="XMLID_237_"><path id="XMLID_238_" class="st21" d="M141.4 198.1h6.6c4.8 0 7.2 2.8 7.2 8.4 0 1.7-.3 3.1-.8 4.3-.5 1.2-1.4 2.1-2.7 2.9l4.4 13h-4.3l-3.8-12.2h-2.4v12.2h-4.1v-28.6zm4.1 12.8h2.3c.7 0 1.3-.1 1.7-.3.4-.2.8-.5 1-.9.2-.4.4-.8.5-1.4.1-.5.1-1.2.1-1.9s0-1.4-.1-1.9-.2-1-.5-1.4c-.3-.4-.6-.7-1.1-.9-.5-.2-1.1-.3-1.8-.3h-2.1v9z"/></g></g><g id="XMLID_231_"><g id="XMLID_232_"><path id="XMLID_233_" class="st21" d="M158.2 204.9c0-1.1.2-2.2.6-3 .4-.9.9-1.6 1.6-2.2.7-.6 1.4-1 2.2-1.3.8-.3 1.6-.4 2.5-.4.8 0 1.6.1 2.5.4.8.3 1.5.7 2.2 1.3.7.6 1.2 1.3 1.6 2.2.4.9.6 1.9.6 3v15c0 1.2-.2 2.2-.6 3.1-.4.9-.9 1.6-1.6 2.2-.7.6-1.4 1-2.2 1.3-.8.3-1.6.4-2.5.4-.8 0-1.6-.1-2.5-.4-.8-.3-1.5-.7-2.2-1.3-.7-.6-1.2-1.3-1.6-2.2-.4-.9-.6-1.9-.6-3.1v-15zm4.1 15c0 1 .3 1.7.8 2.2.5.5 1.2.7 1.9.7s1.4-.2 1.9-.7c.5-.5.8-1.2.8-2.2v-15c0-1-.3-1.7-.8-2.2-.5-.5-1.2-.7-1.9-.7s-1.4.2-1.9.7c-.5.5-.8 1.2-.8 2.2v15z"/></g></g><g id="XMLID_227_"><g id="XMLID_228_"><path id="XMLID_229_" class="st21" d="M59.1 237.1H63l5.2 15.1h.1l5.2-15.1h4v28.5h-4.1v-17.3h-.1l-4 12.2h-2l-4-12.2h-.1v17.3h-4.1v-28.5z"/></g></g><g id="XMLID_222_"><g id="XMLID_223_"><path id="XMLID_224_" class="st21" d="M85.8 237.1h3.4l6.4 28.5h-4.1l-1.2-6.1h-5.6l-1.2 6.1h-4.1l6.4-28.5zm1.7 8.2l-2.1 10.3h4.1l-2-10.3z"/></g></g><g id="XMLID_218_"><g id="XMLID_219_"><path id="XMLID_220_" class="st21" d="M99.2 253.5l-5.6-16.4h4.3l3.3 11.3h.1l3.3-11.3h4.3l-5.6 16.4v12h-4.1v-12z"/></g></g><g id="XMLID_213_"><g id="XMLID_214_"><path id="XMLID_215_" class="st21" d="M110.7 243.8c0-1.1.2-2.2.6-3 .4-.9.9-1.6 1.6-2.2.7-.6 1.4-1 2.2-1.3.8-.3 1.6-.4 2.5-.4.8 0 1.6.1 2.5.4.8.3 1.5.7 2.2 1.3.7.6 1.2 1.3 1.6 2.2.4.9.6 1.9.6 3v15c0 1.2-.2 2.2-.6 3.1-.4.9-.9 1.6-1.6 2.2-.7.6-1.4 1-2.2 1.3-.8.3-1.6.4-2.5.4-.8 0-1.6-.1-2.5-.4-.8-.3-1.5-.7-2.2-1.3-.7-.6-1.2-1.3-1.6-2.2-.4-.9-.6-1.9-.6-3.1v-15zm4 15c0 1 .3 1.7.8 2.2.5.5 1.2.7 1.9.7s1.4-.2 1.9-.7c.5-.5.8-1.2.8-2.2v-15c0-1-.3-1.7-.8-2.2-.5-.5-1.2-.7-1.9-.7s-1.4.2-1.9.7c-.5.5-.8 1.2-.8 2.2v15z"/></g></g><g id="XMLID_208_"><g id="XMLID_209_"><path id="XMLID_210_" class="st21" d="M127.9 237.1h6.6c4.8 0 7.2 2.8 7.2 8.4 0 1.7-.3 3.1-.8 4.3-.5 1.2-1.4 2.1-2.7 2.9l4.4 13h-4.3l-3.8-12.2H132v12.2h-4.1v-28.6zm4.1 12.7h2.3c.7 0 1.3-.1 1.7-.3.4-.2.8-.5 1-.9.2-.4.4-.8.5-1.4.1-.5.1-1.2.1-1.9s0-1.4-.1-1.9-.2-1-.5-1.4c-.3-.4-.6-.7-1.1-.9-.5-.2-1.1-.3-1.8-.3H132v9z"/></g></g><g id="XMLID_204_"><g id="XMLID_205_"><path id="XMLID_206_" class="st21" d="M145 237.1h12.2v3.8H149v8.4h7v3.8h-7v8.4h8.1v4.1H145v-28.5z"/></g></g><g id="XMLID_200_"><g id="XMLID_201_"><path id="XMLID_202_" class="st21" d="M173 245.3h-4.1v-.9c0-.9-.2-1.7-.7-2.4-.4-.7-1.2-1-2.2-1-.6 0-1 .1-1.4.3-.4.2-.6.5-.8.8-.2.3-.3.7-.4 1.2-.1.4-.1.9-.1 1.4 0 .6 0 1 .1 1.4 0 .4.1.7.3 1 .2.3.4.5.7.7.3.2.7.4 1.3.6l3.1 1.2c.9.3 1.6.8 2.2 1.2.6.5 1 1 1.3 1.6.3.6.5 1.3.6 2.2.1.8.2 1.7.2 2.8 0 1.2-.1 2.3-.4 3.3-.2 1-.6 1.9-1.2 2.6-.5.7-1.3 1.3-2.2 1.7-.9.4-2 .6-3.3.6-1 0-1.9-.2-2.8-.5-.9-.3-1.6-.8-2.2-1.4-.6-.6-1.1-1.3-1.5-2.1-.4-.8-.5-1.7-.5-2.7v-1.5h4.1v1.3c0 .7.2 1.4.7 2 .4.6 1.2.9 2.2.9.7 0 1.2-.1 1.6-.3.4-.2.7-.5.9-.8.2-.4.3-.8.4-1.3.1-.5.1-1.1.1-1.8s0-1.4-.1-1.8c-.1-.5-.2-.9-.3-1.2-.2-.3-.4-.5-.7-.7-.3-.2-.7-.4-1.2-.6l-2.9-1.2c-1.8-.7-2.9-1.7-3.5-2.9-.6-1.2-.9-2.7-.9-4.5 0-1.1.1-2.1.4-3 .3-1 .7-1.8 1.3-2.5.6-.7 1.3-1.2 2.2-1.7.9-.4 1.9-.6 3.1-.6 1 0 1.9.2 2.8.6.8.4 1.6.9 2.2 1.5.6.6 1.1 1.3 1.4 2.1.3.8.5 1.5.5 2.3v2.1z"/></g></g></g><g id="XMLID_189_"><g id="XMLID_194_"><g id="XMLID_195_"><path id="XMLID_196_" class="st21" d="M30 239h4.3c1.6 0 2.9.5 3.8 1.4.9.9 1.3 2.2 1.3 3.8v9.4c0 1.9-.5 3.3-1.4 4.2-.9.9-2.2 1.3-3.9 1.3h-4V239zm2.9 17.4h1.3c.8 0 1.4-.2 1.7-.6.3-.4.5-1 .5-1.9v-9.7c0-.8-.2-1.4-.5-1.8-.3-.4-.9-.6-1.8-.6h-1.3v14.6z"/></g></g><g id="XMLID_190_"><g id="XMLID_191_"><path id="XMLID_192_" class="st21" d="M42 239h8.6v2.7h-5.7v5.9h5v2.7h-5v5.9h5.7v2.9H42V239z"/></g></g></g><g id="XMLID_186_"><g id="XMLID_187_"><path id="XMLID_188_" class="st21" d="M29.6 263.1h21.1v2.5H29.6z"/></g></g><g id="XMLID_65_"><path id="XMLID_183_" class="st21" d="M69.5 287.6h-1.9l-.3-2.2H65l-.3 2.2H63l1.9-12.1h2.8l1.8 12.1zm-4.4-3.8h1.8l-.9-6.1-.9 6.1z"/><path id="XMLID_181_" class="st21" d="M72.5 275.5v9.3c0 .9.4 1.2 1 1.2s1-.3 1-1.2v-9.3h1.8v9.2c0 1.9-1 3-2.8 3-1.9 0-2.8-1.1-2.8-3v-9.2h1.8z"/><path id="XMLID_179_" class="st21" d="M77.4 275.5h5.9v1.7h-2v10.4h-1.9v-10.4h-2v-1.7z"/><path id="XMLID_176_" class="st21" d="M84.2 278.5c0-1.9 1-3 2.9-3s2.9 1.1 2.9 3v6.3c0 1.9-1 3-2.9 3s-2.9-1.1-2.9-3v-6.3zm1.9 6.4c0 .9.4 1.2 1 1.2s1-.3 1-1.2v-6.5c0-.9-.4-1.2-1-1.2s-1 .3-1 1.2v6.5z"/><path id="XMLID_173_" class="st21" d="M95.6 287.6c-.1-.3-.2-.5-.2-1.5v-1.9c0-1.1-.4-1.5-1.2-1.5h-.7v4.9h-1.9v-12.1h2.9c2 0 2.8.9 2.8 2.8v1c0 1.2-.4 2.1-1.2 2.5 1 .4 1.3 1.3 1.3 2.6v1.9c0 .6 0 1 .2 1.5h-2zm-2.1-10.3v3.7h.7c.7 0 1.1-.3 1.1-1.3v-1.2c0-.9-.3-1.2-1-1.2h-.8z"/><path id="XMLID_171_" class="st21" d="M98.9 275.5h1.9v12.1h-1.9v-12.1z"/><path id="XMLID_168_" class="st21" d="M102.5 275.5h3c1.9 0 2.8 1.1 2.8 3v6.1c0 1.9-.9 3-2.8 3h-3v-12.1zm1.9 1.8v8.6h1.1c.6 0 1-.3 1-1.2v-6.3c0-.9-.4-1.2-1-1.2h-1.1z"/><path id="XMLID_165_" class="st21" d="M116 287.6h-1.9l-.3-2.2h-2.3l-.3 2.2h-1.7l1.9-12.1h2.8l1.8 12.1zm-4.3-3.8h1.8l-.9-6.1-.9 6.1z"/><path id="XMLID_162_" class="st21" d="M117.3 275.5h3c1.9 0 2.8 1.1 2.8 3v6.1c0 1.9-.9 3-2.8 3h-3v-12.1zm1.9 1.8v8.6h1.1c.6 0 1-.3 1-1.2v-6.3c0-.9-.4-1.2-1-1.2h-1.1z"/><path id="XMLID_160_" class="st21" d="M126.6 280.6h2.6v1.7h-2.6v3.5h3.3v1.7h-5.2v-12.1h5.2v1.7h-3.3v3.5z"/><path id="XMLID_158_" class="st21" d="M133.9 275.4c1.8 0 2.8 1.1 2.8 3v.4h-1.8v-.5c0-.9-.3-1.2-1-1.2-.6 0-1 .3-1 1.2 0 2.5 3.7 3 3.7 6.4 0 1.9-1 3-2.8 3-1.9 0-2.8-1.1-2.8-3v-.7h1.8v.9c0 .9.4 1.2 1 1.2s1-.3 1-1.2c0-2.5-3.7-3-3.7-6.4 0-2 1-3.1 2.8-3.1z"/><path id="XMLID_156_" class="st21" d="M27.2 294.2h5.9v1.7h-2v10.4h-1.9v-10.4h-2v-1.7z"/><path id="XMLID_153_" class="st21" d="M38.2 306.3c-.1-.3-.2-.5-.2-1.5v-1.9c0-1.1-.4-1.5-1.2-1.5h-.7v4.9h-1.9v-12.1h2.9c2 0 2.8.9 2.8 2.8v1c0 1.2-.4 2.1-1.2 2.5 1 .4 1.3 1.3 1.3 2.6v1.9c0 .6 0 1 .2 1.5h-2zm-2-10.4v3.7h.7c.7 0 1.1-.3 1.1-1.3v-1.2c0-.9-.3-1.2-1-1.2h-.8z"/><path id="XMLID_150_" class="st21" d="M47.7 306.3h-1.9l-.3-2.2h-2.3l-.3 2.2h-1.7l1.9-12.1h2.8l1.8 12.1zm-4.3-3.8h1.8l-.9-6.1-.9 6.1z"/><path id="XMLID_147_" class="st21" d="M48.9 294.2h3c1.9 0 2.8 1.1 2.8 3v6.1c0 1.9-.9 3-2.8 3h-3v-12.1zm1.9 1.7v8.6h1.1c.6 0 1-.3 1-1.2V297c0-.9-.4-1.2-1-1.2h-1.1z"/><path id="XMLID_145_" class="st21" d="M56.3 294.2h1.9v12.1h-1.9v-12.1z"/><path id="XMLID_143_" class="st21" d="M65.5 301.8v1.6c0 1.9-1 3-2.8 3s-2.8-1.1-2.8-3v-6.3c0-1.9 1-3 2.8-3s2.8 1.1 2.8 3v1.2h-1.8V297c0-.9-.4-1.2-1-1.2s-1 .3-1 1.2v6.5c0 .9.4 1.2 1 1.2s1-.3 1-1.2v-1.7h1.8z"/><path id="XMLID_141_" class="st21" d="M67 294.2h1.9v12.1H67v-12.1z"/><path id="XMLID_138_" class="st21" d="M70.4 297.1c0-1.9 1-3 2.9-3s2.9 1.1 2.9 3v6.3c0 1.9-1 3-2.9 3s-2.9-1.1-2.9-3v-6.3zm1.9 6.4c0 .9.4 1.2 1 1.2s1-.3 1-1.2V297c0-.9-.4-1.2-1-1.2s-1 .3-1 1.2v6.5z"/><path id="XMLID_136_" class="st21" d="M79.5 297.5v8.8h-1.7v-12.1h2.4l2 7.2v-7.2h1.7v12.1h-2l-2.4-8.8z"/><path id="XMLID_133_" class="st21" d="M91.7 306.3h-1.9l-.3-2.2h-2.3l-.3 2.2H85l1.9-12.1h2.8l2 12.1zm-4.4-3.8h1.8l-.9-6.1-.9 6.1z"/><path id="XMLID_131_" class="st21" d="M92.9 294.2h1.9v10.4h3.1v1.7h-5v-12.1z"/><path id="XMLID_129_" class="st21" d="M101 299.3h2.6v1.7H101v3.5h3.3v1.7h-5.2v-12.1h5.2v1.7H101v3.5z"/><path id="XMLID_127_" class="st21" d="M108.4 294.1c1.8 0 2.8 1.1 2.8 3v.4h-1.8v-.5c0-.9-.3-1.2-1-1.2-.6 0-1 .3-1 1.2 0 2.5 3.7 3 3.7 6.4 0 1.9-1 3-2.8 3s-2.8-1.1-2.8-3v-.7h1.8v.9c0 .9.4 1.2 1 1.2s1-.3 1-1.2c0-2.5-3.7-3-3.7-6.4 0-2 .9-3.1 2.8-3.1z"/><path id="XMLID_125_" class="st21" d="M115.6 294.2h1.9v12.1h-1.9v-12.1z"/><path id="XMLID_123_" class="st21" d="M121 297.5v8.8h-1.7v-12.1h2.4l2 7.2v-7.2h1.7v12.1h-2l-2.4-8.8z"/><path id="XMLID_120_" class="st21" d="M127 294.2h3c1.9 0 2.8 1.1 2.8 3v6.1c0 1.9-.9 3-2.8 3h-3v-12.1zm1.9 1.7v8.6h1.1c.6 0 1-.3 1-1.2V297c0-.9-.4-1.2-1-1.2h-1.1z"/><path id="XMLID_117_" class="st21" d="M137.4 291.6l-1.8 1.9h-1.3l1.2-1.9h1.9zm-3 2.6h1.9v12.1h-1.9v-12.1z"/><path id="XMLID_115_" class="st21" d="M140.9 299.6h2.7v3.8c0 1.9-1 3-2.8 3-1.9 0-2.8-1.1-2.8-3v-6.3c0-1.9 1-3 2.8-3 1.9 0 2.8 1.1 2.8 3v1.2h-1.8V297c0-.9-.4-1.2-1-1.2s-1 .3-1 1.2v6.5c0 .9.4 1.2 1 1.2s1-.3 1-1.2v-2.2h-.9v-1.7z"/><path id="XMLID_113_" class="st21" d="M147 299.3h2.6v1.7H147v3.5h3.3v1.7h-5.2v-12.1h5.2v1.7H147v3.5z"/><path id="XMLID_111_" class="st21" d="M153.5 297.5v8.8h-1.7v-12.1h2.4l2 7.2v-7.2h1.7v12.1h-2l-2.4-8.8z"/><path id="XMLID_108_" class="st21" d="M165.7 306.3h-1.9l-.3-2.2h-2.3l-.3 2.2H159l1.9-12.1h2.8l2 12.1zm-4.3-3.8h1.8l-.9-6.1-.9 6.1z"/><path id="XMLID_106_" class="st21" d="M169.5 294.1c1.8 0 2.8 1.1 2.8 3v.4h-1.8v-.5c0-.9-.3-1.2-1-1.2-.6 0-1 .3-1 1.2 0 2.5 3.7 3 3.7 6.4 0 1.9-1 3-2.8 3-1.9 0-2.8-1.1-2.8-3v-.7h1.8v.9c0 .9.4 1.2 1 1.2s1-.3 1-1.2c0-2.5-3.7-3-3.7-6.4 0-2 .9-3.1 2.8-3.1z"/><path id="XMLID_103_" class="st21" d="M41.5 313.7h3c1.9 0 2.8 1.1 2.8 3v6.1c0 1.9-.9 3-2.8 3h-3v-12.1zm1.9 1.7v8.6h1.1c.6 0 1-.3 1-1.2v-6.3c0-.9-.4-1.2-1-1.2h-1.1z"/><path id="XMLID_101_" class="st21" d="M50.8 318.8h2.6v1.7h-2.6v3.5h3.3v1.7h-5.2v-12.1h5.2v1.7h-3.3v3.5z"/><path id="XMLID_98_" class="st21" d="M64.3 316.7v1.6c0 1.9-.9 3-2.8 3h-.9v4.5h-1.9v-12.1h2.8c1.9 0 2.8 1.1 2.8 3zm-3.7-1.3v4.1h.9c.6 0 .9-.3.9-1.1v-1.8c0-.9-.3-1.1-.9-1.1h-.9z"/><path id="XMLID_95_" class="st21" d="M69.6 325.8c-.1-.3-.2-.5-.2-1.5v-1.9c0-1.1-.4-1.5-1.2-1.5h-.7v4.9h-1.9v-12.1h2.9c2 0 2.8.9 2.8 2.8v1c0 1.2-.4 2.1-1.2 2.5 1 .4 1.3 1.3 1.3 2.6v1.9c0 .6 0 1 .2 1.5h-2zm-2.1-10.4v3.7h.7c.7 0 1.1-.3 1.1-1.3v-1.2c0-.9-.3-1.2-1-1.2h-.8z"/><path id="XMLID_93_" class="st21" d="M74.8 318.8h2.6v1.7h-2.6v3.5h3.3v1.7h-5.2v-12.1h5.2v1.7h-3.3v3.5z"/><path id="XMLID_90_" class="st21" d="M79.6 313.7h3c1.9 0 2.8 1.1 2.8 3v6.1c0 1.9-.9 3-2.8 3h-3v-12.1zm1.9 1.7v8.6h1.1c.6 0 1-.3 1-1.2v-6.3c0-.9-.4-1.2-1-1.2h-1.1z"/><path id="XMLID_88_" class="st21" d="M87 313.7h1.9v12.1H87v-12.1z"/><path id="XMLID_85_" class="st21" d="M90.5 316.6c0-1.9 1-3 2.9-3s2.9 1.1 2.9 3v6.3c0 1.9-1 3-2.9 3s-2.9-1.1-2.9-3v-6.3zm1.9 6.4c0 .9.4 1.2 1 1.2s1-.3 1-1.2v-6.5c0-.9-.4-1.2-1-1.2s-1 .3-1 1.2v6.5z"/><path id="XMLID_82_" class="st21" d="M106.5 316.7v1.6c0 1.9-.9 3-2.8 3h-.9v4.5h-1.9v-12.1h2.8c1.9 0 2.8 1.1 2.8 3zm-3.7-1.3v4.1h.9c.6 0 .9-.3.9-1.1v-1.8c0-.9-.3-1.1-.9-1.1h-.9z"/><path id="XMLID_80_" class="st21" d="M109.6 313.7v9.3c0 .9.4 1.2 1 1.2s1-.3 1-1.2v-9.3h1.8v9.2c0 1.9-1 3-2.8 3s-2.8-1.1-2.8-3v-9.2h1.8z"/><path id="XMLID_78_" class="st21" d="M114.5 313.7h5.9v1.7h-2v10.4h-1.9v-10.4h-2v-1.7z"/><path id="XMLID_76_" class="st21" d="M123.3 313.7v9.3c0 .9.4 1.2 1 1.2s1-.3 1-1.2v-9.3h1.8v9.2c0 1.9-1 3-2.8 3-1.9 0-2.8-1.1-2.8-3v-9.2h1.8z"/><path id="XMLID_74_" class="st21" d="M132.8 322.3l1.3-8.6h2.6v12.1h-1.8v-8.7l-1.3 8.7h-1.8l-1.4-8.6v8.6h-1.7v-12.1h2.6l1.5 8.6z"/><path id="XMLID_71_" class="st21" d="M144.6 325.8h-1.9l-.3-2.2H140l-.3 2.2H138l1.9-12.1h2.8l1.9 12.1zm-4.3-3.8h1.8l-.9-6.1-.9 6.1z"/><path id="XMLID_69_" class="st21" d="M147.6 321.8l-2.4-8.1h2l1.5 5.5 1.5-5.5h1.8l-2.4 8.1v4h-1.9v-4z"/><path id="XMLID_66_" class="st21" d="M152.6 316.6c0-1.9 1-3 2.9-3s2.9 1.1 2.9 3v6.3c0 1.9-1 3-2.9 3s-2.9-1.1-2.9-3v-6.3zm1.9 6.4c0 .9.4 1.2 1 1.2s1-.3 1-1.2v-6.5c0-.9-.4-1.2-1-1.2s-1 .3-1 1.2v6.5z"/></g><g id="XMLID_63_"><path id="XMLID_64_" class="st21" d="M26.2 271.8h148.5v1.2H26.2z"/></g><g id="XMLID_61_"><path id="XMLID_62_" class="st21" d="M26.2 289.4h148.5v1.8H26.2z"/></g><g id="XMLID_59_"><path id="XMLID_60_" class="st21" d="M26.2 310h148.5v.6H26.2z"/></g><g id="XMLID_57_"><path id="XMLID_58_" class="st21" d="M26.2 328.8h148.5v1.2H26.2z"/></g><g id="XMLID_55_"><path id="XMLID_56_" class="st21" d="M26.2 328.8h148.5v1.2H26.2z"/></g><g id="XMLID_53_"><path id="XMLID_54_" class="st21" d="M140.3 280.6h33.8v.8h-33.8z"/></g><g id="XMLID_51_"><path id="XMLID_52_" class="st21" d="M25.7 280.6h33.1v.8H25.7z"/></g></g><g id="XMLID_1_"><g id="XMLID_2_"><path id="XMLID_49_" class="st21" d="M114.1 61c-1 3-2 6.1-3 9.1-.1.3.1.6.4.7h.2c.2 0 .5-.1.5-.4.8-2.3 1.5-4.6 2.3-6.9 4.1-12.5 8.3-25.4 12.8-37.9 1.5-4.3 3.2-8.9 5.3-14.5.1-.2 0-.4-.1-.5-.1-.2-.4-.2-.6-.2-.2 0-.4.2-.4.4-5.2 14.2-10.3 28.8-15.5 44.7l-1.9 5.5z"/><path id="XMLID_48_" class="st21" d="M119.9 57.8c-2 4.7-3.8 9-5.5 13-.1.2-.1.3 0 .5.1.1.3.2.5.2h.1c.2 0 .4-.2.5-.4 4.2-10.1 8.6-20.3 12.8-30.1 2.5-5.8 5-11.6 7.4-17.3 2.1-4.9 3.8-9.1 5.5-13 .1-.2.1-.3 0-.5s-.3-.2-.6-.2c-.2 0-.4.2-.5.4-4.2 10-8.6 20.1-12.8 29.9-2.4 5.8-4.9 11.7-7.4 17.5z"/><path id="XMLID_47_" class="st21" d="M126.7 60.3c-2.9 4.4-5.5 8.3-7.9 12-.2.3-.1.6.2.7.1.1.2.1.3.1.2 0 .4-.1.5-.3C126.3 63 133 53 139.5 43.5c3.1-4.6 6.3-9.3 9.4-14 3.1-4.5 5.6-8.3 8-11.9.2-.3.1-.6-.2-.7-.2-.2-.6-.2-.8.2-5.8 8.8-11.8 17.7-17.6 26.2-3.9 5.6-7.8 11.3-11.6 17z"/><path id="XMLID_46_" class="st21" d="M154.3 33.4c-3.3 4.1-6.6 8.1-9.5 11.8-5.6 7-11.6 14.6-18.9 23.9-1.4 1.8-2.8 3.5-4.2 5.3-.1.2-.2.4-.1.6.1.2.3.4.5.4h.1c.1 0 .3-.1.4-.2 3.4-4.4 7.1-9.1 11.5-14.7 7.1-8.9 13.4-17 20-25.1.4-.5.9-1.1 1.3-1.6 1.8-2.3 3.7-4.6 5.7-6.7.1-.2.2-.3.1-.5s-.2-.4-.4-.4-.4 0-.5.2c-1.7 1.8-3.4 3.8-5 5.8-.4.4-.7.8-1 1.2z"/><path id="XMLID_45_" class="st21" d="M124.7 81.9c-.3.2-.3.5-.2.8.1.2.3.3.5.3.1 0 .2 0 .3-.1 14.4-8.2 29.3-15.8 44.2-22.6 4.2-1.9 8.5-3.8 12.8-5.7.3-.1.4-.4.3-.7-.1-.3-.5-.5-.8-.3-15.2 6.6-30.3 13.8-44.8 21.6-4 2.1-8.2 4.4-12.3 6.7z"/><path id="XMLID_44_" class="st21" d="M135.6 80.3c-3.6 1.3-7.2 2.6-10.8 3.8-.4.1-.4.5-.3.8.1.2.2.4.5.4h.2c3.6-1.3 7.3-2.6 10.9-3.9 13-4.6 26.4-9.4 39.6-14.2 4.9-1.8 9.8-3.6 14.3-5.3.2-.1.3-.2.4-.5 0-.2 0-.4-.2-.6-.1-.1-.3-.1-.5-.1-16.6 6.3-33.5 12.3-50.8 18.5l-3.3 1.1z"/><path id="XMLID_43_" class="st21" d="M126.1 88.2h.1c10.5-2.1 21.2-4.7 31.5-7.1 5.7-1.4 11.6-2.8 17.5-4.1 5-1.1 9.4-2.1 13.5-2.9.4-.1.5-.4.4-.6-.1-.3-.3-.6-.7-.5-10.5 2.1-21.2 4.7-31.5 7.1-5.7 1.4-11.6 2.8-17.5 4.1-5 1.1-9.5 2.1-13.5 2.9-.4.1-.5.4-.4.6.1.2.3.5.6.5z"/><path id="XMLID_42_" class="st21" d="M190.3 83.9c-8.9.5-17.9 1.4-26.7 2.3-7.9.8-16 1.6-24.1 2.2-5.1.3-9.7.6-13.9.6-.4 0-.6.3-.6.6s.2.6.5.6c12.8-.2 25.7-1.5 38.1-2.8 4.1-.4 8.3-.8 12.5-1.2 5.4-.5 9.9-.9 14.1-1.1.4 0 .6-.3.5-.6.1-.3 0-.6-.4-.6z"/><path id="XMLID_41_" class="st21" d="M175.4 125.6c-4.8-2.6-9.5-5.4-14.1-8.1-1.5-.9-3.1-1.8-4.6-2.7-8-4.6-16.1-9.4-24-14l-3.1-1.8c-2.1-1.2-4.1-2.4-6.2-3.6-.3-.2-.6 0-.8.2-.1.2-.1.6.2.8 4.1 2.4 8.3 4.8 12.3 7.1 2 1.1 3.9 2.3 5.9 3.4l.9.5c8.1 4.7 16.4 9.6 24.6 14.3l1.6.9c2.2 1.3 4.5 2.6 6.8 3.8.1 0 .2.1.3.1.1 0 .2 0 .3-.1.2-.1.3-.3.3-.5-.1 0-.2-.2-.4-.3z"/><path id="XMLID_40_" class="st21" d="M170.4 130.7c-4.3-2.9-8.7-5.9-12.8-8.7l-11.4-7.8c-5.4-3.7-11-7.6-16.6-11.3-.7-.4-1.3-.9-2-1.3-2.1-1.5-4.3-3-6.5-4.3-.1-.1-.3-.1-.5-.1-.1 0-.2.1-.3.3-.1.1-.1.3-.1.4 0 .2.1.3.3.4 1.9 1.1 3.8 2.4 5.5 3.6.5.4 1.1.7 1.6 1.1 4 2.7 8 5.4 11.9 8.1l.7.5c1.9 1.3 3.7 2.6 5.6 3.8 7.4 5 15 10.3 22.5 15.3.6.4 1.3.9 1.9 1.3 2.3 1.5 4.6 3.1 7 4.4.1 0 .2.1.3.1.1 0 .2 0 .3-.1.2-.1.3-.3.3-.5s-.1-.3-.3-.4c-2.1-1.1-4.1-2.5-6-3.8-.4-.4-.9-.7-1.4-1z"/><path id="XMLID_39_" class="st21" d="M184.3 114.5c-5.7-2.2-11.5-4.3-17.2-6.3-1.6-.6-3.2-1.1-4.8-1.7-4.5-1.6-9-3.2-13.5-4.7-4.9-1.7-9.7-3.4-14.6-5.1l-1.8-.6c-2.4-.8-4.9-1.7-7.3-2.6-.3-.1-.6 0-.7.3-.1.3 0 .7.3.8 5 1.9 10.1 3.7 15.1 5.4 1.8.6 3.6 1.3 5.4 1.9l4.2 1.5c7.9 2.8 16.2 5.7 24.2 8.6l1.3.5c2.9 1 5.9 2.1 8.9 3.3h.2c.2 0 .4-.1.5-.3.2-.5.1-.9-.2-1z"/><path id="XMLID_38_" class="st21" d="M121.2 128.9c-1.5-3.6-3-7.4-4.5-11.1-1.7-4.2-3.1-7.7-4.5-10.9-.1-.3-.4-.4-.7-.3-.3.1-.5.5-.3.8 3.2 7.5 6.3 15.3 9.3 22.8 2.5 6.3 5.1 12.8 7.8 19.2 1.8 4.3 3.5 8.2 5 11.7.1.2.3.3.4.3.1 0 .2 0 .2-.1.3-.1.5-.5.3-.8-4.5-10.4-8.8-21.1-13-31.6z"/><path id="XMLID_37_" class="st21" d="M109 162.2v-.4c-.1-.9-.1-1.8-.2-2.7-.1-1.8-.2-3.7-.3-5.5-.2-3.6-.4-7.3-.6-11.1-.3-7.3-.6-14.9-.8-22.4-.1-4.2-.2-8.3-.2-12.4 0-.4-.3-.6-.6-.6s-.6.2-.6.6c.2 14.6.7 29.2 1.5 43.3.1 2 .2 4 .4 6 .1 1 .1 2 .2 3l.1 1.4c0 .1 0 .3.1.5 0 .2.1.6.1.8-.1.1-.2.3-.2.6 0 .2.2.3.3.4.1.1.2.1.3.1.2 0 .3-.1.4-.2 0 0 0-.1.1-.1l.1.1v-.2c.1-.3 0-.8-.1-1.2z"/><path id="XMLID_36_" class="st21" d="M99.1 124c.4-2.1.8-4.3 1.2-6.5.3-1.6.6-3.2 1-4.8.3-1.6.7-3.2 1-4.9.1-.4-.2-.6-.5-.7-.3-.1-.6.1-.6.4-.3 1.6-.6 3.2-1 4.7-.3 1.5-.7 3.1-.9 4.7-.4 2.2-.8 4.3-1.1 5.9-.6 2.9-1.1 5.9-1.7 8.8-.4 2.2-.9 4.4-1.3 6.6-1.1 5.8-2.1 10.7-3 15.8l-.1.5c-.6 3.6-1.3 7.3-1.7 11 0 .2 0 .4-.1.6-.1.8-.2 1.8 0 2.5.1.5.4.6.6.6h.1c.3 0 .7-.2.9-.6.1-.2.1-.4 0-.5-.1-.2-.3-.3-.5-.3 0-.9.1-1.8.2-2.7v-.1c.5-3.7 1.1-7.4 1.8-11l.1-.4c1.3-7.1 2.7-14.3 4-21.2.5-2.8 1.1-5.6 1.6-8.4z"/><path id="XMLID_35_" class="st21" d="M90.8 118.3c2.3-5.1 4.3-9.3 6.1-13.2.2-.3 0-.7-.3-.8-.2-.1-.5-.1-.7.2-4.3 8.9-8.3 17.8-11.6 25.3-4.5 10.1-8.3 19-11.7 27.2-1.8 4.3-3.2 7.9-4.6 11.6-.1.3 0 .6.3.7h.2c.2 0 .5-.1.6-.4 3-7.9 6.4-15.8 9.4-22.8 4-9.5 8.2-18.9 12.3-27.8z"/><path id="XMLID_34_" class="st21" d="M103.5 69.5c.1 0 .2 0 .3-.1.2-.1.3-.3.3-.5l3.2-58.1c0-.4-.3-.5-.5-.6-.3 0-.6.2-.6.5L103.7 56c-.2 4.3-.5 8.5-.7 12.8 0 .2.1.4.2.5.1.1.2.2.3.2z"/><path id="XMLID_33_" class="st21" d="M99.1 69.6c0 .3.3.4.5.4h.1c.3 0 .6-.3.6-.7-2.2-16.5-4.8-33-7.5-49.2-.8-4.4-1.6-9.1-2.4-13.7-.2-.3-.4-.4-.7-.4-.3.1-.6.3-.5.7 2.9 16.3 5.6 32.8 8 49.1.6 4.5 1.3 9.1 1.9 13.8z"/><path id="XMLID_32_" class="st21" d="M175.4 144.7c-.7-.6-1.3-1.2-2-1.7-1-.9-2.1-1.8-3.2-2.7l-.2-.3c-4.2-3.5-8.6-7-12.5-10.1-4.7-3.7-9.7-7.7-15.7-12.6-4.9-3.9-9.6-7.6-14.2-11.2-.8-.6-1.6-1.3-2.4-1.9-1.8-1.4-3.6-2.9-5.5-4.3-.1 0-.1-.1-.2-.1l-.1-.1c-.2-.1-.3-.1-.5-.1-.2.1-.3.3-.3.5s.1.4.2.6c1.6 1.2 3.3 2.5 4.9 3.8.6.5 1.2 1 1.8 1.4 4.1 3.2 8.4 6.6 13.6 10.8 5.9 4.7 11.1 8.8 15.8 12.6 4.6 3.7 8.8 7 13 10.5 3.1 2.6 7.2 6 11 9.6 1.1 1 2 2 2.8 3 .1.1.2.2.4.2h.1c.2 0 .4-.2.5-.4.1-.2 0-.4-.1-.6-2.1-2.6-4.7-4.8-7.2-6.9z"/><path id="XMLID_31_" class="st21" d="M168 151.8c-.5-.5-1.1-1-1.6-1.5s-1.1-.9-1.6-1.4c-4-3.6-8-7.3-12-11.2-7.1-6.8-14.6-14.3-22.7-22.9-3.8-4-7.9-8.4-12.6-13.4-.1-.1-.3-.2-.5-.2s-.4.2-.4.4c-.1.2 0 .4.1.5 11.3 12.2 25 26.5 39.8 40.4 1.9 1.8 3.8 3.5 5.7 5.3 1 .9 2 1.8 3 2.8l.2.2c1.1.9 1.7 1.5 2.1 2-.4.3-.4.6-.3.8.1.4.5.7 1 .8h.1c.3 0 .6-.2.8-.5.3-.8-.6-1.6-1.1-2.1z"/><path id="XMLID_30_" class="st21" d="M156.3 163.6c-.1-.1-.2-.1-.2-.2-1.4-1.3-2.7-2.8-3.8-4-3.5-4.1-6.7-8.4-9.7-12.5-6.4-8.8-13.1-18.8-20.6-30.4-2.6-4-5.1-7.9-7.4-11.9-.2-.3-.5-.3-.8-.2-.2.1-.4.5-.2.8 4.5 7.6 9.2 14.9 14.5 22.8 6 9.1 12.6 18.7 19.6 27.7 1.8 2.3 3.2 4 4.6 5.6.7.8 1.4 1.5 2 2.1.1.1.3.2.4.4.3.3.9.8 1.2 1.2-.2 0-.4.1-.5.3-.2.4-.1.9.2 1.1.2.1.5.2.7.2.3 0 .6-.1.8-.3.2-.2.3-.5.3-.8.3-.7-.5-1.4-1.1-1.9z"/><path id="XMLID_29_" class="st21" d="M116.2 136.3c-.6-2.4-1.2-4.8-1.7-7.3-1.8-7.6-3.5-15.1-5-22.1 0-.2-.2-.3-.3-.4-.1-.1-.2-.1-.4 0-.3.1-.5.3-.5.7 2.4 11 5 22.2 7.6 33l.7 2.8c1.7 7.1 3.4 14.5 4.5 21.9.5 3.6.8 7.3 1 11 0 .4.3.6.6.6s.5-.2.5-.6c-.2-6-1-12.5-2.5-20-1.4-6.6-3-13.2-4.5-19.6z"/><path id="XMLID_28_" class="st21" d="M93.9 103.6c.2-.3 0-.6-.2-.8-.2-.1-.6-.1-.8.2-8.8 15.5-17.4 31.3-25.7 46.8-2.3 4.3-4.6 8.7-7 13.2-.2.3 0 .7.3.8.1 0 .2.1.3.1.2 0 .3-.1.5-.3 8.2-15.7 16.8-31.5 25.4-47 2.3-4.3 4.8-8.7 7.2-13z"/><path id="XMLID_27_" class="st21" d="M91 101.8c.2-.3.1-.7-.1-.9-.2-.2-.5-.2-.7.1-10.9 13.6-21.2 27.9-30.5 42.4-2.6 4.1-5.3 8.4-7.8 12.7-.1.2-.1.4 0 .5.1.2.3.3.5.3s.4-.1.5-.3c8.8-14.9 18.6-29.4 29-43.1 2.8-3.9 5.9-7.8 9.1-11.7z"/><path id="XMLID_26_" class="st21" d="M76.3 110.5c4-3.9 8.2-7.9 12.3-11.8.1-.1.2-.3.2-.5s-.2-.4-.4-.4c-.2-.1-.4 0-.5.1-14.6 13.9-29 28.3-42.7 42.9-3.8 4.1-7.7 8.3-11.6 12.5-.3.3-.2.6.1.8.1.1.2.2.4.2.1 0 .3-.1.4-.2 13.4-14.9 27.5-29.6 41.8-43.6z"/><path id="XMLID_25_" class="st21" d="M72.7 108.2c4.5-3.6 9.8-7.9 15.1-12.3.2-.1.2-.3.2-.5s-.2-.4-.4-.5c-.2-.1-.4 0-.6.1-9.3 7.7-18.8 15.3-28.5 23.1-8 6.4-16.3 13.1-25.4 20.3-1.7 1.3-3.4 2.7-5.1 4-.2.1-.2.3-.2.5s.2.4.4.5h.2c.1 0 .3 0 .4-.1 4.2-3.3 8.7-6.9 14.6-11.6 11.5-9.2 20.9-16.6 29.3-23.5z"/><path id="XMLID_24_" class="st21" d="M86.5 92.1c-10.1 6.8-20.3 13.8-29 19.7-7.9 5.4-15.9 10.9-24.5 16.8l-4.8 3.3c-.3.2-.3.6-.1.8.1.1.2.2.4.2.1 0 .2 0 .3-.1 4.6-3.2 9.1-6.3 13.7-9.4 11.2-7.7 20.4-14 28.7-19.7 6.2-4.2 11.2-7.7 15.9-10.8.3-.2.3-.6.1-.8-.1-.1-.4-.2-.7 0z"/><path id="XMLID_23_" class="st21" d="M91.5 58.4c1.3 4.4 2.6 8.9 4 13.8.1.2.2.3.4.4h.1c.2 0 .3-.1.4-.2.1-.1.2-.3.1-.5-5-18-9.7-32.9-14.7-46.8-1.5-4.2-3.1-8.4-4.7-12.5-.1-.4-.5-.4-.8-.3-.3.1-.4.4-.3.7 5.5 13.8 10.6 28.7 15.5 45.4z"/><path id="XMLID_22_" class="st21" d="M58.3 21.8c.3.5.6.9.9 1.4 3 4.7 6.1 9.5 8.7 13.5 2.2 3.4 4.4 6.7 6.5 10.1 4 6.1 8.1 12.5 12.1 18.7.4.7.8 1.3 1.3 2 1.5 2.2 3 4.6 4.3 7 .1.2.3.3.5.3.1 0 .2 0 .3-.1.3-.1.4-.5.2-.8-1.1-2.1-2.4-4.1-3.7-6.1-.3-.5-.7-1-1-1.5-2.7-4.3-5.5-8.5-8.5-13.2l-4.5-6.9C70.7 39 65.8 31.5 61.1 24l-1.2-1.8c-1.6-2.5-3.3-5.2-4.8-7.8-.1-.1-.2-.2-.4-.3-.1 0-.3 0-.4.1-.3.1-.4.5-.2.8 1.3 2.3 2.8 4.6 4.2 6.8z"/><path id="XMLID_21_" class="st21" d="M31.2 35.6c.4.3.9.7 1.3 1 4 2.9 7.9 5.8 12.5 9.2 9.4 7 19.3 14.4 30.3 22.7 4.3 3.3 9 6.8 13.8 10.4.1.1.2.1.3.1.2 0 .3-.1.4-.2.2-.2.2-.6-.1-.9-9.3-7.1-18.5-14-27.1-20.4-9.5-7.1-18.9-14.1-28.3-21-.6-.4-1.2-.8-1.7-1.3-2.2-1.6-4.4-3.2-6.7-4.7-.2-.1-.4-.1-.5 0-.2.1-.3.3-.3.5s.1.4.3.5c2 1.3 4 2.7 5.8 4.1z"/><path id="XMLID_20_" class="st21" d="M5.6 52.8c2.4.7 4.8 1.6 7.1 2.4.6.2 1.2.5 1.8.7 5.2 1.9 10.3 3.9 16.1 6.1 3.4 1.3 6.9 2.6 10.3 4 9.3 3.5 18.8 7.2 28.3 10.7 6.3 2.3 11.5 4.3 17 6.1h.2c.1 0 .2 0 .3-.1.2-.1.2-.4.2-.6 0-.2-.2-.4-.4-.4-9.8-3.3-19.7-7.1-29.2-10.8l-4.8-1.8c-3.6-1.4-7.3-2.8-10.9-4.2-8.2-3.2-16.8-6.4-25.2-9.6-.8-.3-1.5-.6-2.3-.9-2.7-1-5.5-2.1-8.3-2.9-.4-.1-.6.1-.7.4.1.5.2.8.5.9z"/><path id="XMLID_19_" class="st21" d="M95.1 60.4c.7 3.7 1.4 7.5 2.1 11.3 0 .2.1.3.3.4h.2c.1 0 .3-.1.4-.2.2-.1.2-.3.2-.6C96 58 93.1 44.8 89.8 31.8c-.9-3.6-1.9-7.3-3-11.1-.1-.4-.4-.5-.7-.4-.3.1-.5.3-.4.7 3.6 13.1 6.8 26.3 9.4 39.4z"/><path id="XMLID_18_" class="st21" d="M101 68.9c0 .4.3.6.6.6s.6-.2.5-.6c-.4-14.9-1.2-30.3-2.4-45.8-.3-4.2-.7-8.5-1.1-13.2 0-.4-.4-.6-.7-.5-.3 0-.5.2-.5.6 1.4 16.6 2.4 31.6 3 45.8.4 4.1.5 8.6.6 13.1z"/><path id="XMLID_17_" class="st21" d="M105.9 69.7c.1.1.2.1.3.1.1 0 .2 0 .3-.1.2-.1.3-.3.4-.5 1.3-11.7 3.4-23.5 5.4-34.8 1.1-6.4 2.3-12.9 3.3-19.4.9-5.6 1.5-10.1 2-14.3 0-.2 0-.4-.2-.5-.2-.1-.4-.1-.6 0-.2.1-.3.3-.4.5-1.3 11.7-3.4 23.5-5.4 34.8-1.1 6.4-2.3 12.9-3.3 19.4-.9 5.6-1.5 10.1-2 14.3 0 .2.1.4.2.5z"/><path id="XMLID_16_" class="st21" d="M83.7 52.1c1.3 2.8 2.7 5.6 4 8.4 2.3 4.9 4.3 8.9 6.2 12.7.1.2.2.3.4.3s.4-.1.5-.3c.1-.2.1-.4 0-.6-3.4-7-6.8-14.1-10.1-21-3.6-7.6-7.3-15.5-11.1-23.1-2.2-4.4-4.3-8.5-6.3-12.4-.1-.2-.2-.3-.4-.3s-.4.1-.5.3c-.1.2-.1.4 0 .6 6 11.7 11.7 23.8 17.3 35.4z"/><path id="XMLID_15_" class="st21" d="M52.1 37.5l.6.6c3.6 3.9 7.4 7.7 10.5 10.9 6.5 6.7 13.2 13.4 19.7 19.9l1.8 1.8 1.6 1.6c1.3 1.3 2.7 2.7 4 4.1.1.1.2.2.4.2h.1c.2 0 .4-.2.4-.4.1-.2 0-.4-.1-.6-1.1-1.2-2.3-2.4-3.5-3.5l-1.3-1.3-3.3-3.5-6-6c-6.9-7-14.8-14.9-22.4-22.9l-.9-.9c-2.4-2.5-4.9-5.1-7.1-7.9-.2-.2-.5-.3-.7-.1-.2.2-.3.6-.1.9 2 2.5 4.2 4.8 6.3 7.1z"/><path id="XMLID_14_" class="st21" d="M25.5 46.8C34.3 51.5 43 56.3 51 60.7c9.5 5.2 19.4 10.6 29 16 .7.4 1.3.7 2 1.1 1.9 1 3.9 2.1 5.7 3.4.1.1.2.1.3.1h.2c.2-.1.3-.3.3-.5s-.1-.4-.3-.5c-1.5-1-3.2-1.9-4.8-2.8-.5-.3-1.1-.6-1.6-.9-4.4-2.5-8.8-4.9-12.7-7.1-9-5-18.8-10.4-30.8-16.9-4.6-2.5-8.5-4.6-12.4-6.7-.3-.2-.6 0-.8.2 0 .2.1.5.4.7z"/><path id="XMLID_13_" class="st21" d="M86.2 84.4c-4.4-1-8.8-2.2-13-3.3-2.8-.7-5.7-1.5-8.6-2.2-9.9-2.5-20.6-5.1-31.5-7.3-4.8-1-9.9-2-15-2.7-.4-.1-.7.2-.7.5 0 .2.1.5.4.6 9.7 1.4 19.4 3.6 28.8 5.8 9.9 2.3 20 4.8 29.4 7.2l2.4.6c2.4.6 4.9 1.3 7.4 1.8h.1c.2 0 .3-.1.4-.2.1-.2.2-.4.1-.6.2 0 0-.2-.2-.2z"/><path id="XMLID_12_" class="st21" d="M135.6 71.1c-2.8 2-5.6 3.9-8.3 5.9l-3.8 2.7c-.3.2-.3.6-.1.8.1.1.2.2.4.2.1 0 .2 0 .3-.1 1.7-1.2 3.5-2.5 5.2-3.7 5.3-3.8 10.9-7.7 16.4-11.4 3.3-2.2 6.7-4.3 10-6.3 3.5-2.1 7.1-4.3 10.5-6.6 4.1-2.8 7.6-5.4 10.7-8.1.1-.1.2-.3.2-.5s-.2-.4-.4-.5c-.2-.1-.4 0-.6.1-5.9 5.2-12.4 9.3-19.6 13.7-7.5 4.7-14.3 9.2-20.9 13.8z"/><path id="XMLID_11_" class="st21" d="M127.1 73.4l-3.8 3.5c-.3.3-.2.6 0 .8.1.1.3.2.4.2.1 0 .3 0 .4-.2l4.1-3.8c10.3-9.4 20.9-19.2 31-29 3.3-3.2 6.5-6.4 9.6-9.5.3-.3.2-.6 0-.8-.2-.2-.5-.3-.8 0-10.6 10.7-21.4 20.8-34.4 32.8-2.1 2-4.3 4-6.5 6z"/><path id="XMLID_10_" class="st21" d="M123 59.6l-1.5 2.8c-1.6 2.9-3.1 5.8-4.7 8.7-.1.2-.1.4 0 .6.1.2.3.3.5.3s.4-.1.4-.3c2.6-4.8 5.2-9.6 7.7-14.3 1.9-3.5 3.8-7.1 5.8-10.6l.7-1.3c5.2-9.6 10.5-19.4 15.9-29.1l1.2-2.1c1.1-2.1 2.3-4.2 3.6-6.1.1-.2.1-.3.1-.5-.1-.2-.3-.3-.5-.3s-.4.1-.5.3c-1.1 1.7-2.1 3.5-3.1 5.2-.3.6-.6 1.1-.9 1.7-2.6 4.6-5.1 9.2-7.5 13.5-5.8 10.4-11.5 20.8-17.2 31.5z"/><path id="XMLID_9_" class="st21" d="M108.3 68.6c0 .2 0 .4.2.5.1.1.3.2.4.2h.2c.2-.1.3-.2.3-.4 4.6-20.7 8.4-36.4 12.3-51 1.3-4.8 2.7-10 4.4-15.8.1-.3-.1-.6-.4-.7-.3-.1-.6 0-.7.4-4.9 17.5-9.4 34.6-13.1 51-1.3 5.8-2.6 11.5-3.6 15.8z"/><path id="XMLID_8_" class="st21" d="M191.2 101.6c-.1-.2-.2-.3-.4-.3l-25.6-4.4c-2.5-.4-5.1-.9-7.5-1.3-5.8-1.1-11.9-2.1-17.9-3-2.4-.3-4.8-.5-7.1-.7-2.3-.2-4.8-.4-7.1-.7h-.1c-.2 0-.4.1-.5.2-.1.2-.2.4-.1.6.1.2.2.3.4.3 2.3.3 4.7.5 7 .7 1.8.1 3.7.3 5.5.5 3.4.4 6.8 1 10.1 1.6.8.1 1.7.3 2.5.4l40.2 6.9h.1c.2 0 .3-.1.4-.2.1-.2.2-.4.1-.6z"/><path id="XMLID_7_" class="st21" d="M99.7 106.4c.1-.3-.1-.6-.4-.7-.3-.1-.6 0-.7.4-5.3 17.8-11.2 35.7-17.5 53-1.8 4.9-3.6 9.9-5.6 14.9-.1.2 0 .4.1.5.1.1.3.2.5.2h.1c.2 0 .4-.2.5-.4 6.6-17.4 12.8-35.1 18.4-52.7 1.5-5 3.1-10.2 4.6-15.2z"/><path id="XMLID_6_" class="st21" d="M104.3 107c-.3 0-.6.2-.6.5-.9 17.8-2.5 35.7-4.8 53.2-.7 4.9-1.4 10-2.2 15 0 .2 0 .4.2.6.1.1.3.1.4.1h.2c.2-.1.3-.2.3-.4 2.8-17.6 4.8-35.5 6.1-53.2.4-5 .7-10.2.9-15.3 0-.3-.3-.4-.5-.5z"/><path id="XMLID_5_" class="st21" d="M87.1 90.6c0-.2 0-.4-.2-.6-.1-.1-.3-.1-.5-.1-18.2 6.7-36.4 13.3-54.7 20l-15.3 5.6c-.2.1-.3.2-.4.4 0 .2 0 .4.2.6.1.1.2.1.3.1h.2L86.6 91c.3 0 .4-.2.5-.4z"/><path id="XMLID_4_" class="st21" d="M41.2 85.1c8.3.5 16.8 1.1 25.2 1.5 6.9.3 13.7.6 20.1.7.3 0 .5-.3.5-.5 0-.3-.2-.6-.6-.6-10.2-.2-21.2-.7-34.5-1.5-3.5-.2-7.1-.5-10.6-.7-7.1-.5-14.4-.9-21.6-1.3-6.8-.4-13.1-.7-19.1-.9-.2 0-.4.1-.5.2-.1.2-.1.4 0 .6.1.3.2.4.5.4 12.1.3 24.1 1 33.3 1.6 2.4.2 4.8.3 7.3.5z"/><path id="XMLID_3_" class="st21" d="M67.6 92.1c5.8-1 12-2 18.8-3.1.2 0 .3-.1.4-.3.1-.2 0-.4-.1-.6-.1-.2-.3-.2-.6-.2-10.8 1.7-20.8 3.4-30.6 5.1-4.7.8-9.4 1.7-14 2.5-4 .7-7.9 1.4-11.9 2.1-6 1.1-12.1 2.1-18.2 3.2-.2 0-.3.1-.4.3-.1.2 0 .4.1.6.1.1.3.2.4.2h.1c8.8-1.5 18.2-3.2 29.8-5.2 8.9-1.6 17.5-3.1 26.2-4.6z"/></g></g></g></switch></svg>