<?xml version="1.0" encoding="utf-8"?>
<!-- Generator: Adobe Illustrator 18.1.1, SVG Export Plug-In . SVG Version: 6.00 Build 0)  -->
<svg version="1.1" id="Capa_1" xmlns="http://www.w3.org/2000/svg" xmlns:xlink="http://www.w3.org/1999/xlink" x="0px" y="0px"
	 viewBox="0 0 61.5 61.5" enable-background="new 0 0 61.5 61.5" xml:space="preserve">
<rect x="0" y="0" fill="#FFFF01" width="61.5" height="61.5"/>
<g>
	<g>
		<path fill="#211915" d="M44.5,24.3H17c-0.6,0-1-0.5-1-1s0.5-1,1-1h27.4c0.6,0,1,0.5,1,1S45,24.3,44.5,24.3z"/>
	</g>
	<g>
		<path fill="#211915" d="M44.5,31.8H17c-0.6,0-1-0.5-1-1c0-0.6,0.5-1,1-1h27.4c0.6,0,1,0.5,1,1C45.5,31.3,45,31.8,44.5,31.8z"/>
	</g>
	<g>
		<path fill="#211915" d="M44.5,39.2H17c-0.6,0-1-0.5-1-1s0.5-1,1-1h27.4c0.6,0,1,0.5,1,1S45,39.2,44.5,39.2z"/>
	</g>
</g>
</svg>
