<svg version="1.0" xmlns="http://www.w3.org/2000/svg" viewBox="0 0 54.3 44.2"><path d="M45.7 26l-3 .1.1 8.3-8.2-8.4H14.7c-3.1 0-5.6-2.5-5.6-5.7l.1-13.4H40c3.1 0 5.7 2.6 5.7 5.7V26z"/><path fill="#FFA3E6" d="M41.9 4.2h-36v16.6c0 4.3 3.5 7.9 7.9 7.9H34L45.1 40l-.2-11.3h3.5v-18c0-3.6-2.9-6.5-6.5-6.5zM45.7 26l-3 .1.1 8.3-8.2-8.4H14.7c-3.1 0-5.6-2.5-5.6-5.7l.1-13.4H40c3.1 0 5.7 2.6 5.7 5.7V26z"/><g fill="#FFA3E6"><path d="M41 13.8h-2.7c.1-.5.1-1 .2-1.5 0-.4-.2-.6-.6-.6h-1.1c-.6 0-.7.1-.7.7V20.7c0 .4.2.5.5.5h1.3c.3 0 .5-.1.5-.4v-2.4h-.7c-.2-.8-.3-1.5-.5-2.3H41c-.1.5-.2 1-.2 1.4V22c0 .4-.1.6-.3.9-.5.7-1.1.9-2 .8-1-.1-2.1 0-3.1 0-.3 0-.5-.1-.8-.3-.7-.5-.9-1.2-.9-2.1.1-3.3 0-6.7 0-10 0-.4.1-.7.4-1 .5-.6 1.1-.8 1.9-.8 1 .1 2.1 0 3.1 0 .4 0 .6.1.9.4.6.5.9 1.1.8 1.9 0 .5.1 1.2.2 2zM29.1 17.7v-1.1-5c0-.7-.1-1.4-.1-2.2h2.7c-.3 2.9-.1 5.9-.1 8.8v2.9c0 .8.1 1.6.1 2.4h-2.4c-.1 0-.2-.2-.3-.4l-3-7.5c-.1-.2-.1-.3-.2-.5.1 2.8-.2 5.6.1 8.4h-2.6c0-1 .1-1.9.1-2.8v-8.9c0-.8-.1-1.6-.1-2.5h2.3c.1 0 .3.2.3.4l3 7.5c0 .2 0 .4.2.5-.1 0 0 0 0 0zM16.9 14.3c-.1.5.1.8.5.8.6 0 1.2-.1 1.8-.2v2.7c-.6-.1-1.2-.1-1.8-.2-.4 0-.6.1-.6.6v2.5c0 .3.2.5.5.5h3.3c.3 0 .7-.1 1.1-.2-.1.9-.3 1.7-.4 2.6h-6.9c0-.8.1-1.6.1-2.4v-9.1c0-.9-.1-1.8-.1-2.7h6.9c.1.8.3 1.7.4 2.6-1.5-.4-2.9-.2-4.4-.3-.3 0-.6.3-.5.6.2.8.2 1.5.1 2.2z"/></g></svg>