<?xml version="1.0" encoding="utf-8"?>
<!-- Generator: Adobe Illustrator 18.1.1, SVG Export Plug-In . SVG Version: 6.00 Build 0)  -->
<svg version="1.1" id="Capa_1" xmlns="http://www.w3.org/2000/svg" xmlns:xlink="http://www.w3.org/1999/xlink" x="0px" y="0px"
	 viewBox="0 0 727 176" enable-background="new 0 0 727 176" xml:space="preserve">
<g opacity="0.8">
	<g>
		<g>
			<g>
				<g>
					<path fill="#A0AFA6" d="M165.4,145.3C165.4,145.3,165.4,145.3,165.4,145.3l-25.6,0c-0.5,0-1-0.3-1.3-0.7s-0.3-1,0-1.5
						c2.6-4.8,1.3-9.4,0-14.2c-0.3-1.2-0.7-2.3-0.9-3.5c-0.8-3.4-1.7-6.9-2.5-10.3c-1-4.1-2.1-8.3-3-12.5c-0.5-2.2-1.5-2.9-4-2.9
						c-0.6,0-1.2,0-1.8,0.1c-2.3,0.2-3,1.1-3,3.5c0,3.9,0,7.9,0,11.8c0,6.2,0,12.7,0.1,19c0,1.9,0.6,3.9,1.2,5.9
						c0.3,1,0.6,2.1,0.9,3.2c0.1,0.4,0,0.9-0.3,1.3s-0.7,0.6-1.2,0.6c0,0,0,0,0,0l-24.6,0c-0.4,0-0.8-0.2-1.1-0.5
						c-0.3-0.3-0.4-0.7-0.4-1.2c1.8-16.3,1.6-33,1.4-49.1c-0.1-9.1-0.2-18.5,0-27.8c0.2-6.7,0.2-12.2,0-17.3c-0.1-2.2,0-4.4,0.1-6.6
						c0.2-6.4,0.4-12.4-2.7-18.4c-0.2-0.5-0.2-1,0.1-1.5c0.3-0.4,0.8-0.7,1.3-0.7c0,0,0,0,0,0l34.4,0c1.6,0,3.3,0,4.9,0
						c1.6,0,3.3,0,4.9,0c3.2,0,5.8,0.1,8.1,0.2c2.7,0.2,5.3,1.5,7.2,2.7c8.5,5.1,9.2,12.7,8.9,18.8c-0.6,11.6-0.4,23.4-0.2,34.9
						l0.1,5c0,2.9-0.4,6.6-4.3,9.1c-5.5,3.6-6.8,7.6-4.6,14.4c2.7,8.3,4.8,17,6.8,25.4c0.8,3.5,1.7,7.2,2.6,10.8
						c0.1,0.4,0,0.9-0.3,1.3S165.9,145.3,165.4,145.3z M142.1,142.3l21.3,0c-0.8-3-1.5-6-2.2-9c-2-8.3-4.1-16.9-6.7-25.2
						c-2.6-8-0.8-13.5,5.8-17.9c2.1-1.4,2.9-3.2,2.9-6.5l-0.1-5c-0.2-11.5-0.4-23.4,0.2-35.1c0.4-7.9-1.8-12.8-7.4-16.1
						c-1.5-0.9-3.8-2.2-5.9-2.3c-2.3-0.1-4.8-0.2-7.9-0.2c-1.6,0-3.3,0-4.9,0c-1.6,0-3.3,0-4.9,0l-32.1,0c2.4,6,2.2,11.9,2,17.7
						c-0.1,2.1-0.1,4.3-0.1,6.4c0.2,5.2,0.2,10.8,0,17.5c-0.2,9.2-0.1,18.6,0,27.6c0.2,15.7,0.4,31.9-1.2,47.8l21,0
						c-0.1-0.4-0.2-0.8-0.3-1.2c-0.6-2.2-1.3-4.4-1.3-6.7c-0.2-6.4-0.1-12.8-0.1-19.1c0-3.9,0-7.9,0-11.8c0-4.1,1.9-6.3,5.8-6.6
						c0.6,0,1.3-0.1,2-0.1c2.5,0,5.9,0.5,6.9,5.2c0.9,4.1,2,8.3,3,12.4c0.9,3.4,1.7,6.9,2.5,10.3c0.3,1.1,0.6,2.3,0.9,3.4
						C142.6,132.6,143.9,137.3,142.1,142.3z M138.6,80l-0.2,0c-3.9-0.1-7.8-0.1-11.7,0l-0.2,0c-2.1,0-3.7-0.5-4.8-1.6
						c-1.1-1.1-1.5-2.7-1.5-4.8c0.1-2.9,0.1-5.9,0.1-8.8c0-1.3,0-2.5,0-3.8c0-1.2,0-2.5,0-3.7c0-2.8,0-5.7,0-8.5
						c-0.1-2,0.4-3.5,1.5-4.6c1.1-1.1,2.7-1.6,4.7-1.6l12.2,0c2,0,3.6,0.5,4.7,1.6c1,1.1,1.6,2.6,1.6,4.6c-0.1,8.9-0.1,17,0,24.9
						c0,2.1-0.5,3.6-1.6,4.7C142.2,79.4,140.7,80,138.6,80z M132.2,76.9c2.1,0,4.2,0,6.2,0l0.2,0c1.2,0,2.1-0.2,2.6-0.7
						c0.5-0.5,0.7-1.4,0.7-2.6c-0.1-7.9,0-16,0-24.9c0-1.1-0.2-2-0.7-2.4c-0.5-0.5-1.3-0.7-2.6-0.7l-12.2,0c-1.2,0-2.1,0.2-2.6,0.7
						c-0.4,0.5-0.7,1.3-0.6,2.4c0.1,2.9,0.1,5.8,0,8.6c0,1.2,0,2.4,0,3.7c0,1.3,0,2.5,0,3.8c0,2.9,0,5.9-0.1,8.9
						c0,1.2,0.2,2.1,0.6,2.6c0.5,0.5,1.3,0.7,2.6,0.7l0.1,0C128.5,76.9,130.3,76.9,132.2,76.9z"/>
				</g>
				<g>
					<path fill="#A0AFA6" d="M219,145.9c-0.7,0-1.4,0-2.2-0.1c-3.4-0.2-7.1-0.4-11.4-0.4c-3.6,0-7.4,0.1-11,0.2
						c-1.4,0-2.9,0.1-4.3,0.1l-0.2,0c-3.2,0-5.3-1.4-7.4-3c-5.9-4.5-8.4-10.1-8.2-18.9c0.4-24.8,0.3-50.1,0.2-74.5l0-11.3
						c0-3.6,1.4-5.9,3.6-8.5c4.3-5,9.4-7.4,16.1-7.4c0.7,0,1.5,0,2.2,0.1c3.4,0.2,7.1,0.3,11.4,0.3c3.7,0,7.5-0.1,11.1-0.2
						c1.4,0,2.7-0.1,4.1-0.1l0.2,0c3.1,0,5.2,1.4,7.4,3c5.9,4.4,8.3,10.1,8,18.3c-0.4,9.5-0.4,19.3-0.3,28.7c0,4,0.1,8,0.1,12
						c0,4,0,8,0,11.9c0,11-0.1,22.4,0,33.5c0,3.7-1.3,6.1-3.4,8.6C230.8,143.5,225.7,145.9,219,145.9z M205.4,142.4
						c4.4,0,8.1,0.1,11.6,0.4c6.9,0.5,11.6-1.4,15.7-6.4c2-2.5,2.7-4.2,2.7-6.7c-0.1-11.2-0.1-22.6,0-33.6c0-4,0-8,0-11.9
						c0-4,0-8-0.1-12c-0.1-9.5-0.2-19.2,0.3-28.9c0.3-7.2-1.7-11.9-6.8-15.7c-1.9-1.4-3.3-2.4-5.6-2.4l-0.2,0
						c-1.4,0-2.7,0.1-4.1,0.1c-3.7,0.1-7.5,0.2-11.2,0.2c-4.4,0-8.2-0.1-11.6-0.4c-7-0.5-11.7,1.4-15.8,6.3
						c-1.9,2.2-2.9,3.9-2.9,6.6l0,11.3c0.1,24.4,0.2,49.7-0.2,74.6c-0.1,7.8,1.9,12.6,7.1,16.5c2.1,1.6,3.5,2.4,5.6,2.4l0.2,0
						c1.4,0,2.9-0.1,4.3-0.1C198,142.5,201.7,142.4,205.4,142.4z M211.6,125.6l-0.3,0c-1.1,0-2.2,0-3.3,0l-4.4,0c-0.7,0-1.3,0-2,0
						c-5.3-0.1-6.9-1.6-6.9-6.8c0-8.3,0-16.7,0-25l0-18.5c0-8.3,0-16.6,0-24.9c0-6.3,0.7-7.7,8-7.7l3.9,0c1.4,0,2.7,0,4.1,0
						c5.6,0,7.2,1.5,7.2,7c0,7.4,0,14.7,0,22.1c0,15.5,0,31.4,0,47.1c0,2.3-0.5,4-1.7,5.2C215.2,125.1,213.7,125.6,211.6,125.6z
						 M208,122.6c1.1,0,2.2,0,3.3,0l0.2,0c1.3,0,2.1-0.2,2.6-0.7c0.6-0.6,0.8-1.6,0.8-3.1c0-15.7,0-31.7,0-47.2c0-7.4,0-14.7,0-22.1
						c0-3.8-0.2-3.9-4.2-4c-1.4,0-2.7,0-4.1,0l-3.9,0c-2,0-3.9,0-4.5,0.5c-0.5,0.5-0.5,2.3-0.5,4.2c0,8.3,0,16.6,0,24.9l0,18.5
						c0,8.3,0,16.7,0,25c0,3.5,0.3,3.8,4,3.8c0.6,0,1.3,0,1.9,0L208,122.6z"/>
				</g>
				<g>
					<path fill="#A0AFA6" d="M48.2,145.4C48.2,145.4,48.2,145.4,48.2,145.4l-24.7,0c-0.5,0-1-0.3-1.3-0.7c-0.3-0.4-0.3-1-0.1-1.4
						c3-6.3,2.8-12.7,2.5-19.5c-0.1-2-0.2-4.1-0.1-6.2c0.2-21.2,0.2-44.5,0.1-73.2c0-4.6-0.3-9.1-0.7-13.8c-0.2-2.2-0.3-4.5-0.4-6.8
						c0-0.4,0.1-0.8,0.4-1.1c0.3-0.3,0.7-0.5,1.1-0.5c0,0,0,0,0,0l4.8,0c3.8,0,7.6,0,11.3,0c4.5,0,9.1,0,13.6,0
						c6.7,0,12.2,0,17.4-0.1l0.2,0c3.6,0,5.9,1.3,8.8,3.5c5.6,4.3,7.8,9.5,7.5,17.2c-0.5,11.3-0.4,22.8-0.2,33.9
						c0,2.5,0.1,5.1,0.1,7.6c0,3.3-1.2,5.4-3.1,7.9c-5,6.4-11.4,9-19.7,8c-1.5-0.2-3.2-0.3-5.2-0.3c-1.4,0-2.7,0-4.1,0.1
						c-1.8,0-3.5,0.1-5.3,0.1l-0.2,0c-1.3,0-2.1,0.2-2.6,0.7c-0.5,0.5-0.7,1.4-0.7,2.8c0,4.1,0,8.3,0,12.4c0,6.1,0,12.3,0.1,18.5
						c0,1.9,0.6,3.9,1.2,5.9c0.3,1,0.6,2.1,0.8,3.2c0.1,0.4,0,0.9-0.3,1.3C49.1,145.2,48.7,145.4,48.2,145.4z M25.8,142.3l20.5,0
						c-0.1-0.4-0.2-0.8-0.3-1.2c-0.6-2.2-1.2-4.4-1.3-6.7c-0.1-6.2-0.1-12.5-0.1-18.5c0-4,0-8.2,0-12.4c0-2.2,0.5-3.8,1.6-4.9
						c1.1-1.1,2.6-1.6,4.7-1.6l0.2,0c1.7,0,3.4,0,5.2-0.1c1.4,0,2.8-0.1,4.2-0.1c2.2,0,3.9,0.1,5.6,0.3c7.3,0.9,12.6-1.2,17-6.9
						c1.6-2,2.5-3.6,2.4-6c0-2.5,0-5.1-0.1-7.6c-0.1-11.2-0.3-22.7,0.2-34c0.3-6.7-1.5-11-6.3-14.7c-2.5-1.9-4.2-2.9-7-2.9l-0.1,0
						c-5.2,0.1-10.7,0.1-17.4,0.1c-4.5,0-9.1,0-13.6,0c-3.8,0-7.6,0-11.3,0l-3.2,0c0.1,1.7,0.2,3.5,0.3,5.2c0.3,4.8,0.6,9.4,0.7,14
						c0.1,28.8,0.1,52-0.1,73.2c0,2,0.1,4.1,0.1,6C27.9,129.8,28.1,136.1,25.8,142.3z M55.8,79.9c-1.9,0-3.8,0-5.7,0
						c-3.5,0-5.6-2.1-5.6-5.7c0-8.5,0-16.8,0-26.1c0-3.5,2.1-5.5,5.7-5.6c4,0,8,0,12,0c3.6,0.1,5.6,2.1,5.6,5.7c0,3,0,6.1,0,9.1
						l0,3.9c0,1.3,0,2.6,0,3.9c0,2.9,0,5.8,0,8.7c0,1.9-0.5,3.5-1.5,4.5c-1,1-2.4,1.5-4.2,1.5c0,0,0,0,0,0L55.8,79.9z M55.9,45.4
						c-1.8,0-3.7,0-5.5,0c-2.3,0-2.7,1-2.7,2.6c0,9.2,0,17.6,0,26.1c0,1.9,0.7,2.7,2.6,2.7c1.9,0,3.7,0,5.6,0l6.4,0h0
						c1,0,1.7-0.2,2.1-0.6c0.4-0.4,0.6-1.2,0.6-2.3c0-2.9,0-5.8,0-8.7c0-1.3,0-2.6,0-3.9l0-3.9c0-3,0-6.1,0-9.1
						c0-1.9-0.7-2.7-2.6-2.7C60.2,45.5,58,45.4,55.9,45.4z"/>
				</g>
				<g>
					<path fill="#A0AFA6" d="M392.5,145.6C392.5,145.6,392.5,145.6,392.5,145.6l-59.4-0.1c-0.4,0-0.8-0.2-1.1-0.5
						c-0.3-0.3-0.4-0.7-0.4-1.1c1.6-23.8,1.4-48,1.2-71.4c-0.1-12.8-0.2-26.1-0.1-39.2c0-1.8-0.5-3.8-1.1-5.8
						c-0.3-1-0.6-2.1-0.9-3.2c-0.1-0.4,0-0.9,0.3-1.3s0.7-0.6,1.2-0.6c0,0,0,0,0,0l60.4,0.1c0.7,0,1.4,0.5,1.5,1.3l3.6,21.8
						c0.1,0.5-0.1,1-0.5,1.4c-0.4,0.3-0.9,0.5-1.4,0.3c-6.4-2-12.7-2.2-17.9-2.2c-2.2,0-4.5,0.1-6.8,0.1s-4.5,0.1-6.8,0.1
						c-1.9,0-3.6,0-5.1-0.1c-1.2-0.1-2.1,0.2-2.6,0.7c-0.5,0.5-0.7,1.3-0.7,2.5c0,6.4,0.1,13.2,0,20.2c0,1.2,0.2,2.1,0.7,2.6
						c0.5,0.5,1.4,0.7,2.6,0.6c3.5-0.2,6.9-0.6,10.5-0.9c1.6-0.1,3.1-0.3,4.7-0.4c0.4,0,0.8,0.1,1.1,0.4c0.3,0.3,0.5,0.7,0.5,1.1
						l0,23c0,0.4-0.2,0.8-0.5,1.1c-0.3,0.3-0.7,0.4-1.2,0.4c-1.5-0.1-3-0.3-4.5-0.4c-3.5-0.3-7-0.7-10.5-1c-1.3-0.1-2.3,0.1-2.8,0.6
						c-0.5,0.5-0.8,1.5-0.7,3c0.1,6,0.1,12.4,0,20.2c0,1.4,0.2,2.4,0.7,2.9c0.5,0.5,1.3,0.7,2.6,0.7c1,0,2,0,3,0c2.3,0,4.6,0,6.9,0
						c2.3,0,4.6,0,6.8,0c4.1,0,7.4,0,10.5-0.1c1.9,0,3.9-0.5,6.1-1c1.1-0.3,2.2-0.5,3.4-0.8c0.5-0.1,1,0.1,1.3,0.4s0.5,0.8,0.4,1.3
						l-3.6,22.1C393.8,145.1,393.2,145.6,392.5,145.6z M334.7,142.6l56.5,0.1l3-18.7c-0.4,0.1-0.8,0.2-1.2,0.3
						c-2.3,0.6-4.5,1.1-6.7,1.1c-3.1,0.1-6.4,0.1-10.6,0.1c-2.3,0-4.6,0-6.9,0c-3.3,0-6.5,0-9.8,0c-2.2,0-3.7-0.5-4.8-1.6
						c-1.1-1.1-1.6-2.8-1.6-5c0.1-7.7,0.1-14.1,0-20.1c-0.1-2.3,0.5-4,1.6-5.2c1.2-1.2,2.9-1.7,5.2-1.5c3.5,0.3,7.1,0.7,10.5,1
						c0.9,0.1,1.9,0.2,2.8,0.3l0-19.7c-1,0.1-2.1,0.2-3.1,0.3c-3.6,0.3-7.1,0.7-10.6,0.9c-2.2,0.1-3.8-0.4-4.9-1.5
						c-1.1-1.1-1.6-2.7-1.6-4.7c0.1-6.9,0.1-13.8,0-20.1c0-2,0.5-3.6,1.6-4.6c1.1-1.1,2.8-1.7,4.9-1.5c1.5,0.1,3.2,0.1,5,0.1
						c2.2,0,4.5-0.1,6.7-0.1c2.2-0.1,4.5-0.1,6.8-0.1c4.9,0,10.6,0.2,16.5,1.7l-3-18.2l-57.2-0.1c0.1,0.4,0.2,0.8,0.3,1.2
						c0.6,2.2,1.3,4.4,1.3,6.7c-0.2,13-0.1,26.3,0.1,39.1C335.9,95.5,336.2,119.2,334.7,142.6z"/>
				</g>
				<g>
					<path fill="#A0AFA6" d="M295.5,145.6C295.5,145.6,295.5,145.6,295.5,145.6l-24.3,0c-0.5,0-0.9-0.2-1.2-0.6
						c-0.3-0.4-0.4-0.9-0.2-1.3c2.6-8.6,2.4-17.5,2.1-26.1c-0.1-4.3-0.3-8.8,0-13.2c0.1-1.2-0.2-2.6-0.9-4.4l-2.8-7.8
						c-6.4-18.2-13.1-37-19.8-55.5c-1-2.7-2.5-5.2-4-7.9c-0.7-1.3-1.5-2.6-2.2-3.9c-0.2-0.5-0.2-1,0-1.5c0.3-0.5,0.8-0.7,1.3-0.7
						c0,0,0,0,0,0l29.3,0c0.6,0,1.2,0.4,1.4,1c0.2,0.6,0.1,1.2-0.4,1.6c-2.8,2.5-2.1,4.8-0.9,8.4c0.2,0.7,0.5,1.3,0.7,2
						c2.5,8.5,5.1,16.8,7.9,25.7c0.6,2.1,1.3,4.2,1.9,6.3c0.9-2.9,1.7-5.5,2.5-8.1l2.4-7.7c1.8-5.8,3.6-11.5,5.4-17.2
						c0.1-0.4,0.2-0.7,0.4-1.1c1.1-3.2,1.9-5.6-1.1-8.3c-0.5-0.4-0.6-1.1-0.4-1.7c0.2-0.6,0.8-1,1.4-1c0,0,0,0,0,0l29.2,0
						c0.6,0,1.2,0.4,1.4,0.9c0.2,0.3,0.7,1.2,0.1,2c-5.8,8.3-9,17.9-12,27.3c-1.3,4.1-2.7,8.4-4.3,12.5c-1.6,4-3,8.2-4.4,12.2
						c-1.6,4.7-3.3,9.5-5.2,14.2c-3.1,7.5-4.3,14.9-3.8,22.5c0.2,3.3,0.1,6.6,0,9.8c-0.2,6.5-0.3,13.1,2,19.6c0.2,0.5,0.1,1-0.2,1.4
						C296.5,145.4,296,145.6,295.5,145.6z M273.2,142.6l20.3,0c-1.9-6.4-1.7-12.6-1.6-18.7c0.1-3.1,0.2-6.4,0-9.5
						c-0.5-8,0.8-15.8,4-23.8c1.9-4.6,3.5-9.4,5.1-14.1c1.4-4.1,2.8-8.3,4.4-12.3c1.6-4,2.9-8.3,4.3-12.3
						c2.9-8.9,5.9-18.1,11.2-26.3l-23.9,0c1.7,3.1,0.7,6.2-0.2,8.8c-0.1,0.3-0.2,0.7-0.3,1c-1.8,5.7-3.6,11.5-5.4,17.2l-2.4,7.7
						c-0.8,2.7-1.7,5.4-2.6,8.4l-1.3,4.3c-0.2,0.6-0.8,1.1-1.4,1.1c0,0,0,0,0,0c-0.7,0-1.2-0.4-1.4-1.1c-1.1-3.7-2.3-7.3-3.4-10.9
						c-2.8-8.9-5.4-17.3-7.9-25.8c-0.2-0.6-0.4-1.2-0.6-1.8c-0.9-2.6-2.1-5.8-0.4-9l-23.6,0c0.3,0.5,0.6,1.1,0.9,1.6
						c1.6,2.7,3.2,5.4,4.3,8.4c6.8,18.5,13.4,37.3,19.9,55.5l2.8,7.8c0.8,2.2,1.1,4,1,5.6c-0.2,4.3-0.1,8.7,0,13
						C275.1,125.7,275.4,134.2,273.2,142.6z"/>
				</g>
			</g>
			<g>
				<g>
					<path fill="#A0AFA6" d="M604.4,146.1c-0.7,0-1.5,0-2.2-0.1c-3.4-0.2-7-0.4-11.4-0.4c-3.6,0-7.3,0.1-10.8,0.2
						c-1.5,0-3,0.1-4.5,0.1l-0.2,0c-3.2,0-5.3-1.4-7.4-2.9c-7.5-5.6-8.4-12.9-8.3-19.3c0.4-24.8,0.3-50.1,0.2-74.5l0-10.5
						c0-4,1.5-6.6,3.8-9.3c4.2-4.9,9.1-7.1,15.5-7.1c0.7,0,1.4,0,2.1,0.1c3.5,0.2,7.2,0.3,11.6,0.3c3.7,0,7.5-0.1,11.1-0.2
						c1.4,0,2.9-0.1,4.3-0.1l0.2,0c3.2,0,5.2,1.3,7.4,2.9c5.9,4.4,8.4,10.2,8,18.7c-0.4,9.4-0.3,19.1-0.3,28.4c0,4,0.1,7.9,0.1,11.9
						c0,4,0,7.9,0,11.9c0,11.1-0.1,22.7,0,34c0,3.4-1.3,5.6-3.3,8.2C616.2,143.6,611.1,146.1,604.4,146.1z M590.8,142.6
						c4.4,0,8.1,0.1,11.6,0.4c6.9,0.5,11.6-1.4,15.6-6.4c1.7-2.2,2.7-3.8,2.7-6.3c-0.1-11.3-0.1-22.9,0-34c0-4,0-7.9,0-11.9
						c0-4,0-7.9-0.1-11.9c-0.1-9.4-0.2-19,0.3-28.5c0.3-7.6-1.6-12.3-6.8-16.1c-1.8-1.4-3.3-2.4-5.6-2.4l-0.1,0
						c-1.4,0-2.8,0.1-4.3,0.1c-3.7,0.1-7.5,0.2-11.2,0.2c-4.5,0-8.3-0.1-11.8-0.4c-6.5-0.4-11.1,1.4-15.1,6c-2,2.3-3.1,4.2-3.1,7.3
						l0,10.5c0.1,24.4,0.2,49.7-0.2,74.6c-0.1,8.2,1.8,13,7.1,16.8c2.1,1.5,3.5,2.3,5.6,2.3l0.2,0c1.5,0,3-0.1,4.5-0.1
						C583.5,142.7,587.2,142.6,590.8,142.6z M594.2,125.8l-6.1,0l-1.8,0c-2.1,0-3.6-0.5-4.7-1.6c-1-1-1.5-2.5-1.5-4.4
						c0-23.7,0.1-47.5,0.1-71.2c0-3.7,2.1-5.8,5.9-5.8l2.4,0c2.8,0,5.6,0,8.4,0l0.2,0c2.1,0,3.6,0.5,4.6,1.6c1.1,1.1,1.6,2.7,1.6,5
						c-0.1,8.4-0.1,17-0.1,25.3c0,3.3,0,6.6,0,9.9l0,8.5c0,8.5,0,17,0,25.5c0,6.1-2.3,7.2-7.4,7.2L594.2,125.8z M588.1,122.7l6.1,0
						l1.6,0c4.1,0,4.4-0.3,4.4-4.2c0-8.5,0-17,0-25.5l0-8.5c0-3.3,0-6.6,0-9.9c0-8.3,0-16.9,0.1-25.4c0-1.4-0.2-2.3-0.7-2.8
						c-0.5-0.5-1.3-0.7-2.5-0.7l-0.2,0c-2.8,0.1-5.6,0-8.4,0l-2.4,0c-2.2,0-3,0.7-3,2.8c0,23.7,0,47.5-0.1,71.2
						c0,1.1,0.2,1.9,0.7,2.3c0.5,0.5,1.3,0.7,2.5,0.7L588.1,122.7z"/>
				</g>
				<g>
					<path fill="#A0AFA6" d="M681,146.2c-0.8,0-1.6,0-2.5-0.1c-3.3-0.3-6.9-0.4-11.1-0.4c-3.5,0-7.2,0.1-10.7,0.2
						c-1.5,0-3,0.1-4.4,0.1l-0.3,0c-3.4,0-5.6-1.5-7.7-3.1c-6.4-4.8-9-10.7-8.2-18.6c0.4-3.8,0-7.7-0.5-11.8
						c-0.2-1.8-0.4-3.7-0.5-5.6c0-0.4,0.1-0.8,0.4-1.1c0.3-0.3,0.7-0.5,1.1-0.5c0,0,0,0,0,0l23.4,0c0.4,0,0.8,0.2,1.1,0.5
						c0.3,0.3,0.4,0.8,0.4,1.2c-0.2,1.3-0.4,2.6-0.6,3.9c-0.4,2.9-0.9,5.9-1.2,8.8c-0.1,1.1,0.1,1.9,0.5,2.4
						c0.6,0.7,1.8,0.8,2.7,0.8c3.7,0,7.2,0,10.8,0h0c1.3,0,2.2-0.3,2.7-0.7c0.5-0.5,0.7-1.3,0.7-2.5c0-5.6,0-11.2,0-16.7l0-3.9
						c0-1.1-0.2-1.9-0.7-2.4c-0.5-0.5-1.3-0.7-2.4-0.7c-1.8,0-3.5,0-5.3,0c-2.1,0-4.2,0-6.3,0c-4.1,0-7.5-0.1-10.5-0.2
						c-2-0.1-4.3-1-7-2.7c-6.6-4.3-9.4-10.5-8.8-19.5c0.6-9.4,0.4-19,0.3-28.3c0-2.5-0.1-5.1-0.1-7.6c0-3.1,1.1-5.2,3.1-7.5
						c4.5-5.4,9.9-7.9,17.1-7.9c0.9,0,1.8,0,2.7,0.1c3.3,0.3,6.7,0.4,10.9,0.4c3.5,0,7-0.1,10.4-0.2c1.5,0,3-0.1,4.5-0.1l0.2,0
						c3.2,0,5.3,1.4,7.4,2.9c6.1,4.6,8.6,10.5,8,18.7c-0.3,3.9,0.2,7.9,0.6,12.1c0.2,1.8,0.4,3.7,0.6,5.6c0,0.4-0.1,0.8-0.4,1.1
						c-0.3,0.3-0.7,0.5-1.1,0.5h0l-23.4,0c-0.4,0-0.8-0.2-1.1-0.5c-0.3-0.3-0.4-0.8-0.4-1.2c0.2-1.3,0.4-2.6,0.5-3.9
						c0.4-2.9,0.8-5.9,1.2-8.9c0.1-1,0-1.8-0.5-2.3c-0.6-0.6-1.6-0.8-2.5-0.8c-3.9,0-7.7,0-11.6,0c-2.1,0-2.9,0.8-2.9,2.9
						c0,4,0,8,0,12c0,3,0,6,0,8.9c0,1.8,0.5,3,3.2,3l1.9,0c2,0,4,0,5.9,0c2,0,4,0,5.9,0c3.2,0,5.8,0,8.2-0.1l0.2,0
						c3.1,0,5.2,1.4,7.4,3c6,4.6,8.4,10.3,8,18.7c-0.5,9.7-0.4,19.7-0.2,29.3c0,2.3,0.1,4.7,0.1,7c0,3.2-1.2,5.3-3,7.5
						C692.9,143.6,687.7,146.2,681,146.2z M667.4,142.7c4.3,0,7.9,0.1,11.4,0.4c7,0.6,11.9-1.4,16.3-6.8c1.5-1.9,2.4-3.3,2.3-5.6
						c0-2.3-0.1-4.7-0.1-7c-0.1-9.7-0.3-19.7,0.2-29.5c0.4-7.4-1.6-12.2-6.8-16.1c-1.8-1.4-3.3-2.4-5.5-2.4l-0.2,0
						c-2.4,0.1-5.1,0.1-8.3,0.1c-2,0-4,0-5.9,0c-2,0-4,0-5.9,0l-1.8,0c-4.1,0-6.3-2.1-6.3-6c0-3,0-6,0-8.9c0-4,0-8,0-12
						c0-3.7,2.1-5.9,5.9-5.9c3.9,0,7.7,0,11.6,0c2.1,0,3.6,0.6,4.7,1.8c1,1.1,1.4,2.7,1.2,4.6c-0.3,3-0.8,6.1-1.2,9
						c-0.1,0.7-0.2,1.4-0.3,2.2l20,0c-0.1-1.3-0.3-2.6-0.4-3.9c-0.5-4.1-1-8.4-0.7-12.6c0.6-7.2-1.5-12-6.8-16.1
						c-2.1-1.6-3.5-2.3-5.6-2.3l-0.2,0c-1.5,0-3,0.1-4.5,0.1c-3.4,0.1-7,0.2-10.5,0.2c-4.3,0-7.8-0.1-11.2-0.4
						c-7.7-0.6-12.9,1.4-17.3,6.7c-1.6,1.9-2.4,3.3-2.4,5.6c0,2.5,0.1,5.1,0.1,7.6c0.2,9.3,0.3,19-0.3,28.5
						c-0.5,7.9,1.8,13,7.5,16.8c2.2,1.4,4,2.2,5.5,2.3c3,0.1,6.3,0.2,10.4,0.2c2.1,0,4.2,0,6.2,0c1.8,0,3.5,0,5.3,0
						c2,0,3.5,0.5,4.6,1.6c1,1,1.6,2.6,1.6,4.5l0,3.9c0,5.5,0,11.1,0,16.7c0,2-0.5,3.6-1.6,4.6c-1.1,1.1-2.6,1.6-4.7,1.6
						c-3.7,0-7.3,0-10.9,0c-2.2,0-3.9-0.6-5-1.8c-1-1.1-1.5-2.7-1.2-4.7c0.3-3,0.8-6,1.2-8.9c0.1-0.7,0.2-1.4,0.3-2.2l-20,0
						c0.1,1.3,0.3,2.6,0.4,3.9c0.4,4.1,0.9,8.3,0.5,12.5c-0.7,6.8,1.5,11.7,7,15.9c2.2,1.6,3.7,2.5,5.9,2.5l0.2,0
						c1.5,0,3-0.1,4.4-0.1C660.2,142.7,663.8,142.7,667.4,142.7z"/>
				</g>
				<g>
					<path fill="#A0AFA6" d="M452.1,145.9c-0.7,0-1.4,0-2.1-0.1c-3.5-0.2-7.4-0.3-11.9-0.3c-3.9,0-7.8,0.1-11.6,0.2l-4.2,0.1
						c-3.2,0-5.2-1.3-7.4-3c-5.9-4.5-8.4-10.1-8.2-18.9c0.4-24.4,0.3-49.2,0.2-73.1l0-12.3c0-3.4,1-6,3.6-9c4.3-5,9.4-7.3,16.1-7.3
						c0.7,0,1.5,0,2.3,0.1c3.3,0.2,7,0.4,11.2,0.4c3.8,0,7.7-0.1,11.5-0.2l3.5-0.1c3.5,0,5.9,1.3,8.4,3.3c5.8,4.6,8.2,10.1,7.6,17.7
						c-0.3,3.9,0.1,7.9,0.5,12.2c0.2,1.9,0.4,3.9,0.5,5.9c0,0.4-0.1,0.8-0.4,1.1c-0.3,0.3-0.7,0.5-1.1,0.5h0l-23.3,0
						c-0.4,0-0.9-0.2-1.1-0.5c-0.3-0.3-0.4-0.8-0.3-1.2c0.2-1.3,0.4-2.5,0.6-3.8c0.5-2.8,1-5.4,1.1-8.1c0.1-1.3,0.1-3.1-0.4-3.6
						c-0.5-0.5-2.2-0.6-3.7-0.6c-1.9,0-3.7,0-5.6,0l-2.8,0c-4.8,0-4.8,0-4.8,4.6c0,9.7,0,19.4,0,29.1l0,19.5c0,6.8,0,13.6,0,20.3
						c0,3.5,0.3,3.8,4,3.8c1.3,0,2.5,0,3.8,0c2.1,0,4.2,0,6.2,0c1.4,0.1,2.4-0.2,2.9-0.8c0.5-0.5,0.6-1.4,0.5-2.6
						c-0.3-2.8-0.7-5.6-1.2-8.6c-0.2-1.3-0.4-2.5-0.6-3.8c-0.1-0.4,0.1-0.9,0.4-1.2s0.7-0.5,1.1-0.5h0l24.4,0c0.5,0,1,0.3,1.3,0.7
						c0.3,0.4,0.3,1,0.1,1.4c-2.5,5.6-2.4,11.3-2.3,17.3c0,2.8,0.1,5.8-0.2,8.7c-0.1,1.7-1.3,3-2.5,4.2c-0.5,0.5-0.9,1-1.3,1.5
						C463.4,143.6,458.7,145.9,452.1,145.9z M438.1,142.5c4.5,0,8.5,0.1,12.1,0.3c0.6,0,1.3,0.1,1.9,0.1c5.6,0,9.4-1.8,12.3-5.9
						c0.4-0.6,1-1.2,1.5-1.8c0.8-0.8,1.7-1.8,1.7-2.5c0.2-2.8,0.2-5.6,0.2-8.4c-0.1-5.4-0.1-11,1.8-16.5l-20.5,0
						c0.1,0.7,0.2,1.4,0.3,2.1c0.5,3,0.9,5.8,1.2,8.7c0.2,2.1-0.2,3.8-1.2,4.9c-1.1,1.2-2.9,1.8-5.2,1.8c-2-0.1-4.1-0.1-6.1,0
						c-1.3,0-2.6,0-3.9,0c-5.4-0.1-6.9-1.6-6.9-6.8c0-6.8,0-13.6,0-20.4l0-19.5c0-9.7,0-19.4,0-29.1c0-6.3,1.3-7.5,7.8-7.6l2.8,0
						c1.9,0,3.7,0,5.6,0c2.9,0,4.7,0.3,5.9,1.5c1.2,1.3,1.3,3.2,1.2,5.9c-0.2,2.8-0.7,5.7-1.2,8.4c-0.1,0.7-0.2,1.3-0.4,2l19.9,0
						c-0.1-1.4-0.3-2.8-0.4-4.2c-0.5-4.4-0.9-8.5-0.6-12.7c0.5-6.6-1.4-11.1-6.4-15.1c-2.1-1.7-3.9-2.7-6.5-2.7l-3.4,0.1
						c-3.8,0.1-7.7,0.2-11.6,0.2c-4.3,0-8-0.1-11.4-0.4c-6.9-0.5-11.7,1.4-15.9,6.2c-2.1,2.4-2.9,4.3-2.9,7l0,12.3
						c0.1,24,0.2,48.8-0.2,73.2c-0.1,7.8,1.9,12.6,7,16.5c2.1,1.6,3.5,2.4,5.6,2.4l4.1-0.1C430.3,142.6,434.3,142.5,438.1,142.5z"/>
				</g>
				<g>
					<path fill="#A0AFA6" d="M528.3,145.5L528.3,145.5l-23.4,0c-0.4,0-0.8-0.2-1.1-0.5c-0.3-0.3-0.4-0.7-0.4-1.1
						c0.1-2.5,0.2-5,0.4-7.5c0.3-5.3,0.6-10.9,0.6-16.3c0.1-17.1,0.1-34.5,0.1-51.4c0-6.2,0-12.4,0-18.7c0-1.7-0.1-3.3-0.5-3.9
						c-0.4-0.4-1.6-0.6-3.9-0.5c-4.5,0.1-8.9,0.3-13.6,0.6c-2.1,0.1-4.2,0.2-6.3,0.3c-0.5,0-0.9-0.2-1.2-0.5
						c-0.3-0.3-0.4-0.8-0.4-1.2l3.4-21.1c0.1-0.7,0.7-1.3,1.5-1.3h0l65.2,0.1c0.7,0,1.4,0.5,1.5,1.2l3.6,21.2
						c0.1,0.4-0.1,0.9-0.4,1.2c-0.3,0.3-0.7,0.5-1.2,0.5l-6.3-0.3c-4.9-0.2-9.7-0.5-14.5-0.8c-1.4-0.1-2.3,0.1-2.8,0.6
						c-0.5,0.5-0.7,1.4-0.7,2.7c0,11,0,22,0,33c0,17.2,0,35,0,52.5c0,1.9,0.5,3.9,1.1,5.9c0.3,1,0.6,2.1,0.8,3.2
						c0.1,0.4,0,0.9-0.3,1.3S528.8,145.5,528.3,145.5z M506.5,142.5l20,0c-0.1-0.4-0.2-0.8-0.3-1.3c-0.6-2.2-1.2-4.4-1.2-6.7
						c-0.1-17.5-0.1-35.3,0-52.5c0-11,0-22,0-33c0-2.2,0.5-3.8,1.6-4.8c1.1-1.1,2.8-1.6,5.1-1.5c4.8,0.3,9.6,0.5,14.5,0.8l4.4,0.2
						l-3.1-18.1l-62.6-0.1l-2.9,18.1c1.5-0.1,3-0.2,4.5-0.2c4.7-0.2,9.2-0.5,13.7-0.6c0.4,0,0.7,0,1,0c2.4,0,4.2,0.3,5.3,1.7
						c1,1.2,1.2,3,1.2,5.8c0,6.2,0,12.4,0,18.7c0,16.8,0,34.3-0.1,51.4c0,5.5-0.3,11-0.6,16.4C506.7,138.6,506.6,140.5,506.5,142.5z
						"/>
				</g>
			</g>
		</g>
	</g>
	<g>
		<rect x="34.4" y="33.6" fill="#A0AFA6" width="3" height="99.4"/>
	</g>
	<g>
		<path fill="#A0AFA6" d="M35.9,35.1c-0.4,0-0.7-0.1-1-0.4l-9.9-9.5L27,23l8.9,8.5l9.2-8.6l2.1,2.2l-10.2,9.6
			C36.6,35,36.3,35.1,35.9,35.1z"/>
	</g>
	<g>
		<rect x="75.1" y="23.6" fill="#A0AFA6" width="3" height="75.1"/>
	</g>
	<g>
		<path fill="#A0AFA6" d="M24.5,145l-2-2.3l12.4-10.9c0.6-0.5,1.4-0.5,2,0l11.5,9.9l-2,2.3l-10.5-9L24.5,145z"/>
	</g>
	<g>
		<path fill="#A0AFA6" d="M76.8,87.8H36.3c-0.6,0-1.2-0.4-1.4-0.9c-0.2-0.6-0.1-1.2,0.3-1.6l10.3-10l2.1,2.1L40,84.8h36.8V87.8z"/>
	</g>
	<g>
		<path fill="#A0AFA6" d="M45,45.2L34.8,34.7c-0.4-0.4-0.5-1.1-0.3-1.6c0.2-0.6,0.8-0.9,1.4-0.9h40.7v3H39.5l7.7,8L45,45.2z"/>
	</g>
	<g>
		<path fill="#A0AFA6" d="M86.1,45.2l-9.5-9.4l-9.1,9.4l-2.2-2.1l10.1-10.5c0.3-0.3,0.7-0.5,1.1-0.5c0.4,0,0.8,0.2,1.1,0.4
			l10.6,10.5L86.1,45.2z"/>
	</g>
	<g>
		<path fill="#A0AFA6" d="M76.8,87.8c-0.4,0-0.8-0.1-1-0.4l-10.4-10l2.1-2.2l9.5,9.1l9.1-6.3l1.7,2.5l-10.1,7
			C77.4,87.7,77.1,87.8,76.8,87.8z"/>
	</g>
	<g>
		<rect x="44.6" y="44.1" fill="#A0AFA6" width="3" height="32.2"/>
	</g>
	<g>
		<path fill="none" stroke="#A0AFA6" stroke-width="3" stroke-linejoin="round" stroke-miterlimit="10" d="M43.5,86.3"/>
	</g>
	<g>
		<g>
			<rect x="110.2" y="33.6" fill="#A0AFA6" width="3" height="99.4"/>
		</g>
		<g>
			<path fill="#A0AFA6" d="M111.7,35.1c-0.3,0-0.7-0.1-0.9-0.3L98.3,24.7l1.9-2.3l11.4,9.2l9.3-9.1l2.1,2.1l-10.2,10.1
				C112.5,35,112.1,35.1,111.7,35.1z"/>
		</g>
		<g>
			
				<rect x="121.1" y="53.4" transform="matrix(3.581472e-03 1 -1 3.581472e-03 206.8866 -97.7578)" fill="#A0AFA6" width="62.7" height="3"/>
		</g>
		<g>
			<path fill="#A0AFA6" d="M122.9,144.9l-11.2-9.9l-10.5,8.7l-1.9-2.3l11.5-9.5c0.6-0.5,1.4-0.5,1.9,0l12.2,10.8L122.9,144.9z"/>
		</g>
		<g>
			<path fill="#A0AFA6" d="M151.5,87.8h-39.5c-0.6,0-1.2-0.4-1.4-0.9c-0.2-0.6-0.1-1.2,0.3-1.6l10.3-10l2.1,2.1l-7.6,7.4h35.8V87.8z
				"/>
		</g>
		<g>
			<path fill="#A0AFA6" d="M120.8,45.2l-10.2-10.5c-0.4-0.4-0.5-1.1-0.3-1.6c0.2-0.6,0.8-0.9,1.4-0.9h40.7v3h-37.1l7.7,8L120.8,45.2
				z"/>
		</g>
		<g>
			<path fill="#A0AFA6" d="M152.6,87.8c-0.4,0-0.8-0.1-1-0.4l-10.4-10l2.1-2.2l9.5,9.1l8.5-5.9l0.2-33.7l-9.1-9l-9.1,9.4l-2.2-2.1
				l10.1-10.5c0.3-0.3,0.7-0.5,1.1-0.5c0.4,0,0.8,0.2,1.1,0.4L164,43.1c0.3,0.3,0.4,0.7,0.4,1.1l-0.2,35.1c0,0.5-0.2,0.9-0.6,1.2
				l-10.1,7C153.2,87.7,152.9,87.8,152.6,87.8z"/>
		</g>
		<g>
			<rect x="120.4" y="44.1" fill="#A0AFA6" width="3" height="32.2"/>
		</g>
		<g>
			<rect x="99.3" y="84.8" fill="#A0AFA6" width="20" height="3"/>
		</g>
	</g>
	<g>
		<g>
			
				<rect x="179.9" y="30.9" transform="matrix(0.5845 0.8114 -0.8114 0.5845 105.8124 -131.6166)" fill="#A0AFA6" width="3" height="13.3"/>
		</g>
		<g>
			<path fill="#A0AFA6" d="M186.8,136.5c-0.4,0-0.8-0.2-1.1-0.4l-11-11.1l2.1-2.1l8.4,8.5V33.6h3V135c0,0.6-0.4,1.2-0.9,1.4
				C187.2,136.4,187,136.5,186.8,136.5z"/>
		</g>
		<g>
			
				<rect x="191.8" y="20.8" transform="matrix(0.5935 0.8048 -0.8048 0.5935 101.7889 -143.8364)" fill="#A0AFA6" width="3" height="16.1"/>
		</g>
		<g>
			
				<rect x="215.5" y="27.4" transform="matrix(0.7283 0.6852 -0.6852 0.7283 80.1911 -144.5687)" fill="#A0AFA6" width="13.9" height="3"/>
		</g>
		<g>
			<rect x="226" y="33.6" fill="#A0AFA6" width="3" height="100.6"/>
		</g>
		<g>
			<path fill="#A0AFA6" d="M227.5,135.7h-40.3c-0.6,0-1.2-0.4-1.4-0.9c-0.2-0.6-0.1-1.2,0.3-1.6l10.3-10l2.1,2.2l-7.6,7.4h36.6
				V135.7z"/>
		</g>
		<g>
			<path fill="#A0AFA6" d="M196,45.2l-10.2-10.5c-0.4-0.4-0.5-1.1-0.3-1.6c0.2-0.6,0.8-0.9,1.4-0.9h40.7v3h-37.1l7.7,8L196,45.2z"/>
		</g>
		<g>
			<path fill="#A0AFA6" d="M227.7,135.7c-0.4,0-0.8-0.2-1-0.4l-12.1-11.8l2.1-2.1l11,10.8l8.4-8.9l2.2,2.1l-9.4,10
				C228.5,135.5,228.2,135.7,227.7,135.7C227.7,135.7,227.7,135.7,227.7,135.7z"/>
		</g>
		<g>
			<path fill="#A0AFA6" d="M216.7,46.4l-2.1-2.1l11.8-11.7c0.6-0.6,1.5-0.6,2.1,0l9.7,9l-2,2.2l-8.7-8.1L216.7,46.4z"/>
		</g>
		<g>
			<rect x="195.6" y="44.1" fill="#A0AFA6" width="3" height="80.1"/>
		</g>
		<g>
			<rect x="177.5" y="132.7" fill="#A0AFA6" width="16.9" height="3"/>
		</g>
	</g>
	<g>
		
			<rect x="129.7" y="115.3" transform="matrix(0.2192 0.9757 -0.9757 0.2192 229.733 -53.4608)" fill="#A0AFA6" width="37.2" height="3"/>
	</g>
	<g>
		<path fill="#A0AFA6" d="M141.3,145l-1.7-2.5l12.6-8.9c0.5-0.4,1.2-0.4,1.8,0l11.7,8.9l-1.8,2.4l-10.8-8.2L141.3,145z"/>
	</g>
	<g>
		
			<rect x="185" y="138.1" transform="matrix(0.7429 0.6694 -0.6694 0.7429 142.7748 -92.6024)" fill="#A0AFA6" width="13.8" height="3"/>
	</g>
	<g>
		
			<rect x="221.8" y="132.6" transform="matrix(0.7573 0.6531 -0.6531 0.7573 145.1784 -112.0555)" fill="#A0AFA6" width="3" height="13.4"/>
	</g>
	<g>
		<path fill="#A0AFA6" d="M260.6,35.1c-0.2,0-0.5-0.1-0.7-0.2l-17.2-9.5l1.5-2.6l16.3,9l11.3-8.9l1.9,2.4l-12.1,9.5
			C261.3,35,261,35.1,260.6,35.1z"/>
	</g>
	<g>
		
			<rect x="237.6" y="64.6" transform="matrix(0.3303 0.9439 -0.9439 0.3303 244.5992 -212.4479)" fill="#A0AFA6" width="68.9" height="3"/>
	</g>
	<g>
		<path fill="#A0AFA6" d="M284.9,143.8h-3V98.7c0-0.2,0-0.4,0.1-0.5l24.4-66.5l2.8,1l-24.3,66.3V143.8z"/>
	</g>
	<g>
		<path fill="#A0AFA6" d="M308.1,33.5c-0.3,0-0.5-0.1-0.7-0.2l-14.2-8l1.5-2.6l13.5,7.6l14.5-7L324,26l-15.2,7.4
			C308.6,33.5,308.3,33.5,308.1,33.5z"/>
	</g>
	<g>
		<path fill="#A0AFA6" d="M386.1,135.7h-42c-0.8,0-1.5-0.7-1.5-1.5V34.4c0-0.8,0.7-1.5,1.5-1.5h40.4c0.4,0,0.8,0.2,1.1,0.4
			l11.5,11.5l-2.1,2.1L384,35.9h-38.3v96.8h39.7l9.5-11.6l2.3,1.9l-9.9,12.2C387,135.5,386.6,135.7,386.1,135.7z"/>
	</g>
	<g>
		
			<rect x="383.4" y="137.7" transform="matrix(0.5366 0.8438 -0.8438 0.5366 297.8495 -264.0149)" fill="#A0AFA6" width="11.8" height="3"/>
	</g>
	<g>
		
			<rect x="387.1" y="22.8" transform="matrix(0.7909 0.6119 -0.6119 0.7909 99.156 -231.6711)" fill="#A0AFA6" width="3" height="13"/>
	</g>
	<g>
		<path fill="#A0AFA6" d="M373.3,96l-10.2-11c-0.5-0.6-0.5-1.4,0-2l10.3-12l2.3,1.9l-9.4,11l9.3,10.1L373.3,96z"/>
	</g>
	<g>
		<rect x="344.2" y="81.8" fill="#A0AFA6" width="20" height="3"/>
	</g>
	<g>
		
			<rect x="330.2" y="27.7" transform="matrix(0.7592 0.6508 -0.6508 0.7592 100.4542 -213.048)" fill="#A0AFA6" width="15.9" height="3"/>
	</g>
	<g>
		
			<rect x="337.1" y="131.7" transform="matrix(0.6639 0.7478 -0.7478 0.6639 217.8784 -206.4666)" fill="#A0AFA6" width="3" height="14.9"/>
	</g>
	<g>
		<g>
			
				<rect x="565.2" y="30.9" transform="matrix(0.5845 0.8114 -0.8114 0.5845 265.8707 -444.1916)" fill="#A0AFA6" width="3" height="13.3"/>
		</g>
		<g>
			<path fill="#A0AFA6" d="M572.1,136.5c-0.4,0-0.8-0.2-1.1-0.4l-11-11.1l2.1-2.1l8.4,8.5V33.6h3V135c0,0.6-0.4,1.2-0.9,1.4
				C572.4,136.4,572.3,136.5,572.1,136.5z"/>
		</g>
		<g>
			
				<rect x="577" y="20.8" transform="matrix(0.5937 0.8047 -0.8047 0.5937 258.2562 -453.8024)" fill="#A0AFA6" width="3" height="16.1"/>
		</g>
		<g>
			
				<rect x="600.7" y="27.4" transform="matrix(0.7284 0.6852 -0.6852 0.7284 184.8331 -408.5292)" fill="#A0AFA6" width="13.9" height="3"/>
		</g>
		<g>
			<rect x="611.2" y="33.6" fill="#A0AFA6" width="3" height="100.6"/>
		</g>
		<g>
			<path fill="#A0AFA6" d="M612.7,135.7h-40.3c-0.6,0-1.2-0.4-1.4-0.9s-0.1-1.2,0.3-1.6l10.3-10l2.1,2.2l-7.6,7.4h36.6V135.7z"/>
		</g>
		<g>
			<path fill="#A0AFA6" d="M581.2,45.2L571,34.7c-0.4-0.4-0.5-1.1-0.3-1.6c0.2-0.6,0.8-0.9,1.4-0.9h40.7v3h-37.1l7.7,8L581.2,45.2z"
				/>
		</g>
		<g>
			<path fill="#A0AFA6" d="M601.9,46.7l-2.1-2.1l11.9-12c0.6-0.6,1.5-0.6,2.1,0l9.7,9l-2,2.2l-8.7-8L601.9,46.7z"/>
		</g>
		<g>
			<path fill="#A0AFA6" d="M613,135.7c-0.4,0-0.7-0.1-1-0.4L599.8,124l2-2.2l11,10.3l8.4-8.9l2.2,2.1l-9.4,10
				C613.8,135.6,613.4,135.7,613,135.7z"/>
		</g>
		<g>
			<rect x="580.8" y="44.1" fill="#A0AFA6" width="3" height="80.1"/>
		</g>
	</g>
	<g>
		<path fill="#A0AFA6" d="M604.2,145.9C604.2,145.9,604.2,145.9,604.2,145.9l-21.9-0.2c-0.4,0-0.7-0.1-1-0.4l-10.2-9.2l2-2.2
			l9.8,8.9l20.6,0.2l8.3-9.6l2.3,2l-8.8,10.2C605.1,145.7,604.6,145.9,604.2,145.9z"/>
	</g>
	<g>
		<g>
			<g>
				
					<rect x="413.4" y="30.9" transform="matrix(0.5845 0.8114 -0.8114 0.5845 202.8114 -321.0434)" fill="#A0AFA6" width="3" height="13.3"/>
			</g>
			<g>
				<rect x="418.8" y="33.6" fill="#A0AFA6" width="3" height="101.3"/>
			</g>
			<g>
				
					<rect x="425.3" y="20.8" transform="matrix(0.5937 0.8047 -0.8047 0.5937 196.5939 -331.6728)" fill="#A0AFA6" width="3" height="16.1"/>
			</g>
			<g>
				
					<rect x="448.9" y="27.4" transform="matrix(0.7284 0.6852 -0.6852 0.7284 143.605 -304.5329)" fill="#A0AFA6" width="13.9" height="3"/>
			</g>
			<g>
				<rect x="459.5" y="33.6" fill="#A0AFA6" width="3" height="26.2"/>
			</g>
			<g>
				<rect x="459.5" y="107.5" fill="#A0AFA6" width="3" height="26.7"/>
			</g>
			<g>
				<rect x="420.7" y="132.7" fill="#A0AFA6" width="40.3" height="3"/>
			</g>
			<g>
				<path fill="#A0AFA6" d="M421.7,135.3l-2.1-2.1c2.3-2.3,9.7-9.7,9.7-9.7l2.1,2.1C431.4,125.6,424,133,421.7,135.3z"/>
			</g>
			<g>
				<path fill="#A0AFA6" d="M429.6,45.3c-2.3-1.8-5-4.8-7.4-7.5c-1.1-1.2-2.1-2.3-2.9-3.2c-0.4-0.4-0.5-1.1-0.3-1.6s0.8-0.9,1.4-0.9
					H461v3h-37.2c0.2,0.2,0.4,0.5,0.6,0.7c2.3,2.6,5,5.5,7.1,7.1L429.6,45.3z"/>
			</g>
			<g>
				
					<rect x="446.2" y="126.5" transform="matrix(0.7096 0.7046 -0.7046 0.7096 222.3247 -283.385)" fill="#A0AFA6" width="17.6" height="3"/>
			</g>
			<g>
				<path fill="#A0AFA6" d="M449.8,46.4l-2.1-2.2l12.2-11.7c0.6-0.6,1.5-0.6,2.1,0l8.3,7.8l-2,2.2l-7.3-6.8L449.8,46.4z"/>
			</g>
		</g>
		<g>
			
				<rect x="459.4" y="121.4" transform="matrix(0.7618 0.6478 -0.6478 0.7618 196.892 -266.5292)" fill="#A0AFA6" width="3" height="26"/>
		</g>
		<g>
			
				<rect x="404.3" y="132.5" transform="matrix(0.7384 0.6743 -0.6743 0.7384 200.0704 -247.7525)" fill="#A0AFA6" width="30.2" height="3"/>
		</g>
	</g>
	<g>
		<g>
			<g>
				
					<rect x="641.8" y="30.9" transform="matrix(0.5845 0.8114 -0.8114 0.5845 297.72 -506.39)" fill="#A0AFA6" width="3" height="13.3"/>
			</g>
			<g>
				<path fill="#A0AFA6" d="M648.7,86.4c-0.4,0-0.8-0.2-1.1-0.4l-11-11.1l2.1-2.1l8.4,8.5V33.6h3v51.3c0,0.6-0.4,1.2-0.9,1.4
					C649.1,86.4,648.9,86.4,648.7,86.4z"/>
			</g>
			<g>
				<path fill="#A0AFA6" d="M649.6,34.8l-1.8-2.4l12.9-9.5c0.3-0.2,0.6-0.3,0.9-0.3h17.6c0.4,0,0.8,0.1,1,0.4l10.1,9.5l-2.1,2.2
					l-9.7-9.1h-16.5L649.6,34.8z"/>
			</g>
			<g>
				<path fill="#A0AFA6" d="M690.7,61.9h-3c0-4.4,0.1-9.4,0.1-14.2c0-4.8,0.1-9.8,0.1-14.1h3c0,4.4-0.1,9.4-0.1,14.2
					C690.7,52.6,690.7,57.6,690.7,61.9z"/>
			</g>
			<g>
				<path fill="#A0AFA6" d="M658.4,46.3c-0.1-0.1-7.9-8.8-10.7-11.6c-0.4-0.4-0.5-1.1-0.3-1.6c0.2-0.6,0.8-0.9,1.4-0.9h40.7v3h-37.2
					c3.4,3.7,8.1,8.9,8.4,9.2L658.4,46.3z"/>
			</g>
			<g>
				<path fill="none" stroke="#A0AFA6" stroke-width="3" stroke-linejoin="round" stroke-miterlimit="10" d="M689.6,84.2"/>
			</g>
			<g>
				<path fill="#A0AFA6" d="M679.2,46.4l-2.2-2.1l11.2-11.7c0.6-0.6,1.5-0.6,2.1-0.1l9.7,9l-2,2.2l-8.7-8L679.2,46.4z"/>
			</g>
			<g>
				<rect x="657.5" y="44.1" fill="#A0AFA6" width="3" height="30"/>
			</g>
			<g>
				
					<rect x="667.7" y="64.1" transform="matrix(1.823213e-02 0.9998 -0.9998 1.823213e-02 741.4803 -586.0758)" fill="#A0AFA6" width="3" height="40.9"/>
			</g>
		</g>
		<g>
			<path fill="#A0AFA6" d="M658,95.2L647.7,86c-0.3-0.3-0.5-0.7-0.5-1.1c0-0.4,0.1-0.8,0.4-1.1l10.2-10.7l2.2,2.1l-9.1,9.6L660,93
				L658,95.2z"/>
		</g>
		<g>
			<path fill="#A0AFA6" d="M679.3,97.5l-2.2-2l10.5-11.3l-9.3-8.9l2.1-2.2l10.4,9.9c0.6,0.6,0.6,1.5,0.1,2.1L679.3,97.5z"/>
		</g>
		<g>
			<g>
				<g>
					<rect x="646.2" y="107.8" fill="#A0AFA6" width="3" height="26.7"/>
				</g>
				<g>
					<path fill="#A0AFA6" d="M647.5,136C647.5,136,647.4,136,647.5,136c-0.4,0-0.8-0.2-1.1-0.5l-9.4-10l2.2-2.1l8.4,8.9l9.3-8.9
						l2.1,2.2l-10.4,10C648.2,135.8,647.9,136,647.5,136z"/>
				</g>
				<g>
					<path fill="#A0AFA6" d="M689.2,136c-0.4,0-0.7-0.1-1-0.4l-11-10l2-2.2l10,9l8.8-9.2l2.2,2.1l-9.8,10.3
						C690,135.8,689.6,136,689.2,136z"/>
				</g>
				<g>
					<path fill="#A0AFA6" d="M689.2,136h-41.5v-3h40V83.9c0-0.6,0.4-1.2,0.9-1.4c0.6-0.2,1.2-0.1,1.6,0.4l9.8,10.4l-2.2,2.1
						l-7.2-7.6v46.8C690.7,135.3,690,136,689.2,136z"/>
				</g>
			</g>
			<g>
				
					<rect x="681.7" y="132.9" transform="matrix(0.6694 0.7429 -0.7429 0.6694 329.7998 -461.374)" fill="#A0AFA6" width="3" height="13.8"/>
			</g>
			<g>
				
					<rect x="645.1" y="138.1" transform="matrix(0.6531 0.7573 -0.7573 0.6531 331.8228 -445.2221)" fill="#A0AFA6" width="13.4" height="3"/>
			</g>
		</g>
	</g>
	<g>
		<path fill="#A0AFA6" d="M505.9,145.1l-2-2.3l10.7-9.3V33.6c0-0.8,0.7-1.5,1.5-1.5h24.7l6.5-8.9l2.4,1.8l-7,9.5
			c-0.3,0.4-0.7,0.6-1.2,0.6h-24v99.1c0,0.4-0.2,0.8-0.5,1.1L505.9,145.1z"/>
	</g>
	<g>
		
			<rect x="539.1" y="38" transform="matrix(0.6715 0.741 -0.741 0.6715 208.9062 -392.3289)" fill="#A0AFA6" width="15.8" height="3"/>
	</g>
	<g>
		<path fill="#A0AFA6" d="M516.2,35.1h-25.6c-0.5,0-0.9-0.2-1.2-0.6l-7.1-9.6l2.4-1.8l6.7,9h24.9V35.1z"/>
	</g>
	<g>
		
			<rect x="483.8" y="31.6" transform="matrix(0.7401 0.6724 -0.6724 0.7401 152.6027 -316.1184)" fill="#A0AFA6" width="3" height="15.6"/>
	</g>
	<g>
		<path fill="#A0AFA6" d="M526.8,145.5c-0.4,0-0.7-0.1-1-0.4l-10.6-9.8c-0.6-0.6-0.6-1.5-0.1-2.1c0.6-0.6,1.5-0.6,2.1-0.1l10.6,9.8
			c0.6,0.6,0.6,1.5,0.1,2.1C527.6,145.3,527.2,145.5,526.8,145.5z"/>
	</g>
	<g>
		
			<rect x="64.4" y="27.1" transform="matrix(0.7098 0.7044 -0.7044 0.7098 40.8868 -42.0718)" fill="#A0AFA6" width="14.3" height="3"/>
	</g>
	<g>
		
			<rect x="139.3" y="27.1" transform="matrix(0.7098 0.7044 -0.7044 0.7098 62.6398 -94.8764)" fill="#A0AFA6" width="14.3" height="3"/>
	</g>
	<g>
		
			<rect x="126.2" y="97.2" transform="matrix(1 8.025115e-03 -8.025115e-03 1 0.7968 -1.0908)" fill="#A0AFA6" width="20.3" height="3"/>
	</g>
	<g>
		
			<rect x="109.1" y="91" transform="matrix(0.6228 0.7824 -0.7824 0.6228 116.4866 -56.6591)" fill="#A0AFA6" width="15.8" height="3"/>
	</g>
	<g>
		
			<rect x="146.4" y="85.3" transform="matrix(0.8592 0.5116 -0.5116 0.8592 68.1301 -62.634)" fill="#A0AFA6" width="3" height="14.4"/>
	</g>
</g>
</svg>
