<svg xmlns="http://www.w3.org/2000/svg" viewBox="0 0 406.4 74.2"><defs><style>.cls-3{fill:#baaf94}</style></defs><g style="isolation:isolate"><g style="mix-blend-mode:multiply" id="Capa_1" data-name="Capa 1"><path class="cls-3" d="M85.74 73.7H70.46a.9.9 0 0 1-.79-1.32c1.55-2.89.79-5.6 0-8.46-.2-.69-.4-1.4-.56-2.11-.48-2-1-4.13-1.52-6.14-.62-2.43-1.26-4.95-1.82-7.45-.36-1.6-1.17-1.82-3.44-1.66-1.36.1-1.82.63-1.81 2.12v7.09c0 3.72 0 7.57.07 11.35a13.7 13.7 0 0 0 .73 3.55c.17.61.36 1.25.51 1.9a.92.92 0 0 1-.17.77.91.91 0 0 1-.7.34H46.25a.91.91 0 0 1-.89-1c1.07-9.73.94-19.71.82-29.36-.08-5.44-.15-11.06 0-16.59.1-4 .1-7.27 0-10.36v-4c.12-3.82.23-7.42-1.6-11a.87.87 0 0 1 0-.87.88.88 0 0 1 .76-.43l20.5.03h3.07c2.55 0 5.2 0 7.8.1A10 10 0 0 1 81 1.79c5 3 5.49 7.61 5.31 11.27-.34 6.92-.23 14-.12 20.85v3a5.79 5.79 0 0 1-2.54 5.44C80.41 44.48 79.64 46.9 81 51c1.62 5 2.87 10.16 4.07 15.17.51 2.12 1 4.31 1.58 6.45a.89.89 0 0 1-.87 1.12zm-13.9-1.8h12.75c-.45-1.8-.88-3.6-1.3-5.36-1.2-5-2.43-10.12-4-15s-.49-8.1 3.48-10.68c1.23-.86 1.73-1.96 1.7-3.95v-3c-.11-6.88-.22-14 .13-21 .24-4.75-1.09-7.64-4.44-9.64A8.54 8.54 0 0 0 76.6 2c-2.54-.15-5.15-.12-7.68-.1H46.78C48.2 5.44 48.09 9 48 12.46c0 1.26-.08 2.57 0 3.83.11 3.13.11 6.45 0 10.46-.14 5.5-.06 11.11 0 16.53.12 9.38.25 19.06-.72 28.58h12.5l-.21-.71a16.59 16.59 0 0 1-.8-4c-.09-3.8-.08-7.66-.06-11.4v-7.07c0-2.36 1.15-3.75 3.47-3.92 1.71-.12 4.57-.32 5.32 3.06.56 2.47 1.19 5 1.81 7.4.51 2 1 4.11 1.52 6.17.16.67.35 1.36.54 2 .76 2.72 1.54 5.49.47 8.51zM69.7 34.62h-7.12a3.82 3.82 0 0 1-2.94-1 3.68 3.68 0 0 1-.9-2.86c.05-1.74 0-3.52 0-5.25v-2.28-2.2-5.1a3.6 3.6 0 0 1 .89-2.72 3.83 3.83 0 0 1 2.83-1h7.28a3.82 3.82 0 0 1 2.81 1 3.67 3.67 0 0 1 .93 2.79v14.87a3.38 3.38 0 0 1-3.77 3.8zm-3.83-1.82h3.73a2.29 2.29 0 0 0 1.64-.44 2.19 2.19 0 0 0 .44-1.56V15.91a2.09 2.09 0 0 0-.41-1.46 2.16 2.16 0 0 0-1.53-.45h-7.28a2.16 2.16 0 0 0-1.55.44 2 2 0 0 0-.37 1.42V30.8a2.14 2.14 0 0 0 .39 1.55 2.22 2.22 0 0 0 1.63.43zM117.8 74h-1.33c-4.42-.31-9-.21-13.36-.11h-2.57A6.83 6.83 0 0 1 96 72.14c-3.54-2.67-5-6-4.93-11.3.25-14.84.2-29.94.14-44.54V9.52a7.26 7.26 0 0 1 2.14-5.1c2.84-3.35 6.21-4.7 11-4.37 4.46.31 9.06.21 13.5.11h2.43a6.86 6.86 0 0 1 4.53 1.79c3.52 2.65 5 6 4.75 10.93-.27 5.7-.22 11.52-.17 17.15 0 2.39.05 4.78 0 7.17v27.19a7.5 7.5 0 0 1-2 5.16A11.48 11.48 0 0 1 117.8 74zm-8.15-2c2.32 0 4.64 0 6.95.21 4.14.3 6.94-.85 9.37-3.82a5.58 5.58 0 0 0 1.61-4c-.06-6.69 0-13.5 0-20.08v-7.13-7.15c0-5.66-.1-11.51.17-17.26.2-4.3-1-7.12-4-9.41a5.19 5.19 0 0 0-3.42-1.43l-2.51.07c-4.48.1-9.12.2-13.67-.11-4.16-.29-7 .83-9.45 3.74A5.58 5.58 0 0 0 93 9.52v6.77c0 14.61.11 29.72-.15 44.58-.08 4.67 1.15 7.52 4.22 9.84a5.11 5.11 0 0 0 3.43 1.41l2.56-.06c2.18-.06 4.38-.06 6.59-.06zm3.69-10.07H107.45c-3.17 0-4.14-1-4.14-4.07v-26-14.92c0-3.74.45-4.61 4.78-4.62h4.78c3.37 0 4.29.92 4.29 4.16v41.38a4.17 4.17 0 0 1-1 3.12 3.85 3.85 0 0 1-2.82.92zm-2.11-1.82h2a2.27 2.27 0 0 0 1.67-.43 2.53 2.53 0 0 0 .5-1.84V29.65 16.46c0-2.26-.09-2.35-2.51-2.37h-4.77c-1.18 0-2.36 0-2.66.32s-.32 1.39-.33 2.51v40.93c0 2.08.18 2.25 2.37 2.27h3.76zM15.69 73.72L.9 73.7a.89.89 0 0 1-.76-.42.88.88 0 0 1-.05-.86c1.81-3.75 1.66-7.58 1.51-11.63-.05-1.22-.1-2.47-.09-3.7.12-12.66.13-26.57.05-43.77 0-2.72-.19-5.42-.39-8.28C1.08 3.71 1 2.36.91 1a.86.86 0 0 1 .24-.68A.9.9 0 0 1 1.8 0h9.66C17.54.07 23.83.09 30 0a7.92 7.92 0 0 1 5.37 2.12c3.33 2.6 4.66 5.68 4.46 10.29-.28 6.74-.21 13.61-.13 20.26v4.54A7 7 0 0 1 37.92 42c-3 3.86-6.77 5.38-11.79 4.77a38.28 38.28 0 0 0-5.59-.12c-1 0-2.1.06-3.16 0a2.27 2.27 0 0 0-1.64.43 2.31 2.31 0 0 0-.44 1.66v7.41c0 3.62 0 7.36.06 11a14.56 14.56 0 0 0 .7 3.55c.18.61.35 1.24.5 1.89a.9.9 0 0 1-.17.76.91.91 0 0 1-.7.37zM2.26 71.91h12.28c-.07-.24-.14-.47-.2-.71a16.4 16.4 0 0 1-.78-4c-.08-3.7-.07-7.45-.05-11.08v-7.39a3.9 3.9 0 0 1 1-3 3.84 3.84 0 0 1 2.93-.95h3.08a40.92 40.92 0 0 1 5.85.13c4.4.53 7.53-.73 10.17-4.1A5.28 5.28 0 0 0 38 37.25v-4.54c-.07-6.67-.15-13.57.14-20.35.18-4-.92-6.58-3.77-8.81A6.17 6.17 0 0 0 30 1.81c-6.2.08-12.49.06-18.59 0H2.75q.1 1.56.21 3.09c.2 2.88.39 5.61.4 8.39.08 17.21.06 31.13 0 43.79 0 1.2 0 2.43.08 3.62.09 3.69.24 7.47-1.18 11.21zm18-37.34h-3.38a3.08 3.08 0 0 1-3.32-3.41V15.57A3.1 3.1 0 0 1 17 12.21h7.18a3.09 3.09 0 0 1 3.33 3.43V30.99a3.6 3.6 0 0 1-.9 2.68 3.4 3.4 0 0 1-2.53.9h-3.8zm0-20.58H17c-1.36 0-1.63.61-1.63 1.55v15.6c0 1.16.41 1.6 1.55 1.61h7.11a1.77 1.77 0 0 0 1.26-.37 1.93 1.93 0 0 0 .38-1.4v-5.21V21.08v-5.44c0-1.16-.43-1.61-1.56-1.63S21.57 14 20.27 14zM221.48 73.88h-35.51a.89.89 0 0 1-.65-.29.87.87 0 0 1-.24-.67c.95-14.2.82-28.69.7-42.7-.07-7.67-.14-15.6 0-23.41a12.4 12.4 0 0 0-.69-3.47c-.18-.62-.36-1.25-.51-1.9a.86.86 0 0 1 .17-.76.91.91 0 0 1 .7-.34h36.13a.89.89 0 0 1 .88.75l2.14 13a.9.9 0 0 1-1.15 1c-4.93-1.51-9.92-1.38-14.76-1.26-2.33.06-4.74.12-7.11 0a2.08 2.08 0 0 0-1.57.38 2.08 2.08 0 0 0-.44 1.51V27.8a2 2 0 0 0 .44 1.55 2 2 0 0 0 1.51.35c2.07-.15 4.12-.34 6.28-.54l2.84-.26a.88.88 0 0 1 .69.23.92.92 0 0 1 .29.66v13.77a.89.89 0 0 1-1 .89l-2.64-.26c-2.09-.2-4.21-.41-6.32-.59a2.15 2.15 0 0 0-1.66.4 2.43 2.43 0 0 0-.47 1.82c.09 3.6.09 7.44 0 12.1a2.36 2.36 0 0 0 .43 1.73 2.28 2.28 0 0 0 1.58.43H217.78a18 18 0 0 0 3.65-.63c.66-.16 1.34-.32 2.06-.46a.89.89 0 0 1 1.06 1L222.4 73.2a.89.89 0 0 1-.92.68zm-34.55-1.82h33.79l1.81-11.16-.72.18a19.17 19.17 0 0 1-4 .67c-3.48.09-7 .07-10.43.06h-5.84a3.72 3.72 0 0 1-2.87-1 4 4 0 0 1-.94-3c.08-4.63.08-8.45 0-12a4 4 0 0 1 1-3.18 3.74 3.74 0 0 1 3-.81c2.13.18 4.25.39 6.34.6l1.66.16V30.79l-1.85.17c-2.18.21-4.24.4-6.33.55a3.67 3.67 0 0 1-2.86-.83 3.72 3.72 0 0 1-1-2.88c.05-4.15 0-8.25 0-12a3.7 3.7 0 0 1 1-2.82 3.76 3.76 0 0 1 2.89-.87c2.3.12 4.68.06 7 0 4.53-.12 9.21-.23 13.95 1l-1.74-10.97h-34.21c.07.23.13.46.2.69a13.75 13.75 0 0 1 .76 4c-.11 7.78 0 15.7 0 23.37.15 13.7.28 27.89-.61 41.86zM163.54 73.86H149a.87.87 0 0 1-.72-.36.92.92 0 0 1-.14-.8c1.58-5.11 1.41-10.44 1.26-15.59-.08-2.59-.16-5.26 0-7.9a6.87 6.87 0 0 0-.52-2.63l-1.65-4.69c-3.88-10.89-7.86-22.15-11.9-33.18A29.24 29.24 0 0 0 132.92 4c-.44-.75-.9-1.54-1.33-2.34a.91.91 0 0 1 0-.89.91.91 0 0 1 .77-.43h17.5a.88.88 0 0 1 .83.58.87.87 0 0 1-.23 1c-1.65 1.52-1.27 2.89-.52 5 .14.39.28.79.4 1.18 1.52 5.06 3.08 10.07 4.73 15.38.38 1.24.77 2.49 1.16 3.75l2.93-9.44q1.59-5.16 3.21-10.31c.07-.22.14-.44.22-.65.64-1.94 1.11-3.34-.65-4.95a.89.89 0 0 1-.22-1 .89.89 0 0 1 .83-.57L180 .32a.9.9 0 0 1 .83.55 1.11 1.11 0 0 1 0 1.22c-3.49 5-5.37 10.72-7.19 16.3-.8 2.47-1.63 5-2.59 7.47s-1.79 4.89-2.62 7.3c-1 2.8-2 5.7-3.09 8.5a29.74 29.74 0 0 0-2.27 13.42c.13 2 .08 3.93 0 5.83-.1 3.87-.21 7.86 1.22 11.75a.9.9 0 0 1-.84 1.2zm-13.36-1.8h12.12c-1.13-3.8-1-7.56-.93-11.2 0-1.87.1-3.8 0-5.67A31.38 31.38 0 0 1 163.74 41c1.11-2.76 2.1-5.63 3-8.41.84-2.42 1.7-4.93 2.65-7.37s1.76-4.93 2.55-7.37c1.74-5.33 3.53-10.82 6.72-15.73h-14.23c1 1.87.39 3.72-.12 5.27l-.21.61c-1.08 3.43-2.14 6.87-3.21 10.3l-3.79 12.2a.89.89 0 0 1-.86.63.89.89 0 0 1-.85-.63l-2-6.5c-1.65-5.32-3.2-10.34-4.73-15.4-.11-.37-.24-.73-.37-1.1-.58-1.58-1.29-3.5-.29-5.36h-14.13l.56 1a31.88 31.88 0 0 1 2.55 5c4 11 8 22.29 11.87 33.19l1.7 4.67a8.78 8.78 0 0 1 .61 3.33c-.13 2.56 0 5.19 0 7.74.18 4.93.33 9.93-.98 14.99zM348.18 74.13h-1.33c-4.38-.31-8.89-.21-13.25-.12l-2.68.06a6.94 6.94 0 0 1-4.55-1.74c-4.49-3.34-5-7.71-5-11.54.27-14.83.21-29.92.15-44.51V9.95a7.8 7.8 0 0 1 2.29-5.53c2.79-3.22 6-4.52 10.53-4.22s9.13.21 13.61.12l2.56-.05A6.88 6.88 0 0 1 355.06 2c3.53 2.64 5 6.08 4.77 11.16-.26 5.64-.21 11.4-.16 17v34.55a7.23 7.23 0 0 1-2 4.91 11.37 11.37 0 0 1-9.49 4.51zm-8.14-2c2.31 0 4.64 0 6.94.21 4.15.3 6.95-.85 9.35-3.84a5.54 5.54 0 0 0 1.6-3.78c-.06-6.77 0-13.65 0-20.31v-7.14-7.09c-.05-5.6-.1-11.38.16-17.07.21-4.55-1-7.34-4.05-9.64A5.22 5.22 0 0 0 350.56 2l-2.56.06c-4.52.1-9.19.19-13.77-.12-3.93-.26-6.64.81-9.05 3.6a6 6 0 0 0-1.85 4.35v6.33c.06 14.6.12 29.7-.14 44.55-.09 4.92 1.1 7.74 4.23 10.07a5.08 5.08 0 0 0 3.45 1.38h2.67c2.16-.1 4.32-.14 6.46-.14zM342.11 62h-4.76a3.81 3.81 0 0 1-2.79-.94 3.6 3.6 0 0 1-.92-2.65q0-21.27.05-42.56a3.44 3.44 0 0 1 .9-2.54 3.6 3.6 0 0 1 2.67-.91h6.43a3.82 3.82 0 0 1 2.89.93 4 4 0 0 1 1 3v41.36c0 3.67-1.37 4.29-4.42 4.3zm-3.65-1.81h4.61c2.43 0 2.63-.2 2.64-2.52V31.52 16.3a2.33 2.33 0 0 0-.45-1.7 2.23 2.23 0 0 0-1.6-.42h-6.45a1.93 1.93 0 0 0-1.38.39 1.74 1.74 0 0 0-.37 1.27q0 21.27-.05 42.56a1.87 1.87 0 0 0 .4 1.37 2.08 2.08 0 0 0 1.51.42zM393.92 74.2c-.47 0-.95 0-1.45-.06a117.68 117.68 0 0 0-13-.14l-2.66.07a7.13 7.13 0 0 1-4.81-1.85 11.49 11.49 0 0 1-4.9-11.1 35.49 35.49 0 0 0-.29-7.08c-.12-1.1-.24-2.24-.31-3.38a.91.91 0 0 1 .24-.68.87.87 0 0 1 .65-.28h14a.91.91 0 0 1 .89 1c-.11.78-.22 1.55-.34 2.31-.25 1.74-.51 3.53-.7 5.29a1.85 1.85 0 0 0 .3 1.42 2.25 2.25 0 0 0 1.64.49h6.46a2.27 2.27 0 0 0 1.6-.45 2.09 2.09 0 0 0 .42-1.5V46a1.55 1.55 0 0 0-1.86-1.84h-3.15c-3.29 0-6.69 0-10-.1a8.58 8.58 0 0 1-4.18-1.64c-3.93-2.58-5.61-6.28-5.26-11.63.36-5.6.26-11.34.16-16.89 0-1.52-.05-3-.06-4.56a6.43 6.43 0 0 1 1.83-4.49C372 1.28 375.8-.2 380.91.2c4.22.32 8.56.22 12.77.12l2.68-.06A6.87 6.87 0 0 1 400.9 2c3.62 2.74 5.14 6.3 4.77 11.18a37.67 37.67 0 0 0 .38 7.2c.13 1.1.26 2.24.35 3.37a.89.89 0 0 1-.24.68.88.88 0 0 1-.66.29h-14a.93.93 0 0 1-.68-.31.88.88 0 0 1-.21-.71l.33-2.33c.25-1.74.5-3.55.69-5.31a1.74 1.74 0 0 0-.27-1.37 2 2 0 0 0-1.47-.46h-6.93c-1.27 0-1.74.47-1.73 1.72v12.54a1.91 1.91 0 0 0 .4 1.35 2.23 2.23 0 0 0 1.55.43h13.13a6.83 6.83 0 0 1 4.55 1.81c3.56 2.72 5 6.17 4.75 11.17-.31 5.81-.22 11.76-.14 17.52l.06 4.18a6.6 6.6 0 0 1-1.81 4.51 11.94 11.94 0 0 1-9.8 4.74zm-8.1-2.1c2.27 0 4.55.06 6.8.25a10.34 10.34 0 0 0 9.73-4.06 4.76 4.76 0 0 0 1.4-3.36c0-1.39 0-2.78-.05-4.17-.09-5.78-.18-11.76.14-17.64.24-4.4-1-7.29-4-9.64a5 5 0 0 0-3.47-1.48c-2.84.06-5.72.05-8.51 0h-4.65a3.84 3.84 0 0 1-2.82-1 3.55 3.55 0 0 1-.93-2.62v-5.13-7.29a3.21 3.21 0 0 1 3.54-3.52h6.94a3.66 3.66 0 0 1 2.8 1.06 3.46 3.46 0 0 1 .72 2.76c-.2 1.79-.46 3.61-.71 5.37l-.18 1.3h12c-.07-.79-.16-1.57-.25-2.34a38.9 38.9 0 0 1-.39-7.55c.33-4.33-.89-7.2-4.07-9.61a5.08 5.08 0 0 0-3.42-1.4l-2.67.06A127.1 127.1 0 0 1 380.78 2c-4.55-.35-7.73.89-10.32 4A4.71 4.71 0 0 0 369 9.33c0 1.51 0 3 .07 4.55.09 5.58.19 11.36-.17 17-.31 4.71 1.07 7.8 4.46 10a7 7 0 0 0 3.27 1.35c3.3.14 6.68.12 9.95.09h3.17a3.73 3.73 0 0 1 2.72.94 3.66 3.66 0 0 1 .93 2.7v12.29a3.74 3.74 0 0 1-.94 2.78 3.83 3.83 0 0 1-2.88 1h-6.44a3.85 3.85 0 0 1-3-1.08 3.49 3.49 0 0 1-.75-2.81c.19-1.79.45-3.6.71-5.36.06-.42.12-.85.19-1.27h-12c.07.79.15 1.59.23 2.36a37 37 0 0 1 .29 7.44 9.72 9.72 0 0 0 4.2 9.5 5.41 5.41 0 0 0 3.65 1.48l2.65-.06c2.21-.08 4.36-.13 6.51-.13zM257.16 74h-1.25c-4.65-.3-9.42-.2-14-.11h-2.38a6.92 6.92 0 0 1-4.53-1.73c-3.54-2.67-5-6.06-4.93-11.31.25-14.58.2-29.4.15-43.74V9.76a7.59 7.59 0 0 1 2.16-5.36c2.88-3.33 6.27-4.67 11-4.33 4.49.32 9.11.21 13.58.1h1.88a7.53 7.53 0 0 1 5.19 2 11.18 11.18 0 0 1 4.53 10.57 40.92 40.92 0 0 0 .33 7.26c.12 1.15.24 2.33.33 3.53a.91.91 0 0 1-.24.67.88.88 0 0 1-.66.29h-14.05a.91.91 0 0 1-.89-1c.12-.76.26-1.52.39-2.27a39.94 39.94 0 0 0 .67-4.81 4.11 4.11 0 0 0-.22-2.17 4.31 4.31 0 0 0-2.24-.35h-5c-2.87 0-2.87 0-2.87 2.72v41.17c0 2.11.16 2.26 2.38 2.28h6a2.33 2.33 0 0 0 1.7-.44 2 2 0 0 0 .29-1.57c-.19-1.7-.44-3.36-.71-5.13-.11-.76-.23-1.53-.34-2.3a.9.9 0 0 1 .21-.72.93.93 0 0 1 .68-.31h14.6a.89.89 0 0 1 .75.4.91.91 0 0 1 .07.86c-1.48 3.34-1.43 6.74-1.39 10.35 0 1.7 0 3.46-.11 5.2a4.61 4.61 0 0 1-1.49 2.54 10.74 10.74 0 0 0-.75.88c-2.13 2.87-4.88 4.18-8.84 4.18zm-8.38-2c2.42 0 4.84 0 7.25.21 4 .25 6.54-.79 8.46-3.49a9.88 9.88 0 0 1 .89-1c.46-.51 1-1.09 1-1.49a49.28 49.28 0 0 0 .11-5c0-3.23-.08-6.56 1.05-9.85H255.3c.07.42.13.85.2 1.27.26 1.78.52 3.46.72 5.19a3.65 3.65 0 0 1-.76 3 3.79 3.79 0 0 1-3.08 1h-5.96c-3.21 0-4.14-.94-4.15-4.07V34.35 16.51c0-3.76.79-4.51 4.67-4.52h5c1.74 0 2.82.15 3.54.92s.79 1.9.7 3.49a44.09 44.09 0 0 1-.69 5l-.21 1.19h11.91c-.07-.84-.16-1.68-.24-2.5a42.4 42.4 0 0 1-.34-7.59 9.44 9.44 0 0 0-3.85-9 5.89 5.89 0 0 0-4-1.6l-1.87.1c-4.51.11-9.17.22-13.75-.11-4.13-.3-7 .82-9.48 3.72A5.77 5.77 0 0 0 232 9.75v7.36c.05 14.34.11 29.18-.14 43.77-.08 4.68 1.14 7.53 4.21 9.85a5.16 5.16 0 0 0 3.42 1.41h2.37c2.26-.09 4.58-.14 6.92-.14zM302.71 73.79h-14a.9.9 0 0 1-.89-.93c.06-1.49.14-3 .22-4.46.16-3.19.34-6.49.36-9.73.06-10.27.06-20.71.06-30.81v-11a4.62 4.62 0 0 0-.33-2.36 4.41 4.41 0 0 0-2.31-.28c-2.66.06-5.31.21-8.11.35l-3.79.2a.93.93 0 0 1-.72-.3.87.87 0 0 1-.21-.74L275 1a.89.89 0 0 1 .88-.75h39a.9.9 0 0 1 .88.75l2.16 12.69a.89.89 0 0 1-.92 1.11l-3.77-.19-8.65-.46a2.23 2.23 0 0 0-1.65.35 2.29 2.29 0 0 0-.45 1.65v51.09a14.72 14.72 0 0 0 .64 3.55c.17.62.34 1.26.48 1.92a.92.92 0 0 1-.19.75.88.88 0 0 1-.7.33zM289.64 72h11.94c-.07-.25-.14-.5-.2-.75a16.06 16.06 0 0 1-.7-4c-.05-10.46 0-21.09 0-31.37V16.15a3.82 3.82 0 0 1 1-2.95 3.8 3.8 0 0 1 3-.84c2.86.16 5.72.31 8.64.45L316 13l-1.9-10.89h-37.45l-1.73 10.79 2.68-.14c2.82-.15 5.48-.29 8.17-.36 1.77 0 2.86.07 3.6.79s.88 2.07.88 3.65v11.05c0 10.1 0 20.55-.06 30.82 0 3.28-.19 6.6-.36 9.81z"/><path class="cls-3" d="M7.43 6.92h1.79v59.4H7.43z"/><path class="cls-3" d="M8.32 7.81a.89.89 0 0 1-.62-.25L1.77 1.87 3 .58l5.32 5.1 5.5-5.14L15 1.85 8.94 7.57a.93.93 0 0 1-.62.24zM31.75.91h1.79v44.88h-1.79zM1.49 73.48L.31 72.13l7.42-6.49a.91.91 0 0 1 1.18 0l6.85 5.92-1.17 1.36-6.26-5.41z"/><path class="cls-3" d="M32.78 39.3H8.55a.88.88 0 0 1-.83-.56.89.89 0 0 1 .2-1l6.14-6 1.25 1.28-4.55 4.44h22zM13.79 13.82L7.68 7.54A.9.9 0 0 1 8.32 6h24.32v1.81H10.45l4.62 4.76z"/><path class="cls-3" d="M38.35 13.83l-5.69-5.64-5.44 5.63-1.29-1.25L32 6.29a.87.87 0 0 1 .63-.29.86.86 0 0 1 .64.26l6.34 6.28zM32.78 39.3a1 1 0 0 1-.63-.25l-6.2-6 1.25-1.29 5.67 5.47 5.46-3.8 1 1.48-6.06 4.21a.9.9 0 0 1-.49.18zM13.54 13.2h1.79v19.23h-1.79zM52.74 6.92h1.79v59.4h-1.79z"/><path class="cls-3" d="M53.64 7.81a.84.84 0 0 1-.56-.2l-7.43-6L46.78.2l6.8 5.52L59.14.26l1.26 1.28-6.13 6a.88.88 0 0 1-.63.27z"/><path class="cls-3" transform="rotate(-.21 76.36 19.239)" d="M77.13.91h1.79V38.4h-1.79z"/><path class="cls-3" d="M60.35 73.44l-6.73-5.94-6.3 5.2-1.14-1.39 6.89-5.68a.89.89 0 0 1 1.16 0l7.3 6.45zM77.46 39.3H53.87a.89.89 0 0 1-.63-1.54l6.14-6 1.25 1.28-4.56 4.44h21.39zM59.1 13.82L53 7.54a.9.9 0 0 1-.19-1 .91.91 0 0 1 .83-.54H78v1.81H55.76l4.63 4.76z"/><path class="cls-3" d="M78.09 39.3a.92.92 0 0 1-.62-.25l-6.2-6 1.24-1.29 5.68 5.47 5.07-3.53.13-20.15L78 8.19l-5.43 5.63-1.29-1.25 6.06-6.28A.91.91 0 0 1 78 6a.88.88 0 0 1 .64.26l6.33 6.28a.87.87 0 0 1 .27.64l-.14 21a.89.89 0 0 1-.38.73l-6.12 4.23a.86.86 0 0 1-.51.16zM58.86 13.2h1.79v19.23h-1.79zM46.21 37.51h11.97v1.79H46.21z"/><path class="cls-3" transform="rotate(-35.77 95.32 9.238)" d="M91.34 8.34h7.95v1.79h-7.95z"/><path class="cls-3" d="M98.54 68.39a.86.86 0 0 1-.63-.27l-6.58-6.64 1.27-1.26 5.05 5.09V6.92h1.79v60.57a.89.89 0 0 1-.56.83.8.8 0 0 1-.34.07z"/><path class="cls-3" transform="rotate(-36.41 102.41 4.063)" d="M97.61 3.17h9.62v1.79h-9.62z"/><path class="cls-3" transform="rotate(-46.75 119.828 4.07)" d="M118.93-.1h1.79v8.33h-1.79z"/><path class="cls-3" d="M121.97 6.92h1.79v60.13h-1.79z"/><path class="cls-3" d="M122.86 68H98.77a.9.9 0 0 1-.63-1.54l6.14-6 1.25 1.29-4.53 4.4h21.88zM104 13.82l-6.1-6.28A.9.9 0 0 1 98.54 6h24.32v1.81h-22.19l4.62 4.76z"/><path class="cls-3" d="M123 68a.92.92 0 0 1-.63-.26l-7.21-7.07 1.25-1.28 6.59 6.38 5-5.31 1.3 1.23-5.62 6a.91.91 0 0 1-.68.31zM116.41 14.55l-1.26-1.27 7.08-7a.89.89 0 0 1 1.24 0l5.83 5.4-1.22 1.32-5.2-4.81zM103.76 13.2h1.79v47.88h-1.79zM92.98 66.15h10.11v1.79H92.98z"/><path class="cls-3" transform="rotate(-12.66 75.526 56.652)" d="M74.6 45.52h1.79v22.24H74.6z"/><path class="cls-3" d="M71.35 73.52l-1-1.46 7.55-5.3a.89.89 0 0 1 1.06 0l7 5.31-1.09 1.43-6.5-4.9z"/><path class="cls-3" transform="rotate(-47.98 101.605 70.253)" d="M100.71 66.13h1.79v8.25h-1.79z"/><path class="cls-3" transform="rotate(-49.22 120.391 70.08)" d="M116.37 69.19h8.02v1.79h-8.02z"/><path class="cls-3" d="M142.67 7.81a.81.81 0 0 1-.43-.11L132 2l.87-1.57 9.76 5.4 6.74-5.3 1.11 1.4-7.21 5.68a.86.86 0 0 1-.6.2z"/><path class="cls-3" transform="rotate(-19.29 149.418 26.361)" d="M148.57 5.76h1.79v41.19h-1.79z"/><path class="cls-3" d="M157.17 72.8h-1.79v-27a.76.76 0 0 1 .05-.3L170 5.73l1.69.62L157.17 46z"/><path class="cls-3" d="M171.05 6.87a1 1 0 0 1-.44-.11L162.13 2 163 .42 171.09 5l8.67-4.23.78 1.61-9.1 4.4a.86.86 0 0 1-.39.09zM217.7 68h-25.08a.9.9 0 0 1-.9-.9V7.38a.89.89 0 0 1 .9-.89h24.18a.86.86 0 0 1 .63.26l6.89 6.88-1.27 1.27-6.62-6.62h-22.91v57.87h23.76l5.65-6.94 1.39 1.14-5.92 7.27a.93.93 0 0 1-.7.38z"/><path class="cls-3" transform="rotate(-32.45 219.597 70.016)" d="M218.7 66.5h1.79v7.03h-1.79z"/><path class="cls-3" transform="rotate(-52.29 219.161 4.32)" d="M215.29 3.42h7.76v1.79h-7.76z"/><path class="cls-3" d="M210 44.19l-6.12-6.6a.9.9 0 0 1 0-1.19l6.12-7.17 1.36 1.16-5.61 6.61 5.58 6z"/><path class="cls-3" d="M192.62 35.72h11.93v1.79h-11.93z"/><path class="cls-3" transform="rotate(-49.4 189.007 4.302)" d="M188.12-.45h1.79v9.48h-1.79z"/><path class="cls-3" transform="rotate(-41.61 189.29 69.996)" d="M184.85 69.1h8.89v1.79h-8.89z"/><path class="cls-3" transform="rotate(-35.77 325.622 9.242)" d="M321.65 8.34h7.95v1.79h-7.95z"/><path class="cls-3" d="M328.85 68.39a.9.9 0 0 1-.64-.26l-6.57-6.65 1.27-1.26 5 5.09V6.92h1.8v60.57a.88.88 0 0 1-.56.83.83.83 0 0 1-.3.07z"/><path class="cls-3" transform="rotate(-36.41 332.697 4.07)" d="M327.91 3.17h9.62v1.79h-9.62z"/><path class="cls-3" transform="rotate(-46.75 350.122 4.07)" d="M349.24-.1h1.79v8.33h-1.79z"/><path class="cls-3" d="M352.27 6.92h1.79v60.13h-1.79z"/><path class="cls-3" d="M353.17 68h-24.1a.89.89 0 0 1-.62-1.54l6.14-6 1.25 1.29-4.56 4.43h21.89zM334.31 13.82l-6.1-6.28a.88.88 0 0 1-.19-1 .91.91 0 0 1 .83-.55h24.32v1.82H331l4.63 4.76z"/><path class="cls-3" d="M346.69 14.71l-1.27-1.26 7.11-7.16a.89.89 0 0 1 1.25 0l5.82 5.4-1.22 1.31-5.19-4.81zM353.3 68a.89.89 0 0 1-.61-.24L345.44 61l1.23-1.31 6.59 6.15 5-5.33 1.31 1.23-5.63 6a.87.87 0 0 1-.64.26zM334.07 13.2h1.79v47.88h-1.79z"/><path class="cls-3" d="M348.07 74L335 73.91a.9.9 0 0 1-.6-.23l-6.12-5.52 1.2-1.33 5.87 5.29 12.34.1 5-5.76 1.31 1.18-5.24 6.07a.9.9 0 0 1-.69.29z"/><path class="cls-3" transform="rotate(-35.77 234.88 9.248)" d="M230.91 8.34h7.95v1.79h-7.95z"/><path class="cls-3" d="M237.22 6.92h1.79V67.5h-1.79z"/><path class="cls-3" transform="rotate(-36.41 241.973 4.07)" d="M237.17 3.17h9.62v1.79h-9.62z"/><path class="cls-3" transform="rotate(-46.75 259.388 4.064)" d="M258.5-.1h1.79v8.33h-1.79z"/><path class="cls-3" d="M261.54 6.92h1.79V22.6h-1.79zM261.54 51.09h1.79v15.96h-1.79z"/><path class="cls-3" d="M238.34 66.15h24.09v1.79h-24.09z"/><path class="cls-3" d="M239 67.68l-1.27-1.26 5.78-5.78 1.26 1.27zM243.68 13.9a44.74 44.74 0 0 1-4.45-4.47c-.64-.7-1.24-1.35-1.76-1.89a.9.9 0 0 1 .64-1.54h24.32v1.81h-22.25l.37.41a44 44 0 0 0 4.25 4.27z"/><path class="cls-3" transform="rotate(-45.2 258.855 63.358)" d="M257.95 58.1h1.79v10.5h-1.79z"/><path class="cls-3" d="M255.74 14.55l-1.24-1.29 7.31-7a.9.9 0 0 1 1.23 0l5 4.65-1.23 1.31-4.35-4.07z"/><path class="cls-3" transform="rotate(-49.62 262.376 67.192)" d="M254.59 66.3h15.55v1.79h-15.55z"/><path class="cls-3" transform="rotate(-47.6 237.576 66.934)" d="M236.69 57.93h1.79v18.02h-1.79z"/><path class="cls-3" transform="rotate(-35.77 371.45 9.25)" d="M367.47 8.34h7.95v1.79h-7.95z"/><path class="cls-3" d="M374.68 38.46a.9.9 0 0 1-.64-.26l-6.58-6.64 1.28-1.26 5 5.09V6.92h1.79v30.65a.91.91 0 0 1-.55.83 1 1 0 0 1-.3.06z"/><path class="cls-3" d="M375.21 7.64l-1.07-1.44 7.74-5.71a.94.94 0 0 1 .53-.18h10.52a.86.86 0 0 1 .61.25l6.07 5.7-1.23 1.31-5.81-5.46h-9.86z"/><path class="cls-3" d="M399.77 23.84H398c0-2.62 0-5.6.06-8.47s.06-5.84.06-8.45h1.79c0 2.62 0 5.59-.06 8.47s-.08 5.84-.08 8.45z"/><path class="cls-3" d="M380.45 14.51c-.05-.06-4.73-5.24-6.42-7a.89.89 0 0 1-.18-1 .91.91 0 0 1 .83-.55H399v1.85h-22.24c2 2.2 4.87 5.33 5 5.49z"/><path class="cls-3" d="M392.92 14.53l-1.29-1.25 6.72-7a.88.88 0 0 1 1.25 0l5.83 5.4-1.22 1.32L399 8.17zM379.9 13.2h1.79v17.95h-1.79z"/><path class="cls-3" transform="rotate(-1.04 388.63 37.686)" d="M374.67 36.45h24.46v1.79h-24.46z"/><path class="cls-3" d="M380.2 43.75l-6.12-5.52a.9.9 0 0 1-.3-.63.87.87 0 0 1 .22-.6l6.11-6.38 1.29 1.24-5.4 5.66 5.44 4.9zM392.93 45.13l-1.31-1.22 6.25-6.75-5.56-5.33 1.24-1.29 6.2 5.94a.89.89 0 0 1 0 1.25zM373.17 51.25h1.79v15.96h-1.79z"/><path class="cls-3" d="M373.93 68.11a.89.89 0 0 1-.63-.29l-5.63-6 1.33-1.2 5 5.31 5.55-5.34 1.24 1.29-6.2 6a.87.87 0 0 1-.66.23zM398.87 68.11a.88.88 0 0 1-.6-.24l-6.6-6 1.21-1.33 5.95 5.46 5.26-5.5 1.29 1.24-5.86 6.13a.9.9 0 0 1-.65.24z"/><path class="cls-3" d="M398.87 68.11h-24.81v-1.8H398V37a.9.9 0 0 1 .56-.83.92.92 0 0 1 1 .22l5.86 6.18-1.3 1.24-4.32-4.56v28a.9.9 0 0 1-.93.86z"/><path class="cls-3" transform="rotate(-42.02 395.295 70.416)" d="M391.19 69.52h8.25v1.79h-8.25z"/><path class="cls-3" transform="rotate(-40.78 376.501 70.252)" d="M375.65 66.24h1.79v8.02h-1.79z"/><path class="cls-3" d="M289.29 73.56l-1.17-1.35 6.42-5.57V6.92a.9.9 0 0 1 .9-.9h14.79l3.9-5.34 1.45 1.06-4.17 5.71a.9.9 0 0 1-.72.36h-14.35v59.24a.93.93 0 0 1-.31.68z"/><path class="cls-3" transform="rotate(-42.19 313.837 10.42)" d="M312.96 5.7h1.79v9.43h-1.79z"/><path class="cls-3" d="M295.44 7.81h-15.31a.9.9 0 0 1-.72-.36l-4.25-5.74L276.6.64l4 5.38h14.86z"/><path class="cls-3" transform="rotate(-47.73 277.005 10.358)" d="M272.34 9.47h9.32v1.79h-9.32z"/><path class="cls-3" d="M301.78 73.78a.91.91 0 0 1-.61-.24l-6.34-5.83a.91.91 0 0 1-.05-1.27.9.9 0 0 1 1.27 0l6.34 5.83a.9.9 0 0 1 .05 1.27.91.91 0 0 1-.66.24z"/><path class="cls-3" transform="rotate(-45.22 29.607 3.906)" d="M28.71-.37h1.79v8.55h-1.79z"/><path class="cls-3" transform="rotate(-45.22 74.422 3.903)" d="M73.53-.37h1.79v8.55h-1.79z"/><path class="cls-3" transform="rotate(-89.54 68.349 45.841)" d="M67.45 39.77h1.79v12.15h-1.79z"/><path class="cls-3" transform="rotate(-38.52 56.806 42.103)" d="M55.91 37.38h1.79v9.45h-1.79z"/><path class="cls-3" transform="rotate(-59.3 75.125 42.106)" d="M70.96 41.2h8.6v1.79h-8.6z"/></g></g></svg>