<?xml version="1.0" encoding="utf-8"?>
<!-- Generator: Adobe Illustrator 18.0.0, SVG Export Plug-In . SVG Version: 6.00 Build 0)  -->
<!DOCTYPE svg PUBLIC "-//W3C//DTD SVG 1.1//EN" "http://www.w3.org/Graphics/SVG/1.1/DTD/svg11.dtd">
<svg version="1.1" id="Capa_1" xmlns="http://www.w3.org/2000/svg" xmlns:xlink="http://www.w3.org/1999/xlink" x="0px" y="0px"
	 viewBox="0 0 612 792" enable-background="new 0 0 612 792" xml:space="preserve">
<g>
	<g>
		<defs>
			<rect id="SVGID_1_" x="-1013.2" y="843.3" width="3491.5" height="2182.6"/>
		</defs>
		<clipPath id="SVGID_2_">
			<use xlink:href="#SVGID_1_"  overflow="visible"/>
		</clipPath>
		<g clip-path="url(#SVGID_2_)">
			<g>
				<path fill="#FFFFFF" d="M353.4,561.5c0.5,0,0.5-0.5,0-0.5S352.8,561.5,353.4,561.5L353.4,561.5z"/>
			</g>
		</g>
	</g>
</g>
<g>
	<g>
		<g>
			<g>
				<g>
					<polygon fill="#FFFFFF" points="331,298.8 371.1,258.9 371.1,338.7 					"/>
				</g>
			</g>
			<g>
				<g>
					<polygon fill="#FFFFFF" points="219,297.7 198,318.7 198,276.9 					"/>
				</g>
			</g>
			<g>
				<g>
					<polygon fill="#FFFFFF" points="279.4,268.7 343.3,268.7 279.4,332.6 					"/>
				</g>
			</g>
			<g>
				<g>
					<polygon fill="#FFFFFF" points="343.3,332.6 279.4,332.6 343.3,268.7 					"/>
				</g>
			</g>
			<g>
				<g>
					<polygon fill="#FFFFFF" points="219,268.7 282.9,268.7 219,332.6 					"/>
				</g>
			</g>
			<g>
				<g>
					<polygon fill="#FFFFFF" points="282.9,332.6 219,332.6 282.9,268.7 					"/>
				</g>
			</g>
		</g>
		<g>
			<g>
				<g>
					<polygon fill="#FFFFFF" points="243.3,509.9 237.9,504.4 282.9,459.4 327.7,504.4 322.5,509.9 282.9,470.3 					"/>
				</g>
			</g>
		</g>
		<g>
			<rect x="279.1" y="285.7" fill="#FFFFFF" width="7.6" height="179.1"/>
		</g>
	</g>
	<g>
		<g>
			<g>
				<polygon fill="#FFFFFF" points="496.8,470 530.6,503.9 463.2,503.9 				"/>
			</g>
		</g>
		<g>
			<rect x="406.4" y="371.7" fill="#FFFFFF" width="181.1" height="99.1"/>
		</g>
	</g>
	<g>
		<g>
			<g>
				<polygon fill="#FFFFFF" points="159.2,476.6 22.7,476.6 22.7,401.7 145.6,401.7 159.2,415.4 				"/>
			</g>
		</g>
		<g>
			<polygon fill="#FFFFFF" points="157,376.3 21.8,404.2 18.3,386.7 153.5,358.3 			"/>
		</g>
	</g>
</g>
</svg>
