<svg xmlns="http://www.w3.org/2000/svg" xmlns:xlink="http://www.w3.org/1999/xlink" viewBox="0 0 612 792"><defs><path id="a" d="M-1013.2 843.3h3491.5v2182.6h-3491.5z"/></defs><clipPath id="b"><use xlink:href="#a" overflow="visible"/></clipPath><g clip-path="url(#b)"><path fill="#FFF" d="M353.4 561.5c.5 0 .5-.5 0-.5s-.6.5 0 .5z"/></g><g><path fill="#FFF" d="M331 298.8l40.1-39.9v79.8zM219 297.7l-21 21v-41.8zM279.4 268.7h63.9l-63.9 63.9z"/><path fill="#FFF" d="M343.3 332.6h-63.9l63.9-63.9zM219 268.7h63.9L219 332.6z"/><path fill="#FFF" d="M282.9 332.6H219l63.9-63.9z"/><g><path fill="#FFF" d="M243.3 509.9l-5.4-5.5 45-45 44.8 45-5.2 5.5-39.6-39.6z"/></g><g><path fill="#FFF" d="M279.1 285.7h7.6v179.1h-7.6z"/></g><g><path fill="#FFF" d="M496.8 470l33.8 33.9h-67.4z"/><path fill="#FFF" d="M406.4 371.7h181.1v99.1H406.4z"/></g><g><path fill="#FFF" d="M159.2 476.6H22.7v-74.9h122.9l13.6 13.7z"/><path fill="#FFF" d="M157 376.3L21.8 404.2l-3.5-17.5 135.2-28.4z"/></g></g></svg>