<?xml version="1.0" encoding="utf-8"?>
<!-- Generator: Adobe Illustrator 18.1.1, SVG Export Plug-In . SVG Version: 6.00 Build 0)  -->
<svg version="1.1" id="Capa_1" xmlns="http://www.w3.org/2000/svg" xmlns:xlink="http://www.w3.org/1999/xlink" x="0px" y="0px"
	 viewBox="0 0 224.1 123" enable-background="new 0 0 224.1 123" xml:space="preserve">
<g>
	<g>
		<g>
			<polygon points="95.7,24.1 119.9,0 119.9,48.3 			"/>
		</g>
	</g>
	<g>
		<g>
			<polyline fill="none" stroke="#000000" stroke-width="2" stroke-miterlimit="10" points="81.4,104.7 96.8,89.4 112.1,104.7 			
				"/>
		</g>
	</g>
	<line fill="none" stroke="#000000" stroke-width="2" stroke-miterlimit="10" x1="96.8" y1="24.1" x2="96.8" y2="89.4"/>
</g>
<g>
	<g>
		<g>
			<polygon points="57.3,28.9 71.9,14.4 71.9,43.5 			"/>
		</g>
		<g>
			<polygon points="16.5,28.6 9,36.1 9,21 			"/>
		</g>
		<g>
			<polygon points="38.5,18 61.8,18 38.5,41.3 			"/>
		</g>
		<g>
			<polygon points="61.8,41.3 38.5,41.3 61.8,18 			"/>
		</g>
		<g>
			<polygon points="16.5,18 39.8,18 16.5,41.3 			"/>
		</g>
		<g>
			<polygon points="39.8,41.3 16.5,41.3 39.8,18 			"/>
		</g>
	</g>
	<g>
		<g>
			<polyline fill="none" stroke="#000000" stroke-width="2" stroke-miterlimit="10" points="24.5,104.7 39.8,89.4 55.2,104.7 			"/>
		</g>
	</g>
	<line fill="none" stroke="#000000" stroke-width="2" stroke-miterlimit="10" x1="39.8" y1="24.1" x2="39.8" y2="89.4"/>
</g>
<g>
	<g>
		<g>
			<polygon points="171.8,88.7 184.6,101.5 159,101.5 			"/>
		</g>
		<rect x="137.4" y="51.3" width="68.8" height="37.7"/>
	</g>
</g>
</svg>
