<svg xmlns="http://www.w3.org/2000/svg" viewBox="0 0 612 792"><path fill="#FFF" d="M261.3 293.9l66.1-65.9v132z"/><path fill="none" stroke="#FFF" stroke-miterlimit="10" d="M222.3 514l42.1-41.8 41.7 41.8M264.4 293.9v178.3"/><g><path fill="#FFF" d="M156.5 307l39.9-39.6v79.4zM45.1 306.2l-20.5 20.4v-41.2zM105.1 277.2h63.7l-63.7 63.6z"/><path fill="#FFF" d="M168.8 340.8h-63.7l63.7-63.6zM45.1 277.2h63.6l-63.6 63.6z"/><path fill="#FFF" d="M108.7 340.8H45.1l63.6-63.6z"/><g><path fill="none" stroke="#FFF" stroke-miterlimit="10" d="M66.9 514l41.8-41.8 42 41.8"/></g><path fill="none" stroke="#FFF" stroke-miterlimit="10" d="M108.7 293.9v178.3"/></g><g><path fill="#FFFDFD" d="M469.2 470.3l34.9 34.9h-69.9z"/><path fill="#FFFDFD" d="M375.2 368.1h187.9v103H375.2z"/></g></svg>