<svg xmlns="http://www.w3.org/2000/svg" version="1.1" id="Capa_1" x="0" y="0" viewBox="0 0 718.8 237.3" xml:space="preserve"><style type="text/css" id="style2">.st78{fill:none;stroke:#ffdaa6;stroke-width:3;stroke-miterlimit:10}</style><g id="g1124"><g id="g1095"><g id="g1067"><g id="g1040"><g id="g1014"><g id="g989"><path class="st78" d="M678 129.5h16.4v89.9c-4.2 0-9.1.2-14-.2-1.2-.1-2.6-2.2-3.2-3.6-6-14.6-11.8-29.3-17.7-44-.6-1.5-1.3-3-2.1-4.9v52.5h-16.2v-89.9c4.1 0 8.9-.2 13.6.2 1.2.1 2.8 2.1 3.3 3.5 5.9 14.5 11.6 29 17.3 43.6.6 1.6 1.4 3.2 2.4 5.4.2-17.9.2-34.9.2-52.5z" id="path4" fill="none" stroke="#ffdaa6" stroke-width="3" stroke-miterlimit="10"/><path class="st78" d="M328.1 129.3c12.1 0 24.4-.1 36.7.1 3.6 0 9.3 6.5 9.4 10.2v69.5c0 3.6-5.9 10.3-9.3 10.3-12.3.1-24.6.1-36.7.1-.1-30.1-.1-59.8-.1-90.2zm30.7 44.9c0-8.3-.1-16.7.1-25 .1-4-1.4-5.5-5.3-5.1-1.2.1-2.3 0-3.5 0-6.2 0-6.4.2-6.4 6.5v46.9c0 6.6.1 6.7 6.8 6.7.7 0 1.3-.1 2 0 4.7.6 6.6-1.2 6.4-6.1-.3-7.9-.1-15.9-.1-23.9z" id="path6" fill="none" stroke="#ffdaa6" stroke-width="3" stroke-miterlimit="10"/><path class="st78" d="M21.1 219.4v-89.9c1-.1 2.5-.2 4.1-.2h29c8.2 0 13 4.9 13 13.2V207c0 7.1-5.3 12.5-12.2 12.5-11.4-.1-22.7-.1-33.9-.1zm30.7-45.5v-23c0-6.8 0-6.8-6.5-6.8h-2c-6.4 0-6.5.2-6.5 6.3v44c0 10.2 0 10 10.1 9.9 3.6 0 5.1-1.3 5-5-.2-8.4-.1-16.9-.1-25.4z" id="path8" fill="none" stroke="#ffdaa6" stroke-width="3" stroke-miterlimit="10"/><path class="st78" d="M272.1 174.2v-33.5c0-5.9 5.4-11.4 11.1-11.4h23c5.3 0 11 5.7 11 11.1v67.5c0 5.9-5.7 11.5-11.7 11.5h-20c-8.8 0-13.5-4.7-13.5-13.7.1-10.5.1-21 .1-31.5zm29.8.4c0-8.3-.1-16.6 0-24.9.1-3.8-1.1-5.7-5.2-5.3-1 .1-2 0-3 0-6.8 0-6.8 0-6.8 7v43.4c0 9.8 0 9.6 9.8 9.6 4.1 0 5.2-1.7 5.1-5.4 0-8.1.1-16.3.1-24.4z" id="path10" fill="none" stroke="#ffdaa6" stroke-width="3" stroke-miterlimit="10"/><path class="st78" d="M630.2 174.5V208c0 5.7-5.7 11.4-11.2 11.4h-20c-9.3 0-13.9-4.6-13.9-13.8v-65c0-5.9 5.4-11.3 11.2-11.3h22c6.4 0 11.9 5.4 11.9 11.7v33.5zm-15.3-.5c0-8-.2-16 .1-23.9.1-4.3-1.4-6.2-5.8-5.7-1.1.1-2.3.1-3.5 0-4.4-.6-5.8 1.3-5.8 5.7.2 15 .1 29.9.1 44.9 0 9.7 0 9.5 9.9 9.5 3.7 0 5.1-1.4 5-5-.1-8.5 0-17 0-25.5z" id="path12" fill="none" stroke="#ffdaa6" stroke-width="3" stroke-miterlimit="10"/><path class="st78" d="M261.6 219.2h-17.2c1-11.1-3.6-21-5.7-31.3-.2-1.1-3.1-2.5-4.5-2.3-1.3.2-3.3 2.3-3.3 3.7-.3 9.9-.2 19.8-.2 30h-15.5v-89.9h32c9.4 0 13.9 4.5 13.9 13.7 0 9.8-.2 19.7.1 29.5.1 3.7-.7 6.6-3.7 8.6-3.8 2.6-4 5.8-2.8 9.9 2.5 9.2 4.6 18.6 6.9 28.1zM246 157.7v-3c0-11 0-10.9-11-10.4-3.3.1-4.3 1.6-4.3 4.7.1 5.5.1 11 0 16.5-.1 3.7 1.5 4.9 5.1 4.9 10.3.1 10.3.2 10.3-10.2-.1-.8-.1-1.6-.1-2.5z" id="path14" fill="none" stroke="#ffdaa6" stroke-width="3" stroke-miterlimit="10"/><path class="st78" d="M415.1 129.5h16v76c0 9.2-4.7 13.9-13.8 13.9h-20c-5.8 0-11.3-5.4-11.3-11.3 0-22.2 0-44.3-.1-66.5 0-3.9-.6-7.9-1-12.1h15.7c0 23.6-.1 47.2.2 70.7 0 1.4 2.4 3.8 3.7 3.9 12.9.3 11.4 1.4 11.4-10.3 0-17 .1-34 0-51 .1-4.1-.4-8.4-.8-13.3z" id="path16" fill="none" stroke="#ffdaa6" stroke-width="3" stroke-miterlimit="10"/><path class="st78" d="M175.7 219.2h-15.5v-89.9c11.9 0 24.4-.1 36.9.1 3.3 0 9 6.7 9 10 .1 11.8.1 23.6 0 35.5 0 4.4-6.3 10.4-10.8 10.5-5 .1-10 .1-15 0-3.1-.1-4.6 1.1-4.6 4.3.1 9.7 0 19.5 0 29.5zm15.1-61.4c-.3-15 2.4-13.2-11-13.4-3.1 0-4.1 1.5-4.1 4.3v17.5c0 2.9 1.4 4 4.3 4.2 10.8.6 10.8.7 10.8-10.1v-2.5z" id="path18" fill="none" stroke="#ffdaa6" stroke-width="3" stroke-miterlimit="10"/><path class="st78" d="M545.2 157.2h-16.4c.5-3.2 1.3-6.3 1.2-9.3-.1-1.3-2.2-2.5-3.4-3.8-.2-.2-.6 0-1 0-10.7-.5-10.7-.5-10.7 10.2v43.5c0 6.3.2 6.5 6.4 6.5 9.9 0 10.4-.9 7.2-12.9h17.3c-.2 4.6-.6 9-.7 13.4-.1 10.2-4.4 14.5-14.7 14.5h-18.5c-6.6 0-12-5.4-12-12.1v-66.4c0-6.2 5.4-11.5 11.5-11.5h22.5c5.4 0 11.1 5.6 11.1 11 .2 5.4.2 10.8.2 16.9z" id="path20" fill="none" stroke="#ffdaa6" stroke-width="3" stroke-miterlimit="10"/><path class="st78" d="M488.2 157.2h-16.3c.5-3.2 1.3-6.3 1.2-9.3-.1-1.3-2.1-3.4-3.4-3.6-11-1.6-11.6-.9-11.6 10 0 14.8.1 29.6-.1 44.5 0 4 1.3 5.6 5.5 5.6 10.9-.1 11.4-.7 8.2-13H489c-.2 4.6-.6 9.1-.7 13.5-.1 10.2-4.4 14.5-14.7 14.5h-19c-5.9 0-11.5-5.7-11.5-11.7v-66.9c0-6.2 5.4-11.5 11.6-11.5h23c4.7 0 10.5 5.8 10.6 10.5 0 5.6-.1 11.2-.1 17.4z" id="path22" fill="none" stroke="#ffdaa6" stroke-width="3" stroke-miterlimit="10"/><path class="st78" d="M122.2 129.5c.9 5.4 1.7 10.4 2.3 14.6-8.9 0-17.3.1-25.7-.1-4-.1-5.4 1.5-5.2 5.3.2 3.7.3 7.3 0 11-.3 4.7 1.6 6.5 6.1 5.9 2.8-.4 5.5-.8 8.7-1.3v17.3c-3.5-.3-6.7-.6-10-.9-3.3-.3-5 1-4.9 4.5.1 4.7.1 9.3 0 14 0 3.1 1.4 4.5 4.6 4.5 8.6-.1 17.2 0 26.2 0-.6 4.1-1.4 9.3-2.3 14.8H78v-89.6h44.2z" id="path24" fill="none" stroke="#ffdaa6" stroke-width="3" stroke-miterlimit="10"/><path class="st78" d="M557.3 129.5h16.2v89.7h-16.2v-89.7z" id="path26" fill="none" stroke="#ffdaa6" stroke-width="3" stroke-miterlimit="10"/><path class="st78" d="M596.8 116.5c6.1-7.8 6-19.9 17.6-24.4 2.5 2.9 5 5.7 7.8 8.8-6.6 5.8-12.8 11.5-19.3 16.9-1.2.9-3.6.4-5.4.5-.3-.6-.5-1.2-.7-1.8z" id="path28" fill="none" stroke="#ffdaa6" stroke-width="3" stroke-miterlimit="10"/><path class="st78" d="M476.6 61.2V27.7c0-5.9 5.4-11.4 11.1-11.4h23c5.3 0 11 5.7 11 11.1v67.5c0 5.9-5.7 11.5-11.7 11.5h-20c-8.8 0-13.5-4.7-13.5-13.7.1-10.5.1-21 .1-31.5zm29.8.5c0-8.5-.1-17 0-25.4.1-3.6-1.3-5.3-5-4.9-1.3.1-2.7.2-4 0-4.6-.6-6.1 1.3-6.1 5.9.2 14.8.1 29.6.1 44.4 0 9.9 0 9.7 9.7 9.8 3.9 0 5.4-1.3 5.3-5.2-.1-8.3 0-16.4 0-24.6z" id="path32" fill="none" stroke="#ffdaa6" stroke-width="3" stroke-miterlimit="10"/><path class="st78" d="M294 106.1h-17.1c.9-11.1-3.6-21-5.7-31.3-.2-1.1-3.1-2.5-4.5-2.3-1.3.2-3.3 2.4-3.3 3.7-.3 9.9-.2 19.8-.2 29.9h-15.5V16.5c.7-.1 2.1-.3 3.5-.3h28c10.1 0 14.4 4.3 14.4 14.3 0 9-.2 18 .1 27 .2 4.8-.7 8.8-4.8 11.7-2.5 1.7-2.9 3.9-2.1 6.9 2.6 9.9 4.8 20 7.2 30zm-15.5-61.5v-3c0-11 0-10.9-11.1-10.3-3 .2-4.2 1.4-4.2 4.3v17.5c0 2.9 1.2 4.1 4.2 4.3 11.1.7 11.1.8 11.1-10.3v-2.5z" id="path34" fill="none" stroke="#ffdaa6" stroke-width="3" stroke-miterlimit="10"/><path class="st78" d="M182.8 44.3H166c.3-3.2.7-6.1.9-9.1.2-2.8-1.2-3.9-3.9-3.9-13.1 0-11.1-1-11.1 10.2.1 13.8-2.2 12 12.1 12.2 5.7.1 11.9-1.3 15.5 5.1 1 1.8 2.3 3.7 2.3 5.6.2 10.5.1 21 .1 31.5 0 4.6-6 10.4-10.6 10.4h-23.5c-5.2 0-11-5.9-11.1-11.1V78.4h16.2c-.4 3-1.1 6.1-.9 9.1.1 1.3 2.2 2.5 3.4 3.7.1.1.3 0 .5 0 12.9 0 11 1 10.9-10.4 0-13.6 2.1-11.8-12.3-12.2-4-.1-8.4-.2-11.8-1.9-4.9-2.4-6.6-7.1-6.2-12.9.6-8.8.1-17.6.2-26.5 0-5.6 5.7-11.2 11.4-11.2h23c5.1 0 10.7 5.6 10.8 10.7.3 5.9.6 11.6.9 17.5z" id="path36" fill="none" stroke="#ffdaa6" stroke-width="3" stroke-miterlimit="10"/><path class="st78" d="M549.2 78.4c0 .8 0 1.2-.1 1.5-2.8 10.9-2.1 11.7 9.1 11.5 3.3-.1 5-1 4.8-4.6-.2-4.5-.2-9 0-13.5.1-3.3-1.4-4.5-4.5-4.5-3.8.1-7.7 0-11.5 0-9.5 0-14.2-4.6-14.2-14.1v-28c0-4.6 5.9-10.5 10.5-10.6 6.8-.1 13.7 0 20.5 0 10 0 14.1 4.2 14.2 14.4.1 4.4.6 8.9.9 13.6H562c.3-3.2 1-6.2.8-9.1-.1-1.3-2.2-2.5-3.4-3.7-.1-.1-.3 0-.5 0-12.9 0-11-1.1-10.9 10.3.1 13.7-2.1 11.8 12.3 12.1 4.3.1 8.8-1.6 12.8 2.1 3.7 3.4 5.4 7 5.1 12.1-.4 9.1-.1 18.3-.1 27.5 0 5-5.8 10.8-10.8 10.8-7.7 0-15.3.2-23-.1-2.2-.1-4.5-1.4-6.5-2.6-4.2-2.6-5.4-6.6-5.1-11.5.3-4.4-.4-8.9-.6-13.7 5.3.1 11.1.1 17.1.1z" id="path38" fill="none" stroke="#ffdaa6" stroke-width="3" stroke-miterlimit="10"/><path class="st78" d="M436.7 44.1h-16.3c.5-3.1 1-6.1 1.3-9.1.3-2.7-1.1-4-3.9-4-13.2 0-11.3-1-11.3 10.5-.1 14.7.1 29.3-.1 44-.1 4.4 1.5 5.8 5.8 5.8 10.3-.1 11.1-1.1 8.2-11.3-.1-.5-.1-1-.2-1.8h16.5c0 6.2.1 12.1 0 17.9-.1 4.2-6.2 10.1-10.4 10.2-8.2.1-16.3.1-24.5 0-3.9 0-10.1-6-10.1-10-.1-23.5-.1-47 0-70.4 0-4.1 6.1-9.6 10.3-9.7 8.2-.1 16.3-.1 24.5 0 4.3 0 10.2 6 10.2 10.3v17.6z" id="path40" fill="none" stroke="#ffdaa6" stroke-width="3" stroke-miterlimit="10"/><path class="st78" d="M339.5 16.4h16c-7.2 29.7-13.6 59.4-18.5 89.8h-17c-2.1-11.2-4.1-22-6.3-32.7-3.1-15-6.3-29.9-9.6-44.8-.9-4-2.3-7.9-3.6-12.1h16.6c3.6 19.2 7.2 38.1 10.8 57.1.3 0 .7 0 1-.1 3.4-18.9 7-37.7 10.6-57.2z" id="path42" fill="none" stroke="#ffdaa6" stroke-width="3" stroke-miterlimit="10"/><path class="st78" d="M240 91.2c-.7 4.2-1.5 9.3-2.3 14.7h-43.9V16.4h43.8c.8 5 1.7 10.2 2.4 14.6-9 0-17.5.1-26.1 0-3.4-.1-4.9 1.3-4.8 4.7.1 4 .2 8 0 12-.2 4.1 1.3 6 5.5 5.5 3.1-.4 6.1-.8 9.5-1.3v17.2c-3.8-.3-7.4-1-11-.7-1.4.1-3.7 2.3-3.8 3.7-.5 5-.5 10 0 15 .1 1.5 2.4 3.8 3.7 3.9 8.9.4 17.7.2 27 .2z" id="path44" fill="none" stroke="#ffdaa6" stroke-width="3" stroke-miterlimit="10"/><path class="st78" d="M363.8 16.5H380v89.7h-16.2V16.5z" id="path46" fill="none" stroke="#ffdaa6" stroke-width="3" stroke-miterlimit="10"/><path class="st78" d="M465 106.2h-16.2V16.5H465v89.7z" id="path48" fill="none" stroke="#ffdaa6" stroke-width="3" stroke-miterlimit="10"/></g></g></g></g></g></g></svg>