<?xml version="1.0" encoding="utf-8"?>
<!-- Generator: Adobe Illustrator 18.1.1, SVG Export Plug-In . SVG Version: 6.00 Build 0)  -->
<svg version="1.1" id="Capa_1" xmlns="http://www.w3.org/2000/svg" xmlns:xlink="http://www.w3.org/1999/xlink" x="0px" y="0px"
	 viewBox="0 0 224.1 123" enable-background="new 0 0 224.1 123" xml:space="preserve">
<g>
	<defs>
		<rect id="SVGID_3_" x="-371" y="225.3" width="1278.5" height="799.2"/>
	</defs>
	<clipPath id="SVGID_2_">
		<use xlink:href="#SVGID_3_"  overflow="visible"/>
	</clipPath>
	<g clip-path="url(#SVGID_2_)">
		<g>
			<path fill="#FFFFFF" d="M129.4,122.1c0.2,0,0.2-0.2,0-0.2C129.2,121.9,129.2,122.1,129.4,122.1L129.4,122.1z"/>
		</g>
	</g>
</g>
<g>
	<g>
		<g>
			<g>
				<g>
					<polygon points="121.2,25.9 135.9,11.3 135.9,40.5 					"/>
				</g>
			</g>
			<g>
				<g>
					<polygon points="80.2,25.5 72.5,33.2 72.5,17.9 					"/>
				</g>
			</g>
			<g>
				<g>
					<polygon points="102.3,14.9 125.7,14.9 102.3,38.3 					"/>
				</g>
			</g>
			<g>
				<g>
					<polygon points="125.7,38.3 102.3,38.3 125.7,14.9 					"/>
				</g>
			</g>
			<g>
				<g>
					<polygon points="80.2,14.9 103.6,14.9 80.2,38.3 					"/>
				</g>
			</g>
			<g>
				<g>
					<polygon points="103.6,38.3 80.2,38.3 103.6,14.9 					"/>
				</g>
			</g>
		</g>
		<g>
			<g>
				<g>
					<polygon points="89.1,103.2 87.1,101.2 103.6,84.7 120,101.2 118.1,103.2 103.6,88.7 					"/>
				</g>
			</g>
		</g>
		<g>
			<rect x="102.2" y="21.1" width="2.8" height="65.6"/>
		</g>
	</g>
	<g>
		<g>
			<g>
				<polygon points="181.9,88.6 194.3,101 169.6,101 				"/>
			</g>
		</g>
		<g>
			<rect x="148.8" y="52.6" width="66.3" height="36.3"/>
		</g>
	</g>
	<g>
		<g>
			<g>
				<polygon points="58.3,91 8.3,91 8.3,63.6 53.3,63.6 58.3,68.6 				"/>
			</g>
		</g>
		<g>
			<polygon points="57.5,54.3 8,64.5 6.7,58.1 56.2,47.7 			"/>
		</g>
	</g>
</g>
</svg>
