<?xml version="1.0" encoding="utf-8"?>
<!-- Generator: Adobe Illustrator 18.0.0, SVG Export Plug-In . SVG Version: 6.00 Build 0)  -->
<!DOCTYPE svg PUBLIC "-//W3C//DTD SVG 1.1//EN" "http://www.w3.org/Graphics/SVG/1.1/DTD/svg11.dtd">
<svg version="1.1" id="Capa_1" xmlns="http://www.w3.org/2000/svg" xmlns:xlink="http://www.w3.org/1999/xlink" x="0px" y="0px"
	 viewBox="0 0 612 792" enable-background="new 0 0 612 792" xml:space="preserve">
<g>
	<g>
		<g>
			<polygon fill="#FFFFFF" points="261.3,293.9 327.4,228 327.4,360 			"/>
		</g>
	</g>
	<g>
		<g>
			<polyline fill="none" stroke="#FFFFFF" stroke-miterlimit="10" points="222.3,514 264.4,472.2 306.1,514 			"/>
		</g>
	</g>
	<line fill="none" stroke="#FFFFFF" stroke-miterlimit="10" x1="264.4" y1="293.9" x2="264.4" y2="472.2"/>
</g>
<g>
	<g>
		<g>
			<polygon fill="#FFFFFF" points="156.5,307 196.4,267.4 196.4,346.8 			"/>
		</g>
		<g>
			<polygon fill="#FFFFFF" points="45.1,306.2 24.6,326.6 24.6,285.4 			"/>
		</g>
		<g>
			<polygon fill="#FFFFFF" points="105.1,277.2 168.8,277.2 105.1,340.8 			"/>
		</g>
		<g>
			<polygon fill="#FFFFFF" points="168.8,340.8 105.1,340.8 168.8,277.2 			"/>
		</g>
		<g>
			<polygon fill="#FFFFFF" points="45.1,277.2 108.7,277.2 45.1,340.8 			"/>
		</g>
		<g>
			<polygon fill="#FFFFFF" points="108.7,340.8 45.1,340.8 108.7,277.2 			"/>
		</g>
	</g>
	<g>
		<g>
			<polyline fill="none" stroke="#FFFFFF" stroke-miterlimit="10" points="66.9,514 108.7,472.2 150.7,514 			"/>
		</g>
	</g>
	<line fill="none" stroke="#FFFFFF" stroke-miterlimit="10" x1="108.7" y1="293.9" x2="108.7" y2="472.2"/>
</g>
<g>
	<g>
		<g>
			<polygon fill="#FFFDFD" points="469.2,470.3 504.1,505.2 434.2,505.2 			"/>
		</g>
		<rect x="375.2" y="368.1" fill="#FFFDFD" width="187.9" height="103"/>
	</g>
</g>
</svg>
