<?xml version="1.0" encoding="UTF-8" standalone="no"?>
<!-- Generator: Adobe Illustrator 22.0.1, SVG Export Plug-In . SVG Version: 6.00 Build 0)  -->

<svg
   xmlns:dc="http://purl.org/dc/elements/1.1/"
   xmlns:cc="http://creativecommons.org/ns#"
   xmlns:rdf="http://www.w3.org/1999/02/22-rdf-syntax-ns#"
   xmlns:svg="http://www.w3.org/2000/svg"
   xmlns="http://www.w3.org/2000/svg"
   xmlns:sodipodi="http://sodipodi.sourceforge.net/DTD/sodipodi-0.dtd"
   xmlns:inkscape="http://www.inkscape.org/namespaces/inkscape"
   version="1.1"
   id="Capa_1"
   x="0px"
   y="0px"
   viewBox="0 0 718.8 237.3"
   style="enable-background:new 0 0 718.8 237.3;"
   xml:space="preserve"
   sodipodi:docname="Sevicios-Inicio5-39.svg"
   inkscape:version="0.92.4 (5da689c313, 2019-01-14)"><metadata
   id="metadata63"><rdf:RDF><cc:Work
       rdf:about=""><dc:format>image/svg+xml</dc:format><dc:type
         rdf:resource="http://purl.org/dc/dcmitype/StillImage" /><dc:title></dc:title></cc:Work></rdf:RDF></metadata><defs
   id="defs61">
	
	

		
	
			
			
		
				
				
				
				
				
				
				
				
				
			
				
				
				
				
				
				
				
				
				
				
				
				
				
			</defs><sodipodi:namedview
   pagecolor="#ffffff"
   bordercolor="#666666"
   borderopacity="1"
   objecttolerance="10"
   gridtolerance="10"
   guidetolerance="10"
   inkscape:pageopacity="0"
   inkscape:pageshadow="2"
   inkscape:window-width="1920"
   inkscape:window-height="1027"
   id="namedview59"
   showgrid="false"
   inkscape:zoom="0.9710629"
   inkscape:cx="380.6136"
   inkscape:cy="87.367422"
   inkscape:window-x="-8"
   inkscape:window-y="892"
   inkscape:window-maximized="1"
   inkscape:current-layer="Capa_1" />
<style
   type="text/css"
   id="style2">
	.st0{opacity:0.9;}
	.st1{fill:none;stroke:#FFFFFF;stroke-width:0.5;stroke-miterlimit:10;}
	.st2{fill-rule:evenodd;clip-rule:evenodd;}
	.st3{fill-rule:evenodd;clip-rule:evenodd;fill:#FFFFFF;}
	.st4{fill:#FFD6A2;}
	.st5{opacity:0.9;clip-path:url(#SVGID_2_);}
	.st6{opacity:0.6;fill:#FFD6A2;}
	.st7{fill:#717175;}
	.st8{fill:#FFFFFF;}
	.st9{fill:none;stroke:#000000;stroke-width:3;stroke-miterlimit:10;}
	.st10{fill:#211915;}
	.st11{opacity:0.6;fill:#FFFF01;}
	.st12{opacity:0.6;fill:#16C0A8;stroke:#16C0A8;stroke-miterlimit:10;}
	.st13{opacity:0.6;fill:#CA482C;}
	.st14{opacity:0.6;fill:#57167D;}
	.st15{opacity:0.6;fill:#C58000;}
	.st16{opacity:0.6;fill:#004DFF;}
	.st17{opacity:0.6;fill:#00BBFF;}
	.st18{opacity:0.6;fill:#FF8ED1;}
	.st19{opacity:0.6;fill:#0FD300;}
	.st20{fill:none;stroke:#808022;stroke-width:0.25;stroke-miterlimit:10;}
	.st21{fill:#FF8ED1;}
	.st22{fill:#232322;}
	.st23{fill-rule:evenodd;clip-rule:evenodd;fill:#232322;}
	.st24{clip-path:url(#SVGID_56_);}
	.st25{fill:#FF8ED1;stroke:#FF8ED1;stroke-width:5;stroke-linejoin:round;stroke-miterlimit:10;}
	.st26{fill:#4F514D;}
	.st27{fill:#95969D;}
	.st28{opacity:0.8;fill:#FFFFFF;}
	.st29{fill:#434142;}
	.st30{opacity:0.6;fill:#717175;stroke:#717175;stroke-miterlimit:10;}
	.st31{clip-path:url(#SVGID_58_);}
	.st32{fill:#16C0A8;}
	.st33{fill:#CA482C;}
	.st34{opacity:0.38;clip-path:url(#SVGID_60_);}
	.st35{fill:#A44732;}
	.st36{opacity:0.41;clip-path:url(#SVGID_60_);}
	.st37{fill-rule:evenodd;clip-rule:evenodd;fill:none;stroke:#FFFFFF;stroke-width:2;stroke-miterlimit:10;}
	.st38{fill:#CA482C;stroke:#FFFF01;stroke-width:3;stroke-miterlimit:10;}
	.st39{fill:#FFFF01;}
	.st40{fill:#0FD300;}
	.st41{clip-path:url(#SVGID_112_);}
	.st42{clip-path:url(#SVGID_114_);}
	.st43{clip-path:url(#SVGID_116_);}
	.st44{clip-path:url(#SVGID_118_);}
	.st45{fill:#A763A1;}
	.st46{clip-path:url(#SVGID_120_);}
	.st47{fill:none;stroke:#211915;stroke-width:3;stroke-miterlimit:10;}
	.st48{fill:#873C86;}
	.st49{fill:#00BBFF;}
	.st50{opacity:0.84;}
	.st51{fill:none;stroke:#FFD6A2;stroke-width:3;stroke-miterlimit:10;}
	.st52{opacity:0.51;}
	.st53{clip-path:url(#SVGID_122_);}
	.st54{fill:#00FFFF;}
	.st55{clip-path:url(#SVGID_124_);}
	.st56{fill:#00FFFF;stroke:#00FFFF;stroke-width:5;stroke-linecap:round;stroke-linejoin:round;stroke-miterlimit:10;}
	.st57{fill:#1F8080;}
	.st58{fill:#1F93C7;}
	.st59{fill:#00FF00;}
	.st60{clip-path:url(#SVGID_126_);}
	.st61{fill:#00FF00;stroke:#00FF00;stroke-width:5;stroke-linecap:round;stroke-linejoin:round;stroke-miterlimit:10;}
	.st62{fill:#008100;}
	.st63{fill:#006700;}
	.st64{fill:#FF9942;}
	.st65{fill:#FF7800;}
	.st66{fill:#FFC481;}
	.st67{fill:none;stroke:#FFD6A2;stroke-width:2;stroke-miterlimit:10;}
	.st68{opacity:0.87;}
	.st69{clip-path:url(#SVGID_128_);}
	.st70{clip-path:url(#SVGID_132_);}
	.st71{fill:none;stroke:#434142;stroke-miterlimit:10;}
	.st72{fill:#AFA489;}
	.st73{clip-path:url(#SVGID_134_);}
	.st74{clip-path:url(#SVGID_136_);}
	.st75{fill:#FF92D5;}
	.st76{clip-path:url(#SVGID_140_);}
	.st77{fill:#FF92D5;stroke:#FF92D5;stroke-width:5;stroke-linejoin:round;stroke-miterlimit:10;}
	.st78{fill:none;stroke:#FFDAA6;stroke-width:3;stroke-miterlimit:10;}
	.st79{fill:#FFDAA6;}
	.st80{clip-path:url(#SVGID_142_);}
	.st81{clip-path:url(#SVGID_144_);}
</style>
<g
   id="g1124"><g
     id="g1095"><g
       id="g1067"><g
         id="g1040"><g
           id="g1014"><g
             id="g989"><path
               class="st78"
               d="m 678,129.5 c 5.5,0 11.3,0 16.4,0 0,29.9 0,59.6 0,89.9 -4.2,0 -9.1,0.2 -14,-0.2 -1.2,-0.1 -2.6,-2.2 -3.2,-3.6 -6,-14.6 -11.8,-29.3 -17.7,-44 -0.6,-1.5 -1.3,-3 -2.1,-4.9 0,17.9 0,35.1 0,52.5 -5.2,0 -11,0 -16.2,0 0,-29.9 0,-59.6 0,-89.9 4.1,0 8.9,-0.2 13.6,0.2 1.2,0.1 2.8,2.1 3.3,3.5 5.9,14.5 11.6,29 17.3,43.6 0.6,1.6 1.4,3.2 2.4,5.4 0.2,-17.9 0.2,-34.9 0.2,-52.5 z"
               id="path4"
               inkscape:connector-curvature="0"
               style="fill:none;stroke:#ffdaa6;stroke-width:3;stroke-miterlimit:10" /><path
               class="st78"
               d="m 328.1,129.3 c 12.1,0 24.4,-0.1 36.7,0.1 3.6,0 9.3,6.5 9.4,10.2 0,23.2 0,46.3 0,69.5 0,3.6 -5.9,10.3 -9.3,10.3 -12.3,0.1 -24.6,0.1 -36.7,0.1 -0.1,-30.1 -0.1,-59.8 -0.1,-90.2 z m 30.7,44.9 c 0,-8.3 -0.1,-16.7 0.1,-25 0.1,-4 -1.4,-5.5 -5.3,-5.1 -1.2,0.1 -2.3,0 -3.5,0 -6.2,0 -6.4,0.2 -6.4,6.5 0,15.6 0,31.3 0,46.9 0,6.6 0.1,6.7 6.8,6.7 0.7,0 1.3,-0.1 2,0 4.7,0.6 6.6,-1.2 6.4,-6.1 -0.3,-7.9 -0.1,-15.9 -0.1,-23.9 z"
               id="path6"
               inkscape:connector-curvature="0"
               style="fill:none;stroke:#ffdaa6;stroke-width:3;stroke-miterlimit:10" /><path
               class="st78"
               d="m 21.1,219.4 c 0,-30.1 0,-59.7 0,-89.9 1,-0.1 2.5,-0.2 4.1,-0.2 9.7,0 19.3,0 29,0 8.2,0 13,4.9 13,13.2 0,21.5 0,43 0,64.5 0,7.1 -5.3,12.5 -12.2,12.5 -11.4,-0.1 -22.7,-0.1 -33.9,-0.1 z m 30.7,-45.5 c 0,-7.7 0,-15.3 0,-23 0,-6.8 0,-6.8 -6.5,-6.8 -0.7,0 -1.3,0 -2,0 -6.4,0 -6.5,0.2 -6.5,6.3 0,14.7 0,29.3 0,44 0,10.2 0,10 10.1,9.9 3.6,0 5.1,-1.3 5,-5 -0.2,-8.4 -0.1,-16.9 -0.1,-25.4 z"
               id="path8"
               inkscape:connector-curvature="0"
               style="fill:none;stroke:#ffdaa6;stroke-width:3;stroke-miterlimit:10" /><path
               class="st78"
               d="m 272.1,174.2 c 0,-11.2 0,-22.3 0,-33.5 0,-5.9 5.4,-11.4 11.1,-11.4 7.7,0 15.3,0 23,0 5.3,0 11,5.7 11,11.1 0,22.5 0,45 0,67.5 0,5.9 -5.7,11.5 -11.7,11.5 -6.7,0 -13.3,0 -20,0 -8.8,0 -13.5,-4.7 -13.5,-13.7 0.1,-10.5 0.1,-21 0.1,-31.5 z m 29.8,0.4 c 0,-8.3 -0.1,-16.6 0,-24.9 0.1,-3.8 -1.1,-5.7 -5.2,-5.3 -1,0.1 -2,0 -3,0 -6.8,0 -6.8,0 -6.8,7 0,14.5 0,28.9 0,43.4 0,9.8 0,9.6 9.8,9.6 4.1,0 5.2,-1.7 5.1,-5.4 0,-8.1 0.1,-16.3 0.1,-24.4 z"
               id="path10"
               inkscape:connector-curvature="0"
               style="fill:none;stroke:#ffdaa6;stroke-width:3;stroke-miterlimit:10" /><path
               class="st78"
               d="m 630.2,174.5 c 0,11.2 0,22.3 0,33.5 0,5.7 -5.7,11.4 -11.2,11.4 -6.7,0 -13.3,0 -20,0 -9.3,0 -13.9,-4.6 -13.9,-13.8 0,-21.7 0,-43.3 0,-65 0,-5.9 5.4,-11.3 11.2,-11.3 7.3,0 14.7,0 22,0 6.4,0 11.9,5.4 11.9,11.7 0,11.2 0,22.3 0,33.5 z M 614.9,174 c 0,-8 -0.2,-16 0.1,-23.9 0.1,-4.3 -1.4,-6.2 -5.8,-5.7 -1.1,0.1 -2.3,0.1 -3.5,0 -4.4,-0.6 -5.8,1.3 -5.8,5.7 0.2,15 0.1,29.9 0.1,44.9 0,9.7 0,9.5 9.9,9.5 3.7,0 5.1,-1.4 5,-5 -0.1,-8.5 0,-17 0,-25.5 z"
               id="path12"
               inkscape:connector-curvature="0"
               style="fill:none;stroke:#ffdaa6;stroke-width:3;stroke-miterlimit:10" /><path
               class="st78"
               d="m 261.6,219.2 c -5.7,0 -11.5,0 -17.2,0 1,-11.1 -3.6,-21 -5.7,-31.3 -0.2,-1.1 -3.1,-2.5 -4.5,-2.3 -1.3,0.2 -3.3,2.3 -3.3,3.7 -0.3,9.9 -0.2,19.8 -0.2,30 -4.4,0 -10.2,0 -15.5,0 0,-29.8 0,-59.4 0,-89.9 3.6,0 7.8,0 12,0 6.7,0 13.3,0 20,0 9.4,0 13.9,4.5 13.9,13.7 0,9.8 -0.2,19.7 0.1,29.5 0.1,3.7 -0.7,6.6 -3.7,8.6 -3.8,2.6 -4,5.8 -2.8,9.9 2.5,9.2 4.6,18.6 6.9,28.1 z M 246,157.7 c 0,-1 0,-2 0,-3 0,-11 0,-10.9 -11,-10.4 -3.3,0.1 -4.3,1.6 -4.3,4.7 0.1,5.5 0.1,11 0,16.5 -0.1,3.7 1.5,4.9 5.1,4.9 10.3,0.1 10.3,0.2 10.3,-10.2 -0.1,-0.8 -0.1,-1.6 -0.1,-2.5 z"
               id="path14"
               inkscape:connector-curvature="0"
               style="fill:none;stroke:#ffdaa6;stroke-width:3;stroke-miterlimit:10" /><path
               class="st78"
               d="m 415.1,129.5 c 5.5,0 11.3,0 16,0 0,19.6 0,39.1 0,58.5 0,5.8 0,11.7 0,17.5 0,9.2 -4.7,13.9 -13.8,13.9 -6.7,0 -13.3,0 -20,0 -5.8,0 -11.3,-5.4 -11.3,-11.3 0,-22.2 0,-44.3 -0.1,-66.5 0,-3.9 -0.6,-7.9 -1,-12.1 5.5,0 11.2,0 15.7,0 0,23.6 -0.1,47.2 0.2,70.7 0,1.4 2.4,3.8 3.7,3.9 12.9,0.3 11.4,1.4 11.4,-10.3 0,-17 0.1,-34 0,-51 0.1,-4.1 -0.4,-8.4 -0.8,-13.3 z"
               id="path16"
               inkscape:connector-curvature="0"
               style="fill:none;stroke:#ffdaa6;stroke-width:3;stroke-miterlimit:10" /><path
               class="st78"
               d="m 175.7,219.2 c -4.4,0 -10.1,0 -15.5,0 0,-29.9 0,-59.7 0,-89.9 11.9,0 24.4,-0.1 36.9,0.1 3.3,0 9,6.7 9,10 0.1,11.8 0.1,23.6 0,35.5 0,4.4 -6.3,10.4 -10.8,10.5 -5,0.1 -10,0.1 -15,0 -3.1,-0.1 -4.6,1.1 -4.6,4.3 0.1,9.7 0,19.5 0,29.5 z m 15.1,-61.4 c -0.3,-15 2.4,-13.2 -11,-13.4 -3.1,0 -4.1,1.5 -4.1,4.3 0,5.8 0,11.7 0,17.5 0,2.9 1.4,4 4.3,4.2 10.8,0.6 10.8,0.7 10.8,-10.1 0,-0.9 0,-1.7 0,-2.5 z"
               id="path18"
               inkscape:connector-curvature="0"
               style="fill:none;stroke:#ffdaa6;stroke-width:3;stroke-miterlimit:10" /><path
               class="st78"
               d="m 545.2,157.2 c -4.8,0 -10.6,0 -16.4,0 0.5,-3.2 1.3,-6.3 1.2,-9.3 -0.1,-1.3 -2.2,-2.5 -3.4,-3.8 -0.2,-0.2 -0.6,0 -1,0 -10.7,-0.5 -10.7,-0.5 -10.7,10.2 0,14.5 0,29 0,43.5 0,6.3 0.2,6.5 6.4,6.5 9.9,0 10.4,-0.9 7.2,-12.9 5.9,0 11.7,0 17.3,0 -0.2,4.6 -0.6,9 -0.7,13.4 -0.1,10.2 -4.4,14.5 -14.7,14.5 -6.2,0 -12.3,0 -18.5,0 -6.6,0 -12,-5.4 -12,-12.1 0,-22.1 0,-44.3 0,-66.4 0,-6.2 5.4,-11.5 11.5,-11.5 7.5,0 15,0 22.5,0 5.4,0 11.1,5.6 11.1,11 0.2,5.4 0.2,10.8 0.2,16.9 z"
               id="path20"
               inkscape:connector-curvature="0"
               style="fill:none;stroke:#ffdaa6;stroke-width:3;stroke-miterlimit:10" /><path
               class="st78"
               d="m 488.2,157.2 c -4.8,0 -10.6,0 -16.3,0 0.5,-3.2 1.3,-6.3 1.2,-9.3 -0.1,-1.3 -2.1,-3.4 -3.4,-3.6 -11,-1.6 -11.6,-0.9 -11.6,10 0,14.8 0.1,29.6 -0.1,44.5 0,4 1.3,5.6 5.5,5.6 10.9,-0.1 11.4,-0.7 8.2,-13 5.9,0 11.7,0 17.3,0 -0.2,4.6 -0.6,9.1 -0.7,13.5 -0.1,10.2 -4.4,14.5 -14.7,14.5 -6.3,0 -12.7,0 -19,0 -5.9,0 -11.5,-5.7 -11.5,-11.7 0,-22.3 0,-44.6 0,-66.9 0,-6.2 5.4,-11.5 11.6,-11.5 7.7,0 15.3,0 23,0 4.7,0 10.5,5.8 10.6,10.5 0,5.6 -0.1,11.2 -0.1,17.4 z"
               id="path22"
               inkscape:connector-curvature="0"
               style="fill:none;stroke:#ffdaa6;stroke-width:3;stroke-miterlimit:10" /><path
               class="st78"
               d="m 122.2,129.5 c 0.9,5.4 1.7,10.4 2.3,14.6 -8.9,0 -17.3,0.1 -25.7,-0.1 -4,-0.1 -5.4,1.5 -5.2,5.3 0.2,3.7 0.3,7.3 0,11 -0.3,4.7 1.6,6.5 6.1,5.9 2.8,-0.4 5.5,-0.8 8.7,-1.3 0,5.7 0,11.5 0,17.3 -3.5,-0.3 -6.7,-0.6 -10,-0.9 -3.3,-0.3 -5,1 -4.9,4.5 0.1,4.7 0.1,9.3 0,14 0,3.1 1.4,4.5 4.6,4.5 8.6,-0.1 17.2,0 26.2,0 -0.6,4.1 -1.4,9.3 -2.3,14.8 -14.8,0 -29.6,0 -44,0 0,-29.8 0,-59.6 0,-89.6 14.4,0 29,0 44.2,0 z"
               id="path24"
               inkscape:connector-curvature="0"
               style="fill:none;stroke:#ffdaa6;stroke-width:3;stroke-miterlimit:10" /><path
               class="st78"
               d="m 557.3,129.5 c 5.2,0 11,0 16.2,0 0,29.9 0,59.7 0,89.7 -5.1,0 -10.9,0 -16.2,0 0,-29.9 0,-59.7 0,-89.7 z"
               id="path26"
               inkscape:connector-curvature="0"
               style="fill:none;stroke:#ffdaa6;stroke-width:3;stroke-miterlimit:10" /><path
               class="st78"
               d="m 596.8,116.5 c 6.1,-7.8 6,-19.9 17.6,-24.4 2.5,2.9 5,5.7 7.8,8.8 -6.6,5.8 -12.8,11.5 -19.3,16.9 -1.2,0.9 -3.6,0.4 -5.4,0.5 -0.3,-0.6 -0.5,-1.2 -0.7,-1.8 z"
               id="path28"
               inkscape:connector-curvature="0"
               style="fill:none;stroke:#ffdaa6;stroke-width:3;stroke-miterlimit:10" /><path
               class="st78"
               d="m 476.6,61.2 c 0,-11.2 0,-22.3 0,-33.5 0,-5.9 5.4,-11.4 11.1,-11.4 7.7,0 15.3,0 23,0 5.3,0 11,5.7 11,11.1 0,22.5 0,45 0,67.5 0,5.9 -5.7,11.5 -11.7,11.5 -6.7,0 -13.3,0 -20,0 -8.8,0 -13.5,-4.7 -13.5,-13.7 0.1,-10.5 0.1,-21 0.1,-31.5 z m 29.8,0.5 c 0,-8.5 -0.1,-17 0,-25.4 0.1,-3.6 -1.3,-5.3 -5,-4.9 -1.3,0.1 -2.7,0.2 -4,0 -4.6,-0.6 -6.1,1.3 -6.1,5.9 0.2,14.8 0.1,29.6 0.1,44.4 0,9.9 0,9.7 9.7,9.8 3.9,0 5.4,-1.3 5.3,-5.2 -0.1,-8.3 0,-16.4 0,-24.6 z"
               id="path32"
               inkscape:connector-curvature="0"
               style="fill:none;stroke:#ffdaa6;stroke-width:3;stroke-miterlimit:10" /><path
               class="st78"
               d="m 294,106.1 c -5.7,0 -11.5,0 -17.1,0 0.9,-11.1 -3.6,-21 -5.7,-31.3 -0.2,-1.1 -3.1,-2.5 -4.5,-2.3 -1.3,0.2 -3.3,2.4 -3.3,3.7 -0.3,9.9 -0.2,19.8 -0.2,29.9 -4.4,0 -10.2,0 -15.5,0 0,-29.8 0,-59.5 0,-89.6 0.7,-0.1 2.1,-0.3 3.5,-0.3 9.3,0 18.7,0 28,0 10.1,0 14.4,4.3 14.4,14.3 0,9 -0.2,18 0.1,27 0.2,4.8 -0.7,8.8 -4.8,11.7 -2.5,1.7 -2.9,3.9 -2.1,6.9 2.6,9.9 4.8,20 7.2,30 z M 278.5,44.6 c 0,-1 0,-2 0,-3 0,-11 0,-10.9 -11.1,-10.3 -3,0.2 -4.2,1.4 -4.2,4.3 0,5.8 0,11.6 0,17.5 0,2.9 1.2,4.1 4.2,4.3 11.1,0.7 11.1,0.8 11.1,-10.3 0,-0.9 0,-1.7 0,-2.5 z"
               id="path34"
               inkscape:connector-curvature="0"
               style="fill:none;stroke:#ffdaa6;stroke-width:3;stroke-miterlimit:10" /><path
               class="st78"
               d="m 182.8,44.3 c -5.2,0 -10.9,0 -16.8,0 0.3,-3.2 0.7,-6.1 0.9,-9.1 0.2,-2.8 -1.2,-3.9 -3.9,-3.9 -13.1,0 -11.1,-1 -11.1,10.2 0.1,13.8 -2.2,12 12.1,12.2 5.7,0.1 11.9,-1.3 15.5,5.1 1,1.8 2.3,3.7 2.3,5.6 0.2,10.5 0.1,21 0.1,31.5 0,4.6 -6,10.4 -10.6,10.4 -7.8,0 -15.7,0 -23.5,0 -5.2,0 -11,-5.9 -11.1,-11.1 0,-5.4 0,-10.9 0,-16.8 4.6,0 10.3,0 16.2,0 -0.4,3 -1.1,6.1 -0.9,9.1 0.1,1.3 2.2,2.5 3.4,3.7 0.1,0.1 0.3,0 0.5,0 12.9,0 11,1 10.9,-10.4 0,-13.6 2.1,-11.8 -12.3,-12.2 -4,-0.1 -8.4,-0.2 -11.8,-1.9 -4.9,-2.4 -6.6,-7.1 -6.2,-12.9 0.6,-8.8 0.1,-17.6 0.2,-26.5 0,-5.6 5.7,-11.2 11.4,-11.2 7.7,0 15.3,0 23,0 5.1,0 10.7,5.6 10.8,10.7 0.3,5.9 0.6,11.6 0.9,17.5 z"
               id="path36"
               inkscape:connector-curvature="0"
               style="fill:none;stroke:#ffdaa6;stroke-width:3;stroke-miterlimit:10" /><path
               class="st78"
               d="m 549.2,78.4 c 0,0.8 0,1.2 -0.1,1.5 -2.8,10.9 -2.1,11.7 9.1,11.5 3.3,-0.1 5,-1 4.8,-4.6 -0.2,-4.5 -0.2,-9 0,-13.5 0.1,-3.3 -1.4,-4.5 -4.5,-4.5 -3.8,0.1 -7.7,0 -11.5,0 -9.5,0 -14.2,-4.6 -14.2,-14.1 0,-9.3 0,-18.7 0,-28 0,-4.6 5.9,-10.5 10.5,-10.6 6.8,-0.1 13.7,0 20.5,0 10,0 14.1,4.2 14.2,14.4 0.1,4.4 0.6,8.9 0.9,13.6 -5.3,0 -11.1,0 -16.9,0 0.3,-3.2 1,-6.2 0.8,-9.1 -0.1,-1.3 -2.2,-2.5 -3.4,-3.7 -0.1,-0.1 -0.3,0 -0.5,0 -12.9,0 -11,-1.1 -10.9,10.3 0.1,13.7 -2.1,11.8 12.3,12.1 4.3,0.1 8.8,-1.6 12.8,2.1 3.7,3.4 5.4,7 5.1,12.1 -0.4,9.1 -0.1,18.3 -0.1,27.5 0,5 -5.8,10.8 -10.8,10.8 -7.7,0 -15.3,0.2 -23,-0.1 -2.2,-0.1 -4.5,-1.4 -6.5,-2.6 -4.2,-2.6 -5.4,-6.6 -5.1,-11.5 0.3,-4.4 -0.4,-8.9 -0.6,-13.7 5.3,0.1 11.1,0.1 17.1,0.1 z"
               id="path38"
               inkscape:connector-curvature="0"
               style="fill:none;stroke:#ffdaa6;stroke-width:3;stroke-miterlimit:10" /><path
               class="st78"
               d="m 436.7,44.1 c -4.6,0 -10.4,0 -16.3,0 0.5,-3.1 1,-6.1 1.3,-9.1 0.3,-2.7 -1.1,-4 -3.9,-4 -13.2,0 -11.3,-1 -11.3,10.5 -0.1,14.7 0.1,29.3 -0.1,44 -0.1,4.4 1.5,5.8 5.8,5.8 10.3,-0.1 11.1,-1.1 8.2,-11.3 -0.1,-0.5 -0.1,-1 -0.2,-1.8 5.8,0 11.6,0 16.5,0 0,6.2 0.1,12.1 0,17.9 -0.1,4.2 -6.2,10.1 -10.4,10.2 -8.2,0.1 -16.3,0.1 -24.5,0 -3.9,0 -10.1,-6 -10.1,-10 -0.1,-23.5 -0.1,-47 0,-70.4 0,-4.1 6.1,-9.6 10.3,-9.7 8.2,-0.1 16.3,-0.1 24.5,0 4.3,0 10.2,6 10.2,10.3 0,5.8 0,11.6 0,17.6 z"
               id="path40"
               inkscape:connector-curvature="0"
               style="fill:none;stroke:#ffdaa6;stroke-width:3;stroke-miterlimit:10" /><path
               class="st78"
               d="m 339.5,16.4 c 4.8,0 10.4,0 16,0 -7.2,29.7 -13.6,59.4 -18.5,89.8 -5.3,0 -11.8,0 -17,0 -2.1,-11.2 -4.1,-22 -6.3,-32.7 -3.1,-15 -6.3,-29.9 -9.6,-44.8 -0.9,-4 -2.3,-7.9 -3.6,-12.1 5.8,0 11.4,0 16.6,0 3.6,19.2 7.2,38.1 10.8,57.1 0.3,0 0.7,0 1,-0.1 3.4,-18.9 7,-37.7 10.6,-57.2 z"
               id="path42"
               inkscape:connector-curvature="0"
               style="fill:none;stroke:#ffdaa6;stroke-width:3;stroke-miterlimit:10" /><path
               class="st78"
               d="m 240,91.2 c -0.7,4.2 -1.5,9.3 -2.3,14.7 -14.8,0 -29.5,0 -43.9,0 0,-29.6 0,-59.4 0,-89.5 14,0 28.6,0 43.8,0 0.8,5 1.7,10.2 2.4,14.6 -9,0 -17.5,0.1 -26.1,0 -3.4,-0.1 -4.9,1.3 -4.8,4.7 0.1,4 0.2,8 0,12 -0.2,4.1 1.3,6 5.5,5.5 3.1,-0.4 6.1,-0.8 9.5,-1.3 0,5.7 0,11.5 0,17.2 -3.8,-0.3 -7.4,-1 -11,-0.7 -1.4,0.1 -3.7,2.3 -3.8,3.7 -0.5,5 -0.5,10 0,15 0.1,1.5 2.4,3.8 3.7,3.9 8.9,0.4 17.7,0.2 27,0.2 z"
               id="path44"
               inkscape:connector-curvature="0"
               style="fill:none;stroke:#ffdaa6;stroke-width:3;stroke-miterlimit:10" /><path
               class="st78"
               d="m 363.8,16.5 c 5.3,0 11,0 16.2,0 0,30 0,59.8 0,89.7 -5.2,0 -10.9,0 -16.2,0 0,-30 0,-59.7 0,-89.7 z"
               id="path46"
               inkscape:connector-curvature="0"
               style="fill:none;stroke:#ffdaa6;stroke-width:3;stroke-miterlimit:10" /><path
               class="st78"
               d="m 465,106.2 c -5.2,0 -10.9,0 -16.2,0 0,-30 0,-59.7 0,-89.7 5.3,0 11,0 16.2,0 0,29.9 0,59.7 0,89.7 z"
               id="path48"
               inkscape:connector-curvature="0"
               style="fill:none;stroke:#ffdaa6;stroke-width:3;stroke-miterlimit:10" /></g></g></g></g></g></g>

</svg>