<?xml version="1.0" standalone="no"?>
<!DOCTYPE svg PUBLIC "-//W3C//DTD SVG 1.1//EN" "http://www.w3.org/Graphics/SVG/1.1/DTD/svg11.dtd">
<svg xmlns="http://www.w3.org/2000/svg"><metadata>This SVG WebFont was generated by YouWorkForThem.
Copyright  2013 by Mattox Shuler. All rights reserved.</metadata><defs><font horiz-adv-x="1071" id="ywftsvg"><font-face ascent="1638" bbox="-41 -330.25 3222 2194.44" cap-height="1556" descent="-410" font-family="" font-stretch="normal" font-weight="400" panose-1="0 0 5 0 0 0 0 0 0 0" underline-position="0" underline-thickness="0" unicode-range="U+0020-2260" units-per-em="2048" x-height="1556"/><missing-glyph d="M0 0v1434h1024v-1434h-1024zM512 809l348 522h-696zM573 717l349 -522v1044zM164 102h696l-348 523zM102 1239v-1044l349 522z" horiz-adv-x="1024"/><glyph d="M0 0v1434h1024v-1434h-1024zM512 809l348 522h-696zM573 717l349 -522v1044zM164 102h696l-348 523zM102 1239v-1044l349 522z" glyph-name=".notdef" horiz-adv-x="1024"/><glyph glyph-name="glyph1" horiz-adv-x="0"/><glyph glyph-name="glyph2" horiz-adv-x="681"/><glyph glyph-name="space" horiz-adv-x="491" unicode=" "/><glyph d="M143 1556h254q35 0 25 -32l-16 -51q-6 -18 -7 -35v-549l-37 -434q-4 -27 -28 -27h-127q-25 0 -29 27l-37 434v549q0 16 -6 35l-16 51q-11 32 24 32zM201 360h139q20 0 35 -14l61 -61q14 -14 15 -35v-139q0 -20 -15 -35l-61 -62q-14 -14 -35 -14h-139q-20 0 -35 14l-62 62 q-14 14 -14 35v139q0 21 14 35l62 61q14 14 35 14z" glyph-name="exclam" horiz-adv-x="540" unicode="!"/><glyph d="M297 1647q20 0 35 -15l28 -28q14 -14 13 -39l-99 -514q-2 -27 -30 -27h-37q-29 0 -31 27l-96 514q-2 25 12 39l31 28q14 14 35 15h139zM717 1647q20 0 35 -15l30 -28q14 -14 13 -39l-99 -514q-2 -27 -30 -27h-39q-29 0 -31 27l-94 514q-2 25 12 39l29 28q14 14 35 15h139 z" glyph-name="quotedbl" horiz-adv-x="872" unicode="&quot;"/><glyph d="M1276 649h143q16 0 35 6l51 17q33 10 33 -25v-256q0 -35 -33 -24l-51 16q-18 6 -35 6h-194q-29 0 -31 -27l-47 -272q-4 -14 2 -37l6 -20q12 -33 -22 -33h-256q-35 0 -25 33l39 112q6 16 8 33l31 180q6 31 -25 31h-264q-29 0 -31 -27l-47 -272q-4 -14 2 -37l6 -20 q12 -33 -22 -33h-256q-35 0 -25 33l39 112q6 16 8 33l31 180q6 31 -24 31h-99q-16 0 -35 -6l-51 -16q-33 -10 -33 24v256q0 35 33 25l51 -17q18 -6 35 -6h148q25 0 30 27l35 203q4 31 -26 30h-187q-16 0 -35 -6l-51 -16q-33 -10 -33 24v256q0 35 33 25l51 -16q18 -6 35 -7 h236q25 0 30 27l46 272q4 14 -9 56q-6 33 25 32h254q35 0 24 -32l-38 -127l-35 -197q-4 -31 26 -31h260q25 0 31 27l45 272q5 16 -8 56q-6 33 25 32h254q35 0 24 -32l-39 -127l-35 -197q-4 -31 27 -31h53q16 0 35 7l51 16q33 10 33 -25v-256q0 -35 -33 -24l-51 16 q-18 6 -35 6h-104q-25 0 -31 -26l-35 -203q-6 -31 27 -31zM692 649h262q25 0 31 27l35 203q4 31 -27 30h-262q-25 1 -31 -26l-34 -203q-6 -31 26 -31z" glyph-name="numbersign" horiz-adv-x="1642" unicode="#"/><glyph d="M887 1065h-258q-33 0 -23 33l15 49q4 25 4 35v63q0 20 -14.5 34.5t-35.5 14.5h-159q-20 0 -34.5 -14t-14.5 -35v-284q0 -19 14 -35t35 -17h321q20 0 35 -14l102 -98q14 -14 15 -35v-610q0 -20 -15 -35l-102 -103q-14 -14 -35 -14h-61q-21 0 -36 -15t-15 -36v-23 q0 -16 6 -35l16 -49q10 -33 -24 -32h-254q-35 0 -25 32l16 49q6 18 7 35v23q1 19 -15 35t-37 16h-57q-20 0 -35 14l-102 103q-14 14 -15 35v223q0 16 -6 35l-14 49q-10 33 23 33h256q35 0 24 -33l-16 -49q-6 -18 -6 -35v-62q0 -20 14 -35t35 -16h159q20 0 35 14v3 q14 14 15 34v287q0 20 -14.5 34.5t-35.5 14.5h-317q-20 0 -35 15l-102 104q-14 14 -15 35v602q0 20 15 35l102 102q14 14 35 14h57q19 0 35 16t17 36v24q0 16 -7 35l-16 51q-10 33 25 33h254q35 0 24 -33l-16 -51q-6 -18 -6 -35v-24q0 -21 15 -36t36 -16h61q20 0 35 -14 l102 -102q14 -14 15 -35v-223q0 -16 6 -35l16 -49q11 -33 -24 -33z" glyph-name="dollar" horiz-adv-x="995" unicode="$"/><glyph d="M166 1556h172q20 0 35 -14l82 -82q14 -14 14 -35v-176q0 -20 -14 -35l-82 -86q-14 -14 -35 -14h-172q-20 0 -35 14l-86 86q-14 14 -14 35v176q0 20 14 35l86 82q15 14 35 14zM606 0h-254q-33 0 -22 33l39 133l227 1302q5 16 -8 53q-12 36 22 35h256q35 0 25 -32l-41 -131 l-225 -1303q-4 -12 0 -37l6 -20q10 -33 -25 -33zM299 1466h-98q-20 0 -35 -14l-31 -31q-14 -14 -14 -35v-100q0 -20 14 -35l31 -32q14 -14 35 -15h98q20 0 35 15l31 32q14 14 14 35v100q0 21 -14 35l-31 31q-14 14 -35 14zM885 442h172q20 0 35 -14l82 -84q14 -14 14 -35 v-174q0 -20 -14 -35l-82 -86q-14 -14 -35 -14h-172q-20 0 -35 14l-86 86q-14 14 -14 35v174q0 20 14 35l86 84q15 14 35 14zM1018 352h-98q-20 0 -35 -14l-31 -31q-14 -14 -14 -35v-102q0 -20 14 -35l31 -31q14 -14 35 -14h98q20 0 35 14l30 31q14 14 15 35v102 q-1 21 -15 35l-30 31q-14 14 -35 14z" glyph-name="percent" horiz-adv-x="1218" unicode="%"/><glyph d="M383 909h483q16 0 35 6l49 17q33 10 33 -25v-256q0 -35 -33 -24l-49 16q-17 6 -33 6t-16 -28v-469q0 -20 -14 -35l-99 -103q-14 -14 -34 -14h-480q-20 0 -35 14l-100 103q-14 14 -14 35v477q0 20 14 35l94 98q20 20 0 41l-94 92q-14 14 -14 35v475q0 20 14 35l100 102 q14 14 35 14h480q20 0 34 -14l99 -102q14 -14 14 -35v-223q0 -16 6 -35l19 -49q12 -33 -23 -33h-256q-35 0 -25 33l17 49q6 18 6 35v63q0 20 -14 35h-2q-14 14 -35 14h-162q-20 0 -34.5 -14t-14.5 -35v-284q0 -20 14 -36t35 -16zM596 313v287q0 20 -14 35h-2q-14 14 -35 14 h-162q-20 0 -34.5 -14t-14.5 -35v-287q0 -20 14 -35t35 -16h162q20 0 35 14q16 24 16 37z" glyph-name="ampersand" horiz-adv-x="1013" unicode="&amp;"/><glyph d="M297 1647q20 0 35 -15l28 -28q14 -14 13 -39l-99 -514q-2 -27 -30 -27h-37q-29 0 -31 27l-96 514q-2 25 12 39l31 28q14 14 35 15h139z" glyph-name="quotesingle" horiz-adv-x="450" unicode="'"/><glyph d="M551 -262h-311q-20 0 -35 14l-101 103q-14 14 -14 34v1776q0 20 14 35l101 102q14 14 35 15h311q29 0 29 -29v-203q0 -29 -29 -29h-152q-20 0 -34.5 -14t-14.5 -35v-1456q0 -19 14 -35t35 -16h152q29 0 29 -29v-204q0 -29 -29 -29z" glyph-name="parenleft" horiz-adv-x="624" unicode="("/><glyph d="M535 1665v-1776q0 -20 -15 -34l-98 -103q-14 -14 -35 -14h-311q-29 0 -29 29v204q0 29 29 29h149q21 0 36 15t15 36v1456q0 20 -14 35h-2q-14 14 -35 14h-149q-29 0 -29 29v203q0 29 29 29h311q20 0 35 -15l98 -102q15 -15 15 -35z" glyph-name="parenright" horiz-adv-x="624" unicode=")"/><glyph d="M528 1556q31 0 27 -30l-41 -248q-4 -18 5 -25.5t26 0.5l225 113q31 12 39 -14l41 -129q6 -31 -23 -33l-245 -41q-18 -2 -21.5 -13.5t8.5 -23.5l176 -176q23 -23 -2 -41l-112 -82q-25 -20 -39 10l-113 224q-20 37 -41 0l-114 -224q-14 -31 -39 -10l-107 82q-25 18 -2 41 l176 176q12 12 9 23.5t-21 13.5l-250 41q-31 6 -20 35l41 127q10 31 39 14l223 -113q16 -8 25.5 -0.5t7.5 25.5l-41 248q-4 31 26 30h137z" glyph-name="asterisk" horiz-adv-x="917" unicode="*"/><glyph d="M698 909h115q16 0 35 6l51 17q33 10 33 -25v-256q0 -35 -33 -24l-51 16q-18 6 -35 6h-115q-29 0 -28 -28v-111q0 -16 6 -35l16 -51q10 -33 -24 -33h-254q-35 0 -25 33l17 51q6 18 6 35v111q0 29 -29 28h-113q-16 0 -34 -6l-54 -16q-33 -10 -32 24v256q0 35 32 25l54 -17 q18 -6 34 -6h113q29 0 29 29v113q0 16 -6 34l-17 54q-10 33 25 32h254q35 0 24 -32l-16 -54q-6 -18 -6 -34v-113q-1 -29 28 -29z" glyph-name="plus" horiz-adv-x="1081" unicode="+"/><glyph d="M272 -41q0 41 -41 41h-45q-20 0 -34 14l-62 62q-14 14 -14 35v139q0 21 14 35l62 61q14 14 34 14h140q20 0 34 -14l62 -61q14 -14 14 -35v-293q0 -20 -14 -35l-82 -82q-12 -12 -29 -20l-110 -64q-35 -18 -35 21v37q0 20 14 34l78 80q14 14 14 31z" glyph-name="comma" horiz-adv-x="509" unicode=","/><glyph d="M872 649q0 -35 -32 -24l-54 16q-18 6 -34 6h-543q-16 0 -35 -6l-51 -16q-33 -10 -33 24v256q0 35 33 25l51 -17q18 -6 35 -6h543q16 0 34 6l54 17q33 10 32 -25v-256z" glyph-name="hyphen" horiz-adv-x="962" unicode="-"/><glyph d="M186 360h140q20 0 34 -14l62 -61q14 -14 14 -35v-139q0 -20 -14 -35l-62 -62q-14 -14 -34 -14h-140q-20 0 -34 14l-62 62q-14 14 -14 35v139q0 21 14 35l62 61q14 14 34 14z" glyph-name="period" horiz-adv-x="509" unicode="."/><glyph d="M319 0h-253q-35 0 -25 33l43 133l223 1302q5 16 -7 53q-11 36 24 35h256q33 0 22 -32l-39 -131l-229 -1303q-4 -14 2 -37l6 -20q12 -33 -23 -33z" glyph-name="slash" horiz-adv-x="643" unicode="/"/><glyph d="M248 1556h477q20 0 35 -14l100 -98q14 -14 14 -35v-1259q0 -20 -14 -35l-100 -101q-14 -14 -35 -14h-477q-20 0 -35 14l-102 101q-14 14 -15 35v1259q0 20 15 35l102 98q15 14 35 14zM612 309v936q0 20 -14 35h-2q-14 14 -35 14h-155q-20 0 -36 -14t-16 -35v-936 q0 -20 15 -35h2q14 -14 35 -14h155q19 0 35 14t16 35z" glyph-name="zero" horiz-adv-x="970" unicode="0"/><glyph d="M436 1528v-1409q0 -16 6 -35l15 -51q10 -33 -23 -33h-258q-35 0 -24 33l16 51q6 18 6 35v1063q0 20 -14 36t-35 15h-45q-33 0 -23 33l78 266q6 25 31 24h242q28 1 28 -28z" glyph-name="one" horiz-adv-x="557" unicode="1"/><glyph d="M635 492h256q35 0 24 -33l-16 -49q-6 -18 -6 -35v-346q0 -29 -29 -29h-721q-29 0 -28 29v729q0 20 14 35l100 100q14 14 35 14h320q20 0 34 15v2q14 14 15 34v287q0 20 -14.5 34.5t-34.5 14.5h-162q-20 0 -36 -14t-15 -35v-63q0 -16 6 -35l18 -49q12 -33 -22 -33h-256 q-35 0 -25 33l17 49q6 18 6 35v223q0 20 14 35l100 102q14 14 35 14h477q20 0 35 -14l103 -102q14 -14 14 -35v-606q0 -20 -14 -35l-103 -102q-14 -14 -35 -15h-319q-21 0 -36 -15t-15 -36v-283q0 -13 16 -37q14 -14 35 -14h162q20 0 34 14v3q14 14 15 34v62q0 16 -6 35 l-17 49q-10 33 25 33z" glyph-name="two" horiz-adv-x="1007" unicode="2"/><glyph d="M227 1556h480q20 0 34 -14l103 -102q14 -14 14 -35v-477q0 -20 -14 -35l-96 -94q-18 -23 0 -41l96 -96q14 -14 14 -35v-475q0 -20 -14 -35l-103 -103q-14 -14 -34 -14h-480q-20 0 -34 14l-99 103q-14 14 -14 35v223q0 16 -6 35l-17 49q-10 33 25 33h252q35 0 24 -33 l-16 -49q-6 -18 -6 -35v-62q0 -13 16 -37q14 -14 35 -14h158q20 0 35 14q16 24 16 37v283q0 21 -15 36t-36 15h-86q-16 0 -35 -6l-55 -16q-33 -10 -33 24v256q0 35 33 25l55 -17q18 -6 35 -6h86q19 -1 35 15t16 36v287q0 20 -14 35h-2q-14 14 -35 14h-158q-19 0 -35 -14 t-16 -35v-63q0 -16 6 -35l16 -49q10 -33 -24 -33h-252q-35 0 -25 33l17 49q6 18 6 35v223q0 20 14 35l99 102q14 14 34 14z" glyph-name="three" horiz-adv-x="954" unicode="3"/><glyph d="M889 1438v-1319q0 -16 6 -35l16 -51q10 -33 -24 -33h-256q-35 0 -25 33l17 51q6 18 6 35v477q1 20 -15 36t-36 15h-320q-20 0 -35 15l-100 102q-14 14 -14 35v639q0 16 -7 35l-16 51q-10 33 25 32h254q35 0 24 -32l-14 -51q-6 -18 -6 -35v-480q0 -20 15 -35t36 -16h158 q18 -1 34 15t17 36v480q0 16 -6 35l-17 51q-10 33 25 32h256q35 0 24 -32l-16 -51q-6 -19 -6 -35z" glyph-name="four" horiz-adv-x="1011" unicode="4"/><glyph d="M893 1528v-346q0 -16 6 -35l16 -49q10 -33 -24 -33h-256q-35 0 -25 33l17 49q6 18 6 35v63q0 20 -14.5 34.5t-34.5 14.5h-162q-20 0 -36 -14t-15 -35v-287q0 -20 15 -35t36 -16h319q20 0 35 -14l103 -100q14 -14 14 -35v-606q0 -20 -14 -35l-103 -103q-14 -14 -35 -14 h-477q-20 0 -35 14l-100 103q-14 14 -14 35v223q0 16 -6 35l-17 49q-10 33 25 33h256q35 0 22 -33l-18 -49q-6 -18 -6 -35v-62q0 -13 16 -37q14 -14 35 -14h162q20 0 34 14v3q14 14 15 34v283q-1 20 -15 36t-34 15h-320q-20 0 -35 15l-100 102q-14 14 -14 35v729q0 29 28 28 h721q29 1 29 -28z" glyph-name="five" horiz-adv-x="1007" unicode="5"/><glyph d="M872 1065h-256q-35 0 -22 33l16 49q6 18 6 35v63q0 20 -14 34.5t-35 14.5h-161q-20 0 -36 -14t-16 -35v-287q0 -18 16 -34t36 -17h319q20 0 35 -14l100 -100q14 -14 14 -35v-606q0 -20 -14 -35l-100 -103q-14 -14 -35 -14h-477q-20 0 -35 14l-102 103q-14 14 -15 35v1253 q0 20 15 35l102 102q14 14 35 14h477q20 0 35 -14l100 -102q14 -14 14 -35v-223q0 -16 7 -35l16 -49q10 -33 -25 -33zM616 313v283q0 20 -14 36t-35 15h-161q-21 0 -36 -15t-16 -36v-283q0 -20 15 -34q11 -17 37 -17h161q20 0 35 14v3q14 14 14 34z" glyph-name="six" horiz-adv-x="989" unicode="6"/><glyph d="M356 0h-284q-41 0 -21 35l45 76q10 16 15 30l448 1121q10 33 -22 32h-363q-10 0 -35 -4l-57 -14q-33 -8 -29 27l39 227q2 27 31 26h657q29 1 31 -26l29 -217q2 -14 -4 -37l-465 -1165q-8 -16 -2 -37l12 -41q10 -33 -25 -33z" glyph-name="seven" horiz-adv-x="872" unicode="7"/><glyph d="M250 1556h479q20 0 35 -14l98 -102q14 -14 15 -35v-469q0 -20 -15 -35l-92 -94q-20 -20 0 -41l92 -94q14 -14 15 -35v-485q0 -20 -15 -35l-98 -103q-14 -14 -35 -14h-479q-20 0 -35 14l-104 103q-14 14 -15 35v485q0 20 15 35l92 94q20 20 0 41l-92 94q-14 14 -15 35v469 q0 20 15 35l104 102q15 14 35 14zM616 967v278q0 20 -14 34.5t-35 14.5h-159q-20 0 -35 -14t-15 -35v-278q0 -19 14 -35t36 -17h159q20 0 35 15v2q14 15 14 35zM616 309v295q0 20 -14 36t-35 15h-159q-20 0 -35 -14v-2q-14 -14 -15 -35v-295q0 -20 14.5 -34.5t35.5 -14.5 h159q20 0 34.5 14.5t14.5 34.5z" glyph-name="eight" horiz-adv-x="972" unicode="8"/><glyph d="M264 1556h477q20 0 35 -14l103 -102q14 -14 14 -35v-1253q0 -20 -14 -35l-103 -103q-14 -14 -35 -14h-477q-20 0 -35 14l-100 103q-14 14 -14 35v223q0 16 -6 35l-17 49q-10 33 25 33h256q35 0 22 -33l-18 -49q-6 -18 -6 -35v-62q0 -13 16 -37q14 -14 35 -14h158 q25 0 36 17q14 14 15 34v283q1 20 -15 36t-36 15h-316q-20 0 -35 15l-100 102q-14 14 -14 35v606q0 20 14 35l100 102q15 14 35 14zM631 958v287q0 20 -15 35h-2q-14 14 -34 14h-158q-20 0 -36 -14t-15 -35v-287q0 -20 15 -35t36 -16h158q19 -1 35 15t16 36z" glyph-name="nine" horiz-adv-x="989" unicode="9"/><glyph d="M186 1241h140q20 0 34 -14l62 -62q14 -14 14 -35v-139q0 -20 -14 -35l-62 -61q-14 -14 -34 -14h-140q-20 0 -34 14l-62 61q-14 14 -14 35v139q0 21 14 35l62 62q14 14 34 14zM186 688h140q20 0 34 -14l62 -62q14 -14 14 -34v-140q0 -20 -14 -35l-62 -61q-14 -14 -34 -14 h-140q-20 0 -34 14l-62 61q-14 14 -14 35v140q0 20 14 34l62 62q14 14 34 14z" glyph-name="colon" horiz-adv-x="509" unicode=":"/><glyph d="M186 1241h140q20 0 34 -14l62 -62q14 -14 14 -35v-139q0 -20 -14 -35l-62 -61q-14 -14 -34 -14h-140q-20 0 -34 14l-62 61q-14 14 -14 35v139q0 21 14 35l62 62q14 14 34 14zM272 299q0 29 -41 29h-45q-20 0 -34 14l-62 61q-14 14 -14 35v140q0 20 14 34l62 62 q14 14 34 14h140q20 0 34 -14l62 -62q14 -14 14 -34v-295q0 -20 -14 -35l-82 -80q-12 -12 -29 -21l-110 -63q-35 -18 -35 20v37q0 20 14 35l78 80q14 14 14 43z" glyph-name="semicolon" horiz-adv-x="509" unicode=";"/><glyph d="M420 799q-8 -20 0 -41l387 -709q12 -23 -4 -41l-64 -65q-20 -20 -41 2l-548 743l-70 70q-20 20 0 41l70 69l548 744q20 23 41 2l62 -64q18 -18 6 -41z" glyph-name="less" horiz-adv-x="849" unicode="&lt;"/><glyph d="M932 1169v-260q0 -31 -33 -24l-80 20q-25 4 -35 4h-487q-10 0 -35 -4l-80 -20q-33 -6 -32 24v260q0 31 32 25l80 -20q25 -4 35 -5h487q10 1 35 5l80 20q33 6 33 -25zM932 647v-256q0 -31 -33 -24l-80 20q-25 4 -35 4h-487q-10 0 -35 -4l-80 -20q-33 -6 -32 24v256 q0 31 32 25l80 -21q25 -4 35 -4h487q10 0 35 4l80 21q33 6 33 -25z" glyph-name="equal" horiz-adv-x="1081" unicode="="/><glyph d="M690 883q16 -20 23 -27l57 -57q20 -20 0 -41l-57 -58q-6 -6 -23 -26l-534 -729q-18 -25 -41 -2l-66 65q-18 18 -6 41l418 709q12 20 0 41l-418 710q-12 23 6 41l66 64q23 23 41 -2z" glyph-name="greater" horiz-adv-x="849" unicode=">"/><glyph d="M244 1556h481q20 0 35 -14l98 -102q14 -14 14 -35v-602q0 -20 -14 -35l-98 -104q-14 -14 -35 -15h-127q-20 0 -36 -14t-15 -35v-25q0 -10 -4 -34l-27 -88q-6 -25 -31 -25h-131q-23 0 -32 25l-27 88q-4 25 -4 34v187q0 20 14 35l101 98q14 14 34 14h123q20 0 35 15v2 q14 14 14 35v284q0 20 -14 34.5t-35 14.5h-155q-20 0 -36 -14t-16 -35v-63q0 -16 6 -35l15 -49q10 -33 -23 -33h-258q-35 0 -24 33l16 49q6 18 6 35v223q0 20 15 35l100 102q15 14 35 14zM350 360h139q20 0 35 -14l62 -61q14 -14 14 -35v-139q0 -20 -14 -35l-62 -62 q-14 -14 -35 -14h-139q-20 0 -35 14l-61 62q-14 14 -14 35v139q0 21 14 35l61 61q14 14 35 14z" glyph-name="question" horiz-adv-x="962" unicode="?"/><glyph d="M489 0h959q31 0 27 -31l-25 -205q-2 -27 -31 -26h-1089q-20 0 -35 14l-100 103q-14 14 -15 34v1520q0 20 15 35l100 98q14 14 35 14h999q20 0 35 -14l100 -98q14 -14 15 -35v-1001q0 -20 -15 -35l-100 -99q-14 -14 -35 -14h-678q-20 0 -35 14l-30 31q-14 14 -15 35v618 q0 20 15 35l30 31q14 14 35 14h357q20 0 34 -14l31 -31q14 -14 14 -35v-454q-1 -20 15 -36t37 -15h32q20 0 35 14v2q14 14 15 35v741q0 20 -14.5 34.5t-35.5 14.5h-682q-20 0 -34.5 -14t-14.5 -35v-1194q0 -19 14 -35t35 -16zM762 791v-287q0 -21 15 -36t36 -15h33 q21 0 36 15t15 36v287q0 20 -15 35t-36 16h-33q-19 0 -35 -16t-16 -35z" glyph-name="at" horiz-adv-x="1658" unicode="@"/><glyph d="M1018 0h-254q-37 0 -25 30.5t9 49.5l-50 201q-2 16 -18 32t-37 17h-215q-20 0 -36.5 -16.5t-18.5 -32.5l-49 -201q-5 -21 6.5 -50.5t-23.5 -29.5h-254q-37 0 -20 35l26 53q10 20 13 33l311 1327q4 18 -2 37l-12 39q-10 33 24 32h285q35 0 24 -32l-12 -39q-6 -19 -2 -37 l311 -1327q2 -12 13 -33l26 -53q8 -14 2 -24.5t-22 -10.5zM592 592q45 0 41 45l-80 391q-2 14 -9 19.5t-14.5 0t-9.5 -19.5l-80 -391q-4 -45 41 -45h111z" glyph-name="A" unicode="A"/><glyph d="M113 119v1321q0 16 -7 35l-16 49q-10 33 25 32h624q20 0 35 -14l103 -98q14 -14 14 -35v-467q0 -20 -14 -35l-99 -94q-18 -23 0 -41l99 -96q14 -14 14 -35v-491q0 -20 -14 -35l-103 -101q-14 -14 -35 -14h-624q-35 0 -25 33l16 51q7 19 7 35zM371 1249v-278q0 -20 14 -35 h2q14 -14 35 -14h158q20 0 35 14t16 35v278q1 19 -15 35t-36 16h-158q-21 0 -36 -15t-15 -36zM631 313v297q1 20 -15 36t-36 16h-158q-20 0 -36 -16t-15 -36v-297q0 -13 16 -37q14 -14 35 -14h158q25 0 36 17q15 14 15 34z" glyph-name="B" horiz-adv-x="987" unicode="B"/><glyph d="M725 0h-477q-20 0 -35 14l-102 101q-14 14 -15 35v1259q0 20 15 35l102 98q14 14 35 14h477q20 0 35 -14l100 -98q14 -14 14 -35v-223q0 -16 7 -35l16 -49q10 -33 -25 -33h-256q-35 0 -22 33l16 49q6 18 6 35v63q0 20 -14 35.5t-35 15.5h-161q-21 0 -36 -15t-16 -36v-936 q0 -20 15 -34q11 -17 37 -17h161q20 0 35 14v3q14 14 14 34v62q0 16 -6 35l-16 49q-12 33 22 33h256q35 0 25 -33l-16 -49q-6 -18 -7 -35v-225q0 -20 -14 -35l-100 -101q-15 -14 -35 -14z" glyph-name="C" horiz-adv-x="978" unicode="C"/><glyph d="M109 119v1321q0 10 -5 35l-14 49q-10 33 23 32h626q20 0 35 -14l103 -98q14 -14 14 -35v-1259q0 -20 -14 -35l-103 -101q-14 -14 -35 -14h-626q-31 0 -25 33l14 51q7 19 7 35zM369 1249v-936q0 -13 16 -37q14 -14 35 -14h158q25 0 36 17q14 14 15 34v936q0 20 -15.5 35.5 t-35.5 15.5h-158q-21 0 -36 -15t-15 -36z" glyph-name="D" horiz-adv-x="987" unicode="D"/><glyph d="M831 0h-716q-35 0 -25 33l16 51q6 18 7 35v1321q0 16 -7 35l-16 49q-10 33 25 32h716q29 0 31 -26l37 -223q2 -16 -6 -23.5t-25 -3.5l-53 16q-25 4 -35 4h-360q-21 0 -36 -15t-15 -36v-280q0 -21 15 -36t36 -15h92q16 0 35 6l51 16q33 10 33 -25v-256q0 -35 -33 -24 l-51 16q-18 6 -35 6h-92q-20 0 -35.5 -14t-15.5 -35v-295q0 -13 16 -37q14 -14 35 -14h360q10 0 35 4l53 17q16 4 24.5 -3.5t6.5 -23.5l-37 -229q-2 -27 -31 -27z" glyph-name="E" horiz-adv-x="933" unicode="E"/><glyph d="M113 119v1321q0 16 -7 35l-16 49q-10 33 25 32h716q29 0 31 -26l37 -223q2 -16 -6 -23.5t-25 -3.5l-53 16q-25 4 -35 4h-360q-21 0 -36 -15t-15 -36v-288q0 -21 15 -36t36 -16h92q16 0 35 6l49 17q33 10 33 -25v-256q0 -35 -33 -24l-49 16q-18 6 -35 6h-92q-20 0 -36 -14 t-15 -35v-481q0 -16 6 -35l16 -51q10 -33 -24 -33h-252q-35 0 -25 33l16 51q7 19 7 35z" glyph-name="F" horiz-adv-x="933" unicode="F"/><glyph d="M725 0h-477q-20 0 -35 14l-102 101q-14 14 -15 35v1259q0 20 15 35l102 98q14 14 35 14h477q20 0 35 -14l100 -98q14 -14 14 -35v-223q0 -16 7 -35l16 -49q10 -33 -25 -33h-256q-35 0 -22 33l16 49q6 18 6 35v63q0 19 -14 35t-35 16h-159q-20 0 -35 -14v-2 q-14 -14 -15 -35v-936q0 -20 14 -35t36 -16h159q20 0 35 14v3q14 14 14 34v232q0 29 -28 28h-19q-27 0 -32 25l-45 207q-6 31 26 31h354q35 0 25 -33l-16 -53q-6 -18 -7 -35v-565q0 -20 -14 -35l-100 -101q-15 -14 -35 -14z" glyph-name="G" horiz-adv-x="987" unicode="G"/><glyph d="M113 117v1321q0 16 -7 35l-16 51q-10 33 25 32h252q35 0 24 -32l-16 -51q-6 -18 -6 -35v-471q0 -21 15 -36t36 -16h158q19 0 34.5 15.5t16.5 36.5v471q0 16 -6 35l-15 51q-10 33 23 32h258q35 0 24 -32l-16 -51q-6 -18 -6 -35v-1321q0 -16 6 -35l16 -49q10 -33 -24 -33 h-256q-35 0 -25 33l15 49q6 18 6 35v487q0 20 -15.5 35.5t-35.5 15.5h-158q-21 0 -36 -15t-15 -36v-487q0 -16 6 -35l16 -49q10 -33 -24 -33h-252q-35 0 -25 33l16 49q7 19 7 35z" glyph-name="H" horiz-adv-x="1003" unicode="H"/><glyph d="M369 1438v-1321q0 -16 6 -35l16 -49q10 -33 -24 -33h-252q-35 0 -25 33l16 49q6 18 7 35v1321q0 16 -7 35l-16 51q-10 33 25 32h252q35 0 24 -32l-16 -51q-6 -19 -6 -35z" glyph-name="I" horiz-adv-x="481" unicode="I"/><glyph d="M840 1556q35 0 24 -32l-16 -51q-6 -18 -6 -35v-1288q0 -20 -15 -35l-100 -101q-14 -14 -35 -14h-481q-20 0 -35 14l-98 101q-14 14 -15 35v378q0 16 -6 35l-16 53q-10 33 25 33h253q35 0 25 -33l-16 -53q-6 -18 -6 -35v-219q0 -20 14 -35h2q14 -14 35 -14h157 q20 0 35.5 14t16.5 35v1129q-1 17 -7 35l-16 51q-10 33 25 32h256z" glyph-name="J" horiz-adv-x="954" unicode="J"/><glyph d="M1040 0h-292q-35 0 -24 34t3 52l-207 506q-18 37 -39 2l-102 -168q-10 -16 -10 -35v-272q0 -16 6 -35l16 -51q10 -33 -24 -33h-252q-35 0 -25 33l16 51q6 18 7 35v1319q0 16 -7 35l-16 51q-10 33 25 32h252q35 0 24 -32l-16 -51q-6 -18 -6 -35v-471q0 -23 12 -26t22 15 l297 537q10 23 4.5 36t2.5 20t24 7h281q18 0 23 -10t-5 -24l-72 -90l-278 -506q-10 -18 -2 -39l307 -748q6 -18 16 -30l58 -74q10 -14 5 -24.5t-24 -10.5z" glyph-name="K" horiz-adv-x="1101" unicode="K"/><glyph d="M831 0h-716q-35 0 -25 33l16 49q6 18 7 35v1321q0 16 -7 35l-16 51q-10 33 25 32h252q35 0 24 -32l-14 -51q-6 -18 -6 -35v-1129q0 -20 14 -35h2q14 -14 35 -14h358q10 0 35 4l55 15q16 4 23.5 -3.5t5.5 -23.5l-37 -225q-2 -27 -31 -27z" glyph-name="L" horiz-adv-x="933" unicode="L"/><glyph d="M987 117v790q0 20 -12 23.5t-21 -17.5l-184 -444q-12 -23 -35 -23h-114q-25 0 -33 23l-187 444q-8 20 -20 17.5t-12 -23.5v-790q0 -16 6 -35l16 -49q10 -33 -24 -33h-252q-35 0 -25 33l16 49q6 18 7 35v1321q0 16 -7 35l-16 51q-10 33 25 32h229q25 0 35 -22l280 -639 q8 -16 18.5 -16t18.5 16l281 639q10 23 35 22h229q35 0 25 -32l-17 -51q-6 -18 -6 -35v-1321q0 -16 6 -35l17 -49q10 -33 -25 -33h-252q-35 0 -24 33l16 49q6 19 6 35z" glyph-name="M" horiz-adv-x="1355" unicode="M"/><glyph d="M369 856v-739q0 -16 6 -35l16 -49q10 -33 -24 -33h-252q-35 0 -25 33l16 49q6 18 7 35v1321q0 16 -7 35l-16 51q-10 33 25 32h229q25 0 33 -22l336 -842q8 -20 20 -17t12 23v740q0 16 -6 35l-16 51q-10 33 25 32h256q35 0 24 -32l-16 -51q-6 -18 -6 -35v-1321 q0 -16 6 -35l16 -49q10 -33 -24 -33h-234q-25 0 -33 23l-336 841q-4 12 -12 15.5t-14 -3t-6 -20.5z" glyph-name="N" horiz-adv-x="1118" unicode="N"/><glyph d="M248 1556h477q20 0 35 -14l100 -98q14 -14 14 -35v-1259q0 -20 -14 -35l-100 -101q-14 -14 -35 -14h-477q-20 0 -35 14l-102 101q-14 14 -15 35v1259q0 20 15 35l102 98q15 14 35 14zM612 309v936q0 20 -14 35h-2q-14 14 -35 14h-155q-20 0 -36 -14t-16 -35v-936 q0 -20 15 -35h2q14 -14 35 -14h155q19 0 35 14t16 35z" glyph-name="O" horiz-adv-x="970" unicode="O"/><glyph d="M369 537v-420q0 -16 6 -35l16 -49q10 -33 -24 -33h-252q-35 0 -25 33l16 49q6 18 7 35v1321q0 16 -7 35l-16 51q-10 33 25 32h624q20 0 35 -14l103 -98q14 -14 14 -35v-670q0 -20 -14 -34l-103 -103q-14 -14 -35 -14h-319q-20 0 -36 -16t-15 -35zM369 1245v-348 q0 -20 14 -35h2q14 -14 35 -14h158q20 0 35 14t16 35v348q0 20 -15 35h-2q-14 14 -34 14h-158q-20 0 -36 -14t-15 -35z" glyph-name="P" horiz-adv-x="950" unicode="P"/><glyph d="M250 1556h475q20 0 35 -14l102 -98q14 -14 15 -35v-1259q0 -20 -15 -35l-102 -101q-14 -14 -35 -14h-57q-21 0 -36 -15t-16 -36v-94q0 -16 7 -35l16 -49q10 -33 -25 -33h-254q-35 0 -24 33l16 49q6 18 6 35v94q0 21 -15 36t-36 15h-57q-20 0 -35 14l-104 101 q-14 14 -15 35v1259q0 20 15 35l104 98q15 14 35 14zM616 309v936q0 20 -14 34.5t-35 14.5h-159q-20 0 -35 -14t-15 -35v-936q0 -20 14.5 -34.5t35.5 -14.5h159q20 0 34.5 14.5t14.5 34.5z" glyph-name="Q" horiz-adv-x="972" unicode="Q"/><glyph d="M367 0h-252q-35 0 -25 33l16 49q6 18 7 35v1321q0 16 -7 35l-16 51q-10 33 25 32h624q20 0 35 -14l103 -98q14 -14 14 -35v-668q0 -20 -14 -34l-101 -101q-14 -14 -12 -39l108 -463l29 -71q10 -33 -22 -33h-254q-35 0 -25 31l10 47q2 18 0 37l-102 432q-2 18 -14.5 30.5 t-30.5 12.5h-43q-20 0 -35.5 -15.5t-15.5 -35.5v-422q0 -17 6 -35l16 -49q10 -33 -24 -33zM369 1245v-348q0 -20 15 -34.5t36 -14.5h160q20 0 35 14t16 35v348q0 20 -15 35h-2q-14 14 -34 14h-160q-20 0 -35.5 -14.5t-15.5 -34.5z" glyph-name="R" horiz-adv-x="987" unicode="R"/><glyph d="M883 1409v-227q0 -16 6 -35l16 -49q12 -33 -22 -33h-256q-35 0 -25 33l14 49q6 18 7 35v63q0 20 -15 35h-2q-14 14 -35 14h-157q-20 0 -35.5 -14t-16.5 -35v-287q0 -19 15.5 -34.5t36.5 -16.5h319q20 0 35 -14l100 -100q14 -14 15 -35v-608q0 -20 -15 -35l-100 -101 q-14 -14 -35 -14h-477q-20 0 -35 14l-106 101q-14 14 -15 35v223q0 10 -4 35l-14 49q-10 33 22 32h256q35 0 25 -32l-16 -49q-6 -18 -7 -35v-64q0 -20 15 -35h2q14 -14 35 -14h157q20 0 35.5 14t16.5 35v287q0 20 -15.5 35.5t-36.5 15.5h-315q-20 0 -35 15l-106 102 q-14 14 -15 35v610q0 20 15 35l106 98q14 14 35 14h477q20 0 35 -14l100 -98q15 -15 15 -35z" glyph-name="S" horiz-adv-x="989" unicode="S"/><glyph d="M98 1556h781q29 0 30 -26l39 -227q2 -16 -5 -23.5t-23 -3.5l-60 14q-25 4 -35 4h-155q-20 0 -34.5 -14t-14.5 -35v-1128q0 -16 6 -35l16 -49q10 -33 -25 -33h-256q-35 0 -24 33l16 49q6 18 6 35v1128q0 20 -14 35h-2q-14 14 -35 14h-159q-10 0 -35 -4l-56 -14 q-32 -8 -28 27l37 227q1 26 30 26z" glyph-name="T" horiz-adv-x="978" unicode="T"/><glyph d="M633 1556h256q35 0 24 -32l-16 -51q-6 -18 -6 -35v-1288q0 -20 -14 -35l-103 -101q-14 -14 -35 -14h-479q-20 0 -35 14l-98 101q-14 14 -14 35v1288q0 16 -7 35l-16 51q-10 33 25 32h252q35 0 24 -32l-16 -51q-6 -18 -6 -35v-1129q0 -20 14 -35h2q14 -14 35 -14h160 q20 0 35 14t16 35v1129q0 16 -6 35l-17 51q-10 32 25 32z" glyph-name="U" horiz-adv-x="999" unicode="U"/><glyph d="M653 0h-291q-31 0 -24 33l12 43q2 18 0 37l-270 1276l-10 32l-41 103q-10 33 22 32h252q36 0 23 -40q-6 -23 -2 -37l165 -869q2 -14 9.5 -19t14.5 0t9 19l166 869q4 14 -2 37q-21 41 19 40h253q37 1 23 -32l-41 -101l-10 -32l-264 -1278q-2 -18 0 -37l12 -43 q6 -33 -25 -33z" glyph-name="V" horiz-adv-x="1011" unicode="V"/><glyph d="M1309 0h-289q-31 0 -25 33l13 43q4 25 0 37l-158 792q-2 12 -9 17.5t-14.5 0.5t-9.5 -18l-151 -792q-4 -12 0 -37l12 -43q6 -33 -25 -33h-291q-31 0 -24 33l12 43q2 18 0 37l-270 1276l-10 32l-41 103q-10 33 22 32h252q36 0 23 -40q-6 -23 -2 -37l165 -840 q2 -12 9.5 -17.5t14.5 0t9 17.5l166 813q4 12 0 37l-10 35q-6 33 24 32h261q31 0 24 -32l-10 -35q-2 -18 0 -37l168 -813q2 -14 9 -19.5t14.5 0t9.5 19.5l165 840q5 23 -6 45q-10 33 23 32h254q36 1 22 -32l-41 -101l-10 -32l-264 -1278q-2 -18 0 -37l12 -43q6 -33 -24 -33z " glyph-name="W" horiz-adv-x="1667" unicode="W"/><glyph d="M950 0h-286q-16 0 -23 9.5t6 32.5q14 23 6 42l-129 315q-6 16 -18 16.5t-19 -16.5l-129 -315q-10 -22 10 -53q19 -31 -22 -31h-285q-18 0 -23 10t5 25l41 51q10 12 16 31l262 645q6 18 0 37l-262 641q-6 18 -16 30l-41 52q-10 14 -5 24t23 10h287q37 0 23 -32l-6 -15 q-12 -16 -3 -39l125 -307q6 -16 18.5 -16t18.5 16l125 307q8 20 -3 44q-19 42 18 42h286q18 0 23.5 -10t-4.5 -24l-41 -52q-10 -12 -17 -30l-262 -641q-6 -19 0 -37l262 -645q6 -18 17 -31l41 -51q10 -14 5 -24.5t-24 -10.5z" glyph-name="X" horiz-adv-x="1011" unicode="X"/><glyph d="M666 524v-407q0 -10 4 -35l14 -49q10 -33 -22 -33h-250q-35 0 -25 33l16 49q6 18 7 35v407q0 16 -7 35l-305 866q-6 18 -16 31l-43 66q-20 35 18 34h301q39 0 22 -30t-11 -51l149 -492q10 -29 21.5 -20.5t15.5 20.5l150 492q6 21 -6.5 41t-6.5 30t23 10h301q39 0 18 -34 l-43 -66q-10 -12 -16 -31l-303 -866q-6 -19 -6 -35z" glyph-name="Y" horiz-adv-x="1073" unicode="Y"/><glyph d="M797 0h-688q-29 0 -29 29v215q0 18 8 35l467 983q8 14 2 23t-22 9h-347q-10 0 -34 -4l-60 -14q-16 -4 -23.5 3t-4.5 24l38 227q2 27 31 26h694q29 0 29 -28v-209q0 -18 -8 -35l-471 -989q-8 -14 -2 -23.5t22 -9.5h349q9 0 34 4l54 17q16 4 24 -3.5t6 -23.5l-39 -229 q-2 -27 -30 -27z" glyph-name="Z" horiz-adv-x="931" unicode="Z"/><glyph d="M551 -262h-432q-29 0 -29 29v2021q0 29 29 29h432q29 0 29 -29v-203q0 -29 -29 -29h-152q-20 0 -34.5 -14t-14.5 -35v-1456q0 -19 14 -35t35 -16h152q29 0 29 -29v-204q0 -29 -29 -29z" glyph-name="bracketleft" horiz-adv-x="624" unicode="["/><glyph d="M319 1556q35 0 23 -36t-8 -52l229 -1302l39 -133q10 -33 -22 -33h-256q-35 0 -25 33l6 20q6 23 2 37l-223 1303l-43 131q-10 33 25 32h253z" glyph-name="backslash" horiz-adv-x="643" unicode="\"/><glyph d="M535 1788v-2021q0 -29 -29 -29h-430q-29 0 -29 29v204q0 29 29 29h149q21 0 36 15t15 36v1456q0 20 -14 35h-2q-14 14 -35 14h-149q-29 0 -29 29v203q0 29 29 29h430q29 0 29 -29z" glyph-name="bracketright" horiz-adv-x="624" unicode="]"/><glyph d="M680 1276q-18 10 -37 0l-471 -213q-25 -8 -39 6l-51 51q-23 23 4 39l471 297q20 16 27 23l57 57q20 20 41 0l57 -57q6 -6 27 -23l469 -297q27 -16 4 -39l-51 -51q-14 -14 -39 -6z" glyph-name="asciicircum" horiz-adv-x="1323" unicode="^"/><glyph d="M1112 -2v-256q0 -35 -33 -25l-51 17q-18 6 -35 6h-784q-16 0 -35 -6l-51 -17q-33 -10 -33 25v256q0 35 33 25l51 -17q18 -6 35 -6h784q17 0 35 6l51 17q33 10 33 -25z" glyph-name="underscore" horiz-adv-x="1202" unicode="_"/><glyph d="M319 2066l101 115q16 23 39 6l84 -49q16 -12 24 -27l162 -323q12 -25 -14 -39l-31 -14q-25 -8 -41 8l-321 285q-21 20 -3 38z" glyph-name="grave" horiz-adv-x="1085" unicode="`"/><glyph d="M1018 0h-254q-37 0 -25 30.5t9 49.5l-50 201q-2 16 -18 32t-37 17h-215q-20 0 -36.5 -16.5t-18.5 -32.5l-49 -201q-5 -21 6.5 -50.5t-23.5 -29.5h-254q-37 0 -20 35l26 53q10 20 13 33l311 1327q4 18 -2 37l-12 39q-10 33 24 32h285q35 0 24 -32l-12 -39q-6 -19 -2 -37 l311 -1327q2 -12 13 -33l26 -53q8 -14 2 -24.5t-22 -10.5zM592 592q45 0 41 45l-80 391q-2 14 -9 19.5t-14.5 0t-9.5 -19.5l-80 -391q-4 -45 41 -45h111z" glyph-name="a" unicode="a"/><glyph d="M113 119v1321q0 16 -7 35l-16 49q-10 33 25 32h624q20 0 35 -14l103 -98q14 -14 14 -35v-467q0 -20 -14 -35l-99 -94q-18 -23 0 -41l99 -96q14 -14 14 -35v-491q0 -20 -14 -35l-103 -101q-14 -14 -35 -14h-624q-35 0 -25 33l16 51q7 19 7 35zM371 1249v-278q0 -20 14 -35 h2q14 -14 35 -14h158q20 0 35 14t16 35v278q1 19 -15 35t-36 16h-158q-21 0 -36 -15t-15 -36zM631 313v297q1 20 -15 36t-36 16h-158q-20 0 -36 -16t-15 -36v-297q0 -13 16 -37q14 -14 35 -14h158q25 0 36 17q15 14 15 34z" glyph-name="b" horiz-adv-x="987" unicode="b"/><glyph d="M725 0h-477q-20 0 -35 14l-102 101q-14 14 -15 35v1259q0 20 15 35l102 98q14 14 35 14h477q20 0 35 -14l100 -98q14 -14 14 -35v-223q0 -16 7 -35l16 -49q10 -33 -25 -33h-256q-35 0 -22 33l16 49q6 18 6 35v63q0 20 -14 35.5t-35 15.5h-161q-21 0 -36 -15t-16 -36v-936 q0 -20 15 -34q11 -17 37 -17h161q20 0 35 14v3q14 14 14 34v62q0 16 -6 35l-16 49q-12 33 22 33h256q35 0 25 -33l-16 -49q-6 -18 -7 -35v-225q0 -20 -14 -35l-100 -101q-15 -14 -35 -14z" glyph-name="c" horiz-adv-x="978" unicode="c"/><glyph d="M109 119v1321q0 10 -5 35l-14 49q-10 33 23 32h626q20 0 35 -14l103 -98q14 -14 14 -35v-1259q0 -20 -14 -35l-103 -101q-14 -14 -35 -14h-626q-31 0 -25 33l14 51q7 19 7 35zM369 1249v-936q0 -13 16 -37q14 -14 35 -14h158q25 0 36 17q14 14 15 34v936q0 20 -15.5 35.5 t-35.5 15.5h-158q-21 0 -36 -15t-15 -36z" glyph-name="d" horiz-adv-x="987" unicode="d"/><glyph d="M831 0h-716q-35 0 -25 33l16 51q6 18 7 35v1321q0 16 -7 35l-16 49q-10 33 25 32h716q29 0 31 -26l37 -223q2 -16 -6 -23.5t-25 -3.5l-53 16q-25 4 -35 4h-360q-21 0 -36 -15t-15 -36v-280q0 -21 15 -36t36 -15h92q16 0 35 6l51 16q33 10 33 -25v-256q0 -35 -33 -24 l-51 16q-18 6 -35 6h-92q-20 0 -35.5 -14t-15.5 -35v-295q0 -13 16 -37q14 -14 35 -14h360q10 0 35 4l53 17q16 4 24.5 -3.5t6.5 -23.5l-37 -229q-2 -27 -31 -27z" glyph-name="e" horiz-adv-x="933" unicode="e"/><glyph d="M113 119v1321q0 16 -7 35l-16 49q-10 33 25 32h716q29 0 31 -26l37 -223q2 -16 -6 -23.5t-25 -3.5l-53 16q-25 4 -35 4h-360q-21 0 -36 -15t-15 -36v-288q0 -21 15 -36t36 -16h92q16 0 35 6l49 17q33 10 33 -25v-256q0 -35 -33 -24l-49 16q-18 6 -35 6h-92q-20 0 -36 -14 t-15 -35v-481q0 -16 6 -35l16 -51q10 -33 -24 -33h-252q-35 0 -25 33l16 51q7 19 7 35z" glyph-name="f" horiz-adv-x="933" unicode="f"/><glyph d="M725 0h-477q-20 0 -35 14l-102 101q-14 14 -15 35v1259q0 20 15 35l102 98q14 14 35 14h477q20 0 35 -14l100 -98q14 -14 14 -35v-223q0 -16 7 -35l16 -49q10 -33 -25 -33h-256q-35 0 -22 33l16 49q6 18 6 35v63q0 19 -14 35t-35 16h-159q-20 0 -35 -14v-2 q-14 -14 -15 -35v-936q0 -20 14 -35t36 -16h159q20 0 35 14v3q14 14 14 34v232q0 29 -28 28h-19q-27 0 -32 25l-45 207q-6 31 26 31h354q35 0 25 -33l-16 -53q-6 -18 -7 -35v-565q0 -20 -14 -35l-100 -101q-15 -14 -35 -14z" glyph-name="g" horiz-adv-x="987" unicode="g"/><glyph d="M113 117v1321q0 16 -7 35l-16 51q-10 33 25 32h252q35 0 24 -32l-16 -51q-6 -18 -6 -35v-471q0 -21 15 -36t36 -16h158q19 0 34.5 15.5t16.5 36.5v471q0 16 -6 35l-15 51q-10 33 23 32h258q35 0 24 -32l-16 -51q-6 -18 -6 -35v-1321q0 -16 6 -35l16 -49q10 -33 -24 -33 h-256q-35 0 -25 33l15 49q6 18 6 35v487q0 20 -15.5 35.5t-35.5 15.5h-158q-21 0 -36 -15t-15 -36v-487q0 -16 6 -35l16 -49q10 -33 -24 -33h-252q-35 0 -25 33l16 49q7 19 7 35z" glyph-name="h" horiz-adv-x="1003" unicode="h"/><glyph d="M369 1438v-1321q0 -16 6 -35l16 -49q10 -33 -24 -33h-252q-35 0 -25 33l16 49q6 18 7 35v1321q0 16 -7 35l-16 51q-10 33 25 32h252q35 0 24 -32l-16 -51q-6 -19 -6 -35z" glyph-name="i" horiz-adv-x="481" unicode="i"/><glyph d="M840 1556q35 0 24 -32l-16 -51q-6 -18 -6 -35v-1288q0 -20 -15 -35l-100 -101q-14 -14 -35 -14h-481q-20 0 -35 14l-98 101q-14 14 -15 35v378q0 16 -6 35l-16 53q-10 33 25 33h253q35 0 25 -33l-16 -53q-6 -18 -6 -35v-219q0 -20 14 -35h2q14 -14 35 -14h157 q20 0 35.5 14t16.5 35v1129q-1 17 -7 35l-16 51q-10 33 25 32h256z" glyph-name="j" horiz-adv-x="954" unicode="j"/><glyph d="M1040 0h-292q-35 0 -24 34t3 52l-207 506q-18 37 -39 2l-102 -168q-10 -16 -10 -35v-272q0 -16 6 -35l16 -51q10 -33 -24 -33h-252q-35 0 -25 33l16 51q6 18 7 35v1319q0 16 -7 35l-16 51q-10 33 25 32h252q35 0 24 -32l-16 -51q-6 -18 -6 -35v-471q0 -23 12 -26t22 15 l297 537q10 23 4.5 36t2.5 20t24 7h281q18 0 23 -10t-5 -24l-72 -90l-278 -506q-10 -19 -2 -39l307 -748q6 -18 16 -30l58 -74q10 -14 5 -24.5t-24 -10.5z" glyph-name="k" horiz-adv-x="1101" unicode="k"/><glyph d="M831 0h-716q-35 0 -25 33l16 49q6 18 7 35v1321q0 16 -7 35l-16 51q-10 33 25 32h252q35 0 24 -32l-14 -51q-6 -18 -6 -35v-1129q0 -20 14 -35h2q14 -14 35 -14h358q10 0 35 4l55 15q16 4 23.5 -3.5t5.5 -23.5l-37 -225q-2 -27 -31 -27z" glyph-name="l" horiz-adv-x="933" unicode="l"/><glyph d="M987 117v790q0 20 -12 23.5t-21 -17.5l-184 -444q-12 -23 -35 -23h-114q-25 0 -33 23l-187 444q-8 20 -20 17.5t-12 -23.5v-790q0 -16 6 -35l16 -49q10 -33 -24 -33h-252q-35 0 -25 33l16 49q6 18 7 35v1321q0 16 -7 35l-16 51q-10 33 25 32h229q25 0 35 -22l280 -639 q8 -16 18.5 -16t18.5 16l281 639q10 23 35 22h229q35 0 25 -32l-17 -51q-6 -18 -6 -35v-1321q0 -16 6 -35l17 -49q10 -33 -25 -33h-252q-35 0 -24 33l16 49q6 19 6 35z" glyph-name="m" horiz-adv-x="1355" unicode="m"/><glyph d="M369 856v-739q0 -16 6 -35l16 -49q10 -33 -24 -33h-252q-35 0 -25 33l16 49q6 18 7 35v1321q0 16 -7 35l-16 51q-10 33 25 32h229q25 0 33 -22l336 -842q8 -20 20 -17t12 23v740q0 16 -6 35l-16 51q-10 33 25 32h256q35 0 24 -32l-16 -51q-6 -18 -6 -35v-1321 q0 -16 6 -35l16 -49q10 -33 -24 -33h-234q-25 0 -33 23l-336 841q-4 12 -12 15.5t-14 -3t-6 -20.5z" glyph-name="n" horiz-adv-x="1118" unicode="n"/><glyph d="M248 1556h477q20 0 35 -14l100 -98q14 -14 14 -35v-1259q0 -20 -14 -35l-100 -101q-14 -14 -35 -14h-477q-20 0 -35 14l-102 101q-14 14 -15 35v1259q0 20 15 35l102 98q15 14 35 14zM612 309v936q0 20 -14 35h-2q-14 14 -35 14h-155q-20 0 -36 -14t-16 -35v-936 q0 -20 15 -35h2q14 -14 35 -14h155q19 0 35 14t16 35z" glyph-name="o" horiz-adv-x="970" unicode="o"/><glyph d="M369 537v-420q0 -16 6 -35l16 -49q10 -33 -24 -33h-252q-35 0 -25 33l16 49q6 18 7 35v1321q0 16 -7 35l-16 51q-10 33 25 32h624q20 0 35 -14l103 -98q14 -14 14 -35v-670q0 -20 -14 -34l-103 -103q-14 -14 -35 -14h-319q-20 0 -36 -16t-15 -35zM369 1245v-348 q0 -20 14 -35h2q14 -14 35 -14h158q20 0 35 14t16 35v348q0 20 -15 35h-2q-14 14 -34 14h-158q-20 0 -36 -14t-15 -35z" glyph-name="p" horiz-adv-x="950" unicode="p"/><glyph d="M250 1556h475q20 0 35 -14l102 -98q14 -14 15 -35v-1259q0 -20 -15 -35l-102 -101q-14 -14 -35 -14h-57q-21 0 -36 -15t-16 -36v-94q0 -16 7 -35l16 -49q10 -33 -25 -33h-254q-35 0 -24 33l16 49q6 18 6 35v94q0 21 -15 36t-36 15h-57q-20 0 -35 14l-104 101 q-14 14 -15 35v1259q0 20 15 35l104 98q15 14 35 14zM616 309v936q0 20 -14 34.5t-35 14.5h-159q-20 0 -35 -14t-15 -35v-936q0 -20 14.5 -34.5t35.5 -14.5h159q20 0 34.5 14.5t14.5 34.5z" glyph-name="q" horiz-adv-x="972" unicode="q"/><glyph d="M367 0h-252q-35 0 -25 33l16 49q6 18 7 35v1321q0 16 -7 35l-16 51q-10 33 25 32h624q20 0 35 -14l103 -98q14 -14 14 -35v-668q0 -20 -14 -34l-101 -101q-14 -14 -12 -39l108 -463l29 -71q10 -33 -22 -33h-254q-35 0 -25 31l10 47q2 18 0 37l-102 432q-2 18 -14.5 30.5 t-30.5 12.5h-43q-20 0 -35.5 -15.5t-15.5 -35.5v-422q0 -17 6 -35l16 -49q10 -33 -24 -33zM369 1245v-348q0 -20 15 -34.5t36 -14.5h160q20 0 35 14t16 35v348q0 20 -15 35h-2q-14 14 -34 14h-160q-20 0 -35.5 -14.5t-15.5 -34.5z" glyph-name="r" horiz-adv-x="987" unicode="r"/><glyph d="M883 1409v-227q0 -16 6 -35l16 -49q12 -33 -22 -33h-256q-35 0 -25 33l14 49q6 18 7 35v63q0 20 -15 35h-2q-14 14 -35 14h-157q-20 0 -35.5 -14t-16.5 -35v-287q0 -19 15.5 -34.5t36.5 -16.5h319q20 0 35 -14l100 -100q14 -14 15 -35v-608q0 -20 -15 -35l-100 -101 q-14 -14 -35 -14h-477q-20 0 -35 14l-106 101q-14 14 -15 35v223q0 10 -4 35l-14 49q-10 33 22 32h256q35 0 25 -32l-16 -49q-6 -18 -7 -35v-64q0 -20 15 -35h2q14 -14 35 -14h157q20 0 35.5 14t16.5 35v287q0 20 -15.5 35.5t-36.5 15.5h-315q-20 0 -35 15l-106 102 q-14 14 -15 35v610q0 20 15 35l106 98q14 14 35 14h477q20 0 35 -14l100 -98q15 -15 15 -35z" glyph-name="s" horiz-adv-x="989" unicode="s"/><glyph d="M98 1556h781q29 0 30 -26l39 -227q2 -16 -5 -23.5t-23 -3.5l-60 14q-25 4 -35 4h-155q-20 0 -34.5 -14t-14.5 -35v-1128q0 -16 6 -35l16 -49q10 -33 -25 -33h-256q-35 0 -24 33l16 49q6 18 6 35v1128q0 20 -14 35h-2q-14 14 -35 14h-159q-10 0 -35 -4l-56 -14 q-32 -8 -28 27l37 227q1 26 30 26z" glyph-name="t" horiz-adv-x="978" unicode="t"/><glyph d="M633 1556h256q35 0 24 -32l-16 -51q-6 -18 -6 -35v-1288q0 -20 -14 -35l-103 -101q-14 -14 -35 -14h-479q-20 0 -35 14l-98 101q-14 14 -14 35v1288q0 16 -7 35l-16 51q-10 33 25 32h252q35 0 24 -32l-16 -51q-6 -18 -6 -35v-1129q0 -20 14 -35h2q14 -14 35 -14h160 q20 0 35 14t16 35v1129q0 16 -6 35l-17 51q-10 32 25 32z" glyph-name="u" horiz-adv-x="999" unicode="u"/><glyph d="M653 0h-291q-31 0 -24 33l12 43q2 18 0 37l-270 1276l-10 32l-41 103q-10 33 22 32h252q36 0 23 -40q-6 -23 -2 -37l165 -869q2 -14 9.5 -19t14.5 0t9 19l166 869q4 14 -2 37q-21 41 19 40h253q37 1 23 -32l-41 -101l-10 -32l-264 -1278q-2 -18 0 -37l12 -43 q6 -33 -25 -33z" glyph-name="v" horiz-adv-x="1011" unicode="v"/><glyph d="M1309 0h-289q-31 0 -25 33l13 43q4 25 0 37l-158 792q-2 12 -9 17.5t-14.5 0.5t-9.5 -18l-151 -792q-4 -12 0 -37l12 -43q6 -33 -25 -33h-291q-31 0 -24 33l12 43q2 18 0 37l-270 1276l-10 32l-41 103q-10 33 22 32h252q36 0 23 -40q-6 -23 -2 -37l165 -840 q2 -12 9.5 -17.5t14.5 0t9 17.5l166 813q4 12 0 37l-10 35q-6 33 24 32h261q31 0 24 -32l-10 -35q-2 -18 0 -37l168 -813q2 -14 9 -19.5t14.5 0t9.5 19.5l165 840q5 23 -6 45q-10 33 23 32h254q36 1 22 -32l-41 -101l-10 -32l-264 -1278q-2 -18 0 -37l12 -43q6 -33 -24 -33z " glyph-name="w" horiz-adv-x="1667" unicode="w"/><glyph d="M950 0h-286q-16 0 -23 9.5t6 32.5q14 23 6 42l-129 315q-6 16 -18 16.5t-19 -16.5l-129 -315q-10 -22 10 -53q19 -31 -22 -31h-285q-18 0 -23 10t5 25l41 51q10 12 16 31l262 645q6 18 0 37l-262 641q-6 18 -16 30l-41 52q-10 14 -5 24t23 10h287q37 0 23 -32l-6 -15 q-12 -16 -3 -39l125 -307q6 -16 18.5 -16t18.5 16l125 307q8 20 -3 44q-19 42 18 42h286q18 0 23.5 -10t-4.5 -24l-41 -52q-10 -12 -17 -30l-262 -641q-6 -19 0 -37l262 -645q6 -18 17 -31l41 -51q10 -14 5 -24.5t-24 -10.5z" glyph-name="x" horiz-adv-x="1011" unicode="x"/><glyph d="M666 524v-407q0 -10 4 -35l14 -49q10 -33 -22 -33h-250q-35 0 -25 33l16 49q6 18 7 35v407q0 16 -7 35l-305 866q-6 18 -16 31l-43 66q-20 35 18 34h301q39 0 22 -30t-11 -51l149 -492q10 -29 21.5 -20.5t15.5 20.5l150 492q6 21 -6.5 41t-6.5 30t23 10h301q39 0 18 -34 l-43 -66q-10 -13 -16 -31l-303 -866q-6 -18 -6 -35z" glyph-name="y" horiz-adv-x="1073" unicode="y"/><glyph d="M797 0h-688q-29 0 -29 29v215q0 18 8 35l467 983q8 14 2 23t-22 9h-347q-10 0 -34 -4l-60 -14q-16 -4 -23.5 3t-4.5 24l38 227q2 27 31 26h694q29 0 29 -28v-209q0 -18 -8 -35l-471 -989q-8 -14 -2 -23.5t22 -9.5h349q9 0 34 4l54 17q16 4 24 -3.5t6 -23.5l-39 -229 q-2 -27 -30 -27z" glyph-name="z" horiz-adv-x="931" unicode="z"/><glyph d="M610 -262h-311q-20 0 -35 14l-100 103q-14 14 -14 34v748q0 20 -15 35l-84 86q-20 20 0 41l84 86q14 14 15 35v745q0 20 14 35l100 102q14 14 35 15h311q29 0 29 -29v-203q0 -29 -29 -29h-149q-19 0 -35 -14t-16 -35v-1456q0 -21 15 -36t36 -15h149q29 0 29 -29v-204 q0 -29 -29 -29z" glyph-name="braceleft" horiz-adv-x="686" unicode="{"/><glyph d="M383 1700v-1845q0 -16 6 -35l17 -49q10 -33 -25 -33h-256q-35 0 -25 33l17 49q6 18 6 35v1845q0 16 -6 35l-17 51q-10 33 25 33h256q35 0 25 -33l-17 -51q-6 -19 -6 -35z" glyph-name="bar" horiz-adv-x="505" unicode="|"/><glyph d="M535 637v-748q0 -20 -15 -34l-98 -103q-14 -14 -35 -14h-311q-29 0 -29 29v204q0 29 29 29h149q21 0 36 15t15 36v1456q0 20 -14 35h-2q-14 14 -35 14h-149q-29 0 -29 29v203q0 29 29 29h311q20 0 35 -15l98 -102q14 -14 15 -35v-745q0 -20 14 -35l86 -86q20 -20 0 -41 l-86 -86q-14 -15 -14 -35z" glyph-name="braceright" horiz-adv-x="686" unicode="}"/><glyph d="M201 860h102q18 0 35 -8l133 -68q18 -10 39 0l43 23q18 8 27 27l14 28q14 33 39 8l29 -26q16 -18 8 -39l-27 -78q-4 -16 -18 -31l-60 -59q-14 -14 -35 -14h-96q-18 0 -35 8l-137 69q-16 12 -39 2l-49 -22q-14 -8 -35 -10l-43 -6q-34 -4 -26 28l20 68q6 18 21 31l55 55 q14 14 35 14z" glyph-name="asciitilde" horiz-adv-x="737" unicode="~"/><glyph d="M340 1196h-139q-20 0 -35 14l-62 62q-14 14 -14 35v139q0 20 14 35l62 61q14 14 35 14h139q20 0 35 -14l61 -61q14 -14 15 -35v-139q-1 -21 -15 -35l-61 -62q-14 -14 -35 -14zM397 0h-254q-35 0 -24 33l16 51q6 18 6 35v549l37 434q4 27 29 26h127q25 0 28 -26l37 -434 v-549q0 -16 7 -35l16 -51q10 -33 -25 -33z" glyph-name="exclamdown" horiz-adv-x="540" unicode="¡"/><glyph d="M616 621h256q35 0 25 -33l-16 -49q-6 -18 -7 -35v-228q0 -20 -14 -34l-100 -99q-14 -14 -35 -14h-238l-8 -102q-4 -27 -28 -27h-52q-31 0 -28 31l8 98h-131q-20 0 -35 14l-102 99q-14 14 -15 34v1004q0 20 15 35l102 100q14 14 35 15h239l9 100q4 27 28 26h51 q31 0 29 -30l-8 -96h129q20 0 35 -15l100 -100q14 -14 14 -35v-223q0 -16 7 -35l16 -49q10 -33 -25 -33h-256q-35 0 -22 33l16 49q6 18 6 35v65q0 38 -41 49l-65 -780h57q20 0 34.5 14.5t14.5 34.5v64q0 16 -6 35l-16 49q-13 33 22 33zM406 1171q-20 0 -36 -14t-16 -35v-682 q1 -20 15 -34h2q14 -14 30 -15l64 780h-59z" glyph-name="cent" horiz-adv-x="970" unicode="¢"/><glyph d="M866 262q10 0 35 4l53 17q16 4 24.5 -3.5t6.5 -23.5l-39 -229q-2 -27 -31 -27h-765q-29 0 -29 29v215q0 18 8 35l178 319q12 23 -2 37h-2q-14 14 -35 14h-92q-16 0 -35 -6l-49 -16q-33 -10 -33 24v256q0 35 33 25l49 -17q18 -6 35 -6h92q20 -1 36 15t15 37v448 q0 20 15 35l100 98q14 14 35 14h446q29 0 31 -26l39 -223q2 -16 -6 -23.5t-25 -3.5l-53 16q-25 4 -35 4h-239q-21 0 -36 -15t-16 -36v-288q-1 -19 15 -35t37 -17h92q16 0 35 6l49 17q33 10 33 -25v-256q0 -35 -33 -24l-49 16q-18 6 -35 6h-92q-21 0 -37 -16q-14 -10 -23 -29 l-170 -303q-20 -39 25 -39h444z" glyph-name="sterling" horiz-adv-x="1052" unicode="£"/><glyph d="M797 817h198q29 0 29 -29v-63q0 -29 -29 -29h-252q-23 0 -32 -22l-23 -66q-10 -33 25 -33h282q29 0 29 -28v-62q0 -29 -29 -28h-301q-29 0 -28 -29v-311q0 -10 4 -35l14 -49q10 -33 -22 -33h-250q-35 0 -25 33l16 49q6 18 7 35v311q0 29 -29 29h-305q-29 0 -29 28v62 q0 29 29 28h286q35 0 25 33l-22 66q-10 23 -33 22h-256q-29 0 -29 29v63q0 29 29 29h203q33 0 22 33l-203 575q-6 18 -16 31l-43 66q-20 35 18 34h301q39 0 22 -30t-11 -51l149 -492q10 -29 21.5 -20.5t15.5 20.5l150 492q6 21 -6 41q-13 20 -7 30t23 10h301q39 0 18 -34 l-43 -66q-10 -13 -16 -31l-201 -575q-12 -33 23 -33z" glyph-name="yen" horiz-adv-x="1073" unicode="¥"/><glyph d="M414 1196h323q20 0 35 -14l102 -99q14 -14 15 -34v-1158q0 -20 -15 -34l-102 -103q-14 -14 -35 -14h-479q-20 0 -35 14l-102 103q-14 14 -15 34v222q0 16 -6 34l-14 52q-10 33 23 32h256q35 0 24 -32l-16 -52q-6 -18 -6 -34v-62q0 -19 14 -35t35 -16h159q20 0 35 14v2 q14 14 15 35v264q-1 19 -15 35t-35 17h-317q-20 0 -35 14l-102 102q-14 14 -15 35v1153q0 20 15 35l102 98q14 14 35 15h479q20 0 35 -15l102 -98q14 -14 15 -35v-227q0 -16 6 -35l16 -49q10 -33 -24 -33h-258q-33 0 -23 33l15 49q4 25 4 35v63q0 20 -14.5 34.5t-35.5 14.5 h-159q-20 0 -34.5 -14t-14.5 -35v-262q-1 -21 13 -35t34 -14zM625 676v209q0 20 -14.5 34.5t-35.5 14.5h-159q-20 0 -34.5 -14.5t-14.5 -34.5v-209q0 -20 14 -36t35 -15h159q20 0 35 14v2q15 15 15 35z" glyph-name="section" horiz-adv-x="995" unicode="§"/><glyph d="M479 1987q20 0 35 -15l31 -33q14 -14 14 -34v-99q0 -20 -14 -34l-31 -31q-14 -14 -35 -15h-98q-20 0 -35 15l-31 31q-14 14 -14 34v99q0 20 14 34l31 33q14 14 35 15h98zM821 1987q20 0 35 -15l31 -33q14 -14 14 -34v-99q0 -20 -14 -34l-31 -31q-14 -14 -35 -15h-98 q-20 0 -35 15l-33 31q-14 14 -14 34v99q0 20 14 34l33 33q14 14 35 15h98z" glyph-name="dieresis" horiz-adv-x="1202" unicode="¨"/><glyph d="M61 1155q0 12 11 19l655 376q10 6 21 0l655 -376q10 -6 10 -19v-754q0 -12 -10 -18l-655 -377q-10 -6 -21 0l-655 377q-10 6 -11 18v754zM1284 475v604q0 14 -10 19l-526 303q-10 4 -21 0l-526 -303q-10 -4 -11 -19v-604q0 -12 11 -18l526 -301q10 -4 21 0l526 301 q10 6 10 18zM514 1141q0 10 8 18l60 60q8 8 18 8h279q10 0 18 -8l57 -60q8 -8 9 -18v-131q0 -10 2 -17l10 -32q6 -16 -10 -17h-152q-18 0 -12 17l12 32q2 6 2 17v41q0 10 -10 20q-10 6 -19 6h-94q-10 0 -19 -8t-9 -18v-543q0 -11 10 -21q10 -6 18 -6h94q14 0 21 11q8 6 8 16 v41q0 10 -4 16l-10 31q-6 16 12 16h152q16 0 10 -16l-10 -31q-2 -6 -2 -16v-135q0 -10 -9 -19l-57 -57q-8 -8 -18 -8h-279q-10 0 -18 8l-60 57q-8 8 -8 19v727z" glyph-name="copyright" horiz-adv-x="1474" unicode="©"/><glyph d="M313 1300q37 0 37 37v56q0 20 -8 28.5t-29 8.5h-141q-5 0 -34 -6t-36.5 2t-5.5 24l15 80q2 27 30 26h254q20 0 35 -14l33 -33q14 -14 14 -34v-482q0 -17 10 -49t-24 -31h-289q-20 0 -35 15l-35 33q-14 14 -14 34v219q0 20 14 35l35 37q14 14 35 14h139zM313 1040 q37 0 37 37v58q0 20 -8 28q-10 6 -29 6h-57q-18 0 -29 -6q-8 -8 -8 -28v-60q0 -20 8 -27t29 -8h57zM477 754v-72q0 -29 -28 -29h-330q-29 0 -29 29v72q0 29 29 28h330q28 1 28 -28z" glyph-name="ordfeminine" horiz-adv-x="571" unicode="ª"/><glyph d="M342 797q-10 -18 0 -37l213 -469q8 -25 -6 -39l-51 -51q-23 -23 -39 4l-299 469q-16 20 -23 26l-57 58q-20 20 0 41l57 57q6 6 23 27l299 471q16 27 39 4l51 -51q14 -14 6 -39zM735 797q-10 -18 0 -37l213 -469q8 -25 -6 -39l-51 -51q-23 -23 -39 4l-299 469 q-16 20 -23 26l-57 58q-20 20 0 41l57 57q6 6 23 27l299 471q16 27 39 4l51 -51q14 -14 6 -39z" glyph-name="guillemotleft" horiz-adv-x="1019" unicode="«"/><glyph d="M41 1114v410q0 4 6 10l354 203q6 6 13 0l352 -203q6 -6 6 -10v-410q0 -4 -6 -10l-352 -203q-6 -6 -13 0l-354 203q-6 6 -6 10zM702 1153v330q0 4 -6 10l-282 164q-6 6 -13 0l-284 -164q-6 -6 -6 -10v-330q0 -4 6 -10l284 -162q6 -6 13 0l282 162q6 6 6 10zM418 1251.5 q0 2.5 -12 8.5h-15q-14 0 -14 -17v-133q0 -6 2 -8l4 -17q4 -10 -6 -10h-82q-10 0 -6 10l4 17q2 2 2 8v416q0 6 -2 8l-4 16q-4 10 6 11h197q6 0 10 -5l33 -30q4 -4 4 -10v-209q0 -6 -4 -11l-33 -32q-4 -4 -2 -11l32 -145l9 -23q4 -10 -6 -10h-80q-12 0 -9 8l5 17q4 6 0 12 l-31 135q-2 2 -2 4.5zM442 1339q17 0 17 17v108q0 17 -17 17h-51q-14 0 -14 -17v-108q0 -8 4 -10v-3q4 -4 10 -4h51z" glyph-name="registered" horiz-adv-x="815" unicode="®"/><glyph d="M1081 1903v-97q0 -20 -14 -34l-31 -31q-14 -14 -35 -15h-620q-20 0 -35 15l-31 31q-14 14 -14 34v97q0 20 14 34l31 31q14 14 35 14h620q21 0 35 -14l31 -31q14 -14 14 -34z" glyph-name="macron" horiz-adv-x="1382" unicode="¯"/><glyph d="M195 1556h172q20 0 34 -14l84 -82q14 -14 15 -35v-176q0 -20 -15 -35l-84 -86q-14 -14 -34 -14h-172q-20 0 -35 14l-86 86q-14 14 -15 35v176q0 20 15 35l86 82q15 14 35 14zM330 1466h-99q-20 0 -34 -14l-33 -31q-14 -14 -14 -35v-100q0 -20 14 -35l33 -32 q14 -14 34 -15h99q20 0 35 15l30 32q14 14 15 35v100q-1 21 -15 35l-30 31q-14 14 -35 14z" glyph-name="degree" horiz-adv-x="559" unicode="°"/><glyph d="M358 1788l160 323q8 14 25 27l84 49q23 16 39 -6l100 -115q18 -18 -2 -38l-322 -285q-18 -18 -41 -6l-28 12q-27 14 -15 39z" glyph-name="acute" horiz-adv-x="1085" unicode="´"/><glyph d="M1323 1438v-1583q0 -16 6 -35l17 -49q10 -33 -25 -33h-256q-35 0 -25 33l17 49q6 18 6 35v1394q0 21 -15 36t-36 15h-123q-20 0 -35 -14v-2q-14 -14 -14 -35v-1394q0 -16 6 -35l16 -49q10 -33 -24 -33h-256q-35 0 -25 33l16 49q6 18 7 35v741q0 20 -16 36t-36 15h-319 q-20 0 -35 15l-100 102q-14 14 -15 35v610q0 20 15 35l100 98q14 14 35 14h1112q35 0 25 -32l-17 -51q-6 -19 -6 -35z" glyph-name="paragraph" horiz-adv-x="1445" unicode="¶"/><glyph d="M186 958h140q20 0 34 -14l62 -61q14 -14 14 -35v-139q0 -20 -14 -35l-62 -62q-14 -14 -34 -14h-140q-20 0 -34 14l-62 62q-14 14 -14 35v139q0 21 14 35l62 61q14 14 34 14z" glyph-name="periodcentered" horiz-adv-x="509" unicode="·"/><glyph d="M422 0h90q20 0 35 -14l55 -56q14 -14 14 -34v-66q0 -18 -12 -37l-41 -51q-16 -16 -26 -25l-62 -39q-18 -12 -39 -6l-53 17q-14 4 -17.5 15t7.5 22l69 69q14 14 15 35v66q-1 20 -15 34l-34 35q-14 14 -10.5 24.5t24.5 10.5z" glyph-name="cedilla" horiz-adv-x="962" unicode="¸"/><glyph d="M481 1475v-480q0 -20 -14 -34l-37 -33q-14 -14 -35 -15h-219q-20 0 -35 15l-35 33q-16 14 -16 34v480q0 20 14 34l37 33q14 14 35 14h219q20 0 35 -14l35 -33q16 -14 16 -34zM313 1038q37 0 37 37v318q0 20 -8 28.5t-29 8.5h-57q-37 0 -37 -37v-320q0 -20 8 -27t29 -8h57 zM481 754v-72q0 -29 -28 -29h-334q-29 0 -29 29v72q0 29 29 28h334q28 1 28 -28z" glyph-name="ordmasculine" horiz-adv-x="571" unicode="º"/><glyph d="M465 883q16 -20 22 -27l58 -57q20 -20 0 -41l-58 -58q-6 -6 -22 -26l-299 -469q-16 -27 -39 -4l-51 51q-14 14 -6 39l215 469q10 18 0 37l-215 471q-8 25 6 39l51 51q23 23 39 -4zM858 883q16 -20 23 -27l57 -57q20 -20 0 -41l-57 -58q-6 -6 -23 -26l-299 -469 q-16 -27 -39 -4l-51 51q-14 14 -6 39l215 469q10 18 0 37l-215 471q-8 25 6 39l51 51q23 23 39 -4z" glyph-name="guillemotright" horiz-adv-x="1019" unicode="»"/><glyph d="M612 1196h-139q-20 0 -35 14l-61 62q-14 14 -15 35v139q0 20 15 35l61 61q14 14 35 14h139q20 0 35 -14l62 -61q14 -14 14 -35v-139q0 -21 -14 -35l-62 -62q-14 -14 -35 -14zM719 0h-481q-20 0 -35 14l-99 103q-14 14 -14 35v602q0 20 14 34l99 105q14 14 35 14h127 q20 1 35 15t16 34v25q0 10 4 35l26 88q6 25 31 24h131q23 0 33 -24l27 -88q4 -25 4 -35v-186q0 -20 -15 -35l-100 -98q-14 -14 -35 -15h-123q-20 0 -34 -14v-2q-14 -14 -15 -35v-285q0 -20 14.5 -34.5t34.5 -14.5h156q19 0 35 14t16 35v64q0 16 -6 35l-14 49q-10 33 22 33 h258q35 0 25 -33l-17 -49q-6 -18 -6 -35v-223q0 -20 -14 -35l-100 -103q-15 -14 -35 -14z" glyph-name="questiondown" horiz-adv-x="962" unicode="¿"/><glyph d="M330 2066l102 115q16 23 39 6l84 -49q16 -12 25 -27l159 -323q12 -25 -14 -39l-31 -14q-25 -8 -41 8l-319 285q-22 20 -4 38zM1018 0h-254q-37 0 -25 30t9 50l-50 201q-2 16 -18 32t-37 17h-215q-20 0 -36 -16t-19 -33l-49 -201q-5 -21 7 -50q11 -30 -24 -30h-254 q-37 0 -20 35l26 53q10 20 13 33l311 1327q4 18 -2 37l-12 39q-10 33 24 32h285q35 0 24 -32l-12 -39q-6 -19 -2 -37l311 -1327q2 -12 13 -33l26 -53q8 -14 2 -24.5t-22 -10.5zM592 592q45 0 41 45l-80 391q-2 14 -9 19.5t-14.5 0t-9.5 -19.5l-80 -391q-4 -45 41 -45h111z " glyph-name="Agrave" unicode="À"/><glyph d="M358 1788l160 323q8 14 25 27l84 49q23 16 39 -6l100 -115q18 -18 -2 -38l-322 -285q-18 -18 -41 -6l-28 12q-27 14 -15 39zM1018 0h-254q-37 0 -25 30t9 50l-50 201q-2 16 -18 32t-37 17h-215q-20 0 -36 -16t-19 -33l-49 -201q-5 -21 7 -50q11 -30 -24 -30h-254 q-37 0 -20 35l26 53q10 20 13 33l311 1327q4 18 -2 37l-12 39q-10 33 24 32h285q35 0 24 -32l-12 -39q-6 -19 -2 -37l311 -1327q2 -12 13 -33l26 -53q8 -14 2 -24.5t-22 -10.5zM592 592q45 0 41 45l-80 391q-2 14 -9 19.5t-14.5 0t-9.5 -19.5l-80 -391q-4 -45 41 -45h111z " glyph-name="Aacute" unicode="Á"/><glyph d="M688 1733q-25 0 -35 22l-94 209q-10 23 -26.5 23t-28.5 -23l-94 -209q-12 -23 -35 -22h-101q-37 0 -20 34l115 240q8 16 20 29l113 114q30 30 59 0l115 -114q12 -12 20 -29l115 -240q16 -35 -20 -34h-103zM1018 0h-254q-37 0 -25 30t9 50l-50 201q-2 16 -18 32t-37 17 h-215q-20 0 -36 -16t-19 -33l-49 -201q-5 -21 7 -50q11 -30 -24 -30h-254q-37 0 -20 35l26 53q10 20 13 33l311 1327q4 18 -2 37l-12 39q-10 33 24 32h285q35 0 24 -32l-12 -39q-6 -19 -2 -37l311 -1327q2 -12 13 -33l26 -53q8 -14 2 -24.5t-22 -10.5zM592 592q45 0 41 45 l-80 391q-2 14 -9 19.5t-14.5 0t-9.5 -19.5l-80 -391q-4 -45 41 -45h111z" glyph-name="Acircumflex" unicode="Â"/><glyph d="M362 1999h103q18 0 35 -8l137 -68q18 -12 39 0l39 19q18 10 26 26l17 33q16 31 41 6l24 -25q16 -16 8 -38l-24 -78q-4 -14 -19 -33l-57 -57q-14 -14 -35 -15h-102q-18 0 -35 8l-133 70q-16 12 -39 2l-49 -22q-14 -8 -35 -11l-45 -8q-16 -4 -23.5 5.5t-1.5 25.5l21 65 q4 14 18 33l56 56q14 14 34 14zM1018 0h-254q-37 0 -25 30t9 50l-50 201q-2 16 -18 32t-37 17h-215q-20 0 -36 -16t-19 -33l-49 -201q-5 -21 7 -50q11 -30 -24 -30h-254q-37 0 -20 35l26 53q10 20 13 33l311 1327q4 18 -2 37l-12 39q-10 33 24 32h285q35 0 24 -32l-12 -39 q-6 -19 -2 -37l311 -1327q2 -12 13 -33l26 -53q8 -14 2 -24.5t-22 -10.5zM592 592q45 0 41 45l-80 391q-2 14 -9 19.5t-14.5 0t-9.5 -19.5l-80 -391q-4 -45 41 -45h111z" glyph-name="Atilde" unicode="Ã"/><glyph d="M408 1987q20 0 34 -15l33 -33q14 -14 14 -34v-99q0 -20 -14 -34l-33 -31q-14 -14 -34 -15h-95q-20 0 -34 15l-33 31q-14 14 -15 34v99q1 20 15 34l33 33q14 14 34 15h95zM754 1987q20 0 34 -15l31 -33q14 -14 15 -34v-99q0 -20 -15 -34l-31 -31q-14 -14 -34 -15h-101 q-20 0 -35 15l-30 31q-14 14 -15 34v99q1 20 15 34l30 33q14 14 35 15h101zM1018 0h-254q-37 0 -25 30t9 50l-50 201q-2 16 -18 32t-37 17h-215q-20 0 -36 -16t-19 -33l-49 -201q-5 -21 7 -50q11 -30 -24 -30h-254q-37 0 -20 35l26 53q10 20 13 33l311 1327q4 18 -2 37 l-12 39q-10 33 24 32h285q35 0 24 -32l-12 -39q-6 -19 -2 -37l311 -1327q2 -12 13 -33l26 -53q8 -14 2 -24.5t-22 -10.5zM592 592q45 0 41 45l-80 391q-2 14 -9 19.5t-14.5 0t-9.5 -19.5l-80 -391q-4 -45 41 -45h111z" glyph-name="Adieresis" unicode="Ä"/><glyph d="M446 2181h172q20 0 35 -14l84 -84q14 -14 15 -35v-176q0 -20 -15 -35l-84 -86q-14 -14 -35 -14h-172q-20 0 -34 14l-86 86q-14 14 -15 35v176q0 20 15 35l86 84q14 14 34 14zM580 2091h-99q-20 0 -35 -14l-30 -33q-14 -14 -15 -35v-100q0 -20 15 -35l30 -33 q14 -14 35 -14h99q20 0 34 14l33 33q14 14 15 35v100q-1 21 -15 35l-33 33q-14 14 -34 14zM1018 0h-254q-37 0 -25 30t9 50l-50 201q-2 16 -18 32t-37 17h-215q-20 0 -36 -16t-19 -33l-49 -201q-5 -21 7 -50q11 -30 -24 -30h-254q-37 0 -20 35l26 53q10 20 13 33l311 1327 q4 18 -2 37l-12 39q-10 33 24 32h285q35 0 24 -32l-12 -39q-6 -19 -2 -37l311 -1327q2 -12 13 -33l26 -53q8 -14 2 -24.5t-22 -10.5zM592 592q45 0 41 45l-80 391q-2 14 -9 19.5t-14.5 0t-9.5 -19.5l-80 -391q-4 -45 41 -45h111z" glyph-name="Aring" unicode="Å"/><glyph d="M743 289q0 45 -41 45h-202q-24 0 -43.5 -16.5t-28.5 -34.5l-86 -203q-8 -16 -6 -35v-14q4 -29 -27 -29h-252q-39 0 -18 35l39 57q10 12 16 31l592 1325q8 18 6 35l-4 41q-4 31 29 30h745q29 0 31 -26l37 -223q2 -16 -6 -23.5t-25 -3.5l-53 16q-25 4 -35 4h-360 q-21 0 -36 -15t-16 -36l7 -297q4 -41 45 -43h92q16 0 35 6l51 17q33 10 33 -25v-256q0 -35 -33 -24l-51 16q-18 6 -35 6h-92q-20 0 -28.5 -8t-8.5 -29l8 -321q0 -20 4 -24.5t25 -4.5h360q10 0 35 4l53 17q16 4 24.5 -3.5t6.5 -23.5l-37 -229q-2 -27 -31 -27h-717 q-35 0 -24 33l16 51q6 18 6 35v170zM743 629v338q0 20 -12 23t-20 -17l-140 -334q-10 -23 2 -31q10 -12 31 -12h103q18 0 28 6q8 7 8 27z" glyph-name="AE" horiz-adv-x="1564" unicode="Æ"/><glyph d="M616 492h256q35 0 25 -33l-16 -49q-6 -18 -7 -35v-225q0 -20 -14 -35l-100 -101q-14 -14 -35 -14h-135q-18 0 -23.5 -10t8.5 -25l33 -33q14 -14 15 -34v-68q0 -18 -13 -37l-41 -51q-10 -14 -24 -25l-66 -41q-18 -10 -39 -4l-51 17q-39 10 -10 37l67 69q14 14 15 35v68 q0 20 -15 34l-49 54q-14 14 -35 14h-114q-20 0 -35 14l-102 101q-14 14 -15 35v1259q0 20 15 35l102 98q14 14 35 14h477q20 0 35 -14l100 -98q14 -14 14 -35v-223q0 -16 7 -35l16 -49q10 -33 -25 -33h-256q-35 0 -22 33l16 49q6 18 6 35v63q0 19 -14 35t-35 16h-161 q-21 0 -36 -15t-16 -36v-936q0 -20 15 -34q11 -17 37 -17h161q20 0 35 14v3q14 14 14 34v62q0 17 -6 35l-16 49q-12 33 22 33z" glyph-name="Ccedilla" horiz-adv-x="978" unicode="Ç"/><glyph d="M258 2066l102 115q16 23 39 6l84 -49q16 -12 25 -27l160 -323q12 -25 -15 -39l-30 -14q-25 -8 -41 8l-320 285q-22 20 -4 38zM831 0h-716q-35 0 -25 33l16 51q6 18 7 35v1321q0 16 -7 35l-16 49q-10 33 25 32h716q29 0 31 -26l37 -223q2 -16 -6 -23.5t-25 -3.5l-53 16 q-25 4 -35 4h-360q-21 0 -36 -15t-15 -36v-280q0 -21 15 -36t36 -15h92q16 0 35 6l51 16q33 10 33 -25v-256q0 -35 -33 -24l-51 16q-18 6 -35 6h-92q-20 0 -36 -14t-15 -35v-295q0 -13 16 -37q14 -14 35 -14h360q10 0 35 4l53 17q16 4 24.5 -3.5t6.5 -23.5l-37 -229 q-2 -27 -31 -27z" glyph-name="Egrave" horiz-adv-x="933" unicode="È"/><glyph d="M285 1788l159 323q8 14 25 27l84 49q23 16 39 -6l102 -115q18 -18 -2 -38l-321 -285q-18 -18 -41 -6l-31 12q-26 14 -14 39zM831 0h-716q-35 0 -25 33l16 51q6 18 7 35v1321q0 16 -7 35l-16 49q-10 33 25 32h716q29 0 31 -26l37 -223q2 -16 -6 -23.5t-25 -3.5l-53 16 q-25 4 -35 4h-360q-21 0 -36 -15t-15 -36v-280q0 -21 15 -36t36 -15h92q16 0 35 6l51 16q33 10 33 -25v-256q0 -35 -33 -24l-51 16q-18 6 -35 6h-92q-20 0 -36 -14t-15 -35v-295q0 -13 16 -37q14 -14 35 -14h360q10 0 35 4l53 17q16 4 24.5 -3.5t6.5 -23.5l-37 -229 q-2 -27 -31 -27z" glyph-name="Eacute" horiz-adv-x="933" unicode="É"/><glyph d="M717 1733h-101q-23 0 -34 22l-95 209q-12 23 -28 23t-27 -23l-94 -209q-10 -23 -35 -22h-100q-16 0 -22.5 9t1.5 23l113 242q8 16 20 29l115 114q31 31 59 0l115 -114q12 -12 21 -29l112 -242q8 -14 2 -23t-22 -9zM831 0h-716q-35 0 -25 33l16 51q6 18 7 35v1321 q0 16 -7 35l-16 49q-10 33 25 32h716q29 0 31 -26l37 -223q2 -16 -6 -23.5t-25 -3.5l-53 16q-25 4 -35 4h-360q-21 0 -36 -15t-15 -36v-280q0 -21 15 -36t36 -15h92q16 0 35 6l51 16q33 10 33 -25v-256q0 -35 -33 -24l-51 16q-18 6 -35 6h-92q-20 0 -36 -14t-15 -35v-295 q0 -13 16 -37q14 -14 35 -14h360q10 0 35 4l53 17q16 4 24.5 -3.5t6.5 -23.5l-37 -229q-2 -27 -31 -27z" glyph-name="Ecircumflex" horiz-adv-x="933" unicode="Ê"/><glyph d="M338 1987q20 0 35 -15l30 -33q14 -14 15 -34v-99q0 -20 -15 -34l-30 -31q-14 -14 -35 -15h-98q-20 0 -35 15l-33 31q-14 14 -14 34v99q0 20 14 34l33 33q14 14 35 15h98zM680 1987q20 0 35 -15l30 -33q14 -14 15 -34v-99q0 -20 -15 -34l-30 -31q-14 -14 -35 -15h-96 q-20 0 -35 15l-33 31q-14 14 -14 34v99q0 20 14 34l33 33q14 14 35 15h96zM831 0h-716q-35 0 -25 33l16 51q6 18 7 35v1321q0 16 -7 35l-16 49q-10 33 25 32h716q29 0 31 -26l37 -223q2 -16 -6 -23.5t-25 -3.5l-53 16q-25 4 -35 4h-360q-21 0 -36 -15t-15 -36v-280 q0 -21 15 -36t36 -15h92q16 0 35 6l51 16q33 10 33 -25v-256q0 -35 -33 -24l-51 16q-18 6 -35 6h-92q-20 0 -36 -14t-15 -35v-295q0 -13 16 -37q14 -14 35 -14h360q10 0 35 4l53 17q16 4 24.5 -3.5t6.5 -23.5l-37 -229q-2 -27 -31 -27z" glyph-name="Edieresis" horiz-adv-x="933" unicode="Ë"/><glyph d="M-20 2066l100 115q16 23 39 6l84 -49q16 -12 24 -27l160 -323q12 -25 -14 -39l-29 -12q-23 -12 -41 6l-321 285q-20 20 -2 38zM379 1438v-1321q0 -16 6 -35l16 -49q10 -33 -24 -33h-252q-35 0 -25 33l17 49q6 18 6 35v1321q0 16 -6 35l-17 51q-10 33 25 32h252 q35 0 24 -32l-16 -51q-6 -19 -6 -35z" glyph-name="Igrave" horiz-adv-x="491" unicode="Ì"/><glyph d="M104 1788l160 323q8 14 25 27l84 49q23 16 39 -6l102 -115q18 -18 -2 -38l-322 -285q-18 -18 -40 -6l-31 12q-27 14 -15 39zM369 1438v-1321q0 -16 6 -35l16 -49q10 -33 -24 -33h-252q-35 0 -25 33l16 49q6 18 7 35v1321q0 16 -7 35l-16 51q-10 33 25 32h252q35 0 24 -32 l-16 -51q-6 -19 -6 -35z" glyph-name="Iacute" horiz-adv-x="491" unicode="Í"/><glyph d="M514 1733h-98q-23 0 -35 22l-94 209q-12 23 -28.5 23t-29.5 -23l-94 -209q-12 -23 -35 -22h-98q-16 0 -22.5 9t2.5 23l110 242q8 16 21 29l116 114q29 29 58 0l116 -114q12 -12 21 -29l111 -242q8 -14 1.5 -23t-22.5 -9zM387 1438v-1321q0 -16 6 -35l17 -49 q10 -33 -25 -33h-252q-35 0 -24 33l16 49q6 18 6 35v1321q0 16 -6 35l-16 51q-10 33 24 32h252q35 0 25 -32l-17 -51q-6 -19 -6 -35z" glyph-name="Icircumflex" horiz-adv-x="516" unicode="Î"/><glyph d="M135 1987q20 0 35 -15l31 -33q14 -14 14 -34v-99q0 -20 -14 -34l-31 -31q-14 -14 -35 -15h-96q-20 0 -35 15l-31 31q-14 14 -14 34v99q0 20 14 34l31 33q14 14 35 15h96zM479 1987q20 0 35 -15l31 -33q14 -14 14 -34v-99q0 -20 -14 -34l-31 -31q-14 -14 -35 -15h-98 q-20 0 -35 15l-31 31q-14 14 -14 34v99q0 20 14 34l31 33q14 14 35 15h98zM387 1438v-1321q0 -16 6 -35l17 -49q10 -33 -25 -33h-252q-35 0 -24 33l16 49q6 18 6 35v1321q0 16 -6 35l-16 51q-10 33 24 32h252q35 0 25 -32l-17 -51q-6 -19 -6 -35z" glyph-name="Idieresis" horiz-adv-x="516" unicode="Ï"/><glyph d="M145 961v479q0 16 -6 35l-14 49q-10 33 22 32h631q20 0 35 -14l98 -98q14 -14 15 -35v-1259q0 -20 -15 -35l-98 -101q-14 -14 -35 -14h-628q-35 0 -25 33l14 51q6 18 6 35v481q0 20 -14 35h-2q-14 14 -35 14h-49q-29 0 -29 29v203q0 29 29 28h49q20 0 36 16t15 36z M612 1300h-155q-21 0 -35 -15t-14 -36v-288q0 -19 14 -35t35 -17h49q29 0 29 -28v-203q0 -29 -29 -29h-49q-20 0 -34.5 -14t-14.5 -35v-287q0 -20 14 -35t35 -16h155q20 0 35 14q16 25 17 37v936q0 19 -16 35t-36 16z" glyph-name="Eth" horiz-adv-x="1021" unicode="Ð"/><glyph d="M383 1999h104q18 0 35 -8l135 -68q20 -12 41 0l37 19q18 8 27 26l16 33q16 31 41 6l25 -25q16 -16 8 -38l-27 -78q-4 -14 -18 -33l-55 -57q-14 -14 -35 -15h-101q-18 0 -34 8l-138 70q-16 12 -38 2l-46 -22q-14 -8 -34 -11l-45 -8q-16 -2 -23.5 6.5t-3.5 24.5l18 65 q4 16 21 33l55 56q14 14 35 14zM369 838v-721q0 -16 6 -35l16 -49q10 -33 -24 -33h-252q-35 0 -25 33l16 49q6 18 7 35v1321q0 16 -7 35l-16 51q-10 33 25 32h229q25 0 33 -22l336 -823q8 -20 20 -17.5t12 23.5v721q0 16 -6 35l-16 51q-10 33 25 32h256q35 0 24 -32l-16 -51 q-6 -18 -6 -35v-1321q0 -16 6 -35l16 -49q10 -33 -24 -33h-234q-25 0 -33 23l-336 821q-8 20 -20 17t-12 -23z" glyph-name="Ntilde" horiz-adv-x="1118" unicode="Ñ"/><glyph d="M283 2066l100 115q16 23 39 6l84 -49q16 -12 24 -27l160 -323q12 -25 -14 -39l-29 -12q-23 -12 -41 6l-321 285q-20 20 -2 38zM248 1556h477q20 0 35 -14l100 -98q14 -14 14 -35v-1259q0 -20 -14 -35l-100 -101q-14 -14 -35 -14h-477q-20 0 -35 14l-102 101 q-14 14 -15 35v1259q0 20 15 35l102 98q15 14 35 14zM612 309v936q0 20 -14 35h-2q-14 14 -35 14h-155q-20 0 -36 -14t-16 -35v-936q0 -20 15 -35h2q14 -14 35 -14h155q19 0 35 14t16 35z" glyph-name="Ograve" horiz-adv-x="970" unicode="Ò"/><glyph d="M309 1788l160 323q8 14 25 27l84 49q23 16 38 -6l103 -115q18 -18 -2 -38l-322 -285q-18 -18 -41 -6l-30 12q-27 14 -15 39zM248 1556h477q20 0 35 -14l100 -98q14 -14 14 -35v-1259q0 -20 -14 -35l-100 -101q-14 -14 -35 -14h-477q-20 0 -35 14l-102 101q-14 14 -15 35 v1259q0 20 15 35l102 98q15 14 35 14zM612 309v936q0 20 -14 35h-2q-14 14 -35 14h-155q-20 0 -36 -14t-16 -35v-936q0 -20 15 -35h2q14 -14 35 -14h155q19 0 35 14t16 35z" glyph-name="Oacute" horiz-adv-x="970" unicode="Ó"/><glyph d="M641 1733q-23 0 -35 22l-94 209q-12 23 -28 23t-27 -23l-95 -209q-10 -23 -34 -22h-103q-37 0 -20 34l114 240q8 16 21 29l115 114q30 30 59 0l113 -114q12 -12 20 -29l115 -240q16 -35 -21 -34h-100zM248 1556h477q20 0 35 -14l100 -98q14 -14 14 -35v-1259 q0 -20 -14 -35l-100 -101q-14 -14 -35 -14h-477q-20 0 -35 14l-102 101q-14 14 -15 35v1259q0 20 15 35l102 98q15 14 35 14zM612 309v936q0 20 -14 35h-2q-14 14 -35 14h-155q-20 0 -36 -14t-16 -35v-936q0 -20 15 -35h2q14 -14 35 -14h155q19 0 35 14t16 35z" glyph-name="Ocircumflex" horiz-adv-x="970" unicode="Ô"/><glyph d="M330 1999h102q18 0 35 -8l137 -68q18 -12 39 0l39 19q18 10 27 26l16 33q16 31 41 6l25 -25q16 -16 8 -38l-25 -78q-4 -14 -18 -33l-58 -57q-14 -14 -34 -15h-103q-18 0 -35 8l-137 70q-16 12 -39 2l-45 -22q-14 -8 -35 -11l-45 -8q-16 -4 -23 5.5t-1 25.5l20 65 q4 14 19 33l55 56q14 14 35 14zM248 1556h477q20 0 35 -14l100 -98q14 -14 14 -35v-1259q0 -20 -14 -35l-100 -101q-14 -14 -35 -14h-477q-20 0 -35 14l-102 101q-14 14 -15 35v1259q0 20 15 35l102 98q15 14 35 14zM612 309v936q0 20 -14 35h-2q-14 14 -35 14h-155 q-20 0 -36 -14t-16 -35v-936q0 -20 15 -35h2q14 -14 35 -14h155q19 0 35 14t16 35z" glyph-name="Otilde" horiz-adv-x="970" unicode="Õ"/><glyph d="M362 1987q20 0 35 -15l31 -33q14 -14 14 -34v-99q0 -20 -14 -34l-31 -31q-14 -14 -35 -15h-98q-20 0 -35 15l-32 31q-14 14 -15 34v99q1 20 15 34l32 33q14 14 35 15h98zM705 1987q20 0 34 -15l31 -33q14 -14 14 -34v-99q0 -20 -14 -34l-31 -31q-14 -14 -34 -15h-97 q-20 0 -35 15l-32 31q-14 14 -15 34v99q1 20 15 34l32 33q14 14 35 15h97zM248 1556h477q20 0 35 -14l100 -98q14 -14 14 -35v-1259q0 -20 -14 -35l-100 -101q-14 -14 -35 -14h-477q-20 0 -35 14l-102 101q-14 14 -15 35v1259q0 20 15 35l102 98q15 14 35 14zM612 309v936 q0 20 -14 35h-2q-14 14 -35 14h-155q-20 0 -36 -14t-16 -35v-936q0 -20 15 -35h2q14 -14 35 -14h155q19 0 35 14t16 35z" glyph-name="Odieresis" horiz-adv-x="970" unicode="Ö"/><glyph d="M874 1409v-1259q0 -20 -14 -35l-100 -101q-14 -14 -35 -14h-477q-20 0 -35 14l-102 101q-14 14 -15 35v1259q0 20 15 35l102 98q14 14 35 14h477q21 0 35 -14l100 -98q14 -14 14 -35zM492 1294h-84q-20 0 -35 -14t-15 -35v-565q0 -10 13.5 -11t17.5 9l127 586 q7 30 -24 30zM614 309v588q0 10 -14 11t-16 -9l-133 -608q-6 -31 26 -31h86q21 0 35 14h2q14 14 14 35z" glyph-name="Oslash" horiz-adv-x="970" unicode="Ø"/><glyph d="M264 2066l103 115q16 23 39 6l83 -49q16 -12 25 -27l160 -323q12 -25 -15 -39l-30 -14q-25 -8 -41 8l-320 285q-22 20 -4 38zM633 1556h256q35 0 24 -32l-16 -51q-6 -18 -6 -35v-1288q0 -20 -14 -35l-103 -101q-14 -14 -35 -14h-479q-20 0 -35 14l-98 101q-14 14 -14 35 v1288q0 16 -7 35l-16 51q-10 33 25 32h252q35 0 24 -32l-16 -51q-6 -18 -6 -35v-1129q0 -20 14 -35h2q14 -14 35 -14h160q20 0 35 14t16 35v1129q0 16 -6 35l-17 51q-10 32 25 32z" glyph-name="Ugrave" horiz-adv-x="999" unicode="Ù"/><glyph d="M350 1788l160 323q8 14 25 27l83 49q23 16 39 -6l103 -115q18 -18 -2 -38l-322 -285q-18 -18 -41 -6l-30 12q-27 14 -15 39zM633 1556h256q35 0 24 -32l-16 -51q-6 -18 -6 -35v-1288q0 -20 -14 -35l-103 -101q-14 -14 -35 -14h-479q-20 0 -35 14l-98 101q-14 14 -14 35 v1288q0 16 -7 35l-16 51q-10 33 25 32h252q35 0 24 -32l-16 -51q-6 -18 -6 -35v-1129q0 -20 14 -35h2q14 -14 35 -14h160q20 0 35 14t16 35v1129q0 16 -6 35l-17 51q-10 32 25 32z" glyph-name="Uacute" horiz-adv-x="999" unicode="Ú"/><glyph d="M657 1733q-23 0 -34 22l-95 209q-12 23 -28 23t-27 -23l-94 -209q-10 -23 -35 -22h-100q-39 0 -21 34l115 240q8 16 20 29l113 114q31 31 59 0l115 -114q12 -12 21 -29l116 -240q16 -35 -20 -34h-105zM633 1556h256q35 0 24 -32l-16 -51q-6 -18 -6 -35v-1288 q0 -20 -14 -35l-103 -101q-14 -14 -35 -14h-479q-20 0 -35 14l-98 101q-14 14 -14 35v1288q0 16 -7 35l-16 51q-10 33 25 32h252q35 0 24 -32l-16 -51q-6 -18 -6 -35v-1129q0 -20 14 -35h2q14 -14 35 -14h160q20 0 35 14t16 35v1129q0 16 -6 35l-17 51q-10 32 25 32z" glyph-name="Ucircumflex" horiz-adv-x="999" unicode="Û"/><glyph d="M375 1987q20 0 35 -15l32 -33q14 -14 15 -34v-99q0 -20 -15 -34l-32 -31q-14 -14 -35 -15h-94q-20 0 -35 15l-33 31q-14 14 -14 34v99q0 20 14 34l33 33q14 14 35 15h94zM723 1987q20 0 35 -15l30 -33q14 -14 15 -34v-99q0 -20 -15 -34l-30 -31q-14 -14 -35 -15h-98 q-20 0 -35 15l-33 31q-14 14 -14 34v99q0 20 14 34l33 33q14 14 35 15h98zM633 1556h256q35 0 24 -32l-16 -51q-6 -18 -6 -35v-1288q0 -20 -14 -35l-103 -101q-14 -14 -35 -14h-479q-20 0 -35 14l-98 101q-14 14 -14 35v1288q0 16 -7 35l-16 51q-10 33 25 32h252 q35 0 24 -32l-16 -51q-6 -18 -6 -35v-1129q0 -20 14 -35h2q14 -14 35 -14h160q20 0 35 14t16 35v1129q0 16 -6 35l-17 51q-10 32 25 32z" glyph-name="Udieresis" horiz-adv-x="999" unicode="Ü"/><glyph d="M391 1788l160 323q8 14 24 27l87 51q23 14 38 -8l99 -113q18 -20 -2 -40l-322 -285q-18 -18 -41 -6l-28 12q-27 14 -15 39zM666 524v-407q0 -10 4 -35l14 -49q10 -33 -22 -33h-250q-35 0 -25 33l16 49q6 18 7 35v407q0 16 -7 35l-305 866q-6 18 -16 31l-43 66 q-20 35 18 34h301q39 0 22 -30t-11 -51l149 -492q10 -29 21.5 -20.5t15.5 20.5l150 492q6 21 -6 41q-13 20 -7 30t23 10h301q39 0 18 -34l-43 -66q-10 -13 -16 -31l-303 -866q-6 -18 -6 -35z" glyph-name="Yacute" horiz-adv-x="1073" unicode="Ý"/><glyph d="M369 270v-153q0 -16 6 -35l16 -49q10 -33 -24 -33h-252q-35 0 -25 33l16 49q6 18 7 35v1321q0 16 -7 35l-16 51q-10 33 25 32h252q35 0 24 -32l-16 -51q-6 -18 -6 -35v-156q0 -21 15 -36t36 -15h319q20 0 35 -14l103 -101q14 -14 14 -35v-612q0 -20 -14 -35l-103 -100 q-14 -14 -35 -15h-319q-20 -1 -36 -15t-15 -34zM369 918v-287q0 -21 15 -36t36 -15h158q20 0 35 15t16 36v287q1 18 -15 34t-36 17h-158q-20 1 -36 -15t-15 -36z" glyph-name="Thorn" horiz-adv-x="950" unicode="Þ"/><glyph d="M883 1409v-227q0 -16 6 -35l16 -49q12 -33 -22 -33h-256q-35 0 -25 33l14 49q6 18 7 35v63q0 20 -15 35h-2q-14 14 -35 14h-157q-20 0 -36 -14t-16 -35v-287q0 -18 16 -34t36 -17h319q20 0 35 -14l100 -100q14 -14 15 -35v-608q0 -20 -15 -35l-100 -101q-14 -14 -35 -14 h-477q-20 0 -35 14l-106 101q-14 14 -15 35v223q0 10 -4 35l-14 49q-10 33 22 32h256q35 0 25 -32l-16 -49q-6 -18 -7 -35v-64q0 -20 15 -35h2q14 -14 35 -14h157q19 0 35 14t17 35v287q1 20 -15 36t-37 15h-315q-20 0 -35 15l-106 102q-14 14 -15 35v610q0 20 15 35l106 98 q14 14 35 14h477q20 0 35 -14l100 -98q15 -15 15 -35zM1864 1409v-227q0 -16 6 -35l16 -49q10 -33 -24 -33h-256q-35 0 -25 33l14 49q6 18 7 35v63q0 20 -15 35h-2q-14 14 -35 14h-155q-19 0 -35 -14t-17 -35v-287q-1 -18 15 -34t37 -17h319q20 0 35 -14l100 -100 q14 -14 15 -35v-608q0 -20 -15 -35l-100 -101q-14 -14 -35 -14h-481q-20 0 -35 14l-102 101q-14 14 -15 35v223q0 10 -4 35l-14 49q-10 33 22 32h256q35 0 25 -32l-16 -49q-6 -18 -7 -35v-64q0 -20 15 -35h2q14 -14 35 -14h155q20 0 36 14t16 35v287q0 20 -16 36t-36 15 h-317q-20 0 -35 15l-102 102q-14 14 -15 35v610q0 20 15 35l102 98q14 14 35 14h481q20 0 35 -14l100 -98q15 -15 15 -35z" glyph-name="germandbls" horiz-adv-x="1970" unicode="ß"/><glyph d="M330 2066l102 115q16 23 39 6l84 -49q16 -12 25 -27l159 -323q12 -25 -14 -39l-31 -14q-25 -8 -41 8l-319 285q-22 20 -4 38zM1018 0h-254q-37 0 -25 30t9 50l-50 201q-2 16 -18 32t-37 17h-215q-20 0 -36 -16t-19 -33l-49 -201q-5 -21 7 -50q11 -30 -24 -30h-254 q-37 0 -20 35l26 53q10 20 13 33l311 1327q4 18 -2 37l-12 39q-10 33 24 32h285q35 0 24 -32l-12 -39q-6 -19 -2 -37l311 -1327q2 -12 13 -33l26 -53q8 -14 2 -24.5t-22 -10.5zM592 592q45 0 41 45l-80 391q-2 14 -9 19.5t-14.5 0t-9.5 -19.5l-80 -391q-4 -45 41 -45h111z " glyph-name="agrave" unicode="à"/><glyph d="M358 1788l160 323q8 14 25 27l84 49q23 16 39 -6l100 -115q18 -18 -2 -38l-322 -285q-18 -18 -41 -6l-28 12q-27 14 -15 39zM1018 0h-254q-37 0 -25 30t9 50l-50 201q-2 16 -18 32t-37 17h-215q-20 0 -36 -16t-19 -33l-49 -201q-5 -21 7 -50q11 -30 -24 -30h-254 q-37 0 -20 35l26 53q10 20 13 33l311 1327q4 18 -2 37l-12 39q-10 33 24 32h285q35 0 24 -32l-12 -39q-6 -19 -2 -37l311 -1327q2 -12 13 -33l26 -53q8 -14 2 -24.5t-22 -10.5zM592 592q45 0 41 45l-80 391q-2 14 -9 19.5t-14.5 0t-9.5 -19.5l-80 -391q-4 -45 41 -45h111z " glyph-name="aacute" unicode="á"/><glyph d="M688 1733q-25 0 -35 22l-94 209q-10 23 -26.5 23t-28.5 -23l-94 -209q-12 -23 -35 -22h-101q-37 0 -20 34l115 240q8 16 20 29l113 114q30 30 59 0l115 -114q12 -12 20 -29l115 -240q16 -35 -20 -34h-103zM1018 0h-254q-37 0 -25 30t9 50l-50 201q-2 16 -18 32t-37 17 h-215q-20 0 -36 -16t-19 -33l-49 -201q-5 -21 7 -50q11 -30 -24 -30h-254q-37 0 -20 35l26 53q10 20 13 33l311 1327q4 18 -2 37l-12 39q-10 33 24 32h285q35 0 24 -32l-12 -39q-6 -19 -2 -37l311 -1327q2 -12 13 -33l26 -53q8 -14 2 -24.5t-22 -10.5zM592 592q45 0 41 45 l-80 391q-2 14 -9 19.5t-14.5 0t-9.5 -19.5l-80 -391q-4 -45 41 -45h111z" glyph-name="acircumflex" unicode="â"/><glyph d="M362 1999h103q18 0 35 -8l137 -68q18 -12 39 0l39 19q18 10 26 26l17 33q16 31 41 6l24 -25q16 -16 8 -38l-24 -78q-4 -14 -19 -33l-57 -57q-14 -14 -35 -15h-102q-18 0 -35 8l-133 70q-16 12 -39 2l-49 -22q-14 -8 -35 -11l-45 -8q-16 -4 -23.5 5.5t-1.5 25.5l21 65 q4 14 18 33l56 56q14 14 34 14zM1018 0h-254q-37 0 -25 30t9 50l-50 201q-2 16 -18 32t-37 17h-215q-20 0 -36 -16t-19 -33l-49 -201q-5 -21 7 -50q11 -30 -24 -30h-254q-37 0 -20 35l26 53q10 20 13 33l311 1327q4 18 -2 37l-12 39q-10 33 24 32h285q35 0 24 -32l-12 -39 q-6 -19 -2 -37l311 -1327q2 -12 13 -33l26 -53q8 -14 2 -24.5t-22 -10.5zM592 592q45 0 41 45l-80 391q-2 14 -9 19.5t-14.5 0t-9.5 -19.5l-80 -391q-4 -45 41 -45h111z" glyph-name="atilde" unicode="ã"/><glyph d="M408 1987q20 0 34 -15l33 -33q14 -14 14 -34v-99q0 -20 -14 -34l-33 -31q-14 -14 -34 -15h-95q-20 0 -34 15l-33 31q-14 14 -15 34v99q1 20 15 34l33 33q14 14 34 15h95zM754 1987q20 0 34 -15l31 -33q14 -14 15 -34v-99q0 -20 -15 -34l-31 -31q-14 -14 -34 -15h-101 q-20 0 -35 15l-30 31q-14 14 -15 34v99q1 20 15 34l30 33q14 14 35 15h101zM1018 0h-254q-37 0 -25 30t9 50l-50 201q-2 16 -18 32t-37 17h-215q-20 0 -36 -16t-19 -33l-49 -201q-5 -21 7 -50q11 -30 -24 -30h-254q-37 0 -20 35l26 53q10 20 13 33l311 1327q4 18 -2 37 l-12 39q-10 33 24 32h285q35 0 24 -32l-12 -39q-6 -19 -2 -37l311 -1327q2 -12 13 -33l26 -53q8 -14 2 -24.5t-22 -10.5zM592 592q45 0 41 45l-80 391q-2 14 -9 19.5t-14.5 0t-9.5 -19.5l-80 -391q-4 -45 41 -45h111z" glyph-name="adieresis" unicode="ä"/><glyph d="M446 2181h172q20 0 35 -14l84 -84q14 -14 15 -35v-176q0 -20 -15 -35l-84 -86q-14 -14 -35 -14h-172q-20 0 -34 14l-86 86q-14 14 -15 35v176q0 20 15 35l86 84q14 14 34 14zM580 2091h-99q-20 0 -35 -14l-30 -33q-14 -14 -15 -35v-100q0 -20 15 -35l30 -33 q14 -14 35 -14h99q20 0 34 14l33 33q14 14 15 35v100q-1 21 -15 35l-33 33q-14 14 -34 14zM1018 0h-254q-37 0 -25 30t9 50l-50 201q-2 16 -18 32t-37 17h-215q-20 0 -36 -16t-19 -33l-49 -201q-5 -21 7 -50q11 -30 -24 -30h-254q-37 0 -20 35l26 53q10 20 13 33l311 1327 q4 18 -2 37l-12 39q-10 33 24 32h285q35 0 24 -32l-12 -39q-6 -19 -2 -37l311 -1327q2 -12 13 -33l26 -53q8 -14 2 -24.5t-22 -10.5zM592 592q45 0 41 45l-80 391q-2 14 -9 19.5t-14.5 0t-9.5 -19.5l-80 -391q-4 -45 41 -45h111z" glyph-name="aring" unicode="å"/><glyph d="M743 289q0 45 -41 45h-202q-24 0 -43.5 -16.5t-28.5 -34.5l-86 -203q-8 -16 -6 -35v-14q4 -29 -27 -29h-252q-39 0 -18 35l39 57q10 12 16 31l592 1325q8 18 6 35l-4 41q-4 31 29 30h745q29 0 31 -26l37 -223q2 -16 -6 -23.5t-25 -3.5l-53 16q-25 4 -35 4h-360 q-21 0 -36 -15t-16 -36l7 -297q4 -41 45 -43h92q16 0 35 6l51 17q33 10 33 -25v-256q0 -35 -33 -24l-51 16q-18 6 -35 6h-92q-20 0 -28.5 -8t-8.5 -29l8 -321q0 -20 4.5 -24.5t24.5 -4.5h360q10 0 35 4l53 17q16 4 24.5 -3.5t6.5 -23.5l-37 -229q-2 -27 -31 -27h-717 q-35 0 -24 33l16 51q6 18 6 35v170zM604 596h103q18 0 28 6q8 6 8 27v338q0 20 -12 23t-20 -17l-140 -334q-10 -20 0 -31.5t33 -11.5z" glyph-name="ae" horiz-adv-x="1564" unicode="æ"/><glyph d="M616 492h256q35 0 25 -33l-16 -49q-6 -18 -7 -35v-225q0 -20 -14 -35l-100 -101q-14 -14 -35 -14h-135q-18 0 -23.5 -10t8.5 -25l33 -33q14 -14 15 -34v-68q0 -18 -13 -37l-41 -51q-10 -14 -24 -25l-66 -41q-18 -10 -39 -4l-51 17q-39 10 -10 37l67 69q14 14 15 35v68 q0 20 -15 34l-49 54q-14 14 -35 14h-114q-20 0 -35 14l-102 101q-14 14 -15 35v1259q0 20 15 35l102 98q14 14 35 14h477q20 0 35 -14l100 -98q14 -14 14 -35v-223q0 -16 7 -35l16 -49q10 -33 -25 -33h-256q-35 0 -22 33l16 49q6 18 6 35v63q0 19 -14 35t-35 16h-161 q-21 0 -36 -15t-16 -36v-936q0 -20 15 -34q11 -17 37 -17h161q20 0 35 14v3q14 14 14 34v62q0 17 -6 35l-16 49q-12 33 22 33z" glyph-name="ccedilla" horiz-adv-x="978" unicode="ç"/><glyph d="M258 2066l102 115q16 23 39 6l84 -49q16 -12 25 -27l160 -323q12 -25 -15 -39l-30 -14q-25 -8 -41 8l-320 285q-22 20 -4 38zM831 0h-716q-35 0 -25 33l16 51q6 18 7 35v1321q0 16 -7 35l-16 49q-10 33 25 32h716q29 0 31 -26l37 -223q2 -16 -6 -23.5t-25 -3.5l-53 16 q-25 4 -35 4h-360q-21 0 -36 -15t-15 -36v-280q0 -21 15 -36t36 -15h92q16 0 35 6l51 16q33 10 33 -25v-256q0 -35 -33 -24l-51 16q-18 6 -35 6h-92q-20 0 -36 -14t-15 -35v-295q0 -13 16 -37q14 -14 35 -14h360q10 0 35 4l53 17q16 4 24.5 -3.5t6.5 -23.5l-37 -229 q-2 -27 -31 -27z" glyph-name="egrave" horiz-adv-x="933" unicode="è"/><glyph d="M285 1788l159 323q8 14 25 27l84 49q23 16 39 -6l102 -115q18 -18 -2 -38l-321 -285q-18 -18 -41 -6l-31 12q-26 14 -14 39zM831 0h-716q-35 0 -25 33l16 51q6 18 7 35v1321q0 16 -7 35l-16 49q-10 33 25 32h716q29 0 31 -26l37 -223q2 -16 -6 -23.5t-25 -3.5l-53 16 q-25 4 -35 4h-360q-21 0 -36 -15t-15 -36v-280q0 -21 15 -36t36 -15h92q16 0 35 6l51 16q33 10 33 -25v-256q0 -35 -33 -24l-51 16q-18 6 -35 6h-92q-20 0 -36 -14t-15 -35v-295q0 -13 16 -37q14 -14 35 -14h360q10 0 35 4l53 17q16 4 24.5 -3.5t6.5 -23.5l-37 -229 q-2 -27 -31 -27z" glyph-name="eacute" horiz-adv-x="933" unicode="é"/><glyph d="M717 1733h-101q-23 0 -34 22l-95 209q-12 23 -28 23t-27 -23l-94 -209q-10 -23 -35 -22h-100q-16 0 -22.5 9t1.5 23l113 242q8 16 20 29l115 114q31 31 59 0l115 -114q12 -12 21 -29l112 -242q8 -14 2 -23t-22 -9zM831 0h-716q-35 0 -25 33l16 51q6 18 7 35v1321 q0 16 -7 35l-16 49q-10 33 25 32h716q29 0 31 -26l37 -223q2 -16 -6 -23.5t-25 -3.5l-53 16q-25 4 -35 4h-360q-21 0 -36 -15t-15 -36v-280q0 -21 15 -36t36 -15h92q16 0 35 6l51 16q33 10 33 -25v-256q0 -35 -33 -24l-51 16q-18 6 -35 6h-92q-20 0 -36 -14t-15 -35v-295 q0 -13 16 -37q14 -14 35 -14h360q10 0 35 4l53 17q16 4 24.5 -3.5t6.5 -23.5l-37 -229q-2 -27 -31 -27z" glyph-name="ecircumflex" horiz-adv-x="933" unicode="ê"/><glyph d="M338 1987q20 0 35 -15l30 -33q14 -14 15 -34v-99q0 -20 -15 -34l-30 -31q-14 -14 -35 -15h-98q-20 0 -35 15l-33 31q-14 14 -14 34v99q0 20 14 34l33 33q14 14 35 15h98zM680 1987q20 0 35 -15l30 -33q14 -14 15 -34v-99q0 -20 -15 -34l-30 -31q-14 -14 -35 -15h-96 q-20 0 -35 15l-33 31q-14 14 -14 34v99q0 20 14 34l33 33q14 14 35 15h96zM831 0h-716q-35 0 -25 33l16 51q6 18 7 35v1321q0 16 -7 35l-16 49q-10 33 25 32h716q29 0 31 -26l37 -223q2 -16 -6 -23.5t-25 -3.5l-53 16q-25 4 -35 4h-360q-21 0 -36 -15t-15 -36v-280 q0 -21 15 -36t36 -15h92q16 0 35 6l51 16q33 10 33 -25v-256q0 -35 -33 -24l-51 16q-18 6 -35 6h-92q-20 0 -36 -14t-15 -35v-295q0 -13 16 -37q14 -14 35 -14h360q10 0 35 4l53 17q16 4 24.5 -3.5t6.5 -23.5l-37 -229q-2 -27 -31 -27z" glyph-name="edieresis" horiz-adv-x="933" unicode="ë"/><glyph d="M-20 2066l100 115q16 23 39 6l84 -49q16 -12 24 -27l160 -323q12 -25 -14 -39l-29 -12q-23 -12 -41 6l-321 285q-20 20 -2 38zM379 1438v-1321q0 -16 6 -35l16 -49q10 -33 -24 -33h-252q-35 0 -25 33l17 49q6 18 6 35v1321q0 16 -6 35l-17 51q-10 33 25 32h252 q35 0 24 -32l-16 -51q-6 -19 -6 -35z" glyph-name="igrave" horiz-adv-x="491" unicode="ì"/><glyph d="M104 1788l160 323q8 14 25 27l84 49q23 16 39 -6l102 -115q18 -18 -2 -38l-322 -285q-18 -18 -40 -6l-31 12q-27 14 -15 39zM369 1438v-1321q0 -16 6 -35l16 -49q10 -33 -24 -33h-252q-35 0 -25 33l16 49q6 18 7 35v1321q0 16 -7 35l-16 51q-10 33 25 32h252q35 0 24 -32 l-16 -51q-6 -19 -6 -35z" glyph-name="iacute" horiz-adv-x="491" unicode="í"/><glyph d="M514 1733h-98q-23 0 -35 22l-94 209q-12 23 -28.5 23t-29.5 -23l-94 -209q-12 -23 -35 -22h-98q-16 0 -22.5 9t2.5 23l110 242q8 16 21 29l116 114q29 29 58 0l116 -114q12 -12 21 -29l111 -242q8 -14 1.5 -23t-22.5 -9zM387 1438v-1321q0 -16 6 -35l17 -49 q10 -33 -25 -33h-252q-35 0 -24 33l16 49q6 18 6 35v1321q0 16 -6 35l-16 51q-10 33 24 32h252q35 0 25 -32l-17 -51q-6 -19 -6 -35z" glyph-name="icircumflex" horiz-adv-x="516" unicode="î"/><glyph d="M135 1987q20 0 35 -15l31 -33q14 -14 14 -34v-99q0 -20 -14 -34l-31 -31q-14 -14 -35 -15h-96q-20 0 -35 15l-31 31q-14 14 -14 34v99q0 20 14 34l31 33q14 14 35 15h96zM479 1987q20 0 35 -15l31 -33q14 -14 14 -34v-99q0 -20 -14 -34l-31 -31q-14 -14 -35 -15h-98 q-20 0 -35 15l-31 31q-14 14 -14 34v99q0 20 14 34l31 33q14 14 35 15h98zM387 1438v-1321q0 -16 6 -35l17 -49q10 -33 -25 -33h-252q-35 0 -24 33l16 49q6 18 6 35v1321q0 16 -6 35l-16 51q-10 33 24 32h252q35 0 25 -32l-17 -51q-6 -19 -6 -35z" glyph-name="idieresis" horiz-adv-x="516" unicode="ï"/><glyph d="M145 961v479q0 16 -6 35l-14 49q-10 33 22 32h631q20 0 35 -14l98 -98q14 -14 15 -35v-1259q0 -20 -15 -35l-98 -101q-14 -14 -35 -14h-628q-35 0 -25 33l14 51q6 18 6 35v481q0 20 -14 35h-2q-14 14 -35 14h-49q-29 0 -29 29v203q0 29 29 28h49q20 0 36 16t15 36z M612 1300h-155q-21 0 -35 -15t-14 -36v-288q0 -19 14 -35t35 -17h49q29 0 29 -28v-203q0 -29 -29 -29h-49q-20 0 -34.5 -14t-14.5 -35v-287q0 -20 14 -35t35 -16h155q20 0 35 14q16 25 17 37v936q0 19 -16 35t-36 16z" glyph-name="eth" horiz-adv-x="1021" unicode="ð"/><glyph d="M383 1999h104q18 0 35 -8l135 -68q20 -12 41 0l37 19q18 8 27 26l16 33q16 31 41 6l25 -25q16 -16 8 -38l-27 -78q-4 -14 -18 -33l-55 -57q-14 -14 -35 -15h-101q-18 0 -34 8l-138 70q-16 12 -38 2l-46 -22q-14 -8 -34 -11l-45 -8q-16 -2 -23.5 6.5t-3.5 24.5l18 65 q4 16 21 33l55 56q14 14 35 14zM369 838v-721q0 -16 6 -35l16 -49q10 -33 -24 -33h-252q-35 0 -25 33l16 49q6 18 7 35v1321q0 16 -7 35l-16 51q-10 33 25 32h229q25 0 33 -22l336 -823q8 -20 20 -17.5t12 23.5v721q0 16 -6 35l-16 51q-10 33 25 32h256q35 0 24 -32l-16 -51 q-6 -18 -6 -35v-1321q0 -16 6 -35l16 -49q10 -33 -24 -33h-234q-25 0 -33 23l-336 821q-8 20 -20 17t-12 -23z" glyph-name="ntilde" horiz-adv-x="1118" unicode="ñ"/><glyph d="M283 2066l100 115q16 23 39 6l84 -49q16 -12 24 -27l160 -323q12 -25 -14 -39l-29 -12q-23 -12 -41 6l-321 285q-20 20 -2 38zM248 1556h477q20 0 35 -14l100 -98q14 -14 14 -35v-1259q0 -20 -14 -35l-100 -101q-14 -14 -35 -14h-477q-20 0 -35 14l-102 101 q-14 14 -15 35v1259q0 20 15 35l102 98q15 14 35 14zM612 309v936q0 20 -14 35h-2q-14 14 -35 14h-155q-20 0 -36 -14t-16 -35v-936q0 -20 15 -35h2q14 -14 35 -14h155q19 0 35 14t16 35z" glyph-name="ograve" horiz-adv-x="970" unicode="ò"/><glyph d="M309 1788l160 323q8 14 25 27l84 49q23 16 38 -6l103 -115q18 -18 -2 -38l-322 -285q-18 -18 -41 -6l-30 12q-27 14 -15 39zM248 1556h477q20 0 35 -14l100 -98q14 -14 14 -35v-1259q0 -20 -14 -35l-100 -101q-14 -14 -35 -14h-477q-20 0 -35 14l-102 101q-14 14 -15 35 v1259q0 20 15 35l102 98q15 14 35 14zM612 309v936q0 20 -14 35h-2q-14 14 -35 14h-155q-20 0 -36 -14t-16 -35v-936q0 -20 15 -35h2q14 -14 35 -14h155q19 0 35 14t16 35z" glyph-name="oacute" horiz-adv-x="970" unicode="ó"/><glyph d="M641 1733q-23 0 -35 22l-94 209q-12 23 -28 23t-27 -23l-95 -209q-10 -23 -34 -22h-103q-37 0 -20 34l114 240q8 16 21 29l115 114q30 30 59 0l113 -114q12 -12 20 -29l115 -240q16 -35 -21 -34h-100zM248 1556h477q20 0 35 -14l100 -98q14 -14 14 -35v-1259 q0 -20 -14 -35l-100 -101q-14 -14 -35 -14h-477q-20 0 -35 14l-102 101q-14 14 -15 35v1259q0 20 15 35l102 98q15 14 35 14zM612 309v936q0 20 -14 35h-2q-14 14 -35 14h-155q-20 0 -36 -14t-16 -35v-936q0 -20 15 -35h2q14 -14 35 -14h155q19 0 35 14t16 35z" glyph-name="ocircumflex" horiz-adv-x="970" unicode="ô"/><glyph d="M330 1999h102q18 0 35 -8l137 -68q18 -12 39 0l39 19q18 10 27 26l16 33q16 31 41 6l25 -25q16 -16 8 -38l-25 -78q-4 -14 -18 -33l-58 -57q-14 -14 -34 -15h-103q-18 0 -35 8l-137 70q-16 12 -39 2l-45 -22q-14 -8 -35 -11l-45 -8q-16 -4 -23 5.5t-1 25.5l20 65 q4 14 19 33l55 56q14 14 35 14zM248 1556h477q20 0 35 -14l100 -98q14 -14 14 -35v-1259q0 -20 -14 -35l-100 -101q-14 -14 -35 -14h-477q-20 0 -35 14l-102 101q-14 14 -15 35v1259q0 20 15 35l102 98q15 14 35 14zM612 309v936q0 20 -14 35h-2q-14 14 -35 14h-155 q-20 0 -36 -14t-16 -35v-936q0 -20 15 -35h2q14 -14 35 -14h155q19 0 35 14t16 35z" glyph-name="otilde" horiz-adv-x="970" unicode="õ"/><glyph d="M362 1987q20 0 35 -15l31 -33q14 -14 14 -34v-99q0 -20 -14 -34l-31 -31q-14 -14 -35 -15h-98q-20 0 -35 15l-32 31q-14 14 -15 34v99q1 20 15 34l32 33q14 14 35 15h98zM705 1987q20 0 34 -15l31 -33q14 -14 14 -34v-99q0 -20 -14 -34l-31 -31q-14 -14 -34 -15h-97 q-20 0 -35 15l-32 31q-14 14 -15 34v99q1 20 15 34l32 33q14 14 35 15h97zM248 1556h477q20 0 35 -14l100 -98q14 -14 14 -35v-1259q0 -20 -14 -35l-100 -101q-14 -14 -35 -14h-477q-20 0 -35 14l-102 101q-14 14 -15 35v1259q0 20 15 35l102 98q15 14 35 14zM612 309v936 q0 20 -14 35h-2q-14 14 -35 14h-155q-20 0 -36 -14t-16 -35v-936q0 -20 15 -35h2q14 -14 35 -14h155q19 0 35 14t16 35z" glyph-name="odieresis" horiz-adv-x="970" unicode="ö"/><glyph d="M547 1499h174q20 0 35 -14l80 -82q14 -14 14 -35v-176q0 -20 -14 -35l-80 -86q-14 -14 -35 -14h-174q-20 0 -35 14l-86 86q-14 14 -14 35v176q0 20 14 35l86 82q15 14 35 14zM680 1409h-96q-20 0 -35 -14l-33 -31q-14 -14 -14 -35v-100q0 -20 14 -35l33 -33 q14 -14 35 -14h96q20 0 35 14l30 33q14 14 15 35v100q-1 21 -15 35l-30 31q-14 14 -35 14zM1114 907v-260q0 -31 -33 -24l-77 20q-25 4 -35 4h-672q-10 0 -35 -4l-80 -20q-33 -6 -32 24v260q0 31 32 25l80 -21q25 -4 35 -4h672q10 0 35 4l77 21q33 6 33 -25zM547 498h174 q20 0 35 -15l80 -82q14 -14 14 -34v-177q0 -20 -14 -34l-80 -84q-14 -14 -35 -15h-174q-20 0 -35 15l-86 84q-14 14 -14 34v177q0 20 14 34l86 82q15 15 35 15zM584 408q-20 0 -35 -15l-33 -33q-14 -14 -14 -34v-99q0 -20 14 -34l33 -31q14 -14 35 -15h96q20 0 35 15l30 31 q14 14 15 34v99q-1 20 -15 34l-30 33q-14 14 -35 15h-96z" glyph-name="divide" horiz-adv-x="1263" unicode="÷"/><glyph d="M874 1409v-1259q0 -20 -14 -35l-100 -101q-14 -14 -35 -14h-477q-20 0 -35 14l-102 101q-14 14 -15 35v1259q0 20 15 35l102 98q14 14 35 14h477q21 0 35 -14l100 -98q14 -14 14 -35zM492 1294h-84q-20 0 -35 -14t-15 -35v-565q0 -10 13.5 -11t17.5 9l127 586 q7 30 -24 30zM614 309v588q0 10 -14 11t-16 -9l-133 -608q-6 -31 26 -31h86q21 0 35 14h2q14 14 14 35z" glyph-name="oslash" horiz-adv-x="970" unicode="ø"/><glyph d="M264 2066l103 115q16 23 39 6l83 -49q16 -12 25 -27l160 -323q12 -25 -15 -39l-30 -14q-25 -8 -41 8l-320 285q-22 20 -4 38zM633 1556h256q35 0 24 -32l-16 -51q-6 -18 -6 -35v-1288q0 -20 -14 -35l-103 -101q-14 -14 -35 -14h-479q-20 0 -35 14l-98 101q-14 14 -14 35 v1288q0 16 -7 35l-16 51q-10 33 25 32h252q35 0 24 -32l-16 -51q-6 -18 -6 -35v-1129q0 -20 14 -35h2q14 -14 35 -14h160q20 0 35 14t16 35v1129q0 16 -6 35l-17 51q-10 32 25 32z" glyph-name="ugrave" horiz-adv-x="999" unicode="ù"/><glyph d="M350 1788l160 323q8 14 25 27l83 49q23 16 39 -6l103 -115q18 -18 -2 -38l-322 -285q-18 -18 -41 -6l-30 12q-27 14 -15 39zM633 1556h256q35 0 24 -32l-16 -51q-6 -18 -6 -35v-1288q0 -20 -14 -35l-103 -101q-14 -14 -35 -14h-479q-20 0 -35 14l-98 101q-14 14 -14 35 v1288q0 16 -7 35l-16 51q-10 33 25 32h252q35 0 24 -32l-16 -51q-6 -18 -6 -35v-1129q0 -20 14 -35h2q14 -14 35 -14h160q20 0 35 14t16 35v1129q0 16 -6 35l-17 51q-10 32 25 32z" glyph-name="uacute" horiz-adv-x="999" unicode="ú"/><glyph d="M657 1733q-23 0 -34 22l-95 209q-12 23 -28 23t-27 -23l-94 -209q-10 -23 -35 -22h-100q-39 0 -21 34l115 240q8 16 20 29l113 114q31 31 59 0l115 -114q12 -12 21 -29l116 -240q16 -35 -20 -34h-105zM633 1556h256q35 0 24 -32l-16 -51q-6 -18 -6 -35v-1288 q0 -20 -14 -35l-103 -101q-14 -14 -35 -14h-479q-20 0 -35 14l-98 101q-14 14 -14 35v1288q0 16 -7 35l-16 51q-10 33 25 32h252q35 0 24 -32l-16 -51q-6 -18 -6 -35v-1129q0 -20 14 -35h2q14 -14 35 -14h160q20 0 35 14t16 35v1129q0 16 -6 35l-17 51q-10 32 25 32z" glyph-name="ucircumflex" horiz-adv-x="999" unicode="û"/><glyph d="M375 1987q20 0 35 -15l32 -33q14 -14 15 -34v-99q0 -20 -15 -34l-32 -31q-14 -14 -35 -15h-94q-20 0 -35 15l-33 31q-14 14 -14 34v99q0 20 14 34l33 33q14 14 35 15h94zM723 1987q20 0 35 -15l30 -33q14 -14 15 -34v-99q0 -20 -15 -34l-30 -31q-14 -14 -35 -15h-98 q-20 0 -35 15l-33 31q-14 14 -14 34v99q0 20 14 34l33 33q14 14 35 15h98zM633 1556h256q35 0 24 -32l-16 -51q-6 -18 -6 -35v-1288q0 -20 -14 -35l-103 -101q-14 -14 -35 -14h-479q-20 0 -35 14l-98 101q-14 14 -14 35v1288q0 16 -7 35l-16 51q-10 33 25 32h252 q35 0 24 -32l-16 -51q-6 -18 -6 -35v-1129q0 -20 14 -35h2q14 -14 35 -14h160q20 0 35 14t16 35v1129q0 16 -6 35l-17 51q-10 32 25 32z" glyph-name="udieresis" horiz-adv-x="999" unicode="ü"/><glyph d="M391 1788l160 323q8 14 24 27l87 51q23 14 38 -8l99 -113q18 -20 -2 -40l-322 -285q-18 -18 -41 -6l-28 12q-27 14 -15 39zM666 524v-407q0 -10 4 -35l14 -49q10 -33 -22 -33h-250q-35 0 -25 33l16 49q6 18 7 35v407q0 16 -7 35l-305 866q-6 18 -16 31l-43 66 q-20 35 18 34h301q39 0 22 -30t-11 -51l149 -492q10 -29 21.5 -20.5t15.5 20.5l150 492q6 21 -6 41q-13 20 -7 30t23 10h301q39 0 18 -34l-43 -66q-10 -13 -16 -31l-303 -866q-6 -18 -6 -35z" glyph-name="yacute" horiz-adv-x="1073" unicode="ý"/><glyph d="M369 270v-153q0 -16 6 -35l16 -49q10 -33 -24 -33h-252q-35 0 -25 33l16 49q6 18 7 35v1321q0 16 -7 35l-16 51q-10 33 25 32h252q35 0 24 -32l-16 -51q-6 -18 -6 -35v-156q0 -21 15 -36t36 -15h319q20 0 35 -14l103 -101q14 -14 14 -35v-612q0 -20 -14 -35l-103 -100 q-14 -14 -35 -15h-319q-20 -1 -36 -15t-15 -34zM369 918v-287q0 -21 15 -36t36 -15h158q20 0 35 15t16 36v287q1 18 -15 34t-36 17h-158q-20 1 -36 -15t-15 -36z" glyph-name="thorn" horiz-adv-x="950" unicode="þ"/><glyph d="M412 1987q20 0 34 -15l33 -33q14 -14 15 -34v-99q0 -20 -15 -34l-33 -31q-14 -14 -34 -15h-95q-20 0 -34 15l-33 31q-14 14 -14 34v99q0 20 14 34l33 33q14 14 34 15h95zM760 1987q20 0 35 -15l30 -33q14 -14 15 -34v-99q0 -20 -15 -34l-30 -31q-14 -14 -35 -15h-98 q-20 0 -35 15l-33 31q-14 14 -14 34v99q0 20 14 34l33 33q14 14 35 15h98zM666 524v-407q0 -10 4 -35l14 -49q10 -33 -22 -33h-250q-35 0 -25 33l16 49q6 18 7 35v407q0 16 -7 35l-305 866q-6 18 -16 31l-43 66q-20 35 18 34h301q39 0 22 -30t-11 -51l149 -492 q10 -29 21.5 -20.5t15.5 20.5l150 492q6 21 -6 41q-13 20 -7 30t23 10h301q39 0 18 -34l-43 -66q-10 -13 -16 -31l-303 -866q-6 -18 -6 -35z" glyph-name="ydieresis" horiz-adv-x="1073" unicode="ÿ"/><glyph d="M1337 0h-1089q-20 0 -35 14l-102 101q-14 14 -15 35v1259q0 20 15 35l102 98q14 14 35 14h1089q29 0 31 -26l35 -223q4 -35 -29 -27l-55 16q-25 4 -35 4h-358q-21 0 -36 -15t-16 -36v-288q0 -20 15.5 -35.5t36.5 -16.5h92q16 0 35 6l51 17q33 10 33 -25v-256 q0 -35 -33 -24l-51 16q-18 6 -35 6h-92q-20 0 -35.5 -14t-16.5 -35v-287q0 -20 15 -34q11 -17 37 -17h358q10 0 35 4l55 17q16 4 23.5 -3.5t5.5 -23.5l-35 -229q-2 -27 -31 -27zM612 309v936q0 20 -14 35h-2q-14 14 -35 14h-155q-20 0 -35.5 -14t-16.5 -35v-936 q0 -20 15 -35h2q14 -14 35 -14h155q20 0 35.5 14.5t15.5 34.5z" glyph-name="OE" horiz-adv-x="1439" unicode="Œ"/><glyph d="M926 262h358q10 0 35 4l55 17q16 4 23.5 -3.5t5.5 -23.5l-35 -229q-2 -27 -31 -27h-1089q-20 0 -35 14l-102 101q-14 14 -15 35v1259q0 20 15 35l102 98q14 14 35 14h1089q29 0 31 -26l35 -223q4 -35 -29 -27l-55 16q-25 4 -35 4h-358q-21 0 -36 -15t-16 -36v-288 q0 -20 15.5 -35.5t36.5 -16.5h92q16 0 35 6l51 17q33 10 33 -25v-256q0 -35 -33 -24l-51 16q-18 6 -35 6h-92q-20 0 -35.5 -14t-16.5 -35v-287q0 -20 15 -34l2 -3q15 -14 35 -14zM612 309v936q0 20 -14 35h-2q-14 14 -35 14h-155q-20 0 -35.5 -14t-16.5 -35v-936 q0 -20 15 -35h2q14 -14 35 -14h155q21 0 35 14h2q14 14 14 35z" glyph-name="oe" horiz-adv-x="1437" unicode="œ"/><glyph d="M518 1733q-16 0 -31 14l-114 115q-12 12 -21 28l-108 242q-8 14 -2 23.5t22 9.5h98q23 0 35 -23l92 -211q10 -23 29 -22.5t27 20.5l98 215q8 20 35 21h100q37 0 21 -35l-119 -240q-8 -16 -21 -28l-112 -115q-13 -14 -29 -14zM883 1409v-227q0 -16 6 -35l16 -49 q12 -33 -22 -33h-256q-35 0 -25 33l14 49q6 18 7 35v63q0 20 -15 35h-2q-14 14 -35 14h-157q-20 0 -36 -14t-16 -35v-287q0 -18 16 -34t36 -17h319q20 0 35 -14l100 -100q14 -14 15 -35v-608q0 -20 -15 -35l-100 -101q-14 -14 -35 -14h-477q-20 0 -35 14l-106 101 q-14 14 -15 35v223q0 10 -4 35l-14 49q-10 33 22 32h256q35 0 25 -32l-16 -49q-6 -18 -7 -35v-64q0 -20 15 -35h2q14 -14 35 -14h157q19 0 35 14t17 35v287q1 20 -15 36t-37 15h-315q-20 0 -35 15l-106 102q-14 14 -15 35v610q0 20 15 35l106 98q14 14 35 14h477 q20 0 35 -14l100 -98q15 -15 15 -35z" glyph-name="Scaron" horiz-adv-x="989" unicode="Š"/><glyph d="M518 1733q-16 0 -31 14l-114 115q-12 12 -21 28l-108 242q-8 14 -2 23.5t22 9.5h98q23 0 35 -23l92 -211q10 -23 29 -22.5t27 20.5l98 215q8 20 35 21h100q37 0 21 -35l-119 -240q-8 -16 -21 -28l-112 -115q-13 -14 -29 -14zM883 1409v-227q0 -16 6 -35l16 -49 q12 -33 -22 -33h-256q-35 0 -25 33l14 49q6 18 7 35v63q0 20 -15 35h-2q-14 14 -35 14h-157q-20 0 -36 -14t-16 -35v-287q0 -18 16 -34t36 -17h319q20 0 35 -14l100 -100q14 -14 15 -35v-608q0 -20 -15 -35l-100 -101q-14 -14 -35 -14h-477q-20 0 -35 14l-106 101 q-14 14 -15 35v223q0 10 -4 35l-14 49q-10 33 22 32h256q35 0 25 -32l-16 -49q-6 -18 -7 -35v-64q0 -20 15 -35h2q14 -14 35 -14h157q19 0 35 14t17 35v287q1 20 -15 36t-37 15h-315q-20 0 -35 15l-106 102q-14 14 -15 35v610q0 20 15 35l106 98q14 14 35 14h477 q20 0 35 -14l100 -98q15 -15 15 -35z" glyph-name="scaron" horiz-adv-x="989" unicode="š"/><glyph d="M412 1987q20 0 34 -15l33 -33q14 -14 15 -34v-99q0 -20 -15 -34l-33 -31q-14 -14 -34 -15h-95q-20 0 -34 15l-33 31q-14 14 -14 34v99q0 20 14 34l33 33q14 14 34 15h95zM760 1987q20 0 35 -15l30 -33q14 -14 15 -34v-99q0 -20 -15 -34l-30 -31q-14 -14 -35 -15h-98 q-20 0 -35 15l-33 31q-14 14 -14 34v99q0 20 14 34l33 33q14 14 35 15h98zM666 524v-407q0 -10 4 -35l14 -49q10 -33 -22 -33h-250q-35 0 -25 33l16 49q6 18 7 35v407q0 16 -7 35l-305 866q-6 18 -16 31l-43 66q-20 35 18 34h301q39 0 22 -30t-11 -51l149 -492 q10 -29 21.5 -20.5t15.5 20.5l150 492q6 21 -6 41q-13 20 -7 30t23 10h301q39 0 18 -34l-43 -66q-10 -13 -16 -31l-303 -866q-6 -18 -6 -35z" glyph-name="Ydieresis" horiz-adv-x="1073" unicode="Ÿ"/><glyph d="M528 1556h381q29 0 29 -28l4 -223q0 -35 -33 -25l-57 16q-25 4 -35 4h-168q-20 0 -35 -14l-4 -2q-12 -14 -16 -35l-41 -288q-2 -19 9 -35t36 -17h92q16 0 35 6l49 17q35 9 31 -27l-35 -258q-4 -31 -35 -20l-49 16q-18 6 -35 6h-92q-44 0 -53 -49l-72 -481q-2 -20 2 -37 l8 -51q6 -31 -24 -31h-258q-16 0 -22.5 9t1.5 24l23 51q8 14 10 35l74 479q6 20 -10 37h-2q-14 14 -35 14h-92q-16 0 -35 -6l-49 -16q-16 -4 -24.5 3t-6.5 23l35 258q4 31 34 21l50 -17q18 -6 34 -6h93q20 0 34 15l5 2q12 12 16 35l70 448q4 20 16 35l113 98q14 14 34 14z " glyph-name="florin" horiz-adv-x="1040" unicode="ƒ"/><glyph d="M752 1733q-23 0 -35 22l-94 209q-12 23 -28.5 23t-29.5 -23l-94 -209q-12 -23 -35 -22h-98q-39 0 -21 34l115 240q8 16 21 29l112 114q29 29 58 0l116 -114q12 -12 21 -29l114 -240q18 -35 -20 -34h-102z" glyph-name="circumflex" horiz-adv-x="1191" unicode="ˆ"/><glyph d="M591.5 1733q-15.5 0 -30.5 14l-112 115q-12 12 -21 28l-111 242q-8 14 -1.5 23.5t22.5 9.5h98q23 0 35 -23l92 -211q10 -23 28.5 -22.5t26.5 20.5l99 215q8 20 35 21h102q16 0 22.5 -9.5t-2.5 -25.5l-116 -240q-8 -16 -21 -28l-116 -115q-14 -14 -29.5 -14z" glyph-name="caron" horiz-adv-x="1191" unicode="ˇ"/><glyph d="M436 2181h172q20 0 35 -14l84 -84q14 -14 14 -35v-176q0 -20 -14 -35l-84 -86q-14 -14 -35 -14h-172q-20 0 -35 14l-86 86q-14 14 -14 35v176q0 20 14 35l86 84q15 14 35 14zM569 2091h-98q-20 0 -35 -14l-30 -33q-14 -14 -15 -35v-100q0 -20 15 -35l30 -33 q14 -14 35 -14h98q20 0 35 14l31 33q14 14 14 35v100q0 21 -14 35l-31 33q-14 14 -35 14z" glyph-name="ring" horiz-adv-x="1040" unicode="˚"/><glyph d="M440 1999h105q18 0 35 -8l135 -68q18 -12 39 0l39 19q18 10 26 26l17 33q14 31 38 6l27 -25q16 -18 8 -38l-26 -78q-4 -14 -19 -33l-57 -57q-14 -14 -35 -15h-98q-18 0 -35 8l-137 70q-16 12 -39 2l-47 -22q-14 -8 -35 -11l-43 -8q-16 -2 -23.5 6.5t-3.5 24.5l19 65 q4 16 20 33l56 56q14 14 34 14z" glyph-name="tilde" horiz-adv-x="1218" unicode="˜"/><glyph d="M1112 905v-256q0 -35 -33 -24l-51 16q-18 6 -35 6h-784q-16 0 -35 -6l-51 -16q-33 -10 -33 24v256q0 35 33 25l51 -17q18 -6 35 -6h784q17 0 35 6l51 17q33 10 33 -25z" glyph-name="endash" horiz-adv-x="1202" unicode="–"/><glyph d="M1352 905v-256q0 -35 -33 -24l-51 16q-18 6 -35 6h-1024q-16 0 -35 -6l-51 -16q-33 -10 -33 24v256q0 35 33 25l51 -17q18 -6 35 -6h1024q17 0 35 6l51 17q33 10 33 -25z" glyph-name="emdash" horiz-adv-x="1441" unicode="—"/><glyph d="M238 1424q0 -37 43 -40h45q20 0 34 -14l62 -61q14 -14 14 -35v-139q0 -21 -14 -35l-62 -62q-14 -14 -34 -14h-140q-20 0 -34 14l-62 62q-14 14 -14 35v295q0 20 14 34l80 80q12 12 29 21l112 63q35 18 35 -20v-35q0 -20 -14 -35l-80 -82q-14 -14 -14 -32z" glyph-name="quoteleft" horiz-adv-x="509" unicode="‘"/><glyph d="M272 1257q0 29 -41 29h-45q-20 0 -34 14l-62 62q-14 14 -14 35v139q0 21 14 35l62 61q14 14 34 15h140q20 0 34 -15l62 -61q14 -14 14 -35v-291q0 -20 -14 -35l-82 -84q-12 -12 -29 -20l-110 -64q-35 -18 -35 21v39q0 20 14 35l78 77q14 14 14 43z" glyph-name="quoteright" horiz-adv-x="509" unicode="’"/><glyph d="M272 -41q0 41 -41 41h-45q-20 0 -34 14l-62 62q-14 14 -14 35v139q0 21 14 35l62 61q14 14 34 14h140q20 0 34 -14l62 -61q14 -14 14 -35v-293q0 -20 -14 -35l-82 -82q-12 -12 -29 -20l-110 -64q-35 -18 -35 21v37q0 20 14 34l78 80q14 14 14 31z" glyph-name="quotesinglbase" horiz-adv-x="509" unicode="‚"/><glyph d="M238 1424q0 -37 43 -40h45q20 0 34 -14l62 -61q14 -14 14 -35v-139q0 -21 -14 -35l-62 -62q-14 -14 -34 -14h-140q-20 0 -34 14l-62 62q-14 14 -14 35v295q0 20 14 34l80 80q12 12 29 21l112 63q35 18 35 -20v-35q0 -20 -14 -35l-80 -82q-14 -14 -14 -32zM688 1424 q0 -37 43 -40h47q20 0 35 -14l61 -61q14 -14 15 -35v-139q-1 -21 -15 -35l-61 -62q-14 -14 -35 -14h-141q-20 0 -35 14l-61 62q-14 14 -15 35v295q0 20 15 34l80 80q12 12 28 21l115 63q35 18 35 -20v-35q0 -20 -15 -35l-82 -82q-14 -14 -14 -32z" glyph-name="quotedblleft" horiz-adv-x="962" unicode="“"/><glyph d="M272 1257q0 29 -41 29h-45q-20 0 -34 14l-62 62q-14 14 -14 35v139q0 21 14 35l62 61q14 14 34 15h140q20 0 34 -15l62 -61q14 -14 14 -35v-291q0 -20 -14 -35l-82 -84q-12 -12 -29 -20l-110 -64q-35 -18 -35 21v39q0 20 14 35l78 77q14 14 14 43zM725 1244q0 42 -43 42 h-45q-20 0 -35 14l-61 62q-14 14 -15 35v139q1 21 15 35l61 61q14 14 35 15h141q20 0 35 -15l61 -61q14 -14 15 -35v-291q0 -20 -15 -35l-83 -84q-12 -12 -29 -20l-111 -64q-35 -18 -35 21v39q0 20 15 35l80 77q14 14 14 30z" glyph-name="quotedblright" horiz-adv-x="962" unicode="”"/><glyph d="M272 -41q0 41 -41 41h-45q-20 0 -34 14l-62 62q-14 14 -14 35v139q0 21 14 35l62 61q14 14 34 14h140q20 0 34 -14l62 -61q14 -14 14 -35v-293q0 -20 -14 -35l-82 -82q-12 -12 -29 -20l-110 -64q-35 -18 -35 21v37q0 20 14 34l78 80q14 14 14 31zM725 -41q0 41 -43 41 h-45q-20 0 -35 14l-61 62q-14 14 -15 35v139q1 21 15 35l61 61q14 14 35 14h141q20 0 35 -14l61 -61q14 -14 15 -35v-293q0 -20 -15 -35l-83 -82q-12 -12 -29 -20l-111 -64q-35 -18 -35 21v37q0 20 15 34l80 80q14 14 14 31z" glyph-name="quotedblbase" horiz-adv-x="962" unicode="„"/><glyph d="M608 1210h115q16 0 35 7l51 16q33 10 33 -25v-256q0 -35 -33 -24l-51 16q-18 6 -35 6h-115q-29 0 -28 -28v-803q0 -16 6 -35l16 -51q10 -33 -24 -33h-254q-35 0 -25 33l16 51q6 18 7 35v803q0 29 -29 28h-113q-16 0 -35 -6l-53 -16q-33 -10 -33 24v256q0 35 33 25l53 -16 q18 -6 35 -7h113q29 0 29 29v199q0 16 -7 35l-16 51q-10 33 25 32h254q35 0 24 -32l-16 -51q-6 -18 -6 -35v-199q-1 -29 28 -29z" glyph-name="dagger" horiz-adv-x="901" unicode="†"/><glyph d="M186 958h140q20 0 34 -14l62 -61q14 -14 14 -35v-139q0 -20 -14 -35l-62 -62q-14 -14 -34 -14h-140q-20 0 -34 14l-62 62q-14 14 -14 35v139q0 21 14 35l62 61q14 14 34 14z" glyph-name="bullet" horiz-adv-x="509" unicode="•"/><glyph d="M186 360h140q20 0 34 -14l62 -61q14 -14 14 -35v-139q0 -20 -14 -35l-62 -62q-14 -14 -34 -14h-140q-20 0 -34 14l-62 62q-14 14 -14 35v139q0 21 14 35l62 61q14 14 34 14zM668 360h139q20 0 35 -14l61 -61q14 -14 15 -35v-139q0 -20 -15 -35l-61 -62q-14 -14 -35 -14 h-139q-20 0 -35 14l-62 62q-14 14 -14 35v139q0 21 14 35l62 61q14 14 35 14zM1149 360h139q20 0 35 -14l61 -61q14 -14 15 -35v-139q0 -20 -15 -35l-61 -62q-14 -14 -35 -14h-139q-20 0 -35 14l-61 62q-14 14 -15 35v139q1 21 15 35l61 61q14 14 35 14z" glyph-name="ellipsis" horiz-adv-x="1472" unicode="…"/><glyph d="M166 1556h172q20 0 35 -14l82 -82q14 -14 14 -35v-176q0 -20 -14 -35l-82 -86q-14 -14 -35 -14h-172q-20 0 -35 14l-86 86q-14 14 -14 35v176q0 20 14 35l86 82q15 14 35 14zM606 0h-254q-33 0 -22 33l39 133l227 1302q5 16 -8 53q-12 36 22 35h256q35 0 25 -32l-41 -131 l-225 -1303q-4 -12 0 -37l6 -20q10 -33 -25 -33zM299 1466h-98q-20 0 -35 -14l-31 -31q-14 -14 -14 -35v-100q0 -20 14 -35l31 -32q14 -14 35 -15h98q20 0 35 15l31 32q14 14 14 35v100q0 21 -14 35l-31 31q-14 14 -35 14zM885 442h172q20 0 35 -14l82 -84q14 -14 14 -35 v-174q0 -20 -14 -35l-82 -86q-14 -14 -35 -14h-172q-20 0 -35 14l-86 86q-14 14 -14 35v174q0 20 14 35l86 84q15 14 35 14zM1411 442h172q20 0 35 -14l84 -84q14 -14 14 -35v-174q0 -20 -14 -35l-84 -86q-14 -14 -35 -14h-172q-20 0 -35 14l-84 86q-14 14 -14 35v174 q0 20 14 35l84 84q15 14 35 14zM1018 352h-98q-20 0 -35 -14l-31 -31q-14 -14 -14 -35v-102q0 -20 14 -35l31 -31q14 -14 35 -14h98q20 0 35 14l30 31q14 14 15 35v102q-1 21 -15 35l-30 31q-14 14 -35 14zM1544 352h-94q-20 0 -35 -14l-33 -31q-14 -14 -14 -35v-102 q0 -20 14 -35l33 -31q14 -14 35 -14h94q20 0 35 14l33 31q14 14 14 35v102q0 21 -14 35l-33 31q-14 14 -35 14z" glyph-name="perthousand" horiz-adv-x="1746" unicode="‰"/><glyph d="M342 797q-10 -18 0 -37l213 -469q8 -25 -6 -39l-51 -51q-23 -23 -39 4l-299 469q-16 20 -23 26l-57 58q-20 20 0 41l57 57q6 6 23 27l299 471q16 27 39 4l51 -51q14 -14 6 -39z" glyph-name="guilsinglleft" horiz-adv-x="624" unicode="‹"/><glyph d="M465 883q16 -20 22 -27l58 -57q20 -20 0 -41l-58 -58q-6 -6 -22 -26l-299 -469q-16 -27 -39 -4l-51 51q-14 14 -6 39l215 469q10 18 0 37l-215 471q-8 25 6 39l51 51q23 23 39 -4z" glyph-name="guilsinglright" horiz-adv-x="624" unicode="›"/><glyph d="M967 842h-469q-29 0 -29 -29v-63q0 -29 29 -29h432q31 0 24 -33l-16 -63q-6 -25 -31 -25h-409q-29 0 -29 -29v-258q0 -13 16 -37q14 -14 35 -14h160q20 0 35 14v3q14 14 14 34v62q0 16 -6 35l-16 49q-10 33 24 33h256q35 0 25 -33l-17 -49q-6 -18 -6 -35v-225 q0 -20 -14 -35l-101 -101q-14 -14 -34 -14h-482q-20 0 -34 14l-99 101q-14 14 -14 35v421q0 29 -29 29h-133q-31 0 -24 33l16 63q6 25 31 25h110q29 0 29 29v63q0 29 -29 29h-133q-31 0 -24 32l16 64q6 25 31 25h110q29 0 29 28v418q0 20 14 35l99 98q14 14 34 14h482 q20 0 34 -14l101 -98q14 -14 14 -35v-223q0 -16 6 -35l17 -49q10 -33 -25 -33h-256q-35 0 -24 33l16 49q6 18 6 35v63q0 19 -14 35t-35 16h-160q-21 0 -36 -15t-15 -36v-258q0 -29 29 -28h491q31 0 25 -33l-17 -64q-5 -24 -30 -24z" glyph-name="Euro" horiz-adv-x="1097" unicode="€"/><glyph d="M172 1458q0 14 -16 17h-54q-6 0 -18 -4t-15 -2.5t-1 6.5l10 73q2 8 10 8h246q8 0 10 -8l12 -73q2 -8 -8 -9l-22 7q-2 2 -9 2h-49q-14 0 -14 -17v-356q0 -6 2 -8l4 -17q4 -8 -8 -8h-80q-10 0 -6 10l4 15q2 2 2 10v354zM563 1194q-6 0 -8 6l-63 156q-8 6 -11 -2v-250 q0 -8 2 -10l4 -15q4 -10 -6 -10h-80q-12 0 -8 8l4 17q2 2 2 8v418q0 6 -2 8l-4 20q-4 8 8 8h74q4 0 8 -6l99 -225q6 -10 12 0l96 225q2 6 8 6h76q10 0 6 -8l-4 -20q-2 -2 -2 -8v-418q0 -6 2 -8l4 -17q4 -8 -8 -8h-82q-10 0 -6 10l6 15q2 2 2 10v254q-2 10 -8 -2l-66 -156 q-4 -6 -8 -6h-47z" glyph-name="trademark" horiz-adv-x="849" unicode="™"/><glyph d="M932 905v-256q0 -35 -33 -24l-51 16q-18 6 -35 6h-543q-16 0 -34 -6l-54 -16q-33 -10 -32 24v256q0 35 32 25l54 -17q18 -6 34 -6h543q17 0 35 6l51 17q33 10 33 -25z" glyph-name="minus" horiz-adv-x="1081" unicode="−"/><glyph d="M752 909h-127q-27 0 -33 -24l-47 -207q-6 -31 26 -31h181q16 0 34 6l54 17q33 10 32 -25v-252q0 -35 -32 -24l-54 16q-18 6 -34 6h-244q-27 0 -33 -24l-69 -301q-6 -25 -33 -25h-121q-35 0 -25 31l66 288q10 31 -25 31h-59q-16 0 -35 -6l-51 -16q-33 -10 -33 24v252 q0 35 33 25l51 -17q18 -6 35 -6h123q27 0 33 25l47 207q6 31 -27 30h-176q-16 0 -35 -6l-51 -16q-33 -10 -33 24v256q0 35 33 25l51 -16q18 -6 35 -7h242q27 0 32 25l70 297q6 25 33 25h123q35 0 24 -33l-67 -281q-10 -33 24 -33h62q16 0 34 7l54 16q33 10 32 -25v-256 q0 -35 -32 -24l-54 16q-18 6 -34 6z" glyph-name="notequal" horiz-adv-x="962" unicode="≠"/><glyph d="M1018 0h-254q-37 0 -25 30t9 50l-72 295q-3 19 -20 36t-42 9l-190 -88q-16 -8 -35.5 -27.5t-21.5 -36.5l-43 -188q-5 -21 6.5 -50.5t-23.5 -29.5h-254q-37 0 -20 35l26 53q10 20 13 33l309 1327q4 18 -2 37l-12 39q-10 33 24 32h289q33 0 22 -32l-10 -39q-4 -17 -2 -37 l309 -1327q2 -12 13 -33l26 -53q8 -14 2 -24.5t-22 -10.5zM516 1030l-76 -362q-4 -51 43 -35l90 43q20 10 30.5 19t8.5 34l-63 301q-2 14 -9.5 19.5t-14.5 0t-9 -19.5z" glyph-name="A.salt"/><glyph d="M358 1788l160 323q8 14 25 27l84 49q23 16 39 -6l100 -115q18 -18 -2 -38l-322 -285q-18 -18 -41 -6l-28 12q-27 14 -15 39zM1018 0h-254q-37 0 -25 30t9 50l-72 295q-3 19 -20 36t-42 9l-190 -88q-16 -8 -36 -28t-21 -36l-43 -188q-5 -21 7 -50q11 -30 -24 -30h-254 q-37 0 -20 35l26 53q10 20 13 33l309 1327q4 18 -2 37l-12 39q-10 33 24 32h289q33 0 22 -32l-10 -39q-4 -17 -2 -37l309 -1327q2 -12 13 -33l26 -53q8 -14 2 -24.5t-22 -10.5zM516 1030l-76 -362q-4 -51 43 -35l90 43q21 10 31 19t8 34l-63 301q-2 14 -9.5 19.5t-14.5 0 t-9 -19.5z" glyph-name="Aacute.aalt"/><glyph d="M688 1733q-25 0 -35 22l-94 209q-10 23 -26.5 23t-28.5 -23l-94 -209q-12 -23 -35 -22h-101q-37 0 -20 34l115 240q8 16 20 29l113 114q30 30 59 0l115 -114q12 -12 20 -29l115 -240q16 -35 -20 -34h-103zM1018 0h-254q-37 0 -25 30t9 50l-72 295q-3 19 -20 36t-42 9 l-190 -88q-16 -8 -36 -28t-21 -36l-43 -188q-5 -21 7 -50q11 -30 -24 -30h-254q-37 0 -20 35l26 53q10 20 13 33l309 1327q4 18 -2 37l-12 39q-10 33 24 32h289q33 0 22 -32l-10 -39q-4 -17 -2 -37l309 -1327q2 -12 13 -33l26 -53q8 -14 2 -24.5t-22 -10.5zM516 1030 l-76 -362q-4 -51 43 -35l90 43q21 10 31 19t8 34l-63 301q-2 14 -9.5 19.5t-14.5 0t-9 -19.5z" glyph-name="Acircumflex.aalt"/><glyph d="M408 1987q20 0 34 -15l33 -33q14 -14 14 -34v-99q0 -20 -14 -34l-33 -31q-14 -14 -34 -15h-95q-20 0 -34 15l-33 31q-14 14 -15 34v99q1 20 15 34l33 33q14 14 34 15h95zM754 1987q20 0 34 -15l31 -33q14 -14 15 -34v-99q0 -20 -15 -34l-31 -31q-14 -14 -34 -15h-101 q-20 0 -35 15l-30 31q-14 14 -15 34v99q1 20 15 34l30 33q14 14 35 15h101zM1018 0h-254q-37 0 -25 30t9 50l-72 295q-3 19 -20 36t-42 9l-190 -88q-16 -8 -36 -28t-21 -36l-43 -188q-5 -21 7 -50q11 -30 -24 -30h-254q-37 0 -20 35l26 53q10 20 13 33l309 1327q4 18 -2 37 l-12 39q-10 33 24 32h289q33 0 22 -32l-10 -39q-4 -17 -2 -37l309 -1327q2 -12 13 -33l26 -53q8 -14 2 -24.5t-22 -10.5zM516 1030l-76 -362q-4 -51 43 -35l90 43q21 10 31 19t8 34l-63 301q-2 14 -9.5 19.5t-14.5 0t-9 -19.5z" glyph-name="Adieresis.aalt"/><glyph d="M330 2066l102 115q16 23 39 6l84 -49q16 -12 25 -27l159 -323q12 -25 -14 -39l-31 -14q-25 -8 -41 8l-319 285q-22 20 -4 38zM1018 0h-254q-37 0 -25 30t9 50l-72 295q-3 19 -20 36t-42 9l-190 -88q-16 -8 -36 -28t-21 -36l-43 -188q-5 -21 7 -50q11 -30 -24 -30h-254 q-37 0 -20 35l26 53q10 20 13 33l309 1327q4 18 -2 37l-12 39q-10 33 24 32h289q33 0 22 -32l-10 -39q-4 -17 -2 -37l309 -1327q2 -12 13 -33l26 -53q8 -14 2 -24.5t-22 -10.5zM516 1030l-76 -362q-4 -51 43 -35l90 43q21 10 31 19t8 34l-63 301q-2 14 -9.5 19.5t-14.5 0 t-9 -19.5z" glyph-name="Agrave.aalt"/><glyph d="M446 2181h172q20 0 35 -14l84 -84q14 -14 15 -35v-176q0 -20 -15 -35l-84 -86q-14 -14 -35 -14h-172q-20 0 -34 14l-86 86q-14 14 -15 35v176q0 20 15 35l86 84q14 14 34 14zM580 2091h-99q-20 0 -35 -14l-30 -33q-14 -14 -15 -35v-100q0 -20 15 -35l30 -33 q14 -14 35 -14h99q20 0 34 14l33 33q14 14 15 35v100q-1 21 -15 35l-33 33q-14 14 -34 14zM1018 0h-254q-37 0 -25 30t9 50l-72 295q-3 19 -20 36t-42 9l-190 -88q-16 -8 -36 -28t-21 -36l-43 -188q-5 -21 7 -50q11 -30 -24 -30h-254q-37 0 -20 35l26 53q10 20 13 33 l309 1327q4 18 -2 37l-12 39q-10 33 24 32h289q33 0 22 -32l-10 -39q-4 -17 -2 -37l309 -1327q2 -12 13 -33l26 -53q8 -14 2 -24.5t-22 -10.5zM516 1030l-76 -362q-4 -51 43 -35l90 43q21 10 31 19t8 34l-63 301q-2 14 -9.5 19.5t-14.5 0t-9 -19.5z" glyph-name="Aring.aalt"/><glyph d="M362 1999h103q18 0 35 -8l137 -68q18 -12 39 0l39 19q18 10 26 26l17 33q16 31 41 6l24 -25q16 -16 8 -38l-24 -78q-4 -14 -19 -33l-57 -57q-14 -14 -35 -15h-102q-18 0 -35 8l-133 70q-16 12 -39 2l-49 -22q-14 -8 -35 -11l-45 -8q-16 -4 -23.5 5.5t-1.5 25.5l21 65 q4 14 18 33l56 56q14 14 34 14zM1018 0h-254q-37 0 -25 30t9 50l-72 295q-3 19 -20 36t-42 9l-190 -88q-16 -8 -36 -28t-21 -36l-43 -188q-5 -21 7 -50q11 -30 -24 -30h-254q-37 0 -20 35l26 53q10 20 13 33l309 1327q4 18 -2 37l-12 39q-10 33 24 32h289q33 0 22 -32 l-10 -39q-4 -17 -2 -37l309 -1327q2 -12 13 -33l26 -53q8 -14 2 -24.5t-22 -10.5zM516 1030l-76 -362q-4 -51 43 -35l90 43q21 10 31 19t8 34l-63 301q-2 14 -9.5 19.5t-14.5 0t-9 -19.5z" glyph-name="Atilde.aalt"/><glyph d="M113 147v1266q0 10 -4 35l-21 76q-6 33 25 32h626q20 0 35 -14l103 -98q14 -14 14 -35v-410q0 -20 -14 -34l-99 -95q-18 -23 0 -41l99 -96q14 -14 14 -35v-548q0 -20 -14 -35l-103 -101q-14 -14 -35 -14h-626q-31 0 -25 33l21 80q4 24 4 34zM371 1249v-338q0 -23 12 -30 q10 -14 33 2l170 104q44 35 45 62v200q1 19 -15 35t-36 16h-158q-21 0 -36 -15t-15 -36zM631 313v349q0 18 -10 32q-12 10 -33 -2l-172 -104q-21 -15 -33 -27t-12 -33v-215q0 -13 16 -37q14 -14 35 -14h158q25 0 36 17q15 14 15 34z" glyph-name="B.aalt" horiz-adv-x="987"/><glyph d="M113 143v1268q0 10 -4 35l-21 78q-6 33 25 32h256q31 0 24 -32l-20 -78q-4 -25 -4 -35v-493q0 -20 12 -33t35 2l168 102q43 27 45 60v362q0 10 -4 35l-19 78q-10 33 25 32h260q31 0 24 -32l-20 -78q-4 -25 -4 -35v-1268q0 -10 4 -34l20 -76q6 -33 -24 -33h-260 q-35 0 -25 33l19 76q4 25 4 34v514q0 18 -11 33q-12 10 -32 -2l-172 -104q-12 -6 -28.5 -21.5t-16.5 -36.5v-383q0 -10 4 -34l20 -76q6 -33 -24 -33h-256q-31 0 -25 33l21 76q4 24 4 34z" glyph-name="H.aalt" horiz-adv-x="1003"/><glyph d="M369 471v-328q0 -10 4 -34l20 -76q6 -33 -24 -33h-256q-31 0 -25 33l21 76q4 25 4 34v1268q0 10 -4 35l-21 78q-6 33 25 32h626q20 0 35 -14l103 -98q14 -14 14 -35v-518q0 -20 -14 -35l-105 -100q-10 -10 -27 -21l-331 -207q-45 -23 -45 -57zM369 1245v-375 q0 -18 11 -29t34 3l170 104q10 5 27 21t18 37v239q0 20 -15 35h-2q-14 14 -34 14h-158q-20 0 -36 -14t-15 -35z" glyph-name="P.aalt" horiz-adv-x="950"/><glyph d="M838 -262h-209q-25 0 -33 20l-109 222q-8 20 -32 20h-207q-20 0 -35 14l-102 101q-14 14 -15 35v1259q0 20 15 35l102 98q14 14 35 14h477q20 0 35 -14l100 -98q14 -14 14 -35v-1259q0 -20 -14 -35l-96 -97q-16 -16 -8 -41l102 -204q8 -14 2 -24.5t-22 -10.5zM358 1245 v-936q0 -20 14.5 -34.5t35.5 -14.5h159q20 0 34.5 14.5t14.5 34.5v936q0 20 -14 34.5t-35 14.5h-159q-20 0 -35 -14.5t-15 -34.5z" glyph-name="Q.aalt" horiz-adv-x="970"/><glyph d="M879 0h-258q-31 0 -25 31l12 73q4 12 0 37l-88 398q-2 14 -12 30q-10 10 -33 -2l-61 -39q-45 -22 -45 -57v-328q0 -10 4 -34l20 -76q6 -33 -24 -33h-256q-31 0 -25 33l21 76q4 25 4 34v1268q0 10 -4 35l-21 78q-6 33 25 32h626q20 0 35 -14l103 -98q14 -14 14 -35v-518 q0 -20 -14 -35l-117 -117q-14 -14 -12 -39l124 -569l31 -98q11 -33 -24 -33zM629 1245q0 20 -15 35h-2q-14 14 -34 14h-158q-20 0 -35.5 -14t-15.5 -35v-393q0 -18 11 -29.5t34 2.5l170 105q43 22 45 57v258z" glyph-name="R.aalt" horiz-adv-x="987"/><glyph d="M883 1409v-227q0 -16 6 -35l16 -49q12 -33 -22 -33h-256q-35 0 -25 33l14 49q6 18 7 35v63q0 20 -15 35h-2q-14 14 -35 14h-157q-20 0 -35.5 -14t-16.5 -35v-241q0 -20 17 -37q18 -14 31 -19l325 -108q18 -6 31 -21l102 -102q14 -14 15 -35v-532q0 -20 -15 -35l-100 -101 q-14 -14 -35 -14h-477q-20 0 -35 14l-106 101q-14 14 -15 35v223q0 10 -4 35l-14 49q-10 33 22 32h256q35 0 25 -32l-16 -49q-6 -18 -7 -35v-64q0 -20 15 -35h2q14 -14 35 -14h157q20 0 35.5 14t16.5 35v242q0 20 -17 37q-18 14 -31 18l-321 109q-14 4 -33 18l-106 105 q-14 14 -15 34v537q0 20 15 35l106 98q14 14 35 14h477q20 0 35 -14l100 -98q15 -15 15 -35z" glyph-name="S.aalt" horiz-adv-x="989"/><glyph d="M518 1733q-16 0 -31 14l-114 115q-12 12 -21 28l-108 242q-8 14 -2 23.5t22 9.5h98q23 0 35 -23l92 -211q10 -23 29 -22.5t27 20.5l98 215q8 20 35 21h100q37 0 21 -35l-119 -240q-8 -16 -21 -28l-112 -115q-13 -14 -29 -14zM883 1409v-227q0 -16 6 -35l16 -49 q12 -33 -22 -33h-256q-35 0 -25 33l14 49q6 18 7 35v63q0 20 -15 35h-2q-14 14 -35 14h-157q-20 0 -36 -14t-16 -35v-241q0 -20 17 -37q18 -14 31 -19l325 -108q18 -6 31 -21l102 -102q14 -14 15 -35v-532q0 -20 -15 -35l-100 -101q-14 -14 -35 -14h-477q-20 0 -35 14 l-106 101q-14 14 -15 35v223q0 10 -4 35l-14 49q-10 33 22 32h256q35 0 25 -32l-16 -49q-6 -18 -7 -35v-64q0 -20 15 -35h2q14 -14 35 -14h157q19 0 35 14t17 35v242q0 20 -17 37q-18 14 -31 18l-321 109q-14 4 -33 18l-106 105q-14 14 -15 34v537q0 20 15 35l106 98 q14 14 35 14h477q20 0 35 -14l100 -98q15 -15 15 -35z" glyph-name="Scaron.aalt" horiz-adv-x="989"/><glyph d="M1018 0h-254q-37 0 -25 30t9 50l-72 295q-3 19 -20 36t-42 9l-190 -88q-16 -8 -36 -28t-21 -36l-43 -188q-5 -21 7 -50q11 -30 -24 -30h-254q-37 0 -20 35l26 53q10 20 13 33l309 1327q4 18 -2 37l-12 39q-10 33 24 32h289q33 0 22 -32l-10 -39q-4 -17 -2 -37l309 -1327 q2 -12 13 -33l26 -53q8 -14 2 -24.5t-22 -10.5zM516 1030l-76 -362q-4 -51 43 -35l90 43q21 10 31 19t8 34l-63 301q-2 14 -9.5 19.5t-14.5 0t-9 -19.5z" glyph-name="a.salt"/><glyph d="M358 1788l160 323q8 14 25 27l84 49q23 16 39 -6l100 -115q18 -18 -2 -38l-322 -285q-18 -18 -41 -6l-28 12q-27 14 -15 39zM1018 0h-254q-37 0 -25 30t9 50l-72 295q-3 19 -20 36t-42 9l-190 -88q-16 -8 -36 -28t-21 -36l-43 -188q-5 -21 7 -50q11 -30 -24 -30h-254 q-37 0 -20 35l26 53q10 20 13 33l309 1327q4 18 -2 37l-12 39q-10 33 24 32h289q33 0 22 -32l-10 -39q-4 -17 -2 -37l309 -1327q2 -12 13 -33l26 -53q8 -14 2 -24.5t-22 -10.5zM516 1030l-76 -362q-4 -51 43 -35l90 43q21 10 31 19t8 34l-63 301q-2 14 -9.5 19.5t-14.5 0 t-9 -19.5z" glyph-name="aacute.aalt"/><glyph d="M688 1733q-25 0 -35 22l-94 209q-10 23 -26.5 23t-28.5 -23l-94 -209q-12 -23 -35 -22h-101q-37 0 -20 34l115 240q8 16 20 29l113 114q30 30 59 0l115 -114q12 -12 20 -29l115 -240q16 -35 -20 -34h-103zM1018 0h-254q-37 0 -25 30t9 50l-72 295q-3 19 -20 36t-42 9 l-190 -88q-16 -8 -36 -28t-21 -36l-43 -188q-5 -21 7 -50q11 -30 -24 -30h-254q-37 0 -20 35l26 53q10 20 13 33l309 1327q4 18 -2 37l-12 39q-10 33 24 32h289q33 0 22 -32l-10 -39q-4 -17 -2 -37l309 -1327q2 -12 13 -33l26 -53q8 -14 2 -24.5t-22 -10.5zM516 1030 l-76 -362q-4 -51 43 -35l90 43q21 10 31 19t8 34l-63 301q-2 14 -9.5 19.5t-14.5 0t-9 -19.5z" glyph-name="acircumflex.aalt"/><glyph d="M408 1987q20 0 34 -15l33 -33q14 -14 14 -34v-99q0 -20 -14 -34l-33 -31q-14 -14 -34 -15h-95q-20 0 -34 15l-33 31q-14 14 -15 34v99q1 20 15 34l33 33q14 14 34 15h95zM754 1987q20 0 34 -15l31 -33q14 -14 15 -34v-99q0 -20 -15 -34l-31 -31q-14 -14 -34 -15h-101 q-20 0 -35 15l-30 31q-14 14 -15 34v99q1 20 15 34l30 33q14 14 35 15h101zM1018 0h-254q-37 0 -25 30t9 50l-72 295q-3 19 -20 36t-42 9l-190 -88q-16 -8 -36 -28t-21 -36l-43 -188q-5 -21 7 -50q11 -30 -24 -30h-254q-37 0 -20 35l26 53q10 20 13 33l309 1327q4 18 -2 37 l-12 39q-10 33 24 32h289q33 0 22 -32l-10 -39q-4 -17 -2 -37l309 -1327q2 -12 13 -33l26 -53q8 -14 2 -24.5t-22 -10.5zM516 1030l-76 -362q-4 -51 43 -35l90 43q21 10 31 19t8 34l-63 301q-2 14 -9.5 19.5t-14.5 0t-9 -19.5z" glyph-name="adieresis.aalt"/><glyph d="M330 2066l102 115q16 23 39 6l84 -49q16 -12 25 -27l159 -323q12 -25 -14 -39l-31 -14q-25 -8 -41 8l-319 285q-22 20 -4 38zM1018 0h-254q-37 0 -25 30t9 50l-72 295q-3 19 -20 36t-42 9l-190 -88q-16 -8 -36 -28t-21 -36l-43 -188q-5 -21 7 -50q11 -30 -24 -30h-254 q-37 0 -20 35l26 53q10 20 13 33l309 1327q4 18 -2 37l-12 39q-10 33 24 32h289q33 0 22 -32l-10 -39q-4 -17 -2 -37l309 -1327q2 -12 13 -33l26 -53q8 -14 2 -24.5t-22 -10.5zM516 1030l-76 -362q-4 -51 43 -35l90 43q21 10 31 19t8 34l-63 301q-2 14 -9.5 19.5t-14.5 0 t-9 -19.5z" glyph-name="agrave.aalt"/><glyph d="M446 2181h172q20 0 35 -14l84 -84q14 -14 15 -35v-176q0 -20 -15 -35l-84 -86q-14 -14 -35 -14h-172q-20 0 -34 14l-86 86q-14 14 -15 35v176q0 20 15 35l86 84q14 14 34 14zM580 2091h-99q-20 0 -35 -14l-30 -33q-14 -14 -15 -35v-100q0 -20 15 -35l30 -33 q14 -14 35 -14h99q20 0 34 14l33 33q14 14 15 35v100q-1 21 -15 35l-33 33q-14 14 -34 14zM1018 0h-254q-37 0 -25 30t9 50l-72 295q-3 19 -20 36t-42 9l-190 -88q-16 -8 -36 -28t-21 -36l-43 -188q-5 -21 7 -50q11 -30 -24 -30h-254q-37 0 -20 35l26 53q10 20 13 33 l309 1327q4 18 -2 37l-12 39q-10 33 24 32h289q33 0 22 -32l-10 -39q-4 -17 -2 -37l309 -1327q2 -12 13 -33l26 -53q8 -14 2 -24.5t-22 -10.5zM516 1030l-76 -362q-4 -51 43 -35l90 43q21 10 31 19t8 34l-63 301q-2 14 -9.5 19.5t-14.5 0t-9 -19.5z" glyph-name="aring.aalt"/><glyph d="M362 1999h103q18 0 35 -8l137 -68q18 -12 39 0l39 19q18 10 26 26l17 33q16 31 41 6l24 -25q16 -16 8 -38l-24 -78q-4 -14 -19 -33l-57 -57q-14 -14 -35 -15h-102q-18 0 -35 8l-133 70q-16 12 -39 2l-49 -22q-14 -8 -35 -11l-45 -8q-16 -4 -23.5 5.5t-1.5 25.5l21 65 q4 14 18 33l56 56q14 14 34 14zM1018 0h-254q-37 0 -25 30t9 50l-72 295q-3 19 -20 36t-42 9l-190 -88q-16 -8 -36 -28t-21 -36l-43 -188q-5 -21 7 -50q11 -30 -24 -30h-254q-37 0 -20 35l26 53q10 20 13 33l309 1327q4 18 -2 37l-12 39q-10 33 24 32h289q33 0 22 -32 l-10 -39q-4 -17 -2 -37l309 -1327q2 -12 13 -33l26 -53q8 -14 2 -24.5t-22 -10.5zM516 1030l-76 -362q-4 -51 43 -35l90 43q21 10 31 19t8 34l-63 301q-2 14 -9.5 19.5t-14.5 0t-9 -19.5z" glyph-name="atilde.aalt"/><glyph d="M113 147v1266q0 10 -4 35l-21 76q-6 33 25 32h626q20 0 35 -14l103 -98q14 -14 14 -35v-410q0 -20 -14 -34l-99 -95q-18 -23 0 -41l99 -96q14 -14 14 -35v-548q0 -20 -14 -35l-103 -101q-14 -14 -35 -14h-626q-31 0 -25 33l21 80q4 24 4 34zM371 1249v-338q0 -23 12 -30 q10 -14 33 2l170 104q44 35 45 62v200q1 19 -15 35t-36 16h-158q-21 0 -36 -15t-15 -36zM631 313v349q0 18 -10 32q-12 10 -33 -2l-172 -104q-21 -15 -33 -27t-12 -33v-215q0 -13 16 -37q14 -14 35 -14h158q25 0 36 17q15 14 15 34z" glyph-name="b.aalt" horiz-adv-x="987"/><glyph d="M113 143v1268q0 10 -4 35l-21 78q-6 33 25 32h256q31 0 24 -32l-20 -78q-4 -25 -4 -35v-493q0 -20 12 -33t35 2l168 102q43 27 45 60v362q0 10 -4 35l-19 78q-10 33 25 32h260q31 0 24 -32l-20 -78q-4 -25 -4 -35v-1268q0 -10 4 -34l20 -76q6 -33 -24 -33h-260 q-35 0 -25 33l19 76q4 25 4 34v514q0 18 -11 33q-12 10 -32 -2l-172 -104q-12 -6 -28.5 -21.5t-16.5 -36.5v-383q0 -10 4 -34l20 -76q6 -33 -24 -33h-256q-31 0 -25 33l21 76q4 24 4 34z" glyph-name="h.aalt" horiz-adv-x="1003"/><glyph d="M369 471v-328q0 -10 4 -34l20 -76q6 -33 -24 -33h-256q-31 0 -25 33l21 76q4 25 4 34v1268q0 10 -4 35l-21 78q-6 33 25 32h626q20 0 35 -14l103 -98q14 -14 14 -35v-518q0 -20 -14 -35l-105 -100q-10 -10 -27 -21l-331 -207q-45 -23 -45 -57zM369 1245v-375 q0 -18 11 -29t34 3l170 104q10 5 27 21t18 37v239q0 20 -15 35h-2q-14 14 -34 14h-158q-20 0 -36 -14t-15 -35z" glyph-name="p.aalt" horiz-adv-x="950"/><glyph d="M838 -262h-209q-25 0 -33 20l-109 222q-8 20 -32 20h-207q-20 0 -35 14l-102 101q-14 14 -15 35v1259q0 20 15 35l102 98q14 14 35 14h477q20 0 35 -14l100 -98q14 -14 14 -35v-1259q0 -20 -14 -35l-96 -97q-16 -16 -8 -41l102 -204q8 -14 2 -24.5t-22 -10.5zM358 1245 v-936q0 -20 14.5 -34.5t35.5 -14.5h159q20 0 34.5 14.5t14.5 34.5v936q0 20 -14 34.5t-35 14.5h-159q-20 0 -35 -14.5t-15 -34.5z" glyph-name="q.aalt" horiz-adv-x="970"/><glyph d="M879 0h-258q-31 0 -25 31l12 73q4 12 0 37l-88 398q-2 14 -12 30q-10 10 -33 -2l-61 -39q-45 -22 -45 -57v-328q0 -10 4 -34l20 -76q6 -33 -24 -33h-256q-31 0 -25 33l21 76q4 25 4 34v1268q0 10 -4 35l-21 78q-6 33 25 32h626q20 0 35 -14l103 -98q14 -14 14 -35v-518 q0 -20 -14 -35l-117 -117q-14 -14 -12 -39l124 -569l31 -98q11 -33 -24 -33zM629 1245q0 20 -15 35h-2q-14 14 -34 14h-158q-20 0 -35.5 -14t-15.5 -35v-393q0 -18 11 -29.5t34 2.5l170 105q43 22 45 57v258z" glyph-name="r.aalt" horiz-adv-x="987"/><glyph d="M883 1409v-227q0 -16 6 -35l16 -49q12 -33 -22 -33h-256q-35 0 -25 33l14 49q6 18 7 35v63q0 20 -15 35h-2q-14 14 -35 14h-157q-20 0 -35.5 -14t-16.5 -35v-241q0 -20 17 -37q18 -14 31 -19l325 -108q18 -6 31 -21l102 -102q14 -14 15 -35v-532q0 -20 -15 -35l-100 -101 q-14 -14 -35 -14h-477q-20 0 -35 14l-106 101q-14 14 -15 35v223q0 10 -4 35l-14 49q-10 33 22 32h256q35 0 25 -32l-16 -49q-6 -18 -7 -35v-64q0 -20 15 -35h2q14 -14 35 -14h157q20 0 35.5 14t16.5 35v242q0 20 -17 37q-18 14 -31 18l-321 109q-14 4 -33 18l-106 105 q-14 14 -15 34v537q0 20 15 35l106 98q14 14 35 14h477q20 0 35 -14l100 -98q15 -15 15 -35z" glyph-name="s.aalt" horiz-adv-x="989"/><glyph d="M518 1733q-16 0 -31 14l-114 115q-12 12 -21 28l-108 242q-8 14 -2 23.5t22 9.5h98q23 0 35 -23l92 -211q10 -23 29 -22.5t27 20.5l98 215q8 20 35 21h100q37 0 21 -35l-119 -240q-8 -16 -21 -28l-112 -115q-13 -14 -29 -14zM883 1409v-227q0 -16 6 -35l16 -49 q12 -33 -22 -33h-256q-35 0 -25 33l14 49q6 18 7 35v63q0 20 -15 35h-2q-14 14 -35 14h-157q-20 0 -36 -14t-16 -35v-241q0 -20 17 -37q18 -14 31 -19l325 -108q18 -6 31 -21l102 -102q14 -14 15 -35v-532q0 -20 -15 -35l-100 -101q-14 -14 -35 -14h-477q-20 0 -35 14 l-106 101q-14 14 -15 35v223q0 10 -4 35l-14 49q-10 33 22 32h256q35 0 25 -32l-16 -49q-6 -18 -7 -35v-64q0 -20 15 -35h2q14 -14 35 -14h157q19 0 35 14t17 35v242q0 20 -17 37q-18 14 -31 18l-321 109q-14 4 -33 18l-106 105q-14 14 -15 34v537q0 20 15 35l106 98 q14 14 35 14h477q20 0 35 -14l100 -98q15 -15 15 -35z" glyph-name="scaron.aalt" horiz-adv-x="989"/><glyph d="M369 1249v-1132q0 -16 6 -35l16 -49q10 -33 -24 -33h-252q-35 0 -25 33l16 49q6 18 7 35v1292q0 20 14 35l98 98q14 14 35 14h629q20 0 35 -14l102 -98q14 -14 14 -35v-483q0 -20 -14 -35l-96 -96q-18 -18 0 -41l96 -95q14 -14 14 -34v-475q0 -20 -14 -35l-102 -101 q-14 -14 -35 -14h-328q-29 0 -31 27l-38 225q-2 16 5 23.5t23 3.5l60 -15q25 -4 34 -4h117q19 0 35 14t16 35v291q0 20 -14 35h-2q-14 14 -35 14h-123q-16 0 -35 -6l-55 -16q-33 -10 -33 24v256q0 35 33 25l55 -17q18 -6 35 -6h123q19 -1 35 15t16 37v288q0 21 -15 36 t-36 15h-311q-21 0 -36 -16t-15 -35z" glyph-name="germandbls.aalt" horiz-adv-x="1120"/><glyph d="M967 987v569h422v-1556h-422v567h-527v-567h-420v1556h420v-569h527zM1620 0v1556h1180v-419h-758v-150h565v-420h-565v-567h-422zM3115 1466v47h-66v43h168v-96h-36v53h-29v-47h-37zM369 1516h-277l139 -140zM1319 1516h-281l140 -140zM2726 1516h-1034l145 -146h735z M1661 1487v-1413l149 153v1110zM2755 1206v279l-138 -137zM61 1483v-1409l148 151v1110zM399 1483l-147 -150v-495l147 143v502zM1008 1483v-502l147 -143v497zM1348 74v1409l-150 -148v-1110zM3133 1190q-39 0 -64.5 26.5t-25.5 66.5t26.5 66.5t64.5 26.5t63 -27.5 t25 -64.5t-25 -65.5t-64 -28.5zM3134 1331q-19 0 -33.5 -13t-14.5 -33.5t14.5 -34t33.5 -13.5t33 13.5t14 34t-14 33.5t-33 13zM2030 1180h696l-154 147h-690zM1853 838l146 141v170l-146 145v-456zM3045 1030q0 70 78 72h94v-43h-88q-47 0 -47 -30t47 -30h88v-45h-94 q-78 0 -78 76zM1126 799l-147 147h-549l-149 -147h845zM2537 946h-507l-150 -147h500zM2566 639v276l-139 -137zM3049 817v43h168v-43l-104 -80v-2h104v-43h-168v43l103 82h-103zM430 610h549l147 148h-845zM2030 610h507l-155 148h-502zM399 76v499l-147 146v-494z M1008 575v-501l147 151v496zM1999 78v500l-146 143v-494zM3049 532v62h168v-62q0 -35 -24.5 -59t-59 -24t-59.5 24t-25 59zM3086 553v-12q0 -47 47.5 -47t47.5 47v12h-95zM3049 317v41h168v-63q0 -59 -51 -59q-41 0 -49 36l-68 -53v55l64 41v2h-64zM3142 317v-4 q0 -31 20 -30q23 0 23 30v4h-43zM92 43h277l-138 137zM1038 43h281l-141 137zM1692 43h278l-139 137zM3049 106h80l88 62v-53l-47 -31l47 -31v-53l-88 61h-80v45z" glyph-name="glyph237" horiz-adv-x="3241"/></font>
</defs>
</svg>
